<svg xmlns="http://www.w3.org/2000/svg" width="99" height="140"><path d="M67.219.113H2.78A2.662 2.662 0 0 0 .113 2.771v93.458a2.662 2.662 0 0 0 2.668 2.658H67.22a2.662 2.662 0 0 0 2.668-2.658V2.771A2.662 2.662 0 0 0 67.219.113Zm0 0" style="fill-rule:nonzero;fill:#fff;fill-opacity:1;stroke-width:.755907;stroke-linecap:butt;stroke-linejoin:miter;stroke:gray;stroke-opacity:1;stroke-miterlimit:4" transform="scale(1.41429 1.41414)"/><path d="M9.14 6.043c-1.71 0-3.085 1.348-3.085 3.02v121.921c0 1.672 1.375 3.016 3.086 3.016h80.816c1.711 0 3.086-1.344 3.086-3.016V9.062c0-1.671-1.375-3.019-3.086-3.019Zm0 0" style="stroke:none;fill-rule:evenodd;fill:#fff;fill-opacity:1"/><path d="M6.463 4.273c-1.502 0-2.182.953-2.182 2.135v86.217c0 1.182.972 2.132 2.182 2.132h57.143c1.21 0 2.182-.95 2.182-2.132V6.408c0-1.182-.972-2.135-2.182-2.135Zm0 0" style="fill:none;stroke-width:3.55447;stroke-linecap:butt;stroke-linejoin:miter;stroke:#141414;stroke-opacity:1;stroke-miterlimit:10" transform="scale(1.41429 1.41414)"/><path d="M10.012 9.004c-.43 0-.778.34-.778.762V130.28c0 .422.348.758.778.758H88.89c.43 0 .777-.336.777-.758V9.766a.769.769 0 0 0-.777-.762Zm0 0" style="stroke:none;fill-rule:evenodd;fill:#fff;fill-opacity:1"/><path d="M25.621 24.895a.371.371 0 0 0-.375.367v89.906c0 .203.168.367.375.367h47.184c.21 0 .379-.164.379-.367V25.262a.372.372 0 0 0-.38-.367Zm0 0" style="stroke:none;fill-rule:evenodd;fill:#fff;fill-opacity:1"/><path d="M33.04 28.086c-2.454 0-4.43 1.934-4.43 4.34v75.195c0 2.402 1.976 4.34 4.43 4.34h31.839c2.453 0 4.43-1.938 4.43-4.34V32.426c0-2.406-1.977-4.34-4.43-4.34Zm0 0" style="stroke:none;fill-rule:evenodd;fill:#fff;fill-opacity:1"/><path d="M33.547 31.543c-.832 0-1.504.648-1.504 1.457v74.043c0 .809.672 1.46 1.504 1.46h30.937c.836 0 1.508-.651 1.508-1.46V33c0-.809-.672-1.457-1.508-1.457Zm0 0" style="stroke:none;fill-rule:evenodd;fill:#fff;fill-opacity:1"/><path d="M18.37 17.4a.26.26 0 0 0-.265.26v63.68c0 .147.119.26.265.26h33.26a.26.26 0 0 0 .265-.26V17.66a.26.26 0 0 0-.265-.26Zm0 0" style="fill:none;stroke-width:2.04721;stroke-linecap:butt;stroke-linejoin:miter;stroke:#141414;stroke-opacity:1;stroke-miterlimit:10" transform="scale(1.41429 1.41414)"/><path d="M23.706 19.794c-1.743 0-3.146 1.37-3.146 3.072v53.268c0 1.701 1.403 3.072 3.146 3.072h22.588c1.743 0 3.146-1.37 3.146-3.072V22.866c0-1.701-1.403-3.072-3.146-3.072Zm0 0" style="fill:none;stroke-width:2.57435;stroke-linecap:butt;stroke-linejoin:round;stroke:#141414;stroke-opacity:1;stroke-miterlimit:10" transform="scale(1.41429 1.41414)"/><path d="M24.123 22.242c-.585 0-1.058.461-1.058 1.033v52.447c0 .572.473 1.033 1.058 1.033h21.751c.586 0 1.06-.46 1.06-1.033V23.275c0-.572-.474-1.033-1.06-1.033Zm0 0" style="fill:none;stroke-width:2.24177;stroke-linecap:butt;stroke-linejoin:round;stroke:#141414;stroke-opacity:1;stroke-miterlimit:10" transform="scale(1.41429 1.41414)"/><path d="M10.078 9.875h3.543l-3.508 3.426ZM88.77 9.918h-3.54l3.504 3.426ZM88.832 130.277h-3.539l3.508-3.422ZM10.074 130.262h3.543l-3.508-3.426Zm0 0" style="stroke:none;fill-rule:evenodd;fill:#141414;fill-opacity:1"/><path d="M7.115 6.35c-.307 0-.55.24-.55.54v85.22c0 .3.243.54.55.54h55.77c.304 0 .55-.24.55-.54V6.89a.544.544 0 0 0-.55-.54Zm0 0" style="fill:none;stroke-width:3.33788;stroke-linecap:butt;stroke-linejoin:miter;stroke:#141414;stroke-opacity:1;stroke-miterlimit:10" transform="scale(1.41429 1.41414)"/><path d="M7.162 6.966h2.502L7.184 9.39Zm0 0" style="fill:none;stroke-width:1.0771;stroke-linecap:butt;stroke-linejoin:miter;stroke:#141414;stroke-opacity:1;stroke-miterlimit:10" transform="scale(1.41429 1.41414)"/><path d="M62.85 6.966H60.34l2.483 2.423ZM62.846 92.11h-2.505l2.48-2.422ZM7.16 92.097H9.66l-2.477-2.422Zm0 0" style="fill-rule:nonzero;fill:#141414;fill-opacity:1;stroke-width:1.0771;stroke-linecap:butt;stroke-linejoin:miter;stroke:#141414;stroke-opacity:1;stroke-miterlimit:10" transform="scale(1.41429 1.41414)"/><path d="M8.2 52.793v2.328l8.43-4.353v-2.384ZM8.245 57.196v2.326l8.426-4.354v-2.384ZM8.264 48.332v2.325l8.427-4.353V43.92Zm0 0" style="fill-rule:evenodd;fill:#fff;fill-opacity:1;stroke-width:1.64228;stroke-linecap:round;stroke-linejoin:round;stroke:#141414;stroke-opacity:1;stroke-miterlimit:10" transform="scale(1.41429 1.41414)"/><path d="M8.222 50.754v-2.329l8.43 4.354v2.384ZM8.22 43.928v2.33l8.427-4.354v-2.387Zm0 0" style="fill-rule:evenodd;fill:#fff;fill-opacity:1;stroke-width:1.64228;stroke-linecap:round;stroke-linejoin:round;stroke:#141414;stroke-opacity:1;stroke-miterlimit:10" transform="scale(1.41429 1.41414)"/><path d="M8.178 46.268V43.94l8.427 4.353v2.384ZM8.256 61.637v2.326l8.426-4.353v-2.384Zm0 0" style="fill-rule:evenodd;fill:#fff;fill-opacity:1;stroke-width:1.64228;stroke-linecap:round;stroke-linejoin:round;stroke:#141414;stroke-opacity:1;stroke-miterlimit:10" transform="scale(1.41429 1.41414)"/><path d="M8.159 55.132v-2.328l8.427 4.353v2.384ZM8.17 30.614v2.326l8.427-4.353v-2.384ZM8.214 35.015v2.328l8.427-4.353v-2.387ZM8.23 26.15v2.33l8.43-4.354v-2.387Zm0 0" style="fill-rule:evenodd;fill:#fff;fill-opacity:1;stroke-width:1.64228;stroke-linecap:round;stroke-linejoin:round;stroke:#141414;stroke-opacity:1;stroke-miterlimit:10" transform="scale(1.41429 1.41414)"/><path d="M8.192 28.573v-2.326l8.427 4.354v2.383ZM8.19 21.747v2.329l8.426-4.353v-2.384Zm0 0" style="fill-rule:evenodd;fill:#fff;fill-opacity:1;stroke-width:1.64228;stroke-linecap:round;stroke-linejoin:round;stroke:#141414;stroke-opacity:1;stroke-miterlimit:10" transform="scale(1.41429 1.41414)"/><path d="M8.148 24.087v-2.326l8.427 4.35v2.387ZM8.211 19.709v-2.326l8.427 4.353v2.384ZM8.225 39.456v2.329l8.427-4.353v-2.384Zm0 0" style="fill-rule:evenodd;fill:#fff;fill-opacity:1;stroke-width:1.64228;stroke-linecap:round;stroke-linejoin:round;stroke:#141414;stroke-opacity:1;stroke-miterlimit:10" transform="scale(1.41429 1.41414)"/><path d="M8.129 32.951v-2.326l8.426 4.35v2.388ZM8.242 41.89V39.56l8.427 4.354v2.384ZM8.14 37.393v-2.326l8.426 4.353v2.384ZM8.2 74.913v2.326l8.43-4.354v-2.383ZM8.245 79.313v2.329l8.426-4.353v-2.384Zm0 0" style="fill-rule:evenodd;fill:#fff;fill-opacity:1;stroke-width:1.64228;stroke-linecap:round;stroke-linejoin:round;stroke:#141414;stroke-opacity:1;stroke-miterlimit:10" transform="scale(1.41429 1.41414)"/><path d="M8.159 77.25v-2.326l8.427 4.353v2.384Zm0 0" style="fill-rule:evenodd;fill:#fff;fill-opacity:1;stroke-width:1.64228;stroke-linecap:round;stroke-linejoin:round;stroke:#141414;stroke-opacity:1;stroke-miterlimit:10" transform="scale(1.41429 1.41414)"/><path d="M11.688 99.625v3.29l11.917-6.153v-3.375Zm0 0" style="stroke:none;fill-rule:evenodd;fill:#fff;fill-opacity:1"/><path d="M8.22 66.049v2.326l8.427-4.354v-2.384Zm0 0" style="fill-rule:evenodd;fill:#fff;fill-opacity:1;stroke-width:1.64228;stroke-linecap:round;stroke-linejoin:round;stroke:#141414;stroke-opacity:1;stroke-miterlimit:10" transform="scale(1.41429 1.41414)"/><path d="M8.17 59.574v-2.329L16.6 61.6v2.386Zm0 0" style="fill-rule:evenodd;fill:#fff;fill-opacity:1;stroke-width:1.64228;stroke-linecap:round;stroke-linejoin:round;stroke:#141414;stroke-opacity:1;stroke-miterlimit:10" transform="scale(1.41429 1.41414)"/><path d="M8.264 70.45v2.325l8.427-4.35v-2.387Zm0 0" style="fill:none;stroke-width:1.64228;stroke-linecap:round;stroke-linejoin:round;stroke:#141414;stroke-opacity:1;stroke-miterlimit:10" transform="scale(1.41429 1.41414)"/><path d="M8.222 72.872v-2.326l8.43 4.353v2.384ZM8.178 68.386V66.06l8.427 4.353v2.384ZM8.242 64.007v-2.325l8.427 4.353v2.384Zm0 0" style="fill-rule:evenodd;fill:#fff;fill-opacity:1;stroke-width:1.64228;stroke-linecap:round;stroke-linejoin:round;stroke:#141414;stroke-opacity:1;stroke-miterlimit:10" transform="scale(1.41429 1.41414)"/><path d="M66.28 92.666c0 1.428-1.16 2.6-2.583 2.6H6.261c-1.42 0-2.58-1.172-2.58-2.6V6.26c0-1.428 1.16-2.599 2.58-2.599h57.436c1.423 0 2.583 1.171 2.583 2.6Zm0 0" style="fill:none;stroke-width:.62381;stroke-linecap:butt;stroke-linejoin:miter;stroke:#141414;stroke-opacity:1;stroke-miterlimit:4" transform="scale(1.41429 1.41414)"/><path d="M53.318 52.793v2.328l8.43-4.353v-2.384ZM53.362 57.196v2.326l8.427-4.354v-2.384ZM53.381 48.332v2.325l8.427-4.353V43.92Zm0 0" style="fill-rule:evenodd;fill:#fff;fill-opacity:1;stroke-width:1.64228;stroke-linecap:round;stroke-linejoin:round;stroke:#141414;stroke-opacity:1;stroke-miterlimit:10" transform="scale(1.41429 1.41414)"/><path d="M53.34 50.754v-2.329l8.43 4.354v2.384ZM53.337 43.928v2.33l8.43-4.354v-2.387Zm0 0" style="fill-rule:evenodd;fill:#fff;fill-opacity:1;stroke-width:1.64228;stroke-linecap:round;stroke-linejoin:round;stroke:#141414;stroke-opacity:1;stroke-miterlimit:10" transform="scale(1.41429 1.41414)"/><path d="M53.295 46.268V43.94l8.427 4.353v2.384ZM53.373 61.637v2.326l8.43-4.353v-2.384Zm0 0" style="fill-rule:evenodd;fill:#fff;fill-opacity:1;stroke-width:1.64228;stroke-linecap:round;stroke-linejoin:round;stroke:#141414;stroke-opacity:1;stroke-miterlimit:10" transform="scale(1.41429 1.41414)"/><path d="M53.276 55.132v-2.328l8.43 4.353v2.384ZM53.287 30.614v2.326l8.43-4.353v-2.384ZM53.331 35.015v2.328l8.427-4.353v-2.387ZM53.35 26.15v2.33l8.428-4.354v-2.387Zm0 0" style="fill-rule:evenodd;fill:#fff;fill-opacity:1;stroke-width:1.64228;stroke-linecap:round;stroke-linejoin:round;stroke:#141414;stroke-opacity:1;stroke-miterlimit:10" transform="scale(1.41429 1.41414)"/><path d="M53.31 28.573v-2.326l8.426 4.354v2.383ZM53.307 21.747v2.329l8.426-4.353v-2.384Zm0 0" style="fill-rule:evenodd;fill:#fff;fill-opacity:1;stroke-width:1.64228;stroke-linecap:round;stroke-linejoin:round;stroke:#141414;stroke-opacity:1;stroke-miterlimit:10" transform="scale(1.41429 1.41414)"/><path d="M53.265 24.087v-2.326l8.427 4.35v2.387ZM53.329 19.709v-2.326l8.426 4.353v2.384ZM53.342 39.456v2.329l8.427-4.353v-2.384Zm0 0" style="fill-rule:evenodd;fill:#fff;fill-opacity:1;stroke-width:1.64228;stroke-linecap:round;stroke-linejoin:round;stroke:#141414;stroke-opacity:1;stroke-miterlimit:10" transform="scale(1.41429 1.41414)"/><path d="M53.246 32.951v-2.326l8.43 4.35v2.388ZM53.359 41.89V39.56l8.427 4.354v2.384ZM53.257 37.393v-2.326l8.43 4.353v2.384ZM53.318 74.913v2.326l8.43-4.354v-2.383ZM53.362 79.313v2.329l8.427-4.353v-2.384Zm0 0" style="fill-rule:evenodd;fill:#fff;fill-opacity:1;stroke-width:1.64228;stroke-linecap:round;stroke-linejoin:round;stroke:#141414;stroke-opacity:1;stroke-miterlimit:10" transform="scale(1.41429 1.41414)"/><path d="M53.276 77.25v-2.326l8.43 4.353v2.384Zm0 0" style="fill-rule:evenodd;fill:#fff;fill-opacity:1;stroke-width:1.64228;stroke-linecap:round;stroke-linejoin:round;stroke:#141414;stroke-opacity:1;stroke-miterlimit:10" transform="scale(1.41429 1.41414)"/><path d="M75.496 99.625v3.29l11.918-6.153v-3.375Zm0 0" style="stroke:none;fill-rule:evenodd;fill:#fff;fill-opacity:1"/><path d="M53.337 66.049v2.326l8.43-4.354v-2.384Zm0 0" style="fill-rule:evenodd;fill:#fff;fill-opacity:1;stroke-width:1.64228;stroke-linecap:round;stroke-linejoin:round;stroke:#141414;stroke-opacity:1;stroke-miterlimit:10" transform="scale(1.41429 1.41414)"/><path d="M53.287 59.574v-2.329l8.43 4.354v2.386Zm0 0" style="fill-rule:evenodd;fill:#fff;fill-opacity:1;stroke-width:1.64228;stroke-linecap:round;stroke-linejoin:round;stroke:#141414;stroke-opacity:1;stroke-miterlimit:10" transform="scale(1.41429 1.41414)"/><path d="M53.381 70.45v2.325l8.427-4.35v-2.387Zm0 0" style="fill:none;stroke-width:1.64228;stroke-linecap:round;stroke-linejoin:round;stroke:#141414;stroke-opacity:1;stroke-miterlimit:10" transform="scale(1.41429 1.41414)"/><path d="M53.34 72.872v-2.326l8.43 4.353v2.384ZM53.295 68.386V66.06l8.427 4.353v2.384ZM53.359 64.007v-2.325l8.427 4.353v2.384ZM38.361 82.852H36.02l4.38 8.375h2.398ZM33.931 82.893H31.59l4.38 8.378h2.4ZM42.85 82.912h-2.34l4.38 8.376h2.398Zm0 0" style="fill-rule:evenodd;fill:#fff;fill-opacity:1;stroke-width:1.64228;stroke-linecap:round;stroke-linejoin:round;stroke:#141414;stroke-opacity:1;stroke-miterlimit:10" transform="scale(1.41429 1.41414)"/><path d="M40.414 82.874h2.339l-4.378 8.375h-2.4Zm0 0" style="fill-rule:evenodd;fill:#fff;fill-opacity:1;stroke-width:1.64228;stroke-linecap:round;stroke-linejoin:round;stroke:#141414;stroke-opacity:1;stroke-miterlimit:10" transform="scale(1.41429 1.41414)"/><path d="M47.28 82.871h-2.342l4.38 8.375h2.4Zm0 0" style="fill-rule:evenodd;fill:#cc2027;fill-opacity:1;stroke-width:1.64228;stroke-linecap:round;stroke-linejoin:round;stroke:#141414;stroke-opacity:1;stroke-miterlimit:10" transform="scale(1.41429 1.41414)"/><path d="M44.927 82.83h2.342l-4.38 8.375h-2.4ZM29.462 82.907H27.12l4.38 8.375h2.4Zm0 0" style="fill-rule:evenodd;fill:#fff;fill-opacity:1;stroke-width:1.64228;stroke-linecap:round;stroke-linejoin:round;stroke:#141414;stroke-opacity:1;stroke-miterlimit:10" transform="scale(1.41429 1.41414)"/><path d="M36.008 82.81h2.342l-4.38 8.376h-2.4ZM56.25 82.863h-2.344l4.38 8.375h2.4ZM51.78 82.874h-2.343l4.38 8.378h2.4Zm0 0" style="fill-rule:evenodd;fill:#fff;fill-opacity:1;stroke-width:1.64228;stroke-linecap:round;stroke-linejoin:round;stroke:#141414;stroke-opacity:1;stroke-miterlimit:10" transform="scale(1.41429 1.41414)"/><path d="M58.325 82.78h2.342l-4.38 8.375h-2.4ZM49.332 82.89h2.342l-4.38 8.378h-2.4ZM53.856 82.791h2.342l-4.38 8.375h-2.4ZM16.105 82.852h-2.342l4.38 8.375h2.4ZM11.675 82.893H9.333l4.38 8.378h2.4Zm0 0" style="fill-rule:evenodd;fill:#fff;fill-opacity:1;stroke-width:1.64228;stroke-linecap:round;stroke-linejoin:round;stroke:#141414;stroke-opacity:1;stroke-miterlimit:10" transform="scale(1.41429 1.41414)"/><path d="M13.75 82.81h2.344l-4.38 8.376h-2.4Zm0 0" style="fill-rule:evenodd;fill:#fff;fill-opacity:1;stroke-width:1.64228;stroke-linecap:round;stroke-linejoin:round;stroke:#141414;stroke-opacity:1;stroke-miterlimit:10" transform="scale(1.41429 1.41414)"/><path d="M29.125 117.25h-3.309l6.192 11.844h3.394Zm0 0" style="stroke:none;fill-rule:evenodd;fill:#fff;fill-opacity:1"/><path d="M25.024 82.871h-2.342l4.38 8.375h2.397Zm0 0" style="fill-rule:evenodd;fill:#fff;fill-opacity:1;stroke-width:1.64228;stroke-linecap:round;stroke-linejoin:round;stroke:#141414;stroke-opacity:1;stroke-miterlimit:10" transform="scale(1.41429 1.41414)"/><path d="M31.54 82.821h2.339L29.5 91.197h-2.4Zm0 0" style="fill-rule:evenodd;fill:#fff;fill-opacity:1;stroke-width:1.64228;stroke-linecap:round;stroke-linejoin:round;stroke:#141414;stroke-opacity:1;stroke-miterlimit:10" transform="scale(1.41429 1.41414)"/><path d="M20.593 82.912h-2.339l4.378 8.376h2.4Zm0 0" style="fill:none;stroke-width:1.64228;stroke-linecap:round;stroke-linejoin:round;stroke:#141414;stroke-opacity:1;stroke-miterlimit:10" transform="scale(1.41429 1.41414)"/><path d="M18.157 82.874H20.5l-4.381 8.375h-2.4ZM22.67 82.83h2.343l-4.38 8.375h-2.401ZM27.076 82.89h2.342l-4.38 8.378h-2.4ZM38.361 7.784H36.02l4.38 8.375h2.398ZM33.931 7.826H31.59l4.38 8.378h2.4ZM42.852 7.845H40.51l4.38 8.375h2.398Zm0 0" style="fill-rule:evenodd;fill:#fff;fill-opacity:1;stroke-width:1.64228;stroke-linecap:round;stroke-linejoin:round;stroke:#141414;stroke-opacity:1;stroke-miterlimit:10" transform="scale(1.41429 1.41414)"/><path d="M40.414 7.806h2.342l-4.38 8.375h-2.401ZM47.28 7.803h-2.342l4.38 8.376h2.4Zm0 0" style="fill-rule:evenodd;fill:#fff;fill-opacity:1;stroke-width:1.64228;stroke-linecap:round;stroke-linejoin:round;stroke:#141414;stroke-opacity:1;stroke-miterlimit:10" transform="scale(1.41429 1.41414)"/><path d="M44.927 7.762h2.342l-4.38 8.375H40.49ZM29.462 7.84H27.12l4.38 8.375h2.4Zm0 0" style="fill-rule:evenodd;fill:#fff;fill-opacity:1;stroke-width:1.64228;stroke-linecap:round;stroke-linejoin:round;stroke:#141414;stroke-opacity:1;stroke-miterlimit:10" transform="scale(1.41429 1.41414)"/><path d="M36.008 7.743h2.342l-4.38 8.375h-2.4ZM56.25 7.795h-2.344l4.38 8.375h2.4ZM51.78 7.806h-2.343l4.38 8.378h2.4Zm0 0" style="fill-rule:evenodd;fill:#fff;fill-opacity:1;stroke-width:1.64228;stroke-linecap:round;stroke-linejoin:round;stroke:#141414;stroke-opacity:1;stroke-miterlimit:10" transform="scale(1.41429 1.41414)"/><path d="M58.325 7.712h2.342l-4.38 8.375h-2.4ZM49.332 7.823h2.342l-4.38 8.378h-2.4ZM53.856 7.723h2.342l-4.38 8.376h-2.4ZM16.105 7.784h-2.342l4.38 8.375h2.4ZM11.675 7.826H9.333l4.38 8.378h2.4Zm0 0" style="fill-rule:evenodd;fill:#fff;fill-opacity:1;stroke-width:1.64228;stroke-linecap:round;stroke-linejoin:round;stroke:#141414;stroke-opacity:1;stroke-miterlimit:10" transform="scale(1.41429 1.41414)"/><path d="M13.75 7.743h2.344l-4.38 8.375h-2.4Zm0 0" style="fill-rule:evenodd;fill:#fff;fill-opacity:1;stroke-width:1.64228;stroke-linecap:round;stroke-linejoin:round;stroke:#141414;stroke-opacity:1;stroke-miterlimit:10" transform="scale(1.41429 1.41414)"/><path d="M29.129 11.094h-3.313l6.192 11.844h3.394Zm0 0" style="stroke:none;fill-rule:evenodd;fill:#fff;fill-opacity:1"/><path d="M25.024 7.803h-2.342l4.38 8.376h2.397Zm0 0" style="fill-rule:evenodd;fill:#fff;fill-opacity:1;stroke-width:1.64228;stroke-linecap:round;stroke-linejoin:round;stroke:#141414;stroke-opacity:1;stroke-miterlimit:10" transform="scale(1.41429 1.41414)"/><path d="M31.54 7.754h2.339L29.5 16.129h-2.4Zm0 0" style="fill-rule:evenodd;fill:#fff;fill-opacity:1;stroke-width:1.64228;stroke-linecap:round;stroke-linejoin:round;stroke:#141414;stroke-opacity:1;stroke-miterlimit:10" transform="scale(1.41429 1.41414)"/><path d="M20.596 7.845h-2.342l4.378 8.375h2.4Zm0 0" style="fill:none;stroke-width:1.64228;stroke-linecap:round;stroke-linejoin:round;stroke:#141414;stroke-opacity:1;stroke-miterlimit:10" transform="scale(1.41429 1.41414)"/><path d="M18.157 7.806H20.5l-4.381 8.375h-2.4Zm0 0" style="fill-rule:evenodd;fill:#fff;fill-opacity:1;stroke-width:1.64238;stroke-linecap:round;stroke-linejoin:round;stroke:#141414;stroke-opacity:1;stroke-miterlimit:4" transform="scale(1.41429 1.41414)"/><path d="M18.157 7.806H20.5l-4.381 8.375h-2.4Zm0 0" style="fill:none;stroke-width:1.64228;stroke-linecap:round;stroke-linejoin:round;stroke:#141414;stroke-opacity:1;stroke-miterlimit:10" transform="scale(1.41429 1.41414)"/><path d="M22.67 7.762h2.343l-4.38 8.375h-2.401ZM27.076 7.823h2.342l-4.38 8.378h-2.4Zm0 0" style="fill-rule:evenodd;fill:#fff;fill-opacity:1;stroke-width:1.64228;stroke-linecap:round;stroke-linejoin:round;stroke:#141414;stroke-opacity:1;stroke-miterlimit:10" transform="scale(1.41429 1.41414)"/></svg>