<svg xmlns="http://www.w3.org/2000/svg" width="99" height="140"><path d="M9.298 719.743h215.404c4.93 0 8.92 4.005 8.92 8.938v314.362c0 4.934-3.99 8.938-8.92 8.938H9.298c-4.93 0-8.92-4.004-8.92-8.938V728.681c0-4.933 3.99-8.938 8.92-8.938Zm0 0" style="fill-rule:nonzero;fill:#fff;fill-opacity:1;stroke-width:.755906;stroke-linecap:butt;stroke-linejoin:miter;stroke:gray;stroke-opacity:1;stroke-miterlimit:4" transform="matrix(.42308 0 0 .42042 0 -302.435)"/><path d="M48.477 32.715h2.043v7.058h-2.043Zm0 0" style="stroke:none;fill-rule:nonzero;fill:#000;fill-opacity:1"/><path d="M60.719 29.344a5.954 5.954 0 0 1-2.328 8.117c-2.895 1.602-6.543.562-8.153-2.32a5.95 5.95 0 0 1-.738-2.496c-.223 3.292-3.086 5.777-6.387 5.554-3.304-.222-5.8-3.07-5.574-6.363.223-3.29 3.082-5.773 6.387-5.55a6.08 6.08 0 0 1 2.484.722 5.966 5.966 0 0 1-2.058-8.192 6.008 6.008 0 0 1 8.222-2.058 5.957 5.957 0 0 1 2.07 8.187 6.08 6.08 0 0 1-2.081 2.075c2.898-1.598 6.55-.56 8.156 2.324ZM6.844 23.367h.68v2.352h-.68Zm0 0" style="stroke:none;fill-rule:nonzero;fill:#000;fill-opacity:1"/><path d="M10.926 22.242c.535.961.187 2.172-.778 2.707a1.998 1.998 0 0 1-2.964-1.605 1.995 1.995 0 0 1-2.13 1.851 1.993 1.993 0 0 1-1.855-2.12 1.995 1.995 0 0 1 2.13-1.852c.288.02.57.101.827.242a1.988 1.988 0 0 1-.687-2.73 2.004 2.004 0 0 1 2.742-.688 1.988 1.988 0 0 1 .687 2.73c-.168.285-.406.52-.691.692a2.003 2.003 0 0 1 2.719.773ZM91.715 116.633h.68v-2.352h-.68Zm0 0" style="stroke:none;fill-rule:nonzero;fill:#000;fill-opacity:1"/><path d="M95.797 117.758a1.988 1.988 0 0 0-.777-2.707 2.004 2.004 0 0 0-2.72.773c-.14.254-.226.54-.245.832a1.995 1.995 0 0 0-2.13-1.851 1.988 1.988 0 0 0-1.855 2.12 1.995 1.995 0 0 0 2.13 1.852c.288-.02.57-.101.827-.242a1.988 1.988 0 0 0-.687 2.73 2.004 2.004 0 0 0 2.742.688 1.988 1.988 0 0 0 .688-2.73 2.02 2.02 0 0 0-.692-.692 2.006 2.006 0 0 0 2.719-.773ZM48.477 74.875h2.043v7.059h-2.043Zm0 0" style="stroke:none;fill-rule:nonzero;fill:#000;fill-opacity:1"/><path d="M60.719 71.5a5.959 5.959 0 0 1-2.328 8.121c-2.895 1.602-6.543.563-8.153-2.32a5.967 5.967 0 0 1-.738-2.496c-.223 3.293-3.086 5.777-6.387 5.554-3.304-.222-5.8-3.074-5.574-6.363.223-3.289 3.082-5.777 6.387-5.55.867.058 1.71.304 2.484.718a5.96 5.96 0 0 1-2.058-8.187c1.699-2.832 5.378-3.754 8.222-2.063a5.962 5.962 0 0 1-.011 10.262c2.898-1.598 6.55-.559 8.156 2.324ZM48.477 107.285h2.043v-7.058h-2.043Zm0 0" style="stroke:none;fill-rule:nonzero;fill:#000;fill-opacity:1"/><path d="M60.719 110.656a5.954 5.954 0 0 0-2.328-8.117c-2.895-1.602-6.543-.562-8.153 2.32a5.95 5.95 0 0 0-.738 2.493c-.223-3.29-3.086-5.774-6.387-5.551-3.304.222-5.8 3.07-5.574 6.363.223 3.29 3.082 5.773 6.387 5.55a6.08 6.08 0 0 0 2.484-.722 5.966 5.966 0 0 0-2.058 8.192 6.008 6.008 0 0 0 8.222 2.058 5.957 5.957 0 0 0 2.07-8.187 6.08 6.08 0 0 0-2.081-2.075c2.898 1.598 6.55.56 8.156-2.324ZM11.176 11.746c0 1.106-.395 1.957-1.192 2.555-.718.543-1.656.812-2.82.812-2.648 0-3.969-1.218-3.969-3.66a.9.9 0 0 1 .059-.324.522.522 0 0 1 .281-.074h1.086c.106 0 .203.023.293.074.027.074.047.164.066.27.094.671.29 1.16.582 1.46.329.336.833.504 1.512.504.555 0 1.008-.144 1.36-.437.367-.317.55-.739.55-1.27 0-1.129-.632-1.789-1.894-1.984a1.008 1.008 0 0 1-.352-.098c-.043-.086-.066-.527-.066-1.316 0-.106.027-.203.074-.293.418-.121.836-.242 1.254-.367.438-.196.656-.606.656-1.227 0-.945-.566-1.418-1.699-1.418-.523 0-.934.125-1.227.375-.156.137-.316.367-.484.692-.121.25-.246.375-.367.375H3.8c-.27 0-.406-.122-.406-.36 0-.902.363-1.62 1.093-2.144.657-.473 1.461-.707 2.418-.707 1.102 0 2 .222 2.696.671.816.528 1.226 1.301 1.226 2.329 0 1.234-.625 2.074-1.879 2.52 1.485.612 2.227 1.628 2.227 3.042ZM87.824 128.254c0-1.106.395-1.957 1.192-2.555.718-.543 1.656-.812 2.82-.812 2.648 0 3.969 1.218 3.969 3.66a.9.9 0 0 1-.059.324.522.522 0 0 1-.281.074h-1.086a.584.584 0 0 1-.293-.074 1.698 1.698 0 0 1-.066-.27c-.094-.671-.29-1.16-.582-1.46-.329-.336-.833-.504-1.512-.504-.555 0-1.008.144-1.36.437-.367.317-.55.739-.55 1.27 0 1.129.632 1.789 1.894 1.984.156.02.274.055.352.098.043.086.066.527.066 1.316a.627.627 0 0 1-.074.293c-.418.121-.836.242-1.254.367-.438.196-.656.606-.656 1.227 0 .945.566 1.418 1.699 1.418.523 0 .934-.125 1.227-.375.156-.137.316-.367.484-.692.121-.25.246-.375.367-.375H95.2c.27 0 .406.122.406.36 0 .902-.363 1.62-1.093 2.144-.657.473-1.461.707-2.418.707-1.102 0-2-.222-2.696-.671-.816-.528-1.226-1.305-1.226-2.329 0-1.234.625-2.078 1.879-2.52-1.485-.612-2.227-1.628-2.227-3.042Zm0 0" style="stroke:none;fill-rule:nonzero;fill:#000;fill-opacity:1"/></svg>