<svg xmlns="http://www.w3.org/2000/svg" width="99" height="140"><path d="M9.298 719.743h215.404c4.93 0 8.92 4.005 8.92 8.938v314.362c0 4.934-3.99 8.938-8.92 8.938H9.298c-4.93 0-8.92-4.004-8.92-8.938V728.681c0-4.933 3.99-8.938 8.92-8.938Zm0 0" style="fill-rule:nonzero;fill:#fff;fill-opacity:1;stroke-width:.755906;stroke-linecap:butt;stroke-linejoin:miter;stroke:gray;stroke-opacity:1;stroke-miterlimit:4" transform="matrix(.42308 0 0 .42042 0 -302.435)"/><path d="M6.938 23.441h.68v2.348h-.68Zm0 0" style="stroke:none;fill-rule:nonzero;fill:#000;fill-opacity:1"/><path d="M11.012 22.316c.535.961.187 2.172-.774 2.704a2.002 2.002 0 0 1-2.715-.774 1.997 1.997 0 0 1-.246-.828 1.99 1.99 0 0 1-2.12 1.848A1.99 1.99 0 0 1 3.3 23.148a1.99 1.99 0 0 1 2.125-1.847c.289.02.57.101.824.238a1.988 1.988 0 0 1-.684-2.727 1.998 1.998 0 0 1 2.735-.683 1.982 1.982 0 0 1-.004 3.414 2.005 2.005 0 0 1 2.715.773ZM91.621 116.559h.68v-2.348h-.68Zm0 0" style="stroke:none;fill-rule:nonzero;fill:#000;fill-opacity:1"/><path d="M95.691 117.684a1.981 1.981 0 0 0-.773-2.704 1.998 1.998 0 0 0-2.711.774c-.14.254-.227.539-.246.828a1.99 1.99 0 0 0-2.125-1.848 1.988 1.988 0 1 0 .273 3.965c.286-.02.567-.101.825-.238a1.985 1.985 0 0 0-.684 2.727 1.997 1.997 0 0 0 2.734.683 1.982 1.982 0 0 0-.004-3.414 2 2 0 0 0 2.711-.773ZM24.125 31.152h1.36v4.696h-1.36Zm0 0" style="stroke:none;fill-rule:nonzero;fill:#000;fill-opacity:1"/><path d="M32.27 28.906a3.964 3.964 0 0 1-1.551 5.403 3.994 3.994 0 0 1-5.422-1.543 3.953 3.953 0 0 1-.492-1.66 3.981 3.981 0 0 1-4.25 3.695 3.979 3.979 0 0 1-3.707-4.235 3.981 3.981 0 0 1 4.25-3.695c.578.04 1.136.203 1.652.48a3.975 3.975 0 0 1-1.371-5.453 3.998 3.998 0 0 1 5.469-1.37 3.971 3.971 0 0 1-.004 6.831 4.003 4.003 0 0 1 5.426 1.547ZM11.262 15.2H8.789L5.406 9.91v5.29h-2.11V3.284h2.11v4.098L8.38 3.285h2.512L7.059 8.598ZM87.738 124.8h2.473l3.383 5.29v-5.29h2.11v11.915h-2.11v-4.098l-2.973 4.098H88.11l3.832-5.313ZM73.516 108.848h1.359v-4.696h-1.36Zm0 0" style="stroke:none;fill-rule:nonzero;fill:#000;fill-opacity:1"/><path d="M81.66 111.094a3.967 3.967 0 0 0-1.55-5.403 3.994 3.994 0 0 0-5.422 1.543 3.953 3.953 0 0 0-.493 1.66 3.981 3.981 0 0 0-4.25-3.695 3.979 3.979 0 0 0-3.707 4.235 3.981 3.981 0 0 0 4.25 3.695 4.072 4.072 0 0 0 1.653-.48 3.975 3.975 0 0 0-1.371 5.453 3.998 3.998 0 0 0 5.468 1.37 3.971 3.971 0 0 0-.004-6.831 4.003 4.003 0 0 0 5.426-1.547Zm0 0" style="stroke:none;fill-rule:nonzero;fill:#000;fill-opacity:1"/><path d="m71.86 16.965-36.712.039 4.633 8.152c9.543-.754 17.903-.023 26.614.27ZM46.687 45.492c-.04.047-1.532.399-1.38.711 3.86 7.68 5.575 13.926 7.172 21.813.82-.61 2.149-.582 2.149-.582-.645-2.926 3.363-3.278 3.379-.215.765.164 1.558.172 2.25.886.34-8.609 3.726-17.511 8.078-23.668-4.941 1.782-12.2 6.243-12.2 6.243s-6.019-2.313-9.449-5.188Zm30 1.024c-6.59 5.722-9.215 21.664-8.747 21.886-8.468-.289-11.062 8.301-3.738 12.965-.293.899-1.016 1.63-1.574 2.422.758.402 1.582.488 2.41.574.625.688 1.238 1.48 1.918 1.547.738-.426 1.266-1.05 1.883-1.594.77-.175 1.531-.37 2.258-.675-.641-.832-1.403-1.672-1.418-2.45 6.394-4.12 5.539-9.761-.203-12.668 1.746-9.488 4.27-15.543 7.183-19.843ZM31.413 53.69c-.836.371-1.293 1.164-1.902 1.782-.828.03-1.633.293-2.426.613 0 0 1.894 2.43 1.777 2.559-6.187 3.703-6.156 9.148-.238 12.753.977 7.754-6.215 19.989-6.574 19.633l-.024 2.535c4.993-5.05 7.84-14.25 8.36-21.812 10.16-.586 10.55-9.625 3.57-13.05-.535-.458 1.766-2.548 1.766-2.548-.578-.531-1.555-.597-2.407-.664-.539-.594-1.004-1.187-1.902-1.8Zm42.941 6.407c1.426 2.945 6.684-.621 7.59.949.735.89 2.344.988 2.262-.512-.297-1.48-1.355-1.812-5.559-1.183-1.593.242-2.246.382-2.234-.286-1.098-1.23-2.05.434-2.059 1.032Zm4.856 4.312c-1.176-.008-1.39 4.235-1.379 5.508-3.43 4.95 6.98 4.422 2.5-.996.156-.707-.57-1.863-.547-2.371-.367-.043-.523-1.961-.574-2.14Zm-59.996 2.34c-1.848.04-3.883 1.59-.93 3.848.195.062-.101.535-.004 1.261.828 1.66.594 4.114 1.219 3.739.719-.434 1.324-2.262 1.18-4.82-.012-.169-.254-.344-.207-.528 1.672-2.516.27-3.531-1.258-3.5Zm18.863 4.82c-.5 8.285-2.734 16.407-7.754 23.438 4.305-1.828 8.488-4.195 12.531-6.219l9.415 5.41c.546-.215.925-.324 1.289-.652-4.329-5.871-5.641-14.305-7.508-21.942-.723.47-2.082.704-2.082.704-.106 2.644-3.121 3.488-3.723.039ZM15.29 77.957c-1.008.055-1.773 2.348 1.078 2.695 2.008.27 4.59-.632 5.863-.207 1.48 2.188 2.825-1.02.84-1.55-2.129-.57-6.48.882-6.953-.368-.246-.43-.547-.586-.828-.57Zm16.984 35.95-5.726 9.241 36.387-.078-4.723-8.847c.082-.098-15.898 1.695-25.938-.317Zm0 0" style="stroke:none;fill-rule:nonzero;fill:#e2cf00;fill-opacity:1"/><path d="m40.477 25.953.586 1.3c7.82-.843 16-1.718 24.18.231 0 0 .605-1.199.597-1.285-7.621-1.816-24.684-1.41-25.363-.246Zm7.847 18.274 7.422 4.46s3.566-2.308 5.09-3.285l-.918-1.25c-3.168 6.38-8.68 1.309-10.742-1.707 0 0-.567 1.164-.852 1.782Zm19.969 2.214c.512-.007.797.176 1.055.66.293.547.402.41.218-.269-.293-1.074.946-1.77 2.11-1.047.84.52.797 1.77-.121 2-.746.184-.766.363-.114.336 1.172-.047 1.48 1.395.645 2.094-.961.805-2.18.226-2.29-.785-.05-.29-.116-.285-.218-.121-.297.464-.328 1.074-.27 1.625l-1.726-.996c.617-.278.992-.446 1.438-.872.058-.054.101-.093.101-.117 0-.047-.191.012-.543.043-1.047.098-1.848-.527-1.629-1.433.184-.77.617-1.106 1.344-1.118Zm-7.715 24.98c1.887-1.976 4.227-3.241 7.473-3.05.441-8.308 3.597-15.687 8.629-22.324l-5.5-3.07-2.215 1.218c-5.34 6.93-8.637 15.735-8.387 27.227ZM19.352 51.864s-3.739 2.563-5.477 3.797l.004 22.91.48.157c.036.046-.039-.34.18-.52.184-.144.469-.309.64-.363.481-.16.5-.453.055-.711-.347-.195-.476-.504-.437-1.012.031-.355.015-.433-.145-.68-.203-.3-.218-.683-.047-1.078.082-.187.075-.234-.066-.484-.18-.317-.2-.66-.062-1.024.05-.14.09-.449.085-.687-.015-.91.805-1.512 2.313-1.7.594-.073.61-.093.34-.55-1.52-2.582 1.922-3.91 2.176-3.496Zm47.046 1.442c1.395-.016 2.54 1.015 2.555 2.3.016 1.286-1.101 2.34-2.496 2.356-1.398.012-2.543-1.02-2.559-2.305-.015-1.285 1.106-2.34 2.5-2.351Zm.024.414c-1.117.011-2.012.855-2 1.883.012 1.03.926 1.859 2.043 1.847 1.12-.011 2.015-.855 2.004-1.886-.012-1.028-.93-1.856-2.047-1.844Zm.05.593c.758-.007 1.38.551 1.387 1.25.008.696-.597 1.27-1.355 1.278-.758.008-1.379-.555-1.387-1.25-.012-.7.598-1.27 1.356-1.278Zm-50.167.782c.101 0 .21.015.32.047.629.187.848.699.508 1.18-.27.382-.242.413.23.253.367-.125.555-.082.848.184.867.797-.434 2.129-1.285 1.316-.422-.402-.465-.285-.172.406.094.223.25.57.25.57l-1.254-.019s.2-.46.29-.676c.218-.523.226-.597-.227-.27-1.024.735-2.172-.534-1.231-1.362.191-.168.496-.172.922-.02.309.113.344.035.113-.234-.504-.586-.031-1.367.688-1.375Zm25.925 2.144c-.52 3.067-.09 7.38-.109 9.68 1.36.242 1.371 1.094 1.574 2.156.66-.21 2.098.692 2.297.614.16-3.114-1.566-12.165-3.762-12.45Zm22.504 3.153c1.926.152 1.551 1.52.977 2.082-.273.289-.223.418.074.254.817-.454 1.461-.122 1.719.66.445 1.332-1.461 2.472-2.305 1.273-.285-.406-.46-.312-.39.11.039.41.468 1.257.468 1.257l-1.886-.16s.578-.887.683-1.12c.211-.497.102-.63-.304-.231-1.188.992-2.82-.29-2.051-1.61.379-.648 1.074-.855 1.82-.336.504.305.613.176.164-.195-.844-.691-.101-2.07 1.031-1.984Zm-48.359.922h.063c.164.003.332.046.5.132.468.246.597.727.3 1.145-.172.238-.12.39.075.234.265-.21.847-.07 1.074.258.578.844-.563 1.941-1.29 1.238-.32-.308-.44-.324-.406-.12.106.382.375 1.034.375 1.034l-1.308.016s.281-.684.347-1.031c.047-.274-.07-.235-.382.09-.305.312-.582.347-.965.109-.953-.586-.184-2.078.808-1.574.344.176.391.074.125-.254-.476-.582.012-1.25.684-1.278Zm67.953-.297c-2.125 2.007-1.457.816-.48 2.359 0 1.016.64 1.809.125 3.41-.164.309-.18.457-.09.774-.16 1.77-1.7 1.738-3.195 2.007.25-.011 2.355 3.602-1.598 3.871l-.008 14.672 6.215-4.191.055-22.898ZM37.77 68.598c-1.762 1.039-4.239 3.64-7.344 3.062-.41 9.153-3.692 16.227-8.363 22.297 1.601.883 3.363 1.938 5.003 2.617 1.391-.656 2.172-.93 3.536-1.957 5.62-7.937 7.421-16.629 7.168-26.02Zm14.59 1.726c.296 4.7 1.113 9.156 3.753 12.735l.215-9.989c-.945-.21-1.719-.777-1.988-2.375Zm-19.188 2.707 1.773.043s-.402.739-.578 1.149c-.215.504-.113.609.29.257.53-.453 1.366-.492 1.808-.085 1.168 1.085-.063 2.847-1.445 2.066-.594-.332-.696-.219-.223.25.91.785-.05 1.91-1.121 1.91a1.314 1.314 0 0 1-1.332-1.203 1.039 1.039 0 0 1 .562-.984c.39-.2.114-.332-.312-.125-1.375.68-2.293-1.079-1.25-2.07.601-.575 1.234-.516 1.84.034.425.383.578.352.46-.105-.12-.508-.472-1.137-.472-1.137Zm47.86 1.54 1.269.007c-.125.29-.285.582-.39.867-.11.313-.028.352.308.051.879-.535 1.808.008 1.617.867-.133.59-.672.88-1.293.621-.547-.23-.371-.132-.063.215.372.41.274.89-.218 1.207-.867.559-2.008-.379-1.434-1.191.34-.485.188-.43-.121-.2-.465.313-1.164-.132-1.172-.742-.05-.882.914-1.37 1.59-.75.324.254.402.223.258-.14-.133-.266-.176-.551-.352-.813Zm.046 6.398 1.332-.008s-.02.094-.226.445c-.243.418-.207.848.046.559.426-.496 1.329-.356 1.622.25.34.707-.332 1.484-1.028 1.183-.453-.191-.484-.152-.183.25.289.391.156.872-.32 1.149-.934.547-2.051-.555-1.27-1.254.207-.188.14-.281-.11-.156-1.035.515-1.793-.774-.898-1.524.383-.316.672-.297 1.297.106.195.125.23-.004.094-.32-.239-.536-.356-.68-.356-.68Zm-49.43.597c1.48-.015 2.696 1.079 2.711 2.446.016 1.367-1.168 2.484-2.652 2.5-1.48.015-2.695-1.082-2.715-2.446-.015-1.367 1.172-2.484 2.656-2.5Zm.028.442c-1.215.012-2.192.93-2.18 2.05.016 1.126 1.012 2.024 2.23 2.012 1.22-.011 2.196-.933 2.18-2.054-.011-1.121-1.011-2.02-2.23-2.008Zm.023.781c.75-.008 1.363.543 1.371 1.234.008.692-.59 1.258-1.34 1.266-.75.008-1.367-.547-1.375-1.238-.007-.692.594-1.254 1.344-1.262Zm-3.394 5.98 1.547.704s-.735.543-1.028.828c-.375.363-.347.531.156.36.961-.329 1.918.171 1.934 1.089.02 1.227-1.555 1.809-2.305.879-.222-.277-.492-.39-.386-.164.254.547.093 1.238-.352 1.52-.36.226-1.008.288-1.34.132-1.125-.547-1.18-1.746-.097-2.219.543-.234.562-.457.027-.335-1.113.25-1.758-.993-.953-1.844.855-.903 2.246-.711 2.394.629.028.238.203.066.282-.297.097-.27.12-1.281.12-1.281Zm14.433 2.063s-5.683 2.953-5.511 3.082c.035.016 1.25 1.61 1.25 1.61 2.836-5.868 9.558-.977 10.628 2.027.235.133.274.094.528.199.023-.21.5-2.293.5-2.293Zm-9.172 21.574c-.289.324-1.242 1.25-1.12 1.285 8.327 1.684 16.925 1.582 25.683.735l-.664-1.938c-8.649 2-23.899-.082-23.899-.082Zm0 0" style="stroke:none;fill-rule:nonzero;fill:#d40000;fill-opacity:1"/><path d="m12.855 15.992.133 108 73.157.016-.06-107.89Zm22.247.848 36.488-.012c-1.727 4.09-6.676 10.54-6.445 10.559-7.586-1.184-15.407-1.793-24.16-.102Zm-21.407.187 20.477.047 6.715 11.18s.394.695.152 1.426c-.258.793-.484 1.144-.719 1.55.028-.234-1.941-.468-1.785 1.086.11 1.051 1.55 1.653 2.63.836.17-.011.17.137.132.391-.102.602-.8 2.512-1.277 2.637-2.418-1.84-3.297 1.504-1.665 2.175.946.391 2.403.075 3.086-.968.524-.801.465-.668.625.304.059.364.145.782.188.97.137.589 0 .706-1.078.968-.871.309-1.75.476-2.645.652-1.633.242-2.472 1.375-2.52 2.758-.007.297 0 .438-.07.523-6.921 2.395-14.277 5.754-22.004 11.504Zm46.332 26.649c-.261-.39-1.09-2.442-1.32-3.301-.582-4.145-.68-9.066-1.309-12.926l.844.09s.317 1.117.645 4.137c.164 1.496.332 4.61.468 6.039.204 2.125 1.235 5.527 1.875 6.387 1.051 1.402 3.168.503 2.465-1.16-.363-.864-1.785-.727-1.59.167.004.16.133-.113.344-.28.614-.212 1.305.378.942 1.085-.453.906-1.778.488-2.211-.656-.52-1.363 1.254-2.383 2.574-1.547 1.469.934 1.465 3.281.273 4.02-2 .664-3.355-.684-4-2.055Zm4.934 1.746c-.082-.047.004-.188.102-.527.374-1.266.144-2.254-.743-3.192-.492-.52-.68-.613-.418-.707.551-.195 1.766.621 2.094 1.422.328.789.41 1.602-.058 2.488-.325.188-.829.57-.977.516Zm1.508-.84c0-.148.11-.617.136-.844.098-.886-.347-1.785-1.14-2.488-.664-.594-.723-.652-.094-.66 1.629-.02 2.656 2.406 1.902 3.597-.195.188-.785.575-.804.395Zm1.383-.816c.484-2.063-1.68-3.45-1.723-3.383.11-.465.969-.196 1.262-.012 1.093.68 1.718 2.453 1.043 3.461a.723.723 0 0 1-.282.262c-.226.129-.363.234-.406.14-.035-.07.09-.37.106-.468Zm-19.055-6.77c.226-.203.293-.207.73-.055 1.36.477 2.453-.421 2.137-1.37-.117-.344-.625-.716-.941-.747-.516-.05-.524.2.027.39.68.24.746.903.148 1.2-.707.438-1.855-.68-2.703-.586-.402.11-.664.457-.433.883.18.297.785.48 1.035.285Zm-1.516-.14c-.472-.204-.652-.2-.558-.676a68.9 68.9 0 0 1 .785-3.23c.699-2.438.054-3.794-1.899-4.345-1.32-.375-2.46-.19-3.812.465l-.242-.691c5.66-1.344 15.312-1.008 15.277-.957.188.703.258 1.406.332 2.105 0 0-1.809-.82-2.75-1.097-1.453-.414-3.75.027-4.16.793-.23.437-.113.726.867.246 1.598-.785 4.86-.172 6.008.672.266.195.25.238.254.464.008.348.031.368-.492.11-2.739-1.305-5.082-1.16-5.899.531-.183-.05-.894-.168-.894-.168l.757 1.043.141 1.09s1.246.644 1.934.914c.675.27.289-.016-.543-.55-.606-.391-.121-.516.281-.364.828.176 2.035.402 3.441-.414.434-.25 1.43-.027 1.446.09 0 0 .129.953.254 2.941.058.938.18 2.168.25 2.672.21 1.523.273 1.61-.594.879-.293-.246-.778-.656-.785-.633-.11.473 1.172 1.309 1.468 1.594.45.433.813 1.539.63 1.605-.114.04-1.333-.918-2.286-1.777-.36-.32-.894-.754-.91-.738-.2.12.605.96 1.355 1.59.88.734.981.8.684.91-.547.203-1.035-.055-2.36-1.07-.128-.098-.632-.426-.656-.403-.12.148 1.102 1.219 1.38 1.313.515.171.66.632.253.812-.273.117-1.285-.398-2.093-1.047-.145-.117-.547-.316-.575-.293-.16.098.742.824 1.61 1.309.843.472.98.59.761.98-.203.403-2.058-.539-2.988-1.504-.195-.203-.351-.293-.312-.222.402 1.035 1.734 1.78 2.722 2.082.18.054.434.12.551.207.281.207.219.422-.09.543-1.058.27-2.722-.918-3.914-2.16-.137-.055-.055.109-.02.164.993 1.468 2.895 2.59 4.044 2.382.671-.117 1.21.07 1.218.278.004.172-.37.441-1.09.484-1.636.102-4.183-1.555-5.667-3.656-.047-.066-.102-.09-.106-.05-.043.444.883 1.538 1.59 2.163 2.11 1.863 4.11 2.496 5.672 1.457.883-.625 1.738-1.996.43-2.46-.692-.247-1.137.632-.54.386.778-.086.954.297.852.656-.2.614-.863.707-1.398.45-.938-.473-.73-2.075.48-2.348 1.094-.238 2.043.617 2.168 1.426.187 1.257-1.355 2.613-2.59 2.949-4.215 1.137-7.484-4.262-7.504-4.387-.207-.375-.46-.574-.625-.137-.172.633-1.129 2.48-1.636 2.47.16-.653.828-1.75.671-2.716-.285.79-.882 2.477-2.02 3.371-.296.246-1.16.532-.562-.097.72-.926 1.66-2.192 1.473-3.387-.191.27-.297.945-.516 1.395-.55 1.117-1.742 2.44-2.527 2.656-.582.156-.527-.024.07-.598.637-.613 1.77-2.426 1.7-3.207-.032-.344-1.18 2.984-3.32 3.887-.579.191-.903-.055-.903-.055.84-.441 3.168-2.539 2.957-4.933 0 0-.125.351-.309.882-.797 2.282-2.492 3.778-3.808 3.899-1.051.097-1.785-.297-1.524-.469 1.364.016 2.485-.418 3.364-1.637.894-1.242 1.234-3.238.703-5.36-.48-1.91-.582-3.624-.746-5.46 1.492.477 2.996.793 4.449.277-.145.543-.39.614-.774 1.024-.28.3-.183.37.903-.332.316-.203.433-.367.488-.313.094.09-.05.653-.371 1.774-.48 1.675-.36 1.797 1.39 2.433.325.117.446.235.56.36.054.058.339.539.366.554.063.04.047-.484.012-.617-.09-.355-.297-.62-.477-.722-.343-.293-.835-.32-1.156-.458ZM80.22 58.847l.023-1.743 1.832 1.208-.023.578Zm-3.137.367.043-32.211s1.414-.86 2.117-1.285c.438 1.281.426 4.02.254 5.238-.277.793-.414 4.328-.105 6.125.242 1.438.191 3.809-.051 4.941-.094.442-.028 2.52.137 4.446.128 1.468.085 2.804-.11 3.566-.156.606-.11 2.762.059 3.594.254 1.219.281 5.133.168 5.344-.305.316-2.672.351-2.512.242Zm2.91-33.7s1.414.868 2.098 1.301l.004 1.391-2.047-1.242Zm-21.195 2.169.879.054c.344 1.68.488 3.586.62 5.496.032 2.95.419 6.059 1.161 8.102l-.648.621c-1.09-2.34-1.164-6.023-1.399-8.52-.097-2.804-.59-5.734-.613-5.753Zm21.355-.22 1.907 1.196.015 1.512-1.922-1.184Zm-20.09.337.77.078c.23 1.992.582 3.344.711 5.539.168 2.84.695 5.172 1.02 7.387l-.579.175c-.386.165-1.02-2.457-1.285-7.77-.082-1.605-.37-3.413-.636-5.41Zm1.168.078.918.156c.391 5.043 1.016 9.777 1.68 12.492l-.8.047C62.05 36.695 62 32.207 61.23 27.88Zm1.329.183.843.137c.977 11.531 1.606 11.387 1.801 11.84l-.918.34c-.976-3.316-1.16-7.988-1.726-12.316Zm3.8 11.336c-.144.387-.488.352-.863.391-.414-1.062-.656-2.324-.828-3.562-.375-2.72-.508-5.266-.898-7.946l1.007.098c-.03.02.684 9.457 1.582 11.02ZM44.68 29.191c1.333.063 2.434.618 2.536 1.422.023.184-.133.094-.313-.035-1.14-.812-2.441-1.066-4.015-.55-.344.109-.625.288-.778.265-.136-.082-.18-.281-.07-.441.367-.563 1.984-.692 2.64-.66Zm-3.09 1.606c.024 1.27-.312 1.969-1.038 2.258-.871.351-1.989-.41-1.442-1.258.414-.637 1.118-.442 1.25.23l1.118-2.27s.113.723.113 1.04Zm40.497-.063-.016 1.309-2.039-1.27.14-1.257Zm-36.293-.297c1.008.372 1.375.82 1.414 1.02-.059.152-.16.047-.895-.32-1.132-.645-2.609-.754-3.91.054-.324.059-.355-.109-.03-.43.991-.71 2.358-.718 3.421-.323Zm7.656-.218a6.611 6.611 0 0 1 2.84.605c.395.184.75.301 1.008.512.207.098.223.531.07.562-.137.016-.355-.082-.683-.293-2.125-1.28-3.657-1.128-4.891-.351a.869.869 0 0 1-.363.082c-.235-.016-.246-.106-.149-.223.574-.59 1.426-.875 2.168-.894Zm26.586 1.008 2.043 1.328-.004 1.297-2.176-1.403Zm-37.012.398.297.012c.696 1.558 1.57.758 1.938.136l.363.055c-.578 2.086-2.894.985-2.598-.203Zm-.511.207c.34.04.324.39.43.648.238.579-.66.086-.817-.054-.258-.254.113-.57.387-.594Zm10.148-.023c.88 1.242 1.39.507 1.899-.032l.238.075c-.067.886-1.695 1.832-2.461-.024Zm2.719.148c.094 0 .285.063.457.129.484.184.457.316-.078.531-.86.348-1.156.395-.899-.101.149-.227.246-.528.52-.559Zm-3.36.176c.215.148.356.308.38.57.015.188-.653-.027-.649-.324.023-.188.133-.34.27-.246Zm-5.925.05c.441.153.386.344.078.52-.55.277-.785.223-.426-.219.164-.207.2-.297.348-.3Zm33.797.77 2.214 1.445-.023 1.32-2.215-1.398c-.101-.566 0-.949.024-1.367Zm-38.38 1.91c.106.004.145.325.169.793.039.782-.828 1.864-1.7 2.235-1.05.445-2.167-.188-1.976-1.125.176-.86 1.504-.891 1.55-.094-.128.207.051.383.126.367.343-.086 1.152-.75 1.484-1.496.129-.293.207-.594.297-.66.02-.012.035-.02.05-.02Zm38.313-.11 2.215 1.5.004 1.313-2.195-1.402c-.086-.586-.047-1.004-.024-1.41Zm-26.93 1.985c-.167.258-.03.727.313.328.887-.945 2.164.246 1.477 1-.625.68-1.391.457-3.004-.117-1.176-.418-1.36-.277-1.653.024-.238.242-.117.742.192.734.953.203 1.777.402 2.765.594 2.082.402 3.364-2.07 1.461-2.989-.453-.218-1.398.063-1.55.426Zm-9.21.254c-.817.668-.157 2.438 1.043 2.602.25.031.625.023 1.05-.086.84-.223 1.766-.676 1.801-.942.18-1.207-1.781-.129-2.039.012-.617.344-1.27.297-1.598-.113-.734-.926.594-1.98 1.399-.848.2.285.133-.199-.09-.527-.313-.465-1.121-.438-1.566-.098Zm36.28-.254 2.083 1.364-.02 1.265-2.015-1.351Zm.15 1.848 1.972 1.316.027 1.313-2.066-1.266c.039-.469.05-.914.066-1.363Zm-11.075.715c1.734.035 2.707 2.402 1.79 3.383-.274.289-.493.367-.618.257-.023-.023.02-.285.039-.586.059-.953-.156-1.605-.914-2.332-.563-.543-.777-.714-.297-.722Zm-21.387.304c-.328.106-.675.325-.941.27-.266-.055-.395.066-.5.258-.398.73-.277.969.512.554.375-.195.507-.124 1.507.055.715.125 1.2.113 1.829-.035.785-.184 1.25-.195 1.644.004.395.203.664.477.676.254-.043-.262-.29-.934-.344-1.156-.027-.106-.222-.012-.406 0-.649.039-1.422-.5-1.922-.22-.402.227-.457.286-1.004-.01-.41-.224-.695-.09-1.05.026Zm20.918.239c1.172.906 1.47 1.71 1.356 2.37-.063.477-.102 1.009-.614 1.294-.093.039-.234.066-.363.082.399-1.36-.062-2.578-1.719-3.887a1.28 1.28 0 0 1 1.34.14Zm-26.523-.098c.055 0 .11.012.168.027.203.063.234.555.074.707-.16.157-.289.028-.477-.363-.136-.215.008-.37.235-.37Zm-1.086.383c.43-.008.59.355.664.644.063.247-.02.98-.246.723-.055-.156-.29-.66-.473-.789-.414-.293-.375-.574.055-.578Zm-1.211.36a1.17 1.17 0 0 1 .242.019c.668.105 1.18 1.094 1.02 1.648-.356.598-.485.196-.602-.351-.09-.223-.363-.578-.531-.762-.348-.379-.399-.55-.129-.555Zm40.3-.15 2.036 1.356v1.446l-2.133-1.332c.05-.504.074-.989.098-1.47Zm-41.624.442c.996.008 1.847 1.078 1.527 2.11-.394 1.078-2.34.84-2.012-.23.094-.31.454-.536.793-.34.493.28.442-.176.13-.337-.485-.25-1.15-.101-1.301.403-.52 1.754 1.925 2.36 3.265.55.492-.66 1.024-1.37 1.317-1.671.265-.27.32-.243.277.109-.176 1.629-1.418 3.664-3.73 3.547-2.25-.207-2.95-2.406-1.243-3.777.285-.227.586-.34.88-.36.03-.004.062-.004.097-.004Zm11.922.133c-.825.363-1.57.5-2.38.172-.597-.242-.59.02-.331.234.75.594 2.12.328 2.71 0 .192-.11.255-.422 0-.406Zm31.738 2.719.004 1.308-2.274-1.414c-.035-.312.004-.789.082-1.28Zm-2.2.43 2.169 1.324.05 1.3-2.101-1.214Zm.15 1.824 2.066 1.328.023 1.418-2.047-1.25Zm-50.544 1.316-1.281 3.527.832.047.555.934.582-.953.87-.055Zm50.621.649 1.992 1.27.028 1.312-2.07-1.332Zm-.086 1.601 2.043 1.371.035 1.395-2.316-1.434Zm-45.816.629-1.27 3.777.707-.086.66 1.012.672-.902.637.035Zm-9.453.25-1.211 3.754h.8l.676.95.598-.915.906-.02Zm54.996.883 2.398 1.562.012 1.477-2.324-1.445Zm2.363 3.52.024 1.296-2.02-1.332-.215-1.441Zm-42.898.074-1.48 3.816.984.012.593.918.48-.922.79.012Zm41.035.523 1.871 1.191-.02 1.332-1.843-1.148ZM44.644 70.66l-1.062-.95c-.016-.077.875-.468 1.418-.214.723.336 1.09 1.531.277 2.16-.644.5-1.625.078-1.64.02Zm-.945-1.562c.024-1.461-.808-1.84-1.5-2.137 0 0-.082-9.266-.066-9.543 0 .039-.172-1.004-.192-1.066 0 0-.168-.043-.168-.04.028.938.059 10.567.043 10.63-1.293.132-1.66.937-1.777 2.019-1.012-.07-1.668.484-1.687.578-.372-.473-.094-1.168-.387-1.66-.903 2.879.832 4.61 2.347 4.453.235 2.766 3.54 3.277 3.438-.078 4-.203 2.656-3.594-.05-3.156ZM24.95 57.402l-1.46 3.735 1.015-.102.367.692c1.629-1.317 2.445.726 1.621-1.024Zm55.024 6.848a.506.506 0 0 1 .48.355c.031.633-.887.485-.918.086-.02-.28.262-.43.438-.441Zm.586 4.11c.398-.301 1.03-.13 1.039.324.007.402-.493.53-.883.304-.3-.172-.32-.488-.156-.629Zm.054 1.113c2.176.16 3.801-1.2 3.11-2.18.586-.676.113-1.066.273-1.453.465-.434.078-1.375-.035-1.38-.09-1.26-.488-1.42-1.078-2.097-.176-.195.418-.383.644-.715-.601.211-1.191-.203-1.187-.296l-.254-.297c-4.035.16-7.656.406-7.54 5.445-.585 2.137.391 4.047 3.208 3.469.617-.508.215-1.242.14-1.598-.238-.973.043-1.601.122-2.058.246-1.407 1.37-2.711 1.484-.5.195-.278.105-.32.43-.434.773-.254.77.465.61.754-.103.152-.255.137-.415.12-.223-.026-.516-.105-.52-.179-.062.227.407.656.356.871-.063.203-.102.188.102.055.972-.637 1.574.793.171.625.692.344-.336 1.336.38 1.848Zm-1.41-7.696c.766-.03.95-.039.91.332.145.684.328 1 1.293.93.973-.113 1.281-.168.301.371-.496.2-.656.238-1.242.188-.59-.051-.543-.106-.883.078-.187.105-.394.23-.547.254-.23.039-.629.117-.629.117-.23 1.058-.578 1.59-1.058 2.094-.676.703-1.02.824-.192.773.305.02.149-.121.278 1.02.046.402.125.867.187 1.02.215.523.242.78-.574.816-2.04.132-2.508-1.696-2.234-2.63.023-.148.117-.632.14-1.019.012-.21-.035-.39-.027-.605.05-1.743.5-2.2 2.183-3.325.508-.34 1.418-.41 2.094-.414Zm1.79.102c.94-.016 1.85.402 1.394.672-.293.176-1.352.097-1.645-.094-.379-.25-.234-.57.25-.578ZM39.015 63.21l-.375.61-.403 2.831.07.578.766.934.614-.965.957.02Zm44.011-.129c.61.113.63.629.473.941-.344.696-2.625 1.02-2.625 1.024-.016-.3.031-.586-.207-.922 0 0 1.52-.363 1.844-.629.215-.18.343-.41.515-.414Zm.446 1.582c.218 0 .336.148.394.45.028.16-.039.296-.18.472-.582.578-2.21.973-2.796.824-.043-.05.058-.66.105-.93.781.024 2.102-.613 2.477-.816Zm-23.211 3.488c-.774-1.035-2.5-.89-2.317-.82.016-.883-.144-2.102-1.601-2.234-1.469-.106-2.23 1.675-1.676 2.437-.906-.351-2.27.512-2.27.594-.117.004-1.168 2.535 1.98 2.676.282 1.195.77 1.777 1.774 2.27l-.007 9.76.355.446.066-10.23c1.61-.059 1.817-1.758 1.696-2.149.715.032 1.367-.097 1.914-.48l.183 1.668s.38-.59.297-.903c-.664-9.585 3.133-19.94 8.098-26.644.262-.281.344-.617.476-.617a84.868 84.868 0 0 0 1.97-.996c1.984.886 5.523 3.023 5.523 3.023l.007 13.656c-.054-.132 6.614-.66 6.512-.496 0 0-.582-.21-.59-.57l-.062-31.961-2.91-1.766s-2.403 1.434-3.075 1.926l.008 18.817-5.152-2.805s.082-.668.09-.883c-.07-2.566-1.438-3.434-4.043-2.68-.352.102-.594.188-.762.055-1.09-2.957-1.555-10.719-1.55-10.719l7.386-11.449 12.469-.02.062 43.837.371 22.98-6.379 4.25-.043-14.723s-.91-.402-1.148-.43c-.09-.007-.207.176-.043.274.234.137.809.332.809.332l.082 14.59s-2.48 1.523-3.586 2.16c-.828.469-3.442 1.672-4.989 2.363-.597.266-1.207.48-1.261.524-2.106.828-4.008 1.402-5.762 2.258-1.215.453-1.156.004-1.414-.36-2.52-2.312-5.777-2.46-8.422-1.406-.41.14-.918.258-1.262.477-.097.066-.273.14-.386.168a1.82 1.82 0 0 0-.7.296c-.378.274-.632.727-.851 1.172-.137.278-.543 1.57-.598 1.953-.011.063.133.051.137.059.02.023.414-1.566.566-1.867.332-.64.746-1.024.97-1.086.097-.016.183.129.046.355-.27.45-.492 1.407-.559 1.836-.058.399-.074.715.008.73.012.013.399-1.202.574-1.632.45-1.117.735-1.582 1.168-1.82.442-.243.547-.207.457.05-.66 1.184-.933 2.075-1.07 3.336-.02.25.117.258.23-.156.364-1.324.864-3.11 2.036-3.64.5-.208.722-.196.668-.047-1.399 1.617-1.75 3.414-1.739 3.996.004.191.09.156.27-.266.48-1.594 1.184-2.95 2.016-3.613.32-.258.71-.328 1.035-.363.984-.11 1.015.226.16.683-.977.52-2.113 2.418-2.242 3.848-.047.496.144.547.281-.11.586-2.84 3.238-4.707 5.352-3.832.953.395 1.12.942.292.696-1.675-.496-3.542.593-4.32 2.12-.699 1.384-.687 2.11-.203 3.962.328 1.715.969 3.902.746 5.578-.23.324-.957-.137-1.82-.238-.516-.09-1.153-.118-1.695.074-.473.164-.743.203-.829-.031-.027-.075.368-.442.543-.645.282-.324.121-.379-.277-.027-.191.175-.61.578-.723.597-.25.047-.257-.21-.054-.87.715-2.552.527-2.598-.68-3.118-1.2-.426-.82-.637-1.348-1.055-.375.266.485 1.504 1.457 1.778.797.222.7.601.348 1.61-.36 1.417-.973 3.288-.629 4.546.727 2.644 3.64 2.602 5.875 1.543l.27.672c-1.891.699-11.828 1.265-15.176.898-.258-.836-.281-1.05-.383-2.031 0 0 2.066.867 3.098 1.02 1.289.19 3.273.207 3.785-.883.16-.32 0-.594-.445-.41-.82.34-2.22.585-3.348.52-.95-.06-2.297-.415-2.879-.74-.277-.155-.512-.456-.293-.835.191-.04.445.16.594.23 1.71.801 2.648.957 3.761.657.848-.227 1.993-1.063 1.711-1.305-.285.09-1.238.82-1.89.98-1.348.325-2.781-.187-4.176-1.023-.43-.348-.23-.598.297-.32 2.09.976 2.96 1.625 4.969.27.449-.306.699-.266.96-.079 1.036.863 1.036.379.278-.516a2.503 2.503 0 0 1-.434-.789c-.074-.222-.09-.449-.23-.593-.234-.254-.66-.375-1.145-.575-.703-.285-.937-.152-.418.086.907.41 1.348.848.22.61-1.02-.426-2.731-.196-3.7.418-.758.34-1.094.703-1.27-.07-.37-1.61.004-3.794-.492-6.606-.094-.535-.207-.875-.086-.945.157-.094.543.253 1.024.878.218.286.656.836.652.723.02-.598-.98-1.715-1.809-2.156-.453-.246-.757-1.363-.238-1.117.403.183 2.488 1.886 2.883 2.492.184.281.34.101.148-.23-.117-.196-.609-.782-1.086-1.212-.843-.765-.94-.73-.777-.886.32-.309 1.012.093 2.234 1.12.317.368.731.7.68.52.125-.285-1.097-1.507-1.828-1.84-.137-.078-.152-.16-.14-.312.07-.574 1.48.277 2.648 1.266.437.37.078-.325-.43-.801-.398-.371-1.043-.836-1.476-.996-.434-.164-.461-.516-.121-.66 1.175-.04 2.386 1.07 3.105 1.941.2.238.379.426.176-.027-.668-1.364-2.055-2.137-3.02-2.297-.785-.13-.765-.778-.027-.703.809.086 2.133.761 3.254 1.808.328.305.875.996.762.59 0-.11-.344-.543-.743-.957-.918-.848-1.984-1.594-3.117-1.82-.527-.14-2.101.136-2.113-.117-.004-.184.168-.297.668-.446 1.945-.59 4.789.957 6.336 3.328.113.172.32.246.336.207-.746-1.937-3.075-3.699-4.93-4.004-1.266-.19-2.539.102-3.148.883-.684.88-.422 2.063.601 1.97.54-.044.496-.325.488-.333-.039-.035-.351.102-.543.066-.699-.128-.62-1.296.403-1.175 1.176.132 1.336 1.847.02 2.203-1.215.328-1.66-.188-1.989-.793-.484-.89.043-2.32.902-2.867 2.407-1.528 5.442-.23 7.153 1.3a6.994 6.994 0 0 1 1.851 2.625c.098.223.278.211.215-.03-2.394-5.684-9.597-6.321-10.683-1.974 0 0-.036.133-.727-.777-1.117-1.472-2.793-1.808-4.863-.812-2.09.718-2.797 1.175-4.246 1.859-.211.066-1.551.914-1.766.738-2.047-1.261-3.832-1.695-4.8-2.617.034-.168-.13-2.715-.13-2.715l.086-10.972c.012-.106-1.086.07-2.918.328-4.87.879-4.437-1.48-5.082-1.649-.34-.062-.316.07-.379-8.39-.015-2.457-.054-6.778-.086-9.602-.027-2.824-.03-5.176 0-5.226.028-.047.301-.266.618-.47 1.187-.769 1.855-1.237 4.457-3.054.59-.41.738-.48.738-.48.281 5.086-.004 10.422.125 14.793l.219.004-.032-14.676c-.449-.11 10.254-5.832 16.118-7.684.109-.035.382.078.382.078 3.348 3.809 12.192 2.692 12.922-1.925 1.453 2.82 7.871 8.316 10.836 1.726 0 0 1.059 1.902 1.973 2.027 2.055.262 2.281-.039 6.812-2.043-5.195 7.211-8.074 14.856-8.472 24.13ZM57.52 66.34c.109.32.148.73.05 1.058-.133.254-.332.25-.332.25l-.996-.793-.984.832s-.598-.558-.266-1.328c.63-1.074 2.067-.875 2.528-.02Zm25.878-.04c.645-.034.309.645-.64 1.102-.598.285-1.09.368-1.305.262a.9.9 0 0 1 .059-.738c.406-.192 1.52-.524 1.886-.625Zm-41.402 1.138c.715-.012 1.328.457 1.348 1.285.008.336-.18.672-.18.672l-1.187-.813-.91.89c-.157.048-.712-.593-.325-1.288.278-.504.77-.735 1.254-.746Zm17.203.44c.996.423 1.168 1.712.192 2.204-.465.234-1.192.363-1.532-.113l.989-.985-1.125-.879c-.047-.043.863-.484 1.476-.226Zm24.02-.257c.172.004.215.063.265.211.141.422-.218.844-.836.977-.57.12-.515.183-.785-.286-.207-.367-.265-.355.067-.468a17.29 17.29 0 0 0 1.289-.434Zm-28.465.535s-.711.664-1.024.942l1.067 1.03c.05.126-1.234.653-1.91-.155-.434-.528-.184-1.524.437-1.864.64-.347 1.551-.054 1.43.047Zm1.531-.11c.633-.007 1.149.458 1.156 1.04.004.582-.5 1.059-1.129 1.066-.632.004-1.148-.46-1.156-1.043-.008-.582.5-1.058 1.13-1.062Zm-15.62 1.716-1.028.984 1.105 1.117s-.879.13-1.187.075c-1.508-.266-1.356-1.895-.188-2.325.492-.156.86-.101 1.297.149Zm-20.11.265s.191 2.098.375 2.813c-.125.816-.7 1.367-.961 2.207-.137.371-.657.871-.754.344-.371-.649-.012-1.45-.317-1.914-.156-.43-.109-.68-.21-1.133-.227-.367-.407-.543-.375-.875-.055-1.48-.458-1.188-1.172-1.07-.59.175-1.383.246-1.848.562-1.012.652-.465 1.027-.848 2.016.059.433.172.59.09.964-.398 1.766.32 1.621.3 1.649-.3.406.067 1.32.208 1.273.879.2.559.79.844 1.106.285.304.27.457 1.468.488 2.172.164 5.625-.121 6.38-2.559.476-3.441 1.167-6.468-3.18-5.87Zm21.59-.261c.609-.004 1.109.445 1.113 1.007.008.559-.48 1.02-1.09 1.024-.61.008-1.105-.442-1.113-1.004-.008-.563.48-1.02 1.09-1.027Zm-20.641.464c.41-.003.894.079 1.289.43.852.754.887 1.438.496 4.336-.11.813-.422 1.496-.836 1.793a7.818 7.818 0 0 1-2.687 1.203 4.73 4.73 0 0 1-1.125.094c-.325-.004-.512-.14-.536-.39.075-.673-.671-.743-1.105-.708-.773.028-.852.102-.367-.238.55-.39 1.816-.395 2.055-.164.496-.453 1.011-.504 1.64-.57-.09-.125-.316-.633-.164-.957.328-.528.879-1.457 1.457-1.805.574-.688.09-.379-.266-.367-.203.004-.183-.055-.218-.18-.137-.535-.336-1.539-.336-2.133 0-.289.293-.344.703-.344Zm-3.637.727c.223.184.219.438-.015.629-.27.215-.801.094-.813-.316.035-.41.559-.524.828-.313Zm38.477 1.586c-.926.039-1.684-.875-1.332-1.785.191-.246.277-.211.277-.211l1.047.871 1.016-.969c.828.93.113 2.028-1.008 2.094Zm-39.606-1.55c-.074.265.024.53.035.66-.183.12-.964.327-1.386.515a.347.347 0 0 1-.457-.39c.11-.43.797-.708 1.293-.837.152-.035.406-.046.515.051Zm.168 1.226c.282-.031.2.535.09.824-.105.207-.414.195-.695.21-.492.024-1.113.548-1.383.462-.086-.04-.148-.254-.156-.39.058-.755 1.422-1.028 2.144-1.106Zm1.489.793c-.098.125-.399.183-.653.12-.414-.105-.472-.655-.11-.839.641-.195 1.024.36.763.719Zm40.898-1.106-.563.785-.851-.015 1.363 3.902.645-1.52c.086-.703.191-1.398.273-2.101Zm-18.152.266 1.086.824.941-.879c.691 1.434-.113 2.086-.969 2.067-.941-.024-1.941-.852-1.058-2.012Zm-23.965 1.394c.347-.058.195.801.148.829-.222.074-1.172.183-1.574.496-.855.613-1.219.234-.82-.504.375-.426 1.75-.813 2.246-.82Zm1.086.047c.383-.031.648.356.414.727-.317.265-.871.066-.867-.317 0-.238.214-.398.453-.41Zm-.567 2.18c.051.203-.027.14-.425.246a7.164 7.164 0 0 0-.93.363c-.527.243-.676.375-.863.344-.153-.027-.325-.09-.368-.226-.183-.56.313-1.125 1.457-1.512.239-.078.664-.14.813-.156.387 0-.031.55.316.941Zm.68-.832c.55-.008.652.672.238.789-.968.227-.883-.793-.238-.79Zm-.691 2.492c.152.137.175.363 0 .48-.32.145-1.547.016-1.555-.3-.004-.211.406-.281.789-.285.379-.004.64-.004.766.105Zm55.457.54-1.016 1.241 1.348 3.141 1.254-3.79-.977.353Zm-57.278 3.019c.2 9.652.082 31.765.082 31.765l2.973 1.875 3.145-2.066c-.008-6.961-.02-11.762-.028-18.207l4.59 2.344s.14.187.117 1.058c-.328 2.406 2.192 3.973 3.867 3.031.649-.25.7-.292.836-.105.375.52.793 2.738.86 4.148.097 2.133.691 6.477.836 6.504l-7.524 11.66-11.664.012.02-43.457c.601.66.879 1.094 1.89 1.438Zm43.426-.778-.562.786h-.68l1.176 4.043 1.449-3.946-.79-.094ZM21.703 112.31s-1.457.957-1.926 1.234c-.242.082-.363.098-.418-.117-.07-.266.047-.766.149-1.594.097-.766.097-.809-.04-1.902-.136-1.14-.155-1.188-.034-2.692.136-1.68.168-3.308.027-4.32-.133-.957-.121-3.148-.016-4.367.137-1.496.098-2.809-.11-3.895-.37-1.933-.433-2.601-.034-4.054.152-.547.226-.836.199-1.747-.031-1.015-.05-1.347-.438-3.593-.222-1.293-.238-1.469-.019-3.516.047-.41.062-.687.23-.816.2-.153 2.278-.258 2.278-.258ZM16.352 81.05l2.261-.016a6.903 6.903 0 0 0-.234 1.621l-2.008-1.222Zm.03.836 1.985 1.203c0 .504-.043.984.035 1.492l-2.011-1.242Zm-.003 1.898 2.125 1.348c.082.523.254 1.05.316 1.52l-2.406-1.512Zm68.848.766-.024 38.531-21.195.016-6.676-11.918s.074-1.094.242-1.653c.203-.672.258-.82.54-.851.753.363 1.593-.114 1.855-.637.316-.648-.32-1.633-1.305-1.848-.434-.097-.91.082-1.39.418-.278.211-.34.235-.395.051-.125-.422.285-1.562 1.012-2.539.402-.543.511-.7.64-.492.524.84 1.657.672 2.086.2.52-.571.414-1.88-.758-2.227-2.293-.688-3.355 1.433-3.328 1.43l-.48-2.552c2.765-.613 4.363-.828 5.242-1.597.695-.606 1.027-1.656.945-2.59 0 0 7.692-2.852 11.293-4.625 6.2-3.05 11.696-7.117 11.696-7.117Zm-11.7.238-.57.918h-.805l1.618 3.895 1.257-4.055-.777.058Zm-57.054.918 2.433 1.559c.051.504.121.953.047 1.523l-2.562-1.574Zm47.593-.309-.609.739-.7-.07 1.36 3.855c.422-1.11.805-2.621 1.223-3.734l-.649.027Zm-47.644 2.29 2.52 1.55c.007.473.03.922-.149 1.258l-2.379-1.414Zm52.367.402-.617 1.086-.817-.106 1.45 3.696 1.605-3.653-.988.047Zm-52.367 1.39 2.183 1.493c.032.02-.125.672-.09 1.043l-2.078-1.188Zm.05 1.832 2.04 1.301c0 .489.035.95.117 1.367l-2.211-1.332Zm-.038 1.868 2.351 1.554.121 1.246-2.492-1.457Zm19.418.586c2.261.785 4.37 4.761 4.289 9.898-.059 3.566 1.093 8.66 1.07 8.602 0 0-.656.078-.84-.059-.844-2.621-1.121-5.387-1.246-7.672-.105-1.902-.215-3.77-.344-4.207-.367-1.535-.765-3.328-1.824-4.496-.828-.883-1.773-1.039-2.34-.055-.469.809.504 2.149 1.313 1.707.195-.101.316-.27.058-.265-.84.11-1.402-.961-.867-1.473.938-.894 2.57 1.113 1.805 2.215-.336.473-1.211.555-1.91.375-1.555-.7-1.942-2.398-1.414-3.516.398-.851 1.273-1.36 2.25-1.054Zm-2.739.5c.184.007.055.32-.117.808-.402 1.168.344 2.985 1.383 3.352.309.195.293.27.086.379-.684.347-1.91-.711-2.235-1.887-.23-.852-.167-1.856.278-2.277.242-.235.433-.356.566-.371.012-.004.028-.004.04-.004Zm-16.71.632 2.515 1.524c.113.476.059.98-.02 1.488l-2.515-1.625Zm15.202.032c.188-.004.118.285.063.812-.125 1.219.281 2.106 1.215 2.844.39.312.5.41.328.574-.242.23-.93-.082-1.469-.605-.988-.957-1.312-2.754-.535-3.403.168-.144.3-.218.398-.222Zm28.02.308c1.078-.035 1.984.356 2.082 1.567.14 1.777-1.66 2.742-2.906 1.718-1.121-1.027.023-2.625 1.32-1.87.652.382-.129 1.245-.656.796-.238-.203-.344-.078-.176.156.512.707 1.52.125 1.45-.496-.137-1.222-1.762-1.21-2.38-.734-.84.648-1.582 1.61-2.132 2.309-.454.605-.551.59-.48-.16.183-1.989 2.198-3.231 3.878-3.286Zm-29.316.29c.171-.008.101.218.113.804.062 1.5.746 2.434 1.613 2.961.293.297-.082.508-.629.36-1.25-.356-2.52-2.837-1.453-3.9.149-.148.266-.226.356-.226Zm-1.22.488c.177-.012.075.32.09.945.028 1.316.47 1.95 1.528 2.758.348.261.39.234.254.379-.367.382-1.598-.168-2.121-.957-.621-.942-.707-2.356-.125-2.891.164-.148.285-.23.375-.234Zm-1.21.629c.144 0 .062.238.082.804.05 1.38.39 2.063 1.336 2.703.594.407.742.285.558.442-.32.277-1.195.035-1.847-.477-.98-.765-1.25-2.652-.45-3.297.145-.113.247-.175.32-.175Zm-11.442.156 2.418 1.554-.074 1.305-2.402-1.512Zm42.32 2.594c-.984-.192-1.355-.848-1.23-1.59.04-.246.196-.387.364-.063.144.516.515 1.23 1.023 1.367.207.059.031.32-.156.286ZM37.57 97.777c1.102 2.582 1.07 5.403 1.246 8.063.235 3.539.903 5.926 1.125 6.328 0 0-1.086.008-1.14-.137 0 0-1.008-4.695-.844-7.015.02-2.598-.523-4.883-.852-5.91-.351-.91-.37-.31.465-1.329Zm-21.152.934 2.324 1.414c-.035.477-.043.957-.035 1.438l-2.277-1.497Zm31.32-.012c0 .078.336.149.86.031a3.6 3.6 0 0 1 1.613.012c.477.121.527-.02.098-.191-.211-.086-.543-.281-1.043-.274-.5.008-1.532.254-1.528.422Zm9.434-.02c.055.098.234.313.39.485.297.32.383.324.247.453-.317.301-.973-.14-1.043-.695-.059-.41.16-.664.406-.242Zm-20.856.036c1.082 1.433 1.23 4.785 1.246 7.168.012 2.144.786 6.074.848 6.058-.222.121-.523.079-.808-.023-.278-.336-.446-1.281-.762-3.828-.082-.66-.238-2.75-.27-4.438-.027-1.484-.918-4.703-.918-4.703s.352-.226.664-.23Zm-1.21.355c.984 2.043 1.136 4.067 1.171 6.524.035 2.32.586 5.047.793 6.246-.336.031-.687.058-.828-.082-.09-.113-.156-.29-.203-.52-.441-2.008-.543-4.195-.664-6.043-.184-2.863-.23-3.574-.668-5.004-.246-.808-.336-.793-.145-.949.145-.117.418-.176.543-.172Zm11.144.508c.023.95.156.563.52.41.273-.02.496.121 1.007.293.645.223.586.297 1.043.09.282-.125.504-.168.64-.066.532.398 1.22.18 1.606-.145.305-.144.633-.062.887-.039.371.031.274-.183.32-.613.043-.383-.117-.414-.543-.29-.437.13-.87.15-1.253.04-.97-.278-1.68-.102-2.16-.031-1.141.16-1.2.054-1.458-.098-.191-.113-.507-.32-.617-.317-.11.008-.074.352.008.766Zm10.086-.402c.11-.051.16.086.309.265.25.305.324.446.113.473-.559.074-.7.02-.676-.3.016-.255.078-.352.254-.438Zm-22.402.375c.816.761 1.011 5.031 1.101 5.949.278 4.984.79 5.7.524 6.074-.313-.008-.418.098-.621-.152-.696-1.828-.649-3.703-.754-5.606-.153-2.52-.418-3.886-.801-5.136-.25-.832-.25-.844.215-1.07a.872.872 0 0 1 .336-.06Zm-1.106.594c.285.605.856 3.359.926 5.73.059 1.887.531 5.574.625 5.594-.3.023-.656-.035-.8-.242-.884-3.637-.587-7.157-1.606-10.813.062-.18.39-.469.855-.27Zm-16.383.39 2.41 1.606.047 1.363-2.46-1.621Zm35.903-.047c-1.368.485-1.723.883-1.508 1.235.18.297.722.195 2.176-.36 1.09-.414 1.43-.23 1.648.403-.016.93-.996 1.035-1.547.906-.238-.012-.203.012.047.3 1.125.821 2.508-.765 1.824-1.777-.535-.922-1.465-1.187-2.64-.707Zm-8.563.348c-1.129.812-.73 2.277.203 2.5.262.125.649.066.801-.023.14-.086.14-.227-.144-.27-.872-.137-1.364-.727-.938-1.32.406-.578 1.164-.465 2.613.117 1.254.504 1.805.351 1.953-.246.067-.266-.011-.512-.613-.535-1.676-.063-2.781-1.008-3.875-.223Zm15.05 2.297c-.073-.422-.82.008-1.315.754-.485.734-.536.84-.633.074-.145-1.137 1.14-2.023 1.941-2.05.965-.099 1.598.401 1.621.972.043 1.129-1.418 1.133-1.613.25Zm-42.448-.82 2.55 1.628s.083.868.028 1.332l-2.563-1.523Zm30.71.652c-1.117.691-.464 1.96.313 2.105.82.157.88-.37.063-.53-.434-.161-.543-.544-.375-.837.39-.586 1.109-.203 1.527-.02.926.41 1.406.563 1.703.282.52-.5.059-1.39-.629-1.082-.187.086-.328.168-.722.074-.598-.117-1.317-.242-1.88.008Zm-30.699 1.273 2.512 1.598-.082 1.402-2.355-1.605Zm.047 1.93 2.36 1.562c-.035.594-.02.829.004 1.207l-2.387-1.433Zm41.852.445c1.894.176 1.258 2.184-.063 1.637-.355-.246-.46-.227-.855.652-.508 1.125-.629 1.032-.555-.27.055-1.273.692-2.015 1.473-2.019Zm-14.957.254c.047 0 .082.008.105.024.13.132-.258.656-.586.96-.242.145-.824-.25-.683-.44.168-.184.86-.516 1.164-.544Zm2.531 1.043-.34.043c-.508-1.055-1.574-.816-1.906.16l-.469-.05c.477-1.196 2.164-1.926 2.715-.153Zm9.555.274-.574.027c-.512-1.14-1.243-1.316-1.864-.191l-.445-.118c.773-1.437 2.05-1.55 2.883.282Zm-2.867-1.313c.293-.016.257.11-.051.492-.266.336-.332.387-.598.203-.437-.3.293-.675.649-.695Zm2.722.043c.055.004.121.008.196.027.59.137.859.395.57.727-.184.203-.36.285-.477.144-.398-.605-.617-.917-.289-.898Zm-8.941.328c.062.227-.133.387-.348.195-.09-.074-.164-.207-.152-.3.133-.117.457-.02.5.105Zm-29.926.672 2.43 1.617c.078.57.093 1 .086 1.387l-2.5-1.54Zm35.469.61c1.398.89 3.039.886 4.07.113.23-.176.434-.18.434-.016-.149.621-1.938 1.41-3.332.953-.766-.25-1.395-.496-1.895-1.16-.297-.43.317-.148.723.11Zm-.598.43c2.043 1.636 3.676 1.19 4.91.37.184-.039.188.114.227.395.05.36-.274.535-1.164.777-1.715.469-3.727-.058-4.086-1.121-.043-.207-.129-.477.113-.422Zm-34.887.855 2.461 1.566-.082 1.191-2.398-1.504Zm.036 1.824 2.324 1.465-.012.984-2.262-1.492Zm16.914.523c9.925 2.106 16.972 1.145 23.886.047l6.082 11.086-36.89-.082c2.422-3.586 4.437-7.512 6.922-11.05Zm0 0" style="stroke:none;fill-rule:nonzero;fill:#131f67;fill-opacity:1"/><path d="m34.61 16.473 1.828 3.172.003.148 1.012 1.832.152.09.227.402.023.192.567.84-.004.18 2.39 4.132c1.989-.676 18.301-1.848 24.329.184l.886-1.372h.211l1.559-2.5-.023-.21.523-.547.078-.25 1.719-2.461.008-.399 2.152-3.281Zm36.921.601s-1.125 1.973-1.703 2.77c-.46-.34-1.812-.117-1.738 1.195-2.195-.773-2.735 1.64-1.035 2.191-.875.7-1.707-.097-2.368-.64-.648.148-1.992.582-2.75-.711 0 0 .317.16.633.332 1.801.512 1.953-1.727.614-2.098-.168-.043-.485-.058-.485-.058.457-1.72-2.43-2.328-2.492-.262 0 0-.344-.055-.602-.012-1.535.254-1.19 2.336.375 2.242.215-.015.41.02.41.02-.027.336-1.925.965-3.285-.188-.648.454-1.675 1.02-3.007-.117.879-.031 1.722-.258 1.715-1.175-.004-.598-.583-1.133-1.422-1.165-.047-.668-.582-1.304-1.286-1.355-.855.043-1.292.676-1.3 1.348-.73.066-1.41.656-1.258 1.332.21.925.984 1.043 1.867.867-1.078 1.586-2.824.75-3.36.242-.644.55-1.765 1.293-3.136.266.734-.11 1.55-.504 1.418-1.45-.106-.742-1.012-.968-1.406-.93 0-.491-.399-1.304-1.348-1.222-1.039.086-.98 1.297-.969 1.305-.855-.067-1.48.86-1.238 1.453.293.723.914.95 2.059.758-1.336 1.148-2.184.699-2.91.453-.649.62-1.508.816-2.391.262 1.976.093 1.672-3.122-.672-1.965-.2-.602-.5-1.348-1.727-1.176l-1.386-2.492Zm-18.406 3.102a.7.7 0 0 1 .297.062c.308.149.363.403.176.774-.067.129-.164.281-.149.418 2.16 3.703 6.957 2.066 7.414.351.032-.105-.023-.226-.086-.343-.183-.282-.156-.512.082-.708.512-.41 1.243.079.946.633-.078.149-.164.309-.106.504 1.223 2.578 3.672 2.781 5.73 1.77-.952 1.558-4.624 2.504-6.152-1.266-2.472 3.059-6.379 2.988-8.136-.48-1.606 3.535-6.414 3.601-8.157.656-1.605 3.355-5.297 2.582-6.336.473 3.426 2.3 5.696-.082 6.106-1.098 0 0-.078-.121-.188-.219-.437-.398-.425-.867.032-1.05.582-.235 1.129.28.824.788-.082.141-.156.172-.102.293 1.059 2.297 6.317 2.985 7.395-.23.035-.184.015-.356-.074-.492-.25-.387.07-.82.484-.836Zm-15.36 1.246c.829.047.598.703.43.754Zm30.805.52c.008.011-.511.847-.511.847-.274-.402-.2-.902.511-.848Zm-2.82 4.23s-.531 1.078-.707 1.168c-9.82-2.356-23.54-.387-23.875-.164l-.602-1.047c8.621-1.559 17.211-1.188 25.184.043ZM49.094 42.16c-.961 3.367-3.258 3.703-6.035 4.106-3.438.496-5.672-.668-6.711-2.434 0 0-4.922 1.695-6.72 2.684 3.724 1.586 8.638 5.09 11.423 9.058.996 1.207.945.934.933 3.582-.023 5.742-.015 7.875-.015 7.875 1.539.219 1.617 1.192 1.531 2.29 1.234-.5 2.422.12 2.414 1.195-.02 1.972-2.121 1.43-2.555 1.21.676 1.739-.129 2.458-.949 2.54-1.012.101-2.172-.348-1.824-2.34-1.106.39-2.496-.328-2.688-1.531l-.046-2.028c2.742-4.719-.664-8.574-3.875-9.847 0 0 .918-1.73 2.093-2.211.121-.036-.71-1.16-2.11-.922-.644.011-.495.008-1.097-.719-1.195-1.438-1.758-1.54-2.93-.008-.515.672-.64.692-1.245.7-.672.011-1.7.449-1.922.843-.051.094.21.184.558.563.5.543 1.274 1.285 1.149 2.043-2.649.98-7.055 5.32-2.457 10.91l-3.34.027-.09-19.844-2.324 1.184.047 15.543-.66-.207c.066-4.957.003-9.91-.149-14.863l-6.133 4.086.188 23.304.652.13c.473 3.175 7.305.98 7.703 1.257l.035 12.95-.3.64 5.421 2.754 4.993-2.364s.671-.109.921-.23c2.07-.996 3.61-.766 4.727.707.691.91.809 1.047.809 1.047.43-2.617 2.953-3.574 5.394-2.883 1.793.512 4.246 2.172 4.988 4.188 0 0 .137.304.27.44l.102.044c-.008-.055-.118-.305-.16-.43-2.5-5.34-9.602-6.183-10.715-1.828l-1-1.305 5.3-2.968 7.211 4.406s-.343 1.539-.386 2.207l.125.05c.035-.081.09-.402.12-.6.118-.727.329-1.34.614-1.806a2.48 2.48 0 0 1 .594-.68c.433-.23.832-.202 1.273-.581l-1.055-.73-.015-2.333 2.113 2.742c.668-.136 3.27-.843 4.805-.046.176.05 2.437-.536 3.832 2.375l6.785-2.57s.434-.223.437-.282c-6.746-2.32-13.539-10.477-12.882-10.605 0 0-.016-.836.043-2.883.062-2.282.043-4.61.09-6.899-2.297-.683-1.72-2.39-1.72-2.39-1.382.273-1.6.027-1.949-.2l-.23-2.16c.828-.648 1.328-.707 2.352-.496 0 0-.497-.941-.04-1.71.383-.61 1.399-.993 2.204-.56 1.047.66.707 2.036.558 2.227 1.086-.445 2.414.059 2.739 1.051.171-2.93.46-6.207 1.105-8.758 1.191-4.61 3.137-9.43 5.559-13.219.398-.632.902-1.265 1.312-1.859.379-.527.559-.867.559-.867s-.516.258-1.063.398c-.785.192-1.375.375-1.469.457-.574.446-1.328.774-1.945 1.016-2.172.773-3.625-.395-4.52-2.168-.511 2.246-2.753 4.145-6.05 2.95-1.864-.919-2.45-1.505-4.184-3.891-.144-.243-.523-.524-.523-.524Zm.07.367c1.227 2.254 3.07 3.852 4.863 4.496 3.203.98 5.325-.906 5.93-2.64l.613.969-4.867 3.16-7.308-4.32c.12-.102.78-1.61.77-1.665Zm22.05.23-2.179 1.177s-1.453 2.14-1.941 2.949c-2.551 4.12-4.473 8.605-5.48 13.062-.41 1.63-.844 4.61-.993 6.043-.234 2.285-.226 3.223-.168 5.32l.168.172s-.27.43-.46.793c-.524.985-.653 1.543-.626 2.688.067 2.633 1.793 5.16 4.242 6.195.141.059.325.133.325.133s-.426 1.047-1.192 1.781c-.512.493-.62.516-.441.758.25.34 1.058.633 2.062.625.356-.004.352-.004 1.008.656 1.277 1.293 1.664 1.266 2.836-.187.348-.434.547-.535 1.05-.547.747-.012 2.11-.563 2.106-.82-.918-.38-1.972-2.313-1.804-2.332 5.027-2.43 6.105-7.5 2.457-11.239l3.5-.043.054 20.235c.688-.418 2.242-1.313 2.242-1.313l.004-15.746c.243.043.485.203.954.278l.085 14.882s.454-.168.852-.402c1.96-1.18 5.8-3.914 5.8-3.914l-.05-22.941-.512-.004v22.93l-5.957 3.98.012-14.25.644-.086c1.743-.219 2.555-2.258 1.403-3.598-.406-.476-.117-.441.758-.59 1.543-.12 2.402-1.195 1.957-1.965-.192-.328.058-.292.222-.605.11-.246.09-.55.043-.789-.058-.32.082-.457.172-.66.137-.317.004-.676-.222-.973-.239-.316-.168-.652-.172-.863-.008-.465-.192-.531-.727-.984-.402-.34-.078-.415.52-.696.937-.441 1.007-2.012-.235-2.687-.664-.36-1.879-.336-4.508.039-.996.14-2.168.234-2.168.234s.024-8.969-.027-13.594Zm-.003.321s5.328 2.895 5.285 2.973c-1.8 2.258-8.516 11.246-8.601 22.14-4.903-.582-6.918 2.942-7.157 2.93-.597-13.344 5.309-22.867 8.332-26.906ZM67.84 44.82l-.02.325-1.062 1.453-.024-1.453Zm-1.637.5.031 2.348-2.171 1.516-.118-2.446Zm-20.082.47 1.113.71-.047 2.328-1.667-2.816Zm30.477.89v1.683c-4.29 5.535-6.555 11.871-7.266 19.899l-1.043-.035c.305-7.985 3.25-15.262 8.309-21.547Zm-28.93.07 2.629 1.598L50.172 51l-2.387-1.422-.222-.543Zm15.95.168-.02 2.469-2.04 1.383-.085-2.45Zm-24.673.562c.305.004.543.208.598.59.219 1.64 1.574 1.172 1.895 1.668.12.168-.168.313-1.094.242-1.7-.125-2.934-1.394-2.063-2.226.223-.188.457-.277.664-.274Zm11.742 1.098 2.247 1.328-.016 2.727-2.2-1.25Zm10.27.043.164 2.41-2.469 1.5-.078-2.394Zm4.688.027-1.426 2.77-8.27 5.441-6.832-4.109-1.262-2.684 7.973 4.832Zm-22.258 1.024c2.195-.02 3.867 2.133 4.437 4.012.414 1.246.477 1.691.516 3.664.035 2.011.105 2.359.512 2.644.25.176.324.13.359-.226.07-.79 1.094-.301 1.11.53.015.927-1.09 1.22-1.903.505-.434-.38-.438-.375-.578.367-.09.496-.73 3.61.875 4.39.3.028.375-.195.152-.456-.449-.524.453-1.125 1.188-.79.883.407.789 1.723-.16 2.188-1.086.531-2.489-.082-3.137-1.375-.477-.95-.473-2.266.023-4.215.227-.898.328-1.472.383-2.16.016-.227.047-.473.066-.55.051-.208-.062-.22-.449-.04-1.066.488-2.222.133-2.504-.77-.336-1.078.973-2.187 1.774-1.5.304.258.265.516-.098.68-.637.285-.422 1.04.25.895 2.219-.606.215-6.344-2.281-6.75-1.649-.266-2.953 1.46-1.762 2.39.469.368.945.172.844-.34-.14-.714.89-.636 1.27.098.617 1.196-.989 2.16-2.485 1.496-2.68-1.48-.832-4.652 1.598-4.687Zm9.941.488 2.207 1.375.008 2.66-2.191-1.207Zm4.871.246v2.442l-2.136 1.425.007-2.601Zm5.742 1.621-1.101 2.801-6.903 4.317-5.671-3.305-.97-2.594 6.68 4.02Zm-44.707.051-.05 14.184c-2.235.082-3.524 2.113-1.856 4.039 0 0-.293.035-.633.078-1.511.183-2.527.918-2.328 1.812.059.274-.004.551-.09.688-.136.367-.101.648.078.965.141.25.118.347.04.535-.176.394-.133.7.066 1.004.246.222.18.406.144.765-.043.504.055.711.403.91.445.254.61.672.101.637-.25-.02-1.144.77-1.144.77l-.004-22.77Zm12.098 1.86c.398 0 .809.464 1.395 1.246.355.562.363.484 1.18.46.831.06 1.34.262 1.558.497.082.086-.137.109-.668.601-.547.508-.625.711-.988 1.281-.133.207-.418.227-.551.04-.11-.153.172-.649.691-1.231.735-.648.582-.715-.484-.617-.746.07-.828.035-1.11-.383-.84-1.555-1.289-1.504-2.105.04-.223.433-.137.405-1.094.331-.754-.055-.941.121-.52.488.665.504.923 1.692.884 1.676l-.512.043s-.156-.265-.227-.437c-.136-.34-.508-.856-.914-1.258-.574-.578-.258-.89 1.028-1.012.718-.07.734-.078 1.066-.52.582-.78.969-1.245 1.371-1.245ZM62.57 55.46l-.75 2.414-5.886 3.777-4.77-2.953-.629-2.281 5.48 3.227Zm-20.265 1.844s1.687 3.054 2.297 5.035c.53 1.719 1.257 6.7 1.062 7.004-.418-.531-1.797-.414-1.816-.41.12-.582-.387-1.758-1.563-1.996Zm19.328 1.183-.594 2.38-5.016 3.316-4.117-2.614-.535-2.304 4.559 2.828Zm-29.086.032.648.21.106 4.305 5.004.781.11.739-5.794-.883c-.055-1.832-.074-5.152-.074-5.152Zm-2.543.12.125 5.005c-.055-.016-4.176.511-5.754.886l.094-.687s2.867-.563 4.941-.774c.004-1.402-.004-2.875 0-4.3Zm46.566 1.083s.684.058 2.14-.172c3.759-.594 4.778-.344 5.255.726.515 1.657-1.453 1.688-1.8.637-.22-.68-1.028-.535-3.724.043-2.304.496-3.765.09-3.73-1.113.031-1.239 1.562-1.34 1.86-.121ZM45.7 58.71c.464-.004.847.34.85.766.009.43-.366.78-.831.785-.465.004-.844-.34-.852-.766-.004-.43.367-.781.832-.785Zm-12.208.094.594.168s.074 3.261.094 3.27c1.273.26 3.953.734 3.953.734l.14.648c-1.12-.246-4.695-.8-4.695-.8-.105-1.415-.086-4.02-.086-4.02Zm-4.332.047s-.004 2.605-.058 4.003c.02-.011-3.036.438-4.59.73l.125-.523c1.226-.25 2.562-.503 3.914-.757-.024-1.028-.012-3.274-.012-3.274Zm2.18.566c.375-.004.683.277.687.621.004.344-.297.621-.672.625-.37.004-.675-.27-.68-.613-.003-.344.294-.63.665-.633Zm50.828 1.805c.414.566.762.55 1.172.496-.102.027-.586.289-.559.379.012.043-.207.757.125.789 1.246.117.61 1.308.758 1.492.336.355.582.578.352 1.02-.207.39-.504.378-.274.714.492.688-.195.828-.137 1.297.043.285.149.672.036.89-.344.665-1.551 1.036-2.891 1.083-.191.008-.047-.278-.133-.461-.332-.195-.148-.52-.035-.73.11-.282.11-.282-.094-.426-.57-.329-.543-.48-.496-.72.13-.698.012-.765-.219-.87-.293-.133-.25-.43-.117-.805.09-.262.028-.328-.11-.566-.081-.14-.105-.215-.109-.305.043-.363-.308-.363-.8-.008-.418.66-.567 1.528-.828 2.074-.204.422-.239.864 0 1.836.457 1.489.113 1.735-1.7 1.41-1.363-.316-1.761-1.656-1.379-3.3.063-.266.047-.52.02-.73-.145-1.13.18-2.216 1.035-2.954 1.438-1.234 2.145-1.422 5.098-1.238 1.156.082 1.242.148 1.242.148s.008-.511.043-.515Zm-21.285.265-.352 2.301-2.781 1.797c-1.3-.957-2.313-.645-3.234.371-.727-.344-2.18-1.273-2.18-1.273l-.363-2.614L56 64.66Zm-29.488.446c.37-.004.675.273.68.617.003.344-.294.625-.669.629-.37.004-.68-.274-.683-.617-.004-.344.297-.626.672-.63ZM60.41 64.39l-.16 2.218-.988.68-.992-.098-.23-1.375Zm-29.043-.082c.375-.004.68.273.688.617.004.344-.301.625-.672.629-.375.004-.68-.27-.684-.614-.004-.343.297-.629.668-.632Zm2.723.078c.37-.004.676.273.68.617.003.344-.293.625-.668.629-.372.004-.68-.274-.684-.617-.004-.344.297-.625.672-.63Zm-5.41.101c.37-.004.675.274.68.617.007.344-.294.625-.665.63-.375.003-.683-.274-.687-.618-.004-.344.297-.625.672-.629Zm50.246.274c.187-.012.469.25.332.636-.184.446-.059.598.246.961.258.305.215.348.176.543-.067 1.278.832.73.437 1.657-.082.203.028.492.067.734-.086-.223-1.735-.207-1.875.016-.235-.032-.528-1.461-.29-1.649.032 0 .204.246.29.383.218.348.27.336.199-.066-.266-1.59-.098-3.207.418-3.215Zm-42.114-.035c.376-.004.68.273.684.617.004.344-.293.625-.668.629-.371.004-.676-.27-.68-.614-.003-.343.293-.629.664-.632Zm-10.94.078c.37-.004.675.273.679.617.004.344-.293.625-.668.629-.371 0-.68-.274-.684-.617-.004-.344.297-.625.672-.63Zm26.491.273 2.024 1.215c.031.383-.024.93.11 1.113-1.321-.117-1.993.574-1.993.574Zm-20.781.926c2.219.023 4.363.355 6.355.957l-.16.656a27.541 27.541 0 0 0-12.707 0l-.328-.691a24.285 24.285 0 0 1 6.399-.922h.441Zm-12.531.851c.578-.007 1.172.196 1.59.63.78.812.398 2.312-.715 2.788-1.664.707-3.387-.828-2.676-2.402.293-.652 1.05-1.008 1.8-1.016Zm41.113.336-.027.657-.504-.387Zm-10.57-.007c.73-.008 1.332.535 1.34 1.21.007.676-.579 1.227-1.309 1.235-.734.008-1.336-.535-1.344-1.207-.008-.676.578-1.23 1.313-1.238Zm-30.508-.067c-.18 0-.477.067-.613.18-.352.3 0 .312.468.39.829.145 1.055.805.977 1.512-.07.649.164.637.355.399.778-.973.122-2.399-1.187-2.48Zm38.484.457-.035.02c.008.008.02 0 .035-.02Zm-26.21.293c.995-.015 1.093 1.488.21 3.168-.265.504-.402.442-.687-.324-.707-1.883-.547-2.828.476-2.844Zm2.296.051a.674.674 0 0 1 .528.223c.53.562.117 1.468-1.309 2.859-.344.336-.523.465-.652.469-.356.004-.356-.051.054-1.262.18-.531.36-1.117.395-1.3.121-.583.562-.97.984-.989Zm-3.597 1.336c.097.414.265.996.375 1.285.105.293.175.57.16.617-.09.227-.723-.082-1.172-.566-.906-.98-1.27-1.828-1.078-2.281.277-.364.984-.524 1.308-.204.336.329.383 1.036.407 1.149Zm6.28-.95c.962.524-.148 1.712-2.304 2.692-.922.422-.855.23-.156-.601.27-.32.629-.836.805-1.153.386-.703.777-1.402 1.656-.937Zm-9.581-.03c.305 0 .613.3 1.187 1.074.258.343.676.836.93 1.09.254.257.453.511.441.566-.101.539-3.09-1.184-3.3-1.906-.075-.442.3-.832.742-.825Zm42.86 1.718c.538 1.024.581 1.66.136 1.89-.637.329-1.453-.175-1.465-.905-.008-.247-.277-1.098-.523-1.657-.207-.457-.235-.738-.063-.761.66.101 1.637.949 1.914 1.433Zm-3.583-.789c-.21.582-.433 1.496-.433 1.762.003.105-.067.32-.153.476-.55 1.04-1.844.184-1.363-.902.434-.977 1.531-1.992 1.965-2.027.293-.02.015.605-.016.691Zm.88-.558c.214-.02.394.418.67 1.152.376.992.356 1.766-.05 2.094-.875.699-1.789-.329-1.43-1.614.286-1.027.563-1.613.81-1.632Zm-29.282.078c1.035 14.738-7.2 26.043-7.785 26.351l-2.793 1.395-4.883-2.473c5.09-6.387 8.148-13.719 8.406-22.242 4.688.433 7.113-3.016 7.055-3.031Zm26.875.14c.344-.086.101.192-.238.64-.364.477-.84 1.786-1.211 1.993-.84.367-1.782-.34-1.274-.953.469-.563 1.848-1.461 2.723-1.68Zm4.976.117c.13 0 .375.082.73.243 1.74.789 2.595 1.828 1.849 2.316-.524.348-1.083.074-1.602-.84-.18-.312-.5-.773-.715-1.027-.39-.465-.48-.692-.262-.692Zm9.786.56c1.12-.013 2.035.812 2.05 1.843.012 1.031-.886 1.879-2.004 1.89-1.12.012-2.035-.816-2.046-1.847-.016-1.031.882-1.875 2-1.887Zm-.618.483c-1.316.532-.93 2.438.207 2.72.477.124 1.063-.06.82-.27-1.495-.442-1.503-1.461-.894-2.203.098-.118-.035-.29-.133-.247Zm-54.859 2.43c-.055 1.074.195 2.324-.367 3.492-.852 1.793-3.57 2.606-5.024 2.442-.3-.117-.652-.227-.953-.11a.804.804 0 0 1-.594-.023c-.183-.082-.363.023-.543-.04-.21-.128-.554-.429-.511-.648.066-.312.043-.543-.356-.648-.547-.145-.656-.418-.492-1.219.035-.172.078-.25-.047-.328-.402-.25-.554-.71-.285-1.2.172-.276.309-.476-.004-.698-.12-.258-.097-.356.168-.68.281-.313.332-.348.152-.613-.406-.598.06-1.035.606-1.282a8.327 8.327 0 0 1 2.152-.496c.285.016.274.25.446.477.254.367-.106.894.101 1.082.297.129.434.383.41.602-.011.507.02.68.168.894.164.234.227.668.07.961-.14.258-.124.242.055.398.18.153.266.918.2.903l.753-.063c-.078.078.29-1.43 1.153-2.59-.043-.914-.418-1.754-.383-2.96 1.863-.606 3.203.855 3.125 2.347ZM52.699 70.5c.266.195 1.598.543 1.649.504-.043.59.34 1.734 1.73 2.121.008 1.637-.031 9.21-.031 9.21-1.926-2.995-3.113-6.858-3.348-11.835Zm-32.383.156s.075.219.141.64c.117.86-.012.977-.258.391-.289-.69-.308-.156.016 1.426.078.383.074.469-.031.727-.063.16-.176.539-.266.832-.266.863-.422 1.113-.688.422-.136-.352-.25-.406-.152-.68.125-.348.098-.605-.148-.941-.04-.055-.13-.18-.14-.535.077-.801-.31-.81-.388-1.016.016-.313-.14-1.074.094-1.05.192.015.887.034 1.219-.075.144-.05.601-.14.601-.14Zm28.856.2c.719-.008 1.308.523 1.316 1.187.008.66-.57 1.203-1.289 1.21-.719.009-1.308-.523-1.316-1.183-.008-.664.57-1.207 1.289-1.215Zm-20.102.66.985.175c.222.07.015 12.602-7.91 21.621l-.063-2.093c3.773-5 6.504-11.137 6.988-19.703Zm16.727.32.168 2.996c-.55-.437-1.961-1.258-1.95-1.273l.012-1.106s1.211.09 1.77-.617Zm-7.606.016c.239.093.446.308.649.46l-.645.399Zm22.602.23c4.254 1.18 8.45 1.16 12.602.324l.28.73c-4.503 1.11-8.976 1.032-13.413-.292Zm-20.629.488.223 1.293-2.41 1.426.125-1.96 1.253-.747Zm21.273 1.149c.391-.004.708.285.711.644.008.356-.304.649-.695.653-.387.004-.703-.282-.707-.641-.008-.36.305-.652.691-.656Zm10.946.094c.387-.004.707.28.71.64.005.36-.308.652-.695.656-.39.004-.707-.285-.71-.644-.004-.356.304-.649.695-.653Zm-20.504 1.94c.312 1.028.234 3.337-.176 4.903-.125.473-.203 2.145-.203 2.145-.078.086 2.418-1.89 3.207.715.273.898-.848 1.742-1.594 1.492-.144-.051-.101-.492.04-.754.417-.777-.762-1.188-1.442-.5-1.563 1.59.027 5.629 2.469 6.031 2.023.332 3.656-1.52 2.308-2.633-.59-.488-1.539.176-1.11.797.462.66-.39.918-1.034.305-1.121-1.067.148-2.668 1.843-2.29 2.711.579 2.141 4.485-.707 4.696-2.175.16-3.636-.719-4.55-2.27-.86-1.492-.918-2.68-.516-5.288.242-1.547.05-2.852-.414-2.844-.258.004-.457.113-.5.39-.082.57-.156.676-.54.47-.487-.266-.757-1.11.044-1.677.824-.582 1.887.332 1.84.493.02-.032.105-.18.215-.844.367-2.16-.422-4.445-1.407-4.082-.215.078-.191.168.09.316.656.34.074 1.211-.75 1.121-1.164-.129-1.426-1.632-.394-2.289 1.62-.8 2.933.465 3.28 1.598Zm-7.957-1.827s2.066 1.172 2.176 1.469c.066.19.144 1.863.144 1.863l-3.582-2.086-5.16 2.914c.086-.64.465-2.297.465-2.297l2.742-1.59c.016.098 1.89 1.246 3.215-.273Zm25.71.199c.388-.004.708.285.712.645.004.355-.305.652-.696.656-.386.004-.707-.285-.71-.64-.004-.36.308-.657.695-.661Zm-5.48-.008c.387-.004.707.281.715.64.004.36-.312.653-.699.657-.39.004-.707-.285-.711-.64-.004-.36.305-.653.695-.657Zm2.754.156c.39-.003.711.286.715.641.004.36-.308.652-.7.656-.386.004-.702-.285-.71-.64-.004-.36.309-.653.695-.657Zm-6.902.895c1.863.363 3.73.738 5.52.926l.054 5.054-.523-.027-.059-4.52c-1.726-.12-3.355-.464-4.883-.835Zm13.863.215-.097.594s-3.227.5-4.915.695c-.03 1.02-.039 4.418-.039 4.418l-.644.11.016-5.15c1.914-.183 3.824-.374 5.68-.667Zm-31.215.176 3.79 2.324.437 2.457-4.418-2.727s-4.02 2.473-5.527 3.39l.468-2.308Zm17.532.52c1.527.3 3.054.616 4.582.741l.05 4.07-.703-.175-.043-3.3c-1.195-.103-2.422-.317-3.652-.563Zm13.523.167-.133.55s-2.445.333-3.71.536c-.11.023-.083 3.582-.083 3.582l-.605.082-.055-4.152Zm-6.855.43c.386-.004.703.285.707.64.007.36-.305.653-.692.657-.39.004-.707-.282-.71-.641-.009-.355.304-.652.695-.656Zm-24.266 1.383 4.48 2.808s.516 1.457.621 2.262l-5.156-3.09-6.476 3.926.758-2.438ZM15.37 78.05c.266.004.531.168.668.547.195.53.559.687 1.516.675 1.875-.085 3.847-.89 5.62-.273.86.293 1.16 1.465.438 1.77-.781.328-1.117.117-1.386-.45-.25-.242-.559-.207-2.247.055-.742.11-1.613.207-2.347.258-1.88.133-2.914-.414-3.14-1.445-.15-.657.433-1.145.878-1.137Zm51.434 1.12c.386-.003.707.286.71.641.005.36-.308.657-.699.657-.386.004-.703-.281-.71-.64-.004-.36.308-.653.699-.657Zm-13.758.743c.504-.004.918.371.926.836.004.465-.403.848-.907.852-.507.007-.918-.368-.925-.832-.004-.465.398-.848.906-.856Zm-10.465.555s3.688 2.289 5.395 3.344l.937 2.507-6.281-3.793-7.715 4.59.934-2.57Zm26.676.875c.332.836.937 1.469 1.578 2.117 0 0-.36.621-1.637.582-.699-.023-.738.078-.976.512-.395.55-.715.914-.97 1.09-.444.316-1.284-.16-1.972-1.125-.25-.356-.351-.438-1.113-.426-1.164.02-1.586-.281-.98-.762.53-.59.914-1.242 1.386-1.863l.524.058c.023.07-.41 1.266-1.016 1.75-.309.32.121.438.871.293.477-.129.598-.078.95.594.726 1.281 1.109 1.219 1.984-.074.304-.578.293-.633 1.129-.465.898.086 1.168-.016.8-.305-.742-.586-1.148-1.96-1.148-1.96Zm-26.653 1.62s6.668 4.06 6.653 3.97l1.328 2.914-7.824-4.836-9.602 5.707 1.442-2.871Zm.25 2.65 2.325 1.421-.016 2.54-2.375-1.481Zm-.597.073.035 2.508-2.094 1.137-.11-2.352Zm-2.656 1.606-.02.098.05.023h.016l.067 2.262-2.406 1.527.015-2.555Zm6.152.05 2.187 1.352.079 2.692-2.372-1.442Zm2.7 1.65 2.19 1.413.067 2.688-2.238-1.403Zm-11.626-.032-.02 2.484-2.19 1.399-.095-2.535Zm23.106 3.285c-.434.414-.594.363-.965-.328-.383-.715-.957-1.05-1.797-1.04-1.055.013-.363-.62.758-.694 1.937-.07 2.914 1.129 2.004 2.062ZM34.03 90.7l.047 2.492-2.18 1.032-.058-1.18 1.125-1.8Zm-2.816 3.32.07.454-.402.14Zm26.11 18.032c-9.157 1.773-17.93 1.105-24.227.011l-2.891 4.52-.2-.008-.745 1.172.078.133s-2.406 4.219-3.418 5.55c11.765-.062 37.586-.027 37.586-.027l-1.563-2.922.086-.078-1.543-3.05-.504-.528s-.304-.55-.535-1.14c-.21-.547-1.117-2.04-1.117-2.04l-.129.012Zm-23.895.554c.12.09 11.715 2.145 23.75.118l.652 1.015c-10.531 2.196-25.754.012-25.152-.191Zm.191 1.997c1.063-.032 2.133.5 2.856 1.378.23.278.605 1.102.605 1.102s.512-.773 1.008-1.16c.758-.582 1.734-1.07 3.148-1.02 1.301.051 2.735.703 4.02 2.586.332-1.082 4.62-4.746 8.129-.148.406-1.219 2.3-3.645 5.347-1.934.207.41.418.864.418.864-1.797-1.168-4.77-.399-5.48 1.414-.063.222.016.336.11.55.925 1.227-1.493 1.188-.774.204.137-.227.148-.41-.067-.708-.562-.785-2.265-1.761-3.515-1.742-1.446.024-3.047.903-3.586 1.703-.2.297-.246.59-.07.852.125.262.078.48-.133.637-.5.375-1.121-.059-.883-.614.16-.246.137-.546-.184-.964-.644-.84-2.152-1.727-3.468-1.707-1.883.03-3.786 1.273-3.668 2.304.05.453-.086.621-.485.567-.488-.067-.539-.489-.195-.832.05-.11.133-.38-.024-.575-1.976-2.484-4.953-1.773-5.636-1.222.664-1.043 1.59-1.508 2.527-1.535Zm-1.773 1.714c.746.008 1.547.532 1.797.938.187-.176 1.875-.91 2.69.152-2.144-.16-2.179 1.942-.593 2.149-.73 2.023 2.512 2.156 2.313.254 2.425.34 2.136-2.493-.149-2.204 1.2-.796 2.012-.535 3.446.391.484-.578 2.457-1.113 2.937-.101-2.258-.137-1.883 2.273-.195 2.3-.508 1.668 2.804 2.293 2.304-.199 2.102.14 1.809-2.48-.21-2.27.152-.476 2.199-.675 3.101.239.832-.695 1.754-1.172 3.406-.168-2.258-.356-2.297 2.351-.195 2.195-.203 1.79 2.766 1.828 2.277-.238 2.258-.555 1.024-2.79-.636-2.18.742-.808 1.996-.422 2.492-.258 1.543-1.613 2.879-.254 2.879-.254-2.676-.265-2.106 3.25.508 1.985-.008.723.328 1.351 1.39 1.457l1.258 2.418-35.871.094 1.988-3.2c.203.059 1.344.157 1.594-1.078 2.355.7 2.523-1.832.766-2.238.21-.133.453-.188.703-.184Zm-1.403.91c.23.348.035.57-.367.579 0 0 .262-.348.367-.578Zm29.508.551.23.45c-.25-.094-.28-.196-.23-.45Zm0 0" style="stroke:none;fill-rule:nonzero;fill:#000;fill-opacity:1"/></svg>