<svg xmlns="http://www.w3.org/2000/svg" width="99" height="140"><path d="M9.298 719.743h215.404c4.93 0 8.92 4.005 8.92 8.938v314.362c0 4.934-3.99 8.938-8.92 8.938H9.298c-4.93 0-8.92-4.004-8.92-8.938V728.681c0-4.933 3.99-8.938 8.92-8.938Zm0 0" style="fill-rule:nonzero;fill:#fff;fill-opacity:1;stroke-width:.755906;stroke-linecap:butt;stroke-linejoin:miter;stroke:gray;stroke-opacity:1;stroke-miterlimit:4" transform="matrix(.42308 0 0 .42042 0 -302.435)"/><path d="M6.938 23.441h.68v2.348h-.68Zm0 0" style="stroke:none;fill-rule:nonzero;fill:#000;fill-opacity:1"/><path d="M11.012 22.316c.535.961.187 2.172-.774 2.704a2.002 2.002 0 0 1-2.715-.774 1.997 1.997 0 0 1-.246-.828 1.99 1.99 0 0 1-2.12 1.848A1.99 1.99 0 0 1 3.3 23.148a1.99 1.99 0 0 1 2.125-1.847c.289.02.57.101.824.238a1.988 1.988 0 0 1-.684-2.727 1.998 1.998 0 0 1 2.735-.683 1.982 1.982 0 0 1-.004 3.414 2.005 2.005 0 0 1 2.715.773ZM91.379 116.559h.68v-2.348h-.68Zm0 0" style="stroke:none;fill-rule:nonzero;fill:#000;fill-opacity:1"/><path d="M95.453 117.684a1.985 1.985 0 0 0-.773-2.704 2.002 2.002 0 0 0-2.715.774c-.14.254-.227.539-.246.828a1.99 1.99 0 0 0-2.121-1.848 1.99 1.99 0 0 0-1.856 2.118 1.99 1.99 0 0 0 2.125 1.847c.29-.02.57-.101.824-.238a1.988 1.988 0 0 0-.683 2.727 1.998 1.998 0 0 0 2.734.683 1.982 1.982 0 0 0-.004-3.414c.965.531 2.18.184 2.715-.773ZM24.125 31.152h1.36v4.696h-1.36Zm0 0" style="stroke:none;fill-rule:nonzero;fill:#000;fill-opacity:1"/><path d="M32.27 28.906a3.964 3.964 0 0 1-1.551 5.403 3.994 3.994 0 0 1-5.422-1.543 3.953 3.953 0 0 1-.492-1.66 3.981 3.981 0 0 1-4.25 3.695 3.979 3.979 0 0 1-3.707-4.235 3.981 3.981 0 0 1 4.25-3.695c.578.04 1.136.203 1.652.48a3.975 3.975 0 0 1-1.371-5.453 3.998 3.998 0 0 1 5.469-1.37 3.971 3.971 0 0 1-.004 6.831 4.003 4.003 0 0 1 5.426 1.547ZM11.262 10.996c0 .957-.063 1.652-.196 2.086-.222.754-.703 1.313-1.433 1.676-.582.293-1.278.441-2.094.441-1.66 0-3.074-.562-4.242-1.683l2.07-1.493c.774.676 1.473 1.012 2.102 1.012.43 0 .707-.207.832-.617.054-.18.082-.512.082-1.004V3.285h2.879ZM87.738 129.004c0-.957.063-1.652.196-2.086.222-.754.703-1.313 1.433-1.676.582-.293 1.278-.441 2.094-.441 1.66 0 3.074.562 4.242 1.683l-2.07 1.493c-.774-.676-1.473-1.012-2.102-1.012-.43 0-.707.207-.832.617-.054.18-.082.512-.082 1.004v8.129h-2.879Zm0 0" style="stroke:none;fill-rule:nonzero;fill:#000;fill-opacity:1"/><path d="M27.016 121.398c-.383.5-2.028-2.992-3.082-5.64-.52-1.301-1.215-2.371-.926-2.715.754-.7 2.707-.07 4.129.934 1.515 1.074 2.586 2.648 2.586 2.648Zm-13.32-2.605-.044-1.945c1.309-1.082 3.18-2.641 5.086-4.657l-4.937.02-.387-1.691.055-74.024s5.402 5.156 5.543 5.156c.082 0-.035 30.73-.035 51.282.046.097-2.852.035-3.043 1.379-.125.886 3.14.769 3.191.828-.02 9.238-.168 15.867-.098 15.867 2.48.004 3 .094 3 .094-2.8 2.652-5.71 4.824-8.332 7.691Zm17.644-9.488c-.434-.797-1.125-3.864-1.656-3.79-2.442.739-3.223-2.566-.696-2.734.953-.062 2.02 1.082 2.617 2.504.29.746-.015 4.32-.265 4.02Zm.558-4.594c-.718-1.082-1.402-5.023-2.714-4.8-1.196.245-1.961-.716-1.844-1.56.617-2.367 5-.113 6.152.434-.57 1.192-1.383 4.156-1.594 5.926Zm-9.187-10.824c-.313-.117.488-1.309.5-2.676.012-1.555-.758-3.27-.664-3.52 2.875-2.062 6.781-4.289 7.488-3.101.723 5.039.344 7.84-.484 11.601l-.54.258s-.906-.156-1.581-.476l-3.532-1.637Zm46.242-37.98c-.527-3.884-.133-9.923.625-12.31.293-.808 5.754 2.544 6.192 2.794.406.234.605.199.355 1.218-.285 1.18-.242 2.567.16 4.149.149.59.266.816-.137 1.078-.421.266-7.058 3.465-7.195 3.07Zm-2.574-16.11c.113-.25.57-3.156.71-3.168.458-.035 1.126 2.848 2.294 3.8 2.207-.23 2.46 1.141 2.031 1.805.106.29-.715.922-1.48.86-1.899-.684-4.465-1.29-3.555-3.297Zm-29.496-2.402c-.621-.403.562-3.297 3.922-2.63 1.445-2.495 1.535-8.132 2.234-8.48 1.05-.355 11.77-3.074 11.445-.691-.343 2.554-.914 14.87-4.957 17.89-.402.442 6.38 4.668 6.38 4.668s7.167-4.086 6.757-4.023c-.176.043-.32 3.48-.434 9.047-.105 5.367.743 9.215 2.516 14.894-.226.688 1.356 4.125 3.129 7.532 2.012 3.867 4.73 7.77 4.73 7.77-4.683-1.458-8.992-.9-14.246-2.563l-.285 19.09s2.719 1.304 3.242 1.906c.258.293.286.703.313 1.074.113 1.441-1.215 3.152-3.738 2.586-.793 2.539-1.938 8.52-1.98 8.515-3.852.473-7.755.98-11.657.782 0 0 .586-1.918.812-4.805.086-1.05.145-2.184.282-3.387.5-4.437 1.925-9.28 4.222-9.59-.453.165-5.816-4.097-6.55-4.402-3.02 1.445-6.989 3.867-6.989 3.867s.528-3.515.555-7.199c.031-3.95-.266-8.316-.402-9.453-1.032-6.508-3.918-12.438-6.25-16.871-.938-1.781-2.336-4.633-2.336-4.633 3.445-.36 7.351-.184 13.441 1.496 0 0-.316-19.265-.316-19.16.054.172-1.567-.613-3.051-1.48-.793-.465-.711-1.7-.79-1.75Zm30.414-4.282c.027-.199.129-2.375.129-2.375.949 1.032 1.715 4.043 1.906 3.992 0 0 1.223-.175 1.606.196 1.238 1.219.015 2.648-1.227 2.379-1.234-.293-2.59-2.235-2.414-4.192Zm12.578 65.328s-.277-34-.246-51.12c1.328-.2 2.703.613 3.95-1.122-.657-1.254-2.536-.875-3.95-1.129l.012-15.785s-2.36-.043-2.36-.183c-.004-.133 1.215-1.184 3.524-3.391.277-.266.746-.727 1.043-1.023 1.164-1.165 3.011-3.098 3.101-3.02.723.566.645 1.48-2.722 4.348-2.454 2.086-2.547 1.949.164 1.914 2.586-.04 2.914-.235 2.55.617.004.351.301.625.23.68-.073.058-.089 74.273-.089 74.273ZM72.09 19.246c.015.047.355.164.719.535 1.488 2.242 2.257 5.086 3.425 7.047-2.425.988-5.789-1.215-6.597-3.137-.98-2.421 1.906-5.777 2.453-4.445Zm0 0" style="stroke:none;fill-rule:nonzero;fill:#e2cf00;fill-opacity:1"/><path d="m12.855 16.027.079 107.98 73.21-.023-.16-107.992ZM37.11 38.715c.102.176.262.426.262.426s-.176.043-.3.117c-8.493 2.87-17.68 9.289-17.84 9.476l.175-7.113-5.687-5.441.05-19.278 22.075.028 6.457 9.953c-.39 2.601-1.406 7.644-1.406 7.644-.594-.132-2.598-.308-3.684 1.118-.52.68-.793 1.609-.102 3.07Zm41.352 22.238.84-.976-1.477.062 1.016-1.012-1.637-.035 1.277-.996-1.722-.02L78.039 57l-1.883.074 1.352-1.062-1.863.008 1.39-1.07-1.82-.028 1.183-.957-1.59-.02 1.797-1.16c.77.309 1.801.488 2.836.508l.008 7.809Zm1.309-13.539c4.203.02 5.105-2.043.023-2.379 0 0-.383-10.238-.262-14.476.004-.516.055-1.098.055-1.098l-2.766-.07s7.43-7.348 8.13-7.946c.597 24.73.487 82.149.487 82.149l-5.66-5.219-.039-16.234c-1.894-1.766-2.976-4.344-4.105-6.016l-3.098-1.387.73-2.285-.308-.652-.973 3.238 3.391 1.484.355.668-.574 3.051 3.207 1.016.555.699-.203 2.98.66.188.008.59-.668-.05-.242 3.343.906.246-.004.754c0-.012-.527.004-.785-.02-.36-.18-.945-.883-.945-.883l.324-3.714-4.067-.754-.3-.395.75-3.71-4.27-1.204c.438.992 1.02 1.918 1.5 2.895-.586.156-1.2.187-1.793.304-.168 5.016.012 10.235-.164 14.95-3.441.226-1.828-.075-3.32-.055-.586 0-1.063.433-1.063.973 0 .343.195.644.485.82l-.59.191-1.035-1.078 2.168-1.902-.012-.551-2.692 2.469 1.16 1.234-.69.328-1.063-1.027s-2.29 2.144-2.145 2.183c.07.02.195.13.281.239 1.625 3.23-.597 4.77-3.28 3.875-.688 2.969-1.34 5.648-1.884 8.722-2.004.696-11.437 1.086-11.543.926 0 0-.238-.21-.246-.312.043-.137-.273.285-.273.285 0 .183-8.219-.2-12.274-.914 0 0-.082-.356-.05-.828.07-.946-.012-.938.925-.797 1.914.12 3.399-.48 3.989-2.028.332-.863.18-1.644-.325-3.96-.484-2.25-.492-2.008-.433-2.313.07-.355.488-.754 1.094-1.203.453-.34.5-.977.132-.625-.25.336-.691.457-1.09.644-.93.45-.898.88-.355 2.727.258.867.527 1.8.535 1.91.028.34-.105.203-.66-.148-.351-.239-.762-.438-1.125-.633-1.113-.547-.621.05.45.707.843.574.98.82.253.547-.75-.281-1.824-.164-2.668.129-.164.082-.285.074-.312-.067-.035-.215.11-.757.172-2.015.164-3.172.98-6.555 3.28-8.508 3.294-2.793 8.7-.89 11.696 1.707l.324-.453c-2.011-1.555-5.5-3.496-8.898-3.125 1.422-1.086 4.559-2.887 4.559-2.887 2.148 1.438 3.734 2.867 6.09 4.422l.413-.25-6.488-4.738-7 4.23s.297-4.066.41-5.55l-3.039 2.46 2.336 3.184-2.484 2.344s.422-.055-.04.668c-.698 1.3-1.124 3.398-1.448 5.527.058 1.59-.372 3.348-.504 4.746-.227-1.312-.496-2-1.024-3.191-.484-1.149-.676-1.141-1.222-.973-2.965.227-1.618-5.031 1.886-1.59.153.149.407.328.418.293.074-.21-.926-2.984-1.312-3.621-.41-.676-.414-.77-1.024-.715-1.14.106-1.527-.265-1.64-1.37.156-2.083 2.61-1.2 4.183-.56.14.102-.738-.734-1.054-1.03-.426-.403-.497-.657-.497-.657l.098-1.11 2.406-2.015-1.972-2.688.082-.957 2.12-2.332-2.253-2.25-.023-.8 1.832-2.235-2.45-1.812-.12-.723s1.581-2.676 1.538-2.773c-.035-.082-2.656-1.75-2.656-1.75l-.262-1.125 1.141-2.86-2.723-1.433-.5-1.293.774-2.649-2.828-1.203-.805-1.492.531-2.785-3.172-.867-.836-1.223.114-2.45-.778-.073.012-.606.863.008s-.066-.09.032-1.3c.164-2.056.18-1.977-.356-2.063-1.125-.18-.863-.817.285-.696.176.016.328.032.453.055.301.05.536.414.536.414l-.258 3.797 4.054.625.383.476-.683 3.52 3.804 1.016.512.855-1.086 3.656 3.836 1.555.25.68-1.633 3.25 3.524 1.578.218.777-1.96 3.348 4.058 2.722s-.11-.265-.27-.71l-3.218-2.118 1.636-2.859s.13.21.27.168c-.082-.48-.145-.957-.184-1.43l-1.656-3.984 5.383-3.317c-2.3-1.277-5.21-1.238-7.879-1.718 0 0-.117-.344-.316-.649-.778-1.148-1.473-2.605-2.34-4.11.64-.273.918-.237 1.601-.358 0 0 1.75-9.977 3.114-14.852 0 0 .207.059.312.063.656 0 1.192-.493 1.196-1.098 0-.332-.16-.63-.415-.828.149-.04.305-.078.47-.114.218-.003 1.1.895 1.1.895l-2.273 2.05-.011.68c.906-.863 2.894-2.73 2.894-2.73l-1.195-1.16.594-.254.968.984 2.18-2.054.559.351c-.735.883-1.211 1.172-2.313 2.215.574.625 2.793 2.598 2.793 2.598l-.008-.68-2.187-1.957 2.133-1.95.125-.128s1.691.672 1.796.672c-.718-.543-2.007-1.012-2.707-1.48-3.175-1.727-.152-5.286 2.778-4.4.082.29 1.625-7.51 1.453-7.94.16-1.212.191-1.04-.262-1.731-1.363-2.895-5.336-8.367-5.336-8.367l35.828-.168c-.375.668-.75 1.21-1.035 1.992 0 0 2.012 1.93 2.742 4.465.41 1.414 1 2.738 2.032 3.68.015.035-.036.074-.098.113-2.836.914-6.059-1.309-7.047-3.844l-1.629 2.434c.735.078-10.82-1.22-13.656-.899.254.047.55.238.383.969-.293 1.258-.813 5.812-.813 5.812-.574 4.43-1.023 9.993-4.207 11.832 0 0 .489.477.906.72.012-.005-.375-.364-.386-.407.004-.129.082-.207.176-.277.675-.5 1.5-1.54 1.468-1.567 2.621 2.098 6.727 3.906 9.207 3.16.977-.187 1.41-1.05 1.93-.351-.68 3.812-.64 8.004-.383 11.297.395 7.34 2.153 11.547 3.89 16.746-.898.293-5.51 3.125-5.51 3.125-.032.363 5.558 1.547 7.753 1.344 0 0 .45.402.453.316a.37.37 0 0 1-.043-.078c.324-.168.543-.485.543-.852.004-.539-.469-.976-1.055-.976-.109 0-.214.015-.316.043-.273-.621-.508-1.164-.508-1.164l3.102 1.246-1.016 3.12.34.696 1.238-4.066-3.96-1.563-.266-.722 1.648-3.083-3.543-1.933-.148-.617L66.883 64l-3.43-2.43 2.516-2.976-3.086-2.387.035-.398 2.562-2.704-2.644-2.503-.07-1.012 2.886-2.352-2.484-3.328c1.039-.64 1.617-1.37 2.3-2.097l.606.246-2.215 1.535 2.36 3.14 2.5-2.066-1.352-2.023.824.343.754 1.086-.125 1.11-2.465 2.054 2.114 2.82.015.52s-1.32 1.387-2.28 2.422l2.683 2.723-2.2 2.57 2.758 2.164-.078-.648-2.035-1.582 1.566-1.739c.114-1.05-.132-2.851.454-3.64-.942-.848-.446-2.891.02-3.551-.903-.98-.384-3.129.19-3.223-.687-.789-.41-2.394.165-2.918.183-.09-2.454-.965-4.114-2.02 1.387-2.366 1.067-4.593 1.504-5.394.598 1.59 1.363 3.278 2.024 4.496.07.125.214.098.437.102 2.75.23 2.484 2.312.422 2.844 0 0 4.191 2.879 6.316 3.199.024.05.008.117-.062.254-.305.57-.48 1.562-.527 2.437-.153 1.297.527 3.29.527 3.29l-.871.495c-.176.684-1.149.7-1.246 1.188.203 2.098 4.652 10.137 5.59 11.047.367-5.735-.305-11.957.043-17.68Zm-1.04 14.621.723-.547-.016.867Zm.704 1.328-.364-.25.368-.375Zm-44.852 10.18c.066.394.145.785.234 1.168-.515.125-.894.55-.894 1.062 0 .606.535 1.098 1.195 1.098.094 0 .184-.012.274-.031.187.605.367 1.129.504 1.512l.242.16c-.649-2.09.617-3.215-1.25-4.953-.028-.086-.164-.063-.305-.016Zm38.715-56.64 11.66.085-.008 3.953-8.996 8.77 3.465.043-.059 15.055c-.953.363-1.859.921-2.734 1.464l-5.46-2.785-.395-.183s.152-.04.472-.23c.617-.376.856-1.29.578-1.977-.46-1.125-1.406-.922-2.199-.926-.652-.465-1.21-2.024-1.672-3.067-.21-.449-.414-.796-.469-1.058-.046-.242-.046-.453-.046-.453s.105.031.261.324c.868 1.684 2.903 2.5 3.985.91.55-.976.172-2.094-.746-2.406-.282-.098-1.239.004-1.239.004-.058.031-.695-.828-1.593-3.649-.368-1.164-.461-3.691-.11-4.054.602-.664.754-1.598 1.262-2.27.23-.422.219-.16.578.313 1.223 1.605 3.379 2.851 5.352 2.777 1.402-.055 1.836-.496 1.507-.867-.77-.723-1.27-1.735-1.523-2.625-.582-2.067-1.203-3.91-2.781-5.516Zm-5.934 9.804c.149.125.032.324.004.68-.07.906-.09.918-.656.687-1.086-.437-2.625-.058-3.55.863-1.173 1.165-1.208 2.364-.485 4.731.832 2.66.808 3.012-.192 3.555-.597.468-1.214 1.457-.984 1.453.031 0 .113-.059.184-.133.066-.07.617-.477 1.039-.742 1.16-.727 1.527-1.098.996-2.446-.528-1.328-.95-2.628-.73-2.71.105-.036.507.394.753.527.508.27 1.574.762 1.707.762.18 0-.011-.121-.535-.434-1.394-.844-1.965-1.61-.617-1.125.723.258 1.484.11 1.914-.02.504-.148.766-.3.82-.128.07.82 0 1.664-.054 2.488-.02.055-.086.613-.157 1.246-.257 2.39-.703 4.41-1.851 5.707-3.836 4.344-8.196 3.07-13.086-.414 1.832-4.649 1.71-8.274 2.164-9.746.422-.117.918.11 1.226.27.68.359 1.457.574 2.204.613.691.035.812-.055.75.132-.047.145-1.164.446-1.852.575-1.246.238-1.152.504-.105.418 1.105-.09 2.171-.493 3.3-1.184.785-.477.813-.477.606-1.078-.051-.145-.156-.36.215-.484.386-.13.332-.278.113-.438-.055-.039-.191-.05-.25-.09-.066-.05.008-.277.008-.305-1.426-1.109-3.938-1.14-6.004-.007-.106-.032-.211-.18-.11-.383.215-.438 2.442-.957 4.02-.98.719-.008.86.074 1.941.378.446.125.696.16.735.098.093-.14-.067-.563-.407-.79-1.156-.765-2.843-.706-5.144.13-1.23.449-1.105.601-.703-1.63.113-.616.238-1.093.238-1.093s10.766.367 12.535 1.047Zm-1.66 2.094c.57.004 1.09.137 1.39.406.446.453-.019.59-.726.344-.898-.313-1.926-.137-2.719.316-.511.29-.62.133-.191-.281.52-.504 1.414-.793 2.246-.785Zm-8.187.765c.992-.003 1.902.16 2.277.547.34.352.012.387-.84.078-1.2-.43-2.8-.296-4.117.305-.68.309-.887.371-.797.02.398-.57 2.027-.942 3.477-.95Zm7.941.293c.945.004 1.746.203 1.598.66-.055.16-.102.063-.778-.128-.675-.192-1.539-.121-2.406.109-.809.215-.965.266-.601-.055.44-.39 1.351-.586 2.187-.586Zm1.922.442c.957 1.355 1.125 3.344 2.14 4.422 1.887-.32 2.778 1.312 1.188 2.394-.805.41-1.789.098-2.512-.988-.687-1.04-.875-1.664-.894-2.324.062-1.38-.02-2.117.078-3.504Zm-11.035.61.418.046c.3.941.98 1 1.39.012l.313.047c-.48 1.214-1.684 1.261-2.121-.106Zm-.645.015c.172-.008.317.16.395.383.16.503-.024.437-.403.226-.379-.215-.675-.355-.453-.441.164-.082.293-.137.461-.168Zm3.586.328c.14.164.176.289-.012.406-.18.09-.316.145-.492.203-.168.047-.27.008-.199-.215.043-.191.176-.46.273-.57.165-.027.34.082.43.176Zm5.063-.11.328.02c.347.863 1.156.84 1.472.094l.297-.004c-.562 1.336-1.699 1.094-2.097-.11Zm-.598.114c.316 0 .625.418.45.633-.177.132-.958-.02-1.028-.286-.027-.16.262-.347.578-.347Zm3.063.082c.152.035.14.14.144.16.082.352-.379.473-.48.34-.059-.074.183-.356.335-.5Zm-7.293 3.773c-.774.196-1.137.813-1.09 1.496.039.555.351 1.008.812 1.106.926.195 1.563-.399 2.508-.637.41-.098.316-.582.055-.793-.336-.27-.852-.101-1.543.383-1.356.953-1.68-.879-.446-1.203.192-.05.106-.457-.296-.352ZM19.383 77.277l.527.141-.527.574s.004-.496 0-.715Zm1.465 1.965-1.086 1.117 1.476-.097-1.004.953 1.536.058-1.13 1.07 1.508-.027-1.117 1.036 1.422.039-.941.945 1.566-.11-1.144 1.133 1.68-.023-1.274 1.055 1.672-.012-.504.527.445.207c.457-.195 3.082-.941 3.172-1.508-.582-.14-2.29.653-2.402.52-.68-2.773-3.621-8.91-5.567-10.7L19 92.77c-.047.043-.102.054-.152.078-.293.129-.672.054-.926.148-.988-.047-2.64 1.465-1.777 1.766.449.093 2.94.488 2.949.601.3 5.024-.203 10.075.02 15.438.695.094 2.976.219 2.976.219s-8.375 8.007-8.54 7.847c.208-8.597.13-25.398-.034-25.46.004-.505.195-1.563.195-1.563l-.106-53.45s-.046-.242-.148-.394c-.172-.258-.184-.328-.195-1.129-.063-.492.011-.621.011-.621l5.715 5.559.047 15.527s5.344 7.363 6.582 10.758c2.727 5.054 2.422 12.414 4.074 15.234.036 0 .067 0 .102-.004.039.41.043.578.11.64.12.919.253 2.177.253 2.177l-.597.87.668.79v2.097l-.895.832.816.95-.23 1.96-.637.52.36.45s.058.703-.086 1.511c-.098.55-.688.477-1.91-.098-1.735-.609-3.512-1.691-4.88-2.507.083-1.02 1.462-3.348-.449-5.914-.707-.489-2.761-.313-2.941-.383l.027-7.903m0-.914.926-.148-.937.86Zm44.149-39.39c-.078.008-.172.074-.293.199-.13.133-.332.094-.856.066-.554-.03-.699-.02-1.066.102-.418.14-.426.14-.719.027-.453-.18-.734-.199-1.152-.09-.512.133-.836.094-1.153-.046-.316-.149-.417-.118-.53.148a5.689 5.689 0 0 1-.38.691c-.343.48-.257.563.457.36.493-.137 1.395-.223 2.07.031.512.2 1.126.137 1.856-.156.64-.254 1.27-.336 1.883.14.36.278.34.067.25-.504-.105-.64-.176-.988-.367-.968ZM39.27 41c-.66 0-1.2.488-1.2 1.094 0 .61.535 1.101 1.196 1.101.312-.238.476-2.152.004-2.195Zm23.078.035c-.73.227-1.727.531-2.856.227-.883-.25-.672.36.29.437.667.055.62.055.1.5-.44.38.11.352.411.117.355-.277 1.316-.203 1.855.024.239.101.266-.313-.015-.406-.715-.227-.543-.246.234-.477.29-.062.301-.52-.02-.422Zm-23.078.332c.375.133.136 1.403-.004 1.461-.438 0-.797-.328-.793-.734 0-.403.355-.727.797-.727Zm-6.38.04c.31-.098.52.37.52.683 0 .402-.355.73-.793.73-.539-.484-.633-1.02-.012-1.32.09-.031.184-.063.29-.094Zm3.141 1.077-2.554 2.371 2.503 2.336 2.512-2.382Zm30.25.977c.367 0 .66.273.66.61 0 .335-.296.609-.66.609-.367 0-.664-.274-.664-.61 0-.336.297-.61.664-.61Zm-30.273.762c.367 0 .664.273.664.609-.004.336-.297.605-.664.605-.367 0-.66-.269-.66-.605 0-.34.297-.613.66-.61Zm27.148.613 1.824 2.266-2.246 1.843.118-1.148c.496-.082.87-.48.87-.957 0-.414-.28-.77-.679-.91Zm-30.468.09-.028.613 2.305 2.102-2.285 2.175.02.602 2.843-2.777Zm6.515.008-2.82 2.652 2.715 2.734.035-.691L37 47.598l2.18-1.98Zm40.664.476c.574-.004 1.063.172 1.215.516.117.195.18.363.352.433.332.141.789.047.808-.058.04 0-.531-.051-.629-.133-.449-.371-.375-.605.262-.555.207.008.781.016.793.223.125.707-.902 1.227-2.219 1.133-.937-.145-.941.187-1.008.648-.043.149-.187.395-.304.586-.332.547-.442.469-.211.68.226.27.515.605.511.918l-.015 2.883s-1.969-.012-2.652-.47c-.715-1.198-1.2-3.788-.145-5.21.371-.426.91-.629 1.531-1.078.477-.348 1.137-.516 1.711-.516Zm-11.129.309-.07.832c-.5.078-.883.476-.887.957 0 .426.301.789.719.922l-.063.722-1.457-1.925Zm-5.73.554c.215.114.36.32.36.567 0 .285-.2.527-.481.613Zm-30.453.27c-1.008.48-.664 2.348 0 2.195.66 0 1.191-.492 1.195-1.097 0-.606-.535-1.098-1.195-1.098Zm6.597.035c-.66 0-1.195.488-1.199 1.094 0 .605.535 1.101 1.195 1.101.88-.253.383-2.16.004-2.195Zm29.485.313-.106 1.199a.643.643 0 0 1-.39-.582c0-.29.207-.535.496-.617Zm-36.082.02c.441 0 .793.323.793.73 0 .402-.356.73-.793.73-.262.047-.426-1.336 0-1.46Zm6.597.034c.532.04.086 1.285-.004 1.461-.437 0-.793-.328-.793-.734 0-.402.356-.727.797-.727Zm26.79.727-2.641 2.41 2.601 2.64 2.172-2.417Zm-29.981.422-2.531 2.39 2.386 2.27 2.528-2.441Zm-16.613 1.289.922.902-.954.008Zm46.386.144c.368 0 .66.278.66.614 0 .336-.296.605-.66.605-.367 0-.664-.273-.664-.61 0-.335.297-.609.664-.609Zm-29.789.297c.367 0 .664.27.664.606 0 .34-.297.613-.664.61-.367 0-.66-.274-.66-.61 0-.336.297-.61.66-.606Zm3.27.715-2.8 2.648 2.694 2.645.04-.625-2.16-2.004 2.195-2.058Zm-6.57-.004.027.672 2.238 2.043-2.36 2.176.095.586 2.902-2.75Zm30.156.762 2.02 1.851-2.02 2.059v-1.07c.418-.133.715-.496.715-.922 0-.426-.297-.785-.715-.918Zm5.574.101.023.758c-.457.11-.793.485-.793.938-.003.468.36.863.844.953l.016.601-1.598-1.625Zm-46.746.286s.676.66.902.933a1.05 1.05 0 0 0-.289.711c0 .606.535 1.098 1.195 1.098.188.004.368-.04.528-.114.12.168.66.856.66.856l-3.18-.473Zm17.566.46c-.66 0-1.195.489-1.195 1.094 0 .606.535 1.102 1.191 1.102 1.204-.223.97-2.14.004-2.195Zm-6.656.032c-.66 0-1.195.492-1.195 1.097-.004.606.531 1.098 1.191 1.098.66.004 1.195-.488 1.195-1.094.004-.609-.53-1.097-1.19-1.101Zm35.867.316.035 1.219c-.28-.086-.484-.332-.484-.617a.657.657 0 0 1 .45-.602Zm-29.21.02c.773.258.534 1.508 0 1.46-.442 0-.798-.327-.798-.734 0-.402.36-.726.797-.726Zm-6.657.031c.438.004.793.328.793.73 0 .407-.355.735-.793.73-.441 0-.797-.327-.797-.73 0-.402.36-.73.797-.73Zm30.262.11c.215.109.363.32.36.562a.641.641 0 0 1-.36.566Zm-40.016.261.926 1.102a.89.89 0 0 1-.273.043c-.438 0-.797-.329-.797-.73a.709.709 0 0 1 .144-.415Zm43.028.55-2.188 2.411 2.68 2.191 1.906-2.164Zm-29.848.255-2.684 2.496 1.89 1.808-1.046-.105-1.512-1.422-.035.473.824.867-.879-.027.153.375c2.168.058 4.234.648 6.34 1.03l.129-.257-.782-.184.739-.812-.008-.617-1.278 1.258-.433-.094 1.812-1.711-.12-.524-2.227 2.09-.649-.136 2.266-2.118Zm29.957 1.476c.363 0 .66.274.66.61 0 .336-.297.605-.664.605-.363 0-.664-.273-.66-.61 0-.335.297-.605.664-.605Zm-30.05.278c.366 0 .663.273.66.609 0 .336-.298.61-.66.61-.368 0-.665-.274-.661-.61 0-.336.297-.61.66-.61Zm-15.009.156s-.175 2-.273 2.965l3.46.855.438-3.195Zm-1.508.152.48.016-.062 1.844-.488-.442Zm6.403.817s.347.511.746 1.082a1.038 1.038 0 0 0-.348.77c0 .605.535 1.097 1.196 1.1.12 0 .238-.019.347-.046.156.27.446.7.446.7l-2.97-.806Zm37.144.25 2.328 1.742-1.812 2.047-.121-.88c.41-.136.703-.491.703-.913 0-.508-.422-.922-.957-.969Zm-40.289-.02c.367 0 .66.274.66.61 0 .335-.296.609-.66.609-.367-.004-.664-.277-.664-.613 0-.336.297-.606.664-.606Zm46.555.246c-.586 0-1.063.434-1.066.973 0 .539.476.976 1.062.976.23.157.297-1.671.004-1.949Zm-.004.328c.063.29.14 1.364 0 1.297-.39-.004-.707-.293-.707-.652 0-.36.32-.645.707-.645ZM26.727 58c.265.383.539.797.77 1.168a.444.444 0 0 1-.145.012c-.442 0-.797-.328-.797-.73 0-.173.066-.329.172-.45Zm36.363.21c.316.06.555.321.555.63 0 .254-.16.476-.391.582Zm3.152.575-1.972 2.422 2.984 2.145 1.695-2.653Zm-44.922.934 2.223.597-.422 2.094c-.035-.12-.16-.344-.328-.605.098-.16.152-.34.152-.535.004-.606-.53-1.098-1.191-1.098-.031 0-.063.004-.094.004l-.34-.461Zm3.297.511-.73 3.336 3.343 1.243.82-3.528Zm42.004.075c.367 0 .66.273.66.61 0 .335-.297.608-.664.608-.363 0-.66-.273-.66-.609 0-.336.297-.61.664-.61Zm-44.68.254c.348.078.606.367.606.71 0 .047-.008.09-.016.133a52.613 52.613 0 0 0-.59-.843Zm47.52.148-1.797 3.105 3.047 1.961-.207-.664-2.184-1.472 1.274-2.137Zm-43.363 1.074c.367 0 .664.274.664.61-.004.336-.297.605-.664.605-.368 0-.66-.27-.66-.61 0-.335.296-.609.66-.605Zm3.16.313.71 1.14c-.292.2-.484.516-.484.88-.004.605.532 1.097 1.192 1.097.101 0 .195-.012.285-.031l.516 1.004-3.106-1.254Zm40.894.058c-.277-.058-.547.102-.738.274a.934.934 0 0 0-.324.699c0 .54.472.973 1.058.977.801-.18.375-1.872.004-1.95Zm-6.43.262 2.524 1.66-1.48 2.614s-.145-.528-.332-1.239c.359-.156.609-.488.609-.879 0-.539-.473-.972-1.059-.976h-.011a22.792 22.792 0 0 1-.25-1.18Zm6.43.063c.438.125.29 1.257-.004 1.296-.382.055-.703-.289-.703-.648 0-.36.317-.648.707-.648Zm-40.007 1.097.644 1.262c-.039.008-.074.008-.113.008-.438 0-.793-.328-.793-.73a.7.7 0 0 1 .262-.54Zm33.906.352c.36.031.636.308.636.644a.635.635 0 0 1-.34.551c-.097-.375-.199-.789-.296-1.195Zm3.332.336-1.735 3.14 3.196 1.793 1.472-3.035Zm-42.801.55 1.969.829-.559 1.867-.238-.457c.113-.172.183-.371.183-.586.004-.567-.464-1.031-1.062-1.094Zm3.11.891-.973 3.14 3.07 1.473 1.406-3.16Zm-2.587.11a.727.727 0 0 1 .434.652c0 .05-.008.097-.02.144Zm42.844.308c.367 0 .664.274.664.61 0 .335-.3.609-.668.609-.363-.004-.66-.274-.66-.61 0-.335.297-.609.664-.609Zm2.918.176-1.472 3.285 3.363 1.711-.25-.598-2.488-1.324 1.07-2.379Zm-41.945 1.047c.367 0 .66.273.66.61 0 .335-.297.605-.66.605-.367 0-.664-.274-.664-.61.004-.336.297-.605.664-.605Zm43 .539c-.586-.004-1.063.433-1.063.972 0 .536.473.993 1.059.973 1.062-.02.523-1.953.004-1.945Zm-39.711.058c.203.336.352.688.492 1.047a1.07 1.07 0 0 0-.527.907c0 .582.496 1.062 1.12 1.097.024 0 .138.016.138.016l.187.664-2.64-1.277c.37-.915.69-1.547 1.23-2.454Zm39.71.266c.31.121.391 1.262-.003 1.297-.387 0-.703-.293-.703-.649 0-.359.316-.648.707-.648Zm-6.515.371L68 69.95l-1.305 2.582-.386-1.183a.95.95 0 0 0 .464-.805c.004-.535-.464-.969-1.043-.977Zm-32.562.774.41 1.265c-.422-.02-.68-.332-.68-.722 0-.215.106-.41.27-.543Zm32.996.554c.328.051.582.317.582.637a.632.632 0 0 1-.223.469Zm-38.758.035 2.008 1.082-.91 2.153-.262-.778c.18-.191.289-.441.289-.714.004-.512-.379-.942-.895-1.063Zm41.938.094-1.223 2.996 3.52 1.707.882-3.066Zm-41.551 1.05c.207.134.34.353.34.599 0 .09-.02.171-.051.25Zm2.633.153-1.434 3.04 2.973 1.804 1.55-3.172Zm40.02.543c.366 0 .66.274.66.61 0 .336-.298.605-.665.605-.363 0-.66-.273-.66-.61 0-.335.297-.605.664-.605Zm3.48 1.34a1.008 1.008 0 0 0-.473.86c0 .539.473.98 1.058.976.133 0 .25-.012.352-.035.309-.375-.125-1.817-.937-1.8Zm-42.614-.137c.367 0 .66.27.66.606 0 .34-.296.613-.664.61-.363 0-.66-.274-.66-.61 0-.336.297-.606.664-.606Zm43.36 1.618a.346.346 0 0 1-.16.027c-.387-.016-.704-.29-.704-.649 0-.203.102-.382.262-.503.61-.418.7 1.21.602 1.125Zm-39.45.468c.122.5.254.977.387 1.418-.055.008-.11.016-.168.016-.437 0-.793-.328-.793-.73 0-.333.242-.614.574-.704Zm36.918.403-.925 3.37 3.523 1.188.68-3.191Zm-42.972-.004 1.87 1.187s-.605 1.34-1.116 2.055l-.145-.621c.309-.2.512-.528.512-.899 0-.539-.418-.984-.973-1.082Zm39.554.207c.391 0 .704.289.704.648-.004.235-.079.332-.282.446-.156-.32-.367-.637-.558-1.07.058-.013.074-.024.136-.024Zm-39.308.844a.733.733 0 0 1 .476.671c0 .188-.078.36-.21.493Zm2.808.496-1.703 2.707 2.489 1.754 1.949-2.707Zm41.102.14c.367 0 .66.274.66.614 0 .335-.297.605-.66.605-.367 0-.664-.273-.664-.61 0-.335.297-.609.664-.609Zm3.047.848.433.617a.898.898 0 0 0-.218.586c0 .535.476.973 1.062.973.078 0 .156-.004.23-.02l.348.492-2.21-.726Zm-43.645.672c.368 0 .66.27.66.605 0 .336-.296.61-.66.61-.367 0-.664-.274-.664-.61 0-.336.297-.61.664-.605Zm44.29.246.652.933h-.02c-.617-.011-.879-.48-.633-.933Zm-41.114-.008-2.406 2.93 3.183 2.176-.046-.649-2.329-1.535 1.774-2.168Zm35.117 1.035 3.172.918-.683 2.895-.746-1.145a.932.932 0 0 0 .332-.707c0-.535-.47-.972-1.055-.972-.121 0-.235.019-.34.05Zm-34.586.461c-.601.055-1.074.52-1.074 1.09 0 .605.535 1.098 1.195 1.098.301.035.348-.391 0-.368-.44 0-.796-.328-.796-.73 0-.387.332-.703.746-.727l-.059-.363h-.012Zm38.899.36-.559 3.347 3.598.707.27-3.035Zm-44.969.027 1.7 1.152-1.294 1.656-.07-.476a1.07 1.07 0 0 0 .512-.899c0-.476-.328-.875-.79-1.03Zm41.676.465c.387 0 .703.293.7.648 0 .16-.063.305-.165.418l-.684-1.05a.91.91 0 0 1 .149-.016Zm-11.406.425c.074.028.293.043.257.106-.027.055-.601.633-.601.633l.062.543 1.024-1.063.41.14-1.438 1.337-.066.5 1.91-1.723.817.207-2.223 2.008 2.555 2.387 2.562-2.395-1.816-1.832.902.082c.375.395.793 1.028 1.492 1.367l-.07-.476c-.035.023-.844-.703-.715-.82l.715.05s1.031-.277-.262-.277c-1.699-.004-3.531-.535-4.992-.938-.16-.043-.41-.164-.531-.168-.297.274-.664.215.008.332Zm-30.145-.042a.697.697 0 0 1 .32.585.673.673 0 0 1-.172.454Zm46.156.636c.368 0 .66.274.66.61 0 .336-.296.609-.66.605-.367 0-.664-.27-.664-.605.004-.336.297-.61.664-.61Zm-43.515.008-2.07 2.41 2.34 2.07 2.398-2.582Zm46.422.672.168.027.003 1.649-.265-.051Zm-16.137.746c.363 0 .66.273.66.61 0 .335-.297.609-.664.609-.363 0-.664-.274-.664-.61.004-.336.3-.609.668-.609Zm-29.969.137c.367.004.664.277.66.613 0 .336-.297.606-.66.606-.367 0-.664-.274-.66-.61 0-.336.297-.61.66-.61Zm3.191.484-2.675 2.922 2.863 2.723-.004-.606-2.226-2.148 2.09-2.235Zm29.864.305-2.754 2.547 2.738 2.613.067-.586-2.114-1.965 1.985-1.875Zm-6.043.258.004.691 1.718 1.613-1.765 1.657.012.703 2.503-2.371Zm14.078.32 3.238.566-.203 2.809-.777-.863a.928.928 0 0 0 .21-.586c.005-.54-.472-.973-1.054-.973a1.17 1.17 0 0 0-.469.098Zm-43.629.45 1.594 1.542-1.528 1.582-.011-.539c.425-.168.722-.555.722-1.008.004-.468-.316-.867-.765-1.023Zm5.918.394c-.531.113-.93.547-.93 1.07 0 .52.395.957.926 1.07v-.382c-.305-.102-.527-.372-.527-.688 0-.316.222-.586.531-.688Zm23.457.132c-.492.297-.277 1.973-.004 1.946.586.004 1.059-.434 1.059-.973 0-.535-.473-.972-1.055-.972Zm6.27.165c-.586 0-1.063.437-1.063.972 0 .54.473.977 1.059.977.465-.14.277-1.852.004-1.95Zm9.394.136c.39 0 .707.29.707.649 0 .117-.039.226-.098.32l-.835-.934a.724.724 0 0 1 .226-.035Zm-15.664.024c.387 0 .7.293.7.648 0 .36-.313.649-.704.649.035-.23-.129-1.325.004-1.297Zm-29.355.113c.218.133.359.355.359.613 0 .242-.129.461-.332.594Zm35.62.055c.09.261.2 1.34 0 1.297-.39-.004-.702-.293-.702-.653 0-.355.316-.644.703-.644Zm-3.202.941-2.586 2.356 2.632 2.476 2.493-2.441Zm-29.762.09L30.945 90l2.22 2.656 2.612-2.386Zm-12.524.066c.711.004 1.375.118 1.645.551 1.086 1.34.77 4.09.016 5.031-1.696 1.41-2.653 1.786-4.563 1.457.219-.793-.695-1.218-.828-1.043-.016 0-.09.141-.004.149.66.074.605.797.527.8-.726-.023-1.199-.011-1.273-.308-.047-.184.074-.469.496-.785.5-.367 2.79-.356 2.79-.356.01.004-.005-.597.226-.941.203-.305.484-.64.293-.781-.332-.14-.555-.48-.602-.875-.086-.824.055-2.805.023-2.828.387-.032.829-.07 1.254-.07Zm42.278 1.582c.367 0 .664.274.664.61-.004.336-.301.61-.668.605-.363 0-.66-.27-.66-.605 0-.336.297-.61.664-.61Zm-29.739.204c.364 0 .66.269.66.605 0 .336-.296.61-.663.61-.368 0-.665-.274-.665-.61 0-.336.301-.61.668-.606Zm32.891.609-2.7 2.523 2.872 2.739-.09-.743-2.066-1.96 2.027-1.938Zm-6.09.043-.074.7 1.906 1.843-1.738 1.637-.027.793 2.554-2.47Zm-29.527.918 1.523 1.965-1.816 1.46L30.3 94c.527-.113.918-.547.922-1.066 0-.461-.309-.856-.743-1.016Zm5.707.394c-.035.407-.059.735-.082 1.035-.496.133-.856.555-.86 1.051 0 .442.286.825.696 1-.035.313-.078.66-.14 1.098l-1.817-2.453Zm43.101.164.063 6.875 5.398 5.176.032 19.293-22.32.098-5.727-8.961c-.125-.168-.281-.113-.406-.281l1.714-8.352c2.68 1.137 4.938-1.793 3.477-4.172 8.266-2.762 17.77-9.676 17.77-9.676Zm-13.175.024c-.586 0-1.063.433-1.063.969 0 .539.473.976 1.059.976.586.004.363-.332.363-.867 0-.54.223-1.078-.36-1.078Zm-6.172.05c-.293.305-.465 1.962-.004 1.946.586-.016 1.062-.434 1.062-.973 0-.539-.472-.972-1.058-.972Zm6.168.274c.39 0 .215.352.21.711 0 .355.18.586-.21.586s-.703-.293-.703-.652c0-.356.316-.645.703-.645Zm-6.168.05c.39 0 .703.29.703.65 0 .355-.316.648-.703.644.039-.106-.176-1.25 0-1.293Zm-29.563.224a.713.713 0 0 1 .375.62c0 .301-.199.563-.488.672Zm5.696.656c-.036.469-.059.851-.094 1.238a.705.705 0 0 1-.332-.59c0-.281.172-.523.426-.648Zm26.836.258-2.52 2.308 2.617 2.504 2.492-2.418Zm-29.918.566-2.637 1.937 1.691 2.391.59.328 2.414-1.894Zm-10.575.144 6.196 3.051s-1.61.617-1.567 1.602c.063 1.105.782 2.008 2.211 1.672.328-.043.477.082.793.758.602 1.3 1.195 2.726.965 2.68-.762-.56-.648-.59-1.543-.958-1.668-.426-2.687 1-2.16 2.156.488 1.067 1.308 1.13 2.129 1.02.12.027.222.148.3.285.262.488.657 1.352.962 2.68.472 2.047.578 4.613.23 5.258-.484.89-1.148 2.097-1.148 2.097-1.29-2.27-4.106-4.258-7.274-3.558-.105.062-.129.382.016.57 1.027 1.238 1.199 2.375 1.562 3.59.938 3.125 2.832 4.91 2.809 4.594l-.996 1.652s-8.61.031-12.133-.012l.004-3.804 9.242-8.676-3.656-.145.148-14.976c1.336-.254 2.91-1.535 2.91-1.535ZM63.02 94.95c.363 0 .66.27.66.61 0 .336-.297.609-.664.609-.364-.004-.664-.277-.66-.613 0-.336.296-.606.664-.606Zm-30.247.578c.368 0 .664.274.664.61 0 .336-.296.61-.664.61-.367 0-.66-.274-.66-.61 0-.34.297-.61.66-.61Zm27.282.59.066.602 1.813 1.75-1.684 1.566c-.246.309-.871.242-1.07.262 0 .02.043.226.191.289.156.062.344.05.418.09a.88.88 0 0 0 .29.105l2.444-2.289Zm.027 1.36c-.441.125-.363 1.847-.004 1.945.586.004 1.063-.434 1.063-.973 0-.535-.473-.972-1.059-.972Zm6.223.27c.043.16.105 1.28-.004 1.296-.387 0-.703-.29-.703-.648 0-.36.316-.649.707-.649Zm-6.223.054c.39 0 .703.293.703.648 0 .36-.316.649-.707.649-.094-.149-.25-1.274.004-1.297Zm-21.816.285c-.106.039-.25.016-.368.016-.367 0-.824-.239-.921-.196-.118.047-.079.27-.075.371.016.09.293.121.41.192.184.113.133.152-.078.195-.183.04-.336.05-.457.207-.07.098-.078.266.047.262.735-.008 1.668-.285 2.547-.012.5.164.828.27.91.203.164-.129-.422-.648-.984-.746-.567-.098-.77-.058-.586-.21.094-.083.223-.052.23-.11a.32.32 0 0 0-.254-.352c-.167-.023-.296.137-.421.18Zm3.156 1.629c-.059 0-.145.039-.262.12-.336.208-.86.481-2.12.161-.696-.21-1.477-.031-1.93.086-.356.094-.864.18-1.27.008-.395-.172-.828-.442-.75-.164.02.066.043.469.05.707.012.562.051 1.027.493.59.191-.192.422-.192.851-.035.309.113.524.187.762.042.34-.199.629-.25 1.254-.054.293.09.605.097.98-.114.622-.347 1.016-.007 1.254.352.188.285.282-.121.633-.965.18-.402.235-.738.055-.734Zm-2.98 3.133c-.34.175-.813.226-1.157.437-.726.457-.047.84.461.746a2.29 2.29 0 0 0 .707-.297c.91-.554 1.414-.472 1.5.2.09.726-1.125 1.05-1.012 1.386.153.223.743-.078 1.11-.535 1.086-1.347-.106-2.715-1.61-1.937Zm4.703 3.812c-1.235.13-3.09.672-4.024 1.317-.734.523-.934.652-.625.863.285.191.504.2.113.562-.14.133-.375.403-.375.457.004.262 1.743 1.043 2.739 1.168.773.094 2.015-.011 2.687-.257.887-.329.914-.551.078-.329-.652.176-1.437.309-2.215.254-.699-.047-1.382-.242-1.812-.386-1.07-.352-.883-.758.195-.41 1.242.496 2.856.488 4.285-.102.579-.238.739-.426.844-.344.028.02.086.149.102.188.035.086.039-.223.09-.715.043-.41.086-.957.086-.957s-.086.23-.086.34c.011.714-.368.718-1.434.168-1.254-.633-1.863-.575-3.055-.567-.523 0-.547-.137.188-.36.351-.105.89-.277 1.687-.51.664-.192.844-.411.532-.38Zm-9.461 1.43c.457.004.859.355.976 1.047l-.453-.032c-.148-1.027-.96-.796-1.277-.183l-.399.008c.313-.563.754-.84 1.153-.84Zm1.156.066c.183-.015 1.039.367 1.09.485.058.129-.27.265-.555.343-.328.086-.262.102-.363-.078-.145-.25-.399-.738-.172-.75Zm-2.184.047c.008.11-.25.516-.437.567-.223.062-.399-.207-.215-.348.164-.078.621-.375.652-.219Zm8.797.067c.574-.024 1.11.511 1.152 1.14l-.289-.004c-.27-1.312-1.367-1.02-1.613-.082l-.344-.09c.286-.68.7-.953 1.094-.964Zm-1.129.09c.156-.008.137.109-.054.456-.09.164-.153.258-.31.254-.21-.03-.355-.093-.46-.25-.074-.152.098-.27.465-.379.168-.046.285-.078.36-.082Zm2.414.1c.102 0 .285.06.575.177.734.3.824.425.437.593a4.659 4.659 0 0 1-.43.168c-.343.106-.336-.074-.425-.293-.055-.125-.118-.238-.184-.37-.094-.184-.098-.274.027-.274Zm-10.816 1.099c.121 0 .387.148.922.328.77.25 1.543.16 2.562-.137.418-.125.563-.2.399.023-.133.176-.848.5-1.434.633-1.094.25-2.539-.226-2.539-.742.008-.074.035-.105.09-.105Zm3.621.855c.11 0 .004.152-.23.39-.36.372-.91.622-1.47.716-1.179.187-2.152-.11-2.16-.715-.007-.438.075-.442.657-.164.492.234 1.601.293 2.496.027.293-.07.594-.234.644-.246.028-.008.047-.008.063-.008Zm9.05.598a46.29 46.29 0 0 1-2.71.582c-.93.168-2.281.011-2.988-.309-.524-.238-.708-.097-.477.36.148.3.375.617 1.043.832.977.312 3.258-.192 4.953-.993.988-.402.797-.648.18-.472Zm-14.722 6.152 1.527-2.379c10.325 1.848 21.5.528 24.922.098 0 0 3.727 5.68 5.067 7.676.125.21.472.93.472.93l-35.265-.067c.496-.914.968-2.094.968-2.094-1.078-.398-1.914-1.875-2.43-3.125-.448-1.098-1.234-3.773-2.265-5.078 1.813-.941 6.36 1.172 7.004 4.04Zm0 0" style="stroke:none;fill-rule:nonzero;fill:#131f67;fill-opacity:1"/><path d="m61.559 123.219-34.926-.04 4.562-8.35c8.489 1.19 16.86 1.054 25.133-.141l5.23 8.535Zm-47.72-6.719-.097-4.035 4.535.015Zm37.985-26.434-.035-13.011 6.387 3.87-.25 13.212ZM36.543 86.98c.234-4.656-.969-9-1.898-13.402l6.625-3.988.34 14.691ZM19.137 74.727l.203-16.778c5.941 7.875 9.55 15.715 10.57 26.504-1.617.598-3.2 1.258-4.86 1.79-1.905-4.036-3.827-7.942-5.913-11.516Zm60.312 7.296c-5.492-6.425-8.8-15.238-10.515-25.78L73.973 54c1.664 3.723 3.285 7.512 5.394 10.605ZM57.742 70.56l-.515-14.082 5.046-2.809c.262 4.832 1.086 9.363 2.07 13.172ZM46.79 63.03l-5.437-2.918.324-12.73 4.972 3.59Zm34.016-35.265c.39-1.332 3.015-3.032 4.14-3.946l-.05 3.77s-3.891.246-4.09.176Zm-38.133-2.082-5.633-8.86 35.383-.23-4.559 8.906c-9.367-1.586-17.386-.883-25.191.184Zm0 0" style="stroke:none;fill-rule:nonzero;fill:#d40000;fill-opacity:1"/><path d="M58.773 105.316c.082.024 1.176-.656 1.747-1.656.613-1.105.058-2.195.242-2.2 1.129.313.8 2.29.406 2.903-.332.532-.973.89-1.629.992-.652.102-.766-.039-.766-.039Zm1.848-4.32c-.23 0-.328-.035-.476-.176-.208-.199-.458-.332-.59-.316-.18.023-.262-.008-.262-.094 0-.07.078-.082.371-.058.18.015.559-.247.559-.247l.027-18.695c1.602.613 3.992.969 5.828 1.168l.098 16.664s2.699-1.293 3.68-1.808l.054-14.918 1.91-.188-3.007-5.637c-.422.301-6.36-.214-7.84-1.105l5.422-3.098a84.655 84.655 0 0 1-1.504-4.578c-.016-.047-.114-.043-.13-.09-.109-.382-.19-.554-.292-.937-.02-.07.011-.188-.012-.258-1.16-3.695-1.95-8.59-2.105-12.973.02-.039.191-.004.191-.004l-.031-2.675-.192.117.02-1.211.195-.18c.004-.234.024-.676.024-.676l-.25-.144.132-2.031.258-.032.145-3.214-6.864 4.07s-4.472-2.95-6.425-4.48c2.156-1.34 2.73-3.965 3.265-6.141.551-2.156.73-3.934.89-5.739.173-1.984.536-4.527.825-5.777.172-.758.168-.84-.078-.855-.082-.004.004-.028.195-.055 4.399-.156 9.118.453 13.313.957 0 0 1.039-1.773 1.398-2.43 0 0 .211.602.434 1.02.512.887 1.672 1.828 2.668 2.336.37.226 1.437.558 2.16.668.426.066 1.11-.055 1.617-.242.172-.067.309-.149.309-.235.004-.082-.133-.168-.309-.324a2.32 2.32 0 0 1-.445-.563c-.305-.566-.766-1.523-1.027-2.414-.727-1.777-1.266-3.918-2.946-4.863l1.164-2.133-36.5-.035 5.637 8.75s.172.258.227.352c.168.277.234.238.234.238a83.223 83.223 0 0 1-1.594 9.02s-.074-.239-1.148-.223c-3.137.035-4.242 3.242-1.617 4.664.246.133.668.395 1.082.594.117.058 1.62.87 1.62.87l-1.8-.75-.156 19.235s-3.762-1.043-6.239-1.144l.047-16.676-3.465 1.715-.18 14.91-1.894.11s.715 1.406.875 1.698c.32.594 1.125 1.907 1.672 2.739.195.293.652.949.652.949 2.528.066 5.114.418 7.461 1.379l-5.445 3.246c2.266 5.883 5.086 14.496 3.488 28.387l.38-.223.109-1.496 6.777-4.273 8.344 6.19s-.606-.015-.742-.023c-2.133-.07-3.633 1.93-4.153 3.602-.91 2.945-1.031 3.672-1.453 8.344-.168 1.847-.57 3.629-.977 5.39-.218.883-.183.973-.183.973 4.246.129 8.683-.277 12.016-.95 0 0 1.41-6.124 1.917-8.726.473.25.891.36 1.317.352 3.297-.324 3.02-4.477 1.324-4.594ZM46.074 16.97l1.719 5.57-4.23.352-3.504-5.883Zm26.004-.047-4.36 8.469c-9.12-1.188-14.386-1.305-24.976.058l-5.492-8.457 1.45-.008 4.14 6.75 6.164-.554-1.695-6.176 1.629-.047 1.675 6.063 9.543-.036.914-6 1.762.02-1.184 6.133 5.637.656 3.266-6.852Zm-12.234.062-.563 5.153-7.89.047-1.258-5.215Zm9.562-.086-2.687 6.114-3.906-.485 1.074-5.55Zm4.805 6c.172.52.348 1.032.387 1.137.636 1.586.898 2.113 1.312 2.64.07.087.09.075-.012.15-1.918.859-5.378-1.262-6.21-3.204.105-.187.57-.976.57-.976.238.433.058.863.215 1.253.039.165.437-1.125.437-1.125s.383.575.426 1.676c.008.168.5-.738.5-.738.617.762.578 2.086.578 2.086.7-.774.266-1.219 1.336.758.125-.203.066-.422.227-.364.472.168 1.136.473 1.375.41-.313-.363-.922-.554-1.09-1.035 0 0 .484.04.515.016-.547-.273-1.074-.512-1.488-1.039.125-.043.621.035.598-.012-.742-.617-1.856-1.117-.242-.976-1.047-.68-2.215-1.149-.395-1.094-1.297-.566-1.648-.914-1.406-1.012.136-.05.523.164 1.144-.02-1.043-.39-1.472-.57-1.515-.699-.051-.156.445-.242.789-.578 0 0-.422.086-.606-.093 0 0 .203-.54.364-.852 1.328 1.11 1.847 2.68 2.19 3.691Zm11.195-2.14s-5.879 5.808-8.789 8.687l2.84.043.11 15.742c.988.122 2.703.004 3.351.61.406.55-1.156 1.625-2.035 1.398-.586-.144-1.313-.031-1.313-.031l.035 17.54c-1.87-3.2-3.3-5.224-5.367-10.778.602-.387 1.219-.68 1.325-.746-.797-1.77-1.344-4.547-.227-6.97l.766.423c-.563 1.476-.774 3.664.144 5.683l.211-.203s-.227-.402-.375-.847c-.129-.399-.316-.91-.316-1.442-.036-.937-.004-1.746.238-2.5.082-.242.203-.61.266-.722.062-.114.12-.22.12-.25-2.257-.844-3.874-2.075-5.82-2.958-.074-.03-.136-.062-.187-.085-.246-.13-.18-.172.207-.313.812-.297 1.144-.656 1.129-1.379-.024-1.031-.625-1.433-1.938-1.367-.476.023-.508.016-.59-.133-.199-.351-.882-1.742-.882-1.797-.004-.035-.145-.347-.317-.699-.27-.555-.582-1.133-.707-1.715-.062-.289-.246-.402-.293-.105-.351 2.218-.672 3.39-1.297 4.726-.187.395-.328.73-.312.742.058.047 1.101.497 1.594.68 1.906.723 2.773 1.172 2.476 1.278-.203.074-.277.203-.332.578-.137.976-.125 1.476.055 1.785.187.324.18.347-.125.531-.266.16-.207.16-.281.977-.086.968-.032 1.586-.032 1.586l.477.558-.485.55-.113 2.54.653.457-.614.55.215 2.317s-.082.215-.187.32c1.02 9.79 5 19.657 10.968 26.387l.04 16.082 5.851 5.395Zm-.457 1.035-.004 1.27-4.984 4.917 4.977.086v1.075l-7.641-.024Zm-.082 2.152.008 3.547h-3.719Zm-34.133 1.746.774-.027c-.031.715-.344 4.02-.715 6.91-.422 3.262-1.277 6.074-1.441 6.074l-.747-.418c1.247-3.742 1.583-8.554 2.13-12.539Zm3.52-.097c-.113 2.02-.574 3.43-.719 5.82-.18 2.914-.73 6.543-2.16 9.555-.484 1.011-1.375 1.965-2.621 2.414-2.188.785-4.04-1.707-2.559-3.54 1.172-1.445 3-1.421 3.551.044.457 1.21-1.02 2.726-2.191 2.254-.82-.328-.61-1.684.308-2 .383-.13.703.312.516.71-.149.313-.164.508.035.376.832-.536.207-1.817-.824-1.34-1.375.636-1.145 2.515.238 2.601 1.754.16 3.11-1.82 3.98-5.586.954-4.215.723-7.988 1.637-11.297Zm-2.238.07.918-.027c-.075.312-.086.648-.149 1.031-.367 2.21-.586 5.437-.96 7.965-.532 3.57-1.477 5.738-1.5 5.472-.106-.433-.403-.785-.63-1.125.953-2.375 1.34-4.53 1.586-6.566.29-2.375.371-4.578.735-6.75Zm-3.942.2.809-.04c-.32 4.73-1.082 9.02-1.531 10.863-.137.555-.184.793-.297.84-.13.051-.34-.136-.856-.402.785.105 1.426-8.043 1.875-11.262Zm1.262-.067.879-.078c-.133 1.71-.453 4.398-.809 6.824-.43 2.93-.988 5.527-1.265 5.488l-.73-.234c.487.14 1.706-8.602 1.925-12Zm-1.664.082c-.578 3.578-.64 7.766-1.832 11.11l-.82-.352c.222.066.812-2.176 1.011-4.715.176-2.211.614-4.613.746-5.945Zm-1.356.129c-.328 1.262-.332 3.129-.578 4.683-.304 1.922-.636 5.832-1.12 5.743l-.837-.391c.438.121 1.219-7.285 1.688-9.914Zm-2.21.308.851-.105c-.414 2.894-1.164 9.637-1.602 9.687l-.8-.39c.312-1.184 1.11-5.211 1.55-9.192Zm-.528.114c-.36 3.18-.695 6.398-1.437 8.87l-.871-.362s.609-2.72.898-4.63c.289-1.886.332-2.152.422-2.644.203-1.082.258-1.125.258-1.125Zm37.418 3.304L80.891 45l-.97-.035.06-15.258Zm2.285.121c.367 0 .664.274.66.61 0 .336-.296.61-.66.61-.367 0-.66-.274-.66-.61 0-.336.297-.61.66-.61Zm-15.61 5.586c.684 1.153 1.212 1.575 1.813 1.797 1.09.399 2.594-.578 2.051-1.949-.289-.723-1.015-.832-1.945-.687 0 0-.395-.262-.863-1.57-.555-1.548-1.422-3.137-1.422-3.137-.059 1.937-.559 3.957.367 5.546Zm16.59-4.168c.364 0 .66.274.66.61 0 .336-.296.61-.663.61-.367 0-.66-.274-.66-.61 0-.336.297-.61.664-.61Zm-1.816.024c.364 0 .66.273.66.61 0 .335-.296.609-.664.609-.367 0-.664-.278-.664-.614 0-.336.301-.605.668-.605Zm-14.847-.164c.613 1.172.742 2.055 1.336 3.113.261.465.496.863.496.863 1.945-.84 2.691 1.278 1.113 1.953-1.555.665-3.3-1.867-3.129-4.59.05-.753.184-1.34.184-1.34Zm15.715 1.597c.367.004.66.274.66.61 0 .336-.297.61-.66.61-.368 0-.665-.274-.665-.61.004-.336.297-.61.665-.61Zm1.753 1.149-.004 1.3-3.464 3.079.004-1.258Zm-45.492.945c.66.008.977.188.54.348-1.454.527-2.102 1.371-2.184 2.848-.004.75.093.847-.407.43-1.273-1.645.57-3.638 2.051-3.626Zm1.211.535c.164-.004.32.016.48.059.391.113.247.121-.41.523-1.25.762-1.632 1.508-1.69 3.036-.017.23.034.421.015.52-.02.07-.117.046-.172.042-.242-.035-.387-.266-.457-.465-.79-1.453.68-3.664 2.234-3.715Zm1.356.508a.597.597 0 0 1 .277.051c.309.14.195.16-.367.527-.996.649-1.489 1.606-1.606 2.676-.074.688.5 1.504-.52.828-.714-.547-.57-1.969.192-2.941.469-.602 1.442-1.137 2.024-1.14Zm42.922-.246-.004 1.48-3.461 3.016v-1.515Zm-41.813.723c.395.004.57.234.11.5a3.468 3.468 0 0 0-1.731 3.168c.062.777.094.918-.445.402-.871-.828-.254-3.078 1.437-3.918a1.43 1.43 0 0 1 .629-.152Zm1.148.43c.645-.012.735.288.157.656-1.102.707-1.84 1.949-1.825 3.082.008.523-.039.59-.289.414-1.273-.895.098-4.008 1.82-4.145.048-.004.094-.004.137-.008Zm22.75.124c.157.012.438.528.88 1.606.425 1.039 1.113 2.348 1.257 2.398.047.012.238-.047.43-.14 1.453-.7 2.472 1.289 1.039 2.027-1.016.523-1.977-.043-2.86-1.687-1.042-1.942-1.328-3.38-.82-4.157.02-.03.043-.047.074-.047Zm-21.57.504c.172-.007.344.024.504.102.375.18.32.309-.258.621-.594.32-.828.52-1.172.992-.535.742-.625 1.028-.625 1.98 0 .778-.254.821-.757.13-.868-1.196.882-3.77 2.308-3.825Zm1.445.7c.57-.012.946.203.399.468-1.734.84-2.465 2.047-2.137 3.54.106.464-.472.07-.824-.567-.516-.93.437-2.723 1.734-3.27.27-.113.57-.168.828-.171Zm19.582 1.394c.106.004.235.27.512.926.18.426.422.933.54 1.133.113.195.195.383.175.41-.098.152-.902-.106-1.172-.371-.414-.414-.547-1.336-.265-1.86.085-.156.144-.246.21-.238Zm16.66 1.14c.368 0 .665.274.665.61-.004.336-.297.61-.664.61-.368 0-.66-.274-.66-.61 0-.336.296-.61.66-.61Zm-67.917.903c.363 0 .66.273.66.61 0 .335-.297.605-.664.605-.364 0-.66-.27-.66-.606 0-.34.296-.613.664-.609Zm27.363.215c.723-.024.945.289 1.066 1.3.082.692.243.758 1.43.575 1.25-.191 1.672.121 1.758 1.312.07.946.062.938 1.484.95 1.403.007 1.551.14 1.711 1.46.117.981.078.954 1.457.938 1.528-.02 1.664.086 1.766 1.324.082 1.008.152 1.075 1.117 1 .945-.07 2.688-.074 3.012-.008.812.16.847.133 1.023-.875.23-1.324.516-1.492 2.29-1.324.87.082.972.067 1.097-.64.164-.938.371-1.215.371-.399-.004 2.055-.16 2.153-1.652 1.785-1.121-.277-1.137-.066-1.258.926-.106.875-.266 1.23-.617 1.371-.27.11-1.188.016-1.555-.082-.137-.035-1.008-.054-2.04-.047-2.483.02-2.51.028-2.507-1.578.004-.676-.156-.82-1.457-.785-1.633.043-1.547.082-1.82-1.715-.098-.625-.153-.648-1.5-.633-1.473.016-1.805.036-1.719-1.101.082-1.035-.195-1.309-1.422-1.047-1.309.277-1.555-.234-1.684-1.16-.117-.856-.195-.64-.82-.688-.691-.05-.61-.765.125-.832.125-.011.238-.023.344-.027Zm41.578.36c.363.003.66.273.66.609 0 .336-.297.609-.664.609-.363 0-.66-.273-.66-.61 0-.335.297-.609.664-.609Zm-1.867.034c.367 0 .664.274.664.61 0 .336-.297.605-.664.605-.367 0-.66-.27-.66-.61 0-.335.297-.608.66-.605Zm-66.086.934c.367 0 .664.27.664.605 0 .34-.297.61-.664.61-.367 0-.66-.274-.66-.61 0-.335.297-.609.66-.605Zm-1.86.012c.368 0 .665.27.66.605 0 .34-.296.61-.66.61-.367 0-.66-.274-.66-.61 0-.336.297-.61.66-.605Zm34.606.558 6.879 4.73 6.523-4-.043 1.462-6.472 3.945-8.16-5.82Zm34.266.11c.367 0 .664.277.664.613-.004.336-.297.605-.664.605-.368 0-.66-.273-.66-.609 0-.336.296-.61.66-.61Zm-11.278.785 1.63 2.441-1.63 1.082 1.48 1.746-1.6 1.504 1.753 1.032-1.644 2.101-2.278.926 2.278-2.746-1.883-1.192 1.793-1.765-1.602-1.934 1.66-1.191-1.793-2.707.121-.133Zm-30.183-.574L53.973 52.3s1.117.777 1.433.96c.68.4.817.239 1.496-.187 1.528-.832 5.23-3.14 5.23-3.14l-.03 1.199s-3.723 2.554-5.786 3.613c-.293.149-.605.004-.824-.148-4.488-3.274-9.082-6.45-13.633-9.66Zm27.797.164c.05.086.214.117.293.226.535.762 1.503 2.121 1.503 2.121l-1.703 1.239 1.559 1.882-1.953 1.82 1.992 1.25s-1.242 1.743-2.176 2.536l-.023-1.352.8-.886-.917-.578V50.53l.937-.902-.855-.793.156-2.035.816-.59-.672-.848Zm-54.317.351c.363 0 .664.274.66.61 0 .336-.297.605-.664.605-.363 0-.66-.273-.66-.61 0-.335.297-.605.664-.605Zm69.547 2.301-3.371 2.856.004-1.301 3.371-3.032ZM17.29 45.312l-.004 1.567-3.598 3.043.004-1.512Zm67.625 1.88-.004 1.554-3.367 2.899v-1.54Zm-3.96.238v50.547l3.898 3.804.003 1.258-4.94-4.71-.04-50.86Zm-63.669-.227-.004 1.758-3.597 3.008.004-1.657Zm24.586.352 4.75 3.406-.039 11.852a31.013 31.013 0 0 0-4.926-2.801Zm41.473 3.883c.363 0 .66.273.66.609 0 .336-.297.605-.664.605-.363 0-.664-.27-.664-.605.004-.34.3-.61.668-.61Zm-35.297.539.004 12.093-.938-.789-.035-11.996Zm-32.457.074c.367 0 .66.273.66.61 0 .335-.297.609-.664.609-.363 0-.66-.274-.66-.61 0-.336.297-.61.664-.61Zm68.637.945c.363 0 .66.274.66.61 0 .335-.297.609-.664.609-.368 0-.66-.274-.66-.61 0-.335.296-.609.664-.609Zm-1.887.074c.363 0 .66.274.66.61 0 .336-.297.605-.664.605-.363 0-.66-.273-.66-.61 0-.335.297-.605.664-.605Zm-33.762-.101 2.895 2.496-2.989 2.601-.023-1.203 1.664-1.468-1.668-1.594Zm1.106.222 2.414 1.645-.38.418Zm-33.118.329c.368 0 .66.273.66.609 0 .336-.296.605-.66.605-.367 0-.664-.273-.66-.609 0-.336.297-.605.66-.605Zm-1.937.027c.363 0 .66.273.66.61 0 .335-.297.609-.664.609-.367 0-.66-.274-.66-.61 0-.336.297-.61.664-.61Zm47.512.277c.457 4.84.773 8.188 2.129 12.754l-6.258 3.664.074-14.012Zm17.218 11.094-.05 16.617c-5.891-7.722-9.059-16.75-10.07-25.297 0 0 3.167-1.34 4.706-2.16 1.625 3.512.922 3.508 5.414 10.84Zm4.059-10.363c.367 0 .66.273.66.61 0 .335-.297.608-.66.608-.367-.003-.664-.273-.664-.609 0-.336.297-.61.664-.61Zm-67.809.57c.368 0 .664.273.664.61-.003.335-.296.609-.664.609-.367 0-.66-.274-.66-.61 0-.336.297-.609.66-.609Zm36.899-.012 2.293 1.614.004 1.222-2.742-2.43Zm-.79.645 2.872 2.613-3.016 2.754-2.965-2.586Zm21.626.117-2.77 1.04c1.047 8.82 3.785 15.433 7.48 20.796l.102-12.367c-1.906-2.785-3.351-6.137-4.812-9.469Zm11.636.195v1.387l-3.449 2.902v-1.382Zm-33.265.723-1.832 1.64 1.844 1.641 1.773-1.636Zm-34.442-.223-.003 1.477-3.426 3.031.004-1.566Zm38.528.875.008 14.114-.762.332.074-14.746Zm-4.121.207.832.77-.871.8-.817-.769Zm33.3.188-.003 1.601-3.45 2.954-.054-1.528Zm-38.144 5.953c3.555 2.832 6.281 7.129 9.277 9.531 1.211.969 4.176 2.48 5.778 2.946 1.82.53 3.238.75 5.062.78 1.445.024 1.45.032 1.45.032l.609 1-1.008-.016-.07 3.524c1.066.05 2.117-.004 3.148-.121l.375.644c-7.36.907-14.547-1.664-18.867-4.941-1.973-1.492-3.57-3.317-5.52-5.965-3.746-5.387-10.355-7.996-16.515-8.062l-.512-.73 1.031.03s.106-.675.121-1.824c.016-1.297.008-1.523-.101-1.562-.746-.079-2.996-.04-2.93.046l-.465-.761c7.344-.688 14.57 1.672 19.137 5.449ZM17.27 58.445l-.004 1.45-3.426 2.96.004-1.449Zm37.609.168-.09 1.293-1.633 1.48 1.73 1.551-.038 1.083-3.059-2.614Zm-22.348.434c-.16 0-.254.012-.273.039-.04.062-.02.621-.153 2.629-.05.738-.105.742.567.816.562.02 1.824.317 2.668.41.707.086.558-.113.758-.632.218-.567.34-1.075.609-1.883.25-.746.133-.77-1.46-1.043-1.102-.192-2.247-.336-2.716-.336Zm15.914-.102 2.766 2.54-2.73 2.542-.047-1.23c.527-.43 1.156-.918 1.617-1.402l-1.602-1.508Zm-13.89.805.297.45.714.109-.125.457.364.472-.45.305.016.57-.559-.02-.488.321-.383-.45-.558-.019.031-.636-.363-.282.433-.355-.054-.567.691.11Zm-4.496.762.437.265-.445.282-.024.433-.273.215-1-1.809.652.247.5-.305Zm8.062-.41c-.351.003-.398.601-.781 1.73-.535 1.574-.57 1.43.445 1.762.457.144 1.324.414 1.781.613 1.118.484 1.125.484 1.543-.172.184-.293.54-1.004.786-1.375.613-.926.628-.879-.497-1.379-.664-.297-1.066-.418-2.46-.937-.387-.145-.633-.246-.817-.242Zm1.113 1.046.489.282.55-.207.11.539.597.215-.171.535.265.402-.511.09-.372.738-.562-.363-.598.2-.164-.411-.61-.27.223-.449-.304-.605.699-.047Zm12.282.57 3.05 2.755-2.785 2.562-3.054-2.765Zm31.89.54c.364 0 .66.273.66.61 0 .335-.296.605-.664.605-.363 0-.66-.27-.66-.61 0-.336.297-.605.664-.605Zm-40.054.086c-.18 0-.282.152-.434.441-.066.121-.445.77-.793 1.27-.79 1.129-.79 1.07-.004 1.515.332.188 1.098.77 1.754 1.317.61.508.543.386 1.855-.817.86-.785 1.387-1.007 1.055-1.422a44.024 44.024 0 0 0-2.355-1.718c-.578-.399-.88-.59-1.078-.586Zm8.304.316-1.804 1.621 2.027 1.696 1.687-1.59Zm-30.883-.586V74.77c1.98 3.117 4.012 6.265 5.067 9.773l2.91-1.309c-1.379-10.375-4.605-16.132-7.977-21.16Zm-5.18.79c.368 0 .66.273.66.609 0 .336-.296.609-.663.605-.363 0-.66-.27-.66-.605 0-.336.297-.61.664-.61Zm36.083.722.867.734-.8.797-.876-.836Zm32.539.156c.363 0 .664.274.66.61 0 .335-.297.609-.664.609-.363 0-.66-.273-.66-.61 0-.335.297-.609.664-.609Zm-1.778.063c.364 0 .66.27.66.605 0 .336-.296.61-.663.61-.364 0-.66-.274-.66-.61 0-.336.296-.61.663-.605Zm-38.68-.09.5.344.59-.23.044.636.539.246-.34.45.203.597-.582.015-.453.547-.406-.36-.79.048-.124-.621-.344-.246.265-.41-.191-.547.676-.043Zm-29.14.644c.367 0 .664.274.66.61 0 .336-.297.605-.66.605-.367 0-.66-.273-.66-.61 0-.335.297-.605.66-.605Zm1.906.02c.368 0 .66.273.66.61 0 .34-.296.609-.66.609-.367 0-.664-.274-.664-.61 0-.336.297-.61.664-.61Zm38.325 1.496L53.27 67.23l1.554 1.493-.05 1.14-2.758-2.531 2.808-2.527Zm-15.606-.313-5.93 3.606-.359-.906 5.285-3.168Zm44.07-.242c.368.004.665.278.665.614-.004.336-.297.605-.665.605-.367 0-.66-.273-.66-.61 0-.335.297-.609.66-.609Zm-35.515.325c-.277.02-.555.316-1.09.835-.52.508-1.137 1.106-1.27 1.192-.41.266-.39.328.325 1.07.215.223.625.68.91 1.02.285.336.738.758.828.847.29.278.45.22 1.785-.66 1.625-1.066 1.617-.91.13-2.68-.86-1.019-1.267-1.644-1.618-1.624Zm-32.227.335c.364 0 .66.274.66.61 0 .336-.296.61-.664.61-.363 0-.66-.274-.66-.61 0-.336.297-.61.664-.61Zm34.746.262 1.07 1.059-.097.105Zm34.61.278v1.828l-3.305 2.797.004-1.672Zm-36.934.492.403.508.68-.04-.102.594.359.246-.352.45-.03.57-.56-.121-.46.508-.453-.489-.532.055.016-.594-.543-.281.387-.387.011-.664.793-.027Zm16.317.054.328.926-8.254 4.918-.719-.762Zm-21.586.594.656.453-8.664 5.106-.258-.668Zm-25.313-.226-.004 1.52-3.656 3.23.004-1.57Zm34.27.406.105-.082 2.824 2.5-.535.523Zm-7.817.722.055 14.747-.754-.48.078-13.993Zm.465.34.613.5-.59.528Zm40.594-.074v1.492l-3.3 2.875v-1.562Zm-67.516.637v1.406l-3.656 3.2v-1.419Zm34.028.23c-.098 0-.2.055-.348.164-.137.098-.469.309-.738.47-.996.593-1.836 1.148-1.875 1.23-.078.168.918 1.363 2.3 2.8.543.563.528.672 1.075.172.433-.453 2.027-1.691 1.98-2.023-.086-.38-.633-.813-1.988-2.5-.18-.211-.285-.309-.406-.313Zm-6.133.149 2.168 2.855-.293.266-2.656-2.418Zm-4.242.332-.016 13.758-4.078 2.656c.074.035-.488-8.27-2.04-12.7Zm10.132.496.399.683.601-.093-.078.633.512.367-.504.64.063.453-.59-.125-.543.516-.367-.656-.782.012.11-.625-.54-.422.59-.32.086-.575.512.043Zm3.536.11.066.562-.363-.29Zm-10.418.988-.004-.805 2.593 2.305-2.656 2.28.02-1.081 1.511-1.32Zm21.468-.422.368 1.027-5.34 3.016-1.075-.516Zm17.578 1.718c.368 0 .665.274.665.61 0 .336-.297.61-.665.61-.367 0-.66-.278-.66-.614 0-.336.297-.606.66-.606Zm-33.968 1.938-1.871-1.727.234-.234Zm4.832-1.543c-.633.496-1.992 1.937-1.992 2.172.003.238 1.875 1.73 3.003 2.394.356.207.497.215.633.024 1.953-2.672 2.035-2.582 1.262-3.106-.781-.55-1.7-1.37-2.324-1.656-.262-.117-.309-.043-.582.172Zm-7.028.121 3.09 2.727-2.87 2.539-2.974-2.891Zm-31.558.168c.363 0 .66.273.66.61 0 .335-.297.605-.664.605-.363 0-.66-.274-.66-.61 0-.335.297-.605.664-.605Zm39.05.594.52.426.621-.149.14.563.599.203-.325.574.043.723-.601-.106-.418.594-.61-.57-.703.054.04-.629-.618-.277.395-.414-.246-.57.742.109Zm29.551.289c.368 0 .66.273.66.61 0 .335-.296.605-.66.605-.367 0-.664-.27-.664-.606 0-.34.301-.61.664-.61Zm-38.668 1.39 1.829 1.723 1.683-1.484-1.781-1.735Zm36.844-1.367c.367 0 .66.27.66.606 0 .34-.297.613-.664.61-.363 0-.66-.274-.66-.61 0-.336.297-.61.664-.606Zm-67.691.551c.363 0 .66.273.66.61 0 .335-.297.609-.664.609-.363 0-.66-.274-.66-.61 0-.336.297-.609.664-.609Zm1.937.008c.367 0 .664.273.66.613 0 .336-.296.606-.66.606-.367 0-.664-.274-.66-.61 0-.336.297-.61.66-.61Zm30.649.172.828.793-.77.742-.86-.813Zm11.304.554c-.425.282-1.586 2.297-1.785 2.739 0 .105.559.433 1.254.734.594.254 2.524.969 2.7 1.008.39.086.456-.047.519-.281.035-.121.191-.59.363-1.098.598-1.785.778-1.7-.113-1.973-.305-.093-1.266-.39-1.871-.648-.602-.258-.871-.484-1.067-.48Zm24.688.356c.367 0 .664.27.664.605 0 .336-.297.614-.664.61-.367 0-.66-.274-.66-.61 0-.336.297-.609.66-.605Zm-31.613.797.086 11.96-1.02-.734-.008-12Zm-4.559 2.031-2.816 2.625-.016-1.34 1.574-1.308-1.597-1.54.03-1.035c1.028.77 1.903 1.72 2.825 2.598Zm-31.512-2.332c.367 0 .664.273.664.61-.004.335-.297.609-.664.609-.367-.004-.664-.278-.664-.614 0-.335.301-.605.664-.605Zm43.399.023.566.438.477-.262.273.45.68.085-.305.684.399.527-.664.114-.168.73-.653-.36-.496.196-.36-.617-.769-.028.422-.671-.394-.532.558-.03Zm-8.68.04-.004 1.054-1.226 1.137 1.226 1.23-.008 1.227-2.539-2.383Zm13.047.707c-.258.007-.258.257-.457 1.066-.043.176-.18.644-.3 1.043-.372 1.21-.419 1.234.722 1.445.664.09 3.527.707 3.586.29.074-.716.12-2.395.132-2.966.024-.191-.023-.37-.23-.394-1.309-.145-2.758-.461-3.453-.484Zm-11.16.039c1.625 1.023 3.199 2.066 5.066 3l.031 12.3-5.125-3.52Zm32.652.074-.004 1.508-3.422 2.996v-1.442Zm-20.035.5.297.582.62-.188-.003.696.555.324-.672.281-.059.848-.68-.192-.558.317-.492-.477-.606-.012.223-.753-.39-.344.57-.258.047-.672.605.336Zm-47.371-.168v1.453l-3.727 3.144v-1.273Zm52.031.972.832 1.297-.3.528-.56-.254-.616.207.097-.692-.476-.347.48-.406-.02-.508Zm-22.05.403 2.85 2.719-2.913 2.757-2.852-2.761Zm37.421 1.746-3.426 2.914.004-1.418 3.422-2.977Zm-67.402-1.27-.004 1.418-3.727 3.203v-1.316Zm29.984.543-1.855 1.684 1.836 1.7 1.86-1.653Zm.024.97.793.745-.758.727-.82-.735Zm-3.184 1.03 2.828 2.672-.328.352-2.504-1.793Zm6.074.223.075 1.207-1.547 1.207 1.41 1.363.035 1.25-2.68-2.539Zm32.977 1.262c.367 0 .66.273.66.61 0 .335-.297.608-.664.608-.363 0-.66-.273-.66-.609 0-.336.297-.61.664-.61Zm-67.656.656c.367 0 .66.273.66.61 0 .335-.297.609-.66.609-.368-.004-.664-.278-.664-.614.003-.335.296-.605.664-.605Zm13.55.387-2.093 2.867 1.644 1.016-1.562 1.925 1.62 1.793-1.636 1.285 1.656 2.606c-.66-.121-1.328-.524-1.933-.805l-1.246-2.183L27.12 92.3l-1.457-1.559 1.531-1.66-1.53-.992 1.675-2.36Zm54.895.449c.367 0 .66.273.66.61 0 .335-.297.609-.66.605-.367 0-.664-.27-.664-.606 0-.336.297-.61.664-.61Zm-41.07-.098 14.398 10.227-.062 1.355-14.403-10.199-6.125 3.965.059-1.445Zm39.304.176c.367.004.664.273.66.61 0 .335-.296.609-.66.609-.367 0-.664-.274-.66-.61 0-.336.293-.609.66-.609Zm-33.55 1.266-.149.023-1.574-1.055.344-.355s1.03 1.047 1.379 1.387Zm-32.153-.63c.367 0 .664.278.664.614 0 .336-.3.606-.664.606-.367 0-.664-.274-.66-.61 0-.336.297-.61.66-.61Zm-1.781.009c.363 0 .66.273.66.609 0 .336-.297.605-.664.605-.367 0-.66-.273-.66-.609 0-.336.297-.605.664-.605Zm68.457.882c.363.004.66.278.66.614 0 .336-.297.605-.664.605-.363 0-.66-.273-.66-.61 0-.335.297-.609.664-.609Zm-67.664.594c.367 0 .664.274.66.61 0 .34-.297.609-.66.609-.367 0-.66-.274-.66-.61 0-.335.297-.609.66-.609Zm69.183 1.215-.003 1.344-3.235 2.875v-1.297Zm-43.628.352c.48-.004 1.125.02 1.992.05.742.024 1.562.04 1.82.032 1.027-.024 1.363.296 1.379 1.316.016.91.012.906 1.305.957 1.558.063 1.968.43 1.988 1.781.008.528.469.735 1.375.617 1.43-.187 1.707-.007 1.871 1.215.137 1.02.063.965 1.371.961 1.41-.008 1.723.207 1.738 1.203.008.578.16.754.707.801.582.047.832.32.543.594-.05.047-.32.078-.746.082-.898.012-1.191-.246-1.36-1.192-.112-.656-.187-.69-1.378-.66-1.523.035-1.64-.05-1.805-1.27-.14-1.046-.332-1.155-1.64-.929-.953.164-1.453-.223-1.578-1.207-.137-1.105-.192-1.144-1.54-1.191-1.351-.043-1.73-.262-1.738-1.012-.02-1.156-.176-1.262-1.84-1.215-.808.02-1.632.004-2.109-.039-1.008-.098-1-.102-1.102.785-.152 1.328-.367 1.453-2.277 1.32-.8-.054-.855-.019-.914.54-.066.699-.352 1.129-.566.863-.114-.137-.114-.149.004-1.176.128-1.144.14-1.152 1.765-1.035 1.102.078 1.047.117 1.168-.805.145-1.117.121-1.375 1.567-1.386Zm-23.723-.133v1.472l-3.781 3.22v-1.427Zm11.734 1.746.82 1.031-.269 1.922-.7.48.493.914-.16 1.122-.195.101-1.368-2.45 1.625-1.308-1.66-1.867 1.574-1.945-1.628-1.055 1.96-2.648c.34-.38.36 1.125.36 1.125l-.813 1.129.907.722v1.785Zm1.04-.867.09-2.407-.708-.504.547-.835-.035-2.13-.164-.105c-1.34-15.258-9.453-24.281-10.723-26.328 0 0-.281-.207-.23-.73.023-.227.035-1.575.027-2.989-.039-7.23.035-12.187.035-12.187l-5.969-5.86.032 2.145.293.191-.012 9.75-.25.012s-.082 2.621-.063 4.422l.356.012-.031 6.699-.305.031.012 4.34h.332s.07 4.55-.051 6.766l-.246.011.012 4.313.277.02.008 6.171-.344.047.09 4.074.277.016c.098 2.516.043 6.867.043 6.867l-.32.012.074 4.047.23.011-.078 7.102-.207.023.075 4.192.222.02-.043 3.488-.152.023-.04 1.305.165.344.004 4.648-.125.05-.043 2.333 9.281-8.598-3.414-.098.008-2.78c.008-4.595.078-8.298-.063-12.778-.047-.04-.382-.09-.754-.11-1.757-.097-2.23-.226-2.238-.613-.008-.48.79-1.074 1.45-1.082.152 0 .402-.137.402-.137l-.14-50.945-4.142-3.992.02-1.27 5.102 4.977.12 50.918.192-.082.04-17.102c2.612 3.602 4.077 7.168 5.526 10.735 0 0 .516-.16.54-.172a2.523 2.523 0 0 0-.184-.059c-1.48-4.558-3.356-7.867-5.79-11.316l.06-16.574c6.23 8.113 9.238 15.402 10.476 25.906l-3.16 1.445-.309.38-2.386 1.089-.227-.348-1.45.918c1.114 1.793 1.071 4.367.157 5.73l.39.227c.028.098 1.505-2.789-.136-5.726l1.078-.61c1.55 2.957.824 6.137.09 6.954 0 0 1.125.664 1.933 1.066.88.441 1.66.844 2.711 1.156.653.242 1.063-.043 1.063-.047l.316-1.648-.5-.63.586-.433.27-2.523-.63-.582Zm54.574.738v1.629l-3.239 2.808.004-1.601ZM17.5 92.293l-3.781 3.18v-1.325l3.785-3.253Zm66.063 2.246c.363 0 .664.273.66.61 0 .335-.297.609-.664.605-.364 0-.66-.27-.66-.606 0-.335.296-.609.663-.609Zm-64.56.906-.019 15.008h-.996l.07-15.191Zm-3.335-.14c.367 0 .66.273.66.61 0 .335-.297.605-.66.605-.367 0-.664-.274-.664-.61.004-.336.297-.605.664-.605Zm66.95.66c.366 0 .66.273.66.61 0 .335-.298.609-.66.609-.368 0-.665-.274-.665-.61 0-.336.297-.61.664-.61Zm1.784.027c.364 0 .66.274.66.61 0 .335-.296.609-.664.609-.363 0-.664-.273-.66-.61 0-.335.297-.609.664-.609Zm-67.703.832c.367.004.664.278.664.614 0 .335-.3.605-.664.605-.367 0-.664-.273-.66-.61 0-.335.297-.609.66-.609Zm34.098.063c3.453.394 2.531 3.718 1.078 4.41-1.98.844-3.566-.863-2.297-2.594.93-1.266 2.692-.426 2.008.965-.387.781-1.18.691-1.172-.102.285-.754.023-.484-.2-.218-.698.832.708 1.718 1.434.898.446-.508.54-1.105.387-1.586-.258-.82-1.285-1.3-2.453-.543-1.39 1.531-2.137 3.512-2.55 5.73-.884 4.72-.934 9.688-1.688 10.946l-.817-.02c1.196-5.402 1.207-10.023 2.485-14.285.629-2.11 2.234-3.61 3.785-3.601Zm-35.906-.02c.363 0 .66.274.66.61 0 .335-.297.609-.664.609-.364 0-.66-.273-.66-.61 0-.335.296-.609.664-.609Zm14 .102c-.91.015-1.836.707-1.766 1.59.086 1.074.777 1.554 1.918 1.449.61-.059.59-.067 1 .61.367.605 1.34 3.198 1.344 3.593-.465-.57-1.559-1.633-2.567-1.59-1.082.07-1.996 1.012-1.18 2.348.438.656 1.212.785 1.997.57 1.175 1.688 1.398 3.375 1.77 5.332 0 0 .468-4.191.613-5.86.273-2.562.656-4.222 1.734-6.25-.899-.476-1.86-.855-2.828-1.198-.383-.137-.79-.137-1.168-.368a1.561 1.561 0 0 0-.867-.226Zm54.738.406c.367 0 .664.273.66.61 0 .335-.297.609-.66.609-.367 0-.66-.274-.66-.614 0-.335.297-.605.66-.605ZM30.75 98.656c.68 1.02 1.344 2.489 1.402 3.414.024.614-.109 1.364-.226 2.067-.055.347-.196.008-.453-.742-1.07-3.118-1.352-3.715-2.098-3.563-.426.09-.867.106-1.156-.043-.942-.48-1.028-2.086.351-2.39 1.094-.215 1.793.675 2.18 1.257Zm-.023-.777c1.375.5 2.253 1.254 2 2.473-.11.457-.184.835-.32.789-.153-.059-.368-.61-.79-1.559-.097-.305-1.078-1.695-.89-1.703Zm22.753.082c.075-.008.188.055.344.187 1.082.98.489 3.192-.953 3.825-.598.379-1.691.312-1.695-.051 0-.14.031-.18.183-.18 1.215.012 2.508-1.539 2.153-3.191-.043-.25-.125-.578-.032-.59Zm-37.789.492c.368 0 .66.274.66.61 0 .335-.296.609-.66.609-.367 0-.664-.277-.664-.613 0-.336.301-.606.664-.606Zm38.93.234c.074-.011.336.094.512.286 1.02 1.132.187 3.058-1.418 3.715-.613.304-1.13.093-1-.22 1.094-.413 2.129-1.491 2.023-2.968-.043-.516-.23-.8-.117-.813Zm-21.648.18.37.16-.152.297c-.074-.18-.07-.246-.218-.457Zm22.808.149c.082-.004.262-.028.434.129.66.59.762 2.242.129 3.058-.301.383-1.223 1.078-1.5 1.149-.32.035-.543.078-1.078-.145-.18-.008.082-.16.418-.34 1.195-.633 1.992-1.765 1.785-2.824-.13-.66-.344-1.023-.188-1.027Zm1.211.535c.317.023.559.281.711.496.781 1.039.129 3.215-1.48 3.664-1.07.3-1.47.016-.602-.445 1.246-.668 1.895-1.97 1.535-3.004-.172-.496-.336-.703-.164-.711Zm1.293.758c.375.007.664.27.793.543.309.668.262 1.605-.144 2.265-.403.656-1.172 1.203-2.028 1.281a1.274 1.274 0 0 1-.586-.078c-.375-.152-.246-.172.461-.511 1.125-.54 1.793-1.664 1.625-2.907-.062-.468-.265-.59-.12-.593Zm-40.797-.274v1.606l-3.683 3.183.004-1.566Zm31.239.246c.07.067.484.977.535 1.164-.864 1.137-1.11 3.004-1.242 4.422-.493 4.008-1.004 8.852-1.227 8.895l-.957.02c.367.222.844-6.653 1.59-11.005.058-.343.86-3.703 1.3-3.496Zm11.12.723c1.262.785.587 3.238-1.171 3.84-.637.226-.871.254-1.16-.004-.184-.164-.356-.219.109-.367 1.297-.309 2.215-1.422 2-2.72-.027-.312-.348-1.144.223-.75Zm-10.214.668.574.34c-.621 1.695-.855 3.695-1.11 5.633-.308 2.343-.585 4.753-.956 7.054l-.88.028c.462-1.422.676-5.391 1.137-8.72.266-1.683.559-4 1.235-4.335Zm.996.555.734.39c-.261.95-.57 1.985-.722 2.98-.344 2.208-.477 4.883-1.262 9.005l-.797.062c.203-1.324.586-4.273.914-6.984.379-3.149.973-5.532 1.133-5.453Zm-33.145-.149v1.578l-3.68 3.106v-1.453Zm34.391.649.71.367c-.48 1.738-.714 3.355-.952 4.933-.32 2.125-.559 4.196-1.004 6.532l-.848.05c.426-1.793.914-6.007 1.301-8.976.223-1.723.68-2.942.793-2.906Zm-20.246 3.515c.008 1.188-.277 3.031-.277 3.031-.11.059-.454-2.699-1.665-3.949-1.476.645-2.75-.87-1.742-1.91 1.97-1.55 3.684 1.766 3.684 2.828Zm21.351-3.039 1.028.434c-.13-.02-.371.633-.61 1.644-.722 3.09-1.445 9.184-1.562 9.18l-.793.059c.258-1.637.617-4.22.988-6.508.422-2.59.813-4.797.95-4.809Zm1.426.594.782.43c-.067-.043-.352.722-.489 1.257-.707 3.082-1.031 5.786-1.469 8.778l-.851.097c-.063.086.742-5.882 1.406-8.898.227-1.031.559-1.7.621-1.664Zm1.219.535.836.383c-.914 2.363-1 4.629-1.879 9.375l-.887.148c.36-3.043.871-6.304 1.602-9.281.098-.398.316-.613.328-.625Zm1.195.559.942.347-1.985 8.719-.797.098c.5-2.516.762-5.422 1.43-7.711.145-.485.223-1.031.41-1.453Zm-41 1.332c.367 0 .664.273.664.609 0 .336-.3.606-.664.606-.367 0-.66-.274-.66-.61 0-.336.297-.605.66-.605Zm.864 1.425c.367.004.664.278.664.614 0 .336-.301.605-.664.605-.368 0-.664-.273-.66-.61 0-.335.296-.609.66-.609Zm-1.723.04c.367 0 .664.269.664.605 0 .336-.3.613-.664.61-.367 0-.664-.274-.664-.61 0-.336.297-.61.664-.606Zm.824 1.402c.367 0 .66.273.66.61 0 .335-.297.609-.66.609-.367 0-.664-.274-.664-.61 0-.336.297-.61.664-.61Zm5.985 2.039-7.95 7.383-.023-1.477 5.45-4.906-5.485-.082.015-1Zm-3.641 1.406-4.262 3.727-.027-3.797Zm4.543.278s-.02.136.379.777c1.156 1.855 1.422 3.57 2.445 5.558.508 1.09 1.656 2.188 1.914 2.25l-1.281 2.149 36.066-.027-5.761-9.266c-9.164 1.547-17.395 1.262-25.133.008-.446.547-.934 1.66-1.399 2.465-1.152-2.856-4.847-4.707-7.23-3.915Zm1.312.25c1.907-.024 3.496.812 4.903 2.578.449.562.62.816.62 1.054-.046.274-.64 1.145-.64 1.145s-.34-.867-.422-1.285c-.515 1.73-.718-.278-.914-.809-.625 1.676-.96-.629-.93-1.25-.851 1.074-.792-.691-1.206-1.02-.012.934-.606.294-1.38.094.403.524 1.188.871.184.985 1 .636 1.504.543.531.89.75.383 1.98.84.618 1.086.832.485 2.172.688.73 1.149 1.086.613 2.535.57.496 1.058.738.399 2.04.551.582.89.227.095.617.337.617.337l-.632.91s-.227-.016-.38-.164c-.667-.645-1.316-1.824-1.894-3.477-.43-1.214-.933-2.504-1.496-3.57-.3-.562-.273-.59.613-.602Zm32.207 2.124 4.973 7.84-1.184.016-4.39-6.715-5.938.61 1.946 6-1.762.042-1.746-5.902c-3.313.121-6.477.149-9.23-.058l-.946 5.984-1.68-.05 1.075-5.927-5.57-.66-3.032 6.64-1.742.028c1.125-1.738 3.937-7.36 4.465-7.91 12.133 1.8 18.433.844 24.761.063ZM55.023 117l3.766 6.035-6.062.02-2.028-5.586Zm-22.68.152c1.196.32 2.481.391 3.778.438l-1.11 5.39-5.37-.015Zm15.118.653 1.418 5.238-10.11.035.84-5.219c2.653.149 5.246.016 7.852-.054ZM73.516 108.848h1.359v-4.696h-1.36Zm0 0" style="stroke:none;fill-rule:nonzero;fill:#000;fill-opacity:1"/><path d="M81.66 111.094a3.967 3.967 0 0 0-1.55-5.403 3.994 3.994 0 0 0-5.422 1.543 3.953 3.953 0 0 0-.493 1.66 3.981 3.981 0 0 0-4.25-3.695 3.979 3.979 0 0 0-3.707 4.235 3.981 3.981 0 0 0 4.25 3.695 4.072 4.072 0 0 0 1.653-.48 3.975 3.975 0 0 0-1.371 5.453 3.998 3.998 0 0 0 5.468 1.37 3.971 3.971 0 0 0-.004-6.831 4.003 4.003 0 0 0 5.426-1.547Zm0 0" style="stroke:none;fill-rule:nonzero;fill:#000;fill-opacity:1"/></svg>