<svg xmlns="http://www.w3.org/2000/svg" width="99" height="140"><path d="M9.298 719.743h215.404c4.93 0 8.92 4.005 8.92 8.938v314.362c0 4.934-3.99 8.938-8.92 8.938H9.298c-4.93 0-8.92-4.004-8.92-8.938V728.681c0-4.933 3.99-8.938 8.92-8.938Zm0 0" style="fill-rule:nonzero;fill:#fff;fill-opacity:1;stroke-width:.755906;stroke-linecap:butt;stroke-linejoin:miter;stroke:gray;stroke-opacity:1;stroke-miterlimit:4" transform="matrix(.42308 0 0 .42042 0 -302.435)"/><path d="m24.805 39.82 11.949-11.914-11.95-11.914-11.949 11.914ZM24.805 124.008l11.949-11.914-11.95-11.914-11.949 11.914ZM49.5 102.96l11.95-11.913L49.5 79.133 37.55 91.047ZM24.805 81.914 36.754 70l-11.95-11.914L12.856 70ZM74.195 39.82l11.95-11.914-11.95-11.914-11.949 11.914ZM74.195 124.008l11.95-11.914-11.95-11.914-11.949 11.914ZM49.5 60.867l11.95-11.914L49.5 37.04 37.55 48.953ZM74.195 81.914 86.145 70l-11.95-11.914L62.246 70ZM7.277 25.79l3.985-3.974-3.985-3.968-3.98 3.968ZM91.723 114.21l3.98 3.974-3.98 3.968-3.985-3.968ZM11.262 11.715c0 1.176-.403 2.07-1.203 2.68-.707.535-1.641.804-2.813.804-1.156 0-2.086-.289-2.793-.86-.77-.636-1.156-1.534-1.156-2.706 0-1.227.621-2.133 1.871-2.711-.961-.633-1.441-1.54-1.441-2.711 0-1.035.39-1.805 1.171-2.309.645-.41 1.489-.617 2.54-.617.953 0 1.738.242 2.355.723.676.543 1.016 1.293 1.016 2.258 0 1.105-.477 1.988-1.434 2.648 1.258.55 1.887 1.484 1.887 2.8Zm-2.434-5.14c0-1.013-.52-1.52-1.566-1.52-.473 0-.852.133-1.133.398-.281.262-.422.633-.422 1.121 0 .473.148.844.445 1.121.282.27.653.407 1.11.407.449 0 .824-.137 1.12-.415.298-.277.446-.648.446-1.113Zm.367 5.066c0-.563-.183-1.004-.554-1.332-.348-.309-.801-.461-1.356-.461-.539 0-.988.156-1.336.472-.375.328-.562.77-.562 1.32 0 .583.18 1.032.547 1.348.34.301.793.45 1.363.45.562 0 1.012-.153 1.351-.458.368-.316.547-.765.547-1.34ZM87.738 128.285c0-1.176.403-2.07 1.203-2.68.707-.535 1.641-.804 2.813-.804 1.156 0 2.086.289 2.793.86.77.636 1.156 1.534 1.156 2.706 0 1.227-.621 2.133-1.871 2.711.961.633 1.441 1.54 1.441 2.711 0 1.035-.39 1.805-1.171 2.309-.645.41-1.489.617-2.54.617-.953 0-1.738-.242-2.355-.723-.676-.543-1.016-1.293-1.016-2.258 0-1.105.477-1.988 1.434-2.648-1.258-.55-1.887-1.484-1.887-2.8Zm2.434 5.14c0 1.012.52 1.52 1.566 1.52.473 0 .852-.132 1.133-.398.281-.262.422-.633.422-1.121 0-.473-.148-.844-.445-1.121-.282-.27-.653-.407-1.11-.407-.449 0-.824.137-1.12.415-.298.277-.446.648-.446 1.113Zm-.367-5.066c0 .563.183 1.004.554 1.332.348.309.801.461 1.356.461.539 0 .988-.156 1.336-.468.375-.332.562-.774.562-1.325 0-.582-.18-1.03-.547-1.347-.34-.301-.793-.45-1.363-.45-.562 0-1.012.153-1.351.458-.368.316-.547.765-.547 1.34Zm0 0" style="stroke:none;fill-rule:nonzero;fill:red;fill-opacity:1"/></svg>