<svg xmlns="http://www.w3.org/2000/svg" width="99" height="140"><path d="M9.298 719.743h215.404c4.93 0 8.92 4.005 8.92 8.938v314.362c0 4.934-3.99 8.938-8.92 8.938H9.298c-4.93 0-8.92-4.004-8.92-8.938V728.681c0-4.933 3.99-8.938 8.92-8.938Zm0 0" style="fill-rule:nonzero;fill:#fff;fill-opacity:1;stroke-width:.755906;stroke-linecap:butt;stroke-linejoin:miter;stroke:gray;stroke-opacity:1;stroke-miterlimit:4" transform="matrix(.42308 0 0 .42042 0 -302.435)"/><path d="M11.262 15.2H8.789L5.406 9.91v5.29h-2.11V3.284h2.11v4.098L8.38 3.285h2.512L7.059 8.598ZM87.738 124.8h2.473l3.383 5.29v-5.29h2.11v11.915h-2.11v-4.098l-2.973 4.098H88.11l3.832-5.313ZM7.277 17.848l3.985 3.968-3.985 3.973-3.98-3.973ZM91.723 114.21l3.98 3.974-3.98 3.968-3.985-3.968ZM24.805 35.848l7.965-7.942-7.965-7.941-7.965 7.941ZM74.195 120.035l7.965-7.941-7.965-7.942-7.965 7.942Zm0 0" style="stroke:none;fill-rule:nonzero;fill:red;fill-opacity:1"/><path d="M12.855 15.992c-.023 32.524.278 72.492.239 107.914l73.05.102-.28-107.742Zm21.594.727c12.602.336 25.285.015 37.985.125 0 0-4.63 7.394-6.032 9.722-.308.512-.34.875-.175 1.086.253.328.234.887-.055 1.207-.121.137-.176.227-.188.309-.007.082.07.172.137.32.223.711-.36 1.203-.969 1.43-.41.152-1.32.25-1.992.219-4.215-.192-12.472-3.485-15.875-3.742-2.363-.614-5.418-.407-7.933-.278-.477.024-.391-.996-.391-.996-.39-3.371-2.977-6.308-4.512-9.402Zm38.668.37 11.91.028.051 1.774-5.023 4.722c-.473.442-.844.809-.844.809l-.04 4.27c-3.413-1.696-4.089-3.72-4.71-5.942-5.719 3.871-6 12.363.227 16.746.054-1.898 1.632-5.629 4.417-5.898l.012 14.793-3.422-3.086-7.445.078c1.23-1.836 1.262-3.293.473-5.012-1.336-2.812-3.387-9.23-3.23-9.207 0 0 .058-.137.23-.172.617-.125 1.011-.676.836-1.336-.036-.21-.032-.16.125-.437.609-.95-.114-1.985-.114-1.985Zm-39.504.024 4.453 7.45s-.058.34-.035.542c.035.286.14.543.32.813.118.18.204.422.231.645.043.37.043.37.629.859.121.101.144.164.102.27-.196.453-.086 1.378.296 2.48.485 1.394.61 1.379-.297 3.242-.19.387-.417.906-.664 1.383-1.12 2.11-1.293 2.683.618 3.808.539.32.695.594.562 1.223-.11.496-.129.817.129 1.094.168.183.32.215.277.351-.03.098-.156.508-.113.856.11.937-1.066 2.312-2.137 2.793-.214.14-.273-.031-.394-.227-1.106-1.789-3.867-1.07-4.055 1.063-.05.562-.031.808-.187.93-.055.039-.22.12-.22.12s-4.132 2.47-6.76 3.739c-.173.082-.325.219-.446.238-.14.028-.246.004-.332-.078-.965-1.7-.422-3.703-.34-4.414-.02-.254-.254-.3-.605-.305-.598-.008-1.457.551-1.645 1.07-.16.442-.266.727-.406.727-.145-.004-.215-.183-.574-.82-.747-1.328-.864-1.496-1.56-2.266-.558-.617-1.034-.699-1.581-.242-.383.32-.367.043-.692-.117-.558-.352-1.398-.04-1.421.453-.016.414-.02.723-.477.75-.504.031-.727.633-.586 1.492.074.453.09.524-.062.692-.489.539-.555.91-.286 1.668.762 2.148 1.875 3.601 2.915 5.558 0 0-2.66 1.383-4.239 2.188l.035-40.02Zm51.633 2.211-.004 34.766-5.691-5.172s-.102-6.664-.09-9.387c.012-2.722.059-5.449.047-5.953-.008-.508.035-2.664.058-4.875.047-4.637-.414-4.062.524-4.953Zm-11.152 4.149.312.84c-2.394 1.257-5.332 8.28.028 13.453l-.11 1.062c-5.617-4.71-4.562-11.45-.23-15.355Zm.406.992c.816 1.562 1.75 2.945 3.02 3.793-.688 1.504-.989 3.164.171 5.41-.816.41-1.949 1.5-3.125 3.734-4.23-3.945-3.273-9.66-.066-12.937Zm-31.52 2.898c2.352.008 4.801.364 7.047.989 1.403 6.601 3.883 11.039 3.868 13.62 0 0-.196-.03-.614-.308-1.023-.68-2.367-.305-3.09.563-.683.82.004 1.96-.347 2.441-.664.89-2.367 2.539-2.653 2.484-.207-.039-.175-.125.555-1.152.762-1.074 1.348-2.047 1.098-2.285-.106-.102-.164.113-.73 1.02-1.337 2.124-2.512 3.44-2.973 3.269-.22-.082-.106-.258.882-1.453 1.118-1.356 1.426-2.203 1.317-2.578-.086-.285-.258.18-.723 1.011-.492.88-1.383 1.86-2.105 2.801-.23.34-.524.54-.899.692-.277.113-.718.293-.976.261-.133-.015-.043-.086.14-.25 1.422-1.343 2.645-2.843 3.34-4.285.11-.191-.043-.457-.219-.262-1.066 1.723-2.55 3.868-4.16 4.813-.343.203-.863.375-1.332.336-.789-.02-.508-.184.211-.606 1.543-.91 3.711-3.53 4.063-4.457.082-.218-.008-.343-.16-.328-1.274 1.867-2.954 3.918-4.903 4.778-1.047.46-2.37.55-3.023.257-.477-.218-.356-.293.492-.34 2.035-.183 4.426-1.937 5.61-3.8.695-1.032.206-.793-.583.199-1.355 1.695-4.035 3.32-5.695 3.187-1.676-.093-2.64-1.292-2.422-2.32.129-.62.61-1.254 1.55-1.433 1.606-.309 2.657 2.039 1.184 2.48-.503.148-.69.035-.511-.148 1.093-.442.61-1.649-.309-1.774-.582-.078-1.254.281-1.285 1.106.02.617.566 1.222 1.672 1.238 1.312.02 3.324-.848 4.547-2.445.87-1.223.07-.809-.574.004-.575.722-2.415 1.726-2.555 1.687l.062-.828c.028.144 2.836-1.621 2.676-2.938-.105-.957.047-1.25 1.129-1.234.809.008 1.832.273 2.129.613.309.34.652.446.5-.125-.246-.922.05-1.074-.527-.902-.403.121-.758-.176-1.16-.438-.442-.289-1-.414-1.669-.394-.5.016-.722-.012-.644-.445.059-.305.121-.582.027-.786-.156-.324-.781-.66-1.484-1.14-.832-.567-.676-.602 1.105-4.367.746-1.578.75-1.903.305-3.075-.7-1.847-.809-2.586.512-2.84.75-.078 1.523-.117 2.304-.113Zm7.516 1.078.684.184c.008 0 2.133 6.75 3.351 10.047.375 1.004.657 2.363.727 3.64-.04 1.754-1.113 3.012-2.426 3.149-.926.098-1.93-.348-2.387-1.3-.386-.903-.093-1.97 1.028-2.333 1.937-.637 3.351 1.645 1.449 2.34-.98.363-1.914-.293-1.469-1.05.309-.536 1.184-.477 1.387.077.168.586.445.309.328-.09-.36-1.265-2.121-.968-2.266.196-.004 1.445 1.711 1.785 2.739.976.793-.644.879-1.816.683-2.832-.27-2.113-1.562-4.851-2.476-7.976-.457-1.559-1.118-3.422-1.352-5.028Zm27.336.122 1.29.472-.036 3.914-1.098.348c-1.425-2.016-.23-4.734-.156-4.734Zm-26.148.21.945.34c.512 2.762 2.941 8.051 3.797 11.996.234 2.371.273 3.067-1.473 4.328v-.019h-.941s-.004-.055.406-.336c2.289-1.57.934-5.039.074-7.703-1.492-4.254-2.828-8.61-2.808-8.606Zm-8.84.262-.364.012c-1.425.07-1.66.152-1.664.437-.011.54.23.778 1.555.649 1.149-.113 2.813.055 3.957.512 1.305.52 1.617.64 2.086.863 1.176.562.973.004-.094-.64-2.175-1.325-3.68-1.848-5.476-1.833Zm10.289.207.887.313s.234.64.316 1.004c.86 3.53 3.2 7.503 3.465 11.632.062 1.352-.192 2.614-1.27 3.22h-.812c.867-.794 1.449-1.024 1.21-3.79-.378-3.55-2.91-7.988-3.796-12.379Zm1.574.578.816.278c.934 4.765 5.594 11.894 2.614 15.328l-.742-.004c.664-.953.94-1.79.843-3.074-.281-4.332-2.672-8.54-3.531-12.528Zm1.371.438.879.25c1.188 4.832 5.77 12.75 2.488 14.933l-.644-.015c2.476-4.246-1.258-8.653-2.723-15.168Zm1.535.453c.27.14.657.207.953.285.918 3.652 2.606 7.246 3.371 10.649.254 1.863-.19 3.253-1.46 3.785l-.274-.004c1.145-1.582.934-3.582.328-5.742-.812-2.907-2.394-6.106-2.918-8.973Zm-13.879.043a4.39 4.39 0 0 0-1.289.183c-.465.16-.41.5.02.43.148-.023.406-.066.578-.094 1.055-.168 2.355.188 3.934 1.07.378.212.793.419.898.489.29.2.598.2.492-.055-.043-.101-.648-.539-1.187-.816-1.149-.64-2.22-1.195-3.446-1.207Zm15.375.344.887.125c1.656 7.066 5.313 11.465 2.172 14.082l-.781-.004c.855-.805 1.246-2.067.965-3.559-.286-1.527-1.137-3.945-1.844-6.074-.817-2.469-1.473-4.555-1.399-4.57Zm1.274.199.75.129c.875 2.875 2.363 6.437 3.258 9.402.55 1.824.324 4.07-.914 4.484l-.633.008c1.05-1.289 1.203-2.633.726-4.375-.976-3.57-2.46-6.687-3.187-9.648Zm4.637.012c.753 2.976 2.57 7.523 3.222 9.093.867 1.602.602 3.973-.71 4.91l-.622.012c.75-.644 1.012-1.73.895-2.86-.332-3.183-2.77-7.6-3.649-10.995Zm-3.297.132.777.07c.77 3.114 2.273 6.145 3.25 9.262.18.704.336 1.563.273 2.196-.136 1.324-.734 2.367-1.257 2.367h-.536c1.094-1.195 1.043-2.828.579-4.586-.766-2.902-2.625-6.402-3.086-9.309Zm-20.188-.015c-.324 0-.328.273.188.691.316.254.289.172.273.332-.078.692.04 1.32.348.614.082-.192.203-.407.324-.38.227.067.11.45.219.645.183.344-.012.43-.465.32-.324-.074-.344.086-.543.293-.356.36-.297.575.246.465.09-.02.164.004.234.02.168.035.325.136.727.418.52.367 1.254.855 1.727.93.765.12.593-.22-.032-.438-.535-.191-1.195-.719-1.195-.863.004-.11.172-.043 1.137-.29.418-.101 1.007-.34 1.257-.445.41-.172.43-.172 1.07-.152 1.09.031 1.259-.004.493-.527C46 32 43.933 31.309 42.84 31.746c-.332.129-.324.05-.567-.078-.312-.168-.57-.242-.738-.242Zm22.156.133c1.063 3.808 3.133 7.222 3.63 10.832.113 1.035-.079 2.043-1.012 2.914l-.63.008c-.09.003.883-1.38.801-2.563a6.162 6.162 0 0 0-.242-1.977c-1.21-3.21-2.406-6.12-3.332-9.183Zm-19.379 1.218h.02c.293.043.3.149.215.29-.125.206-.348.605-.348.605s-.297.055-.36-.016c-.105-.144.286-.86.474-.879Zm.743.125c.035-.004.074.012.136.035.282.102.77.313.559.477-.25.191-1.219.277-1.172.195l.324-.547c.07-.117.102-.16.153-.16Zm-2.965 3.32a.133.133 0 0 0-.063.016c-.058.032.07.239.254.473.856 1.066-.332 1.379-1.168.809-.797-.575-2.023-.52-1.847.078.062.21 0 .312.445.32.394.004.496.027.852.25 1.359.86 3.12-.285 2.265-1.516-.164-.234-.562-.437-.738-.43Zm3.355 1.665c-.496 0-.808.34-.187.441 2.21.371.722 2.48-.836 1.39-1.402-1.171-3.281-1.167-3.305-.335-.004.207.004.215.34.273.781.137 1.95.469 2.398.676.262.121.54.238.618.254.933.316 2.136-.09 2.375-.816.218-.665.047-1.88-1.403-1.883ZM17.691 44.64c.293.004.61.242.832.593.52.809 1.149 2.164 1.547 2.914a.793.793 0 0 1 .098.446c.031.441.191.605.477.41.277-.195.664-.52.21-.574-.453-.317-.707-.778-.425-1.059.207-.21.129-.344-.04-.351-.636-.012-1.585-1.758-1.136-2.133.605-.508 1.273.12 2.691 2.722.625 1.149.649 2.407.114 1.782-.18-.157-.145-.075-.36.418-.16.37-.293.546-.91 1.09-.746.66-1.203 1.183-1.219 1.296-.03.22.403.016.723-.363.71-.64.738-.809.73.04-.007.765-.05.905.098.898.234-.008.36-.614.473-1.344.129-.656.504-.989 1.12-1.356.173-.097.173-.168.141-.46-.113-.93.465-2.665.727-2.235.035.098.148.324.211.48.047.247.215.524.469.543.316.22.316.336.425 1.137.036.262.16.656.247.863.164.391.312.618.218.735l-.18.164-5.183 2.82s-.406.203-.555.262c-.41.168-.66.043-.859-.238-1.094-1.508-1.844-3.2-2.613-4.762-.461-.926-.008-1.54.59-.79.23.29.113.474-.004 1.036-.024.102.082.063.273.09.3-.028.445.222.434.644-.192.602.074.278.199.246.238.004.293.137.426.387.082.356.254.254.5.02.203-.192.203-.188-.207-.64-.707-.712-1.692-2.313-1.946-3.29-.07-.27-.043-.484.012-.625.32-.668.77-.668 1.254.262.082.16.246.414.363.57.184.25.301.461.293.86-.144.331-.168.34-.043.386.309.113.856.625.883 1.086.023.469.11.719.508.441.457-.316.262-.445-.188-.851-.468-.516-.496-.961-.214-1.336.046-.125.027-.16-.149-.145-.543.051-1.074-.59-.695-1.074.176-.281.156-.355-.09-.363-.129-.004-.344.016-.445-.04-.164-.276-.5-.667-.496-.987.16-.45.41-.63.671-.625Zm32.45.078c.898.508 1.785 1.035 2.793 1.277-2.344 3.875-6.106 5.945-9.254 6.754.105.496.18.992.703 1.297-.02-.074-.25-.957-.2-1.137 4.337-1.012 8.16-4.918 9.137-6.933l19.047-.16C58.227 58.27 57.63 75.823 69.121 90.558l-1.328.71c-8.852-12.261-8.738-24.058-6.063-31.957 1.899-5.597 5.293-9.87 7.872-12.316 0 0-10.325-.144-15.465.02-.746 1.05-1.442 1.91-2.45 2.902 0 0 2.618-2.32 2.551-2.723 4.762.004 9.672-.238 14.43.075-5.578 6.125-8.332 12.457-8.82 18.414-.02.773-.07.34-.348.625l-.883 1.254-.699-1.305c-.48-.145-1.422.086-1.82-.051-1.977 8.047-.016 17.762 2.55 24.102 0 0-.648.332-1.445.277-.871-.18-1.082.039-1.84.18-.867.152-1.168.148-1.363.351-.105.113-.3.27-.52.38-2.117.702-4.601 3.35-4.601 3.316l-2.328-.97c2.152-3.874 4.676-5.269 9.105-6.984l-.41-1.734c-4.719 1.61-7.719 3.543-10.094 7.3-2.87-.042-14.496-.136-14.507-.1 4.75-4.962 8.503-12.45 8.921-18.29.106-1.14-.07-.594.477-.93l.863-.94.672.929s.488.574.797.097c.879-8.148-.02-17.437-4.266-23.921.754-.043 1.508-.063 2.23.332 1.661 3.48 2.638 7.777 3.056 11 .53 4.074.449 8.671-.11 12.574l.285.039c.84-5.074.567-10.469-.183-15.188-.387-2.46-1.64-6.308-2.504-8.086-.238-.492-.426-.62-.196-.691 5.192-.395 7.583-1.988 9.454-4.531Zm-14.403.402c.399 0 .719.3.719.664 0 .367-.324.664-.719.664-.398-.004-.718-.3-.718-.664 0-.367.324-.664.718-.664Zm39.035.402c-1.523 1.266-2.746 2.575-4.03 3.973 3.788 4.82 8 10.04 11.538 14.215 0 0 1.23-.672 1.227-.754-.004-.043-.098-.266-.121-.215-.051.113-.996.598-.996.598L71.184 49.746l.8-.883c.871-.261 3.305-3.031 3.426-2.972 1.899 1.343 7.63 7.047 9.832 8.793v15.8c-.23.63-6.351 3.055-10.691 12.137-2.176 1.117-4.582 1.719-6.824 2.688 0 0 .57.828.847 1.054-.34-.68-.402-.812.375-1.101l16.18-6.043-.031 1.226-.27 2.114c-4.402 2.496-8.121 3.535-14.183 7.296-.43.09-.782.473-1.235.493-15.433-21.012-5.512-36.809 3.52-44.739Zm-50.378.993c.421.007.312.906.156 1.218-.313.227-.625.024-.617-.398.003-.137-.024-.266-.063-.29-.234-.136.16-.538.524-.53Zm9.445.578c.355.25.488.578.617.91-.48-.07-1.762-.41-1.16-.672Zm-2.34 1.168c11.129 15.562 10.602 32.07-1.879 44.562l15.758.004c2.012-3.64 5.355-5.855 9.633-7.219l.37 1.145c-4.913 1.445-7.405 3.851-9.386 7.183l-18.793-.03c7.235-7.141 10.55-13.18 11.09-21.356.508-7.785-1.629-14.903-8.145-23.469Zm3.145.183 2.632 1.149-.394 2.488-2.758-1.176Zm-4.747.692c14.036 19.629 7.977 33.414-3.28 44.875l-2.071.027-4.817-4.137.04 25.09s-4.711 4.235-5.254 4.742c-.536.473-.934-.254-.934-.254l.078-33.257.211-1.301.078-7.168 3-1.45 11.219 13.59s-.453.614-.664.723c-.137.07-.04.192.078.18.316-.04 1.219-.965 1.027-1.113-4.07-4.664-11.632-13.786-11.632-13.786l-3.16 1.512s.101-5.95.05-8.234c.121-.54.559-.395.856-.633 3.64-2.148 6.207-4.77 7.793-7.316.117-.192.816-1.332.886-1.438.246-.371.864-1.527 1.22-2.266.198-.414.413-.914.491-.972 2.192-.653 4.489-1.582 6.688-2.414l-3.156-4.38Zm-8.625.234c-.117 0-.418.125-.828.465-.754.629-1.75 1.664-1.754 1.863.204.067.38-.043.543-.191.633-.856 1.61-1.192 2.18-1.942.09-.136-.004-.195-.14-.195Zm7.09.922s2.176 2.934 2.735 3.715c-5.758 2.09-11.785 4.847-17.121 6.633l.003-1.172.848-2.11Zm8.555 1.953 2.148 1.027-.609 2.235-2.172-1.125Zm1.766 3.723 1.765 1.187-.808 1.895-1.782-1.13Zm-14.43 1.367s-.274.879-.734 1.664c-2.196 3.5-4.34 6.605-8.77 9.3-.168-.136-.648-.913-.648-.913l-.043-1.04c2.351-1.73 4.375-3 7.492-8.09l.902-.335.766.308.52-.851Zm9.203.023c-2.047 3.98-4.059 8.086-7.312 11.184l8.867 11.445c2.937-8.066 1.867-15.633-1.555-22.629Zm-11.187.848-.426.68.738.394.426-.68Zm-1.204.074c-1.617 3.313-4.039 5.86-7.214 7.692l-.114-4.868Zm.563.989-.426.68.738.394.426-.68Zm18.168.171 1.598 1.407-.954 1.543-1.64-1.254Zm24.547.73s-.004 0-.004.005c-2.832 8.058-2 15.761 1.851 22.469 1.903-4.34 3.465-7.247 7.176-11.868-2.277-2.754-8.793-10.691-9.023-10.605ZM21 60.232l-.45.667.723.414.45-.667Zm12.285.96c2.528 5.594 2.293 10.633.934 15l-6.324-7.39c2.328-2.653 3.875-5.164 5.39-7.61Zm-12.941-.004-.485.649.703.445.485-.648Zm-.711.93-.528.621.672.485.524-.621Zm20.887.696 1.433 1.257-.91 1.625-1.453-1.23Zm-21.72.269-.554.594.649.511.554-.597Zm46.317.25 6.38 7.613c-2.142 2.344-3.927 5.102-5.52 8.078-1.774-5.144-2.57-10.203-.86-15.691Zm-47.215.695-.593.567.617.543.59-.567Zm14.942.782-2.938 3.894 3.352 3.953c.363-2.136.449-4.617-.414-7.847Zm-15.899.101-.629.531.575.582.629-.53Zm-.925.758-.665.496.536.613.664-.496Zm25 .445 1.199 1.297-1.223 1.328-1.14-1.183Zm15.277.258.816.027c-1.363 12.16 1.258 18.32 3.575 23.676 0 0-.004.215-.083.278-.382.12-1.148.25-1.761-.25-3.121-7.422-3.785-16.555-2.547-23.73Zm-41.356.09-.691.457.5.637.691-.457Zm51.164.512c-.21 0-.398 5.004.38 7.449l2.949-3.668Zm-7.613.816.98 1.219-1.046 1.308-1.067-1.242Zm-44.351.258c.05-.008.129.121.289.223.144.14.125.128-.04.25-.257.187-.335.16-.328-.137.02-.242.04-.328.079-.336Zm26.93.957 1.085 1.437-1.207 1.426-1.027-1.504Zm17.327 1.848 1.145 1.285-.988 1.41-1.25-1.348Zm26.532.312.097 1.484-.394-.543-.73.512.507.621.637-.453.035.598c-4.039 2.68-5.785 5.762-7.426 8.074l-.73.281-.828-.242-.407.66-.703.149c-.023-.004 1.418-2.832 3.88-5.711 2.19-2.563 6.05-5.453 6.062-5.43Zm.46 2.32.024 5.27-7.227 2.558c1.883-2.937 4.098-5.664 7.204-7.828Zm-1.792-.644-.66.5.57.601.656-.5Zm-1.016.793-.637.52.594.581.637-.523Zm-24.117.254 1.36 1.336-1 1.578-1.415-1.258Zm23.09.597-.598.563.652.578.598-.563Zm-.942.887-.57.582.691.555.575-.582Zm-.945.992-.531.614.718.515.536-.617Zm-20.742.91 1.699 1.02-.832 1.863-1.7-1.195Zm19.918.04-.5.64.77.484.507-.66Zm-.77 1.007-.465.66.778.461.46-.683Zm-.687.996-.43.68.805.426.43-.688Zm-.625 1.032-.426.68.89.355.356-.649Zm-16.918.394 1.738 1.09-.773 1.953-1.836-1.203Zm25.261 1.961.008 40.211-19.183.031s-.895-1.457-2.766-4.816c-.789-1.426-1.46-2.031-1.527-3.156.074-.66-.258-1.414-.848-1.715-.195-.102-.527.02-.414-.262.121-.312-.25-.793-.352-.894-.117-.18-.043-.227-.054-.895-.012-.648-.051-.922-.2-1.41-.378-1.238-.46-1.856-.242-2.496.57-1.625 1.164-2.871 1.93-4.387.445-.887.379-1.234-.984-1.879-1.02-.484-1.153-.48-1.024-1.187.059-.328.117-.535.043-.696-.047-.097-.215-.234-.316-.312-.133-.106-.09-.32.047-.485.132-.156.132-.382 0-.757-.278-.793.355-1.84 1.55-2.563.528-.32.512-.254 1.063.278 1.602 1.558 3.992.585 4-1.606.004-.684-.25-.64.453-.965 2.379-1.387 7.258-3.914 7.227-3.844.316.598.421 1.106.62 1.75.173.551.153.594.083 1.665-.059.968-.09 1.195.156 1.257 1.406.145 1.73-.316 2-1.152.117-.367.344-.293.48-.137.536.899 1.211 1.832 1.657 2.473.554.816 1.488 1.223 1.98.84.106-.32.192-.328.813-.196.75.157 1.183-.23 1.254-.742.03-.203-.13-.195.273-.394 1.004-.684.621-1.614.473-2.176.015.027.43-.234.441-.758.05-2.73-2.508-6.664-2.45-6.562ZM60.88 84.234l2.039.91-.488 2.243-2.09-.871Zm19.824.868c1.172 1.253 2.016 3.343 2.453 4.707.215.68.239 1.453.047 1.558-.191.106-.281-.008-.242-.41.027-.34.039-.602-.117-.598-.457.11-.473-.527-.426-.675.031-.102.09-.172.113-.227.114-.246-.18-.21-.484-.215-.27.004-.336-.144-.324-.379-.008-.261-.383-.21-.594-.015-.195.183-.156.394.11.543.374.214.734.738 1.609 2.55.511 1.051.359 1.797-.25 1.786-.426-.012-.914-1.079-1.313-1.864-.101-.207.156-.433.246-.543.235-.28.2-.37-.148-.375-.324-.004-.461.02-.656-.347-.075-.141-.125-.352-.102-.489.168-.406-.176-.504-.508-.347-.422.16-.418.504.223 1.074.41.625.3.578-.09 1-.082.148-.031.238.14.242.497-.14 1.036.688.887.969-.152.121-.57.558-.168.476.82-.207 1.317.899.832 1.27-.718.332-.886.227-1.992-1.809a23.543 23.543 0 0 0-.804-1.382c-.051-.07-.07-.258-.07-.407.05-.367-.122-.453-.47-.304-.261.054-.496.254-.164.441.383.613.52.711.309.867-.484.352-.277.34.266.438.261.074.398.199.468.351.278.578.774 1.39.82 1.559.165.422-.132.613-.534.594-.426.007-.618-.301-.825-.563-.765-.988-1.32-1.965-2.101-3.082l.105-1.047s.207.043.324-.008c.223-.101.36-.425.489-.859.207-.379 1.43-1.234 1.894-1.695.086-.055.16-.14.16-.192-.004-.168-.527-.058-.875.309-.507.414-.726.27-.707-.262-.05-.652-.484-.324-.507.313-.059.507-.25.816-.633 1.097-.727.535-.606.399-.574 1.141.058 1.293-.489 2.355-.84 1.652-.125-.254-.274-.535-.59-.55-.223-.008-.336-.211-.457-.711-.184-.813-.438-1.332-.672-2.079Zm-18.062 2.757 2.343.864-.441 2.261-2.324-.82Zm17.898.239a.153.153 0 0 0-.055.011c-.66.457-1.273.973-1.992 1.368-.273.148-.59.527-.59.628-.004.102.32.098.633-.027.3-.121 2.004-1.59 2.008-1.726.117-.118.105-.262-.004-.254Zm-21.562 2.71c.554 0 .23.149-.98.922-1.184.754-3.138 3.141-3.368 4.028-.102.402.176.433.488-.121 1.442-2.54 4.16-4.856 6.645-4.75 1.218.054 1.879.355.867.488-2.762.309-4.832 1.758-6.645 4.648 0 .063.164.063.352-.05 1.66-1.86 3.527-4.325 6.805-4.121 2.363.136 3.027 2.726 1.066 3.605-1.71.766-3.285-1.11-1.867-2.223.46-.359.75-.199.305.168-.95.793.21 2.207 1.367 1.672.703-.27.992-1.199.375-1.898-1.38-1.559-4.352-.38-6.426 2.133-.215.261-.406.84-.223.777.325-.121.516-.356.707-.613.739-.946 1.309-1.418 2.309-1.922.773-.39.82-.317.531.363-.12.285-.219.379-.52.559-1.261.789-2.046 1.851-2.078 2.527-.023.492.368 1.14-.058 1.27-.723.312-2.691.054-3.223-.57-.379-.454-.527-.192-.242.538.188.485.18.758.465.707.363-.175.61-.132 1.312.223.336.168.938.328 1.301.406.668.145.805.086.79.352-.005.078.027.308.007.453-.11.797.613 1.07 1.602 1.598.574.308.347.625-.325 2.144-.347.688-.644 1.613-1.078 2.313-.398.785-.437 1.644-.18 2.625.477 1.82.82 2.742-.035 2.906-2.199.3-7.054.281-9.703-.66-.672-4.688-4.25-11.649-3.785-13.446.918 1.278 4.774.946 3.617-2.625 0 0 .317-.433.946-1.02 1.62-1.51 2.023-1.76 1.25-.429-.59 1.024-1.348 2.36-1.364 2.617-.015.207.16.254.297.09.098-.12.219-.418.324-.644.97-2.078 2.622-3.95 3.758-4.403.293-.113.278.012.075.239-1.34 1.53-2.364 2.945-3.09 4.793-.035.191.257.273.351.09 1.262-2.419 1.637-2.97 3.18-4.672.61-.668 1.172-1.004 1.621-.97.39.036.277.095-.086.446-.273.27-.684.645-1.34 1.406-1.164 1.344-2.336 3.528-1.906 3.414.074.184.441-.398.75-.953.852-1.308 1.758-3.039 3.773-4.175.418-.16.88-.25 1.286-.254Zm-38.946.36 3.578 3.309 7.215-.075c-1.191 1.7-.562 4.34.09 5.883 1.281 3.028 3.152 8.02 3.016 8.094 0 0-1.051.246-1.145.86-.144.906.285.84-.332 1.66-.14.183-.05.53.094.808.098.203.191.508.008.746l-6.383 10.445-12.074.036.004-2.094 6.058-5.625-.066-4.149c3.297.907 4.422 4.043 4.703 6.364 5.965-4.996 5.832-12.535.21-17.274-1.105 4.996-5.038 6.031-4.952 5.93Zm44.856.664c.386.027.906.086 1.261.262-.242.129-.41.289-.57.449-.195-.316-.453-.488-.691-.711Zm10 .055c.32-.004.71.863.484 1.066-.129.113-.543.156-.687.07-.192-.128-.094-1.136.203-1.136Zm-11.383 1.48c.414 0 .75.313.75.692 0 .382-.336.691-.75.691s-.75-.313-.75-.691c0-.383.336-.692.75-.692Zm-31.723.934.54.011c-.985 1.211-1.118 2.25-.774 3.762.39 1.7 3.363 8.09 3.555 9.848.007.078.015.305.015.305l-.734.043s-.055-.18-.074-.25c-1.024-3.188-2.043-5.618-2.754-7.473-.707-2.004-1.793-4.973.226-6.246Zm3.95.02h.011l.52.007c-.02.008-.778 1.5-.832 2.406-.067 1.028.203 2.145.57 3.246.867 2.391 2.14 5.051 2.844 8.067.008.035.086.324.086.324l-.77-.094s-.074-.308-.086-.351c-.523-2.653-2-5.406-2.879-8.016-.449-1.187-.761-2.644-.597-3.758.117-.789.972-1.816 1.132-1.832Zm6.277.015c-.551.781-1.051 1.766-1.09 2.535-.035 1.434.418 2.645.867 3.91 1.387 3.903 2.059 5.961 2.75 9.09l-.738-.293s-.031-.176-.047-.226c-.39-1.957-.418-1.786-2.73-8.38-.54-1.581-1.06-2.968-.954-4.28.024-.75.739-2.235 1.485-2.352Zm.89 0 .692.004s-.383.367-.492.508c-1.211 1.539-.864 3.195-.27 5.172.82 2.714 2.34 5.753 3.133 9.894.012.078-.004.477-.004.477l-.82-.305c-.742-3.797-2.578-7.734-3.461-11.148-.516-2.008-.367-3.274.844-4.364.3-.215.378-.238.378-.238Zm-8.437.008.52.004s-.868 1.304-.872 2.074c-.144 1.379.395 2.902 1.012 4.496.95 2.453 2.207 5.422 2.594 6.984.015.059.066.34.066.34l-.902-.047s-.047-.375-.102-.55c-1.035-3.356-2.047-5.528-3.234-8.594-.18-.465-.465-2.301-.125-3.489.27-.93 1.043-1.218 1.043-1.218Zm-1.383 0 .559.015s-.086.141-.301.477c-1.02 1.695-.566 3.246.059 4.973.84 2.304 2.156 5.12 2.972 7.785.047.148.11.601.11.601l-.805-.011s-.164-.54-.172-.602c-.45-2.465-2.89-6.582-3.523-9.715-.344-1.68-.043-2.719 1.101-3.523Zm7.469.011s-.883 1.407-.965 2.188c-.16 1.535.367 2.809.969 4.539 1.039 2.988 2.504 6.496 2.633 8.098l.023.25-.906-.301s-.04-.164-.059-.227a90.06 90.06 0 0 0-2.96-9.043c-.31-1.097-.716-2.203-.677-3.148.188-1.262.422-1.602 1.239-2.344Zm3.992.012.727.012s-.215.11-.739.621c-2.886 2.418 1.778 9.27 2.844 15.504.012.066.043.305.043.305l-.805-.27c-.074-.309-.129-.687-.222-1.027-.867-3.188-2.028-6.465-3.09-9.438-.598-2.168-.813-4.074.27-5.14.335-.368.972-.567.972-.567Zm-7.512-.012.778.024c-.563.648-.895 1.656-.926 2.558-.031 1.063.273 2.098.652 3.192.774 2.246 1.883 4.687 2.645 7.715.043.203.078.332.097.418.032.14.118.36.118.36l-.82-.153s-.087-.196-.141-.301a2.932 2.932 0 0 1-.223-.59c-.395-1.578-1.852-5.164-2.738-7.68-.703-1.585-.89-4.355.558-5.543Zm9.707.047c.996-.035 1.891.746 2.102 1.477.207.773-.059 1.648-.988 2.082-1.5.695-3.118-1.172-1.93-2.195.902-.778 2.23-.2 1.937.796-.187.649-1.253.688-1.43.036-.046-.22-.163-.438-.25-.317-.554 1.196 1.302 1.758 2.075.645.46-.89-.41-2.04-1.691-1.824-1.758.296-1.965 2.351-1.239 4.75 1.012 3.789 3.43 8.886 3.418 11.222 0 .031.012.13.012.13l-.773-.216-.008-.074c-.457-3.266-3.082-8.676-3.828-12.832-.325-1.898.48-3.27 2.285-3.644a1.66 1.66 0 0 1 .308-.036Zm-7.625.016c-.543.664-.898 1.664-.914 2.379-.02 1.047.387 2.066.723 3.156.844 2.692 2.824 7.664 2.75 8.594.023.098.078.406.078.406l-.77-.21s-.03-.044-.09-.173c-.253-.922-1.464-4.882-2.824-8.304-.523-1.375-.777-2.45-.738-3.36.114-1.258.504-1.785 1.106-2.484Zm14.633 4.484c-1.992.102-1.804 2.34-.57 2.72.441.112.7.019.77-.071.081-.102-.008-.254-.297-.293-.84-.258-1.137-1.164-.38-1.547.415-.195 1.075-.066 1.868.477 1.422.972 3.164 1.035 2.937.054-.054-.238-.164-.27-1.207-.402-.843-.11-1.226-.356-1.593-.54-.583-.288-1.094-.41-1.528-.398Zm-28.535 2.035c5.137 4.641 4.363 11.899-.043 15.528-.09-.297-.281-1.016-.305-.996 3.317-3.164 4.883-8.36.106-13.692.023.02.105-.386.242-.84Zm32.27.176a.416.416 0 0 0-.13.016c-1.335.336-1.613 1.547-.75 2.047.528.308.938.12.278-.25-.563-.317-.285-1.153.402-1.14.297.003.5.124 1.262.64.625.426 1.215.46 1.352-.114.078-.343-.047-.496-.446-.406-.175.04-.277-.058-.515-.21-.532-.34-1.114-.59-1.453-.583Zm-32.805.856c4.633 4.969 3.133 10.14-.004 13.168-.855-2.336-2.957-3.797-2.957-3.797.797-1.621 1.273-3.317-.207-5.457 1.383-1.149 2.527-2.41 3.168-3.914Zm30.152 1.86c-.219-.005-.148.187.364.519 1.222.77 1.328.906.14.886-.3-.015-.77.18-1.039.262-1.547.473-1.621.434-2.363.274-.246-.055-.496-.149-.606-.06-.164.142-.355.231-.144.442.152.153.437.27.785.453 1.797.954 1.96 1.18 4.07 1.235.242.004.367-.11.512-.11.344-.003.523.075.871.368.637.539.668.148.29-.559-.196-.367-.372-.457-.274-.738.222-.64-.094-.766-.508-.2-.313.442-.348.434-.645-.14-.386-.711-.203-1.04.387-.574.45.351.566.09.738-.188.23-.367.2-.695-.21-.668-.239.016-.458-.082-.641-.27-.364-.366-1.059-.823-1.727-.933Zm.504 1.929c.047 0 .082.02.098.066.004.235-.172.715-.317.965-.047.113-.125.125-.234.148-.371.063-.395-.042-.328-.253.137-.329.25-.793.726-.926h.055Zm-.941.16c.148-.012.156.047.093.172-.105.21-.296.41-.437.578-.297.176-.777-.367-.563-.504.297-.11.524-.223.833-.238.027-.004.05-.008.074-.008Zm-33.25.3c.082 0 .164.016.246.048 1.12 1.398 1.039 3.523.164 4.699-.063.086-.129.101-.238.066-.375-.203-.852-.281-1.207-.398l.003-4.09c.368-.07.688-.328 1.032-.324Zm29.597.38c-.086.004-.12.058-.011.16 1.632 1.094 3.886 2.363 5.965 1.879.19-.04.343-.137.308-.317-.023-.113-.234-.21-.46-.156-.477.117-1.391.129-1.77.074-1.426-.218-2.688-1.062-3.786-1.558a.448.448 0 0 0-.246-.082Zm-.48 1.043c-.074-.004-.066.062-.024.187.23.633 2.547 2.113 4.375 2.602 1.57.422 3.829.011 3.7-.676-.067-.36-.352-.445-1.356-.328-2.207.39-4.332-.446-5.945-1.371-.434-.254-.656-.41-.75-.414Zm-14.461.84c.965-.008 1.918.066 2.953.226 2.012.32 4.344.895 6.313 1.742 3.351 1.164 7.566 2.067 11.144 1.95.871.023 2.45-.044 2.758-.133.797-.164 1.016-.008 1.207.902.031.2.098.258.375.43.422.265.352.527.3 1.109-.046.492.278.766 1.563 2.965 1.465 2.5 2.895 5.406 2.895 5.406-12.887-.027-25.176-.488-38.36-.133 1.192-2.586 4.434-7.25 6.465-10.996-.488-1.152.117-1.347-.133-1.62-.41-.645-.113-1.544.754-1.743a19.698 19.698 0 0 1 1.766-.106Zm0 0" style="stroke:none;fill-rule:nonzero;fill:#131f67;fill-opacity:1"/><path d="M27.094 123.027s4.234-7.855 6.02-10.207c2.566-2.984 14.109 1.32 19.85 2.399 2.337.422 7.747.234 7.747.234l4.512 7.52Zm-8.75-8.949-.133-24.473 1.32.762.258 24.582-5.727 5.031-.027-1.476Zm3.46-2.785c1.368-2.523-.144-5.606-.144-5.606.79.184 2.996-3.66 3.192-3.546 3.359 3.808 3.93 9.472-.192 12.98-1.031-2.445-2.84-3.828-2.855-3.828Zm2.548-17.309c2.562-2.402 4.593-4.273 6.628-6.964.165-.22-10.77-13.06-10.597-13.282 1.695-1.718 3.96-2.98 5.726-5.054 0 0 8.97 10.851 9.176 10.754.914-3.387 1.59-6.458 1.422-10-.539-9.07-4.734-14.63-4.766-14.52-1.441 8.328-15.445 20.926-18.195 20.023l-.004-5.824c.164.293 8.867-5.137 11.172-12.324.164-.516 6.91-2.492 6.863-2.57-.28-.676-3.226-4.524-3.226-4.524s1.195-.508 1.328-.508c3.812 4.387 6.687 10.16 7.66 15.657 1.18 5.922 1.93 17.047-10.977 29.175Zm38.652-15.246C61 72.973 61.066 67.004 62 62.84c1.43-7.547 6.617-12.945 10.781-17.059l1.801.004s-2.156 2.047-2.945 2.793c-1.348 1.422-3.301 4.383-3.301 4.383l10.727 12.965 6.128-1.211s-.195 5.789-.004 5.789c-4.769 3.625-8.199 6.906-10.664 12.191-1.507.512-6.503 2.489-6.503 2.489-2.375-.54 7.085-14.153 5.293-14.387-.739-.563-8.903-10.746-9.063-10.723-3.793 10.633-.133 21.813 6.488 29.63-.754.444-1.437.796-1.375.69-2.836-3.636-5.316-7.98-6.36-11.656ZM43.37 73.371c.426.61 2.363-12.98-2.644-23.867.48-.336 4.628-1.059 4.628-1.059l1.11 3.258-2.832 1.102.52 1.527c2.199-.98 6.956-2.418 9.894-6.89 0 0 14.215-.09 14.52-.067.292.023-2.907 2.836-5.946 8.54-1.39 2.605-2.496 5.98-2.734 9.937-.047.78-3.246-3.684-3.246-3.684.808-3.766 2.953-7.473 5.09-11.18 0 0-3.27-.175-5.555-.117-3.559 3.57-5.79 5.45-11.145 7.149 1.942 5.765 13.883 8.554 11.227 8.023-.543-.117-1.242 5.297-.68 11.398.102 4.88 2.938 13.016 3.04 12.954 0 0-1.903.39-2.056.109.32-.07-2.824.656-2.824.656l-1.12-3.031 3.046-1.285-.488-1.711c-.012 0-6.723 1.86-10.02 7.242l-14.691-.008c5.676-5.656 7.996-11.254 9.242-18.656 1.203.2 3.664-.34 3.664-.34Zm36.227-48.836c1.851-1.422 5.566-5.125 5.566-5.125l.047 1.902-4.219 4.024-.004 24.887-1.422-1.258Zm-1.961 9.106c-.758.332-2.27 1.964-2.996 3.8-4.868-4.02-2.844-11.39-.172-12.918.77 1.61 3.008 3.747 2.957 3.704-.52 1.683-.918 3.394.21 5.414ZM34.504 16.863l37.601.121c-2.152 3.887-4.128 7.028-6.414 10.852-1.187 1.316-26.855-4.297-26.976-3.742Zm0 0" style="stroke:none;fill-rule:nonzero;fill:#e2cf00;fill-opacity:1"/><path d="m13.988 118.05-.187-32.679 4.265 3.832.207 25.098Zm19.621-6.3c-.882.121-.382-.629-.218-1.348.09-.398-.328-.777-.325-.898.012-.707.59-1.008 3.204-.977 6.164.407 9.347 2.227 12.878 3.078 3.387.817 6.743.805 10.48.73.27.145 1.27 2.524 1.083 2.763-8.453 1.52-19.23-4.211-27.102-3.348Zm15.266-16.898c-.887-.594-1.723-.707-2.55-.836 1.456-2.348 3.214-4.485 6.148-5.82l1.359 3.113c-1.727.812-3.422 1.78-4.957 3.543Zm-17.79-8.102s-1.269 1.902-2.464 2.828c-3.539-4.39-11.46-13.738-11.46-13.738l-3.372 1.566s-.008-1.804.066-1.933c9.106-4.301 15.364-12.453 18.125-20.09 0 0 1.465 1.379 1.27 1.96-2.469 6.024-6.688 12.063-12.883 16.587Zm11.364-8.875 11.485.035.5 3.676c-4.399 1.352-8.036 4.117-11.434 7.32l-5.445-.097c1.793-3.602 4.277-7.254 4.894-10.934Zm42.547-15.422c.367 1.035-.008 2.152.137 2.106-13.77 6.246-17.727 19.992-17.727 19.992s-1.3-1.906-1.242-2.2c7.148-14.566 11.914-14.992 12.832-16.574L68.191 52.852l2.454-3.067 11.59 13.942c1.156-.489 1.812-.899 2.761-1.274Zm-6.82 18.844c2.34-3.86 4.754-6.102 7.152-7.645l-.125 5.102Zm-64.281-15.27.07-4.945 7.09-2.797c-1.965 3.93-4.63 6.031-7.16 7.742Zm31.574-4.394-.41-3.48c4.304-1.723 8.109-4.028 11.183-7.188 3.293-.14 5.547.07 5.528.027.007-.004-3.145 4.235-5.235 10.91Zm35.707-36.496 3.922-3.64.062 32.519-3.926-3.453ZM46.719 51.559l-1.239-3.227c1.958-.672 3.438-2.137 4.82-3.59.93.774 2.138 1.043 2.555 1.196.575.12-3.972 5.128-6.136 5.62Zm-7.297-24.43s-.488-.262-.434-.629c.164-.473-.52-1.55-.52-1.55 8.344-2.317 20.473 4.26 27.68 2.89-.058.465.024 1.02-.183 1.453.226.93.387.96-.598 1.527-5.066 1.309-10.398-1.511-15.34-2.863-4.03-1.18-7.308-.887-10.605-.828Zm0 0" style="stroke:none;fill-rule:nonzero;fill:#d40000;fill-opacity:1"/><path d="m34.074 16.402 1.52 2.645-.266.164c.414.637.766 1.355 1.188 1.988l.308-.035c.496.887.7 1.211 1.352 2.258h-.297c.152.465.543.773.55 1.11.005.413-.113.835.16 1.116.329.332.368.426.302.622-.18.515.328 1.093.847 1.043 3.645-.446 7.36-.06 11.07.98 2.669.781 5.036 1.652 7.278 2.27.707.195 2.137.503 3.367.59 3.414.234 5.332-.403 4.762-1.712-.047-.105-.149-.183-.16-.238-.016-.098.004-.207.195-.351.563-.528.25-.91-.09-1.497 0 0 4.399-7.207 6.594-10.796Zm37.965.711L68.83 22.2c-1.712-.289-2.114 1.035-2.141 1.223-2.22-.531-1.883 2.125-.77 2.305.07.386-1.828.859-2.828-.043 1.539.191 2.086-1.68.21-2.098 2.477-1.691-2.163-4.238-2.222-.73-2.183-.36-1.906 2.3-.523 2.507-.707.719-2.793.735-3.88-.781 1.852.887 2.86-1.398.934-2.043 2.38-1.914-2.265-3.687-2.164-.59-1.75-.96-2.96 1.477-.62 1.856-.134.441-3.2.437-3.977-.7 2.175.461 2.277-1.976.359-2.175 1.93-2.246-2.953-3.395-2.137-.32-1.886-.692-2.605 1.476-.77 2.175.102.344-2.976.633-4.05-.613 2.367-.324 1.543-2.438.008-2.274l.11-.265c.726-2.117-3.165-2.301-2.63-.051.086.207.18.48.18.48-1.07-.203-1.727.2-1.652 1.125.265 1.235.972 1.145 1.875.899.379.367-2.18 1.582-3.786.488 1.97-.515.977-2.64-.667-2.355-.07-.68-.868-1.63-1.91-1.168l-1.098-2Zm3.16 28.278-2.308.027c-1.625 1.523-13.395 11.477-11.442 26.535.832 6.442 2.774 12.02 7.985 18.61l1.394-.75.215.128 14.48-7.64.012-2.328-16.805 6.46c-.332-.324-.527-.69-.808-1.093l6.734-2.621s.164-.38.215-.551c2.223-5.152 6.723-8.879 10.64-11.754-.011-5.078-.015-15.707-.015-15.707L75.395 45.41c-1.297 1.09-2.45 2.215-3.606 3.43l11.59 14.105-1.031.614L70.883 49.53c1.363-1.508 2.844-2.82 4.316-4.14Zm10.305 9.175s-.012-24.183-.063-35.859l-6.043 5.688-.02 24.511Zm-.45-33.558L80.79 25.05v24.914l-1.094-.996.047-24.242 5.332-5.13Zm-41.449-.664c.125.207.07.492-.136.726-.871.992 1.86 2.727 3.832 2.43 1.496-.227 2.777-1.055 2.226-1.684-.449-.515-.152-1.035.387-1.03.555.003.996.413.516.968-1.07 1.234.554 2.691 3.05 2.723 1.762.027 2.348-.375 2.258-1.532-.047-.539.07-.691.48-.773.653-.129.981.562.438 1.086-1.172 1.137.157 2.808 2.371 2.922.809.039.97 0 1.875-.47.707-.362.957-.917.61-1.35-.446-.555.16-1.215.851-.942.496.195.739.547.188 1.137-.719.78-.38 1.422 1.008 1.86 1.078.339 1.828.3 2.332-.126.16-.133.511-.406.504-.324-.34.543-.641 1.043-.641 1.043-2.266.926-4.031-.817-3.973-.883-2.332 1.238-4.402.973-6.144-1.113-.453.23-3.707.773-6.051-1.606-2.371 1.09-4.574.63-6.527-.597-1.45 1.253-2.973 1.449-4.555.843l-.469-.87c.117-.04.63.874 3.106.452.832-.14 2.27-1.43 1.468-2.058-.367-.477-.379-.692-.054-.985.32-.285.867-.136 1.05.153Zm-6.078 1.129c.141.246.157.656.004.41-.078-.13-.496-.711-.476-.727.195-.015.386.168.472.317Zm47.528.273-.032 32.152-3.62-3.32-.13-25.187Zm-42.008 1.492 1.14.66-2.046-.011Zm6.418.563.957.86-2.016-.395Zm17.965.472-.43.809c-.246-.254-.316-.793.43-.809Zm7.222 13.38c.735-1.505 1.711-3.423 3.29-4.028-1.172-2.148-1.016-4.297-.18-5.473-1.188-1.023-2.407-2.25-3.164-4.007-3.766 3.054-4.383 9.335.054 13.507Zm-.086-12.923.258.59c-3.36 3.77-2.332 8.73.09 11.383l-.352.664c-2.96-2.887-4.246-8.98.004-12.637Zm-20.035 2.106c3.88 1.055 6.989 2.695 11.48 1.246l.016.805c-2.859 1.683-8.547-.11-12.39-1.422-6.176-2.113-10.985-1.996-14.422-1.762-.305-.055-.543-.785-.059-.789 6.426-.055 5.39-.793 15.375 1.922Zm.88-1.422 1.273 1.246c-.957-.277-1.887-.586-2.754-.969Zm19.46.34.25.316c.11.137-.707.207-.57.047Zm-21.91 2.242c4.629 1.613 9.73 3.219 13.082 1.79 0 0 .02.612-.363.784 0 0-.352.262-1.535.41-5.422.403-8.934-1.671-13.305-2.898-1.66-.469-4.324-1.031-7.059-1.14-1.625-.07-4.113.14-4.113.14-.543-.043-.531-.34-.54-.629 4.716-.57 9.048-.129 13.833 1.543Zm22.414-1.5a.696.696 0 0 1 .18.012l.472.558-.562.82s-.496-.421-.746-.831c-.137-.27.238-.54.656-.559Zm-13.656.137 1.465 1.02c-1.102.05-2.344.085-3.575-.368Zm12.43.539c.117-.004.238.11.378.332.274.43.235.512-.293.668-.699.207-.754.16-.527-.414.156-.39.293-.582.441-.586Zm2.23.265.988.77c-.55 1.313-.91 2.977.184 5.371-.121.008-.836.656-1.059.766-.629-.242-2.004-4.989-.113-6.907Zm-1.133 1.004-.254 1.45c-.02.12-1.097-.688-.996-1.09.195-.48.848-.375 1.25-.36Zm-1.781.508c.129 0 .336.29.586.668.195.297.152.41-.281.77-.637.593-.762.398-.622-.614.07-.5.168-.828.317-.824Zm1.316 1.317c.09 0 .164.02.219.062l.07 1.414c.008.13-1.199-.05-1.355-.59-.2-.347.601-.894 1.066-.886Zm-1.59 1.191c.086-.008.356.156.61.297.445.242.453.348.07.8-.45.532-.672.446-.742-.48-.024-.34-.05-.601.062-.617Zm1.766.547c.04 0 .074.008.106.031.21.168.535 1.59.398 1.735-.195.21-1.223-.07-1.453-.403-.219-.32.574-1.363.949-1.363Zm-1.262 1.664c.118-.004.332.07.653.215.191.086.515.246.586.383.125.246-.082.601-.352.902-.18.195-.348.05-.691-.613-.278-.532-.391-.875-.196-.887Zm2.075.64c.027-.003.046.005.066.012.352.18.289.711-.125 1.106-.5.469-.93.113-.586-.485.219-.379.48-.632.645-.632ZM46.844 47.45c-.305.016-.778.266-.985.512-.261.309-.488.266-.777.242-.344-.004-.867.067-1.578.363-.402.168-.586.204-1.176.23-.383.017-.77.067-.855.106-.082.043-.36.13-.614.2-.515.136-.332.27-.035.882 1.492 3.547 2.563 7.68 2.946 11.047.433 3.86.292 8.543-.301 12.117-1.438.004-2.34-.062-3.852-.043-1.05 7.73-3.863 13.864-9.472 19.375l15.136.063c1.742-4.258 9.66-7.496 9.922-7.254l.414 1.555s-5.695.738-9.543 7.386c.395-.218 1.82-.062 2.762.84 1.887-2.195 4.977-3.629 5-3.593l.102-.266s.566-.176 1.066-.262c.16-.027.484-.086.703-.156.336-.106.504-.223 1.02-.18 1.082.098 2.164-.191 2.14-.195-3.195-8.168-3.941-15.535-2.672-24.09 1.184.008 3.782.055 3.782.055.265-2.406.601-4.809 1.406-7.078 1.035-2.914 2.281-5.621 4.285-8.098 1.133-1.555 2.121-2.66 3.289-4.113l-14.816.008c-1.965 3.03-5.746 5.558-8.786 6.609-1.035.355-1.18.305-1.351-.145-.305-.8-.29-.765.52-.976.269-.07 1.136-.488 2.484-1.067 2.863-1.332 4.832-3.777 5.992-5.43.46-.652.152-.503-.633-.511-.722-.055-1.05-.258-1.695-.816-.238-.207-.344-.352-.45-.34-.847 1.117-2.273 2.59-3.378 3.023Zm3.48-2.578c.664.66 1.453 1.043 2.492 1.172-1.664 2.398-3.699 4.273-6.035 5.414l-1.18-3.078c2.91-1.242 3.692-2.488 4.723-3.508Zm24.145 1.02c-15.692 13.316-14.801 30.14-3.856 43.82l-1.152.637C59.18 77.609 57.35 58.789 73.12 45.832Zm-9.88 1.609h3.84l-2.62 3.117-3.508-.015Zm-.6.027-2.141 3.098-5.766.059c-3.453 3.91-7.16 5.812-10.934 7.109l-.73-3.344s5.973-1.316 9.852-6.98Zm-5.856.246-1.34 1.36 1.387 1.3 1.27-1.316Zm3.023-.027-1.355 1.293 1.054 1.305 1.403-1.262Zm-6.672.227-.234 2.035 1.742.527.254-1.738Zm10.586.09-1.265 1.82 1.902.027 1.332-1.808Zm-19.882.433 1.226 3.149-1.082.48-1.09-3.29ZM43.73 49l1.262 3.258-1.062.32-1.16-3.39Zm1.497 12.855c.132 4.528.199 7.258-.63 11.235-.042.21-.925.023-.925.023.11.035.504-4.496.48-7.343-.047-5.418-1.035-10.786-3.336-16.16.442-.247 1.528-.372 1.528-.372 1.449 4.075 2.734 8.461 2.883 12.617Zm-15.36-12.578c5.047 6.192 8.649 14.582 8.028 22.856-.598 9.62-4.57 15.16-11.54 21.812l-1.793.035c8.247-7.257 11.903-13.476 12.204-21.687.351-9.441-2.77-15.727-8.032-22.426ZM13.672 57.75l.015 2.25 17.247-6.781-2.48-3.375Zm40.402-7.313-1.875.086.059 1.743 1.957-.04Zm16.723-.304L81.94 63.64l-2.77 1.886-10.62-12.691Zm-8.754.91 3.344.05-1.297 1.973-3.23-.027Zm-.617.047c-1.543 2.629-3.668 5.629-4.867 10.476l-11.004-.007c-.016-1.11-.172-2.215-.348-3.325 4.746-1.59 8.422-3.972 11.129-7.129Zm2.035.14-1.438.762.875.93 1.582-.555Zm-13.098.95-.48 1.718 1.785.637.332-2.043Zm10.258 1.3 3.207.024-1.355 2.48-3.18-.047Zm7.637-.312L78.8 65.801l-.992.722-10.305-12.351Zm-6.422.516-1.445 1.105 1.082 1.16 1.336-.98c.027-.02-.973-1.285-.973-1.285Zm-14.027.066-.446 1.672 1.856.457.332-1.793Zm-2.567 1.11-.379 1.644 1.746.437.371-1.586Zm-14.422-.188c.09-.02-.293 1.957-.855 2.308-.27.172-.41.133-.64-.097-.16-.16-.887-1.254-.887-1.254l.62-.285c.755 1.11.755.574 1.04-.371ZM27.922 55.8c.246 0 .547.281.879.828.488.789.472.84-.328 1.066-1.442.352-1.98.434-1.535-.441.48-.941.667-1.45.984-1.453Zm4.293-.149.98 1.559c-3.972 9.266-10.36 15.906-19.148 19.918l-.016-1.54c10.36-5.41 14.617-11.812 18.184-19.937Zm26.883.715 3.109.055-.836 2.191-3.309-.027Zm-32.11-.148c-2.543 5.558-6.015 10.402-12.941 14.488l-.027-1.477c7.78-4.304 11.156-12.378 11.156-12.382Zm39.336.054c1.844.051 3.778 1.903 3.578 3.43-.14 1.074.082 1.871.399 1.43.703-.969 2.773-.32 2.75.847-.012.622-.461.723-.719.16-.379-.828-1.453-.85-1.613.02-.153.813.597 1.41 2.597 2.082 2.348.512 3.758 2.45 2.918 3.563-.289.297-.464.367-.52.215-.015-.043-.07-.274-.124-.512-.262-1.168-.871-1.656-1.61-1.258-.37.2-.324.465-.109.816.29.47.11.649-.406.41-.813-.374-1.078-1.269-.29-1.675.938-.344.618-.418-.577-.793-2.543-.809-3.633-2.278-3.762-5.082.05-1.274-.137-1.73-.79-1.906-.597-.16-1.273.535-.847.906.235.199.422.383.301.492-.398.352-1.387-.223-1.375-.84.008-.402.172-.484.828-.957.18-.133.027-.383-.238-.387-1.004.297-.93-.922-.39-.96Zm-5.77.313-1.558.824.809 1.043 1.722-.742Zm-30.273.762c.18 0 .324.132.324.297 0 .167-.148.3-.324.3-.18 0-.324-.136-.324-.3 0-.165.145-.297.324-.297Zm3.188.132c3.273 6.61 4.039 14.16 1.738 21.7l-8.848-10.64c3.41-3.524 5.707-7.56 7.11-11.06Zm-11.992.47-7.918 3.046-.055 5.465c4.426-2.77 6.305-5.613 7.973-8.512Zm7.605-.036c.781-.02.39 1.918-.621 2.578-.375.262-.625.23-.746-.297-.063-.273-.371-.847-.762-1.312-.457-.543-.453-.555.215-.594.734.012 1.34-.312 1.914-.375Zm-.773.824c-.575-.011-.747.239-.407.578.29.286.52.223.711-.187.121-.254.016-.387-.304-.39Zm-14.286 7.067.032-4.64 6.77-2.614c-1.364 2.707-3.88 5.39-6.802 7.254Zm60.11 3.843-.906.832-8.715-10.503.55-1.325ZM26.277 58.961c.293.004.953.941 1.141 1.613.137.496-.012.602-1.035.742-.426.106-1.574 0-1.48-.28.167-.407 1.269-2.079 1.374-2.075Zm31.645.156 3.187.04-.734 2.406-3.336-.051Zm1.41.149-1.488.945 1.172 1.066 1.574-.89Zm4.996 1.047 8.82 10.578c-2.644 3.082-5.28 6.629-7.02 11.316-3.132-6.785-4.269-13.383-1.8-21.894Zm-35.89.84c.18 0 .324.132.324.296 0 .164-.149.301-.325.301-.18 0-.324-.137-.324-.3 0-.165.145-.298.325-.298Zm-1.016.402c.55.035.027 1.652-.805 2.242-.656.465-.937.246-1.086-.606-.054-.304-.406-.828-.715-1.242-.343-.46-.199-.535.672-.347.614.109 1.367-.024 1.934-.047Zm29.531.441 3.344.024-.524 3.656Zm-32.566.117c.527.453 1.191 2.04.847 2.157-.394.128-2.191-.067-2.394-.254-.137-.133-.137-.133.156-.496.164-.2.473-.594.688-.883.195-.207.41-.774.703-.524Zm1.863.059c-.512.012-.543.078-.305.582.2.414.336.45.672.18.473-.375.278-.782-.367-.762Zm58.664.41.117 1.805c-12.86 5.847-17.699 19.699-17.765 19.699l-.93-1.602c5.918-13.37 13.766-17.234 18.578-19.902Zm-60.543 2.035c.762-.012.988-.062.98.2.008.703-.706 1.699-1.578 2.074-.585.25-.597.257-.664-.38a4.632 4.632 0 0 0-.496-1.62c-.086-.188-.418-.614 0-.493.418.122 1.278.227 1.758.22Zm1.715-.16c.18 0 .324.133.324.297a.31.31 0 0 1-.324.297c-.18 0-.324-.133-.324-.297 0-.164.144-.297.324-.297Zm-4.094.406c.137-.004.27.258.426.645.344.84.445 1.293.344 1.492-.157.305-2.266.105-2.621-.238-.07.047 1.554-1.73 1.851-1.899Zm1.516.211c-.301.016-.14.184.082.672.156.336.363.39.605.156.32-.316.364-.566.164-.703-.3-.11-.52-.125-.851-.125Zm61.484 1.922.012.606c-.5-.141-.809-.336-1.379-.512-.352-.11-.559-.188-.246-.524.484-.53 1.004-.863 1.594-1.191l.004.684c-.946.382-.856.738.015.937ZM47.86 66.32l3.547.008-.004 2.156 2.778.008-.22 2.457-2.562-.004-.003 2.16-3.551-.007.004-2.157-2.535-.004.21-2.46 2.332.003Zm8.016.024c-1.813 8.199-.18 16.91 2.578 24.011l-1.398.141c-2.153-5.68-3.856-13.762-2.086-24.152 0 0 .625-.008.906 0Zm26.344.199c.18 0 .324.133.324.3 0 .165-.145.298-.324.298-.18 0-.324-.137-.324-.301 0-.164.144-.297.324-.297Zm-62.442.59c.118-.004.477.14.797.222.485.125.863.18 1.301.188.883.016 1 .008.617.676-.273.48-.89 1.117-1.32 1.308-.613.301-.848.258-.809-.293.004-.375-.172-1.027-.398-1.492-.18-.363-.383-.605-.188-.61Zm3.73.27c.18 0 .329.132.329.296-.004.164-.148.301-.328.301-.18 0-.324-.137-.32-.3 0-.165.144-.298.32-.298Zm59.723.054c.25-.004.68.137 1.07.313 1.04.468 1.009.574-.398 1.492-1.023.71-1.265.789-1.297-.336-.035-.946.075-1.457.625-1.469Zm-63.984.172c.41.004.863 1.98.492 2.156-.578.274-2.363-.265-2.351-.715 0-.148 1.675-1.445 1.86-1.441Zm62.746.02c.246-.012.278.167.254.796-.012.332.047.875.074 1.13.051.527 0 .562-.449.327a4.171 4.171 0 0 0-1.512-.449c-.52-.043-.558-.242-.398-.558.465-.7 1.297-1.192 2.031-1.247Zm-61.219.195c-.359 0-.27.176-.05.672.16.347.433.382.715.086.394-.418.316-.641-.254-.723a6.739 6.739 0 0 0-.41-.035Zm60.739.57c-.149.012-.352.121-.45.18-.34.195-.476.336.012.488.438.14.668.2.633-.144-.02-.211 0-.512-.195-.524Zm-33.313.203-.004 2.149 2.825.004.003-2.149Zm30.79.235c.179 0 .323.132.323.296 0 .168-.148.301-.324.297-.18 0-.324-.132-.324-.297 0-.164.145-.296.324-.296Zm-52.9.25 8.895 10.554-.593 1.371-9.16-11.14Zm58.958.046.016 1.375c-1.008.68-7.41 4.938-10.735 12.118l-1.734.675c2.453-6.18 7.676-11.468 12.453-14.168Zm-67.817.473c.582.164 1.133.535 1.68.606.633.07.848.035.676.332-.383.671-1.106 1.37-1.863 1.601-.547.164-.801.102-.715-.21.16-.583.187-1.06.168-1.59.086-.29-.18-.696.054-.739Zm-.68.121c.368.293.294 2.137-.12 2.531-.22.207-.844.016-1.782-.476-.613-.32-.726-.516-.421-.711.52-.29 2.043-1.41 2.324-1.344Zm63.688.145c.192-.004.43.027.715.086 1.113.234 1.36.468.41 1.16-.351.254-.722.57-.828.695-.512.574-.867.156-.976-.89-.075-.731.043-1.149.68-1.051Zm-1.39.097c.18 0 .293.086.289.293-.004.262.199 1.407.316 1.723.2.535.05.656-.43.422-.347-.176-1.277-.309-1.78-.274-.571.04-.555-.101-.388-.543.301-.78 1.45-1.625 1.993-1.62Zm-61.075.282c-.218 0-.226.27-.082.886.047.196.23.184.579-.039.41-.265.394-.43-.067-.687-.191-.106-.332-.16-.43-.16Zm2.524.07c.18 0 .324.133.324.3 0 .165-.144.298-.324.298-.18-.004-.32-.137-.32-.301 0-.164.144-.297.32-.297Zm57.492 1.25c.152.14.727.133.824.05.153-.128.082-.726-.043-.796-.32-.102-.976.523-.78.746Zm-53.508 1.05c.192.852 1.492.81 1.348-.081-.086-.52-.106-.508.18-.496 1.34.062 1.105 2.011-.442 1.859-.324.035-.367.156-.094.262.27.105 1.309.351 1.47.351 1.683-.004 4.109 2.383 4.042 4.5-.039 1.383.465 2.38.988 2.492.415.09 1.016-.253.965-.675-.074-.586.442-.403.739.015.453.582-.133 1.418-1.211 1.352-.461.082.336.351.925.508.536.03.082.636-.02.746-.3.32-1.292.074-2.07-.508-.953-.711-1.359-1.664-1.468-3.531-.07-1.203-.168-1.45-.551-.953-.684 1.105-2.316.562-2.516-.606-.113-.621.477-1.066.668-.504.504 1.164 1.743.887 1.543-.27-.129-.761-.957-1.187-2.593-1.613-1.97-.515-2.555-1.136-2.934-2.625-.168-.656-.14-1 .234-1.343.188-.172.426-.344.426-.344s.262 1 .371 1.465Zm51.5-.863c.18.004.324.137.324.301-.003.164-.148.297-.324.297-.18 0-.324-.133-.324-.297 0-.168.145-.3.324-.3Zm-61.793.184c.586.2 1.09.488 1.692.68.39.12.285.41-.121.82-.454.492-.903.734-1.528 1.008l.008-.832c.762-.246 1.25-.828-.031-1.02Zm63.317.566c.222.004.535.012.906.082.934.18 1.043.258.48.86-.207.226-.52.562-.687.754-.555.707-.852.46-1.11-.453-.316-.957-.386-1.325.41-1.243Zm-60.39.247c.179 0 .323.132.323.296 0 .164-.144.297-.324.297-.18 0-.324-.133-.324-.297 0-.164.144-.296.324-.296Zm59.448.742c.086.304.223.687.325.96.503 1.032.183.633-.723.54-.61-.063-1.582.031-1.824-.125-.106-.125-.008-.457.191-.828a3.085 3.085 0 0 1 1.152-1.176c.946-.399.727.113.88.629Zm-54.582-.453 10.16 12.418-.8 1.046-10.45-12.765Zm63.817.148c-5.301 3.516-7.34 7.79-7.754 8.348l7.765-2.746Zm-10.11.39c-.289.071-.707.567-.527.762.105.102.535.114.738.047.317-.105.102-.812-.21-.808ZM30.844 86.935l-2.176 2.515-11.273-13.484 2.855-1.89Zm54.187-13 .07 4.629-6.64 2.539c2.227-3.454 4.41-5.59 6.57-7.168Zm-45.386.32 2.652 3.195-3.246-.074Zm33.617.316c.175 0 .32.133.32.297 0 .164-.144.297-.324.297-.176 0-.32-.133-.32-.297 0-.164.144-.297.324-.297Zm1.945.758c1.215.016 1.621.078 1.266.629-.473.535-.75 1.047-1.266 1.543-.297.277-.668-.297-.977-1.219-.25-.742-.12-.93.352-.933.477-.004.559-.02.625-.02Zm-1.406 1c.097.293.332.777.515 1.07.184.297.391.622.38.68-.032.137-.176.149-.497.035-.691-.289-2.32.016-2.363-.129-.242-.316.125-1.183.809-1.78.335-.294.64-.481.816-.485.18-.004.21.222.34.61Zm-56.797-.32 11.473 13.777-.797.89-11.602-14.038s-1.84.824-2.379 1.097l.059 7.118-.313-.016-.023 36.035 6.43-5.883-.04-24.453c1.36 1.184 2.524 2.445 4.079 3.602l2.668-.012c6.98-6.516 10.804-12.098 11.66-22.098.574-6.691-1.824-15.109-8.211-23.273l-1.563.871 3.078 4.293-6.546 2.66c-2.614 5.055-5.711 9.723-11.368 12.387l-.043 6.547-.097.136.07 2.059Zm56.219.562c-.305.02-.782.625-.567.832.258.114.656.11.824-.093.114-.2.086-.621-.257-.739Zm-34.305 1.36 3.379.023-.89 2.668-3.29-.062Zm32.078.043c.18 0 .324.132.324.297 0 .164-.144.296-.324.296-.18 0-.32-.132-.32-.296 0-.168.144-.297.32-.297Zm-17.203.05.43 3.47c-3.684 1.226-7.66 3.312-11.141 7.155-.594-.039-5.332.028-5.332.028.121.015 4.402-7.399 4.902-10.621Zm-13.375.301-1.55.98 1.206 1.188 1.606-.996Zm32.23.067c.329 0 .77.039 1.122.097.57.102.656.114.464.547-.261.574-.84 1.61-.988 1.695-.523.297-1.68-1.847-1.285-2.218.105-.075.328-.117.687-.121Zm-1.484.656c.148-.012.348.258.406.488.075.281.598.988.93 1.328.418.426.395.489-.203.532-.711.05-1.41.175-1.809.312-.625.207-.707.16-.629-.512.125-1.007.856-2.113 1.305-2.148Zm-.55 2.086c.077.195 1.042-.16 1.097-.395-.008-.105-.387-.715-.613-.742-.387.055-.551.86-.485 1.137Zm-32.587-.188 3.192.032-1.051 2.421-3.156-.015Zm1.43.325-1.531.89 1.187 1.063 1.469-.93Zm32.457.492c.27 0 .559.023.617.113.172.258-.523 1.695-.523 1.695l-1.125.41c-.242-.46-.656-.937-.754-1.433-.04-.219.078-.297.34-.434.39-.199.992-.347 1.445-.351Zm-3.012.113c.176 0 .32.133.32.297 0 .164-.144.297-.324.297-.175 0-.32-.133-.32-.297 0-.164.145-.297.324-.297Zm-14.558.016s.683 3.593.722 3.195c-5.328 1.84-8.445 4.559-9.925 7.215l-9.989-.024 2.235-3.18 5.914-.019c2.863-3.191 6.394-5.73 11.043-7.187Zm-1.278.843-.496 1.45 1.489.879.566-1.555Zm16.36.055c.125-.012.25.188.508.606.187.312.437.761.437.761l-.45.153c-.355-1.133-.687-.711-.73.289l-.609.222s.066-.965.418-1.527c.2-.324.313-.492.426-.504Zm-32.559.941 3.098.04-1.3 2.468-3.145-.086Zm13.5.22-.25 1.831 1.668.328.23-1.742Zm-12.183.003-1.532.906 1.004 1.22 1.473-.911Zm9.789 1.617-.317 1.692 1.563.328.355-1.7Zm-33.98.047 3.905 3.578.168 24.93-3.898 3.59Zm21.288.945c-.015.02 3.121.09 3.121.09l-1.257 2.082-1.075-.043 1.414-.886-.902-1.067-1.453.867.809 1.079-2.118-.043Zm20.188.653 1.054 3.234-1.277.203-.953-3.047c.39-.183.781-.277 1.176-.39Zm-10.043.183.02 1.942 1.706.137.07-1.82Zm8.48.325.965 3.074-.809.21-1.156-2.917c.317-.172.649-.3 1-.367Zm-1.48.632 1.242 3.008c-1.727.645-3.52 2.02-4.867 3.395-1-.676-1.586-.75-2.203-.903 1.707-2.914 3.715-4.44 5.828-5.5Zm-18.86.723 3.286.098-2.29 3.136-3.714-.011Zm9.774.133-.219 1.836 1.758.96.27-1.886Zm-2.117.254-1.254 1.215 1.324 1.398 1.219-1.457Zm-2.797.058-1.485 1.254 1.176 1.418 1.36-1.422ZM19.52 90.664l.097 24.352-5.46 4.859-.04-1.309 4.344-4.164c.02-8.238.008-16.472-.008-24.71Zm14.507-.762-1.511 1.887 1.789.008 1.297-1.832Zm-9.308 11.77c-.598 1.965-3.34 4.094-3.387 4.058 1.352 1.79 1.3 4.34.105 5.598.004-.031 2.172 1.637 2.477 2.5.172.344.238.762.457 1.102.059.09.242.316.242.316 5.317-4.95 2.801-10.762.106-13.574Zm.078.512c5.144 5.898 1.734 11.28-.067 12.785l-.34-.524c3.837-4.093 2.223-9.132-.003-11.52Zm-.559 1.144c.035.098.235.375.086.356l-.258-.047Zm-.039.66c.11 0 .203.032.254.102.106.16-.43 1.515-.758 1.2-.097-.18-.215-.337-.304-.52-.11-.223-.04-.329.207-.547a.945.945 0 0 1 .601-.235Zm.738.367c.262.02.63.774.665 1.313.015.059-.88-.129-1.118-.379.028-.223.254-.785.453-.934Zm-2.015.614c1.547 2.875 1.445 5.12.074 7.18l-1.07-.844c.722-1.567 1.082-3.243-.125-5.38Zm1.043.719c.11-.008.441.039.734.124 1.035.31 1.074.934.074 1.391-.414.192-.543.106-.78-.851-.118-.473-.204-.649-.028-.665Zm2.004 1.105c.199 0 .293.348.316.95.02.57-.11.612-.61.206-.538-.441-.628-.547-.136-.906.145-.106.34-.25.43-.25Zm-1.418.941c.101-.007.387.16.668.356.707.5.55.844-.258 1.082-.559.164-.531.187-.516-.703.008-.442-.02-.727.106-.735Zm9.398.825c-.867.199-1.23.914-.945 1.554.129.29.328.293.098.473-.262.273-.403.914-.118 1.148.34.18.426-.129.07.473l-6.55 11.035 39.183-.004-4.69-8.133c.007-.011.378-1.34-.376-1.5-.242-.054-.379-.261-.43-.457.063-.566-.214-.808-.449-1.101-3.726.48-6.96.234-9.633-.324-3.847-.805-6.597-2.192-8.386-2.625-2.465-.606-5.442-.868-7.774-.54Zm2.114.078c3.035-.012 6.43.851 8.808 1.804 2.465.942 5.078 1.645 7.719 2.008 2.18.258 4.355.133 6.441-.015.227-.032.461-.004.633.164.43.445.137.718-.945.808-1.739.133-3.89.07-5.797-.195-3.024-.324-6.227-1.172-8.992-2.234-3.453-1.2-6.625-1.606-9.137-1.254-1.375.191-1.578.218-1.574-.121.011-.665.613-.97 2.843-.965Zm-9.954 1.914c-.132.281-1.078-.645-1.066-.903.02-.117.785-.574 1.09-.761.144-.102.137-.047.137.074.003.348-.028 1.246-.16 1.59Zm-1.453-.684c.438.055 1.149 1.14.52 1.305-.559.148-1.067.246-1.137-.102.29-.847.398-1.183.566-1.199.016-.004.036-.004.051-.004Zm25.332 3.742c2.782.446 6.43.72 8.817.551 1.367-.125 1.656-.086 1.648.442-.008.328.031.32-1.734.316-1.465.086-2.785-.059-4.207-.129-2.938-.14-5.61-.61-8.075-1.402-2.734-.657-5.105-1.918-7.785-2.18-2.457-.227-4.664.168-5.129.406-.156-.004-.234-.215-.226-.41a.574.574 0 0 1 .258-.465c7.047-1.62 10.808 1.887 16.433 2.871Zm-24.414-2.207c.235.004.16.325-.226 1-.328.575-.457.57-.641-.02-.195-.632-.176-.698.215-.792.23-.05.426-.16.652-.188Zm-1.644.32c.273.005.664 1.153.46 1.368-.156.168-.73.055-.898-.149-.265-.324.078-1.226.438-1.218Zm12.308.329c1.094-.008 2.18.101 3.184.261-.578.196-1.152.376-1.75.692a10.738 10.738 0 0 0-1.434-.953Zm1.418 1.394c3.864-1.976 5.489.766 6.047 1.207 3.375-.683 4.035-.343 5.914 1.532 3.383-1.516 5.016-.22 6.426.601 1.656-1.422 3.758-1.457 4.848-.738.203.312.488.715.511.832.016.094-.136-.016-.515-.266-1.985-1.312-5.282.313-4.403 2.04.235.464.2.663-.156.85-.504.313-1.121-.21-.77-.741.587-.883.149-1.63-1.277-2.317-2.004-.968-5.285.11-4.613 1.535.43.457.031.778-.54.758-.644-.02-.862-.418-.448-.84.515-.543.383-1.093-.22-1.722-1.796-2.367-5.444-1.434-4.964.636.211.516-.394.723-1.02.493-.398-.145-.335-.711.102-.91.5-.047.57-.715.512-1.145-.086-.625-1.082-1.242-2.07-1.57a4.859 4.859 0 0 0-1.907-.246c-1.11.093-1.73.785-1.547 1.824.106.613-.082 1.246-.863.91-.426-.188-.32-.633.117-1.043 1.54-1.375-1.547-3.063-3.414-1.906-.316.238-.547.281-.547.281 1.172-2.68 4.832-.164 4.797-.055Zm5.086-.351 2.328.812c-.539.098-.918.235-1.297.375Zm-6.09.863c-2.152-.379-2.273 1.832-.87 2.195-1.934 2.438 3.113 3.395 2.195.383 2.554.426 2.097-2.258.195-2.234.45-1 3.957-.235 3.805.508-2.375.226-1.43 2.222-.403 2.226-2.488 2.16 2.48 4.164 2.352.899 1.996.39 2.234-2.047.316-2.211.707-.907 3.211-.332 3.903.71-1.977.239-1.856 1.84-.31 2.102-1.968 2.297 2.86 3.156 2.364.48 1.73.551 2.684-1.574.442-2.187 2.3-1.258 4.789.625 4.52.664-2.622-.148-2.102 2.274-.208 2.145-1.21 2.511 3.57 2.656 2.363.05 2.153.04 1.965-2.257-.093-2.414 1.3-.867 2.761-.941 3.703-.125-1.965.473-1.153 2.575.82 1.997.18 1.753 1.73 1.386 1.766 1.332l1.383 2.386-37.598-.004 3.219-5.449c1.898.09 1.832-1.59 1.75-1.633 1.261.832 2.62-1.226.777-1.82 1.508-1.453 3.742-.105 3.61 0Zm-12.242-.172c-.078.07-.098.117-.226.004-.329-.344.566-.371.226-.004Zm7.774.926c.168.125.05.465-.082.582-.34.332-.454.309-.157-.27.09-.175.172-.316.239-.312Zm16.472.18 1.953.437-.93.48a11.01 11.01 0 0 0-1.023-.917Zm6.11.734 2.125.129c-.282.176-.559.34-.903.66-.265-.262-.773-.527-1.222-.789Zm7.078 2.008c.117.226.586 1.02.539 1.039-.688.11-.867-.832-.54-1.04Zm0 0" style="stroke:none;fill-rule:nonzero;fill:#100f08;fill-opacity:1"/></svg>