<svg xmlns="http://www.w3.org/2000/svg" width="174" height="32" fill="none"><path fill="#fff" d="M30.352 3.665H48.45v4.053H35.06v5.916h8.917v4.052H35.06v6.61h13.804v4.053h-18.51V3.665Z"/><path fill="#fff" d="M48.45 10.805h4.817L57.48 23.03l3.908-12.226h4.666l-6.469 17.544h-4.321L48.45 10.805ZM66.204 19.618c0-5.359 3.758-9.14 9.139-9.14 5.34 0 9.11 3.795 9.11 9.14 0 5.277-3.839 9.07-9.22 9.07-5.34 0-9.029-3.726-9.029-9.07Zm13.515.109v-.15c0-3.346-1.651-5.359-4.362-5.359-2.753 0-4.404 2.013-4.404 5.359v.15c0 3.277 1.61 5.208 4.321 5.208 2.753 0 4.445-1.944 4.445-5.208ZM87.468 3.325h4.707v25.024h-4.707V3.325ZM95.74 21.318V10.805h4.665v10.254c0 2.34 1.129 3.713 3.234 3.713 2.45 0 3.468-2.04 3.468-5.06v-8.907h4.666v17.544h-4.666V25.86c-.935 1.822-2.559 2.829-4.858 2.829-4.019 0-6.51-2.829-6.51-7.371ZM116.92 23.698v-9.18h-2.518v-3.713h2.518V7.486l4.556-2.53v5.835h3.496v3.713h-3.537v8.731c0 .857.412 1.224 1.279 1.265h2.065v3.835h-3.606c-3.427-.177-4.17-1.727-4.253-4.637ZM127.986 3.733h4.858v4.501h-4.858V3.733Zm.068 7.072h4.707v17.544h-4.707V10.805ZM135.775 19.618c0-5.359 3.758-9.14 9.139-9.14 5.34 0 9.111 3.795 9.111 9.14 0 5.277-3.84 9.07-9.221 9.07-5.34 0-9.029-3.726-9.029-9.07Zm13.502.109v-.15c0-3.346-1.652-5.359-4.363-5.359-2.753 0-4.404 2.013-4.404 5.359v.15c0 3.277 1.61 5.208 4.321 5.208 2.753 0 4.446-1.944 4.446-5.208ZM156.998 10.805h4.665v2.856c.936-2.04 2.67-3.237 5.189-3.237 3.881 0 6.166 2.57 6.166 7.398V28.35h-4.666V18.094c0-2.448-.936-3.712-3.124-3.712-2.216 0-3.579 1.781-3.579 5.059v8.921h-4.665l.014-17.557ZM19.37 5.936C15.116.401 7.395-1.164.981 2.223 3.487 7.786 5.36 14.327 17.704 14.708c1.445.04 3.042 0 4.79-.136-.248-3.495-1.404-6.392-3.125-8.636ZM17.099 17.32c-7.432.366-10.914 3.032-13.089 6.337-1.28 1.945-2.105 4.093-3.028 6.12 9.001 4.746 20.63-.259 21.512-12.363-1.996-.15-3.799-.176-5.395-.095Z"/></svg>