<svg xmlns="http://www.w3.org/2000/svg" width="99" height="140"><path d="M9.298 719.743h215.404c4.93 0 8.92 4.005 8.92 8.938v314.362c0 4.934-3.99 8.938-8.92 8.938H9.298c-4.93 0-8.92-4.004-8.92-8.938V728.681c0-4.933 3.99-8.938 8.92-8.938Zm0 0" style="fill-rule:nonzero;fill:#fff;fill-opacity:1;stroke-width:.755906;stroke-linecap:butt;stroke-linejoin:miter;stroke:gray;stroke-opacity:1;stroke-miterlimit:4" transform="matrix(.42308 0 0 .42042 0 -302.435)"/><path d="M11.262 10.996c0 .957-.063 1.652-.196 2.086-.222.754-.703 1.313-1.433 1.676-.582.293-1.278.441-2.094.441-1.66 0-3.074-.562-4.242-1.683l2.07-1.493c.774.676 1.473 1.012 2.102 1.012.43 0 .707-.207.832-.617.054-.18.082-.512.082-1.004V3.285h2.879ZM87.738 129.004c0-.957.063-1.652.196-2.086.222-.754.703-1.313 1.433-1.676.582-.293 1.278-.441 2.094-.441 1.66 0 3.074.562 4.242 1.683l-2.07 1.493c-.774-.676-1.473-1.012-2.102-1.012-.43 0-.707.207-.832.617-.054.18-.082.512-.082 1.004v8.129h-2.879Zm0 0" style="stroke:none;fill-rule:nonzero;fill:red;fill-opacity:1"/><path d="m85.172 21.145-5.14 3.078-.075 3.582c-3.043-1.336-4.367-3.528-4.844-6.098-.863.996-.695 6.027-.695 6.027-.781.375-1.07.86-1.57 1.301.492.742 1.879 2.004 1.879 2.004-.008-.023-.641 5.238.117 5.45.695-2.247 1.62-4.204 5.027-6.259 0 0 .043 8.348-.183 16.418-1.438-.906-4.481-2.53-6.446-4.199 2.555-3.02-.043-6.945-3.847-4.328-2.465-1.219-2.84-7-3.446-10.027-.117-.606-.691-2.387-.691-2.387s-8.121-2.047-11.613-1.871c2.925 6.996 2.347 15.531-10.625 17.156-6.215 2.617-13.399 5.535-20.38 10.973-1.296 8.082-5.843 12.07-9.054 14.277.02 3.274-.031 6.516.113 9.82-.004.02 2.93-1.769 3.39-1.44 2.438 14.597 11.407 17.476 10.513 17.882-.149.066-2.946 2.707-2.946 2.707l-10.945-6.594c-.383 10.098-.176 20.395-.027 30.508 1.933-1.008 5.488-3.41 5.488-3.41l.058-3.438c-.015-.324 4.977 2.856 4.985 6.653.39.242 1.25-5.47.473-6.082l2.05-1.942-2.203-1.945s.563-3.234-.582-5.094c-.742 4.266-4.601 5.602-4.601 5.602s-.063-15.582-.16-15.594l6.878 3.98c-.511.098-1.828 2.336-.46 4.145.831 1.102 3.824 1.02 4.058-.25 4.23 3.613 2.594 7.938 4.441 13.066l12.012 2c-4.945-8.414.438-18.02 10.16-17.351 1.82-.7 3.473-1.707 3.473-1.707s-1.211-1.809-2.734-3.488l-20.81-.278 9.72-16.695-6.383-.176s5.195-10.094 4.078-10.902c-.395-.285-.227-3.535-.227-3.535l5.7.183c.226-2.328-2.746-11.191-6.95-16.984l23.391.152-13.184 16.86 7.07.175-4.226 7.957.672 6.196-6.277.199c1.074 8.594 8.027 17.637 10.472 20.426 4.047-.887 11.61-6.2 16.297-9.504.614-5.77 2.785-10.684 8.45-14.356l.027-9.496s-3.235 1.918-3.23 1.785c.011-2.054-1.153-6.328-3.301-10.14-2.309-4.086-6.102-7.785-6.977-8.016 2.012-2.789 2.871-3.039 2.84-3.086l10.93 6.414ZM30.027 41.488s-2.125.746-3.972.727c-3.313.164-5.84.414-7.188 2.906-.273.758.324 1.04.766 1.234 2.5-2.847 9.129.899 10.394-4.867ZM15.312 54.563c0 .398.489 1.054.735.374.215-.488.258-1.277.02-1.761-.665-.34-.743.992-.755 1.386ZM51.169 68.25l-3.234.02-.024 3.48 3.297.137Zm31.754 17.273c-.07.344-.422 1.899.367 1.63.934-.66.145-3.684-.367-1.63Zm-3.05 8.743c-.384-.508-1.567.761-2.536.812-4.309.219-7.484-.305-8.023 3.828 2.484-1.457 5.964-.8 8.21-1.273 1.622-.5 3.485-1.848 2.348-3.367Zm0 0" style="stroke:none;fill-rule:nonzero;fill:#e2cf00;fill-opacity:1"/><path d="M13.105 123.852c-.449-36.243-.187-72.02-.015-107.86l72.95.242c-.298 35.77-.38 71.649.105 107.774Zm3.184-69.735c.063-1.035-.402-1.465-.805-.75-.097.168-.41 1.969.332 2.028.489.039.446-.833.473-1.278Zm-1.184 1.219c-.003-.246-.168-.352.2-2.48-.696-.247-1.297-1.282-.79-1.934.2-.258.141-.313.06-.527-.2-.528-.095-.961.445-1.297.343-.22.355-.278.246-.559-.282-.73-.016-1.445.75-1.691.527-.172.425-.196.48-.5.125-.692.543-1.106 1.297-1.04.7.063.746.063.805-.25.168-.867 1.316-1.82 2.816-2.464.742-.32 1.977-.551 4.34-.551 1.351-.023 3.039-.191 3.988-.957.156-.133.375-.484.45-.438.175.114.132.977-.215 1.766-1.008 2.297-2.375 2.934-6.227 2.918-1.152-.047-2.844.098-3.563.77-.214.207-.355.406-.277.511 1.598.203 3.238.864 4.188 3.75 2.898-1.886 7.515-4.781 13.246-7.398-.688-3.45 2.582-3.988 4.41-3.305 0 0 .047-.226-.024-.488a2.535 2.535 0 0 0-.507-1.016c-.082-.156-.598-.449-.496-.683.168-.387.093-.493-.258-.848-.227-.227-.078-.719-.02-.918.07-.371.336-.898.102-1.098-.36-.304-1.598-.824-2.23-1.238-.704-.469-.72-.89.316-2.434.468-.898.914-1.863 1.289-2.507.566-.977.625-1.617.281-2.176-.445-.73-.371-1.594-.36-1.574 0 0-4.226-5.512-5.968-7.676l-19.793-.024-.234 41.497 3.53-2.993-.921-1c-.133.582-.012 1.153-.797 1.188-.27.008-.516-.094-.559-.336Zm11.711 55.309c.114-1.641-.738-4.329-2.027-6.184.055 1.41.164 3.14-.148 4.52Zm31.23 4.222c-.155-.043-1.456-.113-2.273-.152-2.703-.13-4.46-1.313-5.628-2.957-.29-.406-.168-.387.468.07 1.793 1.285 3.477 2.05 4.953 1.856 2.09-.278 3.22.421 2.93 1.242-.05.144-.07.054-.45-.059Zm-7.085-3.644c-.418-.332-.45-.485.047-.18 1.52.922 3.351 2.434 5.62 1.543.47-.277.036-.242-.75-.164-1.202.121-2.667-.438-4.468-1.574-.879-.555-.492-1.028.5-.59.305.133.613.23.813.242.976-.594 3.027-.594 2.976-.59.235-.183-.531-.476-1.672-.867-.738-.254-.918-.36-.367-.383.48-.015 1.238.203 1.785.528.91.535 1.371.832 1.645.863.445.035.902.09.133.418-.348.148-.317.187-.278.547.063.562.098.554.38.87.476.481.683 1.376.003.817-.144-.062-.16.059-.558.207-2.352.613-4.098-.332-5.81-1.687Zm4.336.152c.133-.16.328-.566.355-.676-.043-.261-.297-.18-.425-.031-.223.246-.528.61-.278.73.121.059.239.11.348-.023Zm-.8-.172.523-.851c-.13-.055-1.899.28-1.622.515.247.203 1.098.336 1.098.336Zm1.991-2.863c-.804-.395-1.039-1.246-.437-1.813.508-.476 1.367-.437 2.39.141.36.203.582.305.829.223.414-.141.574.07.539.367-.075.656-1.188.816-1.887.07-.926-.984-1.938-.293-1.64.422.148.363.44.418.777.555 0 .07-.336.148-.57.035Zm-3.668-4.395c1.336-.332 3.32.957 4.395.778.465-.09.398.527-.086.75-.566.261-1.367.086-3.074-.727-1.407-.691-2.543.465-1.606 1.324.2.172.496.278.856.262.476-.023.613.098 0 .242-.352.082-1.008-.047-1.325-.34-.753-.703-.566-2.054.84-2.289Zm-28.234-3.73c-.04-1.453.809-2.262.832-2.27l-5.992-3.718.074 14.902c2.973-1.738 3.95-3.918 4.121-6.734 5.863 6.015 4.024 13.355.356 17.539-.149-2.559-.977-5.579-4.364-7.118l-.008 3.047-5.625 3.668.032 3.367 13.226.016 6.403-8.578c-1.153-3.883-.977-7.113-1.758-8.89-.586-1.462-1.7-3.344-2.418-3.051-2.442 1.773-4.832-.286-4.88-2.18Zm5.047 1.71c2.074 1.368 2.625 3.61 3.05 5.602.016.016 1.087 6.75 1.118 6.84.14.371.094.738-.262 1.02-1.922 2.418-5.676 7.597-5.676 7.597l36.754.133c-1.957-2.613-3.488-5.195-5.347-7.344.078-.113-.145-1.582-.454-2.058-.32-.488-.394-.742-.175-1.192.539-1.101 1.09-2.3 1.586-3.312.953-1.938 1.062-1.957-.235-2.582-1.539-.82-1.812-1.086-1.488-2.024.117-.343.133-.48-.344-.566-.222-.043-.758-.16-1.117-.25-1.04-.297-.738-.113-1.121.133-.29.133-.535-.371-.875-.965-.39-.68-.488-.695.156-.348 1.195.653 3.317.395 2.57-.359-.363-.367-.703-.555-.664-1.387.04-.828.055-1.07-.558-1.183-1.223-.23-2.555-.13-3.696.132-3.468.801-6.257 3.567-7.312 5.618-.238.36.309.34.543.34 1.137-.094 1.941 1.566 1.195 2.312-.343.332-.687.129-.32-.305a.967.967 0 0 0-1.117-1.414c-1.153.305-1.188 1.668-1.332 2.621-.395 2.743 1.12 6.407 1.492 7.153 0 0 .082.113.055.113-.028 0-.211.152-.29.074-.265-.277-.937-2.52-1.3-4.12-.703-4.434.55-8.513 4.574-10.833 3.566-2.363 5.36-1.86 7.383-1.973.691-.23 1.648-.578 2.375-.906 3.566-1.789 6.453-3.316 9.484-4.832 2.938-1.472 4.91-3.574 7.598-4.887.125-.058.25-.199.375-.253 3.344-2.668 6.648-5.29 8.644-7.114.243-.226.442-.527.442-.527l-.324-15.363s-.336-.254-.332-.5c.003-.532-.215-.43-1.41.343-1.5.973-1.606.922-1.606.922-.785-7.047-4.938-13.972-9.973-18.015l.207-.258s1.688 1.015 2.528 1.5v-.985l-2.028-1.16s-.18-.133.016-.379c.11-.136.387-.039.387-.039l1.625 1.098v-.898l-1.313-.766.422-.488.703.418c-.297-.707.125-.684.559-.215.18.215.41.492.511.754.036.101.149.343.149.343l1.152.786s-.047-.383-.004-.5c.196-.559 1.586 1.238 1.41 1.28l1.18.778c.281-.39 1.332.383 1.375.77.09.164 4.067 2.504 4.067 2.504l.043-1.297.43-.512.222-29.926-5.285 3.102-.059 3.625c-2.496-.735-4.652-4.043-4.965-6.11-.164-.082-.89 4.079-.508 5.895-.66.453-1.773 1.504-1.761 1.512l1.996 2.004s-.403 3.07-.309 4.597c.078.723.094.797.332.801.192 0 .364-.191.364-.355.472-1.833 2.015-4.684 4.687-5.66.176-.008-.027 16.304-.027 16.304l-6.621-4.133c-.332-.261.43-.246.898-1.625 1.203-3.562-2.96-4.812-4.57-2.75-.266 0-1.367-1.25-1.535-1.773-1.223-2.262-1.454-4.828-1.692-6.887-.14-.933-.515-2.469-.824-3.39-.164-.497-.184-.852.176-1.31 1.644-2.038 3.234-4.175 4.617-6.26 1.266-1.524 1.02-1.599 1.02-1.599l-36.852-.042 5.883 7.105.597.21c-1.02.126-.675.942-.28 1.817.487 1.082.433 1.305-.806 3.532-1.812 3.265-1.91 2.98-.105 3.988 1.117.652 1.316.793 1.152 1.683-.164.891-.21.614.711.684.492.04.883.121 1.106.211.254.105.437.25.761.152.547-.164.559-.043.582.325.008.156.266.476.344.593.211.317.113.371-.273.149-1.184-.684-3.164-.387-2.438.355.301.309.602 1.324.63 1.832.042.907.687 1.227 2.034 1.04 2.59-.184 8.43-3.141 9.797-6.454-2.992.938-2.375-2.43-1.308-2.324 0 0-.29.598-.297.937-.035 1.204 1.066 1.293 1.824.442.328-.45.73-2.113.535-3.992-.234-2.274-1.238-4.817-1.422-5.446 4.27 9.356.34 13.477-5.676 16.176-2.3.887-2.617.88-3.972.942-.93.07-1.766.496-2.656.765C36 44 29.675 46.82 24.02 51.016c-4.06 2.765-7.286 5.246-10.493 8.433L13.5 75.97c.965-.137 2.527-1 3.453-1.496 1.055 6.168 4.508 13.304 10.238 17.566-.003 0-.136.234-.14.23-.817-.492-1.63-.988-2.422-1.367l-.043.785 1.93 1.215c.05.188-.332.453-.332.453l-1.59-1.007-.016.8 1.235.72c.332.304-.407.468-.407.468l-.726-.484s.05.386.027.457c-.191.59-1.242-.711-1.434-1.364l-1.035-.562c.145.387-.226.441-.52.344-.78-.36-.734-.97-.898-1.332l-1.379-.797c-.238 1.203-1.64-.493-1.418-.899l-1.77-1.101c.099.035-.675.18-.937.023-.3-.18-.406-.914-.406-.914l-1.058-.602-.004 1.055 10.914 6.973-.16.27-11.383-7.126.433 31.016 5.555-3.535c-.105-1.16.129-2.195.027-3.52 2.852 1.625 3.813 2.73 5.067 6.149.816-1.95.676-3.817.308-5.543.73-.551 1.442-1.082 1.809-1.91-.684-.864-1.355-1.106-2.078-1.907-.055-.98.574-3.898-.266-4.859 0 0-1.539 4.242-4.844 5.52-.093-4.477.028-15.727.028-15.727s3.394 2.14 5.125 3.012c.816.398 1.383.648 1.394.93.004.144-.324.327-.468.53-.086.13-.465 1.34-.32 2.286.066.699.425 1.14.769 1.472 1.086 1.059 3.082.555 3.875-.265Zm6.578-7.933 13.078-16.777c1.55 6.164 4.168 11.805 7.586 16.918Zm6.477-17.62s.914-1.661 1.332-2.54l-1.598.004.957-.988 2.383-.004-1.278 2.492h1.012l1.399-2.492 3.71-.008-1.3 2.492.855-.004 1.39-2.492 3.454-.004-1.219 2.492.809-.004.71-1.257.173 2.289-3.43.004 1.36-2.54-1.106.004-1.531 2.54-3.215.003 1.394-2.535H47.73l-1.53 2.54Zm10.585-8.946 1.387-2.684-1.094.004-1.535 2.629-3.422.004 1.348-2.598-.852.004c-.578.82-1.503 2.485-1.503 2.485l-3.63.007s1.028-1.765 1.434-2.629h-.894l-.73 1.067c-.259-.395-.087-1.453-.13-1.903l3.422-.007-1.379 2.578h1.094l1.5-2.578 3.613-.008-1.472 2.578h.855l1.461-2.438 3.676-.007-1.293 2.437 1.137-.004-.5 1.059Zm-3.375-4.668-.695.12c-.879-6.948-5.07-14.03-6.84-16.952l20.875.23Zm24.547-40.184s-1.992 2.352-2.129 6.29l1.899-1.395c-.117-3.996.23-4.895.23-4.895Zm-2.11 6.582c-.034 2.934.802 4.797 1.86 6.258.02-1.887.23-3.797.352-4.297Zm-51.733 56.16-6.747-4.25V82l8.016 4.98Zm-1.215-2.285c-1.805-.832-5.532-3.402-5.532-3.402v.855l5.93 3.809c.113.105.274.078.328-.04-.234-.358-.515-.85-.726-1.222Zm-1.653-3.699-3.875-2.477v.774c.993.816 4.262 2.754 4.262 2.754Zm-3.875-3.039 3.645 2.156-.223-.957-2.59-1.61Zm65.586-30.094.207-15.406c-3.8 1.652-4.558 6.46-4.433 6.613-3.778-3.57-5.2-11.277.113-16.472.398 1.664.531 4.074 4.281 6.273l.102-3.266 5.262-3.09-.04-3.706-12.617-.07c-1.96 2.277-3.918 4.87-5.855 7.284-.727.907-.91 1.332-.77 1.805 1.266 4.191 1.008 9.356 3.676 11.793 3.59-3.098 6.942 1.55 4.152 4.426Zm-54.578 66.727c.485 1.402.149 4.234.117 4.234.578-.289 2.157-4.39 1.766-5.933m18.332-75.278c-.895-.23-1.566-.582-2.508-.5-.742.074-.992-.152-.539-.523.59-.461 1.164-.649 2.262-.125 3.297 1.574 3.398-.735 1.914-.899-.422-.043-.402-.289.02-.23 2.304.082 1.597 2.883-1.149 2.277Zm-3.855-2.3c-.438-.149-.965-.391-1.157-.344-.492.125-.508-.125-.449-.414.14-.707.93-.582 1.969.023 1.488.867 2.062-.383.707-1.055-.457-.226-.317-.289-.05-.3.706-.028 1.37.851 1.183 1.574-.477 1.156-1.63.707-2.203.515Zm4.367-2.145c-.965-.152-2.36-1.34-3.008-1.418-.363-.04-.793.004-.906-.129-.36-.41.652-.414.718-.562.004-.348.028-.563.012-.68-.176-.223-.879-1.106-.851-1.535.015-.028.367.238.546.238 1.723-.836 2.899-.469 4.352.117.602.242 2.148 1.34 2.168 1.516.031.293-.656-.258-1.195-.59-1.328-.844-2.524-1.445-4.192-.938-.261.082-.215.125.637.075.836-.047 1.52.187 2.586.824.266.156.586.426.777.512 1.34.582 1.633 1.16.778 1.003-.18-.035-.536-.207-.883-.32-.613-.195-.399-.137-.988.117-.208.086-.708.274-1.118.32-.312.048-1.328.044-.879.438.477.438 1.27.758 1.813.957.394.16.09.125-.367.055Zm.117-1.91c.629-.215.137-.7-.664-.805-.184-.023-.574.77-.586.938-.004.125.906-.016 1.25-.133Zm-1.734.086c.144-.082.625-.723.628-.825 0-.41-.57-.296-.703.133-.164.52-.175.84.075.692Zm-2.004-3.305c-.52-.21-1.22-1.125-.418-.973.175.04 1.074.078 1.656.078 1.984.008 3.957.825 5.21 2.02.7.664.743 1.16.036.7-2.512-2.063-4.05-1.677-6.484-1.825Zm19.496 71.23-.703.344c.004.36.14.301.453.555 0 0-.43.062-.746.047-.512-.031-.63-.024-.403.304.106.153.246.38.246.38s-.277.054-.695-.047c-.633-.16-.957-.079-.719.242.067.09.196.257.196.257-.465-.093-1.313-.472-1.313-.472l-.597.168c1.19 2.137 5.44.781 4.28-1.778Zm20.73-3.09c.656-.507.34-1.124-.62-1.578-.4-.187-.36-.19-1.009.16-.797.43-.855.454-.285 1.005.684.664 1.43.785 1.914.414Zm-2.437-1.425c.605-.246.379-.203.34-.781-.176-.668.234-.715.441-1.34.082-.34-.23-.215-.84.308-.504.387-.656.485-.652.293.054-.156-.348-.558-.707-.613-.305-.047-.278-.11.023-.465.516-.613.73-1.387.383-2.07-.438-.86-.582-.988-1.55-.234-.497.421-1.2.746-1.54 1.265-.242.379-.101.75.281 1.496.957 1.871 2.434 2.707 3.82 2.14Zm3.394.012c1.067-.387.637-1.438-1.027-2.5-1.004-.637-1.285-.63-.434.062.543.441.63.602.395.918-.195.27-.403.582-.207.824.305.383.824.856 1.273.696Zm-59.972-1.645-1.16-.672-.004.922 1.16.633Zm58.027.727c.23-.153.43-.567.43-.754.054-.426-.707-.325-1.07.152-.407.531.074.965.64.602Zm2.602-1.454c.53-.511.273-1.05-.813-1.695-.418-.25-.633-.414-.582.086.016.152-.168.356-.285.473-.375.386-.207.457.863 1.078.547.316.52.344.817.058Zm-60.63-.867-1.16-.64v.832l1.16.718Zm-2.538.836.015-.836-1.504-.914-.023.934Zm59.16-.445c-.196.48.586.262.629.21.136-.241.015-.26-.051-.288-.137-.051-.668.031-.578.078Zm.34-.606c.265-.078.296-.046.261-.492-.054-.664.055-.719.54-1.011.382-.239.386-.204.382-.61-.008-.496.027-.707.738-.808.29-.043.454-.11.48-.317.04-.355-.577-.95-1.347-1.293-.113 0-1.832 1.375-2.312 1.852l-.293.289.351.601c.543.938.453 1.286.133 2.532-.066.332.215.285.285-.118.098-.375.157-.511.782-.625Zm2.62-3.328c-.132.758.294 1.223.7.844.219-.203.406-1.875.254-2.14-.828-.813-.922 1.113-.953 1.296ZM69.403 98.875c3.082-1.66 7.043-.316 9.274-1.676 1.043-1.054 2.09-1.726 1.5-2.449-.457-.566-.758-.652-.758-.652.035.043-1.625 1.324-4.031 1.035-4.012-.121-5.907 1.039-5.985 3.742Zm5.27-3.95c1.965.06 3.558-.257 4.289-.78.453-.325.523-.38-.188-.43-1.523-.113-3.066-1.73-3.546-3.3l-.215-.673c-4.063 2.977-13.008 7.676-13.008 7.676.59 2.527-1.41 4.043-4.113 3.148-.473-.039-.41.516-.325.746.149.372.477.684.54.735.402.316.476.527.417.828-.062.3-.054.29.172.402.407.2.387.485.164 1.07-.238.829-.257 1.036.391 1.426.832.493 2.465 1.024 2.223 1.762-.547 1.676-1.446 3.117-2.239 4.684-.293.433-.23 1.148 0 1.48.286.512.254 1.125.625 1.594 2.047 2.789 3.813 5.246 5.68 7.766l19.566.132-.445-41.375s-3.02 2.727-3.012 2.918c.012.23.707.59 1.008.633.012-.125 0-.613.04-.785.027-.25.898-.187 1.183.027.203.153.14 1.145-.067 1.95-.167.66-.144.668.165 1.05.375.461.507.856.457 1.383-.028.285-.028.512.062.703.211.446.149 1.078-.082 1.371-.336.426-.34.489-.27.72.274.784.172 1.456-.785 1.8-.125.043-.257.238-.336.406-.421 1.262-1.203 1.262-2.273.899-.762 2.714-3.848 3.402-6.07 3.324-2.317-.078-4.672.082-5.723 1.476.25-3.293 1.856-4.882 5.715-4.765Zm6.996-5.476c.39-.133.441-.511.11-.75-.508-.37-1.09.008-.852.543.133.301.36.34.742.207Zm-60.957-1.082-1.54-.976.009.875 1.535.902Zm2.91.715-1.09-1.2c-3.218-1.796-6.004-3.808-8.676-5.429l-.023 1.113.766.352s.066-.246.117-.387c.098-.265.98.48 1.262 1.078l.222.48 1.031.52s.016-.27.016-.343c.004-.57 1.106.21 1.61 1.14.12.227.28.465.28.465l.97.54c.382-.481 1.359.175 1.609.757.312.738.87.8.894.805Zm-5.808-.152.003-.852-1.605-.965-.023.864Zm66.195-.051c.043-.223-.2-1.094-.559-1.14-.226-.032-.578.284-.582.503 0 .285 1.094.88 1.14.637Zm-1.309-1.031c.352-.352-.09-.809-.629-.649-.636.192-.418.719.297.73.16 0 .254-.003.332-.081ZM17.73 87.34l.008-.813-1.484-.898-.031.797Zm-2.918-.281.016-.782-.976-.625v.938Zm.036-2.344-.996-.594v.848l1.039.543Zm4.05-2.586c-.101-.25-.523-1.043-.523-1.043l-4.516-2.887-.004.89 5.055 3.114Zm-2.109-6.871-.05-.363-.403.199Zm-.957.09-.633.316 1.91 1.137-.152-.813Zm66.332-9.715.492-.328-.867-.54-.066.547Zm.883-.524.648-.492-2.164-1.394.153.87Zm1.535-.734v-.598l-3.508-2.168.242 1.094c.618.324 1.375.8 2.164 1.313.5.32.5.445 1.102.359Zm0-1.11v-.945l-4.055-2.465.328 1.11Zm.004-1.421v-.996l-4.91-2.97.535 1.317Zm0-2.5-6.191-3.79.789 1.454 5.402 3.304Zm.004-1.453-7.774-4.727.871 1.324 6.899 4.27Zm0-1.54-.293-.003c-.024.68-.824.191-1.125-.559-.23-.5-.281-.625-.281-.625l-1.563-.969.121.762-1.054-.59s-.305-.933-.313-.937l-1.8-1.121c.034.191.066.507-.052.527 0 0-.546-.215-.796-.547-.262-.348-.301-.7-.301-.7l-1.469-.866-.367.035s-.2-.121-.383-.262c-.348-.57-.758-.656-1.246-.887 0 0 1.035 1.106 1.586 1.758a6.553 6.553 0 0 0 1.125 1.035l8.21 5.012Zm0-1.55-.633-.352.047.918.586.367Zm-64.043-1.906c.039-.055-.121-.122-.3-.48-.442-.892-.485-1.204-.247-2.142.113-.445-.328-.636-.535-.16-.156.371-.402.582-.64.555-.22-.027-.266.059-.173.34.118.39-.136.898-.496 1.035-.36.086-.426.297-.324.598.168.504-.422.93-.887.906-.718-.04-.437.562.426 1.129.32.21.465.324.715.219.656-.567 1.875-1.383 2.46-2Zm62.281 1.726-.035-.875-1.805-1.113.223 1.172Zm1.762-.371.004-.879-.746-.437.039.937Zm-67.957-1.238c.176.16.347.172.62.02.317-.153.196-.38-.136-.528-.308-.152-.742.305-.484.508Zm-.54-.387c-.023-.184.223-.434.395-.445.371-.02.305-.2-.12-.434-.2-.113-.552-.371-.68-.453-.633-.422-1.247.23-.778.781.395.461.977.73 1.184.551Zm66.56.426-.141-.973-1.63-.992.13 1.07Zm-59.274-2.266a.687.687 0 0 0 .105-.43c-.03-.609-.375-1.332-.859-1.933-.36-.445-.793-.828-1.234-1.055-1.246-.586-2.914-.328-2.672.43.172.512.133.941-.348 1.2-.324.175-.367.41-.023.41.25 0 .914-.212 1.191-.614.39-.563.613-.89.527.031-.039.383.016.356.664.32.883-.042.72.11.204.477-.75.531-.903 1.426-.524 2.188.235.472.395.722.7.66a17.99 17.99 0 0 0 2.269-1.684Zm56.394 1.031-1.605-.964.062 1.039 1.735.933ZM18.18 50.98c-.59-.68-1.282.192-.832.57.32.263 1.14-.007.832-.57Zm-1.39.098c-.075-.21.35-.55.417-.687.195-.395-1.547-1.489-2.086-.84-.375.449-.117.898.89 1.511.606.368.895.368.778.016Zm62.827-.77-1.48-.843.023.894 1.574.868ZM77 51.114l.004-.914-1.496-.953-.024.95Zm-58.102-.972c.27-.246.18-.328-.343-.301-.332.015-.434-.035-.457.105-.051.305.52.446.8.196Zm-1.242-.344c.028-.067-.16-.192-.468-.426-.583-.445-.649-.726-.086-1.078.8-.5-.04-1.207-.97-.918-.75.234-.753.93-.308 1.375.614.371 1.719 1.445 1.832 1.047Zm59.348-1.024-1.469-.921v.902l1.469.781Zm-59.07.168c.652-.308.687-1.074.035-.793-.274.118-.625.43-.63.575 0 .273.259.375.595.218Zm.48-1.761c.848-.422.719-.809-.125-1.293-1.031-.543-1.754.5-.906 1.207.445.37.547.324 1.031.086Zm1.102-.758c1.379-1.363 2.297-1.293 4.117-1.262 4.695.031 6.14-2.031 5.992-3.472-2.285 1.042-4.32.488-6.496.792-3.75.774-4.192 2.391-4.453 3.317Zm18.836-4.664c1.21.008 1.156.043.66-.871 1.18.148 1.652.664 1.265-.41.625.203 1 .359 1.645.554l.41-.218c-2.492-2.223-5.258-.333-4.531 1.91l.926-.407Zm0 0" style="stroke:none;fill-rule:nonzero;fill:#131f67;fill-opacity:1"/><path d="m44.36 123.082.581-2.578 5.176.223s.602 1.617.844 2.343Zm-11.95-.043 2.75-4.16 3.899.96-.903 3.255Zm7.582.05 1.188-4.44c-2.23-.446-4.336-.739-6.797-1.344l-4 5.797-2.403-.055c2.075-2.531 5.86-7.652 5.86-7.652 8.676 2.722 17.422 3.168 26.23 1.707 0 0 3.242 3.921 4.403 6.046l-2.29-.097-2.835-4.364c-1.98.204-3.93.446-5.996.532l1.41 3.844-2.27.003-1.285-3.836c-2.48-.082-4.562.098-7.531-.32l-1.051 4.172Zm16.375-.026-.777-2.731 2.793-.3s1.293 2.077 2 3.019ZM31.332 97.745c3.477-4.848 15.758-20.48 15.758-20.48l1.785.156S37.969 91.375 32.672 98.453Zm-17.707-7.5 4.273 2.817.012 21.992-4.351 2.812Zm17.793-36.008L34 58.883c-11.008 9.578-8.863 20.789-2.977 28.781 0 0-.761 1.79-2.425 3.691-7.97-4.804-10.383-17.335-10.32-17.468 8.792-7.203 9.98-9.496 13.14-19.649Zm44.926 34.176c.574-7.078 4.351-11.71 8.586-14.543l.207 7.195c-2.77 2.442-5.7 4.965-8.793 7.348Zm-11.485-7.11c9.645-8.265 9.985-19.984 2.973-28.574l2.875-3.683c4.07 3.988 8.059 8.168 9.75 17.898-6.11 4.422-11.508 11.72-12.95 19.078ZM51.594 71.73l-.016-3.37 3.606-.024-.106 3.367Zm-7.617-.011-.051-3.364 3.562.02-.058 3.406Zm6.175-9.012s11.957-15.352 16.653-20.89l.992.667L51.898 62.79ZM22.27 52.039c-.02 6.047-4.25 10.848-8.575 13.984l.067-6.886Zm62.773-29.3v26.847l-4.035-2.223.363-22.511Zm-19.238 1.624c-9.11-2.156-17.41-2.789-26.137-1.058-1.137-1.242-4.953-6.414-4.953-6.414l2.207.023 3.117 4.578 5.95-.722-1.528-3.727 2.45.004 1.218 3.656c-.012-.031 4.84.035 7.535.32.43-1.355 1.23-4.054 1.23-4.054l2.7-.008c-.348 1.297-1.282 4.383-1.282 4.383 2.211.277 6.313 1.226 6.352 1.27a148.264 148.264 0 0 0 4.086-5.606l2.633-.016c-.778 1.203-5.434 7.43-5.578 7.371Zm-1.68-3.215-4.023-.851 1.054-3.254 5.625-.016Zm-23.11-1.132L39.146 17l3.601-.008 1.191 2.656Zm8.176-.633-.546-2.403 6.542-.011-.671 2.562Zm0 0" style="stroke:none;fill-rule:nonzero;fill:#d40000;fill-opacity:1"/><path d="m34.238 16.805 5.809 7.687c.027-.023 3.262-.597 6.437-.746 3.16-.144 6.926.027 6.957.117 0 0 .993 2.75 1.329 4.098.44 1.805.394 3.883-.079 5.266-.687 2.02-1.05 2.625-2.59 4.015-1.14 1.016-2.753 2.121-4.413 2.715-2.305.883-2.54.879-3.895.941-.898.04-.988.07-1.48.305-.153.05-.25.195-.383.238-.114.036-.332-.004-.332-.004-7.48 3.02-13.34 6.383-17.77 9.383-.05.035-.082.192-.133.227-.363.273-.695.48-1.05.73-.047.032-.157-.027-.204.008-5.21 3.684-8.16 6.672-9.246 7.535l.09 17.121s2.371-1.12 3.586-1.804c.848 6.629 4.45 13.062 10.137 17.523l-2.473 3.13L13.16 88.12l.13 31.594 6.054-3.867.004-3.332c1.8 1.109 3.562 1.543 4.836 6.613 1.027-1.785.937-4.438.48-6.211.008 0 1.54-1.16 2.008-2.05l-2.246-1.825s.586-4.43-.473-5.32c-.84 2.011-1.512 4.144-4.648 5.703l-.024-15.39c1.559.905 3.04 1.925 4.582 2.85l.211-.038 1.598 1.004s-.168.312-.324.527c-1.946 2.703 1.289 6.012 3.922 4.012 1.03-.782 2.96 2.46 3.324 5.582.367 2.015.566 4.515 1.164 6.265.183.512.11.801-.285 1.11-2.02 2.605-6.078 7.855-6.078 7.855l2.921-.004.211-.308-2.152.004c1.855-2.266 3.629-4.907 5.555-7.118 7.168 2.461 18.91 3.012 26.004 1.496 1.46 1.883 2.882 3.856 4.289 5.77l-2.04.004.282.402 2.758-.004-5.805-7.836c-4.004 1.102-13.77.692-13.594.602 0 0-.027-.063-.363-.95-1.672-4.96-1.824-9.366 2.387-12.933 2.234-1.828 4.734-3.031 7.52-2.808 1.245-.028 1.269-.09 1.788-.305.285-.117.88-.242.88-.242l2.823-1.442.371-.07.817-.39.168-.184 1.312-.614.145.008 1.777-.937.024-.133.695-.395.168.16c.191.016 6.957-4.066 9.777-6.335l.176.058c3.293-2.449 7.773-6.308 9.102-7.773l-.063-7.328-.113-.09-.04-8.117-.253.004-.012-1.004c-1.457.496-3.058 1.742-3.168 1.691-.918-6.871-4.363-13.195-9.996-17.832l2.402-3.043 11.141 6.855.031-2.007h.14c.145-7.703.24-27.672.24-27.672l-.11-.012-.004-1.594-5.7 3.348-.081 3.371c-2.528-.754-4.125-3.531-4.653-6.012-.734.274-1.078 2.883-.808 6.192-.781.43-1.281.894-1.762 1.465.617.71 1.305 1.297 2.059 1.894-.157.313-.496 4.727-.164 5.274.152.402.675.343.68-.082.773-3.442 4.335-5.707 4.534-5.5l-.101 15.87-6.324-4.054c1.332-1.379 1.613-3.695-.059-4.828-1.676-1.137-3.32-.168-3.707.558-2.055-1.226-2.742-5.77-3.04-7.55-.073-.868-.312-2.04-.593-3.102-.172-.664-.383-1.3-.406-1.894-.012-.282.023-.403.3-.754l6.157-8.012-3.137-.004-.031.05h2.469l-5.551 7.231c-8.344-2.386-16.992-2.953-26.25-1.41l-4.566-5.89 2.082-.012-.082-.125Zm4.825.058.09.145 3.593-.016-.055-.12-3.629-.009Zm5.328.008.07.176 2.453.004-.078-.172Zm12.52.04-.024.081 2.699-.004.023-.078Zm-8.278.019.023.097 6.52-.011.023-.094Zm12.547.027-.024.086 5.625-.016.047-.078Zm23.734 4.36.016 1.085-3.782 2.211c-.097 4.645-.257 22.508-.257 22.508l-.907-.543.2-22.371s3.343-1.977 4.73-2.89Zm-9.918.89h.129l.04.254h-.224Zm.27.656.097.34h-.55l.09-.328Zm9.539.16-.004.707-3.262 1.875.004-.703Zm-10.067.61.856.008.14.39-1.074.004Zm-20.941.246.57.078c1.305 2.855 1.64 5.309 1.867 7.863.516 3.317 1.563 6.637 2.293 8.047l-.836-.004c-.097-.011-1.855-4.808-2.222-7.64-.098-.563-.059-1.086-.09-1.606-.184-2.191-.508-3.836-1.582-6.738Zm1.074.113.727.067c.507 2.03 1.246 3.945 1.547 5.984.476 3.262.73 6.594 2.445 9.805l-.68-.004c-1.039-2.172-1.683-4.442-2.094-6.89-.324-1.407-.328-2.462-.496-3.731-.207-1.528-.847-3.465-1.449-5.23Zm1.106.094.726.098c.477 2.015 1.297 4.23 1.516 6.054.437 3.707 1.07 7.164 2.343 9.617l-.507-.011c-1.97-3.5-2-6.621-2.547-9.903-.324-1.933-1.012-3.867-1.531-5.855Zm1.16.152.644.09c.446 2.008 1.246 4.274 1.43 6.309.328 3.601 1.02 6.324 2.48 9.23l-.601.012c-1.762-2.828-1.996-6.305-2.543-9.824-.3-1.942-.984-3.899-1.41-5.817Zm27.664-.047v.88l-3.262 1.925v-.867Zm-26.614.22.672.093c.434 1.933 1.235 4 1.422 5.883.324 3.218.965 6.465 2.41 9.457l-.62.039c-1.528-3.024-2.192-5.774-2.477-9.25-.16-1.945-.977-4.32-1.407-6.223Zm17.758-.02.235.52-1.563.07.02-.583Zm-16.652.21.8.141c.844 3.086 1.063 6.008 1.637 8.938.72 3.644 1.477 5.472 2.094 6.152l-.66.02c-1.61-3.153-2.18-6.286-2.55-9.536-.22-1.918-.903-3.804-1.321-5.714Zm1.219.208.61.109c.726 2.523 1.05 4.879 1.366 7.164.578 4.332 2.149 7.629 2.485 7.777l-.672-.023c-1.457-1.844-1.992-4.988-2.703-9.426-.313-1.95-.625-3.785-1.086-5.601Zm.98.18.684.152s.613 2.214 1.074 5.16c.387 2.453.586 7.281 3.492 10.05 1.45 1.387 4.008 2.587 5.754 1.274.746-.586 1.227-1.52.781-2.52-.754-1.667-3.304-1.378-2.457.375.094.422-.504.438-.922.028-.441-.438-.328-.938-.02-1.399.661-.972 2.415-1.074 3.446-.207 1.649 1.477.934 4.016-1.156 4.825-2.402.941-5.5-.985-6.723-2.829-2.027-3.21-2.34-6.261-2.812-9.503-.238-1.75-.703-3.59-1.14-5.407Zm1.031.253.692.156c.004.008.758 3.125 1.008 4.973.308 2.281.648 4.973 1.71 7.047.665 1.293 1.626 2.375 2.602 3.008.84.543 1.59.886 2.707.66 1.29-.258 1.344-2.09.117-2.09-.629 0-.218-.559.301-.574 1.856-.059 1.906 2.621.16 3.219-2 .687-4.156-.598-5.492-2.215-2.336-3.328-2.242-6.367-2.754-9.051-.133-1.418-1-5.063-1.05-5.133Zm14.02.07.422.516-2.352-.004.008-.492Zm-12.988.196.664.21c.015 0 .66 2.419 1.062 5.282.473 2.758.625 5.05 2.184 7.043.644.828 1.867 1.93 2.64 2.059.477.093.97 0 1.094-.336.2-.543.707-.293.719.199-.004.347-.281.707-.75.832-2.29.367-4.383-2.266-5.016-3.602-.859-1.941-1.226-4.113-1.597-6.82-.157-1.145-.91-4.793-1-4.867Zm21.246.058-.012.875-3.25 1.883v-.851Zm-20.25.207.746.184s.617 2.129.984 4.758c.371 2.668 1.176 5.765 2.676 7.363.137.152.23.262.29.352.108.218-.02.586-.13.586-2.683-1.274-3.312-6.414-3.539-8.153a37.692 37.692 0 0 0-1.027-5.09Zm10.426.395 2.367.055.562.507-3.133-.02c-.328-.312-.12-.276.204-.542Zm9.824.691v.723l-3.266 1.902.004-.742Zm-9.742.246 3.46.051 1.215.657-5.289-.028Zm9.738.903v.867l-3.262 1.883v-.817Zm-11.02.183 5.883.047.012.586-6.375-.14Zm-.77 1.004h6.653l.02.649-6.051-.043Zm11.79.075v.91l-3.262 1.855v-.86Zm-10.54.972 5.102.012-.554.543-3.848-.031Zm10.54.301v.855l-3.266 1.883.004-.843Zm-6.703.664-.617.55-2.641-.027.09-.5Zm6.699.59v.914l-3.262 1.836v-.797Zm-9.996.351 2.18.04-.332.421-1.907.012Zm-19.606.766c.329 2.309 2.149 6.957 2.149 6.953l-.719.008c.035.047-1.305-2.926-1.785-5.73-.059-.266.144-1.168.355-1.23Zm19.465.098 1.676.023-.363.598h-1.367Zm10.137.12v.806l-3.262 1.843v-.73Zm-10.195.833 1.113.031-.262.55-.863-.023Zm10.195.414v.855l-3.262 1.86v-.824Zm-30.29.238c.325 1.68 1.712 5.051 1.817 5.274l-.613.007c-.027.079-1.441-3.023-1.594-4.351-.07-.277.09-.828.39-.93Zm20.083.32.66.024-.113.316-.531.012Zm.059.754.343.008-.082.301h-.215Zm10.148 0-.004.692-3.262 1.898v-.656Zm-31.106.13c.493 1.347.985 2.718 1.57 4.03l-.73-.011c-.484-.95-.824-2.012-1.199-3.055-.101-.437.117-.812.36-.965Zm-.73.902 1.211 3.109h-.688c-.285-.625-.601-1.324-.824-1.969-.23-.664-.207-.687.301-1.14Zm31.832.136v.82l-3.262 1.856v-.707Zm-32.34 1.262.664 1.723-.851-.02c-.25-.543-.403-1.015-.465-1.543-.024-.254-.074-.511.121-.617.387-.203.34-.039.531.457Zm-.906.707.352 1.008-.793-.016c-.235-.476-.325-.82-.254-1.32.48-.508.515-.242.695.328Zm33.246-.652v.855l-3.262 1.805v-.797Zm-34.375.676.332.996-.719-.016c-.117-.23-.043-.516-.047-.781Zm-.941.511c.011 0 .02.004.023.008.102.441.004.469.008.465l-1-.004s.812-.473.969-.469Zm35.316.196-.004.683-3.262 1.871.004-.695Zm-38.77 1.156 19.594.015.649.844s-1.907.051-8.149.028c-5.254.07-15.816-.075-15.816-.075l1.027-.445c1.422-.035 2.715-.375 2.696-.367Zm38.766.031v.754l-3.262 1.816v-.73Zm-55.129.824c-1.578.64-3.047.801-4.144.723-2.367-.172-5.989.742-6.715 2.828-.23.734-.235.754.2 1.129.214.188.425.328.464.313.383-.31.887-.887 1.426-1.055.71-.2 1.097-.227 2.265-.274 2.512-.109 3.078-.207 3.703-.359 1.375-.336 2.762-1.578 2.848-2.96.008-.157-.047-.345-.047-.345Zm-.066.188c-.27 2.883-3.676 3.265-5.172 3.183-3.031-.16-4.227.672-4.707 1.192-.16.137-.25.105-.227-.024.356-1.593 3.168-1.66 4.582-1.644 3.47.137 4.352-1.399 4.254-1.414-.265.11-.46.207-.726.324-.114.043-.09-.02-.39-.18-.005.02-.349.735-.79.059.012.035-.316.601-.922.074.004.055-.367.543-.957.047-.555.438-.82.195-1.058-.11-.176.098-.692.735-1.122.051-.457.266-.648.555-1.043.383-.921.153-1.718 1.02-2.042 1.813-.102.273-.305.316-.329.015-.109-.824 1.375-2.261 2.868-2.66 1.156-.308 1.945-.531 4.492-.449 1.449.05 3.289-.66 3.289-.66Zm37.164.152.918.567-16 20.238-1.41-.031Zm-25.637.059 1.82-.004-.003 2.754-1.567.004-.558-.762c.144.078.312.125.492.125.539-.004.972-.402.976-.898 0-.493-.437-.891-.976-.887-.535 0-.973.398-.973.89 0 .047.004.09.008.13l-.582-.794s.246-.136.84-.382c.156-.063.523-.176.523-.176Zm5.602-.012 3.078-.004v2.754l-3.082.004Zm6.746-.012 3.187-.004-.004 2.77-3.187-.012Zm6.879-.011 3.187-.004-.004 2.754-3.183.004Zm24.394.023.047.86-3.262 1.82v-.848Zm-22.918.324c-.57 0-1.03.426-1.035.946 0 .523.465.945 1.035.945.567-.004 1.032-.426 1.032-.95 0-.519-.461-.94-1.032-.94Zm-13.554.074c-.57 0-1.032.426-1.032.946 0 .523.461.945 1.028.945.57-.004 1.031-.426 1.035-.95 0-.519-.461-.94-1.031-.94Zm6.714.008c-.57 0-1.03.422-1.03.946 0 .52.46.941 1.027.941.57 0 1.03-.426 1.035-.945 0-.524-.461-.946-1.032-.942Zm3.47.106c.476 0 .862.351.862.789 0 .437-.386.793-.863.797-.476 0-.863-.356-.863-.793 0-.438.387-.793.863-.793Zm-13.66.035c.476 0 .862.355.862.793 0 .437-.386.793-.863.793-.48 0-.867-.352-.863-.79 0-.437.386-.792.863-.796Zm20.476-.008c.207 0 .394.07.535.188l-.946 1.175a.728.728 0 0 1-.386-.629c0-.406.355-.734.797-.734Zm-13.528.027c.477 0 .864.356.864.793 0 .438-.387.793-.868.793-.476 0-.863-.351-.863-.793 0-.437.39-.793.867-.793Zm-10.437.079c.355 0 .644.261.644.59 0 .324-.289.59-.644.593-.356 0-.645-.265-.645-.594 0-.324.29-.59.645-.59Zm-1.977.035c5.485 6.402 8.399 12.894 9.672 19.976l-.918-.035c-1.52-7.703-4.95-14.305-9.601-19.629Zm22.496-.035c.375 0 .684.277.684.62 0 .348-.309.63-.684.63-.379 0-.683-.282-.683-.625 0-.344.308-.625.683-.625Zm-13.554.074c.375 0 .683.277.68.62 0 .349-.305.63-.68.63-.38 0-.684-.281-.684-.625s.305-.625.684-.625Zm6.714.004c.375 0 .684.277.68.625 0 .343-.305.625-.68.625-.378 0-.683-.278-.683-.625 0-.344.305-.625.683-.625Zm17.086.418c.36 2.535-.359 4.175-2.468 4.445-2.692.344-3.04.531-3.059 2.867-.02 2.77-.465 3.57-2.605 3.793-2.407.25-2.97.512-2.754 3.258.156 2-.707 2.855-2.559 3.23-1.45.293-2.703.739-3.242 2.079l-1.324.02c.343-2.11 2.656-3.122 4.14-3.196 1.598-.348 1.93-.84 1.676-3.407-.195-1.933.578-2.523 3.055-2.968 1.98-.364 2.469-.883 2.36-2.367-.227-3.184.003-3.664 1.976-4.055 1.004-.219 2.64-.32 3.265-1.027.711-.801.532-1.48.47-2.465Zm12.72.062v.832l-3.266 1.852.003-.813Zm-47.923.578c-.699 2.762 1.7 3.36 3.157 3.82 1.695.54 2.109 1.325 1.914 4.067-.149 2.074.101 2.535 1.566 3.242 2.238 1.059 2.84 2.563 1.84 4.77-.613 1.363-.293 1.742.094 2.93l-1.086-.008c-.078.023-.996-1.48-.211-3.098.93-1.922.906-2.883-1.164-3.742-1.598-.664-2.09-1.293-2.188-2.668-.039-.578-.035-.864.113-2.121.188-1.586-.43-2.27-2.984-3.133-1.137-.387-1.91-1.29-2.14-2.723-.067-.398-.008-.863-.008-.863Zm38.227.23 9.715 5.915-.07 1.32-10.305-6.3Zm-6.266.145c.473-.004.852.348.852.778 0 .43-.383.78-.852.78-.469.005-.851-.347-.851-.776 0-.43.382-.782.851-.782Zm-30.578.395c.426 0 .77.316.77.707 0 .39-.344.71-.774.71-.426 0-.773-.316-.77-.71 0-.39.344-.707.774-.707Zm46.508 0-.031.793-3.203 1.82v-.793Zm-50.727.644c2.938 3.508 5.825 7.125 8.047 13.942l-.953.336c-1.832-5.489-4.66-10.043-7.992-13.809Zm7.68-.047 22.145-.039-.57.704-21.157-.16Zm43.074.583v.87l-2.453 1.372-.723-.43Zm-52.054.187.433.523s-.469.34-1 .688c-1.453.953-1.64 1.062-1.738 1.684-.23 1.468 1.418 2.19 3.074 1.34.594-.25 1.895-1.008 1.895-1.008l.375.503s-1.868 1.282-2.965 1.575c-2.399.644-4.192-2.14-2.414-3.801.27-.254.843-.598 1.3-.867.47-.278 1.04-.637 1.04-.637Zm9.886.328 20.403.074-13.047 16.356-.578-.028c-1.004-6.109-3.504-11.44-6.778-16.402Zm-8.898.707 1.191 1.528s-.777.683-2.062 1.328c-1.032.52-2.145-.418-1.496-1.266.668-.84 2.367-1.59 2.367-1.59Zm51.066.067v.796l-1.414.797-.648-.379Zm-51.219.703c-.562.03-1.503.62-1.824 1.129-.136.218-.086.398.04.55.195.227.421.211 1.1-.12 1.388-.68 1.645-1.083 1.036-1.477a.572.572 0 0 0-.297-.082h-.054Zm-.042.328c.09-.008.19.015.277.008.238.09.168.363-.086.43-.055-.079-.469-.09-.441.296-.102.219-.098.203-.403.235a.337.337 0 0 0-.375.168c-.21.101-.469.07-.515-.047-.047-.114.125-.438.27-.438.07.004.194-.09.323-.172-.004-.21.27-.242.348-.242.078.016.336.02.46-.176a.196.196 0 0 1 .142-.062Zm51.261.097-.004 1.227-1.023-.598Zm-56.617.258c3.711 4.016 6.387 8.293 8.082 14.219l-.746.473c-1.121-4.157-2.852-8.543-7.973-14.242Zm43.477-.011c1.68 1.304 8.57 7.246 9.875 17.804l-.922.52c-.739-5.574-3.121-11.961-9.551-17.614Zm-3.325.37c.47 0 .852.348.848.782 0 .43-.379.781-.852.781-.468 0-.847-.347-.847-.781 0-.43.379-.781.851-.781Zm-41.187.38s.781.734.777.91c0 .347-.3.547-2.097 1.148-.301.102-1.63.383-1.63.383l-.046-.59c.676-.223 2.492-.625 2.625-.98.066-.137-.258-.489-.188-.493Zm12.379.128c.43 0 .773.317.773.708 0 .39-.347.71-.773.71-.426 0-.774-.316-.774-.707 0-.39.348-.71.774-.71Zm31.277.145c5.613 5.023 8.7 11.234 9.414 17.652-6.547 4.891-10.996 11.032-12.77 18.707-.87-1.332-1.609-2.863-2.417-4.359 8.738-7.05 10.586-19.723 3.047-28.59Zm-34.351 1.023.39.559s-.082.066-1.304.766c-1.79 1.023-2.086 1.687-1.489 2.726.61 1.067 1.29 1.121 3.211.266.68-.305 1.258-.621 1.258-.621l.305.582s-.86.644-2.516 1.203c-1.559.527-3.031-.363-3.309-2.012-.199-1.199.372-1.844 2.645-3.031.258-.125.809-.438.809-.438Zm26.765.215c.469 0 .848.348.848.782 0 .43-.379.78-.852.78-.468 0-.851-.347-.851-.777.004-.433.383-.78.855-.785Zm-34.71.094.511.445s-.223.297-1.488 1c-1.14.63-1.258.528-.692.965 1.059.817 2.52 2.63 2.512 3.098-.008.45-.45.867-1.293 1.219-.465.191-2.297.793-2.562.836-.536.054-.688.25-.153.695.906.957 1.68 3 1.367 3.625-.351.703-.773.82-4.136.969-.383.015-.567-.082-.36.367.153.328.309.773.606 2.164.27 1.234.222 1.793-.301 2.047-.305.148-2.645.101-3.61-.075-1.105-.195-1.226-.207-1.046.454.23.91.37 3.355-.383 3.828-.313.187-.648.144-2.023-.278-.876-.27-1.633-.578-1.633-.578l.015-.761c.711.27 2.672 1.043 3.227.796.664-.87-.25-3.91-.602-4.562-.422-.777.02-.95.996-.469.508.332 4.914 1.918 4.664.492-.265-1.351-.742-2.89-1.671-3.855-.86-.895-.43-1.258.523-.871 1.695.691 5.191.515 5.02-.203-.23-1.168-1.387-2.75-2.973-3.977-.438-.344-.457-.488.066-.574 1.48-.11 5.72-.516 5.125-1.43-.508-.746-1.183-1.57-1.761-2.011-.95-.731-1.907-1.043-2.332-1.196l.027-.558c1.93-.153 2.933-.688 4.36-1.602Zm-4.677.559c-.699 6.656-3.738 12.144-10.007 15.976l-.035-.742c5.511-3.805 8.164-9.203 8.882-14.422Zm13.348.394c.004 0 .004 0 .004.004 0 0 1.008 1.66 1.004 1.809-.598.511-2.168 1.257-2.809 1.082-.992-.285-1.148-1.254-.195-1.828.824-.551 1.848-1.032 1.984-1.063.004-.004.008-.004.012-.004Zm-8.027-.09.512.422s-.13.188-.872.73c-.578.41-.378.25.016.731.348.387.969 1.156.969 1.156l-.184 1.028a17.624 17.624 0 0 0-2.16-2.375c-.492-.465-.465-.477.238-.813.528-.27.957-.594 1.48-.879Zm14.062.637c.426 0 .774.316.77.707 0 .39-.344.711-.77.711-.425 0-.773-.316-.773-.707 0-.39.348-.707.773-.711Zm-6.246.07c-.738.18-1.46.785-1.863 1.051-.148.098-.035.582.11.75.179.211.515.176.917-.027.168-.086.473-.227.672-.313.567-.242.805-.422.785-.62-.09-.27-.324-.86-.62-.84Zm.04.309c.206.008.355.25.288.394-.355.176-.55.028-.504.278 0 0 .036.383-.484.39-.129-.05-.348-.039-.457.059-.363.14-.68-.152-.285-.316.11-.047.371-.121.445-.274.04-.183.203-.332.387-.23.098.008.312.02.383-.121-.024-.157.097-.172.187-.176.012-.004.028-.004.04-.004Zm-14.852-.023c.16.746-.332 2.058-.614 2.8-1.648 1.977-4.039 2.992-6.312 3.688-.504.156-1.18.078-1.18.078 3.145-2.973 5.844-5.149 8.106-6.566Zm-5.742.683c.023-.168-.805-.367-.883-.262-.157.133-.399 2.192-.242 2.34.222.207.832.262.89.016.192-.809.145-1.414.235-2.094Zm14.09-.086.538.61c-1.152 9.93-8.89 18.53-17.152 21.953l-.023-.66c9.449-4.567 15.14-12.149 16.636-21.903Zm37.367-.027 1.023 1.289-1.469.043Zm-51.73.332c-.009.34-.052 1.047-.196 1.441-.086.305-.348.235-.442-.047-.101-.293-.02-1.125.176-1.468.203-.32.363-.27.461.074Zm7.816.168c.503 0 3.195 1.512 2.835 2.27-.289.6-2.539.652-3.574.57l.156-.578s.317.097 1.516-.02c1.262-.078 1.168-.477-.273-1.313-.621-.355-.766-.44-.766-.44Zm7.453.8a33.34 33.34 0 0 1 2.359 4.364c-10.18 8.816-9.402 20.8-2.996 28.656l-2.766 3.426c-5.52-4.824-8.523-10.766-9.535-17.082 8.07-5.336 11.867-13.281 12.938-19.363Zm37.77.32.605 1.063-1.461-.02Zm-6.302.544c.473 0 .852.351.852.781 0 .43-.383.777-.852.781-.472 0-.851-.347-.851-.777 0-.434.383-.781.851-.785Zm-23.664.254.29.605c.015.074-2.06.68-2.727 1.45-.617.714-.559 1.456-.211 1.968.59.73 1.008.832 2.004.551.812-.23 1.41-.54 2.215-.918l.125.305c.004-.016-1.157.625-2.04 1.082a2.3 2.3 0 0 1-1.074.238c-2.011-.039-3.074-2.414-1.414-3.824.242-.203 1.063-.617 1.754-.946l1.078-.511Zm26.598.328c6.625 8.762 2.074 18.383-2.211 21.793l-.113-1.031c7.218-7.547 4.718-16.34 1.718-20.246Zm4.27.387.519 1.082-1.539-.145Zm-26.739.402c.426 0 .774.316.774.707 0 .39-.348.707-.774.71-.426 0-.773-.315-.773-.706.004-.39.347-.711.773-.711Zm21.68.098c5.805 7.734 2.55 20.093-8.543 23.875l-.055-.868c11.313-4.355 12.434-15.898 7.895-22.402Zm-25.203.093.73 1.817c-.922.57-1.285.668-2.32.902-.816.172-1.453-1.121-.824-1.617.715-.566 1.484-.813 2.414-1.102Zm-18.86.043c.137-.007-.007.301-.359 1.082-.773 1.72-.824 1.754-2.773 2.043-1.012.149-1.77.188-2.489.125-1.086-.093-1.55-.375-.847-.511 2.043-.414 4.3-1.391 5.77-2.332.382-.25.605-.403.698-.407Zm36.957.141c.528 0 .957.395.954.879 0 .484-.43.875-.957.875-.528.004-.954-.387-.954-.871 0-.485.43-.88.957-.883Zm-28.902.297-.086.676s-1.18.574-1.738.789c-.426.16-.453.195-.32.558.277.723.808 1.621.808 1.621l-.492 1.024c-.3-.922-.617-1.89-1.172-2.75-.523-.668-.621-.754.195-.895 1.055-.328 1.875-.562 2.805-1.023Zm10.531.2c-.578.026-1.78.472-1.902.898-.066.238.008.574.227.652.601.203 1.804-.254 2.125-.668.097-.125-.051-.39-.16-.555-.079-.125-.063-.336-.29-.328Zm.028.362h.03c.099-.007.454.407.056.371a.466.466 0 0 0-.375.145c-.016.195-.325.273-.473.207-.113-.05-.27.05-.285.113-.223.149-.508.14-.543.04-.078-.075.148-.38.347-.368.043 0 .18-.086.313-.191.063-.207.3-.172.453-.16.168.062.324-.141.477-.157Zm31.238-.023.422 1.082-1.524-.121Zm-6.55 1.262c-.317.367-.606.375-1.067.355.379.406.543.973.176 1.344-.559.523-1.633-.274-1.551-.348l1.93-2.363c.511.133.796.57.511 1.012Zm-41.911-.54s2.348 1.848 2.363 2.68c.004.317-.105.418-.383.504-.921.281-3.484-.433-3.484-.433l.328-.575c.407.102 2.39.57 2.563.336.18-.242-1.657-1.883-1.66-1.883Zm11.645.754.28.895-.96-.215Zm37.46.094.25 1.239-1.535-.329Zm-29.285.07.23.727c-10.194 4.352-13.179 14.309-7.874 22.512l-.598.758c-7.105-10.559.11-21.297 8.242-23.996Zm-9.18.778.137 1.105-1.183-.062Zm-14.023-.004c.203.004.242.102.238.21 0 .15-1.027 1.356-1.363 1.63-.722.27-3.508-.797-3.926-1.621-.082-.242.196-.137.813-.024 1.562.407 3.148-.156 4.238-.195Zm27.149-.035c.425 0 .773.316.773.707 0 .39-.348.71-.773.71-.43 0-.774-.316-.774-.706 0-.39.348-.707.774-.711ZM14 61.19c.773.637 1.914 1.164 2.922 1.344.629.13.45.188-.137.742-.547.524-.5.59-1.055.332-.93-.43-1.937-1.406-1.894-1.941.016-.223.059-.48.164-.477Zm57.879.012.187 1.18-1.449-.461Zm-40.352.5.473 1.05-1.285-.03Zm32.723.945c0 .149-.04.399-.04.399.759-.445 1.767-.086 1.735.629-.043 1.008-.582 1.02-1.457.886.477.731-.093 1.434-.996 1.168-.82-.246-.664-1.043-.277-1.515-1.942.293-2.465 2.828-.223 3.578-.449-.64-.558-1.402.418-1.535.91-.121 1.293.512.899 1.273.855-.273 1.66.172 1.402.934-.313.922-1.207.86-1.73.3.374.833-.5 1.438-1.16 1.114-1.04-.508-.524-1.418.175-1.66-2.68-.25-3.305 3.152-1.332 3.633-.508-.293-.562-1.63.594-1.45 1.137.207.867 1.176.137 1.618.882-.172 1.703.53 1.167 1.246-.632.84-1.503.242-1.824-.329.102.766-.433 1.258-1.117.97-1.176-.493-.305-1.731.613-1.653-1.863-1.004-4.398 1.117-2.91 2.871-.054-.797.38-1.453.977-1.363.523.05.984.601.836 1.031-.14.371-.598.652-1.078.742 1.425.145 1.546 1.067.957 1.524-1.004.777-1.47-.118-1.703-.637-.204 1.297-1.872.86-1.93-.078-.055-1.028 1.238-1.008 1.476-.953.032-.036-1-.97-2.101-1.098l.008-.598c4.34-2.504 5.836-6.863 4.464-10.988l.262-.277c.707.496 1.414 1.554 2.723 1.164 0 0-.3-.196-.453-.332-.672-.61-.293-1.325.644-1.367.606-.028.84.402.844.753Zm-29.434.051.45.606c-6.586 7.078-5.395 15.164-1.614 20.508l-.554.613c-3.344-3.93-6.067-13.469 1.718-21.727Zm5.61.969c-.012.156 0 .281 0 .281s.144-.16.258-.355c.562-.86 1.773-.367 1.57.62-.094.466-.945.65-1.176.516.219.551.817.68 1.547.918.254.047.691.16.691.16l.016.372c-3.95 2.289-6.187 6.16-4.746 11.441l-.438.543c-.793-1.754-1.52-1.715-2.828-1.781 0 0 .325.21.512.41.398.43.223 1.18-.328 1.262-1.274.183-1.285-.645-1.117-1.207 0 0-.227.175-.34.242a.78.78 0 0 1-1.192-.606c-.054-.562.157-.925.786-.996.21-.023.539.028.539.028l-.196-.348c-.3-.54.364-1.008.97-.89.96.21.882.968.327 1.566 1.489.101 2.27-.793 2.16-1.68-.132-1.078-.675-1.66-1.843-1.848 0 0 .187.274.27.403.296.488-.134 1.086-.763 1.082-.648 0-1.058-.543-.812-1.078.062-.133.305-.297.27-.309-.028-.012-.36.082-.454.098-.773.11-1.27-.512-.945-1.14.23-.442.922-.563 1.426-.345.082.024.176.13.191.106.016-.024-.05-.168-.07-.27-.16-.574.14-.879.816-.84.95.055 1.301.762.664 1.399-.164.164-.418.41-.418.41.032.125 1.352.215 2.024-.434.781-.75.906-2.312.121-2.82-.129-.082-.387-.25-.387-.25.371.684-.316 1.477-.922 1.332-1.21-.27-1.105-1.176-.308-1.465 0 0-.809-.277-1.04-.574-.327-.422-.218-.808.176-1.11.5-.366 1.208-.124 1.547.325.207-.574.496-.965 1.356-.652.597.261.594.996-.067 1.398-.214.129-.59.246-.59.246s.567.297 1.258.305c1.336.008 2.391-1.434 1.856-2.535-.11-.223-.383-.512-.383-.512s-.031.387-.113.535c-.309.547-1.016.559-1.434.215-.383-.316-.27-.738.024-1.023.226-.22.43-.262.742-.399-.356-.11-.75-.187-.926-.523-.16-.32-.047-.715.379-.961.77-.371 1.375.25 1.34.738Zm-26.457-.844c.543.29.902.723 1.41 1.102.39.289.387.34.062.617-.73.644-1.136-.285-1.37-.668-.29-.508-.321-1.031-.102-1.05Zm58.25.074.086 1.247-1.512-.532Zm-41.739.149.543 1.133-1.406-.004Zm29.391-.05c1.316 4.476-.547 7.694-4.074 10.222l-.39-.469c2.757-2.152 4.823-4.688 3.913-9.195Zm-16.207.046 15.508.234-.465.75-1.207.008-2.402 3.887-11.145.02Zm-22.691 3.285c-.54.781-3.758-.898-3.72-.984l.407-.36c.512.192 2.102.993 2.453.864.125-.73-.812-1.68-1.164-2.309l.395-.457s2.039 2.422 1.629 3.246Zm5.289-2.863-.535.89c-.504.145-2.02.172-2.141.262.184.457.383 1.793.383 1.793l-.598.703c-.16-.86-.422-1.949-.656-2.746-.203-.676-.145-.527 1.426-.644a14.77 14.77 0 0 0 2.12-.258Zm3.18 1.066.636 1.04-1.293.011Zm-15.528.098c.07-.024.469.387.54.504-.032.27-.49.418-.56.32-.027-.039-.035-.644.012-.812 0-.004.004-.008.008-.012Zm58.492-.09-.015 1.297-1.536-.621Zm12.196.27-.024.843c-5.57 2.504-13.887 9.22-16.27 21.235l-.484-.489c2.38-11.476 10.563-18.273 16.778-21.59ZM28.566 66.07l.692.953-1.25.13Zm43.868.285-.125 1.153-1.512-.766Zm-29.102.293c.008.274.031.473.05.743-3.433 2.046-4.597 5.254-4.03 9.289l-.473.644c-1.117-3.656.016-8.168 4.453-10.676Zm39.797.168c.351.188 1.484.493 1.484.493l-.011.761-2.336-.761Zm-67.106 3.375c-.503.38-1.66-.246-2.187-.5l-.016-.644s.403.187.805.336c.832.336.836-.067.379-1.195-.16-.395-.316-.856-.316-.856l.546-.473s1.305 2.696.79 3.332ZM27.75 67.75l.895.855-1.247.266Zm54.523.004c.79 0 2.317.586 2.317.586l-.012.847c-.773-.203-1.676-.597-2.492-.707-.648-.078-.61.254-.617 1.09-.004 1.137.304 2.164.898 3.297.488.942.235 1.195-.566.774-1.442-.903-4.516-1.582-4.989-1.055-.488.547.47 3.246 1.575 4.535.449.524.476.61.265.813-.168.164-.445.175-.93.035-1.597-.465-3.91-.563-4.574-.168-.664.394 1.055 3.097 2.5 3.969.934.613.754.918-.761.953-2.473.011-4.375.523-4.27 1.14.18 1.051 1.778 2.492 3.617 3.254 1.125.422.653.59-.093.836-1.254.387-2.454 1.012-3.633 1.59l-.567-.66s1.188-.692 2.473-1.36c.305-.156.29-.21-.133-.535-1.37-1.054-2.375-2.226-2.586-3.02-.203-.769.215-1.257 1.461-1.69.77-.27 1.055-.352 1.735-.493.98-.203.996-.23.578-.918-.188-.312-.496-.82-.684-1.137-1.457-2.285-.683-3.109 2.7-3.164.831-.043.992-.043.945-.308-.18-1.074-.696-2.313-.621-3.227.156-1.375 1.699-1.71 4.414-1.097.629.144.672.117.562-.352-.523-2.094.024-3.988 1.488-3.828Zm-9.96.164-.239 1.336-1.445-.879Zm-54.055.414 3.984.23-.633.684-2.41-.035-.09 1.883-.773.61Zm25.836.098 3.281-.008-.031 3.183-3.27.004Zm3.91-.008 3.055-.004-.004 3.18-3.028.035Zm3.656-.008 3.278-.004-.036 3.18-3.242.008Zm28.606.203c-.079.817.109 2.297.183 2.934-.054.187-.195.16-1.054-.016-.594-.183-2.243-.23-2.243-.23l.692-.676c.562.062 1.011.055 1.594.121-.008-.535.019-1.559.019-1.559Zm-53.036.727.915.844-1.176.277Zm44.762.195-.367 1.36-1.324-1.09Zm12.563.7.007.695-1.304-.54c-.016.793.746 2.223.746 2.223l-.621.27c-.535-.805-.906-1.528-.938-2.434.008-.328-.043-.883.282-.898.664-.016 1.218.191 1.828.683Zm-57.774.792 1.086.59-1.207.45Zm44.793.223-.535 1.402-1.164-1.21Zm-57.746.55 2.938.907-.524.512-2.441-.703Zm41.223.298.238 4.96-15.527-.09.543-.699 1.008-.011 2.66-4.114Zm-28.48.437 1.152.742-1.2.489Zm58.054.332v.813c-3.75 2.546-7.809 6.93-8.504 14.668l-1.012.796c.5-7.558 3.938-12.773 9.516-16.277Zm-13.676.055-.547 1.261-1.078-1.171Zm10.559 1.695-.36.371c-.101.031-1.53-.668-2.656-.832.367.668.543 1.164 1.356 2.219l-.524.476c-.16-.03-2.195-2.785-1.656-3.41.879-.543 2.996.586 3.84 1.176Zm-6.094-1.473c-.023.75.637 3.075.637 3.075-1.024.047-2.016-.059-3.117.226l.52-.851s.48-.043.901-.121c.868-.16.778-.067.579-.758-.192-.653-.2-.785-.2-.785s.618-.79.68-.786Zm-57.297.91c1.332 7.446 4.531 12.56 9.586 17.153l-.515.617c-5.942-4.976-9.18-11.32-10.02-17.289Zm8.363.297 1.094.543-1.125.606Zm58.13-.085-.008 1.093-.688-.633c.188-.152.41-.304.695-.46Zm-14.415.25-.746 1.257-.972-1.187Zm14.328 2.812c-.152-.219-1.515-.996-2.132-1.32-.043-.098.957-.918 1.156-.973.992.125 1.308 1.938.976 2.293Zm-58.03-1.258 1.237.551-1.125.727ZM67.608 76l1.586.133-.843 1.203Zm14.68.508c.207 0 .438.078.727.226 1.117.567 1.703 1.192 1.64 1.746-.031.258-.183.31-.367.122-.324-.332-1.422-.766-2.371-.934-.719-.129-.781-.184-.566-.488.324-.461.593-.676.937-.672Zm-19.11.558c1.712 5.965 4.727 10.547 8.516 14.32l-.789.618c-2.875-3.024-6.039-6.563-8.617-14.223Zm3.43.313 1.586.219-.93 1.086Zm-22.386.105c.187.004-.547 2.547-3.07 2.727-1.594.246-1.774.492-1.801 2.77-.036 3.09-.582 3.812-3.332 4.007-1.825.133-2.067.473-1.758 2.871.289 2.286-.653 3.45-2.977 3.454-2.012.156-2.844 1.019-2.844 2.726.004.695.016.86.016.86l-1.3.097s.003-1.125.1-1.672c.4-2.215 1.434-3.101 3.61-3.094 1.684-.12 1.945-.37 1.887-2.71-.063-2.38-.098-2.364.582-2.989.434-.398.934-.582 1.816-.66 2.754-.242 2.97-.41 2.965-3-.254-2.148.399-3.465 1.887-3.574 3.012-.227 2.941-1.727 2.809-1.79l1.402-.019c.004-.004.008-.004.008-.004Zm6.164-.011c1.758 8.738 7.34 16.91 10.406 19.925l-.598.293c-4.468-5.086-8.527-10.925-10.527-20.203Zm-3.192.011 1.399.012-16.125 20.809-.848-.586Zm1.953.008c1.508 5.035 2.692 9.961 7.446 16.543l-20.18-.086Zm5.57.012c.118-.05.59 2.547-.116 3.75-.637 1.625-.329 2.539 1.054 3.125 2.371 1.012 2.969 2.027 2.664 4.523-.21 1.746.364 2.59 2.153 3.149 2.132.664 3.066 1.715 3.05 3.437 0 .266-.109.567-.109.567l-1.191.644s.015-.234.062-.515c.309-1.91-.086-2.43-2.543-3.325-2.324-.847-2.898-1.832-2.5-4.285.13-.8-.047-1.61-.41-2.219-.605-.992-1.95-.98-2.914-1.882-.8-.778-.887-1.864-.207-3.72.426-1.151.488-1.589.16-2.546-.215-.633-.297-.687-.297-.687Zm-28.027.328 1.372.344-1.032.984Zm54.368.16c.472-.012 1.379.137 2.125.477 1.703.777 2.011 1.414.52 1.074-.845-.195-2.06-.148-3.227.117-1.239.285-1.211.297-.786-.39.54-.868.68-1.258 1.368-1.278Zm-3.098.926-.313.492c-.675-.101-1.39-.406-2.421-.328.421.742.921 1.125 1.597 1.777l-.254.493c-.058.066-1.965-1.387-2.347-2.368-.172-.441-.016-.636.68-.652 1.034-.02 2.077.25 3.058.586Zm-25.488-.434c.511 0 .922.38.922.848 0 .469-.415.852-.926.852-.508 0-.922-.38-.922-.848 0-.469.414-.852.926-.852Zm13.03.207 1.563.254-1.043 1.07Zm-29.214.063c.367-.027.938.629.938.629l-1.899 2.402c-.898-.164-.707-1.414.121-1.457.192.004.54.031.54.031s-.255-.125-.403-.304c-.55-.61-.027-1.246.703-1.301Zm35.34-.277s1.504 2.73 1.41 2.835c-.937.38-1.957.575-2.984.922l.199-.796s.34-.024 1.488-.426c.551-.192-.597-1.594-.597-1.594Zm-10.43.824c2.2.015 2.227 2.488 1.805 3.308-.309.563-.774.875-2.184 1.461-1.218.508-1.355.473-1.355.473l-.293-.594s.71-.289 1.476-.574c1.582-.59 1.97-1.035 1.797-2.086-.246-1.484-1.496-1.715-3.918-.715-.28.117-.632.235-.632.235l-.168-.301c.039-.028 1.941-.945 3.003-1.172.168-.023.325-.035.47-.035Zm-34.02.332 1.247.375-.91.82Zm55.438.219c1.098-.004 2.004.164 2 .523 0 .172-.043.188-1.031.313-1.5.195-4.008 1.374-5.422 2.464-.836.649-.621.496-.266-.437.352-.934.875-2.047 1.157-2.215.707-.426 2.316-.64 3.562-.648Zm-17.984.16 1.058.21-.687.614Zm-3.547.535c.379-.004.566.156.715.488.32.719.004 1.14-1.223 1.625-.558.23-1.055.555-1.664.656l-.77-1.894s.243-.086 1.047-.39c.914-.348 1.516-.477 1.895-.485Zm-3.578.238c2.441 6.344 5.437 10.465 8.601 13.88l-.765.44c-3.364-3.648-6.461-7.921-8.688-14.222Zm3.398.219c-.297.008-.742.172-1.336.383-.863.308-.941.675-.554 1.133.168.199.343.156 1.175-.149.848-.308 1.211-.445 1.262-.723.074-.402-.168-.656-.547-.644Zm23.805.043c-.004.266-4.41 4.101-6.93 6.055-1.148.89-1.11.882-1.207.773-.062-.66.43-3.016.723-3.426 1.683-1.636 4.281-2.969 6.808-3.476.395-.07.641-.063.606.074Zm-23.73.172c.16.004.296.129.296.289-.004.125-.199.242-.398.242a.595.595 0 0 0-.36.14c-.109.145-.18.286-.374.25-.114-.019-.325-.023-.407.044-.39.308-.773.05-.593-.258.046-.078.203-.117.328-.117.109 0 .363-.024.398-.149.043-.148.29-.187.461-.183.188.023.34-.067.387-.137a.473.473 0 0 1 .23-.121c.012 0 .024-.004.031 0Zm-33.301.125 1.402.172-.883 1.039Zm13.386-.04c.512-.003.926.376.926.844 0 .47-.414.852-.926.852-.511 0-.925-.379-.925-.848 0-.468.414-.847.925-.847Zm14.606.645c.508 0 .922.375.922.844s-.414.852-.926.852-.922-.38-.922-.848c0-.469.414-.848.926-.848Zm-27.363 1.008 1.52.086-.872 1.07Zm8.027.188c.512 0 .926.378.926.847s-.414.848-.926.848c-.512.004-.926-.375-.926-.844s.414-.848.926-.851Zm38 .46c.633-.011 1.371.047 1.371.047l-.18.653c-.773.07-1.765-.125-2.597.195.308.46 2.113 1.11 2.312 1.273.02.07-.148.692-.148.692.047.16-3.055-1.149-3.156-2.258.003-.375 1.34-.582 2.398-.602Zm-10.676.696c1.766.011 2.633 2.27 1.945 3.27-.27.452-.882.992-1.69 1.464-.392.227-1.419.692-1.419.692l-.465-.653s.414-.152.801-.347c.973-.504 2.941-1.582 1.992-3.04-.535-.789-1.336-.94-3-.164-1.242.579-1.523.633-1.523.633l-.317-.52c.086.044 2.48-1.284 3.676-1.335Zm-34.433.3h1.382l-.593 1.145Zm40.117-.222c.84 1.492 2.277 2.617 2.672 2.887 0 0-1.434.847-2.293 1.39l-.504-.543 1.234-.972-1.387-1.77Zm13.511.336c-.156.738-.183 1.52-.25 2.383.305.254.579.379.817.363.266-.773.46-1.656.336-2.563-.254-.18-.59-.16-.903-.183Zm.692.558c-.004.485.07 1.094-.156 1.563-.133.27-.426.168-.434-.195-.016-.493.094-.903.125-1.352.02-.254.14-.406.305-.348.172.075.16.188.16.332Zm-19.992.372c.906.058 1.258.757.922 1.257-.825.965-1.665 1.141-2.743 1.7l-1.074-1.844s2.098-1.086 2.895-1.113Zm-.028.41c-.601.066-.98.336-1.488.566-.617.277-.82.707-.398 1.098.46.472 2.078-.66 2.347-.934.164-.234.137-.445-.093-.613a.633.633 0 0 0-.368-.117Zm-33.168.14 1.356.012-.735.95Zm33.293.133c.23.149.211.418-.117.496-.164.04-.445.04-.453.239-.004.152-.254.207-.398.187-.145-.023-.391-.031-.438.137-.125.226-.219.23-.394.07-.184-.172-.098-.39.27-.43a.47.47 0 0 0 .347-.23c-.008-.14.097-.227.27-.192.245-.003.402-.085.577-.293a.359.359 0 0 1 .336.016Zm-7.925.04c.511 0 .921.374.921.843s-.414.852-.925.852c-.508.003-.922-.38-.922-.848 0-.469.414-.848.926-.848ZM35.973 87.96c.511 0 .93.383.925.852 0 .468-.414.847-.925.847-.512 0-.926-.379-.926-.847.004-.465.414-.848.926-.852Zm-22.13.793 10.587 6.625-.727.973-9.832-6.122Zm53.184.121c.692 0 1.223.363 1.735 1.094 1.02 1.457.508 2.605-1.61 3.781-.98.547-.988.555-.988.555l-.5-.567s.715-.386 1.012-.558c1.738-1.008 2.23-1.899 1.465-2.903-.735-.965-1.508-.886-3.657.371-.433.254-.953.454-.953.454l-.468-.586s1.214-.575 1.628-.817c.954-.558 1.73-.824 2.336-.824Zm7.899-.266.004.641c.023.027-1.438.621-2.297.98-.278.141-.168.41-.153.688l-.414.258s-.57-.383-.644-.625c-.207-.774 2.476-1.703 3.504-1.942Zm-15.297.715c.512 0 .93.38.93.848-.004.469-.418.851-.93.851s-.926-.378-.922-.847c0-.469.414-.852.922-.852Zm-28.695.29c.511 0 .921.378.921.847s-.414.848-.925.852c-.508 0-.922-.38-.922-.848 0-.469.414-.848.926-.852Zm36.054.613c.352-.012.614.199.758.52.367.816-.133 1.425-1.945 2.358-.153.079-.473.239-.473.239l-1.332-1.684s.469-.297.914-.543c.992-.597 1.625-.875 2.078-.89Zm-.175.406a.658.658 0 0 0-.301.094c-.465.246-1.242.511-1.61.957-.21.273-.117.543.29.89.343.211 2.12-.992 2.167-1.344-.148-.367-.293-.605-.546-.597Zm-52.895.183.293.184-.293.215Zm53.176.2c.129.148.05.398-.227.441-.14.023-.347.059-.418.25-.054.125-.246.23-.433.227-.22-.047-.336.074-.348.164-.106.168-.371.195-.531.039-.13-.125.097-.477.246-.473.027.012.191.043.39-.2.04-.175.262-.284.426-.276.164.05.262-.118.328-.211.153-.075.461-.075.567.039Zm-52.473.226.426.262-1.133.738v-.594Zm.824.492.578.356-2.109 1.387v-.75Zm1.078.63.614.37-3.223 2v-.77Zm1.16.538v.641l-3.773 2.422.004-.653Zm.426.461.813.508.183 21.754-5.082 3.207.004-.95 4.266-2.835Zm61.274.477c-1.137 1.195-2.668 1.277-4 1.246-3.59.055-5.82.234-6.285 4.16 1.465-1.004 3.015-1.137 4.812-1.094 2.274-.007 3.297-.144 4.223-.57 1.484-.684 2.426-1.902 2.246-2.754-.176-.183-.637-.945-.996-.988Zm-61.7.3v.755l-3.773 2.324v-.766Zm43.051-.007c.508 0 .926.379.926.847 0 .47-.418.848-.93.848-.511.004-.921-.375-.921-.844 0-.468.414-.851.925-.851Zm-24.613.133c6.66.175 20.809.078 20.809.078l.754.996-22.243-.176Zm43.227.574c-.801.719-1.625 1.07-4.246 1.031-2.766-.039-3.848.363-4.563 1.496-.21.328-.207.457.098.207.25-.277.828-.808 1.066-.304.469-.286.875-.715 1.121-.172.137-.028.934-.762 1.121-.114.383-.39.711-.515.887.04.543-.235.832-.684 1.14-.067.434-.289.766-.644 1.02-.102.375-.101.754-.726.969-.23.039.012 1.387-.73 1.77-1.465.312-.648.597-.219.242.442-.914 1.62-2.477 2.214-6.055 2.226-2.176.008-3.074.203-3.758.57-1.097.59-.504-.886.266-1.785.969-1.129 2.07-1.465 5.097-1.37 1.653.007 2.707-.204 3.157-.536.379-.281.652-.473.855-.484.207-.012.235.238-.187.617Zm-48.946-.184c.512-.004.926.38.926.848 0 .469-.414.848-.926.848-.511 0-.925-.375-.925-.844s.414-.852.925-.852Zm-12.718.653v.761l-3.774 2.368v-.782Zm18.226.332 2.926-.004-.004 2.828-2.926.008Zm6.555-.012 3.148-.008-.004 2.832-3.148.008Zm7.008.078 3.035-.008v2.742l-3.04.004Zm6.582.043 2.02.059s1.12 1.308 1.597 1.914l-1.496.703-2.125.008Zm-18.739.227c-.57 0-1.03.421-1.03.945 0 .52.46.945 1.03.941.567 0 1.032-.425 1.032-.945 0-.523-.461-.941-1.032-.941Zm6.727.082c-.57 0-1.031.421-1.031.945 0 .52.46.941 1.031.941.566 0 1.027-.425 1.031-.945 0-.523-.46-.945-1.031-.941Zm6.879.011c-.57 0-1.031.422-1.031.946 0 .52.46.941 1.03.941.567 0 1.032-.426 1.032-.945 0-.524-.46-.946-1.031-.942Zm-16.418.22a.71.71 0 0 1 .336.593c0 .406-.36.734-.8.734-.157 0-.302-.039-.423-.11Zm2.812.007c.375-.004.684.277.684.621s-.309.625-.684.629c-.379 0-.683-.281-.683-.625 0-.348.308-.625.683-.625Zm20.454-.012c-.57 0-1.032.422-1.032.945 0 .52.461.942 1.032.942.566 0 1.03-.426 1.03-.945 0-.524-.46-.946-1.03-.942Zm-17.118.059c.457 0 .828.336.828.758 0 .418-.37.757-.828.757-.457 0-.824-.336-.824-.757 0-.418.367-.758.824-.758Zm13.633-.055c.457 0 .828.336.828.758 0 .418-.37.758-.828.758-.457.004-.828-.336-.824-.758 0-.418.367-.758.824-.758Zm-36.605.148v.758l-3.774 2.422.004-.746Zm26.363-.062c.375 0 .684.277.684.625-.004.344-.309.625-.684.625-.379.004-.684-.277-.684-.625 0-.344.309-.621.684-.625Zm6.879.012c.375 0 .683.277.683.625 0 .343-.308.625-.683.625-.379.004-.684-.278-.684-.621 0-.348.309-.625.684-.63Zm-3.45.086c.458 0 .829.34.829.757 0 .418-.371.758-.828.762-.457 0-.828-.34-.828-.758 0-.421.37-.761.828-.761Zm10.298.129c.378 0 .683.277.683.625 0 .343-.308.625-.683.625-.38.003-.684-.278-.684-.625 0-.344.309-.622.684-.625Zm-29.325.71c1.758-.023 3.657.793 4.727 2.145 1.621 1.988 2.7 4.52 3.191 7.848.242 1.648 1.075 6.593 1.547 7.765l-.652-.117c-.09.04-.926-3.11-1.453-7.27-.192-1.542-.551-3.53-1.524-5.347-1.113-2.07-3.004-4.266-5.527-4.434-1.473-.101-2.856.75-3.004 1.942-.215.941.387 1.816 1.176 2.11.777.284 1.703.07 1.808-.9.02-.16 0-.32-.062-.468.355-.055.629.094.777.371.074.008 0 1.406-1.199 1.684-1.445.437-3.11-.875-3.238-2.211-.098-1.125.836-2.52 2.015-2.899a4.722 4.722 0 0 1 1.418-.219Zm-10.765.454v.777l-3.774 2.39v-.78Zm10.847.472c2.11-.058 4.16 2.094 5.028 3.512.906 1.48 1.625 3.832 1.867 6.047.418 3.766 1.203 6.848 1.367 6.988l-.574-.117c-.117.074-.91-3.324-1.387-7.11-.27-2.12-1.125-4.226-2.148-5.847-.942-1.492-2.211-2.61-3.715-2.77-.945-.086-1.914.168-2.106 1.079-.101.535.203 1.058.895 1.105.164.008.32.02.348.023.367.063-.211.606-.59.559-1.352-.168-1.973-1.824-.907-2.707.625-.516 1.278-.742 1.922-.762Zm4.516.547 23.68.176s.02.387-1.453.328c-1.254-.055-2.063.11-2.895.356L33.77 99.64Zm-15.363.278v.722l-3.774 2.426v-.797Zm11.004.285c.457-.008.918.101 1.27.285 2.929 1.555 4.046 5.418 4.429 7.851.523 3.606 1.129 6.954 1.3 7.036l-.64-.133c-.086.004-.781-3.121-1.215-6.621-.348-2.832-1.402-5.672-3.496-6.864-1.344-.84-1.605-.922-2.227-.433-.539.426-1.082-.211-.632-.727.308-.27.757-.387 1.21-.394Zm-11.008.996v.594l-3.77 2.414v-.704Zm17.238-.016c.047-.039 2.035 3.055 2.66 7.934.328 2.57 1.27 6.949 1.422 6.984l-.687-.066c-.704-2.582-1.09-5.028-1.465-7.23-.426-2.497-.766-4.712-2.457-7.598l.527-.02v-.004Zm.453.027.613.004c1.051 1.84 2.172 4.692 2.555 7.555.332 2.473.668 4.988 1.63 7.606l-.661-.165c-.828-2.125-1.117-4.695-1.563-7.355-.488-2.941-1.261-5.504-2.574-7.645Zm3.801-.003c1.074 2.558 1.773 3.777 2.262 6.925.379 2.442.918 5.496 2.14 8.735l-.62-.024c-.91-2.234-1.602-5.226-1.919-8.101-.43-3.907-2.34-7.547-2.36-7.524Zm-1.063.011c.06-.078 2.051 3.578 2.508 7.602.309 2.68.989 5.328 1.922 7.887l-.637-.012c-.734-.781-1.28-4.477-1.886-7.93-.617-3.523-1.489-5.687-2.457-7.539h.547c0-.004.003-.008.003-.008Zm-1.609.008h.566c1.477 2.965 2.09 4.73 2.543 7.598.575 3.629 1.125 6.898 1.739 7.75l-.692-.04c-.953-2.613-1.379-5.226-1.715-7.84-.363-2.831-1.25-5.257-2.44-7.468Zm3.125.016.672.011c1.156 2.149 2.117 4.762 2.453 7.754.184 1.621.508 4.114 1.832 7.953l-.539-.03c-1.086-2.575-1.734-5.606-2.125-8.25-.39-2.669-1.082-4.868-2.293-7.438Zm4.137.011c.637 1.493 1.156 2.973 1.5 4.497l-.383.68c-.594-2.013-1.262-3.579-1.93-5.165Zm-3.063.008.817.016c1.406 2.992 2.125 6.156 2.32 7.219 0 0 .195.937.207 1.246-.05 2.617.441 4.48 1.5 7.293l-.484-.032c-1.23-3.265-1.559-5.585-1.875-7.804-.258-2.79-1.242-5.664-2.485-7.938Zm1.89.02c.837 1.918 1.474 3.765 2.052 5.617-.028.422-.07.883-.371 1.223-.68-2.266-1.254-4.618-2.309-6.832Zm1.548.015.644.008 1.29 3.39-.505.516c-.378-1.125-.765-2.359-1.43-3.914Zm3.781.016.473 1.02-.512.398s-.52-.957-.656-1.406Zm.961-.004.238.59-.43.3-.331-.874Zm-3.71.02.667.004c.27.71.984 2.457.984 2.457l-.48.46s-.902-2.203-1.172-2.921Zm1.034 0 .59.004c.18.46.73 1.742.73 1.742l-.406.36Zm3.094.015.586.028-.066.132-.368.165Zm-19.203.793c2.453 1.18 3.125 4.73 3.39 6.68.461 3.406.977 6.176 1.086 6.25l-.543-.078s-.398-1.746-.675-3.414c-.23-1.383-.41-2.543-.473-3.074a9.673 9.673 0 0 0-.133-.86c-.34-1.398-.449-1.719-.89-2.57-.422-.817-.575-1.02-1.278-1.746-.27-.281-.535-.485-.625-.664-.133-.258.14-.524.14-.524Zm-12.414.203v.668l-3.774 2.45v-.766Zm0 1.176v.77l-3.774 2.289v-.684Zm0 1.313-.004.715-3.77 2.417v-.742Zm6.293.71h.332l.023.5-.512-.027Zm-6.297.63v.765l-3.774 2.29.004-.712Zm5.906.28.797.009-.008.523-1.023-.027Zm-.46.844 1.308.02v.5l-1.625-.023Zm-5.446.118v.804l-3.774 2.305v-.809Zm4.777.828 1.914.015-.011.418-2.286-.011Zm-4.777.472-.004.786-3.77 2.218v-.703Zm3.976.368 2.63.027-.063.406-3-.008Zm-3.98.859v.754l-3.773 2.258.003-.723Zm2.992-.004 3.461.067.73.605-5.39.04Zm-1.05 1.113 5.956.059.414.352-6.39.03Zm-1.942.176v.801l-3.773 2.273v-.734Zm1.95.7 6.597.015-.477.488-6.133.028Zm-1.95.609v.734l-3.773 2.352v-.84Zm1.781.383 5.707.004-.672.484-3.941.09Zm-1.785.906v.7l-3.773 2.483.004-.785Zm3.453.082 3.352.008.058.414h-2.879Zm.926.851 2.57.016.121.535-2.285-.023Zm-4.379.38v.648l-3.773 2.422v-.72Zm7.129.519.027.508-1.53.054-.435-.527Zm-.016.898-.011.535-1.07.016-.239-.512Zm-.953.953.844.004-.07.41-.653.008Zm.254.985.41-.004-.07.324h-.207Zm8.336 5.41-.2.23 5.895-.011.067-.23Zm7.598-.016-.106.313 2.66-.004.075-.313Zm4.343.055-.082.293 6.801-.012-.113-.293Zm8.133-.016.14.36 2.29-.004-.152-.36Zm7.895-.015-4.016.011.145.399 4.152-.008Zm0 0" style="stroke:none;fill-rule:nonzero;fill:#000;fill-opacity:1"/><path d="M24.797 35.848a19.47 19.47 0 0 0-2.863-4.418c-.739-.86-1.555-1.649-2.38-2.426-.644-.61-1.296-1.211-1.824-1.922-.355-.484-.652-1.02-.796-1.602-.254-1.058.023-2.19.55-3.144a5.23 5.23 0 0 1 1.188-1.473c.723-.605 1.66-.968 2.594-.886.855.07 1.656.503 2.28 1.101a5.175 5.175 0 0 1 1.259 1.906 5.175 5.175 0 0 1 1.258-1.906c.625-.598 1.425-1.031 2.28-1.101.934-.082 1.876.28 2.595.886.488.407.878.918 1.187 1.473.527.953.805 2.086.55 3.144-.144.582-.44 1.118-.796 1.602-.527.711-1.18 1.313-1.824 1.922-.825.777-1.637 1.566-2.38 2.426a19.47 19.47 0 0 0-2.863 4.418M74.188 104.152a19.47 19.47 0 0 1-2.864 4.418c-.742.86-1.554 1.649-2.379 2.426-.644.61-1.297 1.211-1.824 1.922-.355.484-.652 1.02-.797 1.602-.254 1.058.024 2.19.551 3.144.309.555.7 1.066 1.188 1.473.718.605 1.66.968 2.593.886.856-.07 1.656-.503 2.281-1.101a5.175 5.175 0 0 0 1.258-1.906 5.175 5.175 0 0 0 1.258 1.906c.625.598 1.426 1.031 2.281 1.101.934.082 1.871-.28 2.594-.886a5.23 5.23 0 0 0 1.188-1.473c.527-.953.804-2.086.55-3.144-.144-.582-.441-1.118-.796-1.602-.528-.711-1.18-1.313-1.825-1.922-.824-.777-1.64-1.566-2.379-2.426a19.47 19.47 0 0 1-2.863-4.418M91.715 114.21a9.65 9.65 0 0 1-1.43 2.212c-.37.43-.777.824-1.187 1.21-.325.305-.653.606-.914.962-.18.242-.329.511-.399.8-.129.532.012 1.098.274 1.575.156.277.351.531.593.734.364.305.832.484 1.301.445.426-.035.828-.253 1.14-.55.274-.266.489-.594.63-.953.136.359.351.687.625.953.312.297.715.515 1.14.55.469.04.938-.14 1.301-.445a2.64 2.64 0 0 0 .594-.734c.262-.477.402-1.043.273-1.574a2.267 2.267 0 0 0-.398-.801c-.262-.356-.59-.656-.914-.961a16.55 16.55 0 0 1-1.188-1.211 9.65 9.65 0 0 1-1.43-2.211M7.273 25.79a9.65 9.65 0 0 0-1.43-2.212 16.55 16.55 0 0 0-1.187-1.21c-.324-.305-.652-.606-.914-.962a2.267 2.267 0 0 1-.398-.8c-.13-.532.011-1.098.273-1.575a2.64 2.64 0 0 1 .594-.734c.363-.305.832-.485 1.3-.445.426.035.829.253 1.141.55.274.266.489.594.625.953.141-.359.356-.687.63-.953.312-.297.714-.515 1.14-.55.469-.04.937.14 1.3.445.243.203.438.457.594.734.262.477.403 1.043.274 1.574-.07.29-.219.56-.399.801-.261.356-.59.657-.914.961-.41.387-.816.781-1.187 1.211a9.65 9.65 0 0 0-1.43 2.211" style="stroke:none;fill-rule:nonzero;fill:red;fill-opacity:1"/></svg>