<svg xmlns="http://www.w3.org/2000/svg" width="99" height="140"><path d="M9.298 719.743h215.404c4.93 0 8.92 4.005 8.92 8.938v314.362c0 4.934-3.99 8.938-8.92 8.938H9.298c-4.93 0-8.92-4.004-8.92-8.938V728.681c0-4.933 3.99-8.938 8.92-8.938Zm0 0" style="fill-rule:nonzero;fill:#fff;fill-opacity:1;stroke-width:.755906;stroke-linecap:butt;stroke-linejoin:miter;stroke:gray;stroke-opacity:1;stroke-miterlimit:4" transform="matrix(.42308 0 0 .42042 0 -302.435)"/><path d="M7.277 14.77c0 .136-.011.257-.035.363a.426.426 0 0 1-.226.066H3.828c-.191 0-.285-.191-.285-.578 0-.066.004-.168.008-.312.008-.149.008-.262.008-.336 0-.364.086-.547.25-.547h1.078v-7.61H3.574c-.187 0-.277-.195-.277-.578 0-.082.004-.215.012-.394.011-.188.02-.328.02-.422 0-.188.089-.277.273-.277.054 0 .152.007.296.03.141.016.254.024.336.024.461 0 .739-.304.836-.914h.828v10.14c.192 0 .399-.007.622-.03.222-.028.359-.04.402-.04.164 0 .27.082.308.254.032.149.047.536.047 1.16ZM11.262 9.383c0 3.879-.66 5.816-1.977 5.816-1.336 0-2.008-1.949-2.008-5.847 0-4.043.684-6.067 2.047-6.067 1.293 0 1.938 2.035 1.938 6.098Zm-1.04-.168c0-2.777-.316-4.168-.952-4.168-.375 0-.637.55-.797 1.648-.098.696-.149 1.559-.149 2.59 0 2.777.317 4.168.946 4.168.375 0 .64-.547.8-1.64.102-.704.153-1.57.153-2.598ZM91.723 125.23c0-.136.011-.257.035-.363a.426.426 0 0 1 .226-.066h3.188c.191 0 .285.191.285.578 0 .066-.004.168-.008.312-.008.149-.008.262-.008.336 0 .364-.086.547-.25.547h-1.078v7.61h1.313c.187 0 .277.195.277.578 0 .082-.004.215-.012.394-.011.188-.02.328-.02.422 0 .188-.089.281-.273.281-.054 0-.152-.011-.296-.035a3.229 3.229 0 0 0-.336-.023c-.461 0-.739.304-.836.914h-.828v-10.14c-.192 0-.399.007-.622.03-.222.028-.359.043-.402.043-.164 0-.27-.085-.308-.257-.032-.149-.047-.536-.047-1.16ZM87.738 130.617c0-3.879.66-5.816 1.977-5.816 1.336 0 2.008 1.949 2.008 5.847 0 4.043-.684 6.067-2.047 6.067-1.293 0-1.938-2.035-1.938-6.098Zm1.04.168c0 2.778.316 4.168.952 4.168.375 0 .637-.55.797-1.648.098-.696.149-1.559.149-2.59 0-2.778-.317-4.168-.946-4.168-.375 0-.64.547-.8 1.64-.102.704-.153 1.57-.153 2.598ZM24.793 39.82a29.097 29.097 0 0 0-4.297-6.629c-1.11-1.289-2.328-2.476-3.566-3.64-.965-.91-1.95-1.813-2.739-2.883-.535-.723-.98-1.527-1.191-2.402-.383-1.586.035-3.29.824-4.715.461-.832 1.051-1.602 1.781-2.211 1.082-.906 2.493-1.45 3.895-1.332 1.281.11 2.484.762 3.418 1.656a7.778 7.778 0 0 1 1.887 2.86 7.778 7.778 0 0 1 1.886-2.86c.938-.894 2.137-1.547 3.422-1.656 1.399-.117 2.809.426 3.89 1.332.731.61 1.321 1.379 1.782 2.21.79 1.427 1.207 3.13.824 4.716-.21.875-.656 1.68-1.191 2.402-.79 1.07-1.773 1.973-2.738 2.883-1.239 1.164-2.457 2.351-3.567 3.64a28.95 28.95 0 0 0-4.293 6.63M24.793 67.883a29.097 29.097 0 0 0-4.297-6.63c-1.11-1.288-2.328-2.476-3.566-3.64-.965-.91-1.95-1.812-2.739-2.883-.535-.722-.98-1.527-1.191-2.402-.383-1.586.035-3.289.824-4.715.461-.832 1.051-1.601 1.781-2.21 1.082-.907 2.493-1.45 3.895-1.333 1.281.11 2.484.762 3.418 1.657a7.746 7.746 0 0 1 1.887 2.859 7.746 7.746 0 0 1 1.886-2.86c.938-.894 2.137-1.546 3.422-1.656 1.399-.117 2.809.426 3.89 1.332.731.61 1.321 1.38 1.782 2.211.79 1.426 1.207 3.13.824 4.715-.21.875-.656 1.68-1.191 2.402-.79 1.07-1.773 1.973-2.738 2.883-1.239 1.164-2.457 2.352-3.567 3.64a28.95 28.95 0 0 0-4.293 6.63M74.18 39.82a28.95 28.95 0 0 0-4.293-6.629c-1.11-1.289-2.328-2.476-3.567-3.64-.965-.91-1.949-1.813-2.738-2.883-.535-.723-.98-1.527-1.191-2.402-.383-1.586.035-3.29.824-4.715.46-.832 1.05-1.602 1.781-2.211 1.082-.906 2.492-1.45 3.89-1.332 1.286.11 2.485.762 3.423 1.656a7.778 7.778 0 0 1 1.886 2.86 7.778 7.778 0 0 1 1.887-2.86c.934-.894 2.137-1.547 3.418-1.656 1.402-.117 2.813.426 3.895 1.332.73.61 1.32 1.379 1.78 2.21.79 1.427 1.208 3.13.825 4.716-.21.875-.656 1.68-1.191 2.402-.79 1.07-1.774 1.973-2.739 2.883-1.238 1.164-2.457 2.351-3.566 3.64a29.097 29.097 0 0 0-4.297 6.63M49.484 53.852a28.95 28.95 0 0 0-4.293-6.63c-1.109-1.288-2.328-2.476-3.566-3.64-.965-.91-1.95-1.812-2.738-2.883-.535-.722-.98-1.527-1.192-2.402-.383-1.586.035-3.29.825-4.715.46-.832 1.05-1.602 1.78-2.21 1.083-.907 2.493-1.45 3.891-1.333 1.286.11 2.489.762 3.422 1.656a7.778 7.778 0 0 1 1.887 2.86 7.778 7.778 0 0 1 1.887-2.86c.933-.894 2.136-1.547 3.422-1.656 1.398-.117 2.808.426 3.89 1.332.73.61 1.32 1.379 1.781 2.211.79 1.426 1.208 3.129.825 4.715-.211.875-.657 1.68-1.192 2.402-.789 1.07-1.773 1.973-2.738 2.883-1.238 1.164-2.457 2.352-3.566 3.64a28.95 28.95 0 0 0-4.293 6.63M74.18 67.883a28.95 28.95 0 0 0-4.293-6.63c-1.11-1.288-2.328-2.476-3.567-3.64-.965-.91-1.949-1.812-2.738-2.883-.535-.722-.98-1.527-1.191-2.402-.383-1.586.035-3.289.824-4.715.46-.832 1.05-1.601 1.781-2.21 1.082-.907 2.492-1.45 3.89-1.333 1.286.11 2.485.762 3.423 1.657a7.746 7.746 0 0 1 1.886 2.859 7.746 7.746 0 0 1 1.887-2.86c.934-.894 2.137-1.546 3.418-1.656 1.402-.117 2.813.426 3.895 1.332.73.61 1.32 1.38 1.78 2.211.79 1.426 1.208 3.13.825 4.715-.21.875-.656 1.68-1.191 2.402-.79 1.07-1.774 1.973-2.739 2.883-1.238 1.164-2.457 2.352-3.566 3.64a29.097 29.097 0 0 0-4.297 6.63M24.793 100.18a29.097 29.097 0 0 1-4.297 6.629c-1.11 1.289-2.328 2.476-3.566 3.64-.965.91-1.95 1.813-2.739 2.883-.535.723-.98 1.527-1.191 2.402-.383 1.586.035 3.29.824 4.715.461.832 1.051 1.602 1.781 2.211 1.082.906 2.493 1.45 3.895 1.332 1.281-.11 2.484-.762 3.418-1.656a7.778 7.778 0 0 0 1.887-2.86 7.778 7.778 0 0 0 1.886 2.86c.938.894 2.137 1.547 3.422 1.656 1.399.117 2.809-.426 3.89-1.332.731-.61 1.321-1.379 1.782-2.21.79-1.427 1.207-3.13.824-4.716-.21-.875-.656-1.68-1.191-2.402-.79-1.07-1.773-1.973-2.738-2.883-1.239-1.164-2.457-2.351-3.567-3.64a28.95 28.95 0 0 1-4.293-6.63M24.793 72.117a29.097 29.097 0 0 1-4.297 6.63c-1.11 1.288-2.328 2.476-3.566 3.64-.965.91-1.95 1.812-2.739 2.883-.535.722-.98 1.527-1.191 2.402-.383 1.586.035 3.289.824 4.715.461.832 1.051 1.601 1.781 2.21 1.082.907 2.493 1.45 3.895 1.333 1.281-.11 2.484-.762 3.418-1.657a7.746 7.746 0 0 0 1.887-2.859 7.746 7.746 0 0 0 1.886 2.86c.938.894 2.137 1.546 3.422 1.656 1.399.117 2.809-.426 3.89-1.332.731-.61 1.321-1.38 1.782-2.211.79-1.426 1.207-3.13.824-4.715-.21-.875-.656-1.68-1.191-2.402-.79-1.07-1.773-1.973-2.738-2.883-1.239-1.164-2.457-2.352-3.567-3.64a28.95 28.95 0 0 1-4.293-6.63M74.18 100.18a28.95 28.95 0 0 1-4.293 6.629c-1.11 1.289-2.328 2.476-3.567 3.64-.965.91-1.949 1.813-2.738 2.883-.535.723-.98 1.527-1.191 2.402-.383 1.586.035 3.29.824 4.715.46.832 1.05 1.602 1.781 2.211 1.082.906 2.492 1.45 3.89 1.332 1.286-.11 2.485-.762 3.423-1.656a7.778 7.778 0 0 0 1.886-2.86 7.778 7.778 0 0 0 1.887 2.86c.934.894 2.137 1.547 3.418 1.656 1.402.117 2.813-.426 3.895-1.332.73-.61 1.32-1.379 1.78-2.21.79-1.427 1.208-3.13.825-4.716-.21-.875-.656-1.68-1.191-2.402-.79-1.07-1.774-1.973-2.739-2.883-1.238-1.164-2.457-2.351-3.566-3.64a29.097 29.097 0 0 1-4.297-6.63M49.484 86.148a28.95 28.95 0 0 1-4.293 6.63c-1.109 1.288-2.328 2.476-3.566 3.64-.965.91-1.95 1.812-2.738 2.883-.535.722-.98 1.527-1.192 2.402-.383 1.586.035 3.29.825 4.715.46.832 1.05 1.602 1.78 2.21 1.083.907 2.493 1.45 3.891 1.333 1.286-.11 2.489-.762 3.422-1.656a7.778 7.778 0 0 0 1.887-2.86 7.778 7.778 0 0 0 1.887 2.86c.933.894 2.136 1.547 3.422 1.656 1.398.117 2.808-.426 3.89-1.332.73-.61 1.32-1.379 1.781-2.211.79-1.426 1.208-3.129.825-4.715-.211-.875-.657-1.68-1.192-2.402-.789-1.07-1.773-1.973-2.738-2.883-1.238-1.164-2.457-2.352-3.566-3.64a28.95 28.95 0 0 1-4.293-6.63M74.18 72.117a28.95 28.95 0 0 1-4.293 6.63c-1.11 1.288-2.328 2.476-3.567 3.64-.965.91-1.949 1.812-2.738 2.883-.535.722-.98 1.527-1.191 2.402-.383 1.586.035 3.289.824 4.715.46.832 1.05 1.601 1.781 2.21 1.082.907 2.492 1.45 3.89 1.333 1.286-.11 2.485-.762 3.423-1.657a7.746 7.746 0 0 0 1.886-2.859 7.746 7.746 0 0 0 1.887 2.86c.934.894 2.137 1.546 3.418 1.656 1.402.117 2.813-.426 3.895-1.332.73-.61 1.32-1.38 1.78-2.211.79-1.426 1.208-3.13.825-4.715-.21-.875-.656-1.68-1.191-2.402-.79-1.07-1.774-1.973-2.739-2.883-1.238-1.164-2.457-2.352-3.566-3.64a29.097 29.097 0 0 1-4.297-6.63M91.715 114.21a9.65 9.65 0 0 1-1.43 2.212c-.37.43-.777.824-1.187 1.21-.325.305-.653.606-.914.962-.18.242-.329.511-.399.8-.129.532.012 1.098.274 1.575.156.277.351.531.593.734.364.305.832.484 1.301.445.426-.035.828-.253 1.14-.55.274-.266.489-.594.63-.953.136.359.351.687.625.953.312.297.715.515 1.14.55.469.04.938-.14 1.301-.445a2.64 2.64 0 0 0 .594-.734c.262-.477.402-1.043.273-1.574a2.267 2.267 0 0 0-.398-.801c-.262-.356-.59-.656-.914-.961a16.55 16.55 0 0 1-1.188-1.211 9.65 9.65 0 0 1-1.43-2.211M7.273 25.79a9.65 9.65 0 0 0-1.43-2.212 16.55 16.55 0 0 0-1.187-1.21c-.324-.305-.652-.606-.914-.962a2.267 2.267 0 0 1-.398-.8c-.13-.532.011-1.098.273-1.575a2.64 2.64 0 0 1 .594-.734c.363-.305.832-.485 1.3-.445.426.035.829.253 1.141.55.274.266.489.594.625.953.141-.359.356-.687.63-.953.312-.297.714-.515 1.14-.55.469-.04.937.14 1.3.445.243.203.438.457.594.734.262.477.403 1.043.274 1.574-.07.29-.219.56-.399.801-.261.356-.59.657-.914.961-.41.387-.816.781-1.187 1.211a9.65 9.65 0 0 0-1.43 2.211" style="stroke:none;fill-rule:nonzero;fill:red;fill-opacity:1"/></svg>