<svg xmlns="http://www.w3.org/2000/svg" width="99" height="140"><path d="M9.298.38h215.404c4.93 0 8.92 4.005 8.92 8.94v314.36c0 4.935-3.99 8.94-8.92 8.94H9.298c-4.93 0-8.92-4.005-8.92-8.94V9.32c0-4.935 3.99-8.94 8.92-8.94Zm0 0" style="fill-rule:nonzero;fill:#fff;fill-opacity:1;stroke-width:.755905;stroke-linecap:butt;stroke-linejoin:miter;stroke:gray;stroke-opacity:1;stroke-miterlimit:4.3" transform="scale(.42308 .42042)"/><path d="M5.457 25.79c0-.235-.012-.403-.012-.638h1.5V24c-.949.031-1.976.102-2.867-.29-.687-.374-.879-1.245-.738-1.964.117-.812.57-1.531 1.164-2.086.77-.816 1.75-1.37 2.773-1.812 1.047.449 2.051 1.02 2.828 1.859.704.656 1.172 1.582 1.157 2.555.015.699-.422 1.437-1.14 1.59-.806.222-1.622.183-2.45.148v1.152h1.422c0 .235.011.403.011.637a283.894 283.894 0 0 0-3.648 0ZM89.898 114.21c0 .235-.011.403-.011.638h1.5V116c-.95-.031-1.977-.102-2.867.29-.688.374-.88 1.245-.739 1.964.117.812.57 1.531 1.164 2.086.77.816 1.75 1.37 2.774 1.812 1.047-.449 2.05-1.02 2.828-1.859.703-.656 1.172-1.582 1.156-2.555.016-.699-.422-1.437-1.14-1.59-.805-.222-1.622-.183-2.45-.148v-1.152h1.422c0-.235.012-.403.012-.637-1.113.008-2.445.008-3.649 0ZM11.262 15.2H9.625l-.645-2.454H5.605L4.934 15.2H3.297L6.484 3.285h1.598ZM8.39 10.534l-1.098-4.09-1.102 4.09ZM87.738 124.8h1.637l.645 2.454h3.375l.671-2.453h1.637l-3.187 11.914h-1.598Zm2.871 4.665 1.098 4.09 1.102-4.09Zm0 0" style="stroke:none;fill-rule:nonzero;fill:#000;fill-opacity:1"/><path d="M49.304 202.55c-14.551-7.99-18.567-26.573-15.631-41.857 2.51-17.245 12.095-32.547 24.596-44.347 16.278-17.403 37.034-29.147 58.703-38.606 22.122 9.617 43.34 21.751 59.82 39.61 14.838 13.955 24.736 33.661 24.431 54.297.323 14.904-8.91 30.643-24.135 33.895-17.035 4.72-34.273 3.874-60.762 3.837-26.499-.037-48.224 1.45-67.022-6.829Zm0 0" style="fill-rule:nonzero;fill:#fff;fill-opacity:1;stroke-width:4.72441;stroke-linecap:butt;stroke-linejoin:miter;stroke:#000;stroke-opacity:1;stroke-miterlimit:4" transform="scale(.42308 .42042)"/><path d="M34.602 100.328v-5.226h11.675v-9.293c-7.675.246-15.476.851-22.668-2.301-5.566-3.043-7.101-10.121-5.98-15.942.96-6.566 4.629-12.398 9.41-16.89 6.227-6.63 14.164-11.102 22.45-14.703 8.46 3.664 16.574 8.285 22.878 15.086 5.676 5.312 9.461 12.82 9.344 20.68.125 5.675-3.406 11.671-9.23 12.91-6.512 1.792-13.07 1.476-19.758 1.199v9.254h11.675v5.226c-9.007-.062-29.796.02-29.796 0Zm0 0" style="stroke:none;fill-rule:nonzero;fill:#000;fill-opacity:1"/><path d="M57.988 63.387c0 9.422-3.793 17.062-8.472 17.062-4.68 0-8.473-7.64-8.473-17.062s3.793-17.063 8.473-17.063c4.68 0 8.472 7.64 8.472 17.063Zm0 0" style="stroke:none;fill-rule:nonzero;fill:#fff;fill-opacity:1"/><path d="M116.344 154.096c-1.818 1.385-2.225 1.85-3.222 3.382-.37.586-1.043 1.97-1.228 2.899-.184.92-.323 2.267-.323 2.973 0 2.416.766 3.921 1.597 3.875.748-.093 1.708-.874 3.149-2.639" style="fill-rule:evenodd;fill:#000;fill-opacity:1;stroke-width:.755906;stroke-linecap:butt;stroke-linejoin:miter;stroke:#000;stroke-opacity:1;stroke-miterlimit:4" transform="scale(.42308 .42042)"/><path d="M117.646 154.133c1.82 1.385 2.225 1.85 3.232 3.382.36.586 1.034 1.97 1.228 2.9.184.919.323 2.266.323 2.972-.01 2.416-.776 3.921-1.607 3.875-.747-.084-1.698-.873-3.148-2.639" style="fill-rule:evenodd;fill:#000;fill-opacity:1;stroke-width:.755906;stroke-linecap:butt;stroke-linejoin:bevel;stroke:#000;stroke-opacity:1;stroke-miterlimit:4" transform="scale(.42308 .42042)"/><path d="M93.225 149.571c-3.582-3.493-6.094-9.542-6.435-16.083-.388-7.2 3.407-14.355 9.085-18.434 6.37-4.478 17.007-5.723 23.627-5.389 4.478 0 14.459 2.332 17.986 4.952 6.186 4.507 9.5 10.89 9.722 18.165.342 7.312-2.733 12.878-6.5 16.353" style="fill-rule:nonzero;fill:#fff;fill-opacity:1;stroke-width:1.133858;stroke-linecap:round;stroke-linejoin:round;stroke:#000;stroke-opacity:1;stroke-miterlimit:4" transform="scale(.42308 .42042)"/><path d="M97.592 163.713c1.302 3.14 2.678 6.215 2.807 9.44-.6 2.601-.415 5.677.231 8.12.84 3.354 4.09 7.34 7.34 8.66 3.324 1.217 5.401 1.523 9.122 1.523" style="fill-rule:nonzero;fill:#fff;fill-opacity:1;stroke-width:1.133858;stroke-linecap:butt;stroke-linejoin:miter;stroke:#000;stroke-opacity:1;stroke-miterlimit:4" transform="scale(.42308 .42042)"/><path d="M100.852 164.716c1.07 2.5 1.394 3.865 2.17 6.365.655 2.304.895 3.707 1.301 6.987" style="fill:none;stroke-width:1.133858;stroke-linecap:butt;stroke-linejoin:miter;stroke:#000;stroke-opacity:1;stroke-miterlimit:4" transform="scale(.42308 .42042)"/><path d="M93.438 129.075c-1.45 1.273-1.265 3.187-1.007 6.039.212 2.165 1.588 4.302 1.662 6.28.508 4.182-.73 8.363-1.302 11.773-.406 3.93.72 7.303 2.18 8.613 1.449 1.292 3.323 1.821 5.29 2.425 1.79.474 2.714 1.282 4.071 2.295 1.616 1.71 1.995 3.131 1.958 4.878" style="fill-rule:nonzero;fill:#fff;fill-opacity:1;stroke-width:1.133858;stroke-linecap:butt;stroke-linejoin:round;stroke:#000;stroke-opacity:1;stroke-miterlimit:4" transform="scale(.42308 .42042)"/><path d="M136.39 163.713c-1.293 3.14-2.678 6.215-2.808 9.44.6 2.601.416 5.677-.23 8.12-.831 3.354-4.118 7.22-7.368 8.548-3.25 1.329-5.328 1.635-9.049 1.635" style="fill-rule:nonzero;fill:#fff;fill-opacity:1;stroke-width:1.133858;stroke-linecap:butt;stroke-linejoin:miter;stroke:#000;stroke-opacity:1;stroke-miterlimit:4" transform="scale(.42308 .42042)"/><path d="M106.004 171.508c2.63 1.607 7.183 1.375 11.264 1.3 4.533-.018 8.42-.352 10.978-1.895M106.373 175.392c3.038 1.914 6.62 2.573 10.738 2.416 4.284-.103 7.562-.465 10.488-2.472" style="fill:none;stroke-width:1.133858;stroke-linecap:butt;stroke-linejoin:miter;stroke:#000;stroke-opacity:1;stroke-miterlimit:4" transform="scale(.42308 .42042)"/><path d="M229.901 385.646c17.348 20.96 41.594 24.577 69.143 25.32 29.52 1.09 59.188-10.653 66.826-25.32M240.694 350.962l.345 44.495M254.986 358.642l-.246 44.099M269.968 360.525l-.444 46.18M283.47 361.516l-.196 46.873M298.7 361.962v46.824M313.237 359.187l.197 49.4" style="fill:none;stroke-width:6.049412;stroke-linecap:butt;stroke-linejoin:miter;stroke:#000;stroke-opacity:1;stroke-miterlimit:4" transform="matrix(.07926 0 0 .07884 25.848 44.312)"/><path d="m326.763 360.525.443 45.981" style="fill:none;stroke-width:6.049412;stroke-linecap:butt;stroke-linejoin:miter;stroke:#000;stroke-opacity:1;stroke-miterlimit:4" transform="matrix(.07926 0 0 .07884 25.815 44.312)"/><path d="m341.574 357.998.198 44.148M357.147 350.02l-1.429 44.198" style="fill:none;stroke-width:6.049412;stroke-linecap:butt;stroke-linejoin:miter;stroke:#000;stroke-opacity:1;stroke-miterlimit:4" transform="matrix(.07926 0 0 .07884 25.848 44.312)"/><path d="M133.12 164.651c-1.061 2.5-1.467 3.79-2.234 6.29-.655 2.304-.895 3.707-1.301 6.987" style="fill:none;stroke-width:1.133858;stroke-linecap:butt;stroke-linejoin:miter;stroke:#000;stroke-opacity:1;stroke-miterlimit:4" transform="scale(.42308 .42042)"/><path d="M100.898 143.57c2.52-.438 4.967-.726 7.488-1.014 3.305-.836 4.967 2.936 4.053 5.78-1.136 2.517-2.751 4.729-4.598 6.866-1.431 1.616-3.13 1.877-4.755 1.328-1.311-.362-2.52-1.17-3.823-3.047-.572-1.607-1.07-2.444-1.79-4.45-.573-1.85.313-4.61 3.425-5.464Zm0 0" style="fill-rule:evenodd;fill:#000;fill-opacity:1;stroke-width:.755906;stroke-linecap:butt;stroke-linejoin:miter;stroke:#000;stroke-opacity:1;stroke-miterlimit:4" transform="scale(.42308 .42042)"/><path d="M140.729 128.963c1.45 1.273 1.265 3.187 1.006 6.04-.203 2.164-1.588 4.301-1.662 6.28-.508 4.182.73 8.363 1.311 11.772.397 3.93-.73 7.303-2.179 8.614-1.459 1.291-4.118 1.988-5.3 2.425-1.384.483-2.797 1.365-4.071 2.378-1.533 1.477-1.995 3.048-1.958 4.794" style="fill-rule:nonzero;fill:#fff;fill-opacity:1;stroke-width:1.133858;stroke-linecap:butt;stroke-linejoin:round;stroke:#000;stroke-opacity:1;stroke-miterlimit:4" transform="scale(.42308 .42042)"/><path d="M133.14 143.57c-2.521-.438-4.968-.726-7.489-1.014-3.296-.836-4.967 2.936-4.053 5.78 1.145 2.517 2.751 4.729 4.598 6.866 1.431 1.616 3.14 1.877 4.764 1.328 1.311-.362 2.52-1.17 3.823-3.047.563-1.607 1.061-2.444 1.79-4.45.573-1.85-.322-4.61-3.434-5.464Zm0 0" style="fill-rule:evenodd;fill:#000;fill-opacity:1;stroke-width:.755906;stroke-linecap:butt;stroke-linejoin:miter;stroke:#000;stroke-opacity:1;stroke-miterlimit:4" transform="scale(.42308 .42042)"/><path d="m103.945 207.512-.157 13.546H76.54v22.597h81.749v-22.597h-28.087V208.99" style="fill:none;stroke-width:4.72441;stroke-linecap:butt;stroke-linejoin:miter;stroke:#000;stroke-opacity:1;stroke-miterlimit:4" transform="scale(.42308 .42042)"/><path d="M44.93 86.98h1.328v2.34H44.93ZM52.707 86.93h1.402v2.34h-1.402Zm0 0" style="stroke:none;fill-rule:nonzero;fill:#fff;fill-opacity:1"/><path d="M31.441 110.898h-.863v-4.562h.863ZM34.898 109.719c0 .394-.136.71-.41.949-.261.23-.593.344-.992.344-.648 0-1.14-.328-1.473-.989l.73-.441c.224.402.474.606.763.606.132 0 .25-.04.355-.114a.387.387 0 0 0 .172-.316c0-.137-.074-.285-.23-.445a4.51 4.51 0 0 0-.391-.34c-.375-.309-.633-.54-.766-.692-.277-.312-.418-.613-.418-.906 0-.336.13-.613.383-.836.242-.215.535-.32.875-.32.457 0 .899.246 1.324.734l-.644.57c-.227-.316-.457-.472-.692-.472a.444.444 0 0 0-.257.074c-.09.059-.133.133-.133.223 0 .078.027.148.078.218.074.094.285.29.637.586.34.282.539.457.605.524.324.328.484.676.484 1.043ZM41.492 108.68c0 .718-.219 1.289-.66 1.703a1.8 1.8 0 0 1-.895.457c-.203.039-.546.058-1.027.058h-1.047v-4.562h1.032c.574 0 1.011.059 1.32.176.402.156.722.445.965.87.207.372.312.802.312 1.298Zm-.879-.024c0-.988-.531-1.484-1.586-1.484h-.297v2.875h.403c.34 0 .594-.031.762-.094.23-.086.414-.254.546-.5.114-.215.172-.48.172-.797ZM45.395 109.055c0 .375-.012.636-.04.78a1.43 1.43 0 0 1-.332.692c-.289.325-.68.485-1.175.485-.297 0-.57-.067-.817-.2a1.304 1.304 0 0 1-.578-.601c-.105-.227-.156-.613-.156-1.156v-2.72h.875v2.954c0 .203.012.348.035.441.04.157.125.274.254.348a.657.657 0 0 0 .371.098c.316 0 .527-.125.625-.375.043-.11.063-.317.063-.621v-2.844h.875ZM48.488 107.191h-.832v3.707h-.886v-3.707h-.813v-.855h2.531ZM52.32 106.336l-1.34 2.586v1.976h-.875v-1.976l-1.347-2.586h.937l.852 1.637.848-1.637ZM57.89 107.66c0 .309-.081.57-.242.785a1.288 1.288 0 0 1-.691.45c-.164.046-.469.07-.918.07v1.933h-.871v-4.562h.926c.398 0 .699.023.894.078.317.082.555.25.711.504.125.207.192.453.192.742Zm-.843 0a.42.42 0 0 0-.207-.387c-.102-.058-.285-.09-.555-.09h-.246v.934h.277c.348 0 .567-.066.657-.199a.428.428 0 0 0 .074-.258ZM62.785 110.898h-.906l-.36-.941h-1.867l-.37.941h-.907l1.766-4.562h.882Zm-1.59-1.789-.61-1.566-.608 1.566ZM64.266 110.898h-.868v-4.562h.868ZM68.875 108.68c0 .718-.219 1.289-.656 1.703a1.83 1.83 0 0 1-.899.457c-.203.039-.543.058-1.027.058h-1.047v-4.562h1.031c.575 0 1.012.059 1.32.176.403.156.723.445.966.87.21.372.312.802.312 1.298Zm-.879-.024c0-.988-.527-1.484-1.586-1.484h-.297v2.875h.407c.335 0 .59-.031.757-.094.235-.086.414-.254.547-.5.114-.215.172-.48.172-.797ZM24.52 43.578l-1.407 1.613-3.457-2.988.57-.656 2.833 2.445.832-.957ZM25.555 42.547l-.61.613-3.25-3.215.61-.613ZM26.207 35.941l1.656 4.559-.648.535-4.172-2.476.691-.57 2.961 1.761-1.18-3.238ZM30.398 38.625l-.707.496-2.632-3.734.71-.496ZM34.297 36.102l-.707.449-3.266-1.473 1.613 2.524-.734.468-2.46-3.847.702-.45 3.278 1.48-1.621-2.53.734-.47ZM38.164 31.512c.191.328.281.707.27 1.144-.02.848-.418 1.485-1.196 1.907-.41.222-.82.335-1.238.335a2.245 2.245 0 0 1-1.227-.351 2.46 2.46 0 0 1-.875-.926 2.263 2.263 0 0 1-.23-1.668c.16-.695.578-1.223 1.246-1.586a2.581 2.581 0 0 1 2.145-.187l-.246.824c-.536-.176-1.032-.14-1.485.105-.39.211-.648.516-.777.918-.133.407-.094.801.117 1.188.219.394.543.652.969.762.418.113.828.058 1.23-.16.524-.286.766-.715.73-1.29l-1.163.633-.391-.715 2.02-1.097ZM45.586 30.637l-.84.336-.687-.735-1.73.696.007 1.011-.84.34-.078-4.89.816-.332Zm-2.148-1.063-1.153-1.226.028 1.68ZM52.906 27.668c-.02.379-.156.746-.406 1.105-.488.696-1.172 1.008-2.055.934a2.62 2.62 0 0 1-1.218-.398 2.245 2.245 0 0 1-.825-.97 2.381 2.381 0 0 1-.222-1.253c.05-.602.293-1.11.73-1.52.52-.488 1.156-.703 1.914-.64.785.066 1.418.41 1.899 1.023l-.664.551c-.352-.441-.786-.68-1.297-.727a1.593 1.593 0 0 0-1.157.34c-.332.266-.52.617-.554 1.055-.04.453.09.844.383 1.172.289.32.66.504 1.117.539.594.05 1.035-.172 1.32-.672l-1.32-.11.07-.816 2.293.196ZM58.445 30.04a2.32 2.32 0 0 1-1.254 1.327c-.59.266-1.195.278-1.816.04-.629-.247-1.074-.669-1.332-1.266-.262-.598-.27-1.211-.023-1.836.156-.407.402-.739.73-1.004a2.344 2.344 0 0 1 1.137-.5c.418-.063.828-.02 1.226.137a2.238 2.238 0 0 1 1.313 1.269c.254.605.258 1.215.02 1.832Zm-.812-.321c.156-.403.156-.793.004-1.176a1.42 1.42 0 0 0-.84-.816c-.41-.16-.8-.149-1.176.03-.367.177-.629.47-.789.88-.184.468-.16.906.07 1.312.18.317.438.54.778.672.398.156.785.14 1.168-.039.367-.176.629-.465.785-.863ZM63.438 32.45c-.293.593-.747 1-1.36 1.218-.613.215-1.215.176-1.816-.117-.602-.297-1.012-.754-1.219-1.371-.211-.621-.164-1.23.133-1.832.191-.391.46-.703.812-.942a2.302 2.302 0 0 1 1.176-.398c.426-.031.828.047 1.211.234.598.293.996.754 1.203 1.38.2.62.152 1.23-.14 1.827Zm-.782-.391a1.51 1.51 0 0 0 .102-1.168 1.415 1.415 0 0 0-.766-.887 1.404 1.404 0 0 0-1.172-.067c-.383.145-.668.415-.863.81-.223.452-.238.89-.043 1.312.152.332.395.574.723.738.379.183.77.203 1.164.055a1.52 1.52 0 0 0 .855-.793ZM67.41 34.84c-.367.617-.847.992-1.441 1.125-.336.074-.668.05-1.004-.063-.195-.07-.496-.23-.91-.472l-.903-.535 2.34-3.922.887.527c.492.29.84.566 1.043.824.27.336.394.75.383 1.239-.008.425-.14.851-.395 1.277Zm-.746-.469c.508-.851.309-1.547-.602-2.086l-.253-.152-1.473 2.472.348.208c.289.171.523.273.699.304a.992.992 0 0 0 .726-.152c.211-.125.395-.324.555-.594ZM70.426 39.703l-1.711-1.281 2.746-3.652.7.523-2.25 2.988 1.015.758ZM71.543 40.648l-.664-.558 2.957-3.485.66.555ZM75.355 41.371l-1.023-.969-1.422 1.485-.62-.59 3.155-3.305 1.645 1.563-.586.613-1.02-.969-.574.598 1.02.969ZM76.168 45.25l-1.695-1.828 3.355-3.102 1.7 1.828-.626.579-1.109-1.196-.61.563 1.114 1.191-.617.57-1.11-1.195-.882.817 1.109 1.195Zm0 0" style="stroke:none;fill-rule:nonzero;fill:#000;fill-opacity:1"/></svg>