<svg xmlns="http://www.w3.org/2000/svg" width="99" height="140"><path d="M9.298 719.743h215.404c4.93 0 8.92 4.005 8.92 8.938v314.362c0 4.934-3.99 8.938-8.92 8.938H9.298c-4.93 0-8.92-4.004-8.92-8.938V728.681c0-4.933 3.99-8.938 8.92-8.938Zm0 0" style="fill-rule:nonzero;fill:#fff;fill-opacity:1;stroke-width:.755906;stroke-linecap:butt;stroke-linejoin:miter;stroke:gray;stroke-opacity:1;stroke-miterlimit:4" transform="matrix(.42308 0 0 .42042 0 -302.435)"/><path d="M19.34 67.883c0-.703-.04-1.207-.04-1.91h4.497V62.52c-2.848.093-5.93.3-8.598-.868-2.062-1.125-2.633-3.746-2.215-5.898.356-2.434 1.715-4.59 3.489-6.254 2.308-2.453 5.254-4.113 8.328-5.445 3.137 1.355 6.148 3.066 8.484 5.586 2.11 1.968 3.512 4.746 3.469 7.656.043 2.101-1.266 4.32-3.426 4.781-2.414.664-4.86.547-7.34.442v3.453h4.254c0 .703.04 1.207.04 1.91-3.34-.024-7.337-.024-10.942 0ZM7.277 14.77c0 .136-.011.257-.035.363a.426.426 0 0 1-.226.066H3.828c-.191 0-.285-.191-.285-.578 0-.066.004-.168.008-.312.008-.149.008-.262.008-.336 0-.364.086-.547.25-.547h1.078v-7.61H3.574c-.187 0-.277-.195-.277-.578 0-.082.004-.215.012-.394.011-.188.02-.328.02-.422 0-.188.089-.277.273-.277.054 0 .152.007.296.03.141.016.254.024.336.024.461 0 .739-.304.836-.914h.828v10.14c.192 0 .399-.007.622-.03.222-.028.359-.04.402-.04.164 0 .27.082.308.254.032.149.047.536.047 1.16ZM11.262 9.383c0 3.879-.66 5.816-1.977 5.816-1.336 0-2.008-1.949-2.008-5.847 0-4.043.684-6.067 2.047-6.067 1.293 0 1.938 2.035 1.938 6.098Zm-1.04-.168c0-2.777-.316-4.168-.952-4.168-.375 0-.637.55-.797 1.648-.098.696-.149 1.559-.149 2.59 0 2.777.317 4.168.946 4.168.375 0 .64-.547.8-1.64.102-.704.153-1.57.153-2.598ZM91.723 125.23c0-.136.011-.257.035-.363a.426.426 0 0 1 .226-.066h3.188c.191 0 .285.191.285.578 0 .066-.004.168-.008.312-.008.149-.008.262-.008.336 0 .364-.086.547-.25.547h-1.078v7.61h1.313c.187 0 .277.195.277.578 0 .082-.004.215-.012.394-.011.188-.02.328-.02.422 0 .188-.089.281-.273.281-.054 0-.152-.011-.296-.035a3.229 3.229 0 0 0-.336-.023c-.461 0-.739.304-.836.914h-.828v-10.14c-.192 0-.399.007-.622.03-.222.028-.359.043-.402.043-.164 0-.27-.085-.308-.257-.032-.149-.047-.536-.047-1.16ZM87.738 130.617c0-3.879.66-5.816 1.977-5.816 1.336 0 2.008 1.949 2.008 5.847 0 4.043-.684 6.067-2.047 6.067-1.293 0-1.938-2.035-1.938-6.098Zm1.04.168c0 2.778.316 4.168.952 4.168.375 0 .637-.55.797-1.648.098-.696.149-1.559.149-2.59 0-2.778-.317-4.168-.946-4.168-.375 0-.64.547-.8 1.64-.102.704-.153 1.57-.153 2.598ZM19.34 72.117c0 .703-.04 1.207-.04 1.91h4.497v3.453c-2.848-.093-5.93-.3-8.598.868-2.062 1.125-2.633 3.746-2.215 5.898.356 2.434 1.715 4.59 3.489 6.254 2.308 2.453 5.254 4.113 8.328 5.445 3.137-1.355 6.148-3.066 8.484-5.586 2.11-1.968 3.512-4.746 3.469-7.656.043-2.101-1.266-4.32-3.426-4.781-2.414-.664-4.86-.547-7.34-.442v-3.453h4.254c0-.703.04-1.207.04-1.91-3.34.024-7.337.024-10.942 0ZM68.73 67.883c0-.703-.039-1.207-.039-1.91h4.496V62.52c-2.847.093-5.93.3-8.597-.868-2.063-1.125-2.633-3.746-2.215-5.898.355-2.434 1.715-4.59 3.488-6.254 2.309-2.453 5.254-4.113 8.328-5.445 3.137 1.355 6.149 3.066 8.485 5.586 2.105 1.968 3.511 4.746 3.469 7.656.043 2.101-1.266 4.32-3.426 4.781-2.414.664-4.86.547-7.34.442v3.453h4.254c0 .703.039 1.207.039 1.91-3.34-.024-7.336-.024-10.942 0ZM68.73 39.82c0-.703-.039-1.207-.039-1.91h4.496v-3.453c-2.847.094-5.93.3-8.597-.867-2.063-1.125-2.633-3.746-2.215-5.899.355-2.433 1.715-4.59 3.488-6.253 2.309-2.454 5.254-4.11 8.328-5.446 3.137 1.356 6.149 3.067 8.485 5.586 2.105 1.969 3.511 4.746 3.469 7.656.043 2.102-1.266 4.32-3.426 4.782-2.414.664-4.86.547-7.34.441v3.453h4.254c0 .703.039 1.207.039 1.91-3.34-.023-7.336-.023-10.942 0ZM19.34 39.82c0-.703-.04-1.207-.04-1.91h4.497v-3.453c-2.848.094-5.93.3-8.598-.867-2.062-1.125-2.633-3.746-2.215-5.899.356-2.433 1.715-4.59 3.489-6.253 2.308-2.454 5.254-4.11 8.328-5.446 3.137 1.356 6.148 3.067 8.484 5.586 2.11 1.969 3.512 4.746 3.469 7.656.043 2.102-1.266 4.32-3.426 4.782-2.414.664-4.86.547-7.34.441v3.453h4.254c0 .703.04 1.207.04 1.91-3.34-.023-7.337-.023-10.942 0ZM44.035 53.852c0-.704-.039-1.207-.039-1.91h4.496v-3.454c-2.847.094-5.93.301-8.597-.867-2.063-1.125-2.633-3.746-2.215-5.898.355-2.434 1.715-4.59 3.488-6.254 2.309-2.453 5.254-4.114 8.328-5.446 3.137 1.356 6.149 3.067 8.484 5.586 2.11 1.97 3.512 4.746 3.47 7.657.042 2.101-1.266 4.32-3.427 4.78-2.414.665-4.859.548-7.34.442v3.453h4.255c0 .704.039 1.207.039 1.91-3.34-.023-7.336-.023-10.942 0ZM5.457 25.79c0-.235-.012-.403-.012-.638h1.5V24c-.949.031-1.976.102-2.867-.29-.687-.374-.879-1.245-.738-1.964.117-.812.57-1.531 1.164-2.086.77-.816 1.75-1.37 2.773-1.812 1.047.449 2.051 1.02 2.828 1.859.704.656 1.172 1.582 1.157 2.555.015.699-.422 1.437-1.14 1.59-.806.222-1.622.183-2.45.148v1.152h1.422c0 .235.011.403.011.637a283.894 283.894 0 0 0-3.648 0ZM19.34 100.18c0 .703-.04 1.207-.04 1.91h4.497v3.453c-2.848-.094-5.93-.3-8.598.867-2.062 1.125-2.633 3.746-2.215 5.899.356 2.433 1.715 4.59 3.489 6.254 2.308 2.453 5.254 4.109 8.328 5.445 3.137-1.356 6.148-3.067 8.484-5.586 2.11-1.969 3.512-4.746 3.469-7.656.043-2.102-1.266-4.32-3.426-4.782-2.414-.664-4.86-.546-7.34-.441v-3.453h4.254c0-.703.04-1.207.04-1.91-3.34.023-7.337.023-10.942 0ZM44.035 86.148c0 .704-.039 1.207-.039 1.91h4.496v3.454c-2.847-.094-5.93-.301-8.597.867-2.063 1.125-2.633 3.746-2.215 5.898.355 2.434 1.715 4.59 3.488 6.254 2.309 2.453 5.254 4.114 8.328 5.446 3.137-1.356 6.149-3.067 8.484-5.586 2.11-1.97 3.512-4.746 3.47-7.657.042-2.101-1.266-4.32-3.427-4.78-2.414-.665-4.859-.548-7.34-.442v-3.453h4.255c0-.704.039-1.207.039-1.91-3.34.023-7.336.023-10.942 0ZM68.73 100.18c0 .703-.039 1.207-.039 1.91h4.496v3.453c-2.847-.094-5.93-.3-8.597.867-2.063 1.125-2.633 3.746-2.215 5.899.355 2.433 1.715 4.59 3.488 6.254 2.309 2.453 5.254 4.109 8.328 5.445 3.137-1.356 6.149-3.067 8.485-5.586 2.105-1.969 3.511-4.746 3.469-7.656.043-2.102-1.266-4.32-3.426-4.782-2.414-.664-4.86-.546-7.34-.441v-3.453h4.254c0-.703.039-1.207.039-1.91-3.34.023-7.336.023-10.942 0ZM68.73 72.117c0 .703-.039 1.207-.039 1.91h4.496v3.453c-2.847-.093-5.93-.3-8.597.868-2.063 1.125-2.633 3.746-2.215 5.898.355 2.434 1.715 4.59 3.488 6.254 2.309 2.453 5.254 4.113 8.328 5.445 3.137-1.355 6.149-3.066 8.485-5.586 2.105-1.968 3.511-4.746 3.469-7.656.043-2.101-1.266-4.32-3.426-4.781-2.414-.664-4.86-.547-7.34-.442v-3.453h4.254c0-.703.039-1.207.039-1.91-3.34.024-7.336.024-10.942 0ZM89.898 114.21c0 .235-.011.403-.011.638h1.5V116c-.95-.031-1.977-.102-2.867.29-.688.374-.88 1.245-.739 1.964.117.812.57 1.531 1.164 2.086.77.816 1.75 1.37 2.774 1.812 1.047-.449 2.05-1.02 2.828-1.859.703-.656 1.172-1.582 1.156-2.555.016-.699-.422-1.437-1.14-1.59-.805-.222-1.622-.183-2.45-.148v-1.152h1.422c0-.235.012-.403.012-.637-1.113.008-2.445.008-3.649 0Zm0 0" style="stroke:none;fill-rule:nonzero;fill:#000;fill-opacity:1"/></svg>