<svg xmlns="http://www.w3.org/2000/svg" width="99" height="140"><path d="M9.298 719.743h215.404c4.93 0 8.92 4.005 8.92 8.938v314.362c0 4.934-3.99 8.938-8.92 8.938H9.298c-4.93 0-8.92-4.004-8.92-8.938V728.681c0-4.933 3.99-8.938 8.92-8.938Zm0 0" style="fill-rule:nonzero;fill:#fff;fill-opacity:1;stroke-width:.755906;stroke-linecap:butt;stroke-linejoin:miter;stroke:gray;stroke-opacity:1;stroke-miterlimit:4" transform="matrix(.42308 0 0 .42042 0 -302.435)"/><path d="M11.262 15.2H9.598l-.649-1.227c-.539.43-1.14.648-1.8.648-1.09 0-2.004-.547-2.747-1.637-.738-1.097-1.105-2.441-1.105-4.035 0-1.023.168-1.965.504-2.832.34-.867.808-1.554 1.414-2.07.594-.508 1.234-.762 1.918-.762 1.07 0 1.972.559 2.71 1.672.739 1.117 1.11 2.457 1.11 4.027 0 1.465-.324 2.727-.973 3.786ZM9.55 8.972c0-1.008-.23-1.871-.688-2.582-.468-.73-1.043-1.094-1.73-1.094-.711 0-1.293.351-1.746 1.062-.453.704-.676 1.579-.676 2.625 0 1.196.289 2.137.875 2.832.457.543.976.817 1.559.817.332 0 .648-.098.94-.29L6.77 9.86H8.44l.66 1.254c.297-.644.45-1.36.45-2.14ZM87.738 124.8h1.664l.649 1.227a2.803 2.803 0 0 1 1.8-.648c1.09 0 2.004.547 2.747 1.637.738 1.097 1.105 2.441 1.105 4.035 0 1.023-.168 1.965-.504 2.832-.34.867-.808 1.554-1.414 2.07-.594.508-1.234.762-1.918.762-1.07 0-1.972-.559-2.71-1.672-.739-1.117-1.11-2.457-1.11-4.027 0-1.465.324-2.727.973-3.786Zm1.711 6.227c0 1.008.23 1.871.688 2.582.468.73 1.043 1.094 1.73 1.094.711 0 1.293-.351 1.746-1.062.453-.703.676-1.578.676-2.625 0-1.196-.289-2.137-.875-2.832-.457-.543-.977-.817-1.559-.817-.332 0-.648.098-.94.29l1.315 2.484H90.56l-.66-1.254a5.062 5.062 0 0 0-.45 2.14ZM5.457 25.79c0-.235-.012-.403-.012-.638h1.5V24c-.949.031-1.976.102-2.867-.29-.687-.374-.879-1.245-.738-1.964.117-.812.57-1.531 1.164-2.086.77-.816 1.75-1.37 2.773-1.812 1.047.449 2.051 1.02 2.828 1.859.704.656 1.172 1.582 1.157 2.555.015.699-.422 1.437-1.14 1.59-.806.222-1.622.183-2.45.148v1.152h1.422c0 .235.011.403.011.637a283.894 283.894 0 0 0-3.648 0ZM89.898 114.21c0 .235-.011.403-.011.638h1.5V116c-.95-.031-1.977-.102-2.867.29-.688.374-.88 1.245-.739 1.964.117.812.57 1.531 1.164 2.086.77.816 1.75 1.37 2.774 1.812 1.047-.449 2.05-1.02 2.828-1.859.703-.656 1.172-1.582 1.156-2.555.016-.699-.422-1.437-1.14-1.59-.805-.222-1.622-.183-2.45-.148v-1.152h1.422c0-.235.012-.403.012-.637-1.113.008-2.445.008-3.649 0ZM21.16 35.848c0-.465-.027-.805-.027-1.274h3v-2.3c-1.899.062-3.953.203-5.73-.579-1.376-.75-1.758-2.496-1.481-3.933.238-1.621 1.144-3.059 2.328-4.168 1.54-1.637 3.504-2.742 5.55-3.63 2.095.903 4.102 2.044 5.66 3.724 1.403 1.312 2.34 3.164 2.31 5.105.03 1.398-.84 2.879-2.282 3.184-1.61.445-3.242.367-4.894.296v2.301h2.836c0 .469.027.809.027 1.274-2.227-.016-4.89-.016-7.297 0ZM70.55 104.152c0 .465-.027.805-.027 1.274h3v2.3c-1.898-.062-3.953-.203-5.73.579-1.375.75-1.758 2.496-1.48 3.933.238 1.621 1.144 3.059 2.328 4.168 1.539 1.637 3.504 2.742 5.55 3.63 2.094-.903 4.102-2.044 5.66-3.724 1.403-1.312 2.337-3.164 2.31-5.105.03-1.398-.845-2.879-2.282-3.184-1.613-.445-3.242-.367-4.895-.296v-2.301h2.836c0-.469.028-.809.028-1.274-2.23.016-4.891.016-7.297 0Zm0 0" style="stroke:none;fill-rule:nonzero;fill:#000;fill-opacity:1"/><path d="m45.195 123.18 10.477-17.47c0 .005 2.527.895 5.484 1.603-2.851 6.78-.05 15.73-.05 15.73s-15.919.125-15.91.137ZM16.543 93.254c-.578-7.434-.582-14.613.762-20.559.023-.097-3.727-2.09-3.34-2.32.598-.348 8.004-3.875 8.004-3.875s.5.262.93.223c.335-.032.652-.309.523-.61-.309-.71-.856-2.476-.52-4.25.192-1.02.797-2.14 1.422-2.828 1.399-1.531 4.578-.715 5.504-.738.59-.016 2.375-5.711-.45-6.77-.78-.293-2.573 3.59-1.335 4.465.187.133-2.496-1.3-4.55-2.156-.192-.078-1.032-.672-1.22-1.457-.234-.977 3.16-2.852 2.497-3.953-.97-1.606-3.47-4.008-4.54-3.352-1.015.836-3.437 2.547-3.421 3.723.75 2.105 2.668 2.254 3.675 4.246.25.43 2.102 2.242 2.102 2.242-.7.973.422 2.68.477 2.422L14.28 54.18s1.989 13.898-.14 15.953c-.227.219 1.882-.543 1.918-.422.636.742 7.726 4.89 9.753 6.383 3.618-4.61 4.938-6.637 9.594-10.723 1.024-.77 3.301-2.18 4.606-3.875 1.047-1.36 1.484-2.894 1.297-4.086-.239-1.543-.387-2.597-1.422-3.828-2.39-2.844-6.2-5.555-6.133-5.605l1.305-.97s4.695 3.575 6.683 6.2c1.336 1.77.73 3.793 1.887 4.156.281.09 2.18-.054 2.805.059.074.012 13.816 8.937 11.32 9.445-3.453.707-8.961.235-8.961.235-3.926-3.528-5.82-4.688-8.164-3.586 0 0-5.945 4.75-9.383 8.472-1.953 2.121-3.59 4.778-4.898 6.489-.508.656-6.801-4.907-6.739-4.243.926 6.047 1.446 13.332.711 18.27-.504 4.195-1.195 8.7-1.508 12.566 0 0 1.06-.28 1.868-.015.433.14.75.511.789.925.23 1.84-2.356 1.41-2.414 1.25.004-.003 1.437 2.844 1.437 2.844s-2.246 3.54-2.183 3.383c.039-.094-2.032-3.148-2.032-3.148s1.578-2.543 1.778-3.075c.12-.32-2.274 1.051-2.453-.937-.184-2.008 2.613-1.465 2.484-1.219-.328-4.11-1.07-8.363-1.543-11.824Zm33.668 9.3c.062-.042-5.941-2.218-11.461-2.023-1.941-.699-5.11-1.43-7.23-.14-2.375-1.48-4.43-3.11-6.512-4.727.582-.004 2.797-12.914 4.238-17.41-.629-5.59 5.246-5.578 5.746-1.102 6.317 6.008 14.051 12.223 22.024 18.34-1.274 2.414-5.864 4.246-6.805 7.063Zm13.91-39.511c-7.203-6.754-22.273-18.828-22.273-18.828l7.078-6.313c3.707 1.02 7.515 1.875 11.824 1.922.02.016 4.719 1.969 7.23.004l6.516 4.75s-2.73 13.04-4.328 17.59c.031 1.805-.719 4-2.66 4.32-1.66.278-2.934-1.883-3.387-3.445Zm14.606-15.594c.761-4.238.921-7.324 1.453-12.27-3.254.868-3.203-3.152-.008-2.09l-1.477-2.995 2.2-3.367 2.007 3.207-1.738 2.832c3.606.168 2.73 3.234-.375 2.488.578 4.742 1.856 9.531 1.785 14.215 1.102 7.52-1.406 17.968-.996 18.218l3.512 2.223-.633 16.348-5.543-2.242-1.656 1.02c.527.964 1.203 1.886 1.426 2.933 0 0 3.82 2.886 3.285 3.785.246.133-2.727 3.726-3.598 3.637-1.66-.176-3.601-2.145-4.129-3.547-.469-1.406 3.438-2.781 2.945-3.813-.585-1.234-2.07-1.828-3.386-2.191-1.817-.504-2.645-1.824-2.727-1.824 0 0-.715 5.226-1.394 4.808-2.73-1.687-.852-7.015-.344-6.867 0 0 1.195.254 2.602.379 4.968.484 4.644-5.117 3.687-7.828-.242-.64.137-.649.11-.656-.231-.07.804-.016 1.68-.254 2.413-.649 6.116-2.891 6.116-2.891-3.879-1.98-7.304-4.238-10.375-6.379 0 0-2.863 4.461-6.254 7.55-2.468 2.255-2.867 3.02-6.996 5.915-.082.059-3.133 3.39-1.691 7.285 1.234 3.336 7.191 6.953 7.148 7.195l-1.175 1.024c.046.062-8.434-4.836-8.223-10.09-.012-.2-3.86-.273-3.86-.273l-11.164-9.52 9.473-.02 4.86 3.649 3.038.148c.196.16.31-.734 2.989-2.562 5.12-3.488 11.476-12.453 11.476-12.453s6.692 4.328 6.7 4.328c-.325-6.484-1.454-13.465-.75-19.055ZM54.39 16.758S47.406 28.73 43.578 34.37l-5.406-1.43c2.277-5.507.125-16.02-.442-16.285Zm0 0" style="stroke:none;fill-rule:nonzero;fill:#e2cf00;fill-opacity:1"/><path d="m12.855 15.992.207 107.942 73.083.074-.004-107.899ZM63.5 94.297c3.473-2.95 6.906-5.383 10.117-7.149 1.246-.683 1.621-.785 2.11-.375.796.665 1.293 1.243 1.03 1.707-.058.106-.245.282-.245.282l-1.914-.672.613 1.992c-1.723.64-1.695 2.352-.035 3.258l-1.149 2.414 2.664-1.07c.102.527 1.996 1.8 3.18.004l2.399 1.082-.82-2.7c.788-.687 1.25-1.789.01-2.804l.575-2.114-2.168.645c-.543-.684-.86-.637-.984-.82-.035-.254-.043-.848-.403-1.395-.296-.45-.636-.93-.957-1.266-.168-.261-.03-.285.836-.71.407-.204.743-.407.743-.407s4.265 1.973 6.007 2.723l.032 36.164-23.422-.098c-2.621-7.215-.719-13.441-.016-16.062-1.226-.098-7.558-1.989-7.746-2.637 2.516-3.648 5.93-6.965 9.543-9.992Zm-45.598 10.45c-3.05-.911-3.09 2.46-1.527 2.726.402.066.824.125 1.457-.063.16.031-1.832 2.824-1.832 2.824s1.586 2.653 2.344 3.782l2.414-3.91-1.567-2.711c2.457 1.152 3.743-2.27 1.157-2.723-.625-.078-1.317.207-1.317.207l1.383-11.719c1.094.684 3.09 2.055 3.09 2.055.445 6.46.101 11.84 4.02 21.242l.027 6.54-13.52-.024.016-34.13 2.363 1.555c.047.192-.379.063-.152 2.438.203 2.148.91 5.871 1.644 11.91Zm48.711-87.665c.11.14.098.355.192.637.543 1.676 2.441 3.683 3.957 4.215.531.183.738.464.43.746-.387.355-1.985-.617-3.16-1.88-1.071-1.144-1.782-2.093-1.942-2.812-.09-.425-.137-.699-.067-.922.196-.25.438-.18.59.016Zm1.89-.18c.2 0 .47.22.63.614.39.945.996 1.652 1.953 2.265.25.164.352.407.223.551a.334.334 0 0 1-.18.094c-.746.191-2.7-1.89-2.856-3.184-.03-.277.075-.34.23-.34Zm2.438.032c.399 0 .586.757.356 1.152-.149.125-.477-.066-.77-.566-.25-.426-.148-.586.414-.586Zm-1.324.007c.086 0 .27-.043.363.075.153.785.793 1.351 1.305 1.804.086.149.13.461-.062.54-.45.183-1.801-1.231-1.809-2.047-.004-.247.078-.368.203-.372Zm-1.722.497c.472 1.43 1.62 2.593 2.648 3.203.738.43 1.02.675.68.894-.086.05-.172.094-.192.09-1.722-.605-3.836-2.898-3.906-4.516.379-.441.707.055.77.328Zm-5.977 6.19c-.906 0-2.016.188-2.918.56-1.254.519-1.57.867-1.387.992.13.09.938-.227 1.344-.274 2.184-.492 3.688-.613 5.11-.039 1.101.442 1.109.238.37-.496-.535-.531-1.492-.742-2.519-.742Zm7.7 1.11c.722-.004 1.46.153 1.722.461.203 1-.344.543-.781.34-.633-.27-1.36-.5-2.036-.406-.437.062-.449.039-.203-.086.375-.207.903-.305 1.297-.309Zm-8.563.375c-2.067.145-2.785 1.102-4.121 2.086-.547.383-.422.68.246.578.824-.12 1.156-.09 2.277.262 1.227.387 2.11.547 2.781.313 1.278-.45 1.168-.375-.66 1.242-.976.718-.582.68.406.058.735-.53 1.235-.87 1.391-1.164.074-.144.082-.656.219-.656.465.004.226-.527-.196-.754-.277-.183-.214-.371.145-.719.562-.543.371-.789-.238-.449-.11.05-.16-.113-.535-.32-.59-.328-1.086-.48-1.715-.477Zm1.488.715c.496.387.285.492-.805.48-.922-.007-1.707.079-2.8.41-1.243.376-1.32.384-.59-.183 1.007-.785 3.047-1.566 4.195-.707Zm6.453-.324c.5-.008.922.058 1.305.25 1.039.531 1.27.984.113.613-.727-.234-1.707-.203-2.387-.031-.703.176-.82.238-.726-.11.117-.425.86-.706 1.695-.722Zm-8.187 1.539c.246 1.137 1.183.766 1.277.082h.344c-.149.91-1.5 1.672-2.024-.082.11 0 .602.031.403 0Zm7.48.031.254-.008c.164.872 1.047 1.157 1.43.07l.308.009c-.238 1.812-2.328.925-1.992-.07Zm-8.2.074c.173.055.247.48.22.59-.059.235-.887-.015-1.063-.242.172-.168.582-.433.844-.348Zm11.263.211-.004.317c-.383.082-.54.281-.899.215.02-.203-.015-.48.192-.72.261-.124.57.032.71.188Zm-8.34.352a.916.916 0 0 1-.414.14c-.035-.304-.09-.648.324-.648.27.07.25.379.09.508Zm4.77-.496c.144.012.316.344.335.535-.047.316-.894.188-.894-.125 0-.133.355-.41.558-.41Zm-7.813 11.992c-.657-.3-5.637-3.086-6.903-8l-.254.504c.54 1.176 1.333 3.086 1.333 3.086-.032-.164.203 1.281.707 3.734-.27 0-.57-.07-.86-.14-.656-2.246-.808-4.008-1.355-6.203l-.242.613s.687 3.941 1.156 5.484a10.53 10.53 0 0 1-.766-.129c-.387-1.66-.687-2.777-1.055-4.445l-.34.402c.485 1.371.672 2.594.915 3.903-.332-.043-.668-.075-.989-.239 0 0-.496-2.39-.562-2.425a1.136 1.136 0 0 0-.274.406c-.02-.024.434 1.324.403 1.879-.32-.051-.875-.196-1.266-.317-.207.121-.312.332-.472.516.19.762 11.62 2.426 10.937 1.797-.004.066 5.04 2.035 7.855.375 0 0 4.891 3.336 6.801 4.668 0 .152.66.86 1.352 1.308l1.933 1.375c.567.399.79.11.88-.644.093-.844.773-6.516.929-7.723.59-4.074.59-4.031-.086-3.844-1.031.286-1.96-.09-1.957-1.058 0-.59.3-1.082.988-1.309.196-.062.45-.066.743-.058.132.02.382.035.406.039.328-.016-1.266-2.676-1.266-2.676s1.535-2.496 2.274-3.426l1.972 3.293-1.629 2.899c3.16-.211 2.844 3.425-.246 2.203 0 0-.02 1.082-.011 1.004.027-.313.023-.575.132-.633 2.993 1.047 3.61-2.957.383-2.778.531-.851 1.125-1.726 1.68-2.66l-2.328-3.906-2.64 4.016 1.32 2.515c-.297-.074-.54-.031-.86 0-1.953.364-1.539 3.246.695 2.856.254-.047.641-.223.641-.223L78.578 47.02s-.144.105-.719-.278c-.668-.441-2.066-1.402-2.156-1.504.516-7.527-1.523-15.449-3.86-20.414-.148-.379-.042-7.847-.042-7.847l13.293.05-.016 34.688c-.695-.403-1.445-.934-2.16-1.399-.215-.16-.348-.347-.254-.652-.234.461-.094.66-.094.66l2.93 2.156-.18 34.137s-4.734-2.246-7.652-3.332c-1.313-.496-1.375-.355-1.375-.355.004 0 .93 1.918.664 2.261.625.555 1.676 1.715 1.727 2.848.562.445.718.504 1.136 1.145l1.766-.582-.406 1.683c1.87 1.203.066 2.82-.282 2.668 0 0 .825 1.629 1.012 2.371-.297-.02-1.777-.761-2.191-.937-1.078 1.941-2.89.308-2.903.023l-2.015.817.715-2.098c-1.293-.727-2.168-1.82-.07-2.992l-.481-1.64 1.722.62s.325-.472.57-.816c-.64-2.574-4.882-2.098-6.237-4.414 0 0-.34 2.89-.688 3.937-.137 2.762-2.246-.035-2.238-2.96 0-.66.91-2.884 1.219-2.989.316-.043 3.34 1.305 5.374-.023.926-.883 2.528-3.364 1.004-7.25-.507-.899.965-1.012 1.442-.707 0 0 4.426-2.114 6.426-3.133-3.348-1.696-10.301-6.196-10.297-6.407-.93 1.348-2 2.48-3.496 4.391-2.43 2.617-4.332 5.102-7.414 7.188-4.332 2.882-5.356 5.793-4.153 9.207.485 1.476 1.465 2.976 3.074 3.496.817.761 4.106 3.625 4.106 3.625-5.504 4.582-9.285 8.347-11.942 12.515 2.235 1.078 7.618 2.649 7.618 2.649-2.012 6.094-1.11 10.941.199 15.804 0 0-15.637-.007-23.75-.253-.07.062-.95.02-.961-.032-.031-.547 1.465-2.039 1.914-1.828.223-.203.7-.305.613-.555-1.117-.124-2.82 1.649-2.89 2.383l-.668-.004c-.137-.109 1.218-2.992 3.922-3.218-.028.101.363-.223.07-.368-3.152.34-4.625 3.543-4.531 3.586h-.489c1.078-3.152 3.871-4.14 5.485-4.277.015-.004.523-.168.386-.441-3.566.562-5.347 1.972-6.21 4.718l-.645-.004c.469-2.78 3.598-5.214 7.129-5.128.11-.067.246-.141.187-.457-3.918.398-5.875 1.593-7.488 4.675-1.433-3.43-5.43-5.058-5.48-5.074 0 0-.094-.96.129-.922 3.41 1.14 4.718-1.574 4.582-3.156-.079-.875-.024-1.36-.344-2.629-.281-1.129-.492-1.89-.469-2.379.024-.488.188-.586.582-.746.73-.305 1.192-1.402 1.027-1.539-.375.8-1.37.938-1.828 1.477-.367.441-.207 1.148.438 3.597.394 1.496-.074.809-1 .34l-.617-.324c.414.394.851.762 1.273 1.144.379.32.164.516-.375.332-.781-.359-2.285-.214-2.863.235-.227.148-.305.133-.363-.004-.243-3.805.195-6.149 1.578-9.004.89-1.945 2.218-3.398 3.984-3.5 1.777-.133 4.332.445 6.652 1.895 2.727 1.703 5.38 4.289 5.657 7.46.011.036.21-.27.3-.433.125-.375-.328-1.508-1.035-2.82-.129-.989-.496-2.72-.785-3.891.219-.09.691-.04.824.11a60.72 60.72 0 0 1 1.27 6.034c.008.254.363-.375.363-.539-.058-.386-1.23-5.46-1.207-5.347.008-.172 1.121.058.965.219 0 0 .84 4.253.898 4.124l.286-.363s-.801-3.11-.7-3.707c.07-.09.696.094.895.195.246.305.402 1.415.508 2.172.285.2.343-.382.324-.535-.207-.3-.426-1.426-.262-1.484.13-.043.848.219.985.332.16.133.785-.66.628-.797-3.375-1.191-7.636-1.89-10.843-1.945-.742.004-1.04-.094-2.18-.473-2.91-.969-5.316-.012-5.672.29-3.547-2.27-7.508-5.438-10.664-7.462-.148-.09-.5-.144-.539-.144-.508 3.511-.867 7.578-1.3 10.816-.177 1.285-.196 1.387-.134 1.422.059.031.168-.02.211-.04 1.04-.35 1.977-.12 2.473.743.25 1.23-.926 2.04-2.164 1.453-.461-.219-.523-.176-.316.235.359.738 1.402 2.687 1.402 2.687s-1.418 2.637-2.133 3.356c-.691-1.032-1.578-2.075-1.96-3.204.546-.98 1.581-2.242 1.91-3.207-.048-.03-.329-.007-.524.086-1.809.782-2.094-.695-2.07-1.222.05-1.079 1.078-1.309 2.562-.801-1.59-9.797-1.922-15.38-1.512-14.774 0 0-1.937-1.277-2.902-2.14l.047-71.324 23.234.066c2.356 5.828 1.692 12.828.266 16.473 2.515.425 5.055.972 7.922 2.488-4.86 6.508-12.485 13.539-20.735 18.035-.468.195-2-.687-2.18-1.555-.042-.199.083-.597.329-.59.605.18 1.191.43 1.781.653 0 0-.82-1.899-.422-2.184.258-.156.473-.285.637-.445.594-.7.547-1.496-.078-2.105a2.349 2.349 0 0 0-.692-.473s.582-1.48.875-2.176l-2.289.691c-.738-.945-2.097-1.68-3.105-.277-.195.371-.153.317-1.567-.262-.804-.328-1.296-.496-1.296-.496.296.825.69 1.598 1.03 2.547-1.573.918-1.218 2.473.106 2.938l-.703 2.097s1.492-.504 2.3-.703c0 0 .708.656.915 1.278.36 1.062 1.176 1.836 1.691 2.273-.863.578-1.289.773-2.261 1.2l3.347 1.245c-.207-.648-.648-1.133-.691-1.953-.04-.703-.082-.719-.578-1.195-.809-.64-.93-1.5-1.383-2.203-.32-.176-.57-.532-.809-.93-.507.043-1.664.566-1.879.379-.27-.262.465-1.602.387-1.734-.59-.047-2.234-1.227-.27-2.536l-.62-2.132s1.492.597 2.207.937c.5-2.133 2.765-1.105 3.128-.187 0 0 1.801-.54 1.688-.098-.05.395-.344 1.379-.344 1.379 1.614 1.312 1.278 1.957-.039 2.816-.02.696.297 1.778.297 1.778s-.914-.375-1.516-.532c-.242.22-.515.618-.468.825.402 1.66 2.633 2.125 5.933 3.824.117-1.07.926-2.535 1.02-3.82.058-.938.094-.954.812-.653 1.89 1.258 1.305 4.703.614 6.117-.41.801-.477.778-1.27.547-1.102-.324-3.047-.199-4.117.133-1.48.555-2.184 3.578-2.203 4.5-.028.871.043 1.738.543 2.82.203.692-.176 1.223-.856 1.035-.152-.042-.515-.167-.515-.167l-6.395 3.02 1.203.651s-.887-.488-.336-.75l5.485-2.613c1.02.367.882.442 1.543-.191.398-.371.593-.38 1.12-.332 3.231.289 4.66-.14 5.223-1.38.082-.187.051-.179.38-.331.613-.215.902-.61.933-1.106.02-.324.176-.367.445-.593.5-.422.606-.954.29-1.497-.15-.257-.262-.34-.2-.605.105-.445-.074-.91-.543-1.402-.535-.567-.531-.47.484-1.332 1.989-1.73 3.747-3.055 5.684-4.621 1.324-1.07 1.18-.993 1.695-.5 1.891 1.808 2.63 4.628 1.77 7.105-.04.113-.059.102.043 0 .535-.559.558-3.363.101-4.605-.554-1.532-1.093-2.329-2.941-3.829-1.148-.957-4.281-3.718-4.281-3.718 4.57-3.621 9.496-8.13 12.261-12.274-1.41-1.394-7.968-2.687-7.968-2.687.82-1.551 2.449-8.528-.305-16.27l23.57.285.836.055s.13-.043.196-.063c.226-.05.34.094.285.325-.176.593-1.125 1.972-1.79 1.86-.3-.11-.214.417-.35.632 1.054-.121 2.288-1.34 2.597-2.55.172-.255.281-.298.449-.247.195.055.145.223-.066.809-.66 1.464-1.996 2.824-3.547 2.683l-.203.5c2.093-.027 3.714-1.824 4.195-3.168.336-.8.348-.91.684-.832.277.235.105.574.011.852-1.058 3.082-3.953 3.902-5.39 3.765-.172-.02-.204.13-.153.383 3.094.192 5.559-2.246 5.91-4.344.172-.582.465-.777.637-.511.094.234.063.472.016.695-.852 3.309-4.703 5.18-7.051 4.64-.11-.093-.29.364-.031.528 4.742-.156 6.215-2.398 7.3-4.383 1.286 1.79 2.336 3.633 5.43 4.719 0 0 .309.625.063.762-.13.074-.325.039-.606 0-3.77-.567-5.023 2.664-3.43 7.492.438 1.324.243 1.121-.699 1.945-.449.395-.664 1.094-.547 1.11.165-.082.215-.309.61-.606.172-.129.52-.254.777-.414.7-.371.695-.625.445-1.504-.183-.652-.656-2.633-.656-2.836 0-.379.098-.34.617 0 .723.496 1.133.461.258-.172-.34-.242-.558-.433-.66-.57-.14-.188-.055-.309.23-.227 1.297.375 2.415.352 3.676-.351.137 3.183-.351 8.015-3.265 11.465-2.239 2.297-6.508.55-8.086-.18Zm3.433-7.312c-.09.003-.398.062-.593.164-.856.449-.657 2.046.28 2.257.376.086.716.137 1.349-.14.378-.164.906-.293 1.054-.235.309.118.406-.132.473-.418.152-.632-.985-.648-1.887.004-1.14.828-2.016-.394-.937-1.312.359-.215.347-.324.261-.32Zm-8.859 3.402.953 1.016.598 2.417c-.364.06-.809-.128-.809-.128-.293-1.094-.586-2.188-.742-3.305Zm13.031.629c-.008 0-.02.004-.031.008-.04.015-.219.09-.465.113-.14.016-.355-.078-.512-.067a3.54 3.54 0 0 0-.914.172c-.129.051-.257.07-.367.012-.312-.172-1.222-.125-1.5.023-.328.13-.695.13-.965 0-.113-.054-.234-.19-.254-.171-.043.039-.218.722-.273.984.004.094-.07.25-.027.266.054.02.226-.121.437-.223.434-.203.922-.184 1.774.008 1.054.238 1.464.172 2.085-.121.497-.23.797-.285 1.126-.203.082.023.296.125.328.101.058-.055-.102-.34-.239-.625-.097-.203-.132-.285-.203-.277ZM56.207 37c.922.805.855.734 1.438 1.133l-.032.777s-.715.012-1.066-.09c-.11-.3-.586-1.812-.34-1.82Zm7.61.531c.062.04.156.082.28.121 1.473.508-.07.38-.218.864 0 .043.07.047.14.023.508-.184 1.743-.297 2.305-.2.727.227.774.075.074-.265-.515-.183.11-.308.317-.472.437-.254.137-.36-.418-.118-.555.243-1.54.239-1.988.004-.2-.093-.395-.18-.485-.183-.187-.008-.09.172-.008.226Zm-5.801.86.863.62-.883-.081Zm-19.559 15.5c-.172 0-.316.132-.316.293 0 .156.14.289.316.289.172 0 .316-.13.316-.29 0-.16-.14-.288-.316-.292Zm1.152.297-3.96 1.714 1.046.325-.011.992.964-.282.407.926Zm.172.808c-.172 0-.316.133-.316.29 0 .16.14.292.316.292.172 0 .317-.129.317-.289 0-.16-.141-.289-.317-.293Zm-5.015 1.754c-.176 0-.317.129-.317.29 0 .16.14.288.313.288.175 0 .316-.129.316-.289 0-.16-.14-.285-.312-.289Zm1.214.543-4.445 1.863 1.317.367-.352 1.243 1.074-.41.598.835Zm.13.89c-.176 0-.317.13-.317.29-.004.16.14.289.312.289.176 0 .317-.13.317-.29 0-.16-.14-.288-.313-.288Zm-8.813.172c1.672 0 3.543.586 4.18 1.899.168.656-.536 1.043-2.036.664-2.476-.629-2.937-.7-2.527-.313.055.051.164.176.535.293.93.293 2.738.637 3.227.59.664-.082 1.125.203.957.715-.188.578-1.055.813-2.356.64-1.343-.175-2.086-.32-2.535-.44-.574-.165-.594-.15-.32.222.14.191.152.348.363.383.89-.043 1.836.113 2.652.183 1.465.125 1.696.504.618 1.086-.512.274-2.035.196-2.903-.09-.62-.207-2.043-.5-1.492-.105.13.098.086.332.313.406.754.094 2.879.235 3.207.512.215.176-.266.629-1.262.86-1.492.257-3.723.148-4.313-.223-1.09-2.043-.496-5.38 1.215-6.68.547-.39 1.477-.602 2.477-.602Zm9.789 1.079c-.176 0-.313.129-.313.289-.003.16.137.289.313.289.172 0 .316-.13.316-.285 0-.16-.14-.293-.316-.293Zm1.316.312-4.586 2.086 1.16.316-.277 1.223 1.074-.402.649.824Zm.035 1.024c-.175 0-.316.128-.316.289 0 .16.14.289.316.289.172.004.317-.13.317-.29 0-.156-.14-.288-.316-.288Zm2.66 2.472c-2.035 1.813-4.327 3.246-6.425 5.004l.453-.016 1.145-.94 32.109-.044-.75 1.004.312.125s.97-1.305.903-1.363c-7.055.008-12.5-.016-20.242.02-1.407-1.286-2.895-2.485-4.368-3.708Zm-9.761 1.149c-.176 0-.316.129-.316.289 0 .16.14.289.316.289.172 0 .312-.13.312-.29 0-.16-.14-.288-.312-.288Zm41.922.289c2.77 1.89 6.05 4.21 8.777 5.59 1.09.437.985.585-.125 1.066-1.094.621-2.91 1.418-4.426 2.117-.656.227-.941-.07-1.41.008-.336.074-.43.133-.633.375-.328.398-.238.387-1.992.309-1.77-.075-2.5-.04-2.879.136-.367.172-.996.754-.996.996 0 .235-.203.535-.566.633-.426.094-.914.403-.895.88-.113.358-.355.519-.57.718-.504.465-.453.832-.309 1.265.067.196.168.149.118.723-.125 1.317-.223 1.203 1.308 2.18l-7.847 6.254c-.184.129-.239.117-.403.011-.953-.652-1.617-1.73-2-2.808-1.316-3.348.305-6.094 2.457-7.77a32.727 32.727 0 0 1 2.028-1.449c4.054-3.16 7.582-7.637 10.363-11.234Zm-40.754.18-4.484 1.933 1.44.227-.276 1.14 1.046-.36.551.966Zm.273.906c-.175 0-.316.129-.316.289 0 .16.14.289.316.289.172 0 .313-.13.313-.29 0-.156-.137-.288-.313-.288Zm41.063 1.34L73.332 66s-1.422 3.195-1.723 4.277l4.72-2.199-1.505-.258.172-1.25Zm-51.192.113c-.175 0-.316.129-.316.289 0 .16.14.293.313.293.175 0 .316-.133.316-.29 0-.16-.14-.292-.313-.292Zm1.372.265s-3.34 1.43-4.844 2.047l1.402.274-.246 1.254 1.27-.454.507 1.239Zm.175.95c-.172 0-.316.129-.316.289 0 .16.14.289.316.289.172 0 .317-.13.317-.29 0-.16-.14-.288-.317-.288Zm47.192.285c-.172-.004-.317.125-.317.285 0 .16.14.289.317.289.172 0 .312-.129.312-.29 0-.16-.136-.284-.312-.284Zm5.453.27-1.598 4.042 4.297-1.976-1.164-.293.008-1-.957.254Zm-50.735.89c-.171 0-.316.129-.316.289 0 .16.14.289.316.289.172 0 .317-.129.317-.289 0-.16-.14-.29-.317-.29Zm46.95.148c-.172 0-.313.13-.313.29 0 .16.14.288.313.288.175 0 .316-.128.316-.289 0-.16-.14-.289-.316-.289Zm-45.633.223-4.555 2.027 1.414.309-.16 1.3 1.152-.597.618 1.191Zm.281.863a.288.288 0 0 0-.297.29c0 .16.14.284.313.284.176 0 .316-.124.316-.285 0-.16-.156-.289-.332-.289Zm47.3.328c-.175 0-.316.133-.316.29 0 .16.141.289.317.289.172 0 .316-.125.316-.286 0-.16-.14-.289-.316-.293Zm-6.269 1.325-.421-1.09-1.692 3.988 4.531-1.894-1.437-.31.027-1.042Zm-4.597-.868c-.051-.003-.098.008-.098.04 0 .093-1.156 1.128-1.156 1.128l-13.36.09c.028.004 1.114.278 1.114.278 1.746 1.289 4.488 3.57 4.488 3.57l3.316-.117c1.84-1.649 4.602-2.903 5.836-4.942a.234.234 0 0 0-.14-.047Zm12.52.84c-.177 0-.317.133-.317.29 0 .16.14.288.316.288.172 0 .313-.125.313-.285 0-.16-.137-.293-.313-.293Zm-10.313 1.38c-.176 0-.317.128-.317.288 0 .16.141.29.313.29.176 0 .316-.13.316-.29.004-.16-.14-.289-.312-.289Zm6.777.429c.961-.004 1.883.027 2.121.195 1.477 1.145.766 6.485-1.101 7.156-2.047.422-3.465.497-5.239-.582-.504-.226-1.504-.906-1.304-1.468.265-.692.996-.641 3.093-.04.766.223 1.188.18 1.383.044.184-.13-.054-.274-.445-.274-.16 0-.836-.156-1.402-.316-.797-.227-1.028-.293-1.543-.32-.871-.051-1.121-.083-1.121-.57 0-.907 1.382-1.028 3.917-.49.305.063.856.138.993.134.097.035-.196-.301-.243-.504-.093-.07-.257-.106-.687-.117-1.633-.153-2.988-.254-3.02-.45-.14-.965 1.973-1.222 4.16-.449.563.2.575.117.57-.031-.007-.278-.948-.762-2.335-.754-1.352.012-1.164-.617-.05-1.09.378-.16 1.296-.07 2.253-.074Zm-5.223 1.023c-.175 0-.316.13-.316.29 0 .16.14.288.316.288.172 0 .317-.128.317-.289 0-.16-.145-.289-.317-.289Zm-4.87 1.993-.286-1.083-1.844 4.2 4.645-2.16-1.527-.27.132-.883Zm-2.368 1.68c-.176 0-.316.132-.316.288 0 .16.14.293.316.293.172 0 .313-.129.313-.289 0-.16-.141-.293-.313-.293Zm4.621 1.198-.39-1.02-1.567 3.653 3.965-1.617-1.172-.293.172-1.11Zm-3.152.008c-.176 0-.316.13-.316.29 0 .16.14.288.316.288.172 0 .312-.129.312-.289 0-.16-.14-.289-.312-.289Zm1.012 1.395c-.176 0-.317.129-.317.289 0 .16.14.289.313.289.175 0 .316-.129.316-.29 0-.16-.14-.284-.312-.288Zm-1.993.855-1.343 3.461 3.722-1.648-1.086-.328s.063-.782-.039-.746c-.066.023-.765.203-.765.203Zm3.313.418c-.176 0-.316.13-.316.29 0 .16.14.288.312.288.176 0 .316-.129.316-.289 0-.16-.14-.289-.312-.289Zm-4.938 1.656c-.175 0-.316.133-.316.293 0 .157.14.29.313.29.175 0 .316-.13.316-.29.004-.16-.14-.289-.313-.293Zm1.418 1.344c-.171 0-.316.13-.316.29 0 .156.14.288.316.288s.317-.129.317-.289c0-.16-.14-.289-.317-.289Zm-19.656 15.914c-.172.024-.613-.351-.7-.523.25-.059.513-.016.653.094.117.101.2.363.047.43Zm1.348-.25c-.063.426.222 1.188.168 1.371-.149.067-.887-.664-1.07-.84-.036-.242.003-.55.019-.687.254-.043.707-.027.883.156Zm1.332.215c.156.938.601 2.445.531 2.953a8.543 8.543 0 0 1-1.059-1.113c-.144-.328-.374-1.473-.355-2.016.285-.035.668.004.883.176Zm-8.934-.121c-.453.21-.972.363-1.62.36-.524 0-1.419-.25-1.329-.188.238.387.855.183.867.437-.152.254-.566.227-.77.47-.042.062.06.116.348.089.883-.363 2.032-.356 3.086-.04.219.044.075-.148 0-.202a1.46 1.46 0 0 0-.55-.211c-.922-.149-.516-.235.097-.485.453-.152.567-.523-.129-.23Zm1.992 1.195c-.125.008-.43.149-.765.274-.567.21-1.09.16-1.852-.035-.66-.172-.902-.125-1.562.18-.438.253-.918.323-1.262.144-.45-.235-.445-.153-.227.426.06.144-.054.582.141.683.149.074.32-.18.438-.215.113-.035.836.262 1.238-.062.719-.238.933.148 1.433.113.81-.262 1.313-.531 2.008-.027.04-.188.203-1.219.465-1.465-.008-.012-.027-.02-.055-.016Zm-1.48 2.97c-.578.003-.895.331-1.645.265-.597-.04-.804.449-.55.804.175.25.414.297 1.234-.046.336-.141.8-.45 1.074-.422.801.074.992.78.324 1.379-.324.171-.328.363-.226.367.262.008.793-.278.914-.614.336-.918-.258-1.75-1.125-1.734Zm2.602 4.237c-.754.145-1.848.942-2.22 1.457-.347.5-.683 1.067-.44 1.348.199.23.476.457.5.582.019.106-.141.215-.294.371-.668.68-.507.719.426.278.473-.223.692-.313 1-.239.899.215 2.016.063 2.778-.191.343-.113.68-.27.703-.192-1.391 1.399-3.118 1.043-3.735.957-.11-.027-.191-.02-.191.012 0 .07.18.219.558.375.637.258 2.168-.015 3.13-.652 1.894-1.133 2.94-2.219 1.449-1.766-.684.207-.942.168-1.774-.176-1.242-.52-2.2-.671-3.23-.343-1.309.418-.305-.57 1.168-1.426.32-.184.359-.399.172-.395Zm-7.06 2.942-.433.008c-.312-.965-1.062-.965-1.39.003l-.367-.027c.359-1.2 1.707-1.445 2.19.016Zm7.759.094-.328.011c-.2-.582-.899-1.097-1.391-.14l-.227-.043c.403-1.528 2.012-.676 1.946.171Zm-2.184-.883c.203 0 .254.215.024.558-.164.242-.36.223-.551.04-.176-.165-.168-.192.023-.352.207-.168.383-.246.504-.246Zm2.414.011c.086-.004.258.063.446.125.496.153.609.282.406.47-.203.179-.582.237-.758.132-.008-.23-.254-.406-.262-.637 0-.062.078-.09.168-.09Zm-7.789-.004c.344-.015.809.172.774.356-.04.2-.38.328-.66.352-.188.02-.18-.051-.227-.172-.043-.11-.102-.246-.133-.356-.078-.21.07-.176.246-.18Zm-2.355.063s-.196.527-.282.707c-.722-.035-.652-.328-.312-.539.184-.125.367-.129.594-.168Zm-.563 1.254c.13 0 .293.105.52.172.636.191 1.699.172 2.527-.004.395-.082.582-.195.668-.137.156.102-.004.461-.578.692-.746.25-1.883.386-2.742-.02-.739-.344-.817-.71-.395-.703Zm-.199.754c.676.41 1.352.539 2.187.469 1.25-.04 1.473-.18.418.332-.976.468-2.476.379-2.765-.133-.164-.293-.059-.645.16-.668Zm6.062.695c-.003 0-.007 0-.011.004.101.617 1.23 1.188 1.777 1.32 1.152.473 2.988.012 4.371-.535 1.008-.398 1.375-1 .172-.656-1.934.547-4.363.582-5.574.152-.399-.172-.668-.289-.735-.285Zm-6.367 2.309c2.418.504 5.336 3.93 5.325 5.425h-.786c-1.18-3.808-4.27-4.636-4.57-4.863-.137-.469.035-.574.031-.562Zm-.039.965c2.871 1.16 3.89 3.222 4.32 4.46h-.843c-.621-1.707-1.746-2.925-3.485-3.683-.12-.238.008-.777.008-.777Zm-.008 1.164c1.473.402 2.77 2.183 3.137 3.293l-.738-.004c-.52-1.239-1.254-2.035-2.43-2.496a1.91 1.91 0 0 1 .031-.793Zm-.027 1.21c.691.13 1.863 1.118 2.027 2.083h-.671c-.239-.653-.973-1.25-1.352-1.493l-.004-.59Zm.07 1.032c.075-.043 1.106.812.93 1.05l-.93-.003c-.011-.266-.015-1.051 0-1.047Zm0 0" style="stroke:none;fill-rule:nonzero;fill:#131f67;fill-opacity:1"/><path d="M54.41 16.922c-1.762 3.113-10.785 17.129-10.879 17.613l2.305.942L57.059 17s-2.32-.074-2.649-.078ZM80.8 28.68l-1.046 1.347.887 1.48.902-1.46ZM39.673 42.69s-3.23 2.934-4.496 4.301c2.707 2.485 7.883 5.61 7.91 10.399l3.57.02 11.543 9.5s10.473.089 10.668.046c.211-.043 3.938-4.922 3.938-4.922l6.625 4.445s-.309-4.777-.551-7.703c-.082-1.957-.149-3.164 1.414-4.027-2.145-.941-2.004-2.664-.426-3.926-.52-.66-1.297-.785-1.406-3.12-.328-.325-.64-.517-1.05-.79l-.427.352c-1.379 1.129-2.32 2.285-2.476 3.035-.297 1.433 1.289 2.418 2.207 1.37.258-.292.488-.21.488.177 0 .78-1.074 1.218-1.98.812-.211-.097-.399-.16-.418-.14-.032.027.898 2.125 1.148 2.585.418.77.637 1.54.664 2.348.035.863.016.973-.426 2.461-.418 1.406-.222 2.238.516 2.242.418 0 .402.367-.02.5-.894.285-1.449-.32-1.476-1.613-.02-.785-.035-.805-.473-.617-1.531.66-3.195-.524-2.472-1.758.152-.258.332-.176.425.195.176.696.57 1 1.29 1 1.652-.004 2.347-2.144 1.398-4.3-.192-.434-.29-.41-.54.136-.394.86-1.058 1.11-1.6.61-.18-.168-.27-.438-.145-.454.027 0 .21-.007.402-.015.961-.024 1.297-.883.848-2.168-.395-1.133-.457-1.34-.57-1.953-.184-.95-.055-1.668.46-2.586.09-.164.657-.742 1.36-1.39.715-.665 1.332-1.173 1.332-1.173s-.36-.285-.852-.625c-1.031-.715-1.215-.836-1.215-.836s-4.945 12.38-4.605 17.207c-.637 6.356-5.73 4.59-6.098.184Zm-.223 1.856c1.68-.024 2.785 2.02 3.41 6.25.207 1.402 1.137 3.367 1.813 3.832 1.703 1.176 4.375.277 4.379-1.473.008-2.176-3.324-2.504-3.383-.332-.012.512-.297.54-.57.051-.246-.434-.024-1.246.453-1.656.304-.262.281-.313-.301-.61-2.023-1.027-2.883-2.558-1.8-3.21.476-.282 1.124.078.823.46-.464.598-.468.692-.082 1.192.438.566.961.847 2.204 1.183 1.039.286 1.21.34 1.69.54 1.407.593 2.048 1.89 1.556 3.148-.118.293-.23.586-.254.648-.051.137.035.14 1.023.02 1.578-.192 3.332.328 4.192 1.242.464.492.836 1.594.843 2.516.004.175.063.578.133.886.074.313.168.84.211 1.172.406 3.149 3.262 4.762 4.5 2.547.781-1.394-1.016-2.797-1.934-1.508-.32.453-.652.242-.464-.293.363-1.047 1.785-1.222 2.754-.34.523.477.773 1.56.52 2.243-.138.36-.122.383.167.289.652-.207 1.781-.004 2.184.394.949.934.757 2.059-.414 2.418-.536.164-1.141-.008-1.336-.582-.086-.406.222-.523.457-.172.441.66 1.41.13 1.183-.648-.258-.883-1.082-1.07-2.601-.594-2.418.758-3.2.692-4.356-.363-.824-.754-1.133-1.402-1.351-2.84-.243-1.586-.266-1.625-.696-1.293-2.047 1.594-4.746-.824-3.007-2.406.535-.488.93-.063.445.488-.703.8.21 1.918 1.36 1.66 2.093-.468 1.671-3.281-.59-3.941-.692-.2-2.59-.121-4.047.172-4.079.812-5.876-.785-6.704-5.953-.093-.602-.21-1.051-.593-2.348-.457-1.543-2.016-2.383-2.868-1.547-.68.668-.324 1.57.618 1.574.945.004.652.594-.328.672-1.708.137-1.997-2.465-.36-3.207.399-.183.774-.277 1.121-.281Zm-22.25.926.528 1.851 2.105.551-.668-1.766Zm5.403.562-.567 1.672 1.598-.355.523-1.747Zm17.324 2.77c.336 0 .605.25.605.554 0 .309-.273.559-.61.555-.331 0-.605-.246-.6-.555 0-.308.269-.554.605-.554Zm-20.309.968-1.66.528-.324 1.328 1.738-.406Zm3.961.426-1.355-.219.379 1.375 1.437.54Zm58.91-.011-.875.62c2.54 2.032-.207 3.981-.293 3.848 1.836 1.121 1.504 2.88 1.262 4.492-.437 2.875-.613 5.594-1.094 8.54 0 0 2.211 1.406 3.684 1.953.027.004.043-17.293.043-17.293Zm-31.394 2.554c.332 0 .605.25.601.555 0 .308-.27.555-.605.555-.336 0-.606-.25-.606-.555 0-.309.274-.555.61-.555Zm-37.196 1.363.043 16.137 3.657-5.969-2.504-2.652 2.172-2.117Zm35.465 2.516c.332 0 .606.25.606.555 0 .308-.274.554-.61.554-.332 0-.605-.25-.605-.554.004-.309.273-.555.61-.555Zm8.266 1.664c.336 0 .605.25.605.555 0 .308-.273.555-.605.555-.336 0-.606-.25-.606-.555 0-.309.274-.555.606-.555Zm23.656 18.016 2.672 2.523-2.094 2.383 3.282 5.125-.024-15.844Zm-67.453-5.406.094 17.355 2.855 1.918.727-.625c-1.84-1.813-.735-3.156.656-3.93-2.453-.531-1.703-3.515-1.555-4.898-.054-2.57.98-5.5.668-7.973Zm16.473 2.437-4.11 5.234s-4.5-3.136-6.77-4.554c.24 2.261.454 5.148.75 7.578.731 3.555-1.187 3.613-1.206 3.953 3.047 2.125.484 4.105.027 4.004 1.621.816 1.48 3.277 1.48 3.277l.77.403s.254-.141.36-.192c.824-.406 2.167-1.851 2.476-2.808.527-1.618-1.008-2.965-1.973-1.739-.476.606-.855.2-.464-.496.355-.633 1.28-.953 1.898-.648.355.176.277-.281-.273-1.559-.184-.426-.336-.894-.594-1.84-.25-.918-.153-2.02.289-3.144.633-1.617.414-2.633-.598-2.727-.539-.047-.597-.203-.156-.43.98-.507 1.934.22 1.89 1.45-.023.668-.011.68.372.539 1.937-.711 3.465 1.137 2.109 2.547-.418.433-.676.156-.402-.422.422-.899.023-1.54-.965-1.547-1.426-.012-2.223 1.797-1.664 3.789.176.625.203.633.68.219.421-.371.734-.489 1.062-.399.676.188.852.848.203.766-1.113-.14-1.41.926-.781 2.832.832 2.527-.02 4.586-2.496 6.043a5.61 5.61 0 0 0-.324.219c.953.78 1.562 1.222 2.82 1.93l4.535-16.676s-.074-.946-.184-1.391c.004-4.48 4.559-4.902 5.977-.832.137.39.86 1.387.86 1.387l23.679 19.34s4.438-3.918 4.375-4.02c-3.355-3.117-7.895-5.32-8.05-10.254-.81-.023-3.5.02-3.5.02l-11.516-9.72c-3.621.016-6.828-.23-10.586-.132Zm6.46.375c.633-.02 1.274.285 1.274.77-.004.418-.309.511-.559.171-.355-.472-.765-.511-1.183-.109-1.16 1.113.637 2.137 2.707 1.54 1.266-.364 1.879-.462 2.344-.376 1.953.36 2.894 1.57 3.058 3.926.082 1.2.078 1.195.645.719 1.375-1.153 3.36-.504 3.668 1.195.129.73-.727 1.648-1.543 1.648-.32-.004-.27-.308.078-.457.828-.363.863-1.558.059-2.027-1.067-.625-2.477.344-2.461 1.688.02 1.617 1.332 2.363 3.933 2.23.383-.02 1.336-.059 2.125-.086 1.242-.047 2.574-.262 3.84.617 1.324.969 2.2 2.89 2.57 5.672.586 3.418 1.043 4.332 2.293 4.418.742.05 1.375-.531 1.375-1.203 0-.477-.683-.895-1.203-.738-.629.187-.754-.434-.137-.672.86-.324 1.903.308 2.137 1.297.133.574-.578 1.68-1.32 1.953-1.942.715-3.317-.754-3.762-4.043-.277-1.504-.426-2.524-.937-3.809-.934-2.375-2.477-3.355-4.16-2.648-1.91.8-1.536 3.418.484 3.402 1.105.082 1.34-.664 1.367-1.465.023-.59.754-.035.816.371.059.493-.425 1.102-.851 1.391-.688.418-.442.395.258.563 1.89.324 3.289 2.617 2.16 3.394-.59.328-1.211-.156-.805-.629.649-.754-.441-1.95-2.433-2.351-2.61-.528-3.649-2.313-2.704-4.141.313-.606.34-.594-.933-.527-2.8.14-3.793-.22-4.73-1.707-.286-.45-.41-1.051-.47-2.246-.1-2.137-.312-3.461-.605-3.836-1.453-1.848-4.48-1.297-4.105.742.199 1.074 1.406 1.418 2.23.64.625-.59.914-.043.305.575-1.465 1.484-4.008-.254-3.25-2.22.176-.448.2-.433-.738-.46-2.09-.059-3.079-1.7-1.73-2.863.233-.204.562-.301.894-.309Zm5.024 7.04c.336 0 .606.25.606.558 0 .304-.27.554-.606.554-.336-.004-.605-.25-.605-.558 0-.305.273-.555.605-.555Zm8.39 1.983c.337.004.606.25.606.56 0 .308-.273.554-.605.554-.336 0-.606-.25-.606-.559 0-.305.274-.555.606-.555Zm-1.808 3.625c.336 0 .606.25.606.555 0 .309-.274.555-.61.555-.332 0-.601-.25-.601-.555 0-.308.27-.555.605-.555ZM75.04 88.56l.383 1.644 1.39.336-.214-1.406Zm4.867.578-.035.972 1.238.137.442-1.68Zm-20.77 1.437c.333 0 .602.25.602.555 0 .308-.27.555-.605.555-.336 0-.606-.25-.606-.555 0-.309.274-.555.61-.555Zm17.759 2.29-1.454.37-.703 1.848 1.864-.613Zm2.843.171.176 1.375 1.79.742-.602-1.953Zm-26.425 11.656L42.156 123.11l3.04-.03 10.53-17.372Zm-34.989 4.407-.984 1.21.93 1.41 1.074-1.413Zm0 0" style="stroke:none;fill-rule:nonzero;fill:#d40000;fill-opacity:1"/><path d="M37.402 16.434c2.035 5.695 2.215 11.308.426 16.695 1.016.05 5.43 1.098 7.86 2.476-.454 1.06-7.36 8.825-12.047 12.32 1.328 1.212 2.789 2.419 4.324 3.755 2.324 2.027 3.14 3.422 3.293 6.05-.024 1.27-.524 2.833-1.406 3.942-.668.836-1.38 1.48-2.797 2.34-1.309.789-3.227 2.5-5.637 5.015a60.367 60.367 0 0 0-3.754 4.375c-.484.606-1.918 2.5-1.918 2.5-4.754-3.574-9.848-6.332-9.98-6.308 0 0 5.152-2.508 6.234-3.02.832.492 1.96.074 1.422-1.004-1.04-2.449-.309-4.972.976-6.73.305-.422 1.043-.668 2.239-.742.52-.032 1.066-.016 1.613-.02.2 0 .73.07 1.023.215.973.488 1.168-.137 1.778-2.242.61-2.098-.356-4.754-1.742-4.766-.325-.004-.508.11-.442.856.047.562-.101.855-.258 1.21-.347.774-.535 1.532-.644 2.544.203.039-1.285-1.36-3.63-1.918-1.523-.164-2.292-1.907-2.226-1.91 0 0 .227-.473.43-.657.52.23 1.031.5 1.645.668 0 0-.141-.7-.196-.887-.281-.972-.265-1.12.145-1.324 1.015-.496 1.12-1.39.332-2.207-.2-.207-.367-.344-.633-.45l.504-1.823s-.461.09-.828.191c-1.059.293-.98.305-1.43-.168-.98-1.027-2.484-.836-2.71.348-.024.133-.09.34-.09.34l-2.262-1.008c.066.484.652 2.133.652 2.133-1.98 1.406-.313 2.656.227 2.789 0 0-.465 1.347-.625 1.906l2.23-.578c.188.387.418.683.883.957.117 1.152 1.082 2.082 1.75 2.64 0 0 .094.422.035.692-.145.668.594 1.73.719 1.793-3.059-1.152-6.246-2.54-9.325-3.895l.126 34.723s.718.594 2.136 1.527c.684.453.684.453.54.973-.188.68-.141 1.203.484 5.695.332 2.375.691 4.84 1.015 7.051.13.805.145 1.32.145 1.32-.676-.289-1.668-.32-2.18.204-.887.921-.183 2.41 1.125 2.378.297-.015.5-.093.758-.253.176-.086.36-.012.36-.012l-1.958 3.144 2.239 3.473 2.25-3.707-1.625-2.938s.16-.02.378.086c.22.102.516.176.72.188 1.136.012 1.37-.465 1.491-1.32.004-1.102-.953-1.602-2.27-1.188-.206.063-.433.082-.433.082l1.403-12.11.738.5.246-.12-.648-.508c.144-1.938-.551-2.63-1.305-3.098 2.523-1.312 1.433-3.394-.242-4.035 0 0 1.093-.582 1.312-1.195.188-.547.117-1.414-.09-2.953-.152-2.375-.699-7.282-.699-7.282 2.2 1.528 4.457 3.16 6.582 4.703l4.274-5.425 10.273.082s7.797 6.511 11.719 9.836l3.394.03s.035.333.07.556c.317 3.21 2.66 5.418 4.794 6.968.87.72 3.02 2.61 3.02 2.61l-3.997 3.683-24.41-20.062s-.117-.293-.164-.473c-.559-2.12-2.09-3.012-3.485-2.863-1.46.152-2.71 1.473-2.652 3.719.008.347.145.96.145.96l-4.5 17.055s-1.782-1.254-2.746-1.855l-.211.11 2.609 1.808.195-.078.742.535.055.363c2.285 1.43 6.156 4.098 6.156 4.098 1.832-1.246 3.758-.825 5.684-.352 0 0 1.398.43 2.145.43 3.789.086 7.14.765 10.66 1.937l-12.875 20.836 24.445.086c-1.2-4.367-2.469-8.804-.168-16.246-2.41-.453-7.766-2.426-7.766-2.426s-.023-.113.204-.367c.992-1.297 3.503-4.816 5.855-6.847.29-.188 4.387-3.825 4.43-3.942.02-.062.12-.308.28-.406.376-.23 1.384-1.098 1.384-1.098l-5.117-4.082s-.223-.02-.297-.055c-.715-.37-2-2.418-2.317-3.789-.726-3.148.63-5.64 4.446-8.191 3.722-2.328 10.796-11.387 10.82-11.586 3.797 2.895 6.766 4.395 10.105 6.293-2.023 1.059-3.671 1.77-5.086 2.469-.921.48-1.046.578-1.824.375-.875.008-1.18.316-.957 1.011 1.328 1.93.746 6.418-1.05 7.278-1.567.75-3.083.543-4.337.117-.968-.285-.953-.289-1.386.516-.953 1.851-1.02 3.414-.145 5.195.715 1.43 1.785 2.082 1.918.156.082-1.133.625-2.453.613-3.664 1.086 1.106 1.81 1.61 3.598 2.063 1.2.172 2.473 1.554 2.43 2.117-.328.305-.43.695-.485.668-.582-.176-1.847-.672-1.847-.672l.535 1.746s-.09.078-.348.2c-1.195.558-1.12 2.062.13 2.667.253.125.273.18.163.504-.156.715-.5 1.195-.683 1.906 0 0 .168.004 1.597-.597l.559-.239.34.332c.734.727 1.625.723 2.398-.007l.36-.336.988.465c.933.433 1.18.523 1.18.523s-.536-1.914-.637-2.137c-.055-.117-.164-.238-.242-.265-.133-.043-.114-.075.242-.332.898-.649.992-1.551.226-2.235-.289-.261-.328-.316-.328-.316l.469-1.778-1.93.583a2.057 2.057 0 0 0-1.093-.985c-.032-.8-.137-1.625-1.637-2.883.508-.422-.094-1.445-.59-2.058.848.261 2.957 1.086 2.957 1.086l.32-.012 1.008.445.117.164s3.172 1.38 4.625 2.024c0-.07-.011-1.508.016-17.332.016-9.438.047-17.196.027-17.246-.023-.051-.37-.297-.73-.547a24.749 24.749 0 0 0-1.653-1.074c-.68-.418-.632-.414-.492-.895.164-.55.16-1.309-.05-2.727-.157-1.05-.727-4.734-1.122-7.71-.277-2.086-.343-2.551-.41-2.887-.113-.844.008-1.211-.011-1.223 3.183 1.27 3.445-2.93.25-2.367.613-1.129 1.128-1.652 1.652-2.86-.664-1.316-2.133-3.542-2.133-3.542l-2.344 3.726 1.371 2.582c-1.582-.265-2.421.79-2.128 1.735.312.84 1.187 1.074 1.96.738.594-.215.594-.27.06 3.82-.157 1.207-.86 6.863-.958 7.703-.062.567-.105.723-.355.598-.34-.137-.536-.332-.875-.54l-.192.165c.305.227.66.52 1.028.828-.086 1.496-.055 2.363 1.304 3.098-2.469 1.414-1.031 3.593.414 3.91-.863.203-1.715 1.219-1.511 3.242l.683 8.332-6.672-4.558-3.93 5.14-10.331-.004-11.633-9.66s-2.555-.039-3.602-.062c.117-.051-.215-2.98-1.898-4.899-1.828-2-5.996-5.305-5.992-5.305l4.39-4.074L64.223 63.25s.117.578.18.82c.816 3.207 4.792 3.41 5.644.145.137-.528.305-1.754.242-1.899-.02-.046.106-.582.277-1.191 1.332-4.754 2.47-8.855 3.778-13.422.18-.629.37-1.328.426-1.555.214-.925.183-.918 1.238-.187.648.45.914.61.914.61l.207-.196c-.727-.52-1.969-1.344-1.969-1.344l.016-.347c-3.989-2.63-4.813-3.329-7.172-5.051-1.836 1.476-4.457.875-6.098.347-.422-.152-1.46-.402-1.46-.402-4.09 0-7.684-.73-11.075-1.754l13.125-21.351-5.055-.008-.175.183-2.63-.007-.007-.18ZM85.527 86.8c.004.011.004 0 .004 0Zm-33.21-69.86 1.788.036-10.62 17.308-1.126-.402s.102-.051.102-.781c0-.786-.184-1.118-.566-1.582-.32-.403-.461-.422.484-.305 1.93.25 3.309-1.676 2.543-3.18-.297-.578-.254-.613.527-.683 2.156-.196 3-2.7 1.477-3.95-.317-.261-.172-.43.414-.312 1.863.37 3.308-1.52 2.57-3.004-.238-.418-.023-.484.317-.523 1.597-.344 2.144-1.489 2.09-2.622Zm-14.274-.02 8.293.013c-1.121 1.562.848 2.492 1.098 2.382-1.79.895-1.301 2.157-.375 2.59.898.422 2.25.047 1.89-1.773l.446-.176c.43.45.851 3.219-2.434 2.828-.586-.07-.906.434-.418.711 2.594 2.746-1.477 3.95-1.652 3.492l-.012-.46c1.098.187 2.512-1.114 1.277-2.27-.699-.66-2.738-.34-2.39 1.652-1.2-1.648-2.516-1.152-2.871-.285-.274.676.074 1.602 1.273 1.758-1.344 1.027-.695 2.176.227 2.433 1.015.282 2.054-.097 1.777-1.793.016-.16.371-.105.398-.117 1.047 2.41-1.465 3.29-2.82 2.79-.504-.18-.766.53-.234.894.808.547.554 2.129.46 2.144-1.503-.527-3.663-.918-3.581-.886 1.449-5.22 1.367-10.524-.352-15.926Zm13.219.02.75.004c.008.985-.461 2.192-2.293 2.375a2.637 2.637 0 0 0-.082-.789c.683-.144 1.593.035 1.625-1.59Zm3.27.059 2.39.016-11.285 18.293-1.797-.848Zm-5.903 1.383c.422 0 .766.312.766.699 0 .39-.344.703-.77.703-.422 0-.762-.316-.762-.703 0-.39.344-.7.766-.7Zm-4.809 7.976c.39 0 .707.293.707.649-.004.36-.32.652-.71.652-.391 0-.708-.293-.708-.652 0-.36.32-.649.711-.649Zm37.032.578 1.898 3.043-2.18 3.524-1.804-3.383Zm-.036 1.036-1.343 2.023 1.21 2.082 1.387-1.973Zm.024.867.691 1.23-.844 1.242-.699-1.316Zm-1.852 4.117c.14 0 .297.031.453.09a1.116 1.116 0 0 1-.5 2.168 1.506 1.506 0 0 1-.59-.207c-.949-.719-.37-2.055.637-2.051Zm3.133.04c1.121.019 1.797 1.452.613 2.12-.57.29-1.421.113-1.757-.406-.286-.445-.16-1.184.484-1.566.23-.106.453-.153.66-.149Zm-1.562 2.038c.113.008.234.508.343 1.375.043.317.149 1.102.243 1.75.171 1.38.351 2.668.503 4 .032.262.11.82.172 1.238.64 4.329.785 5.711.63 6.079-.41 1.289-2.333 1.382-3.134.632-.605-.566-.691-1.191-.449-2.808.14-.938.195-1.41.61-4.985.093-.84.234-1.953.308-2.476.164-1.399.356-2.711.567-4.09.058-.496.132-.719.207-.715ZM49.117 38.2s6.145 1.871 10.82 1.793c.688 0 .797-.004 1.653.254.508.152 1.305.36 1.773.457 1.442.258 2.707.188 3.832-.23.176-.067.434-.262.696-.192.16.047.39.336.39.336-4.097.992-13.676.793-19.636-1.523Zm31.586.645c-.027.004-.055.035-.082.078-.101.144-.02 1.098.344 4.125.703 5.785.7 5.91-.164 6.516-.426.3-.489.421-.285.527.148.082.136.082.445.004.727-.184 1.027-.711 1.023-1.79-.004-.82-.011-.917-.289-2.937-.093-.699-.226-1.683-.289-2.191-.46-3.606-.566-4.356-.703-4.332Zm-32.207.55c6.117 2.02 12.508 2.602 20.223 1.528 0 0 .738.441 1.11.66l-.259.055.114.976 1.312-.191s.707.52 1.234.836c-6.878 1.914-17.98 1.562-24.824-1.238-.258-.137-.41-.25-.41-.25.149-.333.324-.528.508-.715l1.25.332.363-1.047-.957-.32Zm1.598 1.258-.403 1.028 1.75.48.301-1.05Zm2.676.641-.235 1.172 1.754.3.223-1.14Zm2.902.555-.14 1.129 1.859.183.117-1.144Zm12.789.035-1.582.156.098 1 1.601-.172Zm-2.793.285-1.57.094.05 1.043 1.582-.09Zm-7.078.012-.004 1.11 1.61.058.023-1.137Zm4.426.144-1.485.004-.008 1.055 1.5.008Zm-17.211.16c.16-.004.527.325.675.688.297.723.16 1.52-.308 1.781-.633.36-1.379-.203-.942-.71a.772.772 0 0 1 .278-.204c.328-.094.402-.566.226-1.383-.023-.117.008-.172.07-.172Zm2.375.278c6.62 2 14.136 2.68 21.886 1.238 0 0-3.699 13.742-3.777 13.75Zm-3.25.039c.347 0 .41.543.097.832-.402.367-1.168.07-1.007-.39.046-.138.68-.442.91-.442Zm1.902.32c.074-.004.211.129.426.399.746.917.8 1.945.133 2.41-.782.547-1.352-.305-.7-1.047.168-.192.196-.547.098-1.336-.035-.277-.027-.422.043-.426Zm25.691.375c.086-.004.239.059.543.195.473.211.637.524.41.778-.335.367-1.242-.364-1.07-.856.028-.078.051-.117.117-.117Zm-.714.477c.12.011.308.21.53.617.141.262.224.336.462.414.566.191.672.726.172.887-.543.172-.946-.184-1.192-1.059-.16-.574-.125-.875.028-.86Zm-23.7.347c.082-.008.239.164.489.5.738 1.004.48 2.93-.457 3.375-.41.2-.696.157-1.028-.148-.48-.442-.36-.793.356-1.031.61-.207.808-.844.625-2-.078-.465-.078-.692.015-.696Zm3.528.32c4.515 3.43 8.593 7.106 13.851 11.395 1.258-3.523 3.094-10.847 3.098-10.87-.2.151-8.844 1.26-16.95-.524Zm16.949.524c.008-.004.008-.004.004-.008l-.004.008Zm2.809-.48c.074 0 .293.515.418.984.109.426.558 1.14.73 1.168.89.137 1.27.594.828.996-.324.297-1.023.129-1.36-.324-.632-.856-1.062-2.824-.616-2.824Zm-50.489.39c.54.004 1.055.317 1.184.961.152.746-.309 1.285-.7 1.2-.421-.145-.566-.762-.566-.762s-.101.504-.273.754c-.38.53-1.176-.258-1.031-1.024.14-.746.777-1.133 1.386-1.129Zm32.207.25c4.926.684 9.164.867 15.043.293l-2.789 9.86Zm-3.722.008c.07.004.222.125.453.352.765.746.984 1.777.488 2.285-.305.312-.508.347-.832.144-.41-.258-.441-.648-.063-.824.348-.164.38-.527.106-1.21-.203-.513-.262-.75-.152-.747Zm-32.149.203 1.801.688.64 1.394-1.792-.426Zm6.809.195-.54 1.387-1.382.473.539-1.5Zm46.96.368c.067 0 .165.175.286.539.293.898.422 1.125.691 1.246.442.191.473.683.055.86-.266.109-.352.085-.54-.141-.292-.356-.53-1.032-.57-1.641-.038-.566-.007-.863.079-.863Zm-20.042.593c.05-.004.129.07.242.192.7.765.773 1.933.144 2.281-.605.34-1.453-.36-.925-.766.05-.035.16-.117.246-.175.148-.102.16-.164.176-.825.011-.492.03-.699.117-.707Zm5.312.09 8.606 7.2 1.992-7.106c-3.402.277-6.961.188-10.598-.094Zm-21.172.328c2.72 2.641 6.278 4.778 7.118 7.403 1.511 3.61.39 7.797-3.164 10.187-1.965 1.356-3.887 2.785-5.489 4.512-2.629 2.555-4.383 5.348-6.136 7.375-.297.34-1.083 1.414-1.083 1.414s-.386.398-1.664-.586c-3.394-2.777-6.957-4.793-10.582-6.715l1.54-.785c3.027 1.59 6.789 3.852 10.175 6.484 0 0 2.7-3.601 3.563-4.636 1.25-1.48 2.129-2.438 3.293-3.582 2.972-3.352 6.035-4.457 7.312-6.157 1.871-2.488 1.957-5.441.426-7.964-1.508-2.41-4.45-4.063-6.402-6.059Zm25.844.235 3.371.008s-.496.378-.875.609c-.238.144-.52.125-1.043-.078-.508-.196-1.453-.54-1.453-.54Zm3.86.008.785.023c-.59.676-1.192 1.11-1.98 1.71-.102.04-.161.06-.4-.015-1.609-.488-3.085-1.113-4.652-1.703l1.399-.004s.672.2 1.683.586c1.157.442 1.457.578 1.907.309.43-.262.789-.656 1.258-.906Zm1.59.003-.282.946c-.473.539-1.426 1.156-2.219 1.765-.187.09-.18.106-.992-.183-2.992-1.074-4.441-1.77-4.441-1.77l-.606-.5s.782.207 1.297.395c.352.129.95.336 1.328.465.38.132 1.223.46 1.785.664 1.293.472 1.223.488 2.465-.516 1.348-1.09 1.664-1.266 1.664-1.266Zm-45.372.012 1.305 1.38-1.742 1.339-1.313-1.426Zm49.59.082c.3.516.5 1.13.988 1.563.368.32.457.57.239.75-.567.32-.664-.2-.84-.54-.309-.597-.688-1.41-.387-1.773Zm-47.262.063h.102c1.394.023 1.719 1.91.406 2.363-.469.16-1.008.086-1.3-.184-.282-.257-.32-.476-.126-.613.301-.195 1.02-.207 1.02-.207s-.652-.207-.941-.355c-.575-.301-.075-.973.84-1.004Zm28.696.047c.078.004.215.152.406.445.703 1.066.66 3.09-.074 3.601a.894.894 0 0 1-1.176-.097c-.418-.426-.29-.856.336-1.11.605-.242.726-.789.484-2.14-.082-.469-.078-.703.024-.7Zm-33.817-.02c.414-.012.817.137 1.016.438.144.222.074.386-.203.496-.34.125-.985.234-.985.234s.625.094 1 .234c.473.192.434.543-.257.844-1.329.574-2.582-1.008-1.485-1.914.258-.215.59-.32.914-.332Zm34.953.82h.032c.12.016.347.176.574.453.789.961.922 2.41.25 2.688-.715.297-1.227-.316-.711-.852.363-.378.32-.937-.16-2.039-.07-.16-.055-.238.015-.25Zm17.114.075c.062-.004.175.226.355.695.403 1.027.746 1.46 1.16 1.46.524 0 .793.657.383.919-.812.523-1.875-.758-1.95-2.352-.023-.48-.01-.718.052-.722Zm-4.293.504-.242.84s-.555.492-.954.808c-.629.496-.785.594-1.28.437-.766-.242-1.52-.46-2.317-.683l-1.84-1.403 4.2 1.512s.362.098.491-.015c.551-.504 1.157-.895 1.942-1.496Zm3.96.792c.051-.011.106.051.141.208.192.789.465 1.363.7 1.453.292.113.406.347.28.586-.359.687-1.296-.532-1.296-1.68.004-.328.086-.547.176-.567Zm-15.167.032c.05 0 .136.07.265.187.578.535.754 2.008.285 2.434-.675.617-1.394-.305-.738-.946.172-.171.172-.183.133-.937-.027-.523-.031-.734.055-.738Zm-35.2.09-.457 1.382-1.453.34.34-1.136Zm1.739.144a.65.65 0 0 1 .383.129c.59.395.636 1.066.359 1.559-.266.484-.805.62-1.328.574-.68-.07-1.192-.508-1.153-1.172.012-.332.172-.7.415-.856.175-.113.316-.066.464.16.141.223.38.731.38.731s.007-.52.085-.785c.067-.211.211-.332.395-.34Zm1.11.125 1.05.328.41 1.313-1.176-.422Zm59.956.34s.3.117 1.735 1.164c.359.262.964.766.964.766l-.066 17.09s-2.828-1.407-3.195-1.743c-.196-.191-.098-.726-.028-1.703.336-2.558.477-4.52.84-6.887.254-2.64.809-3.398-1.117-4.52 2.078-1.19 1.496-3.05.195-3.827ZM65.5 50.5l-.195.781c-.684 1.07-1.293 1.012-2.34.516l-1.25-.98c.808.156 1.246.394 2.039.624.394.102.539.036.816-.191.32-.266.559-.465.93-.75Zm-9.309.395c.426.425.536.843.496 1.882-.082.735-.046 1.285-.707 1.696-.324.195-.878.195-1.128 0-.594-.368-.266-1.098.52-1.133.491-.008.698-1.488.417-2.41-.043-.145-.031-.239.047-.246.078-.004.223.074.355.21Zm13.336-.036c.098 0 .266.227.368.594.144.531.347.828.668.98.41.192.542.563.28.782-.527.433-1.058-.09-1.226-1.2-.008-.124-.246-1.144-.09-1.156Zm11.227.2c1.168.02 1.824.77 1.82 1.675a1.733 1.733 0 0 1-1.12 1.594c-1.716.461-2.65-.594-2.63-1.617.016-.824.766-1.668 1.93-1.652Zm-23.543.558c.98.899 1.02 2.824.059 2.824-1.153-.351-.25-.976-.227-1.136.09-.664-.074-1.09-.242-1.707-.074-.368.3-.09.41.02Zm23.605-.05c-.207-.008-.191.183.184.484.684.539.348 1.535-.52 1.539-.398 0-.496.25-.148.379 1.344.496 2.266-1.38 1.063-2.16-.254-.164-.454-.239-.579-.243Zm-51.449.167c1.082.344 1.453 2.235 1.492 2.903.047 1.16-.547 3.058-1.074 3.437-1.363.98-1.992-2.496-.824-4.726.102-.184.23-.43.184-.887-.047-.453.035-.723.222-.727Zm35.778.243s-.141.566-.286.875c-.168.359-.293.37-.68.062-.218-.172-.577-.523-.577-.523.34.05.644.21.933.082.309-.141.555-.403.61-.496Zm4.105.035c.078.004.176.199.305.593.355 1.07.668 1.473 1.14 1.477.774 0 .938.855.207 1.07-.27.082-.359.082-.707-.004-.52-.128-1.23-1.742-1.125-2.562.047-.383.106-.574.18-.574Zm-47.648.547c.285-.004.398.125.562.441.191.36.688.816 1.11 1.02 1.015.457 2.085.82 3.09 1.28 1.3.602 2.464 2.442 1.663 2.63a3.14 3.14 0 0 1-.918.039c-.097-.047-.285-.246-.422-.45-.59-.89-1.699-1.765-3.414-2.175-1.207-.293-2.285-1.657-2.52-2.301-.058-.164-.062-.297.102-.34.344-.09.579-.14.747-.144Zm36.734.171c.055-.007.133.055.254.172.719.707.805 2 .156 2.368-.7.394-1.312-.262-.762-.82.243-.247.243-.247.246-.985 0-.508.016-.723.106-.735Zm10.469.836c.086.004.215.223.37.657.22.609.25.656.505.777.43.207.496.512.183.8-.59.536-1.18-.331-1.18-1.734 0-.336.044-.5.122-.5Zm-9.403.082c.055.004.203.114.32.239.88.96.696 3.203-.288 3.539-.329.113-.426.117-.63.035-.734-.29-.644-1 .262-1.45.676-.335.2-2.355.336-2.363Zm-45.047.637 3.637 1.66s.992 1.926 1.45 2.649c.316.5.945.984.292 1.32-1.093.676-1.718 1.063-1.707 1.484.008.344.47.692 1.09 1.368.895.968.887.746.07 2.218-.625 1.032-1.16 3.371-1.16 3.371l-3.675 1.73c1.097-2.39 2.386-4.425 3.835-5.882a16.3 16.3 0 0 1-2.91-2.504c.696-.847 1.614-1.535 2.457-2.273-1.71-1.781-2.78-3.492-3.379-5.14Zm46.004.102h.02c.152.011.5.36.805.918.394.718.433 1.629.082 1.949-.61.555-1.399-.16-.828-.75.398-.266.292-.93-.024-1.617-.144-.332-.14-.489-.055-.5Zm-46.406.25c.945 1.843 2 3.347 3.082 4.77l-2.37 2.273a24.19 24.19 0 0 0 2.847 2.582c-1.528 1.547-2.532 3.722-3.532 5.773Zm54.442.125c.082.008.199.23.32.68.148.566.25.714.61.855.573.226.585.734.023.914-.207.066-.59-.125-.75-.371-.211-.356-.317-.832-.313-1.27-.031-.539.02-.812.11-.808Zm13.125.363c.894.23 1.218 1.055 1.039 2.578-.239 2.035-.516 4.305-.743 6.176-.261 2.156-.41 3.277-.468 3.363-.184.27-.211-.746-.078-1.875.203-1.61.316-3.023.488-4.633.39-3.586.297-4.718-.41-5.05-.543-.254-.782-.106-.38.246.77.543.747.773-.093 9.597-.086.914-.121 1.559-.121 1.559l-1.047-.598s-.074-.754-.172-1.898c-.23-2.153-.363-4.445-.515-6.508-.165-2.203.285-2.973 1.773-3.023.238-.008.504.011.727.066Zm-19.204 1.25c.114.29.625 2.46-.699 1.836-.355-.184-.37-.469-.113-.746.293-.313.363-.762.219-1.403-.09-.386-.196-.71-.196-.71.254.086.758.945.79 1.023Zm-39.488-.746c1.125.2 2.356.8 3.149 1.555.492.48.468.867-.305.914-.742.097-.758.207-1.113-.075-.157-.113-.47-.394-.82-.445-1.122-.16-1.692-2.086-.91-1.95Zm45.344.64c.117.176.129.52.23.766.164.688.68 1.2 1.141 1.137.312-.035.738.05.785.394.09.286-.074.559-.418.684-.383.14-.816.055-1.144-.23-.692-.598-1.11-2.543-.594-2.75Zm-5.402.02c.402.145.914 1.328.968 2.266-.004.672-.117 1.515-.75 1.836-.402.187-.816.093-1-.227-.218-.394-.054-.805.407-.992.562-.234.746-1.277.406-2.3-.02-.169-.301-.653-.031-.583Zm-42.915.422 2.961 1.383c-.433.539-.773 1.039-1.007 1.61-.938-.981-1.43-1.981-1.954-2.993Zm44.028.543c.05 0 .219.148.367.281.738.656 1.059 1.852.61 2.285-.36.348-.981.325-1.087-.043-.039-.18.172-.515.262-.675.137-.239.164-.926-.043-1.426-.09-.227-.176-.422-.11-.422Zm-20.598.238 3.352.11L57.84 66.89l-1.055-.024-10.293-8.633h-3.21Zm-19.3 1.637c-1.282 1.863-1.637 4.21-.856 6.3.594 1.485-.707 1.571-1.238.594-.41-.73-.645-2.003-.516-3.355.18-2.184 1.281-4.379 2.164-4.64.895-.266.695.804.445 1.1Zm45.972 4.562c-.344 1.457-.977 2.18-1.871 2.48-3.664 1.235-5.25-5.542-1.848-7.155 3.242-.985 4.172 2.75 3.719 4.675ZM43.078 59.22l3.16.066c2.875 2.406 5.969 4.653 9.043 7.578l-1.488-.004-.54-.468c-2.78-2.29-4.843-4.153-7.523-6.278l-2.82-.078Zm24.106.484c-1.711.063-1.852 2.184-1.805 2.988.125 1.16.625 2.871 2.226 2.739 1.176-.106 1.723-1.383 1.622-2.918-.102-1.442-.739-2.805-2.043-2.809Zm-24.395.668 2.773.063c2.438 1.957 5.016 4.082 7.579 6.425H51.93s-.317-.277-.41-.367c-2.075-1.726-4.184-3.648-6.196-5.199l-2.875-.11Zm24.438.121c.484.164.562 1.25.136 1.7-.289.304-.953-.278-1.011-1.012-.04-.45.437-.836.875-.688Zm-45.813.063c-.227.699-.375 1.488-.469 2.34l-1.156-1.356Zm46.688 1.379c.285 0 .515.21.515.468-.004.262-.23.473-.515.473-.286-.004-.512-.215-.512-.473 0-.261.23-.468.512-.468Zm-23.29.199 5.516 4.77-1.574.015-4.524-3.777-2.875-.102.567-.898Zm21.485.113c.285 0 .516.211.512.473 0 .258-.23.468-.512.468-.285 0-.512-.21-.512-.472 0-.258.23-.469.512-.469Zm6.578.02c3.11 2.226 7.5 5.18 12.063 7.574 0-.008-.754.539-1.45.715-3.55-1.805-7.773-4.344-10.386-6.403-2.48 3.332-7.243 9.399-11.47 12.196-2.667 1.742-4.015 3.894-4.01 6.414.003 2.605 1.003 4.304 3.792 6.441 1.8 1.379 3.77 3.14 3.77 3.14l-1.04.817c-.171-.02-3.019-2.277-5.898-4.937-1.586-1.465-2.285-4.668-2.012-6.399.371-2.351 1.23-4.035 3.664-5.844.938-.664 1.88-1.175 2.704-1.93 7.566-7.394 10.273-11.784 10.273-11.784Zm-5.059 1.203c.286.539.442 1.246-.453 1.293-.531.027-.832-.785-.37-1.504.347-.567.655-.082.823.21Zm-26.613-.184 2.98.086s2.938 2.356 4.419 3.66l9.988.016c5.492.008 10.008.035 10.035.058.066.063-.715 1.02-.715 1.02L34.97 68.09c.008-.004 2.039-1.656 2.765-2.121 1.29-.82 2.47-1.582 3.47-2.684Zm-20.191 1.106c.215.726.394 1.472.765 2.144l-2.289 1.11c.422-1.11.907-2.176 1.524-3.254Zm63.504 6.164c-.457 1.136-1.649 3.449-3.09 5.203-.285.336-.48.597-.48.597l2.796 2.465-2.437 2.368c1.363 1.304 2.515 3.304 3.12 4.894-1.1-.402-1.722-.644-3.081-1.34-.383-.887-.774-1.824-1.203-2.633-.993-1.847-.977-1.664-.164-2.207 1.187-.793 1.539-.976 1.23-1.379-.215-.28-1.61-1.804-1.695-1.855-.13-.07-.07-.297.168-.656.812-1.336 1.48-2.805 1.894-4.114Zm.53.093.044 15.508c-1-1.855-2.043-3.75-3.203-4.933-.043-.082 2.543-2.391 2.543-2.391-.946-.805-1.496-1.285-2.817-2.402 1.29-1.7 2.313-3.922 3.434-5.782Zm-71.066.426 3.211 1.715c-.175 2.188-.394 5.059-.73 7.969-.277 2.273-.395 3.32.043 3.953.371.46 1.375.96 1.375.96-1.692.626-2.348 2.474-.457 3.864 0 0-.461.328-.664.528l-2.633-1.81Zm50.286.864c-.805.82-2.063 2.039-3.028 2.62-1.285.778-3.093 2.27-3.008 2.294 0 0-1.89-.012-3.171-.063l-4.41-3.621s.156-.055-5.856-.016c-7.773.043-14.07-.043-14.07-.043l.886-1.136Zm15.75.734c-.438 1.281-1.118 2.465-1.973 3.574-.195-.785-.305-1.625-.715-2.293Zm-62.418.312.382.254s-.234 2.672-.308 3.457c-.14 1.446-.207 2.75-.348 4.223-.285 2.926-.238 3.36.387 3.812.48.332.812.18.383-.238-.282-.332-.278-.324-.364-.812-.058-.34-.046-.848.04-2.22.492-7.733.59-7.991.601-7.995l.961.57c-.055.121.863 7.797.766 9.703-.118 2.23-3.391 1.735-3.54.078-.066-.379.567-6.644.567-6.644Zm26.707.493 1.285.035 7.918 6.699 2.699.055-.234.843-2.614-.007Zm4.918.007 1.242.004 4.531 3.778 2.793.046-.535.723-2.777-.078Zm-1.551.004 6.7 5.555 2.284.113-.355.758-2.711-.074-7.524-6.344Zm-6.469.008 1.395.004 10.468 8.672 2.75.05-.043.782-3.308-.02Zm35.29.3c.55.13.823.622 1.21 2.446.45 2.13-.543 5.578-1.777 6.227-.64.457-1.336-.031-.883-.633 1.477-1.961 1.68-5.168.812-6.965-.277-.578.008-1.176.637-1.074Zm-44.49.25c3.349.044 4.204 6.356.907 7.235-2.14.285-3.242-1.492-3.55-3.097-.36-1.993.6-4.164 2.644-4.137Zm-1.85 3.782c.199 1.266 1.05 2.715 2.296 2.594 1.633-.16 1.844-2.16 1.684-3.168-.196-1.219-.922-2.32-2.09-2.383-1.742-.094-2.043 1.984-1.89 2.957Zm1.8-2.453c.469-.004.813.566.684 1.277-.086.461-.278 1.028-.84.641-.262-.219-.496-.863-.434-1.348.043-.316.215-.562.59-.57Zm46.2 1.535 1.57 1.672-1.79 1.145c.254-.88.34-1.813.22-2.817Zm-45.06.078c.282 0 .512.211.512.473-.003.258-.23.469-.515.469-.285 0-.512-.211-.512-.47 0-.26.23-.472.516-.472Zm-1.835.285c.281 0 .512.211.512.473 0 .258-.23.469-.516.469-.281 0-.516-.211-.512-.473 0-.258.23-.469.516-.469Zm1.035.61c.258.074.422.289.559.48.343.469.386 1.055.144 1.301-.496.535-1.262-.039-1.168-.867.067-.61.246-.977.465-.914Zm4.39 1.847c.735.004.942.797.305 1.188-.41.25-.504 1.074-.25 2.215.203.82.094.949-.437.207-.914-1.348-.672-3.61.383-3.61Zm-1.722.43c.644-.02.852.434.477.778-.223.226-.204.816.042 1.304.348.707.266.918-.382.238-.903-.882-.883-2.293-.137-2.32Zm42.66.414c.73.895 1.375 2.059 1.965 3.38l-3.172-1.345ZM31.223 84.09c-.223-.242-.328-1.012-.512-1.344-.145-.394-.27-.625-.5-.613-1.344.101-1.285-1.074-.512-1.297 1.594-.457 2.168 3.074 1.524 3.254Zm6.66-1.18c-.23.617-.067.988-.02 1.645.04.3.055.379-.21.148-.637-.512-.97-2.246-.4-2.57.774-.43 1.005.3.63.777Zm31.804-.773c.31-.012.665.21.836.62.25.587.227 2.028.098 2.794-.195 1.172-.508 2.25-.637 3.058-.449.489-1.55-1.246-1.652-2.613-.172-1.086.238-3.336 1.148-3.812a.595.595 0 0 1 .207-.047Zm4.286.191c.277-.012.215.074.418.274.312.3.437.375.879.5.91.265 1.91 1.43 1.523 1.785-.305.218-1.133-.2-1.418-.29a50.915 50.915 0 0 0-.844-.265c-.761-.238-1.86-1.531-1.515-1.789.183-.14.738-.203.957-.215Zm-2.223.211c.566.008.719.137 1.04.695.48.825 1.366 1.407 2.655 1.746 1.645.461 3.067 1.34 2.993 2.961-.391.004-.786.028-1.18.137-.453-1.176-1.586-1.855-2.563-2.058-2.25-.473-4.336-2.57-3.742-3.403.262-.12.54-.082.797-.078Zm-38.848.043 19.426 15.566c-8.203-2.804-15.734-2.757-23.02-1.734Zm8.297 1.043c-.039.48-.761.586-.91.703-.367.29-.32 1.129-.164 2.106.117.586-.043.558-.379.101-.594-.816-.578-2.226-.184-3.058.512-1.07 1.688-.532 1.637.148Zm-11.187-.781c.746.074.949 1.004.98 1.62-.004.852-.265.821-.41 0-.07-.362-.195-.503-.512-.593-.726-.2-.773-1.027-.058-1.027Zm9.039.965c-.192.195-.2 1.093-.024 1.703.094.332-.082.36-.332.093-.8-.867-.87-2.335-.125-2.617.61-.144.766.535.48.82Zm-8.422 1.722c.02.864-.195.946-.48.117-.07-.195-.2-.386-.294-.445-.527-.336-.62-.594-.312-.875.754-.562 1.078.95 1.086 1.203Zm2.848-.758-2.66 10.313c6.495-.488 9.445-.586 16.378.668Zm7.863.184c.398.094.535.57.07 1.016-.152.18-.293.453-.11 1.183.25 1-.175.68-.69-.265-.333-.602-.18-2.145.73-1.934Zm-12.418.012c.707.004 1.355 1.054 1.367 2.203.004.926-.14.86-.516-.027-.261-.586-.476-.801-.957-.954-.886-.285-.808-1.222.106-1.222Zm4.765.304 12.2 9.813c-5-.742-9.914-.805-14.684-.266Zm10.168.387c.958.004 1.333 1.09.157 1.465-.7.227-.403 1.527-.278 2.297.051.293-.05.312-.25.05-.738-1-1.144-3.519.371-3.812ZM42.56 86.88c-.172.25-.196.52-.075 1.008.309 1.047.387 1.242-.257.707-.684-.66-.98-1.973-.407-2.36.645-.437 1.223.047.739.645Zm-24.141-.848c1.137-.004 1.957.668 1.914 1.61-.05 1.03-.758 1.683-1.797 1.738-1.156.05-1.87-.797-1.894-1.676-.024-.773.52-1.664 1.777-1.672Zm-.02.418c-1.296-.008-1.785 1.563-.714 2.285.46.313.824.227.445-.105-.711-.621-.422-1.649.52-1.836.464-.094.285-.344-.25-.344Zm15.801.29-1.574 6.945c3.195-.45 7.063-.305 10.047-.043Zm-5.261.257c.777-.035 1.003 1.035 1.007 1.461 0 .555-.07.84-.183.547-.258-.7-.516-1.082-.797-1.082a.76.76 0 0 1-.406-.219c-.274-.336-.008-.695.378-.707Zm5.406.285 1.031.801c-.664-.266-1.23.422-1.23.422ZM44.94 88.61c-.296.344-.296 1.07-.066 1.918.063.239-.176.063-.422-.218-.457-.536-.672-1.16-.59-1.672.098-1.293 1.887-1.04 1.078-.028Zm-16.293-.644c.668.07.918 1.347.903 1.734-.024.403-.125.676-.211.43-.172-.535-.524-1.3-.832-1.477-.528-.3-.375-.644.14-.687Zm51.036 1.512c.023.449-.18.91-.485 1.058-.308.153-.496-.055-.68-.574-.136-.383-.183-.527-.183-.527s-.113.476-.152.574c-.243.664-1.028.668-1.352-.07-.352-.868.629-1.747 1.379-1.715.832.035 1.43.53 1.473 1.254Zm-44.52-1.036c.234 0 1.14.375 1.14.375l.907.735s-.832-.332-1.125-.43c-.7-.226-.688-.226-1.25.195-.586.434-1.063.754-1.063.754l.18-.941s.856-.688 1.211-.688Zm-5.937 2.305c.128.996-.176 1.082-.47.129-.25-.816-.495-1.113-.925-1.113-.793.11-1.055-.969-.344-1.184 1.34-.34 1.68 1.777 1.739 2.168Zm45.918-2.11 1.234.528.262 1.172-1.137-.258Zm-27.692.063c1.192-.3 1.336 1.059.422 1.258-.555.121-.555.91-.398 2.059.035.261.113.582.093.625-.086.207-.367-.11-.746-.848-.566-1.344-.386-2.836.63-3.094Zm33.992.04-.347 1.355-1.043-.067-.04-.832Zm-35.215.823c-.574.762-.058 1.461.067 2.06.02.343-.465.003-.746-.5-.582-1.052-.614-1.9-.086-2.278.734-.395 1.074.312.765.719Zm-10.722-.203c.203.004.476.106 1.05.309.438.152 1.446.531 1.446.531l1.332 1.086s-1.168-.398-1.984-.719c-1.84-.714-1.575-.738-3.028.278-.422.289-.86.625-.86.625l.18-.871s.551-.496 1.235-.95c.297-.195.43-.289.629-.289Zm-17.098.383c.942-.02 1.559.668 1.781 1.434.13.445.016.851-.011 1.281-.657 4.559-.95 8.793-1.555 13.016-.074.203-.156.129-.25-.235-.684-3.832-1.125-8.039-1.7-11.836-.128-1.414-.527-3.27 1.43-3.629.106-.02.207-.027.305-.03Zm-.058.508c-.415.016-.907.273-1.082.61-.356.687-.266 2.09.402 6.285.055.347.133.933.172 1.296.117 1.114.277 1.996.39 2.164.223.313.25-.023.094-1.113a90.82 90.82 0 0 1-.242-1.89c-.297-1.993-.363-3.407-.547-5.223-.094-.89.3-1.55 1.035-1.727.399-.093.418-.257.047-.37a.852.852 0 0 0-.27-.032Zm62.21.156c1.376.004 1.876 1.77.532 2.387-.5.23-1.336.121-1.543-.246-.102-.29.011-.453.261-.578.305-.145.75-.274.75-.274s-.73-.129-.933-.445c-.442-.684.371-.832.933-.844Zm-51.699 1.82c-.015.333-.199.196-.246-.003-.144-.442-.453-.922-.715-1.114-.312-.23-.386-.543-.172-.738.797-.644 1.13 1.649 1.133 1.856Zm46.621-1.835c.352-.008.829.101 1.133.379.387.359.367.496-.289.71-.316.11-.535.196-.535.196s.293.105.512.16c.629.195.593.527.02.922-.79.535-2.048-.18-2.032-1.125.016-.75.52-1.223 1.191-1.242Zm2.899 0 1.254 1.27-1.469 1.39-1.379-1.39Zm-42.649.05h.055c.387.008 1.008.25 2.531.813.832.312 1.801.664 1.801.664l1.367 1.113s-1.875-.543-2.527-.847a10.748 10.748 0 0 0-.695-.27 95.139 95.139 0 0 1-1.317-.477c-1.043-.386-1.054-.39-1.406-.117a26.11 26.11 0 0 1-.816.586c-.297.207-.735.508-.97.672a10.74 10.74 0 0 0-.628.484l.223-1.074s.199-.175.55-.422c.29-.199.774-.543 1.086-.757.313-.223.477-.356.746-.368Zm13.47.961c.038.227.015.27-.267.528-.355.332-.402.875-.144 1.578.07.191.156.422.137.441-.375.34-1.352-1.82-1.117-2.465.28-.77 1.203-.78 1.39-.082Zm-21.544.063c.258-.012.555.168.707.539.403 1.039.153 2.316-.262 1.125a2.253 2.253 0 0 0-.433-.656c-.145-.145-.473-.309-.465-.54.031-.304.227-.46.453-.468Zm8.399.043c.164.004.382.078.777.226.36.137 1.363.446 1.934.649.886.312 1.812.73 1.812.73l-2.008-.105s-.683-.211-1.09-.363c-1.468-.56-1.386-.555-2.12-.047-.262.183-.59.476-.59.476l-1.024.051s.48-.469 1.176-.941c.226-.153.539-.371.687-.485.172-.133.282-.199.446-.191Zm15.71.387a.69.69 0 0 1 .829.699c-.04.332-.38.664-.899.758-.113.37-.426 1.226-.246 2.496.145.597-.129.609-.41.039-.453-.93-1.11-3.676.727-3.992Zm-1.597 1.015c-.238.465-.32.84-.192 1.426.145.652.176.812-.226.406-.781-.957-.89-2.48-.172-2.652.695-.168.848.523.59.82Zm-23.426-.746c1.219.176 1.574 2.082 1.402 2.898-.324.985-.304.317-.418-.093-.296-.992-.644-1.531-1.015-1.59-1-.156-.86-1.348.031-1.215Zm9.348.387c.02 0 .039.004.058.004.403.062 1.477.37 1.012.472l-1.586.004c-.308.012.2-.46.516-.48Zm42.71.383c.153-.016.364.152.61.382.563.528.313 1.36-.45 1.766-1.198.64-2.558-.57-1.898-1.684.36-.613.793-.5 1.16.36.07.105 0-.106.13-.367.124-.262.292-.446.449-.457Zm-2.007.054-.363 1.328-1.461.641.535-1.633Zm3.031.235 1.16.086.645 1.722-1.676-.656Zm-27.457.93c.844.03.926.765.441 1.081-.273.239-.367.586-.312 1.137.027.246.078.547.074.582-.008.117-.113.102-.258-.047-.89-.89-.77-2.789.055-2.754Zm-25.566.245c.535 0 1.14 1.407.84 1.946-.192.316-.372.238-.442-.13-.05-.269-.215-.632-.648-.698-.625-.184-.418-1.121.25-1.118Zm27.11.895c.405.191.444.625.073.867-.285.184-.363.344-.41.852.094 1.156-.613.422-.676-.63-.035-.573.301-1.421 1.012-1.089Zm-27.563.309c.382 0 .84.636.738 1.003-.055.293-.223.243-.457.024-.09-.067-.297-.133-.39-.16-.575-.16-.477-.867.109-.867Zm10.921.503c5.2-.011 10.602.75 15.09 2.403l-.37.61-1.18-.372-.407.98.973.34-.461.903c-5.297-1.606-11.012-2.805-20.516-1.531-.472-.301-1.324-.899-1.324-.899l.758-.152-.098-.969-1.918.312-.558-.539c3-.699 6.457-1.074 10.011-1.086Zm17.43.243c.496 0 .805.511.438.73-.254.152-.82.195-.934.07-.238-.261.098-.804.496-.8Zm-18.164.57-.023 1.004 1.566-.043.035-.953Zm2.738.023.004.989 1.524.047.07-.965Zm-3.98.063-1.54.09.048.922 1.527-.059Zm6.879.164-.04.95 1.548.16.113-.966Zm-9.742.031-1.547.176.129.95 1.504-.153Zm12.73.328-.152.989 1.445.199.188-.942Zm2.863.559-.148 1 1.469.289.199-.93Zm-10.386 1.137c4.87.004 9.308.78 13.043 2.09 0 0-.485.957-.657 1.062-2.68-.988-7.25-1.91-10.34-1.965-1.132-.039-1.382-.066-1.8-.2-2.356-.714-4.434-1.022-6.352.02l-.781-.507c2.367-.34 4.672-.5 6.887-.5Zm-20.586 5.695c1.113.016 1.64 1.582.46 2.238-.312.164-.73.14-1.062 0-.953-.418-1.023-1.719.09-2.14.18-.07.352-.098.512-.098Zm36.41.11c.398.226 1.867.824 1.867.824l-10.375 17.136-2.504.012Zm-33.371-.012c.62-.063 1.058.425 1.218.832.22.558-.175 1.547-1.269 1.488-1.254-.066-1.809-2.133.05-2.32Zm35.578.949c.277.14 1.281.293 1.367.472.04.09-.039.262-.062.489a2.38 2.38 0 0 0 .453 1.633c.586.754-.051.406-.64.402-1.33-.313-3.028 1.344-2.388 3.055.149.379.121.41-.593.605-1.618.45-2.325 2.024-1.551 3.43.402.734.414.695-.297.75-1.98.148-3.133 1.758-2.305 3.402.13.258.047.328-.386.399-1.352.226-1.958 1.261-2.133 2.398l-1.785.012Zm1.71.605 3.434.868c-1.433 4.445-1.64 9.609.063 15.585l-7.895-.003c1.098-.903.668-2.153-.613-2.426 1.242-.656 1.246-2.399-.242-2.61-1.313-.187-1.988.957-1.41 2.102l-.559.14s-.25-.288-.308-.445c-.493-1.32.546-2.633 2.308-2.625 1.09.004 1.317-.277.715-.89-1.074-1.098-.73-2.641.672-3.243.648-.277 1.027-.093 1.027-.093l.031.726s-.261.024-.464.051c-1.551.227-1.266 2.492.308 2.477.867-.012 1.489-.614 1.492-1.48v-.602c.793 1.25 2.164 1.343 2.746.328.688-1.196-.554-1.95-1.8-1.828 0 0 .261-.157.425-.235 1.333-.625.876-2.414-.593-2.418-1.008 0-1.598.86-1.274 1.77.051.144.176.379.176.379l-.601.14s-.137-.097-.196-.183c-1.027-1.477.63-3.098 2.711-2.727.762.223.738-.262.309-.7-.457-.628-.801-1.343-.461-2.058Zm-38.808.582 1.797 2.918-2.027 3.352-1.996-3.149Zm-.18 1.516-1.253 1.578 1.218 1.817 1.168-1.836Zm-.058.594.812 1-.82 1.23-.8-1.156Zm37.246 3.207c.379 0 .688.281.684.629 0 .347-.309.629-.688.629-.379 0-.687-.282-.683-.63 0-.347.308-.628.687-.628Zm-4.871 7.89c.394 0 .715.293.71.653 0 .36-.32.652-.71.652-.395-.004-.711-.297-.711-.656.004-.36.32-.649.71-.649Zm-1.074.442c-.067.027 0 .59.156.824-1.027.059-1.3.777-1.402 1.383l-.918-.004c.156-2.05 2.097-2.094 2.164-2.203Zm0 0" style="stroke:none;fill-rule:nonzero;fill:#000;fill-opacity:1"/></svg>