<?xml version="1.0" encoding="UTF-8"?>
<svg xmlns="http://www.w3.org/2000/svg" xmlns:xlink="http://www.w3.org/1999/xlink" width="99px" height="140px" viewBox="0 0 99 140" version="1.1">
<g id="surface1">
<path style="fill-rule:nonzero;fill:rgb(100%,100%,100%);fill-opacity:1;stroke-width:0.755907;stroke-linecap:butt;stroke-linejoin:miter;stroke:rgb(50.196078%,50.196078%,50.196078%);stroke-opacity:1;stroke-miterlimit:4;" d="M 67.218671 0.113253 L 2.781329 0.113253 C 1.306424 0.113253 0.113242 1.303795 0.113242 2.770564 L 0.113242 96.229436 C 0.113242 97.696205 1.306424 98.886747 2.781329 98.886747 L 67.218671 98.886747 C 68.693576 98.886747 69.886758 97.696205 69.886758 96.229436 L 69.886758 2.770564 C 69.886758 1.303795 68.693576 0.113253 67.218671 0.113253 Z M 67.218671 0.113253 " transform="matrix(1.414286,0,0,1.414141,0,0)"/>
<path style=" stroke:none;fill-rule:evenodd;fill:rgb(100%,100%,100%);fill-opacity:1;" d="M 9.140625 6.042969 C 7.429688 6.042969 6.054688 7.390625 6.054688 9.0625 L 6.054688 130.984375 C 6.054688 132.65625 7.429688 134 9.140625 134 L 89.957031 134 C 91.667969 134 93.042969 132.65625 93.042969 130.984375 L 93.042969 9.0625 C 93.042969 7.390625 91.667969 6.042969 89.957031 6.042969 Z M 9.140625 6.042969 "/>
<path style="fill:none;stroke-width:3.55447;stroke-linecap:butt;stroke-linejoin:miter;stroke:rgb(7.843137%,7.843137%,7.843137%);stroke-opacity:1;stroke-miterlimit:10;" d="M 6.463068 4.273242 C 4.960543 4.273242 4.281092 5.226228 4.281092 6.408482 L 4.281092 92.624665 C 4.281092 93.80692 5.253314 94.757143 6.463068 94.757143 L 63.605982 94.757143 C 64.815735 94.757143 65.787958 93.80692 65.787958 92.624665 L 65.787958 6.408482 C 65.787958 5.226228 64.815735 4.273242 63.605982 4.273242 Z M 6.463068 4.273242 " transform="matrix(1.414286,0,0,1.414141,0,0)"/>
<path style=" stroke:none;fill-rule:evenodd;fill:rgb(100%,100%,100%);fill-opacity:1;" d="M 10.011719 9.003906 C 9.582031 9.003906 9.234375 9.34375 9.234375 9.765625 L 9.234375 130.28125 C 9.234375 130.703125 9.582031 131.039062 10.011719 131.039062 L 88.890625 131.039062 C 89.320312 131.039062 89.667969 130.703125 89.667969 130.28125 L 89.667969 9.765625 C 89.667969 9.34375 89.320312 9.003906 88.890625 9.003906 Z M 10.011719 9.003906 "/>
<path style=" stroke:none;fill-rule:evenodd;fill:rgb(100%,100%,100%);fill-opacity:1;" d="M 25.621094 24.894531 C 25.414062 24.894531 25.246094 25.058594 25.246094 25.261719 L 25.246094 115.167969 C 25.246094 115.371094 25.414062 115.535156 25.621094 115.535156 L 72.804688 115.535156 C 73.015625 115.535156 73.183594 115.371094 73.183594 115.167969 L 73.183594 25.261719 C 73.183594 25.058594 73.015625 24.894531 72.804688 24.894531 Z M 25.621094 24.894531 "/>
<path style=" stroke:none;fill-rule:evenodd;fill:rgb(100%,100%,100%);fill-opacity:1;" d="M 33.039062 28.085938 C 30.585938 28.085938 28.609375 30.019531 28.609375 32.425781 L 28.609375 107.621094 C 28.609375 110.023438 30.585938 111.960938 33.039062 111.960938 L 64.878906 111.960938 C 67.332031 111.960938 69.308594 110.023438 69.308594 107.621094 L 69.308594 32.425781 C 69.308594 30.019531 67.332031 28.085938 64.878906 28.085938 Z M 33.039062 28.085938 "/>
<path style=" stroke:none;fill-rule:evenodd;fill:rgb(100%,100%,100%);fill-opacity:1;" d="M 33.546875 31.542969 C 32.714844 31.542969 32.042969 32.191406 32.042969 33 L 32.042969 107.042969 C 32.042969 107.851562 32.714844 108.503906 33.546875 108.503906 L 64.484375 108.503906 C 65.320312 108.503906 65.992188 107.851562 65.992188 107.042969 L 65.992188 33 C 65.992188 32.191406 65.320312 31.542969 64.484375 31.542969 Z M 33.546875 31.542969 "/>
<path style="fill:none;stroke-width:2.04721;stroke-linecap:butt;stroke-linejoin:miter;stroke:rgb(7.843137%,7.843137%,7.843137%);stroke-opacity:1;stroke-miterlimit:10;" d="M 18.370028 17.399581 C 18.223643 17.399581 18.104877 17.512835 18.104877 17.659235 L 18.104877 81.340765 C 18.104877 81.487165 18.223643 81.600419 18.370028 81.600419 L 51.629972 81.600419 C 51.776357 81.600419 51.895123 81.487165 51.895123 81.340765 L 51.895123 17.659235 C 51.895123 17.512835 51.776357 17.399581 51.629972 17.399581 Z M 18.370028 17.399581 " transform="matrix(1.414286,0,0,1.414141,0,0)"/>
<path style="fill:none;stroke-width:2.57435;stroke-linecap:butt;stroke-linejoin:round;stroke:rgb(7.843137%,7.843137%,7.843137%);stroke-opacity:1;stroke-miterlimit:10;" d="M 23.706203 19.794475 C 21.963384 19.794475 20.56029 21.164565 20.56029 22.866127 L 20.56029 76.133873 C 20.56029 77.835435 21.963384 79.205525 23.706203 79.205525 L 46.293797 79.205525 C 48.036616 79.205525 49.43971 77.835435 49.43971 76.133873 L 49.43971 22.866127 C 49.43971 21.164565 48.036616 19.794475 46.293797 19.794475 Z M 23.706203 19.794475 " transform="matrix(1.414286,0,0,1.414141,0,0)"/>
<path style="fill:none;stroke-width:2.24177;stroke-linecap:butt;stroke-linejoin:round;stroke:rgb(7.843137%,7.843137%,7.843137%);stroke-opacity:1;stroke-miterlimit:10;" d="M 24.123264 22.241853 C 23.537721 22.241853 23.06542 22.703153 23.06542 23.274944 L 23.06542 75.722294 C 23.06542 76.294085 23.537721 76.755385 24.123264 76.755385 L 45.873974 76.755385 C 46.459517 76.755385 46.93458 76.294085 46.93458 75.722294 L 46.93458 23.274944 C 46.93458 22.703153 46.459517 22.241853 45.873974 22.241853 Z M 24.123264 22.241853 " transform="matrix(1.414286,0,0,1.414141,0,0)"/>
<path style=" stroke:none;fill-rule:evenodd;fill:rgb(7.843137%,7.843137%,7.843137%);fill-opacity:1;" d="M 10.078125 9.875 L 13.621094 9.875 L 10.113281 13.300781 Z M 10.078125 9.875 "/>
<path style=" stroke:none;fill-rule:evenodd;fill:rgb(7.843137%,7.843137%,7.843137%);fill-opacity:1;" d="M 88.769531 9.917969 L 85.230469 9.917969 L 88.734375 13.34375 Z M 88.769531 9.917969 "/>
<path style=" stroke:none;fill-rule:evenodd;fill:rgb(7.843137%,7.843137%,7.843137%);fill-opacity:1;" d="M 88.832031 130.277344 L 85.292969 130.277344 L 88.800781 126.855469 Z M 88.832031 130.277344 "/>
<path style=" stroke:none;fill-rule:evenodd;fill:rgb(7.843137%,7.843137%,7.843137%);fill-opacity:1;" d="M 10.074219 130.261719 L 13.617188 130.261719 L 10.109375 126.835938 Z M 10.074219 130.261719 "/>
<path style="fill:none;stroke-width:3.33788;stroke-linecap:butt;stroke-linejoin:miter;stroke:rgb(7.843137%,7.843137%,7.843137%);stroke-opacity:1;stroke-miterlimit:10;" d="M 7.114899 6.350474 C 6.808318 6.350474 6.565262 6.590792 6.565262 6.889118 L 6.565262 92.110882 C 6.565262 92.409208 6.808318 92.649526 7.114899 92.649526 L 62.885101 92.649526 C 63.18892 92.649526 63.434738 92.409208 63.434738 92.110882 L 63.434738 6.889118 C 63.434738 6.590792 63.18892 6.350474 62.885101 6.350474 Z M 7.114899 6.350474 " transform="matrix(1.414286,0,0,1.414141,0,0)"/>
<path style="fill:none;stroke-width:1.0771;stroke-linecap:butt;stroke-linejoin:miter;stroke:rgb(7.843137%,7.843137%,7.843137%);stroke-opacity:1;stroke-miterlimit:10;" d="M 7.161853 6.966462 L 9.66422 6.966462 L 7.183949 9.388979 Z M 7.161853 6.966462 " transform="matrix(1.414286,0,0,1.414141,0,0)"/>
<path style="fill-rule:nonzero;fill:rgb(7.843137%,7.843137%,7.843137%);fill-opacity:1;stroke-width:1.0771;stroke-linecap:butt;stroke-linejoin:miter;stroke:rgb(7.843137%,7.843137%,7.843137%);stroke-opacity:1;stroke-miterlimit:10;" d="M 62.849195 6.966462 L 60.341304 6.966462 L 62.824337 9.388979 Z M 62.849195 6.966462 " transform="matrix(1.414286,0,0,1.414141,0,0)"/>
<path style="fill-rule:nonzero;fill:rgb(7.843137%,7.843137%,7.843137%);fill-opacity:1;stroke-width:1.0771;stroke-linecap:butt;stroke-linejoin:miter;stroke:rgb(7.843137%,7.843137%,7.843137%);stroke-opacity:1;stroke-miterlimit:10;" d="M 62.846433 92.110882 L 60.341304 92.110882 L 62.821575 89.688365 Z M 62.846433 92.110882 " transform="matrix(1.414286,0,0,1.414141,0,0)"/>
<path style="fill-rule:nonzero;fill:rgb(7.843137%,7.843137%,7.843137%);fill-opacity:1;stroke-width:1.0771;stroke-linecap:butt;stroke-linejoin:miter;stroke:rgb(7.843137%,7.843137%,7.843137%);stroke-opacity:1;stroke-miterlimit:10;" d="M 7.159091 92.09707 L 9.661458 92.09707 L 7.183949 89.674554 Z M 7.159091 92.09707 " transform="matrix(1.414286,0,0,1.414141,0,0)"/>
<path style="fill-rule:evenodd;fill:rgb(100%,100%,100%);fill-opacity:1;stroke-width:1.64228;stroke-linecap:round;stroke-linejoin:round;stroke:rgb(7.843137%,7.843137%,7.843137%);stroke-opacity:1;stroke-miterlimit:10;" d="M 8.200363 52.792634 L 8.200363 55.121233 L 16.629972 50.767885 L 16.629972 48.38404 Z M 8.200363 52.792634 " transform="matrix(1.414286,0,0,1.414141,0,0)"/>
<path style="fill-rule:evenodd;fill:rgb(100%,100%,100%);fill-opacity:1;stroke-width:1.64228;stroke-linecap:round;stroke-linejoin:round;stroke:rgb(7.843137%,7.843137%,7.843137%);stroke-opacity:1;stroke-miterlimit:10;" d="M 8.244555 57.195703 L 8.244555 59.52154 L 16.671402 55.168192 L 16.671402 52.784347 Z M 8.244555 57.195703 " transform="matrix(1.414286,0,0,1.414141,0,0)"/>
<path style="fill-rule:evenodd;fill:rgb(100%,100%,100%);fill-opacity:1;stroke-width:1.64228;stroke-linecap:round;stroke-linejoin:round;stroke:rgb(7.843137%,7.843137%,7.843137%);stroke-opacity:1;stroke-miterlimit:10;" d="M 8.263889 48.331557 L 8.263889 50.657394 L 16.690735 46.304046 L 16.690735 43.920201 Z M 8.263889 48.331557 " transform="matrix(1.414286,0,0,1.414141,0,0)"/>
<path style="fill-rule:evenodd;fill:rgb(100%,100%,100%);fill-opacity:1;stroke-width:1.64228;stroke-linecap:round;stroke-linejoin:round;stroke:rgb(7.843137%,7.843137%,7.843137%);stroke-opacity:1;stroke-miterlimit:10;" d="M 8.222459 50.754074 L 8.222459 48.425474 L 16.652068 52.778823 L 16.652068 55.162667 Z M 8.222459 50.754074 " transform="matrix(1.414286,0,0,1.414141,0,0)"/>
<path style="fill-rule:evenodd;fill:rgb(100%,100%,100%);fill-opacity:1;stroke-width:1.64228;stroke-linecap:round;stroke-linejoin:round;stroke:rgb(7.843137%,7.843137%,7.843137%);stroke-opacity:1;stroke-miterlimit:10;" d="M 8.219697 43.928488 L 8.219697 46.257087 L 16.646544 41.903739 L 16.646544 39.517132 Z M 8.219697 43.928488 " transform="matrix(1.414286,0,0,1.414141,0,0)"/>
<path style="fill-rule:evenodd;fill:rgb(100%,100%,100%);fill-opacity:1;stroke-width:1.64228;stroke-linecap:round;stroke-linejoin:round;stroke:rgb(7.843137%,7.843137%,7.843137%);stroke-opacity:1;stroke-miterlimit:10;" d="M 8.178267 46.268136 L 8.178267 43.939537 L 16.605114 48.292885 L 16.605114 50.67673 Z M 8.178267 46.268136 " transform="matrix(1.414286,0,0,1.414141,0,0)"/>
<path style="fill-rule:evenodd;fill:rgb(100%,100%,100%);fill-opacity:1;stroke-width:1.64228;stroke-linecap:round;stroke-linejoin:round;stroke:rgb(7.843137%,7.843137%,7.843137%);stroke-opacity:1;stroke-miterlimit:10;" d="M 8.255603 61.637444 L 8.255603 63.963281 L 16.682449 59.609933 L 16.682449 57.226088 Z M 8.255603 61.637444 " transform="matrix(1.414286,0,0,1.414141,0,0)"/>
<path style="fill-rule:evenodd;fill:rgb(100%,100%,100%);fill-opacity:1;stroke-width:1.64228;stroke-linecap:round;stroke-linejoin:round;stroke:rgb(7.843137%,7.843137%,7.843137%);stroke-opacity:1;stroke-miterlimit:10;" d="M 8.158933 55.132282 L 8.158933 52.803683 L 16.58578 57.157031 L 16.58578 59.540876 Z M 8.158933 55.132282 " transform="matrix(1.414286,0,0,1.414141,0,0)"/>
<path style="fill-rule:evenodd;fill:rgb(100%,100%,100%);fill-opacity:1;stroke-width:1.64228;stroke-linecap:round;stroke-linejoin:round;stroke:rgb(7.843137%,7.843137%,7.843137%);stroke-opacity:1;stroke-miterlimit:10;" d="M 8.169981 30.614314 L 8.169981 32.940151 L 16.596828 28.586802 L 16.596828 26.202958 Z M 8.169981 30.614314 " transform="matrix(1.414286,0,0,1.414141,0,0)"/>
<path style="fill-rule:evenodd;fill:rgb(100%,100%,100%);fill-opacity:1;stroke-width:1.64228;stroke-linecap:round;stroke-linejoin:round;stroke:rgb(7.843137%,7.843137%,7.843137%);stroke-opacity:1;stroke-miterlimit:10;" d="M 8.214173 35.014621 L 8.214173 37.34322 L 16.64102 32.989872 L 16.64102 30.603265 Z M 8.214173 35.014621 " transform="matrix(1.414286,0,0,1.414141,0,0)"/>
<path style="fill-rule:evenodd;fill:rgb(100%,100%,100%);fill-opacity:1;stroke-width:1.64228;stroke-linecap:round;stroke-linejoin:round;stroke:rgb(7.843137%,7.843137%,7.843137%);stroke-opacity:1;stroke-miterlimit:10;" d="M 8.230745 26.150474 L 8.230745 28.479074 L 16.660354 24.125725 L 16.660354 21.739118 Z M 8.230745 26.150474 " transform="matrix(1.414286,0,0,1.414141,0,0)"/>
<path style="fill-rule:evenodd;fill:rgb(100%,100%,100%);fill-opacity:1;stroke-width:1.64228;stroke-linecap:round;stroke-linejoin:round;stroke:rgb(7.843137%,7.843137%,7.843137%);stroke-opacity:1;stroke-miterlimit:10;" d="M 8.192077 28.572991 L 8.192077 26.247154 L 16.618924 30.600502 L 16.618924 32.984347 Z M 8.192077 28.572991 " transform="matrix(1.414286,0,0,1.414141,0,0)"/>
<path style="fill-rule:evenodd;fill:rgb(100%,100%,100%);fill-opacity:1;stroke-width:1.64228;stroke-linecap:round;stroke-linejoin:round;stroke:rgb(7.843137%,7.843137%,7.843137%);stroke-opacity:1;stroke-miterlimit:10;" d="M 8.189315 21.747405 L 8.189315 24.076004 L 16.616162 19.722656 L 16.616162 17.338811 Z M 8.189315 21.747405 " transform="matrix(1.414286,0,0,1.414141,0,0)"/>
<path style="fill-rule:evenodd;fill:rgb(100%,100%,100%);fill-opacity:1;stroke-width:1.64228;stroke-linecap:round;stroke-linejoin:round;stroke:rgb(7.843137%,7.843137%,7.843137%);stroke-opacity:1;stroke-miterlimit:10;" d="M 8.147885 24.087054 L 8.147885 21.761217 L 16.574732 26.111802 L 16.574732 28.49841 Z M 8.147885 24.087054 " transform="matrix(1.414286,0,0,1.414141,0,0)"/>
<path style="fill-rule:evenodd;fill:rgb(100%,100%,100%);fill-opacity:1;stroke-width:1.64228;stroke-linecap:round;stroke-linejoin:round;stroke:rgb(7.843137%,7.843137%,7.843137%);stroke-opacity:1;stroke-miterlimit:10;" d="M 8.211411 19.708845 L 8.211411 17.383008 L 16.638258 21.736356 L 16.638258 24.120201 Z M 8.211411 19.708845 " transform="matrix(1.414286,0,0,1.414141,0,0)"/>
<path style="fill-rule:evenodd;fill:rgb(100%,100%,100%);fill-opacity:1;stroke-width:1.64228;stroke-linecap:round;stroke-linejoin:round;stroke:rgb(7.843137%,7.843137%,7.843137%);stroke-opacity:1;stroke-miterlimit:10;" d="M 8.225221 39.456362 L 8.225221 41.784961 L 16.652068 37.431613 L 16.652068 35.047768 Z M 8.225221 39.456362 " transform="matrix(1.414286,0,0,1.414141,0,0)"/>
<path style="fill-rule:evenodd;fill:rgb(100%,100%,100%);fill-opacity:1;stroke-width:1.64228;stroke-linecap:round;stroke-linejoin:round;stroke:rgb(7.843137%,7.843137%,7.843137%);stroke-opacity:1;stroke-miterlimit:10;" d="M 8.128551 32.9512 L 8.128551 30.625363 L 16.555398 34.975949 L 16.555398 37.362556 Z M 8.128551 32.9512 " transform="matrix(1.414286,0,0,1.414141,0,0)"/>
<path style="fill-rule:evenodd;fill:rgb(100%,100%,100%);fill-opacity:1;stroke-width:1.64228;stroke-linecap:round;stroke-linejoin:round;stroke:rgb(7.843137%,7.843137%,7.843137%);stroke-opacity:1;stroke-miterlimit:10;" d="M 8.241793 41.889927 L 8.241793 39.561328 L 16.66864 43.914676 L 16.66864 46.298521 Z M 8.241793 41.889927 " transform="matrix(1.414286,0,0,1.414141,0,0)"/>
<path style="fill-rule:evenodd;fill:rgb(100%,100%,100%);fill-opacity:1;stroke-width:1.64228;stroke-linecap:round;stroke-linejoin:round;stroke:rgb(7.843137%,7.843137%,7.843137%);stroke-opacity:1;stroke-miterlimit:10;" d="M 8.139599 37.392941 L 8.139599 35.067104 L 16.566446 39.420452 L 16.566446 41.804297 Z M 8.139599 37.392941 " transform="matrix(1.414286,0,0,1.414141,0,0)"/>
<path style="fill-rule:evenodd;fill:rgb(100%,100%,100%);fill-opacity:1;stroke-width:1.64228;stroke-linecap:round;stroke-linejoin:round;stroke:rgb(7.843137%,7.843137%,7.843137%);stroke-opacity:1;stroke-miterlimit:10;" d="M 8.200363 74.912946 L 8.200363 77.238783 L 16.629972 72.885435 L 16.629972 70.50159 Z M 8.200363 74.912946 " transform="matrix(1.414286,0,0,1.414141,0,0)"/>
<path style="fill-rule:evenodd;fill:rgb(100%,100%,100%);fill-opacity:1;stroke-width:1.64228;stroke-linecap:round;stroke-linejoin:round;stroke:rgb(7.843137%,7.843137%,7.843137%);stroke-opacity:1;stroke-miterlimit:10;" d="M 8.244555 79.313253 L 8.244555 81.641853 L 16.671402 77.288504 L 16.671402 74.90466 Z M 8.244555 79.313253 " transform="matrix(1.414286,0,0,1.414141,0,0)"/>
<path style="fill-rule:evenodd;fill:rgb(100%,100%,100%);fill-opacity:1;stroke-width:1.64228;stroke-linecap:round;stroke-linejoin:round;stroke:rgb(7.843137%,7.843137%,7.843137%);stroke-opacity:1;stroke-miterlimit:10;" d="M 8.158933 77.249833 L 8.158933 74.923996 L 16.58578 79.277344 L 16.58578 81.661189 Z M 8.158933 77.249833 " transform="matrix(1.414286,0,0,1.414141,0,0)"/>
<path style=" stroke:none;fill-rule:evenodd;fill:rgb(100%,100%,100%);fill-opacity:1;" d="M 11.6875 99.625 L 11.6875 102.914062 L 23.605469 96.761719 L 23.605469 93.386719 Z M 11.6875 99.625 "/>
<path style="fill-rule:evenodd;fill:rgb(100%,100%,100%);fill-opacity:1;stroke-width:1.64228;stroke-linecap:round;stroke-linejoin:round;stroke:rgb(7.843137%,7.843137%,7.843137%);stroke-opacity:1;stroke-miterlimit:10;" d="M 8.219697 66.0488 L 8.219697 68.374637 L 16.646544 64.021289 L 16.646544 61.637444 Z M 8.219697 66.0488 " transform="matrix(1.414286,0,0,1.414141,0,0)"/>
<path style="fill-rule:evenodd;fill:rgb(100%,100%,100%);fill-opacity:1;stroke-width:1.64228;stroke-linecap:round;stroke-linejoin:round;stroke:rgb(7.843137%,7.843137%,7.843137%);stroke-opacity:1;stroke-miterlimit:10;" d="M 8.169981 59.574023 L 8.169981 57.245424 L 16.59959 61.598772 L 16.59959 63.985379 Z M 8.169981 59.574023 " transform="matrix(1.414286,0,0,1.414141,0,0)"/>
<path style="fill:none;stroke-width:1.64228;stroke-linecap:round;stroke-linejoin:round;stroke:rgb(7.843137%,7.843137%,7.843137%);stroke-opacity:1;stroke-miterlimit:10;" d="M 8.263889 70.449107 L 8.263889 72.774944 L 16.690735 68.424358 L 16.690735 66.037751 Z M 8.263889 70.449107 " transform="matrix(1.414286,0,0,1.414141,0,0)"/>
<path style="fill-rule:evenodd;fill:rgb(100%,100%,100%);fill-opacity:1;stroke-width:1.64228;stroke-linecap:round;stroke-linejoin:round;stroke:rgb(7.843137%,7.843137%,7.843137%);stroke-opacity:1;stroke-miterlimit:10;" d="M 8.222459 72.871624 L 8.222459 70.545787 L 16.652068 74.899135 L 16.652068 77.28298 Z M 8.222459 72.871624 " transform="matrix(1.414286,0,0,1.414141,0,0)"/>
<path style="fill-rule:evenodd;fill:rgb(100%,100%,100%);fill-opacity:1;stroke-width:1.64228;stroke-linecap:round;stroke-linejoin:round;stroke:rgb(7.843137%,7.843137%,7.843137%);stroke-opacity:1;stroke-miterlimit:10;" d="M 8.178267 68.385686 L 8.178267 66.059849 L 16.605114 70.413198 L 16.605114 72.797042 Z M 8.178267 68.385686 " transform="matrix(1.414286,0,0,1.414141,0,0)"/>
<path style="fill-rule:evenodd;fill:rgb(100%,100%,100%);fill-opacity:1;stroke-width:1.64228;stroke-linecap:round;stroke-linejoin:round;stroke:rgb(7.843137%,7.843137%,7.843137%);stroke-opacity:1;stroke-miterlimit:10;" d="M 8.241793 64.007478 L 8.241793 61.681641 L 16.66864 66.034989 L 16.66864 68.418834 Z M 8.241793 64.007478 " transform="matrix(1.414286,0,0,1.414141,0,0)"/>
<path style="fill:none;stroke-width:0.62381;stroke-linecap:butt;stroke-linejoin:miter;stroke:rgb(7.843137%,7.843137%,7.843137%);stroke-opacity:1;stroke-miterlimit:4;" d="M 66.279593 92.666099 C 66.279593 94.094196 65.119555 95.265402 63.697128 95.265402 L 6.261443 95.265402 C 4.841777 95.265402 3.681739 94.094196 3.681739 92.666099 L 3.681739 6.259319 C 3.681739 4.831222 4.841777 3.660017 6.261443 3.660017 L 63.697128 3.660017 C 65.119555 3.660017 66.279593 4.831222 66.279593 6.259319 Z M 66.279593 92.666099 " transform="matrix(1.414286,0,0,1.414141,0,0)"/>
<path style="fill-rule:evenodd;fill:rgb(100%,100%,100%);fill-opacity:1;stroke-width:1.64228;stroke-linecap:round;stroke-linejoin:round;stroke:rgb(7.843137%,7.843137%,7.843137%);stroke-opacity:1;stroke-miterlimit:10;" d="M 53.317551 52.792634 L 53.317551 55.121233 L 61.747159 50.767885 L 61.747159 48.38404 Z M 53.317551 52.792634 " transform="matrix(1.414286,0,0,1.414141,0,0)"/>
<path style="fill-rule:evenodd;fill:rgb(100%,100%,100%);fill-opacity:1;stroke-width:1.64228;stroke-linecap:round;stroke-linejoin:round;stroke:rgb(7.843137%,7.843137%,7.843137%);stroke-opacity:1;stroke-miterlimit:10;" d="M 53.361742 57.195703 L 53.361742 59.52154 L 61.788589 55.168192 L 61.788589 52.784347 Z M 53.361742 57.195703 " transform="matrix(1.414286,0,0,1.414141,0,0)"/>
<path style="fill-rule:evenodd;fill:rgb(100%,100%,100%);fill-opacity:1;stroke-width:1.64228;stroke-linecap:round;stroke-linejoin:round;stroke:rgb(7.843137%,7.843137%,7.843137%);stroke-opacity:1;stroke-miterlimit:10;" d="M 53.381076 48.331557 L 53.381076 50.657394 L 61.807923 46.304046 L 61.807923 43.920201 Z M 53.381076 48.331557 " transform="matrix(1.414286,0,0,1.414141,0,0)"/>
<path style="fill-rule:evenodd;fill:rgb(100%,100%,100%);fill-opacity:1;stroke-width:1.64228;stroke-linecap:round;stroke-linejoin:round;stroke:rgb(7.843137%,7.843137%,7.843137%);stroke-opacity:1;stroke-miterlimit:10;" d="M 53.339646 50.754074 L 53.339646 48.425474 L 61.769255 52.778823 L 61.769255 55.162667 Z M 53.339646 50.754074 " transform="matrix(1.414286,0,0,1.414141,0,0)"/>
<path style="fill-rule:evenodd;fill:rgb(100%,100%,100%);fill-opacity:1;stroke-width:1.64228;stroke-linecap:round;stroke-linejoin:round;stroke:rgb(7.843137%,7.843137%,7.843137%);stroke-opacity:1;stroke-miterlimit:10;" d="M 53.336884 43.928488 L 53.336884 46.257087 L 61.766493 41.903739 L 61.766493 39.517132 Z M 53.336884 43.928488 " transform="matrix(1.414286,0,0,1.414141,0,0)"/>
<path style="fill-rule:evenodd;fill:rgb(100%,100%,100%);fill-opacity:1;stroke-width:1.64228;stroke-linecap:round;stroke-linejoin:round;stroke:rgb(7.843137%,7.843137%,7.843137%);stroke-opacity:1;stroke-miterlimit:10;" d="M 53.295455 46.268136 L 53.295455 43.939537 L 61.722301 48.292885 L 61.722301 50.67673 Z M 53.295455 46.268136 " transform="matrix(1.414286,0,0,1.414141,0,0)"/>
<path style="fill-rule:evenodd;fill:rgb(100%,100%,100%);fill-opacity:1;stroke-width:1.64228;stroke-linecap:round;stroke-linejoin:round;stroke:rgb(7.843137%,7.843137%,7.843137%);stroke-opacity:1;stroke-miterlimit:10;" d="M 53.37279 61.637444 L 53.37279 63.963281 L 61.802399 59.609933 L 61.802399 57.226088 Z M 53.37279 61.637444 " transform="matrix(1.414286,0,0,1.414141,0,0)"/>
<path style="fill-rule:evenodd;fill:rgb(100%,100%,100%);fill-opacity:1;stroke-width:1.64228;stroke-linecap:round;stroke-linejoin:round;stroke:rgb(7.843137%,7.843137%,7.843137%);stroke-opacity:1;stroke-miterlimit:10;" d="M 53.276121 55.132282 L 53.276121 52.803683 L 61.705729 57.157031 L 61.705729 59.540876 Z M 53.276121 55.132282 " transform="matrix(1.414286,0,0,1.414141,0,0)"/>
<path style="fill-rule:evenodd;fill:rgb(100%,100%,100%);fill-opacity:1;stroke-width:1.64228;stroke-linecap:round;stroke-linejoin:round;stroke:rgb(7.843137%,7.843137%,7.843137%);stroke-opacity:1;stroke-miterlimit:10;" d="M 53.287169 30.614314 L 53.287169 32.940151 L 61.716777 28.586802 L 61.716777 26.202958 Z M 53.287169 30.614314 " transform="matrix(1.414286,0,0,1.414141,0,0)"/>
<path style="fill-rule:evenodd;fill:rgb(100%,100%,100%);fill-opacity:1;stroke-width:1.64228;stroke-linecap:round;stroke-linejoin:round;stroke:rgb(7.843137%,7.843137%,7.843137%);stroke-opacity:1;stroke-miterlimit:10;" d="M 53.33136 35.014621 L 53.33136 37.34322 L 61.758207 32.989872 L 61.758207 30.603265 Z M 53.33136 35.014621 " transform="matrix(1.414286,0,0,1.414141,0,0)"/>
<path style="fill-rule:evenodd;fill:rgb(100%,100%,100%);fill-opacity:1;stroke-width:1.64228;stroke-linecap:round;stroke-linejoin:round;stroke:rgb(7.843137%,7.843137%,7.843137%);stroke-opacity:1;stroke-miterlimit:10;" d="M 53.350694 26.150474 L 53.350694 28.479074 L 61.777541 24.125725 L 61.777541 21.739118 Z M 53.350694 26.150474 " transform="matrix(1.414286,0,0,1.414141,0,0)"/>
<path style="fill-rule:evenodd;fill:rgb(100%,100%,100%);fill-opacity:1;stroke-width:1.64228;stroke-linecap:round;stroke-linejoin:round;stroke:rgb(7.843137%,7.843137%,7.843137%);stroke-opacity:1;stroke-miterlimit:10;" d="M 53.309265 28.572991 L 53.309265 26.247154 L 61.736111 30.600502 L 61.736111 32.984347 Z M 53.309265 28.572991 " transform="matrix(1.414286,0,0,1.414141,0,0)"/>
<path style="fill-rule:evenodd;fill:rgb(100%,100%,100%);fill-opacity:1;stroke-width:1.64228;stroke-linecap:round;stroke-linejoin:round;stroke:rgb(7.843137%,7.843137%,7.843137%);stroke-opacity:1;stroke-miterlimit:10;" d="M 53.306503 21.747405 L 53.306503 24.076004 L 61.733349 19.722656 L 61.733349 17.338811 Z M 53.306503 21.747405 " transform="matrix(1.414286,0,0,1.414141,0,0)"/>
<path style="fill-rule:evenodd;fill:rgb(100%,100%,100%);fill-opacity:1;stroke-width:1.64228;stroke-linecap:round;stroke-linejoin:round;stroke:rgb(7.843137%,7.843137%,7.843137%);stroke-opacity:1;stroke-miterlimit:10;" d="M 53.265073 24.087054 L 53.265073 21.761217 L 61.691919 26.111802 L 61.691919 28.49841 Z M 53.265073 24.087054 " transform="matrix(1.414286,0,0,1.414141,0,0)"/>
<path style="fill-rule:evenodd;fill:rgb(100%,100%,100%);fill-opacity:1;stroke-width:1.64228;stroke-linecap:round;stroke-linejoin:round;stroke:rgb(7.843137%,7.843137%,7.843137%);stroke-opacity:1;stroke-miterlimit:10;" d="M 53.328598 19.708845 L 53.328598 17.383008 L 61.755445 21.736356 L 61.755445 24.120201 Z M 53.328598 19.708845 " transform="matrix(1.414286,0,0,1.414141,0,0)"/>
<path style="fill-rule:evenodd;fill:rgb(100%,100%,100%);fill-opacity:1;stroke-width:1.64228;stroke-linecap:round;stroke-linejoin:round;stroke:rgb(7.843137%,7.843137%,7.843137%);stroke-opacity:1;stroke-miterlimit:10;" d="M 53.342408 39.456362 L 53.342408 41.784961 L 61.769255 37.431613 L 61.769255 35.047768 Z M 53.342408 39.456362 " transform="matrix(1.414286,0,0,1.414141,0,0)"/>
<path style="fill-rule:evenodd;fill:rgb(100%,100%,100%);fill-opacity:1;stroke-width:1.64228;stroke-linecap:round;stroke-linejoin:round;stroke:rgb(7.843137%,7.843137%,7.843137%);stroke-opacity:1;stroke-miterlimit:10;" d="M 53.245739 32.9512 L 53.245739 30.625363 L 61.675347 34.975949 L 61.675347 37.362556 Z M 53.245739 32.9512 " transform="matrix(1.414286,0,0,1.414141,0,0)"/>
<path style="fill-rule:evenodd;fill:rgb(100%,100%,100%);fill-opacity:1;stroke-width:1.64228;stroke-linecap:round;stroke-linejoin:round;stroke:rgb(7.843137%,7.843137%,7.843137%);stroke-opacity:1;stroke-miterlimit:10;" d="M 53.35898 41.889927 L 53.35898 39.561328 L 61.785827 43.914676 L 61.785827 46.298521 Z M 53.35898 41.889927 " transform="matrix(1.414286,0,0,1.414141,0,0)"/>
<path style="fill-rule:evenodd;fill:rgb(100%,100%,100%);fill-opacity:1;stroke-width:1.64228;stroke-linecap:round;stroke-linejoin:round;stroke:rgb(7.843137%,7.843137%,7.843137%);stroke-opacity:1;stroke-miterlimit:10;" d="M 53.256787 37.392941 L 53.256787 35.067104 L 61.686395 39.420452 L 61.686395 41.804297 Z M 53.256787 37.392941 " transform="matrix(1.414286,0,0,1.414141,0,0)"/>
<path style="fill-rule:evenodd;fill:rgb(100%,100%,100%);fill-opacity:1;stroke-width:1.64228;stroke-linecap:round;stroke-linejoin:round;stroke:rgb(7.843137%,7.843137%,7.843137%);stroke-opacity:1;stroke-miterlimit:10;" d="M 53.317551 74.912946 L 53.317551 77.238783 L 61.747159 72.885435 L 61.747159 70.50159 Z M 53.317551 74.912946 " transform="matrix(1.414286,0,0,1.414141,0,0)"/>
<path style="fill-rule:evenodd;fill:rgb(100%,100%,100%);fill-opacity:1;stroke-width:1.64228;stroke-linecap:round;stroke-linejoin:round;stroke:rgb(7.843137%,7.843137%,7.843137%);stroke-opacity:1;stroke-miterlimit:10;" d="M 53.361742 79.313253 L 53.361742 81.641853 L 61.788589 77.288504 L 61.788589 74.90466 Z M 53.361742 79.313253 " transform="matrix(1.414286,0,0,1.414141,0,0)"/>
<path style="fill-rule:evenodd;fill:rgb(100%,100%,100%);fill-opacity:1;stroke-width:1.64228;stroke-linecap:round;stroke-linejoin:round;stroke:rgb(7.843137%,7.843137%,7.843137%);stroke-opacity:1;stroke-miterlimit:10;" d="M 53.276121 77.249833 L 53.276121 74.923996 L 61.705729 79.277344 L 61.705729 81.661189 Z M 53.276121 77.249833 " transform="matrix(1.414286,0,0,1.414141,0,0)"/>
<path style=" stroke:none;fill-rule:evenodd;fill:rgb(100%,100%,100%);fill-opacity:1;" d="M 75.496094 99.625 L 75.496094 102.914062 L 87.414062 96.761719 L 87.414062 93.386719 Z M 75.496094 99.625 "/>
<path style="fill-rule:evenodd;fill:rgb(100%,100%,100%);fill-opacity:1;stroke-width:1.64228;stroke-linecap:round;stroke-linejoin:round;stroke:rgb(7.843137%,7.843137%,7.843137%);stroke-opacity:1;stroke-miterlimit:10;" d="M 53.336884 66.0488 L 53.336884 68.374637 L 61.766493 64.021289 L 61.766493 61.637444 Z M 53.336884 66.0488 " transform="matrix(1.414286,0,0,1.414141,0,0)"/>
<path style="fill-rule:evenodd;fill:rgb(100%,100%,100%);fill-opacity:1;stroke-width:1.64228;stroke-linecap:round;stroke-linejoin:round;stroke:rgb(7.843137%,7.843137%,7.843137%);stroke-opacity:1;stroke-miterlimit:10;" d="M 53.287169 59.574023 L 53.287169 57.245424 L 61.716777 61.598772 L 61.716777 63.985379 Z M 53.287169 59.574023 " transform="matrix(1.414286,0,0,1.414141,0,0)"/>
<path style="fill:none;stroke-width:1.64228;stroke-linecap:round;stroke-linejoin:round;stroke:rgb(7.843137%,7.843137%,7.843137%);stroke-opacity:1;stroke-miterlimit:10;" d="M 53.381076 70.449107 L 53.381076 72.774944 L 61.807923 68.424358 L 61.807923 66.037751 Z M 53.381076 70.449107 " transform="matrix(1.414286,0,0,1.414141,0,0)"/>
<path style="fill-rule:evenodd;fill:rgb(100%,100%,100%);fill-opacity:1;stroke-width:1.64228;stroke-linecap:round;stroke-linejoin:round;stroke:rgb(7.843137%,7.843137%,7.843137%);stroke-opacity:1;stroke-miterlimit:10;" d="M 53.339646 72.871624 L 53.339646 70.545787 L 61.769255 74.899135 L 61.769255 77.28298 Z M 53.339646 72.871624 " transform="matrix(1.414286,0,0,1.414141,0,0)"/>
<path style="fill-rule:evenodd;fill:rgb(100%,100%,100%);fill-opacity:1;stroke-width:1.64228;stroke-linecap:round;stroke-linejoin:round;stroke:rgb(7.843137%,7.843137%,7.843137%);stroke-opacity:1;stroke-miterlimit:10;" d="M 53.295455 68.385686 L 53.295455 66.059849 L 61.722301 70.413198 L 61.722301 72.797042 Z M 53.295455 68.385686 " transform="matrix(1.414286,0,0,1.414141,0,0)"/>
<path style="fill-rule:evenodd;fill:rgb(100%,100%,100%);fill-opacity:1;stroke-width:1.64228;stroke-linecap:round;stroke-linejoin:round;stroke:rgb(7.843137%,7.843137%,7.843137%);stroke-opacity:1;stroke-miterlimit:10;" d="M 53.35898 64.007478 L 53.35898 61.681641 L 61.785827 66.034989 L 61.785827 68.418834 Z M 53.35898 64.007478 " transform="matrix(1.414286,0,0,1.414141,0,0)"/>
<path style="fill-rule:evenodd;fill:rgb(100%,100%,100%);fill-opacity:1;stroke-width:1.64228;stroke-linecap:round;stroke-linejoin:round;stroke:rgb(7.843137%,7.843137%,7.843137%);stroke-opacity:1;stroke-miterlimit:10;" d="M 38.361348 82.85173 L 36.019176 82.85173 L 40.3997 91.226953 L 42.797112 91.226953 Z M 38.361348 82.85173 " transform="matrix(1.414286,0,0,1.414141,0,0)"/>
<path style="fill-rule:evenodd;fill:rgb(100%,100%,100%);fill-opacity:1;stroke-width:1.64228;stroke-linecap:round;stroke-linejoin:round;stroke:rgb(7.843137%,7.843137%,7.843137%);stroke-opacity:1;stroke-miterlimit:10;" d="M 33.931108 82.893164 L 31.588936 82.893164 L 35.96946 91.27115 L 38.369634 91.27115 Z M 33.931108 82.893164 " transform="matrix(1.414286,0,0,1.414141,0,0)"/>
<path style="fill-rule:evenodd;fill:rgb(100%,100%,100%);fill-opacity:1;stroke-width:1.64228;stroke-linecap:round;stroke-linejoin:round;stroke:rgb(7.843137%,7.843137%,7.843137%);stroke-opacity:1;stroke-miterlimit:10;" d="M 42.84959 82.9125 L 40.51018 82.9125 L 44.890704 91.287723 L 47.288116 91.287723 Z M 42.84959 82.9125 " transform="matrix(1.414286,0,0,1.414141,0,0)"/>
<path style="fill-rule:evenodd;fill:rgb(100%,100%,100%);fill-opacity:1;stroke-width:1.64228;stroke-linecap:round;stroke-linejoin:round;stroke:rgb(7.843137%,7.843137%,7.843137%);stroke-opacity:1;stroke-miterlimit:10;" d="M 40.41351 82.873828 L 42.75292 82.873828 L 38.375158 91.249051 L 35.974984 91.249051 Z M 40.41351 82.873828 " transform="matrix(1.414286,0,0,1.414141,0,0)"/>
<path style="fill-rule:evenodd;fill:rgb(80%,12.54902%,15.294118%);fill-opacity:1;stroke-width:1.64228;stroke-linecap:round;stroke-linejoin:round;stroke:rgb(7.843137%,7.843137%,7.843137%);stroke-opacity:1;stroke-miterlimit:10;" d="M 47.27983 82.871066 L 44.937658 82.871066 L 49.318182 91.246289 L 51.718355 91.246289 Z M 47.27983 82.871066 " transform="matrix(1.414286,0,0,1.414141,0,0)"/>
<path style="fill-rule:evenodd;fill:rgb(100%,100%,100%);fill-opacity:1;stroke-width:1.64228;stroke-linecap:round;stroke-linejoin:round;stroke:rgb(7.843137%,7.843137%,7.843137%);stroke-opacity:1;stroke-miterlimit:10;" d="M 44.92661 82.829632 L 47.268782 82.829632 L 42.888258 91.204855 L 40.488084 91.204855 Z M 44.92661 82.829632 " transform="matrix(1.414286,0,0,1.414141,0,0)"/>
<path style="fill-rule:evenodd;fill:rgb(100%,100%,100%);fill-opacity:1;stroke-width:1.64228;stroke-linecap:round;stroke-linejoin:round;stroke:rgb(7.843137%,7.843137%,7.843137%);stroke-opacity:1;stroke-miterlimit:10;" d="M 29.4622 82.906975 L 27.120028 82.906975 L 31.500552 91.282199 L 33.900726 91.282199 Z M 29.4622 82.906975 " transform="matrix(1.414286,0,0,1.414141,0,0)"/>
<path style="fill-rule:evenodd;fill:rgb(100%,100%,100%);fill-opacity:1;stroke-width:1.64228;stroke-linecap:round;stroke-linejoin:round;stroke:rgb(7.843137%,7.843137%,7.843137%);stroke-opacity:1;stroke-miterlimit:10;" d="M 36.008128 82.810296 L 38.3503 82.810296 L 33.969776 91.185519 L 31.569602 91.185519 Z M 36.008128 82.810296 " transform="matrix(1.414286,0,0,1.414141,0,0)"/>
<path style="fill-rule:evenodd;fill:rgb(100%,100%,100%);fill-opacity:1;stroke-width:1.64228;stroke-linecap:round;stroke-linejoin:round;stroke:rgb(7.843137%,7.843137%,7.843137%);stroke-opacity:1;stroke-miterlimit:10;" d="M 56.250789 82.862779 L 53.905855 82.862779 L 58.286379 91.238002 L 60.686553 91.238002 Z M 56.250789 82.862779 " transform="matrix(1.414286,0,0,1.414141,0,0)"/>
<path style="fill-rule:evenodd;fill:rgb(100%,100%,100%);fill-opacity:1;stroke-width:1.64228;stroke-linecap:round;stroke-linejoin:round;stroke:rgb(7.843137%,7.843137%,7.843137%);stroke-opacity:1;stroke-miterlimit:10;" d="M 51.779119 82.873828 L 49.436948 82.873828 L 53.817472 91.251814 L 56.217645 91.251814 Z M 51.779119 82.873828 " transform="matrix(1.414286,0,0,1.414141,0,0)"/>
<path style="fill-rule:evenodd;fill:rgb(100%,100%,100%);fill-opacity:1;stroke-width:1.64228;stroke-linecap:round;stroke-linejoin:round;stroke:rgb(7.843137%,7.843137%,7.843137%);stroke-opacity:1;stroke-miterlimit:10;" d="M 58.325047 82.779911 L 60.667219 82.779911 L 56.286695 91.155134 L 53.886521 91.155134 Z M 58.325047 82.779911 " transform="matrix(1.414286,0,0,1.414141,0,0)"/>
<path style="fill-rule:evenodd;fill:rgb(100%,100%,100%);fill-opacity:1;stroke-width:1.64228;stroke-linecap:round;stroke-linejoin:round;stroke:rgb(7.843137%,7.843137%,7.843137%);stroke-opacity:1;stroke-miterlimit:10;" d="M 49.331992 82.890402 L 51.674164 82.890402 L 47.29364 91.268387 L 44.893466 91.268387 Z M 49.331992 82.890402 " transform="matrix(1.414286,0,0,1.414141,0,0)"/>
<path style="fill-rule:evenodd;fill:rgb(100%,100%,100%);fill-opacity:1;stroke-width:1.64228;stroke-linecap:round;stroke-linejoin:round;stroke:rgb(7.843137%,7.843137%,7.843137%);stroke-opacity:1;stroke-miterlimit:10;" d="M 53.85614 82.79096 L 56.198311 82.79096 L 51.817787 91.166183 L 49.417614 91.166183 Z M 53.85614 82.79096 " transform="matrix(1.414286,0,0,1.414141,0,0)"/>
<path style="fill-rule:evenodd;fill:rgb(100%,100%,100%);fill-opacity:1;stroke-width:1.64228;stroke-linecap:round;stroke-linejoin:round;stroke:rgb(7.843137%,7.843137%,7.843137%);stroke-opacity:1;stroke-miterlimit:10;" d="M 16.105193 82.85173 L 13.763021 82.85173 L 18.143545 91.226953 L 20.543718 91.226953 Z M 16.105193 82.85173 " transform="matrix(1.414286,0,0,1.414141,0,0)"/>
<path style="fill-rule:evenodd;fill:rgb(100%,100%,100%);fill-opacity:1;stroke-width:1.64228;stroke-linecap:round;stroke-linejoin:round;stroke:rgb(7.843137%,7.843137%,7.843137%);stroke-opacity:1;stroke-miterlimit:10;" d="M 11.674953 82.893164 L 9.332781 82.893164 L 13.713305 91.27115 L 16.113479 91.27115 Z M 11.674953 82.893164 " transform="matrix(1.414286,0,0,1.414141,0,0)"/>
<path style="fill-rule:evenodd;fill:rgb(100%,100%,100%);fill-opacity:1;stroke-width:1.64228;stroke-linecap:round;stroke-linejoin:round;stroke:rgb(7.843137%,7.843137%,7.843137%);stroke-opacity:1;stroke-miterlimit:10;" d="M 13.749211 82.810296 L 16.094145 82.810296 L 11.713621 91.185519 L 9.313447 91.185519 Z M 13.749211 82.810296 " transform="matrix(1.414286,0,0,1.414141,0,0)"/>
<path style=" stroke:none;fill-rule:evenodd;fill:rgb(100%,100%,100%);fill-opacity:1;" d="M 29.125 117.25 L 25.816406 117.25 L 32.007812 129.09375 L 35.402344 129.09375 Z M 29.125 117.25 "/>
<path style="fill-rule:evenodd;fill:rgb(100%,100%,100%);fill-opacity:1;stroke-width:1.64228;stroke-linecap:round;stroke-linejoin:round;stroke:rgb(7.843137%,7.843137%,7.843137%);stroke-opacity:1;stroke-miterlimit:10;" d="M 25.023674 82.871066 L 22.681503 82.871066 L 27.062027 91.246289 L 29.459438 91.246289 Z M 25.023674 82.871066 " transform="matrix(1.414286,0,0,1.414141,0,0)"/>
<path style="fill-rule:evenodd;fill:rgb(100%,100%,100%);fill-opacity:1;stroke-width:1.64228;stroke-linecap:round;stroke-linejoin:round;stroke:rgb(7.843137%,7.843137%,7.843137%);stroke-opacity:1;stroke-miterlimit:10;" d="M 31.53922 82.821345 L 33.87863 82.821345 L 29.500868 91.196568 L 27.100694 91.196568 Z M 31.53922 82.821345 " transform="matrix(1.414286,0,0,1.414141,0,0)"/>
<path style="fill:none;stroke-width:1.64228;stroke-linecap:round;stroke-linejoin:round;stroke:rgb(7.843137%,7.843137%,7.843137%);stroke-opacity:1;stroke-miterlimit:10;" d="M 20.593434 82.9125 L 18.254025 82.9125 L 22.631787 91.287723 L 25.03196 91.287723 Z M 20.593434 82.9125 " transform="matrix(1.414286,0,0,1.414141,0,0)"/>
<path style="fill-rule:evenodd;fill:rgb(100%,100%,100%);fill-opacity:1;stroke-width:1.64228;stroke-linecap:round;stroke-linejoin:round;stroke:rgb(7.843137%,7.843137%,7.843137%);stroke-opacity:1;stroke-miterlimit:10;" d="M 18.157355 82.873828 L 20.499527 82.873828 L 16.119003 91.249051 L 13.718829 91.249051 Z M 18.157355 82.873828 " transform="matrix(1.414286,0,0,1.414141,0,0)"/>
<path style="fill-rule:evenodd;fill:rgb(100%,100%,100%);fill-opacity:1;stroke-width:1.64228;stroke-linecap:round;stroke-linejoin:round;stroke:rgb(7.843137%,7.843137%,7.843137%);stroke-opacity:1;stroke-miterlimit:10;" d="M 22.670455 82.829632 L 25.012626 82.829632 L 20.632102 91.204855 L 18.231929 91.204855 Z M 22.670455 82.829632 " transform="matrix(1.414286,0,0,1.414141,0,0)"/>
<path style="fill-rule:evenodd;fill:rgb(100%,100%,100%);fill-opacity:1;stroke-width:1.64228;stroke-linecap:round;stroke-linejoin:round;stroke:rgb(7.843137%,7.843137%,7.843137%);stroke-opacity:1;stroke-miterlimit:10;" d="M 27.075836 82.890402 L 29.418008 82.890402 L 25.037484 91.268387 L 22.637311 91.268387 Z M 27.075836 82.890402 " transform="matrix(1.414286,0,0,1.414141,0,0)"/>
<path style="fill-rule:evenodd;fill:rgb(100%,100%,100%);fill-opacity:1;stroke-width:1.64228;stroke-linecap:round;stroke-linejoin:round;stroke:rgb(7.843137%,7.843137%,7.843137%);stroke-opacity:1;stroke-miterlimit:10;" d="M 38.361348 7.784096 L 36.019176 7.784096 L 40.3997 16.159319 L 42.797112 16.159319 Z M 38.361348 7.784096 " transform="matrix(1.414286,0,0,1.414141,0,0)"/>
<path style="fill-rule:evenodd;fill:rgb(100%,100%,100%);fill-opacity:1;stroke-width:1.64228;stroke-linecap:round;stroke-linejoin:round;stroke:rgb(7.843137%,7.843137%,7.843137%);stroke-opacity:1;stroke-miterlimit:10;" d="M 33.931108 7.82553 L 31.588936 7.82553 L 35.96946 16.203516 L 38.369634 16.203516 Z M 33.931108 7.82553 " transform="matrix(1.414286,0,0,1.414141,0,0)"/>
<path style="fill-rule:evenodd;fill:rgb(100%,100%,100%);fill-opacity:1;stroke-width:1.64228;stroke-linecap:round;stroke-linejoin:round;stroke:rgb(7.843137%,7.843137%,7.843137%);stroke-opacity:1;stroke-miterlimit:10;" d="M 42.852352 7.844866 L 40.51018 7.844866 L 44.890704 16.220089 L 47.288116 16.220089 Z M 42.852352 7.844866 " transform="matrix(1.414286,0,0,1.414141,0,0)"/>
<path style="fill-rule:evenodd;fill:rgb(100%,100%,100%);fill-opacity:1;stroke-width:1.64228;stroke-linecap:round;stroke-linejoin:round;stroke:rgb(7.843137%,7.843137%,7.843137%);stroke-opacity:1;stroke-miterlimit:10;" d="M 40.41351 7.806194 L 42.755682 7.806194 L 38.375158 16.181417 L 35.974984 16.181417 Z M 40.41351 7.806194 " transform="matrix(1.414286,0,0,1.414141,0,0)"/>
<path style="fill-rule:evenodd;fill:rgb(100%,100%,100%);fill-opacity:1;stroke-width:1.64228;stroke-linecap:round;stroke-linejoin:round;stroke:rgb(7.843137%,7.843137%,7.843137%);stroke-opacity:1;stroke-miterlimit:10;" d="M 47.27983 7.803432 L 44.937658 7.803432 L 49.318182 16.178655 L 51.718355 16.178655 Z M 47.27983 7.803432 " transform="matrix(1.414286,0,0,1.414141,0,0)"/>
<path style="fill-rule:evenodd;fill:rgb(100%,100%,100%);fill-opacity:1;stroke-width:1.64228;stroke-linecap:round;stroke-linejoin:round;stroke:rgb(7.843137%,7.843137%,7.843137%);stroke-opacity:1;stroke-miterlimit:10;" d="M 44.92661 7.761998 L 47.268782 7.761998 L 42.888258 16.137221 L 40.490846 16.137221 Z M 44.92661 7.761998 " transform="matrix(1.414286,0,0,1.414141,0,0)"/>
<path style="fill-rule:evenodd;fill:rgb(100%,100%,100%);fill-opacity:1;stroke-width:1.64228;stroke-linecap:round;stroke-linejoin:round;stroke:rgb(7.843137%,7.843137%,7.843137%);stroke-opacity:1;stroke-miterlimit:10;" d="M 29.4622 7.839342 L 27.120028 7.839342 L 31.500552 16.214565 L 33.900726 16.214565 Z M 29.4622 7.839342 " transform="matrix(1.414286,0,0,1.414141,0,0)"/>
<path style="fill-rule:evenodd;fill:rgb(100%,100%,100%);fill-opacity:1;stroke-width:1.64228;stroke-linecap:round;stroke-linejoin:round;stroke:rgb(7.843137%,7.843137%,7.843137%);stroke-opacity:1;stroke-miterlimit:10;" d="M 36.008128 7.742662 L 38.3503 7.742662 L 33.969776 16.117885 L 31.569602 16.117885 Z M 36.008128 7.742662 " transform="matrix(1.414286,0,0,1.414141,0,0)"/>
<path style="fill-rule:evenodd;fill:rgb(100%,100%,100%);fill-opacity:1;stroke-width:1.64228;stroke-linecap:round;stroke-linejoin:round;stroke:rgb(7.843137%,7.843137%,7.843137%);stroke-opacity:1;stroke-miterlimit:10;" d="M 56.250789 7.795145 L 53.905855 7.795145 L 58.286379 16.170368 L 60.686553 16.170368 Z M 56.250789 7.795145 " transform="matrix(1.414286,0,0,1.414141,0,0)"/>
<path style="fill-rule:evenodd;fill:rgb(100%,100%,100%);fill-opacity:1;stroke-width:1.64228;stroke-linecap:round;stroke-linejoin:round;stroke:rgb(7.843137%,7.843137%,7.843137%);stroke-opacity:1;stroke-miterlimit:10;" d="M 51.779119 7.806194 L 49.436948 7.806194 L 53.817472 16.18418 L 56.217645 16.18418 Z M 51.779119 7.806194 " transform="matrix(1.414286,0,0,1.414141,0,0)"/>
<path style="fill-rule:evenodd;fill:rgb(100%,100%,100%);fill-opacity:1;stroke-width:1.64228;stroke-linecap:round;stroke-linejoin:round;stroke:rgb(7.843137%,7.843137%,7.843137%);stroke-opacity:1;stroke-miterlimit:10;" d="M 58.325047 7.712277 L 60.667219 7.712277 L 56.286695 16.0875 L 53.886521 16.0875 Z M 58.325047 7.712277 " transform="matrix(1.414286,0,0,1.414141,0,0)"/>
<path style="fill-rule:evenodd;fill:rgb(100%,100%,100%);fill-opacity:1;stroke-width:1.64228;stroke-linecap:round;stroke-linejoin:round;stroke:rgb(7.843137%,7.843137%,7.843137%);stroke-opacity:1;stroke-miterlimit:10;" d="M 49.331992 7.822768 L 51.674164 7.822768 L 47.29364 16.200753 L 44.893466 16.200753 Z M 49.331992 7.822768 " transform="matrix(1.414286,0,0,1.414141,0,0)"/>
<path style="fill-rule:evenodd;fill:rgb(100%,100%,100%);fill-opacity:1;stroke-width:1.64228;stroke-linecap:round;stroke-linejoin:round;stroke:rgb(7.843137%,7.843137%,7.843137%);stroke-opacity:1;stroke-miterlimit:10;" d="M 53.85614 7.723326 L 56.198311 7.723326 L 51.817787 16.098549 L 49.417614 16.098549 Z M 53.85614 7.723326 " transform="matrix(1.414286,0,0,1.414141,0,0)"/>
<path style="fill-rule:evenodd;fill:rgb(100%,100%,100%);fill-opacity:1;stroke-width:1.64228;stroke-linecap:round;stroke-linejoin:round;stroke:rgb(7.843137%,7.843137%,7.843137%);stroke-opacity:1;stroke-miterlimit:10;" d="M 16.105193 7.784096 L 13.763021 7.784096 L 18.143545 16.159319 L 20.543718 16.159319 Z M 16.105193 7.784096 " transform="matrix(1.414286,0,0,1.414141,0,0)"/>
<path style="fill-rule:evenodd;fill:rgb(100%,100%,100%);fill-opacity:1;stroke-width:1.64228;stroke-linecap:round;stroke-linejoin:round;stroke:rgb(7.843137%,7.843137%,7.843137%);stroke-opacity:1;stroke-miterlimit:10;" d="M 11.674953 7.82553 L 9.332781 7.82553 L 13.713305 16.203516 L 16.113479 16.203516 Z M 11.674953 7.82553 " transform="matrix(1.414286,0,0,1.414141,0,0)"/>
<path style="fill-rule:evenodd;fill:rgb(100%,100%,100%);fill-opacity:1;stroke-width:1.64228;stroke-linecap:round;stroke-linejoin:round;stroke:rgb(7.843137%,7.843137%,7.843137%);stroke-opacity:1;stroke-miterlimit:10;" d="M 13.749211 7.742662 L 16.094145 7.742662 L 11.713621 16.117885 L 9.313447 16.117885 Z M 13.749211 7.742662 " transform="matrix(1.414286,0,0,1.414141,0,0)"/>
<path style=" stroke:none;fill-rule:evenodd;fill:rgb(100%,100%,100%);fill-opacity:1;" d="M 29.128906 11.09375 L 25.816406 11.09375 L 32.007812 22.9375 L 35.402344 22.9375 Z M 29.128906 11.09375 "/>
<path style="fill-rule:evenodd;fill:rgb(100%,100%,100%);fill-opacity:1;stroke-width:1.64228;stroke-linecap:round;stroke-linejoin:round;stroke:rgb(7.843137%,7.843137%,7.843137%);stroke-opacity:1;stroke-miterlimit:10;" d="M 25.023674 7.803432 L 22.681503 7.803432 L 27.062027 16.178655 L 29.459438 16.178655 Z M 25.023674 7.803432 " transform="matrix(1.414286,0,0,1.414141,0,0)"/>
<path style="fill-rule:evenodd;fill:rgb(100%,100%,100%);fill-opacity:1;stroke-width:1.64228;stroke-linecap:round;stroke-linejoin:round;stroke:rgb(7.843137%,7.843137%,7.843137%);stroke-opacity:1;stroke-miterlimit:10;" d="M 31.53922 7.753711 L 33.87863 7.753711 L 29.500868 16.128934 L 27.100694 16.128934 Z M 31.53922 7.753711 " transform="matrix(1.414286,0,0,1.414141,0,0)"/>
<path style="fill:none;stroke-width:1.64228;stroke-linecap:round;stroke-linejoin:round;stroke:rgb(7.843137%,7.843137%,7.843137%);stroke-opacity:1;stroke-miterlimit:10;" d="M 20.596196 7.844866 L 18.254025 7.844866 L 22.631787 16.220089 L 25.03196 16.220089 Z M 20.596196 7.844866 " transform="matrix(1.414286,0,0,1.414141,0,0)"/>
<path style="fill-rule:evenodd;fill:rgb(100%,100%,100%);fill-opacity:1;stroke-width:1.64238;stroke-linecap:round;stroke-linejoin:round;stroke:rgb(7.843137%,7.843137%,7.843137%);stroke-opacity:1;stroke-miterlimit:4;" d="M 18.157355 7.806194 L 20.499527 7.806194 L 16.119003 16.181417 L 13.718829 16.181417 Z M 18.157355 7.806194 " transform="matrix(1.414286,0,0,1.414141,0,0)"/>
<path style="fill:none;stroke-width:1.64228;stroke-linecap:round;stroke-linejoin:round;stroke:rgb(7.843137%,7.843137%,7.843137%);stroke-opacity:1;stroke-miterlimit:10;" d="M 18.157355 7.806194 L 20.499527 7.806194 L 16.119003 16.181417 L 13.718829 16.181417 Z M 18.157355 7.806194 " transform="matrix(1.414286,0,0,1.414141,0,0)"/>
<path style="fill-rule:evenodd;fill:rgb(100%,100%,100%);fill-opacity:1;stroke-width:1.64228;stroke-linecap:round;stroke-linejoin:round;stroke:rgb(7.843137%,7.843137%,7.843137%);stroke-opacity:1;stroke-miterlimit:10;" d="M 22.670455 7.761998 L 25.012626 7.761998 L 20.632102 16.137221 L 18.231929 16.137221 Z M 22.670455 7.761998 " transform="matrix(1.414286,0,0,1.414141,0,0)"/>
<path style="fill-rule:evenodd;fill:rgb(100%,100%,100%);fill-opacity:1;stroke-width:1.64228;stroke-linecap:round;stroke-linejoin:round;stroke:rgb(7.843137%,7.843137%,7.843137%);stroke-opacity:1;stroke-miterlimit:10;" d="M 27.075836 7.822768 L 29.418008 7.822768 L 25.037484 16.200753 L 22.637311 16.200753 Z M 27.075836 7.822768 " transform="matrix(1.414286,0,0,1.414141,0,0)"/>
</g>
</svg>
