<svg xmlns="http://www.w3.org/2000/svg" width="27" height="27" fill="none"><path fill="#fff" d="M26.075 8.614A13.471 13.471 0 0 0 15.75.203 13.51 13.51 0 0 0 13.5 0c-.768 0-1.517.08-2.25.203A13.468 13.468 0 0 0 .926 8.613 13.43 13.43 0 0 0 0 13.5c0 1.586.287 3.101.79 4.515a13.48 13.48 0 0 0 2.189 3.933 13.47 13.47 0 0 0 8.271 4.85c.733.123 1.482.202 2.25.202s1.517-.08 2.25-.203a13.472 13.472 0 0 0 8.271-4.849 13.476 13.476 0 0 0 2.189-3.933c.502-1.413.79-2.929.79-4.515 0-1.725-.336-3.37-.925-4.886Zm-1.584.914L22.13 10.89a9.024 9.024 0 0 0-2.342-3.843l2.382-1.375a11.691 11.691 0 0 1 2.32 3.856ZM20.718 13.5c0 3.98-3.238 7.218-7.218 7.218S6.281 17.48 6.281 13.5 9.52 6.282 13.5 6.282c3.98 0 7.218 3.238 7.218 7.218ZM13.5 1.8c.77 0 1.521.08 2.25.222v2.755a8.968 8.968 0 0 0-2.25-.295c-.778 0-1.53.109-2.25.295V2.022c.729-.142 1.48-.222 2.25-.222ZM4.83 5.671l2.383 1.376A9.024 9.024 0 0 0 4.87 10.89L2.51 9.527a11.708 11.708 0 0 1 2.32-3.856Zm-2.457 11.43 2.396-1.383a8.996 8.996 0 0 0 2.165 3.946l-2.373 1.37A11.7 11.7 0 0 1 2.373 17.1ZM13.5 25.2c-.77 0-1.521-.08-2.25-.222v-2.755c.72.186 1.472.296 2.25.296s1.53-.11 2.25-.296v2.755c-.729.142-1.48.222-2.25.222Zm8.938-4.166-2.373-1.37a8.994 8.994 0 0 0 2.166-3.946l2.396 1.383a11.69 11.69 0 0 1-2.19 3.933Z"/><path fill="#fff" d="M14.263 12.52c-1.148-.433-1.62-.716-1.62-1.162 0-.378.283-.756 1.161-.756.506 0 .918.084 1.245.186a.711.711 0 0 0 .898-.502l.012-.047a.806.806 0 0 0-.58-.98 5.78 5.78 0 0 0-1.197-.169v-.507a.675.675 0 0 0-.598-.678.662.662 0 0 0-.725.659v.62c-1.445.284-2.281 1.216-2.281 2.404 0 1.31.985 1.984 2.43 2.47.998.338 1.43.662 1.43 1.174 0 .54-.526.838-1.296.838-.55 0-1.07-.113-1.521-.273a.71.71 0 0 0-.928.495l-.006.023c-.118.46.147.93.602 1.068.445.134.97.229 1.502.252v.603a.661.661 0 0 0 1.323 0v-.697c1.552-.27 2.403-1.296 2.403-2.498 0-1.214-.647-1.957-2.254-2.524Z"/></svg>