<?xml version="1.0" encoding="UTF-8"?>
<svg xmlns="http://www.w3.org/2000/svg" xmlns:xlink="http://www.w3.org/1999/xlink" width="99px" height="140px" viewBox="0 0 99 140" version="1.1">
<g id="surface1">
<path style="fill-rule:nonzero;fill:rgb(100%,100%,100%);fill-opacity:1;stroke-width:0.756;stroke-linecap:butt;stroke-linejoin:miter;stroke:rgb(50.196078%,50.196078%,50.196078%);stroke-opacity:1;stroke-miterlimit:4;" d="M 9.297585 719.743103 L 224.702415 719.743103 C 229.632812 719.743103 233.621449 723.747651 233.621449 728.681329 L 233.621449 1043.042991 C 233.621449 1047.976669 229.632812 1051.981217 224.702415 1051.981217 L 9.297585 1051.981217 C 4.367188 1051.981217 0.378551 1047.976669 0.378551 1043.042991 L 0.378551 728.681329 C 0.378551 723.747651 4.367188 719.743103 9.297585 719.743103 Z M 9.297585 719.743103 " transform="matrix(0.423077,0,0,0.42042,0,-302.434542)"/>
<path style=" stroke:none;fill-rule:nonzero;fill:rgb(0%,0%,0%);fill-opacity:1;" d="M 23.785156 60.835938 L 25.820312 60.835938 L 25.820312 67.882812 L 23.785156 67.882812 Z M 23.785156 60.835938 "/>
<path style=" stroke:none;fill-rule:nonzero;fill:rgb(0%,0%,0%);fill-opacity:1;" d="M 36 57.46875 C 37.605469 60.347656 36.5625 63.976562 33.675781 65.574219 C 30.789062 67.171875 27.148438 66.136719 25.542969 63.257812 C 25.117188 62.492188 24.863281 61.640625 24.804688 60.765625 C 24.582031 64.054688 21.726562 66.535156 18.429688 66.3125 C 15.136719 66.089844 12.644531 63.242188 12.871094 59.957031 C 13.09375 56.671875 15.949219 54.191406 19.242188 54.414062 C 20.109375 54.472656 20.949219 54.71875 21.722656 55.136719 C 18.898438 53.445312 17.972656 49.785156 19.667969 46.960938 C 21.363281 44.132812 25.035156 43.210938 27.871094 44.902344 C 30.707031 46.589844 31.632812 50.25 29.9375 53.078125 C 29.425781 53.929688 28.710938 54.636719 27.863281 55.148438 C 30.753906 53.550781 34.394531 54.589844 36 57.46875 Z M 36 57.46875 "/>
<path style=" stroke:none;fill-rule:nonzero;fill:rgb(0%,0%,0%);fill-opacity:1;" d="M 7.277344 14.769531 C 7.277344 14.90625 7.265625 15.027344 7.242188 15.132812 C 7.171875 15.175781 7.097656 15.199219 7.015625 15.199219 L 3.828125 15.199219 C 3.636719 15.199219 3.542969 15.007812 3.542969 14.621094 C 3.542969 14.554688 3.546875 14.453125 3.550781 14.308594 C 3.558594 14.160156 3.558594 14.046875 3.558594 13.972656 C 3.558594 13.609375 3.644531 13.425781 3.808594 13.425781 L 4.886719 13.425781 L 4.886719 5.816406 L 3.574219 5.816406 C 3.386719 5.816406 3.296875 5.621094 3.296875 5.238281 C 3.296875 5.15625 3.300781 5.023438 3.308594 4.84375 C 3.320312 4.65625 3.328125 4.515625 3.328125 4.421875 C 3.328125 4.234375 3.417969 4.144531 3.601562 4.144531 C 3.65625 4.144531 3.753906 4.152344 3.898438 4.175781 C 4.039062 4.191406 4.152344 4.199219 4.234375 4.199219 C 4.695312 4.199219 4.972656 3.894531 5.070312 3.285156 L 5.898438 3.285156 L 5.898438 13.425781 C 6.089844 13.425781 6.296875 13.417969 6.519531 13.394531 C 6.742188 13.367188 6.878906 13.355469 6.921875 13.355469 C 7.085938 13.355469 7.191406 13.4375 7.230469 13.609375 C 7.261719 13.757812 7.277344 14.144531 7.277344 14.769531 Z M 7.277344 14.769531 "/>
<path style=" stroke:none;fill-rule:nonzero;fill:rgb(0%,0%,0%);fill-opacity:1;" d="M 11.261719 9.382812 C 11.261719 13.261719 10.601562 15.199219 9.285156 15.199219 C 7.949219 15.199219 7.277344 13.25 7.277344 9.351562 C 7.277344 5.308594 7.960938 3.285156 9.324219 3.285156 C 10.617188 3.285156 11.261719 5.320312 11.261719 9.382812 Z M 10.222656 9.214844 C 10.222656 6.4375 9.90625 5.046875 9.269531 5.046875 C 8.894531 5.046875 8.632812 5.597656 8.472656 6.695312 C 8.375 7.390625 8.324219 8.253906 8.324219 9.285156 C 8.324219 12.0625 8.640625 13.453125 9.269531 13.453125 C 9.644531 13.453125 9.910156 12.90625 10.070312 11.8125 C 10.171875 11.109375 10.222656 10.242188 10.222656 9.214844 Z M 10.222656 9.214844 "/>
<path style=" stroke:none;fill-rule:nonzero;fill:rgb(0%,0%,0%);fill-opacity:1;" d="M 6.9375 23.441406 L 7.617188 23.441406 L 7.617188 25.789062 L 6.9375 25.789062 Z M 6.9375 23.441406 "/>
<path style=" stroke:none;fill-rule:nonzero;fill:rgb(0%,0%,0%);fill-opacity:1;" d="M 11.011719 22.316406 C 11.546875 23.277344 11.199219 24.488281 10.238281 25.019531 C 9.273438 25.550781 8.058594 25.207031 7.523438 24.246094 C 7.382812 23.992188 7.296875 23.707031 7.277344 23.417969 C 7.203125 24.511719 6.253906 25.339844 5.15625 25.265625 C 4.054688 25.191406 3.226562 24.242188 3.300781 23.148438 C 3.375 22.050781 4.328125 21.226562 5.425781 21.300781 C 5.714844 21.320312 5.996094 21.402344 6.25 21.539062 C 5.308594 20.976562 5.003906 19.757812 5.566406 18.8125 C 6.132812 17.871094 7.355469 17.566406 8.300781 18.128906 C 9.246094 18.691406 9.554688 19.910156 8.988281 20.855469 C 8.820312 21.136719 8.582031 21.375 8.296875 21.542969 C 9.261719 21.011719 10.476562 21.359375 11.011719 22.316406 Z M 11.011719 22.316406 "/>
<path style=" stroke:none;fill-rule:nonzero;fill:rgb(0%,0%,0%);fill-opacity:1;" d="M 91.722656 125.230469 C 91.722656 125.09375 91.734375 124.972656 91.757812 124.867188 C 91.828125 124.824219 91.902344 124.800781 91.984375 124.800781 L 95.171875 124.800781 C 95.363281 124.800781 95.457031 124.992188 95.457031 125.378906 C 95.457031 125.445312 95.453125 125.546875 95.449219 125.691406 C 95.441406 125.839844 95.441406 125.953125 95.441406 126.027344 C 95.441406 126.390625 95.355469 126.574219 95.191406 126.574219 L 94.113281 126.574219 L 94.113281 134.183594 L 95.425781 134.183594 C 95.613281 134.183594 95.703125 134.378906 95.703125 134.761719 C 95.703125 134.84375 95.699219 134.976562 95.691406 135.15625 C 95.679688 135.34375 95.671875 135.484375 95.671875 135.578125 C 95.671875 135.765625 95.582031 135.859375 95.398438 135.859375 C 95.34375 135.859375 95.246094 135.847656 95.101562 135.824219 C 94.960938 135.808594 94.847656 135.800781 94.765625 135.800781 C 94.304688 135.800781 94.027344 136.105469 93.929688 136.714844 L 93.101562 136.714844 L 93.101562 126.574219 C 92.910156 126.574219 92.703125 126.582031 92.480469 126.605469 C 92.257812 126.632812 92.121094 126.648438 92.078125 126.648438 C 91.914062 126.648438 91.808594 126.5625 91.769531 126.390625 C 91.738281 126.242188 91.722656 125.855469 91.722656 125.230469 Z M 91.722656 125.230469 "/>
<path style=" stroke:none;fill-rule:nonzero;fill:rgb(0%,0%,0%);fill-opacity:1;" d="M 87.738281 130.617188 C 87.738281 126.738281 88.398438 124.800781 89.714844 124.800781 C 91.050781 124.800781 91.722656 126.75 91.722656 130.648438 C 91.722656 134.691406 91.039062 136.714844 89.675781 136.714844 C 88.382812 136.714844 87.738281 134.679688 87.738281 130.617188 Z M 88.777344 130.785156 C 88.777344 133.5625 89.09375 134.953125 89.730469 134.953125 C 90.105469 134.953125 90.367188 134.402344 90.527344 133.304688 C 90.625 132.609375 90.675781 131.746094 90.675781 130.714844 C 90.675781 127.9375 90.359375 126.546875 89.730469 126.546875 C 89.355469 126.546875 89.089844 127.09375 88.929688 128.1875 C 88.828125 128.890625 88.777344 129.757812 88.777344 130.785156 Z M 88.777344 130.785156 "/>
<path style=" stroke:none;fill-rule:nonzero;fill:rgb(0%,0%,0%);fill-opacity:1;" d="M 91.378906 116.558594 L 92.058594 116.558594 L 92.058594 114.210938 L 91.378906 114.210938 Z M 91.378906 116.558594 "/>
<path style=" stroke:none;fill-rule:nonzero;fill:rgb(0%,0%,0%);fill-opacity:1;" d="M 95.453125 117.683594 C 95.988281 116.722656 95.640625 115.511719 94.679688 114.980469 C 93.714844 114.449219 92.5 114.792969 91.964844 115.753906 C 91.824219 116.007812 91.738281 116.292969 91.71875 116.582031 C 91.644531 115.488281 90.695312 114.660156 89.597656 114.734375 C 88.496094 114.808594 87.667969 115.757812 87.742188 116.851562 C 87.816406 117.949219 88.769531 118.773438 89.867188 118.699219 C 90.15625 118.679688 90.4375 118.597656 90.691406 118.460938 C 89.75 119.023438 89.445312 120.242188 90.007812 121.1875 C 90.574219 122.128906 91.796875 122.433594 92.742188 121.871094 C 93.6875 121.308594 93.996094 120.089844 93.429688 119.144531 C 93.261719 118.863281 93.023438 118.625 92.738281 118.457031 C 93.703125 118.988281 94.917969 118.640625 95.453125 117.683594 Z M 95.453125 117.683594 "/>
<path style=" stroke:none;fill-rule:nonzero;fill:rgb(0%,0%,0%);fill-opacity:1;" d="M 23.785156 107.226562 L 25.820312 107.226562 L 25.820312 100.179688 L 23.785156 100.179688 Z M 23.785156 107.226562 "/>
<path style=" stroke:none;fill-rule:nonzero;fill:rgb(0%,0%,0%);fill-opacity:1;" d="M 36 110.59375 C 37.605469 107.714844 36.5625 104.085938 33.675781 102.488281 C 30.789062 100.886719 27.148438 101.925781 25.542969 104.804688 C 25.117188 105.570312 24.863281 106.421875 24.804688 107.296875 C 24.582031 104.007812 21.726562 101.527344 18.429688 101.75 C 15.136719 101.972656 12.644531 104.820312 12.871094 108.105469 C 13.09375 111.386719 15.949219 113.871094 19.242188 113.648438 C 20.109375 113.589844 20.949219 113.34375 21.722656 112.925781 C 18.898438 114.617188 17.972656 118.277344 19.667969 121.101562 C 21.363281 123.929688 25.035156 124.851562 27.871094 123.160156 C 30.707031 121.472656 31.632812 117.8125 29.9375 114.984375 C 29.425781 114.132812 28.710938 113.425781 27.863281 112.914062 C 30.753906 114.511719 34.394531 113.472656 36 110.59375 Z M 36 110.59375 "/>
<path style=" stroke:none;fill-rule:nonzero;fill:rgb(0%,0%,0%);fill-opacity:1;" d="M 23.785156 32.773438 L 25.820312 32.773438 L 25.820312 39.820312 L 23.785156 39.820312 Z M 23.785156 32.773438 "/>
<path style=" stroke:none;fill-rule:nonzero;fill:rgb(0%,0%,0%);fill-opacity:1;" d="M 36 29.40625 C 37.605469 32.285156 36.5625 35.914062 33.675781 37.511719 C 30.789062 39.113281 27.148438 38.074219 25.542969 35.195312 C 25.117188 34.429688 24.863281 33.578125 24.804688 32.703125 C 24.582031 35.992188 21.726562 38.472656 18.429688 38.25 C 15.136719 38.027344 12.644531 35.179688 12.871094 31.894531 C 13.09375 28.609375 15.949219 26.128906 19.242188 26.351562 C 20.109375 26.410156 20.949219 26.65625 21.722656 27.074219 C 18.898438 25.382812 17.972656 21.722656 19.667969 18.898438 C 21.363281 16.070312 25.035156 15.148438 27.871094 16.839844 C 30.707031 18.527344 31.632812 22.1875 29.9375 25.015625 C 29.425781 25.867188 28.710938 26.574219 27.863281 27.085938 C 30.753906 25.488281 34.394531 26.527344 36 29.40625 Z M 36 29.40625 "/>
<path style=" stroke:none;fill-rule:nonzero;fill:rgb(0%,0%,0%);fill-opacity:1;" d="M 48.480469 46.804688 L 50.515625 46.804688 L 50.515625 53.851562 L 48.480469 53.851562 Z M 48.480469 46.804688 "/>
<path style=" stroke:none;fill-rule:nonzero;fill:rgb(0%,0%,0%);fill-opacity:1;" d="M 60.695312 43.4375 C 62.300781 46.316406 61.257812 49.945312 58.371094 51.542969 C 55.484375 53.144531 51.84375 52.105469 50.238281 49.226562 C 49.808594 48.460938 49.558594 47.609375 49.5 46.734375 C 49.277344 50.023438 46.421875 52.503906 43.125 52.28125 C 39.832031 52.058594 37.339844 49.210938 37.566406 45.925781 C 37.789062 42.640625 40.640625 40.160156 43.9375 40.382812 C 44.804688 40.441406 45.644531 40.6875 46.417969 41.105469 C 43.59375 39.414062 42.667969 35.753906 44.363281 32.929688 C 46.058594 30.101562 49.730469 29.179688 52.566406 30.871094 C 55.402344 32.558594 56.328125 36.21875 54.632812 39.046875 C 54.121094 39.898438 53.40625 40.605469 52.558594 41.117188 C 55.449219 39.519531 59.089844 40.558594 60.695312 43.4375 Z M 60.695312 43.4375 "/>
<path style=" stroke:none;fill-rule:nonzero;fill:rgb(0%,0%,0%);fill-opacity:1;" d="M 73.175781 32.773438 L 75.210938 32.773438 L 75.210938 39.820312 L 73.175781 39.820312 Z M 73.175781 32.773438 "/>
<path style=" stroke:none;fill-rule:nonzero;fill:rgb(0%,0%,0%);fill-opacity:1;" d="M 85.390625 29.40625 C 86.996094 32.285156 85.953125 35.914062 83.066406 37.511719 C 80.179688 39.113281 76.539062 38.074219 74.933594 35.195312 C 74.503906 34.429688 74.253906 33.578125 74.195312 32.703125 C 73.972656 35.992188 71.117188 38.472656 67.820312 38.25 C 64.527344 38.027344 62.035156 35.179688 62.261719 31.894531 C 62.484375 28.609375 65.335938 26.128906 68.632812 26.351562 C 69.5 26.410156 70.339844 26.65625 71.113281 27.074219 C 68.289062 25.382812 67.363281 21.722656 69.058594 18.898438 C 70.753906 16.070312 74.425781 15.148438 77.261719 16.839844 C 80.097656 18.527344 81.023438 22.1875 79.328125 25.015625 C 78.816406 25.867188 78.101562 26.574219 77.253906 27.085938 C 80.144531 25.488281 83.785156 26.527344 85.390625 29.40625 Z M 85.390625 29.40625 "/>
<path style=" stroke:none;fill-rule:nonzero;fill:rgb(0%,0%,0%);fill-opacity:1;" d="M 73.175781 60.835938 L 75.210938 60.835938 L 75.210938 67.882812 L 73.175781 67.882812 Z M 73.175781 60.835938 "/>
<path style=" stroke:none;fill-rule:nonzero;fill:rgb(0%,0%,0%);fill-opacity:1;" d="M 85.390625 57.46875 C 86.996094 60.347656 85.953125 63.976562 83.066406 65.574219 C 80.179688 67.171875 76.539062 66.136719 74.933594 63.257812 C 74.503906 62.492188 74.253906 61.640625 74.195312 60.765625 C 73.972656 64.054688 71.117188 66.535156 67.820312 66.3125 C 64.527344 66.089844 62.035156 63.242188 62.261719 59.957031 C 62.484375 56.671875 65.335938 54.191406 68.632812 54.414062 C 69.5 54.472656 70.339844 54.71875 71.113281 55.136719 C 68.289062 53.445312 67.363281 49.785156 69.058594 46.960938 C 70.753906 44.132812 74.425781 43.210938 77.261719 44.902344 C 80.097656 46.589844 81.023438 50.25 79.328125 53.078125 C 78.816406 53.929688 78.101562 54.636719 77.253906 55.148438 C 80.144531 53.550781 83.785156 54.589844 85.390625 57.46875 Z M 85.390625 57.46875 "/>
<path style=" stroke:none;fill-rule:nonzero;fill:rgb(0%,0%,0%);fill-opacity:1;" d="M 23.785156 79.164062 L 25.820312 79.164062 L 25.820312 72.117188 L 23.785156 72.117188 Z M 23.785156 79.164062 "/>
<path style=" stroke:none;fill-rule:nonzero;fill:rgb(0%,0%,0%);fill-opacity:1;" d="M 36 82.53125 C 37.605469 79.652344 36.5625 76.023438 33.675781 74.425781 C 30.789062 72.828125 27.148438 73.863281 25.542969 76.742188 C 25.117188 77.507812 24.863281 78.359375 24.804688 79.234375 C 24.582031 75.945312 21.726562 73.464844 18.429688 73.6875 C 15.136719 73.910156 12.644531 76.757812 12.871094 80.042969 C 13.09375 83.328125 15.949219 85.808594 19.242188 85.585938 C 20.109375 85.527344 20.949219 85.28125 21.722656 84.863281 C 18.898438 86.554688 17.972656 90.214844 19.667969 93.039062 C 21.363281 95.867188 25.035156 96.789062 27.871094 95.097656 C 30.707031 93.410156 31.632812 89.75 29.9375 86.921875 C 29.425781 86.070312 28.710938 85.363281 27.863281 84.851562 C 30.753906 86.449219 34.394531 85.410156 36 82.53125 Z M 36 82.53125 "/>
<path style=" stroke:none;fill-rule:nonzero;fill:rgb(0%,0%,0%);fill-opacity:1;" d="M 48.480469 93.195312 L 50.515625 93.195312 L 50.515625 86.148438 L 48.480469 86.148438 Z M 48.480469 93.195312 "/>
<path style=" stroke:none;fill-rule:nonzero;fill:rgb(0%,0%,0%);fill-opacity:1;" d="M 60.695312 96.5625 C 62.300781 93.683594 61.257812 90.054688 58.371094 88.457031 C 55.484375 86.855469 51.84375 87.894531 50.238281 90.773438 C 49.808594 91.539062 49.558594 92.390625 49.5 93.265625 C 49.277344 89.976562 46.421875 87.496094 43.125 87.71875 C 39.832031 87.941406 37.339844 90.789062 37.566406 94.074219 C 37.789062 97.359375 40.640625 99.839844 43.9375 99.617188 C 44.804688 99.558594 45.644531 99.3125 46.417969 98.894531 C 43.59375 100.585938 42.667969 104.246094 44.363281 107.070312 C 46.058594 109.898438 49.730469 110.820312 52.566406 109.128906 C 55.402344 107.441406 56.328125 103.78125 54.632812 100.953125 C 54.121094 100.101562 53.40625 99.394531 52.558594 98.882812 C 55.449219 100.480469 59.089844 99.441406 60.695312 96.5625 Z M 60.695312 96.5625 "/>
<path style=" stroke:none;fill-rule:nonzero;fill:rgb(0%,0%,0%);fill-opacity:1;" d="M 73.175781 107.226562 L 75.210938 107.226562 L 75.210938 100.179688 L 73.175781 100.179688 Z M 73.175781 107.226562 "/>
<path style=" stroke:none;fill-rule:nonzero;fill:rgb(0%,0%,0%);fill-opacity:1;" d="M 85.390625 110.59375 C 86.996094 107.714844 85.953125 104.085938 83.066406 102.488281 C 80.179688 100.886719 76.539062 101.925781 74.933594 104.804688 C 74.503906 105.570312 74.253906 106.421875 74.195312 107.296875 C 73.972656 104.007812 71.117188 101.527344 67.820312 101.75 C 64.527344 101.972656 62.035156 104.820312 62.261719 108.105469 C 62.484375 111.386719 65.335938 113.871094 68.632812 113.648438 C 69.5 113.589844 70.339844 113.34375 71.113281 112.925781 C 68.289062 114.617188 67.363281 118.277344 69.058594 121.101562 C 70.753906 123.929688 74.425781 124.851562 77.261719 123.160156 C 80.097656 121.472656 81.023438 117.8125 79.328125 114.984375 C 78.816406 114.132812 78.101562 113.425781 77.253906 112.914062 C 80.144531 114.511719 83.785156 113.472656 85.390625 110.59375 Z M 85.390625 110.59375 "/>
<path style=" stroke:none;fill-rule:nonzero;fill:rgb(0%,0%,0%);fill-opacity:1;" d="M 73.175781 79.164062 L 75.210938 79.164062 L 75.210938 72.117188 L 73.175781 72.117188 Z M 73.175781 79.164062 "/>
<path style=" stroke:none;fill-rule:nonzero;fill:rgb(0%,0%,0%);fill-opacity:1;" d="M 85.390625 82.53125 C 86.996094 79.652344 85.953125 76.023438 83.066406 74.425781 C 80.179688 72.828125 76.539062 73.863281 74.933594 76.742188 C 74.503906 77.507812 74.253906 78.359375 74.195312 79.234375 C 73.972656 75.945312 71.117188 73.464844 67.820312 73.6875 C 64.527344 73.910156 62.035156 76.757812 62.261719 80.042969 C 62.484375 83.328125 65.335938 85.808594 68.632812 85.585938 C 69.5 85.527344 70.339844 85.28125 71.113281 84.863281 C 68.289062 86.554688 67.363281 90.214844 69.058594 93.039062 C 70.753906 95.867188 74.425781 96.789062 77.261719 95.097656 C 80.097656 93.410156 81.023438 89.75 79.328125 86.921875 C 78.816406 86.070312 78.101562 85.363281 77.253906 84.851562 C 80.144531 86.449219 83.785156 85.410156 85.390625 82.53125 Z M 85.390625 82.53125 "/>
</g>
</svg>
