<svg xmlns="http://www.w3.org/2000/svg" width="99" height="140"><path d="M9.298 719.743h215.404c4.93 0 8.92 4.005 8.92 8.938v314.362c0 4.934-3.99 8.938-8.92 8.938H9.298c-4.93 0-8.92-4.004-8.92-8.938V728.681c0-4.933 3.99-8.938 8.92-8.938Zm0 0" style="fill-rule:nonzero;fill:#fff;fill-opacity:1;stroke-width:.756;stroke-linecap:butt;stroke-linejoin:miter;stroke:gray;stroke-opacity:1;stroke-miterlimit:4" transform="matrix(.42308 0 0 .42042 0 -302.435)"/><path d="M23.785 60.836h2.035v7.047h-2.035Zm0 0" style="stroke:none;fill-rule:nonzero;fill:#000;fill-opacity:1"/><path d="M36 57.469a5.95 5.95 0 0 1-2.324 8.105c-2.887 1.598-6.528.563-8.133-2.316a5.95 5.95 0 0 1-.738-2.492c-.223 3.289-3.078 5.77-6.375 5.547-3.293-.223-5.785-3.07-5.559-6.356.223-3.285 3.078-5.766 6.371-5.543a6.063 6.063 0 0 1 2.48.723c-2.824-1.692-3.75-5.352-2.054-8.176a5.99 5.99 0 0 1 8.203-2.059 5.95 5.95 0 0 1 2.067 8.176 6.08 6.08 0 0 1-2.075 2.07c2.89-1.597 6.532-.558 8.137 2.32ZM7.277 14.77c0 .136-.011.257-.035.363a.426.426 0 0 1-.226.066H3.828c-.191 0-.285-.191-.285-.578 0-.066.004-.168.008-.312.008-.149.008-.262.008-.336 0-.364.086-.547.25-.547h1.078v-7.61H3.574c-.187 0-.277-.195-.277-.578 0-.082.004-.215.012-.394.011-.188.02-.328.02-.422 0-.188.089-.277.273-.277.054 0 .152.007.296.03.141.016.254.024.336.024.461 0 .739-.304.836-.914h.828v10.14c.192 0 .399-.007.622-.03.222-.028.359-.04.402-.04.164 0 .27.082.308.254.032.149.047.536.047 1.16ZM11.262 9.383c0 3.879-.66 5.816-1.977 5.816-1.336 0-2.008-1.949-2.008-5.847 0-4.043.684-6.067 2.047-6.067 1.293 0 1.938 2.035 1.938 6.098Zm-1.04-.168c0-2.777-.316-4.168-.952-4.168-.375 0-.637.55-.797 1.648-.098.696-.149 1.559-.149 2.59 0 2.777.317 4.168.946 4.168.375 0 .64-.547.8-1.64.102-.704.153-1.57.153-2.598ZM6.938 23.441h.68v2.348h-.68Zm0 0" style="stroke:none;fill-rule:nonzero;fill:#000;fill-opacity:1"/><path d="M11.012 22.316c.535.961.187 2.172-.774 2.704a2.002 2.002 0 0 1-2.715-.774 1.997 1.997 0 0 1-.246-.828 1.99 1.99 0 0 1-2.12 1.848A1.99 1.99 0 0 1 3.3 23.148a1.99 1.99 0 0 1 2.125-1.847c.289.02.57.101.824.238a1.988 1.988 0 0 1-.684-2.727 1.998 1.998 0 0 1 2.735-.683 1.982 1.982 0 0 1-.004 3.414 2.005 2.005 0 0 1 2.715.773ZM91.723 125.23c0-.136.011-.257.035-.363a.426.426 0 0 1 .226-.066h3.188c.191 0 .285.191.285.578 0 .066-.004.168-.008.312-.008.149-.008.262-.008.336 0 .364-.086.547-.25.547h-1.078v7.61h1.313c.187 0 .277.195.277.578 0 .082-.004.215-.012.394-.011.188-.02.328-.02.422 0 .188-.089.281-.273.281-.054 0-.152-.011-.296-.035a3.229 3.229 0 0 0-.336-.023c-.461 0-.739.304-.836.914h-.828v-10.14c-.192 0-.399.007-.622.03-.222.028-.359.043-.402.043-.164 0-.27-.085-.308-.257-.032-.149-.047-.536-.047-1.16ZM87.738 130.617c0-3.879.66-5.816 1.977-5.816 1.336 0 2.008 1.949 2.008 5.847 0 4.043-.684 6.067-2.047 6.067-1.293 0-1.938-2.035-1.938-6.098Zm1.04.168c0 2.778.316 4.168.952 4.168.375 0 .637-.55.797-1.648.098-.696.149-1.559.149-2.59 0-2.778-.317-4.168-.946-4.168-.375 0-.64.547-.8 1.64-.102.704-.153 1.57-.153 2.598ZM91.379 116.559h.68v-2.348h-.68Zm0 0" style="stroke:none;fill-rule:nonzero;fill:#000;fill-opacity:1"/><path d="M95.453 117.684a1.985 1.985 0 0 0-.773-2.704 2.002 2.002 0 0 0-2.715.774c-.14.254-.227.539-.246.828a1.99 1.99 0 0 0-2.121-1.848 1.99 1.99 0 0 0-1.856 2.118 1.99 1.99 0 0 0 2.125 1.847c.29-.02.57-.101.824-.238a1.988 1.988 0 0 0-.683 2.727 1.998 1.998 0 0 0 2.734.683 1.982 1.982 0 0 0-.004-3.414c.965.531 2.18.184 2.715-.773ZM23.785 107.227h2.035v-7.047h-2.035Zm0 0" style="stroke:none;fill-rule:nonzero;fill:#000;fill-opacity:1"/><path d="M36 110.594a5.95 5.95 0 0 0-2.324-8.106 5.989 5.989 0 0 0-8.133 2.317 5.95 5.95 0 0 0-.738 2.492c-.223-3.29-3.078-5.77-6.375-5.547-3.293.223-5.785 3.07-5.559 6.355.223 3.282 3.078 5.766 6.371 5.543a6.063 6.063 0 0 0 2.48-.722c-2.824 1.691-3.75 5.351-2.054 8.176a5.99 5.99 0 0 0 8.203 2.058 5.95 5.95 0 0 0 2.067-8.176 6.08 6.08 0 0 0-2.075-2.07c2.89 1.598 6.532.559 8.137-2.32ZM23.785 32.773h2.035v7.047h-2.035Zm0 0" style="stroke:none;fill-rule:nonzero;fill:#000;fill-opacity:1"/><path d="M36 29.406a5.95 5.95 0 0 1-2.324 8.106 5.989 5.989 0 0 1-8.133-2.317 5.95 5.95 0 0 1-.738-2.492c-.223 3.29-3.078 5.77-6.375 5.547-3.293-.223-5.785-3.07-5.559-6.355.223-3.286 3.078-5.766 6.371-5.543a6.063 6.063 0 0 1 2.48.722c-2.824-1.691-3.75-5.351-2.054-8.176a5.99 5.99 0 0 1 8.203-2.058 5.95 5.95 0 0 1 2.067 8.176 6.08 6.08 0 0 1-2.075 2.07c2.89-1.598 6.532-.559 8.137 2.32ZM48.48 46.805h2.036v7.047H48.48Zm0 0" style="stroke:none;fill-rule:nonzero;fill:#000;fill-opacity:1"/><path d="M60.695 43.438a5.95 5.95 0 0 1-2.324 8.105 5.989 5.989 0 0 1-8.133-2.316 5.894 5.894 0 0 1-.738-2.493c-.223 3.29-3.078 5.77-6.375 5.547-3.293-.222-5.785-3.07-5.559-6.355.223-3.285 3.075-5.766 6.371-5.543a6.063 6.063 0 0 1 2.481.722c-2.824-1.69-3.75-5.351-2.055-8.175a5.99 5.99 0 0 1 8.203-2.059 5.95 5.95 0 0 1 2.067 8.176 6.08 6.08 0 0 1-2.074 2.07c2.89-1.597 6.53-.558 8.136 2.32ZM73.176 32.773h2.035v7.047h-2.035Zm0 0" style="stroke:none;fill-rule:nonzero;fill:#000;fill-opacity:1"/><path d="M85.39 29.406a5.95 5.95 0 0 1-2.324 8.106 5.989 5.989 0 0 1-8.132-2.317 5.894 5.894 0 0 1-.739-2.492c-.222 3.29-3.078 5.77-6.375 5.547-3.293-.223-5.785-3.07-5.558-6.355.222-3.286 3.074-5.766 6.37-5.543a6.063 6.063 0 0 1 2.481.722c-2.824-1.691-3.75-5.351-2.054-8.176a5.99 5.99 0 0 1 8.203-2.058 5.95 5.95 0 0 1 2.066 8.176 6.08 6.08 0 0 1-2.074 2.07c2.89-1.598 6.531-.559 8.137 2.32ZM73.176 60.836h2.035v7.047h-2.035Zm0 0" style="stroke:none;fill-rule:nonzero;fill:#000;fill-opacity:1"/><path d="M85.39 57.469a5.95 5.95 0 0 1-2.324 8.105c-2.886 1.598-6.527.563-8.132-2.316a5.894 5.894 0 0 1-.739-2.492c-.222 3.289-3.078 5.77-6.375 5.547-3.293-.223-5.785-3.07-5.558-6.356.222-3.285 3.074-5.766 6.37-5.543a6.063 6.063 0 0 1 2.481.723c-2.824-1.692-3.75-5.352-2.054-8.176a5.99 5.99 0 0 1 8.203-2.059 5.95 5.95 0 0 1 2.066 8.176 6.08 6.08 0 0 1-2.074 2.07c2.89-1.597 6.531-.558 8.137 2.32ZM23.785 79.164h2.035v-7.047h-2.035Zm0 0" style="stroke:none;fill-rule:nonzero;fill:#000;fill-opacity:1"/><path d="M36 82.531a5.95 5.95 0 0 0-2.324-8.105c-2.887-1.598-6.528-.563-8.133 2.316a5.95 5.95 0 0 0-.738 2.492c-.223-3.289-3.078-5.77-6.375-5.546-3.293.222-5.785 3.07-5.559 6.355.223 3.285 3.078 5.766 6.371 5.543a6.063 6.063 0 0 0 2.48-.723c-2.824 1.692-3.75 5.352-2.054 8.176a5.99 5.99 0 0 0 8.203 2.059 5.95 5.95 0 0 0 2.067-8.176 6.08 6.08 0 0 0-2.075-2.07c2.89 1.597 6.532.558 8.137-2.32ZM48.48 93.195h2.036v-7.047H48.48Zm0 0" style="stroke:none;fill-rule:nonzero;fill:#000;fill-opacity:1"/><path d="M60.695 96.563a5.95 5.95 0 0 0-2.324-8.106 5.989 5.989 0 0 0-8.133 2.316 5.894 5.894 0 0 0-.738 2.493c-.223-3.29-3.078-5.77-6.375-5.547-3.293.222-5.785 3.07-5.559 6.355.223 3.285 3.075 5.766 6.371 5.543a6.063 6.063 0 0 0 2.481-.722c-2.824 1.69-3.75 5.351-2.055 8.175a5.99 5.99 0 0 0 8.203 2.059 5.95 5.95 0 0 0 2.067-8.176 6.08 6.08 0 0 0-2.074-2.07c2.89 1.597 6.53.558 8.136-2.32ZM73.176 107.227h2.035v-7.047h-2.035Zm0 0" style="stroke:none;fill-rule:nonzero;fill:#000;fill-opacity:1"/><path d="M85.39 110.594a5.95 5.95 0 0 0-2.324-8.106 5.989 5.989 0 0 0-8.132 2.317 5.894 5.894 0 0 0-.739 2.492c-.222-3.29-3.078-5.77-6.375-5.547-3.293.223-5.785 3.07-5.558 6.355.222 3.282 3.074 5.766 6.37 5.543a6.063 6.063 0 0 0 2.481-.722c-2.824 1.691-3.75 5.351-2.054 8.176a5.99 5.99 0 0 0 8.203 2.058 5.95 5.95 0 0 0 2.066-8.176 6.08 6.08 0 0 0-2.074-2.07c2.89 1.598 6.531.559 8.137-2.32ZM73.176 79.164h2.035v-7.047h-2.035Zm0 0" style="stroke:none;fill-rule:nonzero;fill:#000;fill-opacity:1"/><path d="M85.39 82.531a5.95 5.95 0 0 0-2.324-8.105c-2.886-1.598-6.527-.563-8.132 2.316a5.894 5.894 0 0 0-.739 2.492c-.222-3.289-3.078-5.77-6.375-5.546-3.293.222-5.785 3.07-5.558 6.355.222 3.285 3.074 5.766 6.37 5.543a6.063 6.063 0 0 0 2.481-.723c-2.824 1.692-3.75 5.352-2.054 8.176a5.99 5.99 0 0 0 8.203 2.059 5.95 5.95 0 0 0 2.066-8.176 6.08 6.08 0 0 0-2.074-2.07c2.89 1.597 6.531.558 8.137-2.32Zm0 0" style="stroke:none;fill-rule:nonzero;fill:#000;fill-opacity:1"/></svg>