<?xml version="1.0" encoding="UTF-8"?>
<svg xmlns="http://www.w3.org/2000/svg" xmlns:xlink="http://www.w3.org/1999/xlink" width="99px" height="140px" viewBox="0 0 99 140" version="1.1">
<g id="surface1">
<path style="fill-rule:nonzero;fill:rgb(100%,100%,100%);fill-opacity:1;stroke-width:0.755906;stroke-linecap:butt;stroke-linejoin:miter;stroke:rgb(50.196078%,50.196078%,50.196078%);stroke-opacity:1;stroke-miterlimit:4;" d="M 9.297538 719.743193 L 224.702368 719.743193 C 229.632765 719.743193 233.621402 723.747741 233.621402 728.681419 L 233.621402 1043.043081 C 233.621402 1047.976759 229.632765 1051.981307 224.702368 1051.981307 L 9.297538 1051.981307 C 4.36714 1051.981307 0.378504 1047.976759 0.378504 1043.043081 L 0.378504 728.681419 C 0.378504 723.747741 4.36714 719.743193 9.297538 719.743193 Z M 9.297538 719.743193 " transform="matrix(0.423077,0,0,0.42042,0.0000199974,-302.43458)"/>
<path style=" stroke:none;fill-rule:nonzero;fill:rgb(0%,0%,0%);fill-opacity:1;" d="M 48.476562 32.714844 L 50.519531 32.714844 L 50.519531 39.773438 L 48.476562 39.773438 Z M 48.476562 32.714844 "/>
<path style=" stroke:none;fill-rule:nonzero;fill:rgb(0%,0%,0%);fill-opacity:1;" d="M 60.71875 29.34375 C 62.328125 32.226562 61.285156 35.859375 58.390625 37.460938 C 55.496094 39.0625 51.847656 38.023438 50.238281 35.140625 C 49.8125 34.375 49.558594 33.523438 49.5 32.644531 C 49.277344 35.9375 46.414062 38.421875 43.113281 38.199219 C 39.808594 37.976562 37.3125 35.128906 37.539062 31.835938 C 37.761719 28.546875 40.621094 26.0625 43.925781 26.285156 C 44.792969 26.34375 45.636719 26.589844 46.410156 27.007812 C 43.578125 25.3125 42.652344 21.648438 44.351562 18.816406 C 46.050781 15.988281 49.730469 15.0625 52.574219 16.757812 C 55.414062 18.449219 56.34375 22.113281 54.644531 24.945312 C 54.132812 25.796875 53.414062 26.507812 52.5625 27.019531 C 55.460938 25.421875 59.113281 26.460938 60.71875 29.34375 Z M 60.71875 29.34375 "/>
<path style=" stroke:none;fill-rule:nonzero;fill:rgb(0%,0%,0%);fill-opacity:1;" d="M 6.84375 23.367188 L 7.523438 23.367188 L 7.523438 25.71875 L 6.84375 25.71875 Z M 6.84375 23.367188 "/>
<path style=" stroke:none;fill-rule:nonzero;fill:rgb(0%,0%,0%);fill-opacity:1;" d="M 10.925781 22.242188 C 11.460938 23.203125 11.113281 24.414062 10.148438 24.949219 C 9.183594 25.484375 7.96875 25.136719 7.433594 24.175781 C 7.289062 23.921875 7.203125 23.636719 7.183594 23.34375 C 7.109375 24.441406 6.15625 25.269531 5.054688 25.195312 C 3.957031 25.121094 3.125 24.171875 3.199219 23.074219 C 3.273438 21.976562 4.226562 21.148438 5.328125 21.222656 C 5.617188 21.242188 5.898438 21.324219 6.15625 21.464844 C 5.210938 20.898438 4.902344 19.679688 5.46875 18.734375 C 6.035156 17.789062 7.261719 17.484375 8.210938 18.046875 C 9.15625 18.613281 9.464844 19.832031 8.898438 20.777344 C 8.730469 21.0625 8.492188 21.296875 8.207031 21.46875 C 9.171875 20.933594 10.390625 21.28125 10.925781 22.242188 Z M 10.925781 22.242188 "/>
<path style=" stroke:none;fill-rule:nonzero;fill:rgb(0%,0%,0%);fill-opacity:1;" d="M 91.714844 116.632812 L 92.394531 116.632812 L 92.394531 114.28125 L 91.714844 114.28125 Z M 91.714844 116.632812 "/>
<path style=" stroke:none;fill-rule:nonzero;fill:rgb(0%,0%,0%);fill-opacity:1;" d="M 95.796875 117.757812 C 96.332031 116.796875 95.984375 115.585938 95.019531 115.050781 C 94.054688 114.515625 92.839844 114.863281 92.300781 115.824219 C 92.160156 116.078125 92.074219 116.363281 92.054688 116.65625 C 91.980469 115.558594 91.027344 114.730469 89.925781 114.804688 C 88.824219 114.878906 87.992188 115.828125 88.070312 116.925781 C 88.144531 118.023438 89.097656 118.851562 90.199219 118.777344 C 90.488281 118.757812 90.769531 118.675781 91.027344 118.535156 C 90.082031 119.101562 89.773438 120.320312 90.339844 121.265625 C 90.90625 122.210938 92.132812 122.515625 93.082031 121.953125 C 94.027344 121.386719 94.335938 120.167969 93.769531 119.222656 C 93.601562 118.9375 93.359375 118.703125 93.078125 118.53125 C 94.042969 119.0625 95.261719 118.71875 95.796875 117.757812 Z M 95.796875 117.757812 "/>
<path style=" stroke:none;fill-rule:nonzero;fill:rgb(0%,0%,0%);fill-opacity:1;" d="M 48.476562 74.875 L 50.519531 74.875 L 50.519531 81.933594 L 48.476562 81.933594 Z M 48.476562 74.875 "/>
<path style=" stroke:none;fill-rule:nonzero;fill:rgb(0%,0%,0%);fill-opacity:1;" d="M 60.71875 71.5 C 62.328125 74.382812 61.285156 78.019531 58.390625 79.621094 C 55.496094 81.222656 51.847656 80.183594 50.238281 77.300781 C 49.8125 76.535156 49.558594 75.679688 49.5 74.804688 C 49.277344 78.097656 46.414062 80.582031 43.113281 80.359375 C 39.808594 80.136719 37.3125 77.285156 37.539062 73.996094 C 37.761719 70.707031 40.621094 68.21875 43.925781 68.445312 C 44.792969 68.503906 45.636719 68.75 46.410156 69.164062 C 43.578125 67.472656 42.652344 63.808594 44.351562 60.976562 C 46.050781 58.144531 49.730469 57.222656 52.574219 58.914062 C 55.414062 60.605469 56.34375 64.273438 54.644531 67.105469 C 54.132812 67.957031 53.414062 68.667969 52.5625 69.175781 C 55.460938 67.578125 59.113281 68.617188 60.71875 71.5 Z M 60.71875 71.5 "/>
<path style=" stroke:none;fill-rule:nonzero;fill:rgb(0%,0%,0%);fill-opacity:1;" d="M 48.476562 107.285156 L 50.519531 107.285156 L 50.519531 100.226562 L 48.476562 100.226562 Z M 48.476562 107.285156 "/>
<path style=" stroke:none;fill-rule:nonzero;fill:rgb(0%,0%,0%);fill-opacity:1;" d="M 60.71875 110.65625 C 62.328125 107.773438 61.285156 104.140625 58.390625 102.539062 C 55.496094 100.9375 51.847656 101.976562 50.238281 104.859375 C 49.8125 105.625 49.558594 106.476562 49.5 107.351562 C 49.277344 104.0625 46.414062 101.578125 43.113281 101.800781 C 39.808594 102.023438 37.3125 104.871094 37.539062 108.164062 C 37.761719 111.453125 40.621094 113.9375 43.925781 113.714844 C 44.792969 113.65625 45.636719 113.410156 46.410156 112.992188 C 43.578125 114.6875 42.652344 118.351562 44.351562 121.183594 C 46.050781 124.011719 49.730469 124.9375 52.574219 123.242188 C 55.414062 121.550781 56.34375 117.886719 54.644531 115.054688 C 54.132812 114.203125 53.414062 113.492188 52.5625 112.980469 C 55.460938 114.578125 59.113281 113.539062 60.71875 110.65625 Z M 60.71875 110.65625 "/>
<path style=" stroke:none;fill-rule:nonzero;fill:rgb(0%,0%,0%);fill-opacity:1;" d="M 11.175781 11.746094 C 11.175781 12.851562 10.78125 13.703125 9.984375 14.300781 C 9.265625 14.84375 8.328125 15.113281 7.164062 15.113281 C 4.515625 15.113281 3.195312 13.894531 3.195312 11.453125 C 3.195312 11.339844 3.214844 11.230469 3.253906 11.128906 C 3.335938 11.078125 3.429688 11.054688 3.535156 11.054688 L 4.621094 11.054688 C 4.726562 11.054688 4.824219 11.078125 4.914062 11.128906 C 4.941406 11.203125 4.960938 11.292969 4.980469 11.398438 C 5.074219 12.070312 5.269531 12.558594 5.5625 12.859375 C 5.890625 13.195312 6.394531 13.363281 7.074219 13.363281 C 7.628906 13.363281 8.082031 13.21875 8.433594 12.925781 C 8.800781 12.609375 8.984375 12.1875 8.984375 11.65625 C 8.984375 10.527344 8.351562 9.867188 7.089844 9.671875 C 6.933594 9.652344 6.816406 9.617188 6.738281 9.574219 C 6.695312 9.488281 6.671875 9.046875 6.671875 8.257812 C 6.671875 8.152344 6.699219 8.054688 6.746094 7.964844 C 7.164062 7.84375 7.582031 7.722656 8 7.597656 C 8.4375 7.402344 8.65625 6.992188 8.65625 6.371094 C 8.65625 5.425781 8.089844 4.953125 6.957031 4.953125 C 6.433594 4.953125 6.023438 5.078125 5.730469 5.328125 C 5.574219 5.464844 5.414062 5.695312 5.246094 6.019531 C 5.125 6.269531 5 6.394531 4.878906 6.394531 L 3.800781 6.394531 C 3.53125 6.394531 3.394531 6.273438 3.394531 6.035156 C 3.394531 5.132812 3.757812 4.414062 4.488281 3.890625 C 5.144531 3.417969 5.949219 3.183594 6.90625 3.183594 C 8.007812 3.183594 8.90625 3.40625 9.601562 3.855469 C 10.417969 4.382812 10.828125 5.15625 10.828125 6.183594 C 10.828125 7.417969 10.203125 8.257812 8.949219 8.703125 C 10.433594 9.316406 11.175781 10.332031 11.175781 11.746094 Z M 11.175781 11.746094 "/>
<path style=" stroke:none;fill-rule:nonzero;fill:rgb(0%,0%,0%);fill-opacity:1;" d="M 87.824219 128.253906 C 87.824219 127.148438 88.21875 126.296875 89.015625 125.699219 C 89.734375 125.15625 90.671875 124.886719 91.835938 124.886719 C 94.484375 124.886719 95.804688 126.105469 95.804688 128.546875 C 95.804688 128.660156 95.785156 128.769531 95.746094 128.871094 C 95.664062 128.921875 95.570312 128.945312 95.464844 128.945312 L 94.378906 128.945312 C 94.273438 128.945312 94.175781 128.921875 94.085938 128.871094 C 94.058594 128.796875 94.039062 128.707031 94.019531 128.601562 C 93.925781 127.929688 93.730469 127.441406 93.4375 127.140625 C 93.109375 126.804688 92.605469 126.636719 91.925781 126.636719 C 91.371094 126.636719 90.917969 126.78125 90.566406 127.074219 C 90.199219 127.390625 90.015625 127.8125 90.015625 128.34375 C 90.015625 129.472656 90.648438 130.132812 91.910156 130.328125 C 92.066406 130.347656 92.183594 130.382812 92.261719 130.425781 C 92.304688 130.511719 92.328125 130.953125 92.328125 131.742188 C 92.328125 131.847656 92.300781 131.945312 92.253906 132.035156 C 91.835938 132.15625 91.417969 132.277344 91 132.402344 C 90.5625 132.597656 90.34375 133.007812 90.34375 133.628906 C 90.34375 134.574219 90.910156 135.046875 92.042969 135.046875 C 92.566406 135.046875 92.976562 134.921875 93.269531 134.671875 C 93.425781 134.535156 93.585938 134.304688 93.753906 133.980469 C 93.875 133.730469 94 133.605469 94.121094 133.605469 L 95.199219 133.605469 C 95.46875 133.605469 95.605469 133.726562 95.605469 133.964844 C 95.605469 134.867188 95.242188 135.585938 94.511719 136.109375 C 93.855469 136.582031 93.050781 136.816406 92.09375 136.816406 C 90.992188 136.816406 90.09375 136.59375 89.398438 136.144531 C 88.582031 135.617188 88.171875 134.839844 88.171875 133.816406 C 88.171875 132.582031 88.796875 131.738281 90.050781 131.296875 C 88.566406 130.683594 87.824219 129.667969 87.824219 128.253906 Z M 87.824219 128.253906 "/>
</g>
</svg>
