<?xml version="1.0" encoding="UTF-8"?>
<svg xmlns="http://www.w3.org/2000/svg" xmlns:xlink="http://www.w3.org/1999/xlink" width="99px" height="140px" viewBox="0 0 99 140" version="1.1">
<g id="surface1">
<path style="fill-rule:nonzero;fill:rgb(100%,100%,100%);fill-opacity:1;stroke-width:0.756;stroke-linecap:butt;stroke-linejoin:miter;stroke:rgb(50.196078%,50.196078%,50.196078%);stroke-opacity:1;stroke-miterlimit:4;" d="M 9.297585 719.743103 L 224.702415 719.743103 C 229.632812 719.743103 233.621449 723.747651 233.621449 728.681329 L 233.621449 1043.042991 C 233.621449 1047.976669 229.632812 1051.981217 224.702415 1051.981217 L 9.297585 1051.981217 C 4.367188 1051.981217 0.378551 1047.976669 0.378551 1043.042991 L 0.378551 728.681329 C 0.378551 723.747651 4.367188 719.743103 9.297585 719.743103 Z M 9.297585 719.743103 " transform="matrix(0.423077,0,0,0.42042,0,-302.434542)"/>
<path style=" stroke:none;fill-rule:nonzero;fill:rgb(0%,0%,0%);fill-opacity:1;" d="M 48.480469 86.179688 L 50.515625 86.179688 L 50.515625 79.132812 L 48.480469 79.132812 Z M 48.480469 86.179688 "/>
<path style=" stroke:none;fill-rule:nonzero;fill:rgb(0%,0%,0%);fill-opacity:1;" d="M 60.695312 89.546875 C 62.300781 86.667969 61.257812 83.039062 58.371094 81.441406 C 55.484375 79.839844 51.84375 80.878906 50.238281 83.757812 C 49.808594 84.523438 49.558594 85.375 49.5 86.25 C 49.277344 82.960938 46.421875 80.480469 43.125 80.703125 C 39.832031 80.925781 37.339844 83.773438 37.566406 87.058594 C 37.789062 90.34375 40.640625 92.824219 43.9375 92.601562 C 44.804688 92.542969 45.644531 92.296875 46.417969 91.878906 C 43.59375 93.570312 42.667969 97.230469 44.363281 100.054688 C 46.058594 102.882812 49.730469 103.804688 52.566406 102.113281 C 55.402344 100.425781 56.328125 96.765625 54.632812 93.9375 C 54.121094 93.085938 53.40625 92.378906 52.558594 91.867188 C 55.449219 93.464844 59.089844 92.425781 60.695312 89.546875 Z M 60.695312 89.546875 "/>
<path style=" stroke:none;fill-rule:nonzero;fill:rgb(0%,0%,0%);fill-opacity:1;" d="M 73.175781 74.867188 L 75.210938 74.867188 L 75.210938 81.914062 L 73.175781 81.914062 Z M 73.175781 74.867188 "/>
<path style=" stroke:none;fill-rule:nonzero;fill:rgb(0%,0%,0%);fill-opacity:1;" d="M 85.390625 71.5 C 86.996094 74.375 85.953125 78.007812 83.066406 79.605469 C 80.179688 81.203125 76.539062 80.167969 74.933594 77.289062 C 74.503906 76.523438 74.253906 75.671875 74.195312 74.796875 C 73.972656 78.085938 71.117188 80.566406 67.820312 80.34375 C 64.527344 80.121094 62.035156 77.273438 62.261719 73.988281 C 62.484375 70.703125 65.335938 68.222656 68.632812 68.445312 C 69.5 68.503906 70.339844 68.75 71.113281 69.167969 C 68.289062 67.476562 67.363281 63.816406 69.058594 60.992188 C 70.753906 58.164062 74.425781 57.242188 77.261719 58.933594 C 80.097656 60.621094 81.023438 64.28125 79.328125 67.109375 C 78.816406 67.960938 78.101562 68.667969 77.253906 69.179688 C 80.144531 67.582031 83.785156 68.621094 85.390625 71.5 Z M 85.390625 71.5 "/>
<path style=" stroke:none;fill-rule:nonzero;fill:rgb(0%,0%,0%);fill-opacity:1;" d="M 23.785156 32.773438 L 25.820312 32.773438 L 25.820312 39.820312 L 23.785156 39.820312 Z M 23.785156 32.773438 "/>
<path style=" stroke:none;fill-rule:nonzero;fill:rgb(0%,0%,0%);fill-opacity:1;" d="M 36 29.40625 C 37.605469 32.285156 36.5625 35.914062 33.675781 37.511719 C 30.789062 39.113281 27.148438 38.074219 25.542969 35.195312 C 25.117188 34.429688 24.863281 33.578125 24.804688 32.703125 C 24.582031 35.992188 21.726562 38.472656 18.429688 38.25 C 15.136719 38.027344 12.644531 35.179688 12.871094 31.894531 C 13.09375 28.609375 15.949219 26.128906 19.242188 26.351562 C 20.109375 26.410156 20.949219 26.65625 21.722656 27.074219 C 18.898438 25.382812 17.972656 21.722656 19.667969 18.898438 C 21.363281 16.070312 25.035156 15.148438 27.871094 16.839844 C 30.707031 18.527344 31.632812 22.1875 29.9375 25.015625 C 29.425781 25.867188 28.710938 26.574219 27.863281 27.085938 C 30.753906 25.488281 34.394531 26.527344 36 29.40625 Z M 36 29.40625 "/>
<path style=" stroke:none;fill-rule:nonzero;fill:rgb(0%,0%,0%);fill-opacity:1;" d="M 6.9375 23.441406 L 7.617188 23.441406 L 7.617188 25.789062 L 6.9375 25.789062 Z M 6.9375 23.441406 "/>
<path style=" stroke:none;fill-rule:nonzero;fill:rgb(0%,0%,0%);fill-opacity:1;" d="M 11.011719 22.316406 C 11.546875 23.277344 11.199219 24.488281 10.238281 25.019531 C 9.273438 25.550781 8.058594 25.207031 7.523438 24.246094 C 7.382812 23.992188 7.296875 23.707031 7.277344 23.417969 C 7.203125 24.511719 6.253906 25.339844 5.15625 25.265625 C 4.054688 25.191406 3.226562 24.242188 3.300781 23.148438 C 3.375 22.050781 4.328125 21.226562 5.425781 21.300781 C 5.714844 21.320312 5.996094 21.402344 6.25 21.539062 C 5.308594 20.976562 5.003906 19.757812 5.566406 18.8125 C 6.132812 17.871094 7.355469 17.566406 8.300781 18.128906 C 9.246094 18.691406 9.554688 19.910156 8.988281 20.855469 C 8.820312 21.136719 8.582031 21.375 8.296875 21.542969 C 9.261719 21.011719 10.476562 21.359375 11.011719 22.316406 Z M 11.011719 22.316406 "/>
<path style=" stroke:none;fill-rule:nonzero;fill:rgb(0%,0%,0%);fill-opacity:1;" d="M 11.261719 11.714844 C 11.261719 12.890625 10.863281 13.785156 10.0625 14.394531 C 9.363281 14.929688 8.429688 15.199219 7.269531 15.199219 C 6.117188 15.199219 5.1875 14.910156 4.488281 14.339844 C 3.71875 13.703125 3.335938 12.804688 3.335938 11.632812 C 3.335938 10.40625 3.957031 9.5 5.195312 8.921875 C 4.242188 8.289062 3.765625 7.382812 3.765625 6.210938 C 3.765625 5.175781 4.152344 4.40625 4.933594 3.902344 C 5.570312 3.492188 6.410156 3.285156 7.453125 3.285156 C 8.40625 3.285156 9.1875 3.527344 9.796875 4.007812 C 10.472656 4.550781 10.8125 5.300781 10.8125 6.265625 C 10.8125 7.371094 10.335938 8.253906 9.386719 8.914062 C 10.636719 9.464844 11.261719 10.398438 11.261719 11.714844 Z M 8.839844 6.574219 C 8.839844 5.5625 8.320312 5.054688 7.285156 5.054688 C 6.8125 5.054688 6.433594 5.1875 6.15625 5.453125 C 5.875 5.714844 5.734375 6.085938 5.734375 6.574219 C 5.734375 7.046875 5.882812 7.417969 6.179688 7.695312 C 6.457031 7.964844 6.828125 8.101562 7.285156 8.101562 C 7.730469 8.101562 8.101562 7.964844 8.398438 7.6875 C 8.691406 7.410156 8.839844 7.039062 8.839844 6.574219 Z M 9.207031 11.640625 C 9.207031 11.078125 9.023438 10.636719 8.652344 10.308594 C 8.304688 10 7.855469 9.847656 7.308594 9.847656 C 6.765625 9.847656 6.324219 10.003906 5.976562 10.320312 C 5.601562 10.648438 5.414062 11.089844 5.414062 11.640625 C 5.414062 12.222656 5.597656 12.671875 5.960938 12.988281 C 6.296875 13.289062 6.75 13.4375 7.316406 13.4375 C 7.875 13.4375 8.324219 13.285156 8.660156 12.980469 C 9.023438 12.664062 9.207031 12.214844 9.207031 11.640625 Z M 9.207031 11.640625 "/>
<path style=" stroke:none;fill-rule:nonzero;fill:rgb(0%,0%,0%);fill-opacity:1;" d="M 91.621094 116.558594 L 92.300781 116.558594 L 92.300781 114.210938 L 91.621094 114.210938 Z M 91.621094 116.558594 "/>
<path style=" stroke:none;fill-rule:nonzero;fill:rgb(0%,0%,0%);fill-opacity:1;" d="M 95.691406 117.683594 C 96.226562 116.722656 95.882812 115.511719 94.917969 114.980469 C 93.957031 114.449219 92.742188 114.792969 92.207031 115.753906 C 92.066406 116.007812 91.980469 116.292969 91.960938 116.582031 C 91.886719 115.488281 90.9375 114.660156 89.835938 114.734375 C 88.738281 114.808594 87.910156 115.757812 87.984375 116.851562 C 88.058594 117.949219 89.007812 118.773438 90.109375 118.699219 C 90.394531 118.679688 90.675781 118.597656 90.933594 118.460938 C 89.992188 119.023438 89.683594 120.242188 90.25 121.1875 C 90.8125 122.128906 92.039062 122.433594 92.984375 121.871094 C 93.929688 121.308594 94.238281 120.089844 93.671875 119.144531 C 93.503906 118.863281 93.265625 118.625 92.980469 118.457031 C 93.945312 118.988281 95.160156 118.640625 95.691406 117.683594 Z M 95.691406 117.683594 "/>
<path style=" stroke:none;fill-rule:nonzero;fill:rgb(0%,0%,0%);fill-opacity:1;" d="M 87.738281 128.285156 C 87.738281 127.109375 88.140625 126.214844 88.941406 125.605469 C 89.648438 125.070312 90.582031 124.800781 91.753906 124.800781 C 92.910156 124.800781 93.839844 125.089844 94.546875 125.660156 C 95.316406 126.296875 95.703125 127.195312 95.703125 128.367188 C 95.703125 129.59375 95.082031 130.5 93.832031 131.078125 C 94.792969 131.710938 95.273438 132.617188 95.273438 133.789062 C 95.273438 134.824219 94.882812 135.59375 94.101562 136.097656 C 93.457031 136.507812 92.613281 136.714844 91.5625 136.714844 C 90.609375 136.714844 89.824219 136.472656 89.207031 135.992188 C 88.53125 135.449219 88.191406 134.699219 88.191406 133.734375 C 88.191406 132.628906 88.667969 131.746094 89.625 131.085938 C 88.367188 130.535156 87.738281 129.601562 87.738281 128.285156 Z M 90.171875 133.425781 C 90.171875 134.4375 90.691406 134.945312 91.738281 134.945312 C 92.210938 134.945312 92.589844 134.8125 92.871094 134.546875 C 93.152344 134.285156 93.292969 133.914062 93.292969 133.425781 C 93.292969 132.953125 93.144531 132.582031 92.847656 132.304688 C 92.566406 132.035156 92.195312 131.898438 91.738281 131.898438 C 91.289062 131.898438 90.914062 132.035156 90.617188 132.3125 C 90.320312 132.589844 90.171875 132.960938 90.171875 133.425781 Z M 89.804688 128.359375 C 89.804688 128.921875 89.988281 129.363281 90.359375 129.691406 C 90.707031 130 91.160156 130.152344 91.714844 130.152344 C 92.253906 130.152344 92.703125 129.996094 93.050781 129.679688 C 93.425781 129.351562 93.613281 128.910156 93.613281 128.359375 C 93.613281 127.777344 93.433594 127.328125 93.066406 127.011719 C 92.726562 126.710938 92.273438 126.5625 91.707031 126.5625 C 91.140625 126.5625 90.691406 126.714844 90.351562 127.019531 C 89.984375 127.335938 89.804688 127.785156 89.804688 128.359375 Z M 89.804688 128.359375 "/>
<path style=" stroke:none;fill-rule:nonzero;fill:rgb(0%,0%,0%);fill-opacity:1;" d="M 48.480469 53.820312 L 50.515625 53.820312 L 50.515625 60.867188 L 48.480469 60.867188 Z M 48.480469 53.820312 "/>
<path style=" stroke:none;fill-rule:nonzero;fill:rgb(0%,0%,0%);fill-opacity:1;" d="M 60.695312 50.453125 C 62.300781 53.332031 61.257812 56.960938 58.371094 58.558594 C 55.484375 60.160156 51.84375 59.121094 50.238281 56.242188 C 49.808594 55.476562 49.558594 54.625 49.5 53.75 C 49.277344 57.039062 46.421875 59.519531 43.125 59.296875 C 39.832031 59.074219 37.339844 56.226562 37.566406 52.941406 C 37.789062 49.65625 40.640625 47.175781 43.9375 47.398438 C 44.804688 47.457031 45.644531 47.703125 46.417969 48.121094 C 43.59375 46.429688 42.667969 42.769531 44.363281 39.945312 C 46.058594 37.117188 49.730469 36.195312 52.566406 37.886719 C 55.402344 39.574219 56.328125 43.234375 54.632812 46.0625 C 54.121094 46.914062 53.40625 47.621094 52.558594 48.132812 C 55.449219 46.535156 59.089844 47.574219 60.695312 50.453125 Z M 60.695312 50.453125 "/>
<path style=" stroke:none;fill-rule:nonzero;fill:rgb(0%,0%,0%);fill-opacity:1;" d="M 73.175781 32.773438 L 75.210938 32.773438 L 75.210938 39.820312 L 73.175781 39.820312 Z M 73.175781 32.773438 "/>
<path style=" stroke:none;fill-rule:nonzero;fill:rgb(0%,0%,0%);fill-opacity:1;" d="M 85.390625 29.40625 C 86.996094 32.285156 85.953125 35.914062 83.066406 37.511719 C 80.179688 39.113281 76.539062 38.074219 74.933594 35.195312 C 74.503906 34.429688 74.253906 33.578125 74.195312 32.703125 C 73.972656 35.992188 71.117188 38.472656 67.820312 38.25 C 64.527344 38.027344 62.035156 35.179688 62.261719 31.894531 C 62.484375 28.609375 65.335938 26.128906 68.632812 26.351562 C 69.5 26.410156 70.339844 26.65625 71.113281 27.074219 C 68.289062 25.382812 67.363281 21.722656 69.058594 18.898438 C 70.753906 16.070312 74.425781 15.148438 77.261719 16.839844 C 80.097656 18.527344 81.023438 22.1875 79.328125 25.015625 C 78.816406 25.867188 78.101562 26.574219 77.253906 27.085938 C 80.144531 25.488281 83.785156 26.527344 85.390625 29.40625 Z M 85.390625 29.40625 "/>
<path style=" stroke:none;fill-rule:nonzero;fill:rgb(0%,0%,0%);fill-opacity:1;" d="M 23.785156 74.867188 L 25.820312 74.867188 L 25.820312 81.914062 L 23.785156 81.914062 Z M 23.785156 74.867188 "/>
<path style=" stroke:none;fill-rule:nonzero;fill:rgb(0%,0%,0%);fill-opacity:1;" d="M 36 71.5 C 37.605469 74.375 36.5625 78.007812 33.675781 79.605469 C 30.789062 81.203125 27.148438 80.167969 25.542969 77.289062 C 25.117188 76.523438 24.863281 75.671875 24.804688 74.796875 C 24.582031 78.085938 21.726562 80.566406 18.429688 80.34375 C 15.136719 80.121094 12.644531 77.273438 12.871094 73.988281 C 13.09375 70.703125 15.949219 68.222656 19.242188 68.445312 C 20.109375 68.503906 20.949219 68.75 21.722656 69.167969 C 18.898438 67.476562 17.972656 63.816406 19.667969 60.992188 C 21.363281 58.164062 25.035156 57.242188 27.871094 58.933594 C 30.707031 60.621094 31.632812 64.28125 29.9375 67.109375 C 29.425781 67.960938 28.710938 68.667969 27.863281 69.179688 C 30.753906 67.582031 34.394531 68.621094 36 71.5 Z M 36 71.5 "/>
<path style=" stroke:none;fill-rule:nonzero;fill:rgb(0%,0%,0%);fill-opacity:1;" d="M 23.785156 107.226562 L 25.820312 107.226562 L 25.820312 100.179688 L 23.785156 100.179688 Z M 23.785156 107.226562 "/>
<path style=" stroke:none;fill-rule:nonzero;fill:rgb(0%,0%,0%);fill-opacity:1;" d="M 36 110.59375 C 37.605469 107.714844 36.5625 104.085938 33.675781 102.488281 C 30.789062 100.886719 27.148438 101.925781 25.542969 104.804688 C 25.117188 105.570312 24.863281 106.421875 24.804688 107.296875 C 24.582031 104.007812 21.726562 101.527344 18.429688 101.75 C 15.136719 101.972656 12.644531 104.820312 12.871094 108.105469 C 13.09375 111.386719 15.949219 113.871094 19.242188 113.648438 C 20.109375 113.589844 20.949219 113.34375 21.722656 112.925781 C 18.898438 114.617188 17.972656 118.277344 19.667969 121.101562 C 21.363281 123.929688 25.035156 124.851562 27.871094 123.160156 C 30.707031 121.472656 31.632812 117.8125 29.9375 114.984375 C 29.425781 114.132812 28.710938 113.425781 27.863281 112.914062 C 30.753906 114.511719 34.394531 113.472656 36 110.59375 Z M 36 110.59375 "/>
<path style=" stroke:none;fill-rule:nonzero;fill:rgb(0%,0%,0%);fill-opacity:1;" d="M 73.175781 107.226562 L 75.210938 107.226562 L 75.210938 100.179688 L 73.175781 100.179688 Z M 73.175781 107.226562 "/>
<path style=" stroke:none;fill-rule:nonzero;fill:rgb(0%,0%,0%);fill-opacity:1;" d="M 85.390625 110.59375 C 86.996094 107.714844 85.953125 104.085938 83.066406 102.488281 C 80.179688 100.886719 76.539062 101.925781 74.933594 104.804688 C 74.503906 105.570312 74.253906 106.421875 74.195312 107.296875 C 73.972656 104.007812 71.117188 101.527344 67.820312 101.75 C 64.527344 101.972656 62.035156 104.820312 62.261719 108.105469 C 62.484375 111.386719 65.335938 113.871094 68.632812 113.648438 C 69.5 113.589844 70.339844 113.34375 71.113281 112.925781 C 68.289062 114.617188 67.363281 118.277344 69.058594 121.101562 C 70.753906 123.929688 74.425781 124.851562 77.261719 123.160156 C 80.097656 121.472656 81.023438 117.8125 79.328125 114.984375 C 78.816406 114.132812 78.101562 113.425781 77.253906 112.914062 C 80.144531 114.511719 83.785156 113.472656 85.390625 110.59375 Z M 85.390625 110.59375 "/>
</g>
</svg>
