<svg xmlns="http://www.w3.org/2000/svg" width="99" height="140"><path d="M9.298 719.743h215.404c4.93 0 8.92 4.005 8.92 8.938v314.362c0 4.934-3.99 8.938-8.92 8.938H9.298c-4.93 0-8.92-4.004-8.92-8.938V728.681c0-4.933 3.99-8.938 8.92-8.938Zm0 0" style="fill-rule:nonzero;fill:#fff;fill-opacity:1;stroke-width:.756;stroke-linecap:butt;stroke-linejoin:miter;stroke:gray;stroke-opacity:1;stroke-miterlimit:4" transform="matrix(.42308 0 0 .42042 0 -302.435)"/><path d="M73.176 74.867h2.035v7.047h-2.035Zm0 0" style="stroke:none;fill-rule:nonzero;fill:#000;fill-opacity:1"/><path d="M85.39 71.5c1.606 2.875.563 6.508-2.324 8.105-2.886 1.598-6.527.563-8.132-2.316a5.894 5.894 0 0 1-.739-2.492c-.222 3.289-3.078 5.77-6.375 5.547-3.293-.223-5.785-3.07-5.558-6.356.222-3.285 3.074-5.765 6.37-5.543a6.063 6.063 0 0 1 2.481.723c-2.824-1.691-3.75-5.352-2.054-8.176a5.99 5.99 0 0 1 8.203-2.058 5.95 5.95 0 0 1 2.066 8.175 6.08 6.08 0 0 1-2.074 2.07c2.89-1.597 6.531-.558 8.137 2.321ZM23.785 32.773h2.035v7.047h-2.035Zm0 0" style="stroke:none;fill-rule:nonzero;fill:#000;fill-opacity:1"/><path d="M36 29.406a5.95 5.95 0 0 1-2.324 8.106 5.989 5.989 0 0 1-8.133-2.317 5.95 5.95 0 0 1-.738-2.492c-.223 3.29-3.078 5.77-6.375 5.547-3.293-.223-5.785-3.07-5.559-6.355.223-3.286 3.078-5.766 6.371-5.543a6.063 6.063 0 0 1 2.48.722c-2.824-1.691-3.75-5.351-2.054-8.176a5.99 5.99 0 0 1 8.203-2.058 5.95 5.95 0 0 1 2.067 8.176 6.08 6.08 0 0 1-2.075 2.07c2.89-1.598 6.532-.559 8.137 2.32ZM6.938 23.441h.68v2.348h-.68Zm0 0" style="stroke:none;fill-rule:nonzero;fill:#000;fill-opacity:1"/><path d="M11.012 22.316c.535.961.187 2.172-.774 2.704a2.002 2.002 0 0 1-2.715-.774 1.997 1.997 0 0 1-.246-.828 1.99 1.99 0 0 1-2.12 1.848A1.99 1.99 0 0 1 3.3 23.148a1.99 1.99 0 0 1 2.125-1.847c.289.02.57.101.824.238a1.988 1.988 0 0 1-.684-2.727 1.998 1.998 0 0 1 2.735-.683 1.982 1.982 0 0 1-.004 3.414 2.005 2.005 0 0 1 2.715.773ZM91.621 116.559h.68v-2.348h-.68Zm0 0" style="stroke:none;fill-rule:nonzero;fill:#000;fill-opacity:1"/><path d="M95.691 117.684a1.981 1.981 0 0 0-.773-2.704 1.998 1.998 0 0 0-2.711.774c-.14.254-.227.539-.246.828a1.99 1.99 0 0 0-2.125-1.848 1.988 1.988 0 1 0 .273 3.965c.286-.02.567-.101.825-.238a1.985 1.985 0 0 0-.684 2.727 1.997 1.997 0 0 0 2.734.683 1.982 1.982 0 0 0-.004-3.414 2 2 0 0 0 2.711-.773ZM73.176 32.773h2.035v7.047h-2.035Zm0 0" style="stroke:none;fill-rule:nonzero;fill:#000;fill-opacity:1"/><path d="M85.39 29.406a5.95 5.95 0 0 1-2.324 8.106 5.989 5.989 0 0 1-8.132-2.317 5.894 5.894 0 0 1-.739-2.492c-.222 3.29-3.078 5.77-6.375 5.547-3.293-.223-5.785-3.07-5.558-6.355.222-3.286 3.074-5.766 6.37-5.543a6.063 6.063 0 0 1 2.481.722c-2.824-1.691-3.75-5.351-2.054-8.176a5.99 5.99 0 0 1 8.203-2.058 5.95 5.95 0 0 1 2.066 8.176 6.08 6.08 0 0 1-2.074 2.07c2.89-1.598 6.531-.559 8.137 2.32ZM23.785 74.867h2.035v7.047h-2.035Zm0 0" style="stroke:none;fill-rule:nonzero;fill:#000;fill-opacity:1"/><path d="M36 71.5c1.605 2.875.563 6.508-2.324 8.105-2.887 1.598-6.528.563-8.133-2.316a5.95 5.95 0 0 1-.738-2.492c-.223 3.289-3.078 5.77-6.375 5.547-3.293-.223-5.785-3.07-5.559-6.356.223-3.285 3.078-5.765 6.371-5.543a6.063 6.063 0 0 1 2.48.723c-2.824-1.691-3.75-5.352-2.054-8.176a5.99 5.99 0 0 1 8.203-2.058 5.95 5.95 0 0 1 2.067 8.175 6.08 6.08 0 0 1-2.075 2.07c2.89-1.597 6.532-.558 8.137 2.321ZM23.785 107.227h2.035v-7.047h-2.035Zm0 0" style="stroke:none;fill-rule:nonzero;fill:#000;fill-opacity:1"/><path d="M36 110.594a5.95 5.95 0 0 0-2.324-8.106 5.989 5.989 0 0 0-8.133 2.317 5.95 5.95 0 0 0-.738 2.492c-.223-3.29-3.078-5.77-6.375-5.547-3.293.223-5.785 3.07-5.559 6.352.223 3.285 3.078 5.77 6.371 5.546a6.063 6.063 0 0 0 2.48-.722c-2.824 1.691-3.75 5.351-2.054 8.176a5.99 5.99 0 0 0 8.203 2.058 5.95 5.95 0 0 0 2.067-8.176 6.08 6.08 0 0 0-2.075-2.07c2.89 1.598 6.532.559 8.137-2.32ZM73.176 107.227h2.035v-7.047h-2.035Zm0 0" style="stroke:none;fill-rule:nonzero;fill:#000;fill-opacity:1"/><path d="M85.39 110.594a5.95 5.95 0 0 0-2.324-8.106 5.989 5.989 0 0 0-8.132 2.317 5.894 5.894 0 0 0-.739 2.492c-.222-3.29-3.078-5.77-6.375-5.547-3.293.223-5.785 3.07-5.558 6.352.222 3.285 3.074 5.77 6.37 5.546a6.063 6.063 0 0 0 2.481-.722c-2.824 1.691-3.75 5.351-2.054 8.176a5.99 5.99 0 0 0 8.203 2.058 5.95 5.95 0 0 0 2.066-8.176 6.08 6.08 0 0 0-2.074-2.07c2.89 1.598 6.531.559 8.137-2.32ZM11.262 11.3c0 1.204-.344 2.153-1.032 2.852-.687.7-1.62 1.047-2.808 1.047-2.75 0-4.125-1.926-4.125-5.781 0-1.7.297-3.078.89-4.133.735-1.332 1.88-2 3.43-2 .895 0 1.64.188 2.235.563.71.441 1.066 1.093 1.066 1.949 0 .187-.133.281-.395.281H9.34c-.156 0-.285-.09-.395-.266-.152-.265-.277-.437-.367-.511-.219-.18-.539-.27-.96-.27-.712 0-1.266.336-1.661 1.008-.309.543-.484 1.207-.52 1.996.625-.504 1.372-.754 2.243-.754 1.105 0 1.988.395 2.644 1.188.625.746.938 1.691.938 2.832Zm-2.09-.046c0-.617-.152-1.129-.457-1.527-.336-.446-.8-.668-1.395-.668-.59 0-1.047.222-1.379.668-.3.398-.449.91-.449 1.527 0 .59.156 1.09.473 1.5.344.45.797.676 1.363.676.578 0 1.035-.223 1.379-.668.309-.407.465-.91.465-1.508ZM87.738 128.7c0-1.204.344-2.153 1.032-2.852.687-.7 1.62-1.047 2.808-1.047 2.75 0 4.125 1.926 4.125 5.781 0 1.7-.297 3.078-.89 4.133-.735 1.332-1.88 2-3.43 2-.895 0-1.64-.188-2.235-.563-.71-.441-1.066-1.093-1.066-1.949 0-.187.133-.281.395-.281h1.183c.156 0 .285.09.395.266.152.265.277.437.367.511.219.18.539.27.96.27.712 0 1.266-.336 1.661-1.008.309-.543.484-1.207.52-1.996-.626.504-1.372.754-2.243.754-1.105 0-1.988-.395-2.644-1.188-.625-.746-.938-1.691-.938-2.832Zm2.09.046c0 .617.152 1.129.457 1.527.336.446.8.668 1.395.668.59 0 1.047-.222 1.379-.668.3-.398.449-.91.449-1.527 0-.59-.156-1.09-.473-1.5a1.633 1.633 0 0 0-1.363-.676c-.578 0-1.035.223-1.379.668-.309.407-.465.91-.465 1.508Zm0 0" style="stroke:none;fill-rule:nonzero;fill:#000;fill-opacity:1"/></svg>