<?xml version="1.0" encoding="UTF-8"?>
<svg xmlns="http://www.w3.org/2000/svg" xmlns:xlink="http://www.w3.org/1999/xlink" width="99px" height="140px" viewBox="0 0 99 140" version="1.1">
<g id="surface1">
<path style="fill-rule:nonzero;fill:rgb(100%,100%,100%);fill-opacity:1;stroke-width:0.756;stroke-linecap:butt;stroke-linejoin:miter;stroke:rgb(50.196078%,50.196078%,50.196078%);stroke-opacity:1;stroke-miterlimit:4;" d="M 9.297538 719.743173 L 224.702368 719.743173 C 229.632765 719.743173 233.621402 723.747721 233.621402 728.681399 L 233.621402 1043.043061 C 233.621402 1047.976739 229.632765 1051.981287 224.702368 1051.981287 L 9.297538 1051.981287 C 4.36714 1051.981287 0.378504 1047.976739 0.378504 1043.043061 L 0.378504 728.681399 C 0.378504 723.747721 4.36714 719.743173 9.297538 719.743173 Z M 9.297538 719.743173 " transform="matrix(0.423077,0,0,0.42042,0.0000199974,-302.434571)"/>
<path style=" stroke:none;fill-rule:nonzero;fill:rgb(0%,0%,0%);fill-opacity:1;" d="M 23.785156 32.773438 L 25.820312 32.773438 L 25.820312 39.820312 L 23.785156 39.820312 Z M 23.785156 32.773438 "/>
<path style=" stroke:none;fill-rule:nonzero;fill:rgb(0%,0%,0%);fill-opacity:1;" d="M 36 29.40625 C 37.605469 32.285156 36.5625 35.914062 33.675781 37.511719 C 30.789062 39.113281 27.148438 38.074219 25.542969 35.195312 C 25.117188 34.429688 24.863281 33.578125 24.804688 32.703125 C 24.582031 35.992188 21.726562 38.472656 18.429688 38.25 C 15.136719 38.027344 12.644531 35.179688 12.871094 31.894531 C 13.09375 28.609375 15.949219 26.128906 19.242188 26.351562 C 20.109375 26.410156 20.949219 26.65625 21.722656 27.074219 C 18.898438 25.382812 17.972656 21.722656 19.667969 18.898438 C 21.363281 16.070312 25.035156 15.148438 27.871094 16.839844 C 30.707031 18.527344 31.632812 22.1875 29.9375 25.015625 C 29.425781 25.867188 28.710938 26.574219 27.863281 27.085938 C 30.753906 25.488281 34.394531 26.527344 36 29.40625 Z M 36 29.40625 "/>
<path style=" stroke:none;fill-rule:nonzero;fill:rgb(0%,0%,0%);fill-opacity:1;" d="M 6.9375 23.441406 L 7.617188 23.441406 L 7.617188 25.789062 L 6.9375 25.789062 Z M 6.9375 23.441406 "/>
<path style=" stroke:none;fill-rule:nonzero;fill:rgb(0%,0%,0%);fill-opacity:1;" d="M 11.011719 22.316406 C 11.546875 23.277344 11.199219 24.488281 10.238281 25.019531 C 9.273438 25.550781 8.058594 25.207031 7.523438 24.246094 C 7.382812 23.992188 7.296875 23.707031 7.277344 23.417969 C 7.203125 24.511719 6.253906 25.339844 5.15625 25.265625 C 4.054688 25.191406 3.226562 24.242188 3.300781 23.148438 C 3.375 22.050781 4.328125 21.226562 5.425781 21.300781 C 5.714844 21.320312 5.996094 21.402344 6.25 21.539062 C 5.308594 20.976562 5.003906 19.757812 5.566406 18.8125 C 6.132812 17.871094 7.355469 17.566406 8.300781 18.128906 C 9.246094 18.691406 9.554688 19.910156 8.988281 20.855469 C 8.820312 21.136719 8.582031 21.375 8.296875 21.542969 C 9.261719 21.011719 10.476562 21.359375 11.011719 22.316406 Z M 11.011719 22.316406 "/>
<path style=" stroke:none;fill-rule:nonzero;fill:rgb(0%,0%,0%);fill-opacity:1;" d="M 91.621094 116.558594 L 92.300781 116.558594 L 92.300781 114.210938 L 91.621094 114.210938 Z M 91.621094 116.558594 "/>
<path style=" stroke:none;fill-rule:nonzero;fill:rgb(0%,0%,0%);fill-opacity:1;" d="M 95.691406 117.683594 C 96.226562 116.722656 95.882812 115.511719 94.917969 114.980469 C 93.957031 114.449219 92.742188 114.792969 92.207031 115.753906 C 92.066406 116.007812 91.980469 116.292969 91.960938 116.582031 C 91.886719 115.488281 90.9375 114.660156 89.835938 114.734375 C 88.738281 114.808594 87.910156 115.757812 87.984375 116.851562 C 88.058594 117.949219 89.007812 118.773438 90.109375 118.699219 C 90.394531 118.679688 90.675781 118.597656 90.933594 118.460938 C 89.992188 119.023438 89.683594 120.242188 90.25 121.1875 C 90.8125 122.128906 92.039062 122.433594 92.984375 121.871094 C 93.929688 121.308594 94.238281 120.089844 93.671875 119.144531 C 93.5 118.863281 93.265625 118.625 92.980469 118.457031 C 93.945312 118.988281 95.160156 118.640625 95.691406 117.683594 Z M 95.691406 117.683594 "/>
<path style=" stroke:none;fill-rule:nonzero;fill:rgb(0%,0%,0%);fill-opacity:1;" d="M 73.175781 32.773438 L 75.210938 32.773438 L 75.210938 39.820312 L 73.175781 39.820312 Z M 73.175781 32.773438 "/>
<path style=" stroke:none;fill-rule:nonzero;fill:rgb(0%,0%,0%);fill-opacity:1;" d="M 85.390625 29.40625 C 86.996094 32.285156 85.953125 35.914062 83.066406 37.511719 C 80.179688 39.113281 76.539062 38.074219 74.933594 35.195312 C 74.503906 34.429688 74.253906 33.578125 74.195312 32.703125 C 73.972656 35.992188 71.117188 38.472656 67.820312 38.25 C 64.527344 38.027344 62.035156 35.179688 62.261719 31.894531 C 62.484375 28.609375 65.335938 26.128906 68.632812 26.351562 C 69.5 26.410156 70.339844 26.65625 71.113281 27.074219 C 68.289062 25.382812 67.363281 21.722656 69.058594 18.898438 C 70.753906 16.070312 74.425781 15.148438 77.261719 16.839844 C 80.097656 18.527344 81.023438 22.1875 79.328125 25.015625 C 78.816406 25.867188 78.101562 26.574219 77.253906 27.085938 C 80.144531 25.488281 83.785156 26.527344 85.390625 29.40625 Z M 85.390625 29.40625 "/>
<path style=" stroke:none;fill-rule:nonzero;fill:rgb(0%,0%,0%);fill-opacity:1;" d="M 23.785156 107.226562 L 25.820312 107.226562 L 25.820312 100.179688 L 23.785156 100.179688 Z M 23.785156 107.226562 "/>
<path style=" stroke:none;fill-rule:nonzero;fill:rgb(0%,0%,0%);fill-opacity:1;" d="M 36 110.59375 C 37.605469 107.714844 36.5625 104.085938 33.675781 102.488281 C 30.789062 100.886719 27.148438 101.925781 25.542969 104.804688 C 25.117188 105.570312 24.863281 106.421875 24.804688 107.296875 C 24.582031 104.007812 21.726562 101.527344 18.429688 101.75 C 15.136719 101.972656 12.644531 104.820312 12.871094 108.101562 C 13.09375 111.386719 15.949219 113.871094 19.242188 113.648438 C 20.109375 113.589844 20.949219 113.34375 21.722656 112.925781 C 18.898438 114.617188 17.972656 118.277344 19.667969 121.101562 C 21.363281 123.929688 25.035156 124.851562 27.871094 123.160156 C 30.707031 121.472656 31.632812 117.8125 29.9375 114.984375 C 29.425781 114.132812 28.710938 113.425781 27.863281 112.914062 C 30.753906 114.511719 34.394531 113.472656 36 110.59375 Z M 36 110.59375 "/>
<path style=" stroke:none;fill-rule:nonzero;fill:rgb(0%,0%,0%);fill-opacity:1;" d="M 73.175781 107.226562 L 75.210938 107.226562 L 75.210938 100.179688 L 73.175781 100.179688 Z M 73.175781 107.226562 "/>
<path style=" stroke:none;fill-rule:nonzero;fill:rgb(0%,0%,0%);fill-opacity:1;" d="M 85.390625 110.59375 C 86.996094 107.714844 85.953125 104.085938 83.066406 102.488281 C 80.179688 100.886719 76.539062 101.925781 74.933594 104.804688 C 74.503906 105.570312 74.253906 106.421875 74.195312 107.296875 C 73.972656 104.007812 71.117188 101.527344 67.820312 101.75 C 64.527344 101.972656 62.035156 104.820312 62.261719 108.101562 C 62.484375 111.386719 65.335938 113.871094 68.632812 113.648438 C 69.5 113.589844 70.339844 113.34375 71.113281 112.925781 C 68.289062 114.617188 67.363281 118.277344 69.058594 121.101562 C 70.753906 123.929688 74.425781 124.851562 77.261719 123.160156 C 80.097656 121.472656 81.023438 117.8125 79.328125 114.984375 C 78.816406 114.132812 78.101562 113.425781 77.253906 112.914062 C 80.144531 114.511719 83.785156 113.472656 85.390625 110.59375 Z M 85.390625 110.59375 "/>
<path style=" stroke:none;fill-rule:nonzero;fill:rgb(0%,0%,0%);fill-opacity:1;" d="M 11.261719 14.777344 C 11.261719 14.894531 11.242188 15.007812 11.203125 15.117188 C 11.117188 15.171875 11.023438 15.199219 10.925781 15.199219 L 6.242188 15.199219 C 5.882812 15.199219 5.703125 14.992188 5.703125 14.578125 C 5.703125 14.511719 5.707031 14.398438 5.71875 14.230469 C 5.726562 14.066406 5.734375 13.941406 5.734375 13.851562 C 5.734375 13.660156 5.769531 13.535156 5.84375 13.480469 C 5.894531 13.441406 6.015625 13.421875 6.199219 13.421875 L 8.023438 13.421875 L 8.023438 12.152344 L 3.929688 12.152344 C 3.507812 12.152344 3.296875 11.925781 3.296875 11.480469 C 3.296875 11.402344 3.304688 11.265625 3.316406 11.058594 C 3.332031 10.851562 3.339844 10.683594 3.339844 10.5625 C 3.339844 10.378906 3.433594 10.144531 3.625 9.863281 L 7.839844 3.582031 C 7.972656 3.386719 8.136719 3.285156 8.335938 3.285156 L 9.300781 3.285156 C 9.527344 3.285156 9.644531 3.429688 9.644531 3.714844 L 9.644531 10.457031 C 9.816406 10.457031 10.015625 10.453125 10.242188 10.441406 C 10.46875 10.429688 10.617188 10.421875 10.679688 10.421875 C 10.941406 10.421875 11.105469 10.5 11.167969 10.648438 C 11.230469 10.789062 11.261719 11.148438 11.261719 11.722656 C 11.261719 11.824219 11.253906 11.90625 11.242188 11.960938 C 11.210938 12.085938 11.097656 12.152344 10.90625 12.152344 L 9.644531 12.152344 L 9.644531 13.421875 C 9.824219 13.421875 10.027344 13.417969 10.253906 13.40625 C 10.484375 13.394531 10.628906 13.390625 10.6875 13.390625 C 10.964844 13.390625 11.132812 13.46875 11.1875 13.628906 C 11.238281 13.761719 11.261719 14.144531 11.261719 14.777344 Z M 8.050781 5.9375 C 7.785156 6.402344 6.796875 7.90625 5.089844 10.457031 L 8.023438 10.457031 C 8.023438 10.164062 8.019531 9.664062 8.007812 8.953125 C 7.996094 8.308594 7.988281 7.804688 7.996094 7.441406 C 8 6.890625 8.019531 6.390625 8.050781 5.9375 Z M 8.050781 5.9375 "/>
<path style=" stroke:none;fill-rule:nonzero;fill:rgb(0%,0%,0%);fill-opacity:1;" d="M 87.738281 125.222656 C 87.738281 125.105469 87.757812 124.992188 87.796875 124.882812 C 87.882812 124.828125 87.976562 124.800781 88.074219 124.800781 L 92.757812 124.800781 C 93.117188 124.800781 93.296875 125.007812 93.296875 125.421875 C 93.296875 125.488281 93.292969 125.601562 93.28125 125.769531 C 93.273438 125.933594 93.265625 126.058594 93.265625 126.148438 C 93.265625 126.339844 93.230469 126.464844 93.15625 126.519531 C 93.105469 126.558594 92.984375 126.578125 92.800781 126.578125 L 90.976562 126.578125 L 90.976562 127.847656 L 95.070312 127.847656 C 95.492188 127.847656 95.703125 128.074219 95.703125 128.519531 C 95.703125 128.597656 95.695312 128.734375 95.683594 128.941406 C 95.667969 129.148438 95.660156 129.316406 95.660156 129.4375 C 95.660156 129.621094 95.566406 129.855469 95.375 130.136719 L 91.160156 136.417969 C 91.027344 136.613281 90.863281 136.714844 90.664062 136.714844 L 89.699219 136.714844 C 89.472656 136.714844 89.355469 136.570312 89.355469 136.285156 L 89.355469 129.542969 C 89.183594 129.542969 88.984375 129.546875 88.757812 129.558594 C 88.53125 129.570312 88.382812 129.578125 88.320312 129.578125 C 88.058594 129.578125 87.894531 129.5 87.832031 129.351562 C 87.769531 129.210938 87.738281 128.851562 87.738281 128.277344 C 87.738281 128.175781 87.746094 128.09375 87.757812 128.039062 C 87.789062 127.914062 87.902344 127.847656 88.09375 127.847656 L 89.355469 127.847656 L 89.355469 126.578125 C 89.175781 126.578125 88.972656 126.582031 88.746094 126.59375 C 88.515625 126.605469 88.371094 126.609375 88.3125 126.609375 C 88.035156 126.609375 87.867188 126.53125 87.8125 126.371094 C 87.761719 126.238281 87.738281 125.855469 87.738281 125.222656 Z M 90.949219 134.0625 C 91.214844 133.601562 92.203125 132.09375 93.910156 129.542969 L 90.976562 129.542969 C 90.976562 129.835938 90.980469 130.335938 90.992188 131.046875 C 91.003906 131.691406 91.011719 132.195312 91.003906 132.558594 C 91 133.109375 90.980469 133.609375 90.949219 134.0625 Z M 90.949219 134.0625 "/>
</g>
</svg>
