<svg xmlns="http://www.w3.org/2000/svg" width="99" height="140"><path d="M9.298 719.743h215.404c4.93 0 8.92 4.005 8.92 8.938v314.362c0 4.934-3.99 8.938-8.92 8.938H9.298c-4.93 0-8.92-4.004-8.92-8.938V728.681c0-4.933 3.99-8.938 8.92-8.938Zm0 0" style="fill-rule:nonzero;fill:#fff;fill-opacity:1;stroke-width:.756;stroke-linecap:butt;stroke-linejoin:miter;stroke:gray;stroke-opacity:1;stroke-miterlimit:4" transform="matrix(.42308 0 0 .42042 0 -302.435)"/><path d="M23.785 32.773h2.035v7.047h-2.035Zm0 0" style="stroke:none;fill-rule:nonzero;fill:#000;fill-opacity:1"/><path d="M36 29.406a5.95 5.95 0 0 1-2.324 8.106 5.989 5.989 0 0 1-8.133-2.317 5.95 5.95 0 0 1-.738-2.492c-.223 3.29-3.078 5.77-6.375 5.547-3.293-.223-5.785-3.07-5.559-6.355.223-3.286 3.078-5.766 6.371-5.543a6.063 6.063 0 0 1 2.48.722c-2.824-1.691-3.75-5.351-2.054-8.176a5.99 5.99 0 0 1 8.203-2.058 5.95 5.95 0 0 1 2.067 8.176 6.08 6.08 0 0 1-2.075 2.07c2.89-1.598 6.532-.559 8.137 2.32ZM6.938 23.441h.68v2.348h-.68Zm0 0" style="stroke:none;fill-rule:nonzero;fill:#000;fill-opacity:1"/><path d="M11.012 22.316c.535.961.187 2.172-.774 2.704a2.002 2.002 0 0 1-2.715-.774 1.997 1.997 0 0 1-.246-.828 1.99 1.99 0 0 1-2.12 1.848A1.99 1.99 0 0 1 3.3 23.148a1.99 1.99 0 0 1 2.125-1.847c.289.02.57.101.824.238a1.988 1.988 0 0 1-.684-2.727 1.998 1.998 0 0 1 2.735-.683 1.982 1.982 0 0 1-.004 3.414 2.005 2.005 0 0 1 2.715.773ZM91.621 116.559h.68v-2.348h-.68Zm0 0" style="stroke:none;fill-rule:nonzero;fill:#000;fill-opacity:1"/><path d="M95.691 117.684a1.981 1.981 0 0 0-.773-2.704 1.998 1.998 0 0 0-2.711.774c-.14.254-.227.539-.246.828a1.99 1.99 0 0 0-2.125-1.848 1.988 1.988 0 1 0 .273 3.965c.286-.02.567-.101.825-.238a1.985 1.985 0 0 0-.684 2.727 1.997 1.997 0 0 0 2.734.683 1.982 1.982 0 0 0-.004-3.414 2 2 0 0 0 2.711-.773ZM48.48 74.867h2.036v7.047H48.48Zm0 0" style="stroke:none;fill-rule:nonzero;fill:#000;fill-opacity:1"/><path d="M60.695 71.5c1.606 2.875.563 6.508-2.324 8.105-2.887 1.598-6.527.563-8.133-2.316a5.894 5.894 0 0 1-.738-2.492c-.223 3.289-3.078 5.77-6.375 5.547-3.293-.223-5.785-3.07-5.559-6.356.223-3.285 3.075-5.765 6.371-5.543a6.063 6.063 0 0 1 2.481.723c-2.824-1.691-3.75-5.352-2.055-8.176a5.99 5.99 0 0 1 8.203-2.058 5.95 5.95 0 0 1 2.067 8.175 6.08 6.08 0 0 1-2.074 2.07c2.89-1.597 6.53-.558 8.136 2.321ZM73.176 32.773h2.035v7.047h-2.035Zm0 0" style="stroke:none;fill-rule:nonzero;fill:#000;fill-opacity:1"/><path d="M85.39 29.406a5.95 5.95 0 0 1-2.324 8.106 5.989 5.989 0 0 1-8.132-2.317 5.894 5.894 0 0 1-.739-2.492c-.222 3.29-3.078 5.77-6.375 5.547-3.293-.223-5.785-3.07-5.558-6.355.222-3.286 3.074-5.766 6.37-5.543a6.063 6.063 0 0 1 2.481.722c-2.824-1.691-3.75-5.351-2.054-8.176a5.99 5.99 0 0 1 8.203-2.058 5.95 5.95 0 0 1 2.066 8.176 6.08 6.08 0 0 1-2.074 2.07c2.89-1.598 6.531-.559 8.137 2.32ZM23.785 107.227h2.035v-7.047h-2.035Zm0 0" style="stroke:none;fill-rule:nonzero;fill:#000;fill-opacity:1"/><path d="M36 110.594a5.95 5.95 0 0 0-2.324-8.106 5.989 5.989 0 0 0-8.133 2.317 5.95 5.95 0 0 0-.738 2.492c-.223-3.29-3.078-5.77-6.375-5.547-3.293.223-5.785 3.07-5.559 6.352.223 3.285 3.078 5.77 6.371 5.546a6.063 6.063 0 0 0 2.48-.722c-2.824 1.691-3.75 5.351-2.054 8.176a5.99 5.99 0 0 0 8.203 2.058 5.95 5.95 0 0 0 2.067-8.176 6.08 6.08 0 0 0-2.075-2.07c2.89 1.598 6.532.559 8.137-2.32ZM73.176 107.227h2.035v-7.047h-2.035Zm0 0" style="stroke:none;fill-rule:nonzero;fill:#000;fill-opacity:1"/><path d="M85.39 110.594a5.95 5.95 0 0 0-2.324-8.106 5.989 5.989 0 0 0-8.132 2.317 5.894 5.894 0 0 0-.739 2.492c-.222-3.29-3.078-5.77-6.375-5.547-3.293.223-5.785 3.07-5.558 6.352.222 3.285 3.074 5.77 6.37 5.546a6.063 6.063 0 0 0 2.481-.722c-2.824 1.691-3.75 5.351-2.054 8.176a5.99 5.99 0 0 0 8.203 2.058 5.95 5.95 0 0 0 2.066-8.176 6.08 6.08 0 0 0-2.074-2.07c2.89 1.598 6.531.559 8.137-2.32ZM11.262 11.18c0 1.23-.371 2.207-1.114 2.933-.738.723-1.722 1.086-2.945 1.086-1.176 0-2.11-.289-2.793-.863-.742-.617-1.113-1.504-1.113-2.66 0-.188.148-.281.441-.281h1.075c.117 0 .222.015.32.05a.516.516 0 0 1 .066.215c.094.617.27 1.063.535 1.332.293.301.746.453 1.36.453.613 0 1.11-.215 1.484-.648.356-.414.535-.93.535-1.55 0-1.532-.633-2.298-1.894-2.298-.461 0-.922.16-1.387.477H4.477c-.125 0-.247-.016-.36-.047a.26.26 0 0 1-.082-.191c0-.778.04-1.762.121-2.946.074-.988.145-1.972.215-2.957h6.152c.145 0 .27.024.387.067.047.109.074.492.074 1.152 0 .11-.007.2-.015.273-.04.176-.2.262-.477.262H6.035c.02.297-.008.75-.074 1.36-.063.601-.09 1.054-.07 1.351.562-.352 1.148-.527 1.761-.527 1.125 0 2.02.382 2.676 1.152.621.723.934 1.66.934 2.805ZM87.738 128.82c0-1.23.371-2.207 1.114-2.933.738-.723 1.722-1.086 2.945-1.086 1.176 0 2.11.289 2.793.863.742.617 1.113 1.504 1.113 2.66 0 .188-.148.281-.441.281h-1.075a.934.934 0 0 1-.32-.05.516.516 0 0 1-.066-.215c-.094-.617-.27-1.063-.535-1.332-.293-.301-.746-.453-1.36-.453-.613 0-1.11.215-1.484.648-.356.414-.535.93-.535 1.55 0 1.532.633 2.298 1.894 2.298.461 0 .922-.16 1.387-.477h1.355c.125 0 .247.016.36.047a.26.26 0 0 1 .082.191c0 .778-.04 1.762-.121 2.946-.074.988-.145 1.972-.215 2.957h-6.152a1.1 1.1 0 0 1-.387-.067c-.047-.109-.074-.492-.074-1.152 0-.11.007-.2.015-.273.04-.176.2-.262.477-.262h4.457c-.02-.297.008-.75.074-1.36.063-.601.09-1.054.07-1.351-.562.352-1.148.527-1.761.527-1.125 0-2.02-.382-2.676-1.152-.621-.723-.934-1.66-.934-2.805Zm0 0" style="stroke:none;fill-rule:nonzero;fill:#000;fill-opacity:1"/></svg>