<?xml version="1.0" encoding="UTF-8"?>
<svg xmlns="http://www.w3.org/2000/svg" xmlns:xlink="http://www.w3.org/1999/xlink" width="99px" height="140px" viewBox="0 0 99 140" version="1.1">
<g id="surface1">
<path style="fill-rule:nonzero;fill:rgb(100%,100%,100%);fill-opacity:1;stroke-width:0.755906;stroke-linecap:butt;stroke-linejoin:miter;stroke:rgb(50.196078%,50.196078%,50.196078%);stroke-opacity:1;stroke-miterlimit:4;" d="M 9.297585 719.743103 L 224.702415 719.743103 C 229.632812 719.743103 233.621449 723.747651 233.621449 728.681329 L 233.621449 1043.042991 C 233.621449 1047.976669 229.632812 1051.981217 224.702415 1051.981217 L 9.297585 1051.981217 C 4.367188 1051.981217 0.378551 1047.976669 0.378551 1043.042991 L 0.378551 728.681329 C 0.378551 723.747651 4.367188 719.743103 9.297585 719.743103 Z M 9.297585 719.743103 " transform="matrix(0.423077,0,0,0.42042,0,-302.434542)"/>
<path style=" stroke:none;fill-rule:nonzero;fill:rgb(0%,0%,0%);fill-opacity:1;" d="M 6.9375 23.441406 L 7.617188 23.441406 L 7.617188 25.789062 L 6.9375 25.789062 Z M 6.9375 23.441406 "/>
<path style=" stroke:none;fill-rule:nonzero;fill:rgb(0%,0%,0%);fill-opacity:1;" d="M 11.011719 22.316406 C 11.546875 23.277344 11.199219 24.488281 10.238281 25.019531 C 9.273438 25.550781 8.058594 25.207031 7.523438 24.246094 C 7.382812 23.992188 7.296875 23.707031 7.277344 23.417969 C 7.203125 24.511719 6.253906 25.339844 5.15625 25.265625 C 4.054688 25.191406 3.226562 24.242188 3.300781 23.148438 C 3.375 22.050781 4.328125 21.226562 5.425781 21.300781 C 5.714844 21.320312 5.996094 21.402344 6.25 21.539062 C 5.308594 20.976562 5.003906 19.757812 5.566406 18.8125 C 6.132812 17.871094 7.355469 17.566406 8.300781 18.128906 C 9.246094 18.691406 9.554688 19.910156 8.988281 20.855469 C 8.820312 21.136719 8.582031 21.375 8.296875 21.542969 C 9.261719 21.011719 10.476562 21.359375 11.011719 22.316406 Z M 11.011719 22.316406 "/>
<path style=" stroke:none;fill-rule:nonzero;fill:rgb(0%,0%,0%);fill-opacity:1;" d="M 91.621094 116.558594 L 92.300781 116.558594 L 92.300781 114.210938 L 91.621094 114.210938 Z M 91.621094 116.558594 "/>
<path style=" stroke:none;fill-rule:nonzero;fill:rgb(0%,0%,0%);fill-opacity:1;" d="M 95.691406 117.683594 C 96.226562 116.722656 95.882812 115.511719 94.917969 114.980469 C 93.957031 114.449219 92.742188 114.792969 92.207031 115.753906 C 92.066406 116.007812 91.980469 116.292969 91.960938 116.582031 C 91.886719 115.488281 90.9375 114.660156 89.835938 114.734375 C 88.738281 114.808594 87.910156 115.757812 87.984375 116.851562 C 88.058594 117.949219 89.007812 118.773438 90.109375 118.699219 C 90.394531 118.679688 90.675781 118.597656 90.933594 118.460938 C 89.992188 119.023438 89.683594 120.242188 90.25 121.1875 C 90.8125 122.128906 92.039062 122.433594 92.984375 121.871094 C 93.929688 121.308594 94.238281 120.089844 93.671875 119.144531 C 93.503906 118.863281 93.265625 118.625 92.980469 118.457031 C 93.945312 118.988281 95.160156 118.640625 95.691406 117.683594 Z M 95.691406 117.683594 "/>
<path style=" stroke:none;fill-rule:nonzero;fill:rgb(0%,0%,0%);fill-opacity:1;" d="M 48.480469 74.867188 L 50.515625 74.867188 L 50.515625 81.914062 L 48.480469 81.914062 Z M 48.480469 74.867188 "/>
<path style=" stroke:none;fill-rule:nonzero;fill:rgb(0%,0%,0%);fill-opacity:1;" d="M 60.695312 71.5 C 62.300781 74.375 61.257812 78.007812 58.371094 79.605469 C 55.484375 81.203125 51.84375 80.167969 50.238281 77.289062 C 49.808594 76.523438 49.558594 75.671875 49.5 74.796875 C 49.277344 78.085938 46.421875 80.566406 43.125 80.34375 C 39.832031 80.121094 37.339844 77.273438 37.566406 73.988281 C 37.789062 70.703125 40.640625 68.222656 43.9375 68.445312 C 44.804688 68.503906 45.644531 68.75 46.417969 69.167969 C 43.59375 67.476562 42.667969 63.816406 44.363281 60.992188 C 46.058594 58.164062 49.730469 57.242188 52.566406 58.933594 C 55.402344 60.621094 56.328125 64.28125 54.632812 67.109375 C 54.121094 67.960938 53.40625 68.667969 52.558594 69.179688 C 55.449219 67.582031 59.089844 68.621094 60.695312 71.5 Z M 60.695312 71.5 "/>
<path style=" stroke:none;fill-rule:nonzero;fill:rgb(0%,0%,0%);fill-opacity:1;" d="M 11.261719 15.199219 L 9.625 15.199219 L 8.980469 12.746094 L 5.605469 12.746094 L 4.933594 15.199219 L 3.296875 15.199219 L 6.484375 3.285156 L 8.082031 3.285156 Z M 8.390625 10.535156 L 7.292969 6.445312 L 6.191406 10.535156 Z M 8.390625 10.535156 "/>
<path style=" stroke:none;fill-rule:nonzero;fill:rgb(0%,0%,0%);fill-opacity:1;" d="M 87.738281 124.800781 L 89.375 124.800781 L 90.019531 127.253906 L 93.394531 127.253906 L 94.066406 124.800781 L 95.703125 124.800781 L 92.515625 136.714844 L 90.917969 136.714844 Z M 90.609375 129.464844 L 91.707031 133.554688 L 92.808594 129.464844 Z M 90.609375 129.464844 "/>
</g>
</svg>
