<svg xmlns="http://www.w3.org/2000/svg" width="99" height="140"><path d="M9.298 719.743h215.404c4.93 0 8.92 4.005 8.92 8.938v314.362c0 4.934-3.99 8.938-8.92 8.938H9.298c-4.93 0-8.92-4.004-8.92-8.938V728.681c0-4.933 3.99-8.938 8.92-8.938Zm0 0" style="fill-rule:nonzero;fill:#fff;fill-opacity:1;stroke-width:.755906;stroke-linecap:butt;stroke-linejoin:miter;stroke:gray;stroke-opacity:1;stroke-miterlimit:4" transform="matrix(.42308 0 0 .42042 0 -302.435)"/><path d="M6.938 23.441h.68v2.348h-.68Zm0 0" style="stroke:none;fill-rule:nonzero;fill:#000;fill-opacity:1"/><path d="M11.012 22.316c.535.961.187 2.172-.774 2.704a2.002 2.002 0 0 1-2.715-.774 1.997 1.997 0 0 1-.246-.828 1.99 1.99 0 0 1-2.12 1.848A1.99 1.99 0 0 1 3.3 23.148a1.99 1.99 0 0 1 2.125-1.847c.289.02.57.101.824.238a1.988 1.988 0 0 1-.684-2.727 1.998 1.998 0 0 1 2.735-.683 1.982 1.982 0 0 1-.004 3.414 2.005 2.005 0 0 1 2.715.773ZM91.621 116.559h.68v-2.348h-.68Zm0 0" style="stroke:none;fill-rule:nonzero;fill:#000;fill-opacity:1"/><path d="M95.691 117.684a1.981 1.981 0 0 0-.773-2.704 1.998 1.998 0 0 0-2.711.774c-.14.254-.227.539-.246.828a1.99 1.99 0 0 0-2.125-1.848 1.988 1.988 0 1 0 .273 3.965c.286-.02.567-.101.825-.238a1.985 1.985 0 0 0-.684 2.727 1.997 1.997 0 0 0 2.734.683 1.982 1.982 0 0 0-.004-3.414 2 2 0 0 0 2.711-.773ZM24.125 31.152h1.36v4.696h-1.36Zm0 0" style="stroke:none;fill-rule:nonzero;fill:#000;fill-opacity:1"/><path d="M32.27 28.906a3.964 3.964 0 0 1-1.551 5.403 3.994 3.994 0 0 1-5.422-1.543 3.953 3.953 0 0 1-.492-1.66 3.981 3.981 0 0 1-4.25 3.695 3.979 3.979 0 0 1-3.707-4.235 3.981 3.981 0 0 1 4.25-3.695c.578.04 1.136.203 1.652.48a3.975 3.975 0 0 1-1.371-5.453 3.998 3.998 0 0 1 5.469-1.37 3.971 3.971 0 0 1-.004 6.831 4.003 4.003 0 0 1 5.426 1.547ZM11.262 15.2H9.598l-.649-1.227c-.539.43-1.14.648-1.8.648-1.09 0-2.004-.547-2.747-1.637-.738-1.097-1.105-2.441-1.105-4.035 0-1.023.168-1.965.504-2.832.34-.867.808-1.554 1.414-2.07.594-.508 1.234-.762 1.918-.762 1.07 0 1.972.559 2.71 1.672.739 1.117 1.11 2.457 1.11 4.027 0 1.465-.324 2.727-.973 3.786ZM9.55 8.972c0-1.008-.23-1.871-.688-2.582-.468-.73-1.043-1.094-1.73-1.094-.711 0-1.293.351-1.746 1.062-.453.704-.676 1.579-.676 2.625 0 1.196.289 2.137.875 2.832.457.543.976.817 1.559.817.332 0 .648-.098.94-.29L6.77 9.86H8.44l.66 1.254c.297-.644.45-1.36.45-2.14ZM87.738 124.8h1.664l.649 1.227c.539-.43 1.14-.648 1.8-.648 1.09 0 2.004.547 2.747 1.637.738 1.097 1.105 2.441 1.105 4.035 0 1.023-.168 1.965-.504 2.832-.34.867-.808 1.554-1.414 2.07-.594.508-1.234.762-1.918.762-1.07 0-1.972-.559-2.71-1.672-.739-1.117-1.11-2.457-1.11-4.027 0-1.465.324-2.727.973-3.786Zm1.711 6.227c0 1.008.23 1.871.688 2.582.468.73 1.043 1.094 1.73 1.094.711 0 1.293-.351 1.746-1.062.453-.703.676-1.578.676-2.625 0-1.196-.289-2.137-.875-2.832-.457-.543-.977-.817-1.559-.817-.332 0-.648.098-.94.29l1.315 2.484H90.56l-.66-1.254a5.062 5.062 0 0 0-.45 2.14ZM73.516 108.848h1.359v-4.696h-1.36Zm0 0" style="stroke:none;fill-rule:nonzero;fill:#000;fill-opacity:1"/><path d="M81.66 111.094a3.967 3.967 0 0 0-1.55-5.403 3.994 3.994 0 0 0-5.422 1.543 3.953 3.953 0 0 0-.493 1.66 3.981 3.981 0 0 0-4.25-3.695 3.979 3.979 0 0 0-3.707 4.235 3.981 3.981 0 0 0 4.25 3.695 4.072 4.072 0 0 0 1.653-.48 3.975 3.975 0 0 0-1.371 5.453 3.998 3.998 0 0 0 5.468 1.37 3.971 3.971 0 0 0-.004-6.831 4.003 4.003 0 0 0 5.426-1.547Zm0 0" style="stroke:none;fill-rule:nonzero;fill:#000;fill-opacity:1"/><path d="M52.922 123.156c.254-3.336.05-6.918.219-9.629-.11-.191.293-.718.316-.718-.238-.403-.32-1.438-.012-2.352 2.387-8.312 6.7-14.777 11.14-20.809 3.583 9.98-7.737 16.961-10.132 25.672-.8 3.02-.687 5.125-.996 7.852Zm-18.8.094-13.419-19.125 2.922-1.305 13.793 20.371ZM51.59 87.887c.117.547.586.843 1.086.593.488-.246.543-.261.238.172-.672.953.684 1.88 1.559 1.063.308-.293.363-.766.082-1.008-.317-.273-.387-.414.082-.207 1.175.441 1.828-1.121.687-1.652-.293-.133-.867-.016-1.082.191-.262.25-.297.16-.226-.031.039-.117.07-.301.168-.524.078-.171.132-.41.132-.41l-1.203.012s.098.25.196.465c.093.199.129.351.171.433.16.301-.03.192-.355-.03-.46-.317-1.035-.231-1.363.183-.121.242-.223.496-.172.75Zm1.765-15.543 2.586-.067 2.832 7.223c-2.285 3.469-2.906 7.387-.261 11.363l-8.203-.004c1.933-5.98 2.242-12.328 3.046-18.515Zm2.688 9.394a.788.788 0 0 0 .078-1.148c-.398-.434-.309-.457.227-.172.77.41 1.507-.473 1.054-1.258-.289-.496-1.222-.605-1.578-.164-.297.367-.265.027-.035-.46.086-.18.207-.516.207-.516l-1.254.02s.16.327.246.538c.227.555.239.73-.113.371-.766-.59-1.664-.164-1.672.684.004.652.649 1.074 1.211.77.344-.184.496-.231.11.195-.266.406-.172.922.18 1.164.48.27.995.254 1.339-.024Zm-17.332 2.219c.102-.066.14-.023.078.07-.055.078-.187.188-.305.305-.586.598.168 1.36 1.114 1.246.64-.082 1.02-1.008.547-1.375-.153-.094-.274-.113-.391-.242-.008-.05.016-.086.074-.066.082.03.254.16.34.18.598.152 1.047-.075 1.2-.462.097-.449.003-.93-.391-1.18a.97.97 0 0 0-1.239.223c-.324.399-.37.02-.101-.531.097-.203.168-.496.168-.496l-1.153.055s.063.226.164.488c.254.598.438.77.11.46-1.406-.765-1.875.274-1.899.684-.047.778 1.184 1.22 1.684.641Zm5.66-11.691 2.078.011c-1.582 7.657-4.808 14.07-10.222 18.48l-10.172-.046-4.895-3.156 1.899-2.258c12.91 1.242 18.421-4.633 21.312-13.031Zm-9.394 17.746c.609-.246.863-.88.46-1.305-.363-.383-.398-.504.16-.203.747.402 1.473-.399 1.106-1.18-.226-.488-.945-.64-1.465-.308-.457.312-.445.171-.207-.32.117-.247.207-.637.207-.637l-1.273.015s.094.278.183.469c.215.441.29.64.192.64-.047 0-.207-.132-.297-.21-.254-.215-.95-.254-1.207-.032-.762.668-.336 1.84.637 1.625.625-.136.77-.355.25.184-.641.668.347 1.629 1.254 1.262Zm-8.04-.242c.528-.23.708-.79.41-1.149-.296-.363-.44-.598.087-.27.703.325 1.316-.105 1.308-.84-.008-.769-.945-1.128-1.637-.667a1.155 1.155 0 0 1-.289.148c-.082.004.07-.414.239-.683.074-.121.203-.36.203-.36l-1.274-.047s.07.32.168.563c.203.5.254.668-.101.383-.957-.825-1.98.222-1.582 1.129.215.507.867.511 1.254.257.351-.25.172.082-.07.344-.657.715.304 1.61 1.285 1.192ZM85.18 70.648l.062 1.418-16.492 12.59-.691-.972Zm-61.266 2.559c2.375-1.55 5.02-4.328 7.625-5.777 1.895 4.023-2.574 7.953-7.625 5.777Zm43.523-.95c-2.37-7.53 8.895-7.01 7.477-5.413ZM13.91 67.255l16.324-12.192.743 1.028L13.75 69.016ZM58.594 55c.047.129.539.617.539.66-.14-.094-.977-.527-1.387-.11-.144.153-.324.52-.305.9.168.683 1.012.921 1.61.456.172-.133.32-.293.355-.238.032.05-.062.285-.14.469-.09.191-.418.59-.18.59h1.16s-.043-.25-.184-.524c-.257-.52-.246-.797.067-.426.605.723 1.789.125 1.664-.742-.086-.629-.773-.988-1.281-.691-.055.035-.219.183-.242.183-.063.004.109-.234.218-.433.375-.66-.18-1.27-1.035-1.203-.273.02-.574.18-.578.203a.816.816 0 0 0-.281.906Zm14.09-6.105c1.629 1.382 3.257 2.394 4.886 3.28l-1.543 2.231c-10.43-.902-18.023 2.875-21.21 13.149l-1.72.304c.657-6.414 3.008-12.765 9.93-18.968Zm-10 1.52c0 .304.605.663.472.75-.062.026-.426-.263-.59-.278-1.203-.121-1.457 1.601-.265 1.797.234.039.722-.094.863-.204.191-.144.324-.261.363-.25.075.024-.093.333-.222.56-.125.21-.293.624-.293.624.476.082.937.098 1.367.008 0 0-.121-.36-.246-.633-.156-.352-.188-.574-.082-.55.047.011.097.12.191.195.594.468 1.465.27 1.695-.461.215-.688-.68-1.395-1.304-1.012-.215.133-.215.035 0-.266.199-.277.152-.695-.028-.941-.652-.64-1.953-.188-1.921.66Zm9.828 2.054c-.035-.157.008-.11.183.058.547.524 1.493.446 1.735-.25.242-.695-.489-1.492-1.13-1.218-.331.14-.34.09-.148-.137.493-.586-.047-1.36-.89-1.352-.766.004-1.223.684-.848 1.27.152.238.102.293-.168.172-.785-.352-1.523.789-.945 1.468.336.399 1.12.446 1.57.047.238-.21.234-.109.063.328-.153.38-.32.688-.32.688l1.363.012s-.364-.637-.465-1.086Zm-29.18 15.328s-2.012-5.172-2.7-7.652c1.505-3.297 3.563-6.489.126-11.239l8.37-.008c-2.593 5.387-2.675 18.993-3.284 19.024Zm.746-6.05s-.414-.524-.437-.946c-.047-.274.027-.29.18-.012.745.758 1.757.027 1.761-.64.086-.618-.691-1.145-1.195-.837-.352.211-.446.153-.133-.25.441-.562-.04-1.292-.828-1.289-1.028.012-1.422.891-.688 1.524.543.465.04.191-.394.023-.84-.324-1.395.461-1.016 1.258.258.547 1.024.692 1.473.25.246-.246.472-.387.34-.02-.07.297-.45.926-.45.926Zm1.313-8.286s-.496-.57-.578-1c-.032-.16.09-.117.37.105.903.711 2.141-.562 1.305-1.34-.289-.269-.582-.347-.922-.187-.418.203-.386.106-.175-.105.308-.305.289-.864-.043-1.133-.914-.754-2.368.363-1.516 1.164.367.351.191.305-.215.082-.77-.426-1.625.734-1.047 1.418.684.535 1.2.273 1.676-.063.102-.05.191-.07.191-.03.004.077-.476 1.105-.476 1.105Zm-10.977-3.238c-.512-.032-.867-4.418-.238-5.809 1.34-5.86 5.414-10.121 7.949-13.707 4.066-5.34 3.578-14.219 3.75-13.863l.574.062s-.453 5.203-.207 7.555c.258 2.07.2 2.2.04 2.402-.044.192.019.758-.028.95-1.82 7.656-6.145 15.519-10.606 21.457Zm41.742-13.309L62.492 17.031l3.293-.265c1.219 1.78 13.09 18.77 13.09 18.77Zm0 0" style="stroke:none;fill-rule:nonzero;fill:#d40000;fill-opacity:1"/><path d="M19.574 123.582c1.57-5.246-2.629-17.465-5.265-19.066 3.093-.114 6.816-.059 6.699-.325 0 0 13.12 19.043 13.012 19.145-.102.094-14.446.246-14.446.246Zm53.38-29.703c-3.188-.422-1.927-2.852.124-3.102-.266.04.223-1.21 1.875-1.71.379-.626.676-1.696 1.02-2.192-.993.297-2.2 1.063-6.7.45.399-1.962 4.704-2.29 6.258-1.985.895.195 1.778 1.426 2.051 1.45 2.766-.419 6.277 1.886 5.211 4.218-.168.332-.586-.395-1.516-.707-3.007-1.008-3.215-2.504-3.906-3.176-.25-.043-1.586 2.375-1.586 2.375l.414 1.645c.723-.063 3.922 1.765-.07 2.992-1.11 3.496-3.184 1.023-3.176-.258Zm7.585-15.602c-.172-.16.137-1.246.543-1.87.219-.34.723-.567 1.02-.516.527.086.445.789-.258 2.855-.031.297-.746.328-1.305-.469ZM17.074 63.715c-.875-.004-.086-2.188.453-2.883.176-.215.875.246.91.563.063.566-.89 2.546-1.363 2.32Zm-.594-14.871c1.067.238 2.75 1.23 3.555 1.773 1 .688.727 2.035 1.527 2.156.54-.242 1.54-2.453 1.54-2.453s.25-1.133-.457-1.484c-1.754-.871-1.72-1.813-1.61-1.895.524-1.238 1.563-1.02 2.121-1.086.012-.68-.008-2.113 1.524-1.964 1.336.12 1.465 1.879.902 1.894-.012-.031 2.531-.332 2.504 1.207-.016.836-1.527 1.903-1.996 1.516 0 0 .25 1.664-2.027 2.23-.536.496-.973 2.614-.973 2.426 1.375-1.137 3.527-1.402 6.918-.988-2.11 3.582-7.914 1.894-8.367 1.199-2.922-.813-5.664-1.875-5.16-4.531ZM41.527 40.3c3.094.261 6.48-.625 9.051-.149.293.035.61.438.785.524 1.328.672 2.719.465 4.864-.278.527-.18 10.332-.093 10.332-.093 2.23 3.035 6.187 8.746 6.277 8.554 0 0-5.438-.066-7.941.067-1.762.094-.727.316-1.95.36-8.582 5.901-10.234 18.683-10.234 18.683s2.723-.653 3.434.039c3.386-9.051 9.789-13.18 18.707-12.356 4.12.383 9.03 4.118 9.03 4.118l-8.831 6.582c-6.828-3.18-9.774 6.152-7.7 6.18l17.786-13.317s.3 1.09.27 1.129c-1.266 1.523-22.473 17.285-22.473 17.285l-.926-.945s-.586.476-.895.793c-.031.52.168.957.594 1.363-4.2 3.086-4.352 8.765-1.262 11.867 0 0-1.375.09-1.515.11-1.746.273-3.532-7.63-.07-11.297-1.739-3.145-2.805-7.422-3.02-7.622.043.504-2.754.332-2.754.332-.223 6.383-.961 12.645-2.64 18.672l12.847.274-5.484 8.719s-6.141-.153-8.782-.325c-2.761-1.48-4.355-.363-6.945.18-3.687.094-9.117-.07-9.117-.023-1.836-3.368-3.809-5.84-6.492-8.727-.34-.523 10.918-.184 10.918-.184s5.64-7.812 6.668-10.023c.804-1.723 2.609-8 2.609-8 .082.328-1.016-1.633-3.59-1.594-2.152 13-18.969 17.352-29.066 8.969l-.094-1.512 22.32-16.582.989 1.051c-.211-.156-13.704 10.125-13.477 10.063 3.988 1.925 8.61.378 8.086-5.926 3.164-2.098 5.969-4.543 8.73-7.04.059-.097 3.059 6.223 2.985 7.438 1.734-.531 2.758.59 2.726.399-.617-3.653 2.887-17.489 2.957-19.079-1.933-.148-4.496-.085-8.511-.238 3.215 5.746 2.086 9.633-2.43 13.164l-.941-1.093c.382.199 6.597-4.727 1.617-12.11-.23.016-2.633-.207-2.633-.207s4.941-7.18 5.191-8.195Zm23.996-23.692s14.067-.285 14.07.094c-.46 6.945 1.286 13.285 5.528 19.152 0 0-6.23-.21-6.117-.14Zm0 0" style="stroke:none;fill-rule:nonzero;fill:#e2cf00;fill-opacity:1"/><path d="m85.984 16.191-73.129-.199.25 107.899 73.04.117Zm-6.687.418c-.008-.004-.965 11.414 5.5 18.903-3.957-.559-6.227-.004-8.531 1.492l.312.297c3.18-1.79 5.867-1.313 8.625-1.028l-.105 14.692c-.02.715-3.22.39-5.243-1.012-.96-.523-2.199-1.621-2.753-2.445a6.587 6.587 0 0 0-.395-.547c-.184-.2-1.336-2.18-3.45-5.926-1.073-1.906-2.491-4.504-3.648-6.52a310.512 310.512 0 0 1-2.23-3.964c-.203-.41-1.715-3.133-2.305-4.121-1.554-2.617-4.062-7.184-4.957-8.817-.195-.425-.5-.62.043-.605.117 0 .238.008.309.023.093.043.21-.148.21-.148ZM14.059 78.285l-.043-1.152L35.3 61.055l.676.8Zm20.59-28.187c-.087.027-.18.058-.282.086-.543-2.239-.226-5.227.422-7.473.945-3.117 2.7-5.617 4.652-8.129 4.47-5.734 6.45-10.059 6.383-17.773l.637.062c-.027 1.219-.207 2.137-.262 3.758-.082 1.734-.05 3.058.145 4.754.097.832.156 1.375.004 1.48-.075.055-.141.344-.075.45-.011.23-.046.695-.046.695-1.028 4.59-6.524 16.355-11.579 22.09Zm2.636 10.445-1.12-1.273s-.868-.645-.087-1.368c2.254-2.093 2.274-4.761.102-7.16-.145-.304.68-1.844.68-1.844l1.714.032c2.664 2.992 3.383 8.27-1.289 11.613Zm1.598-11.855c.054-.204-2.54-.13-2.54-.13 1.614-2.203 2.989-4.468 4.337-6.738 2.093-3.441 5-9.468 5.914-13.836.664 5.114 1.633 12.703 6.39 13.012 1.563.098 3.371-.883 3.664-.719l9.891-.054c2.02 3.78 4.195 6.218 6.77 8.808 1.851.977 4.109 1.75 6.296 2.25 1.239.285 1.36.098 3.81.422.644.086 1.628-.16 1.62-.16-1.96 1.414-4.215 1.008-6.7.398a5.282 5.282 0 0 1-.433-.125l-1.879 2.594c-4.175-.918-17.59-.293-21.148 13.106 0 0 .36.171.277.078 2.828-11.63 14.696-13.93 20.348-12.762l-.488.68c-9.38-1.07-17.032 4.312-18.864 11.96l.18.15c3.543-11.56 18.352-15.813 27.512-7.782l1.687-1.094-.058 1.484-22.594 17.336-.898-.859s-.16.113-.34.25c-.582.445-.813.55-.653.8.164.25.797.81.825.872-3.746 2.797-4.946 8.203-1.399 11.992.399.402.324.512.254.059-3.184-3.196-2.77-8.84 1.211-11.504l.8.965c-1.757 3.53-2.702 9.043 1.903 9.527 1.64 4.062-.266 8.875-2.39 12.098-2.25 3.714-4.977 6.8-6.684 10.847-.828 1.688-2.152 6.7-2.09 10.528l-.496-.004c.004-1.563.121-3.418.137-4.602.082-5.773.07-5.433.21-5.578.047-.05.18-.102.192-.14.02-.063-.102-.18-.148-.32-.047-.145-.133-.403-.121-.614.007-.215.226-.528.183-.598-.984-3.187-1.055-8.914-4.246-11.55-1.566-1.243-3.648-1.294-6.344-.286-5.953 0-5.07.285-9.875.024-1.98-3.348-4.386-6.61-6.992-9.032-1.215-1.25-2.91-1.937-4.5-2.847.64-1.114 1.367-1.93 2.16-2.457.164-.215.278-.446.492-.63 16.2 1.458 19.743-12.96 19-12.597l-.144.113c-4.457 14.856-20.223 14.29-28.133 7.852 0 0-1.121.895-1.125-.09 0-.89.352-1.148.352-1.148L36.293 62c.406.238.84 1.031 1.023.941.41-.199 1.016-.597.996-.84-.011-.183-.808-1.34-.808-1.34 5.96-5.656 3.281-8.187 1.379-12.074Zm8.492-31.813c.105 0 .207.047.281.156.137.196-.406 1.344-.738 1.547-.316.192-.34-.031-.11-1.144.067-.325.333-.559.567-.559Zm32.637.07 5.152.012.004 18.188c-3.84-4.98-5.781-10.711-5.156-18.2Zm-31.254-.004c.129-.003.242.028.277.114.133.304-.625 1.629-1.562 2.726-.485.57-.73.735-.883.598-.125-.258-.121-.563.324-1.035.371-.387 1-1.301 1.258-1.813.113-.297.223-.57.586-.59Zm5.289.075c.152 0 .305 0 .348.062.894 1.688 2.585 3.211 4.32 4.027.25.133.133.465.215.696-1.946-.27-4.496-2.809-5.176-4.66-.004-.133.144-.13.293-.125Zm3.043.004c.387.359.996.796 1.133 1.21.086.254.144.543.086.68-.34.195-2.016-1.601-1.95-1.808a.912.912 0 0 1 .73-.082Zm-7.29-.04c.169.008.419-.003.458.114.207.781-1.742 3.824-3.16 4.683-.504.309-.535.227-.493-.289.028-.343.063-.316.579-.77.742-.648 1.546-1.644 1.992-2.53.57-1.133.433-1.204.625-1.208Zm1.321.016c.184 0 .356.055.402.133.067.101-.02.27-.082.473-.64 1.664-2.238 4.058-4.109 5.414-.727.515-.852.511-.902-.02-.032-.308.125-.398.468-.617 1.586-1.008 3.012-2.758 3.618-4.547.12-.352.074-.664.28-.77a.7.7 0 0 1 .325-.066Zm9.832 2.899c.074.12.617.902.172.605-.18-.137-.512-.484-1.04-1.035-1.245-1.305-1.28-1.223-1.257-1.547.016-.422-.312-1.113.395-.934.699.754 1.132 1.97 1.73 2.91Zm-5.676-2.868c.141-.004.309.024.45.047.816 1.422 2.82 2.672 2.812 2.664 0 0 .05.617-.023.727-.043.191-3.18-2.008-3.528-3.324.032-.082.149-.114.29-.114Zm-2.234.024c.734 1.246 2.25 4.074 5.828 5.222.254.055.527.727.332.91-1.96-.523-5.516-2.296-6.719-6.117.118-.101.434-.086.559-.015Zm-.961.238c-.125.004 1.68 4.813 6.836 6.254.445.129.707.309.68.55-.035.305-.028.345-.524.114-1.406-.68-3.41-1-5.09-.219-.261.121-.527.457-.316.664.121.11.414.032.793-.105 1.953-.695 4.937-.277 5.465.82.37.778.433 1.352.23 1.45-.156.07-.422-.192-.886-.567-1.485-1.2-3.258-1.535-4.672-.39-.305.25-.606.206-.715.308-.102.098.02.324.105.543.09.227.094.289.004.48-.125.266-.129.602-.117.856.035.613.473 1.14 1.742 1.953.988.629 1.762.984.559.086-2.074-1.55-2.453-2.18-1.106-1.64 1.344.495 3.211.003 4.532-.923.449-.003.718-.078.953.082.98 2.125 1.78 4.957 3.086 7.7-1.567 1.62-7.02 5.59-10.899 5.441-3.351-.129-4.527-5.172-5.262-7.96-.246-1.18-.53-2.38-.492-4.044 0 0 .063-.047.149-.031.562.098 1.527.168 2.02.062.89-.187 1.07-.335 1.12-.214.063.144-.308.464-.96.87-.282.176-1.102.54-1.016.594.195.122 1.191-.363 1.355-.492.262-.203.442-.215.563-.105.148.133.176-.008-.305 1.09-.531 1.207-.484 1.316.55 2.062.356.262.684.52.763.633.101.148.168.324.214.379.172.215.067-.13-.039-.68-.117-.406-.55-.812-.859-1.008-.563-.359-.473-.715-.004-1.941 1.383-3.617 1.035-5.234-.48-6.023-.684-.356-2.598-.266-3.2.199-.3.226-.257-.223-.21-.25 3.644-2.293 4.5-4.485 5.433-6.598Zm7.016 1.785c1.03.946 2.312 2.227 3.086 3.137.421.484.644.984.984 1.492.062.094.125.2.082.242-.02.02-.164-.062-.246-.117-.758-.527-3.875-3.8-3.875-3.8-.145-.54-.242-.72-.031-.954Zm.613 2.223s2.703 2.719 4.25 4.058c.305.59.887 1.438.871 1.582-.008.063-.332-.167-.332-.167-1.71-1.457-3.29-3.09-4.93-4.637.016.008-.129-.64-.133-.903.04-.128.204.016.274.067Zm5.86 6.973c.363.543.624 1.03.8 1.351.29.508.192.524-.062.336-1.934-1.46-3.551-3.238-5.375-4.867a27.177 27.177 0 0 1-.707-.723c.015.02-.594-1.172-.207-1.148.296.11.496.41.687.601.957.942 2.773 2.563 4.863 4.45Zm-16.887-3.91c.796-.024 1.586.167 1.98.62.36.41.504 1.06.305 1.247-.125.117-.57-.215-.57-.215-1.88-.973-2.528-.508-3.547-.223-.145.04-.301-.32-.114-.68.375-.59 1.325-.734 1.946-.75Zm11.832.937c2.011 1.855 4.05 3.918 6.222 5.515.305.243.516.395.653.524.289.523.945 1.773.945 1.773-2.328-1.504-7.574-6.683-7.516-6.648.051.023-.437-.945-.304-1.164Zm-3.938.3c.367-.003.77.102 1.086.22 1.016.37 1.652.765.602.632-1.461-.183-1.961-.195-2.496-.117-.993.145-1.07.246-1.157.102-.226-.38.864-.829 1.965-.836Zm-8.293.094c.363 0 .762.075 1.153.23 1.238.5 1.457.825.402.669-.547-.082-1.555-.074-2.274.094-.226.054-.48.175-.539.191-.254.074-.324-.102-.215-.395.192-.507.774-.785 1.473-.789Zm8.969 1.47.254.015c-.32 1.664-2.13 1.5-2.613.07l.257-.004c.95 1.367 1.66.563 2.102-.082Zm1.008.085c.836-.004.777.457-.09.762-.668.238-.742.195-.5-.266.238-.437.21-.492.59-.496Zm-8.61.047c.078 1.5-2.195 1.77-2.328.137l.215-.012c.742 1.289 1.602.512 1.871-.125Zm1.012.207c.258.16.098.383-.465.695-.504.29-.633-.062-.215-.543.176-.156.461-.285.68-.152Zm3.941.004c.098-.027.333.379.133.473-.12.058-.297-.106-.316-.23-.016-.099.05-.204.183-.243Zm6.805.105c1.512 1.54 3.035 3.082 7.492 6.43 0 0 .63 1.035.766 1.438-.106.12-.164.109-.477-.036-2.906-2.07-5.609-4.59-7.726-6.925-.098-.332-.324-.649-.055-.907Zm-14.457.13c.172-.005.414.347.277.562-.109.078-.28-.047-.355-.14-.074-.099-.07-.278-.027-.356.027-.043.062-.067.105-.067ZM62.04 29.89c-.012-.055 7.04 6.539 7.945 6.414.422.23 1.47 2.101 1.47 2.101.026.059.023.168-.145.09-1.196-.543-6.18-4.36-8.727-7.2-.187-.413-.41-.937-.543-1.405Zm-8.398.953c1.23.547.699 1.668-.602.953-1.023-.574-1.836-.629-1.828-.133 0 .211.281.48.55.477.505.03.966.203 1.462.304.777.153 1.355-.035 1.55-.468.332-.735-.449-1.54-.964-1.497-.52.043-.391.27-.168.364Zm9.75 1.812c-.086-.07 3.504 3.563 8.406 6.563.191.203.66 1.25.738 1.39-.02.098-.129.004-.129.004-2.476-1.324-5.742-3.937-8.836-6.906 0 0-.297-.66-.386-1.086.07-.027.14.008.207.035Zm-8.176 1.293c-.113.016-.262.168-.45.262-.374.191-.495.242-1.421-.016-.504-.14-.586-.129-.887.075-.262.18-.406.207-.7.085-.527-.218-.773-.058-1.26.094-.466.156-.626-.031-1.044-.12-.055 0-.082 1.55-.027 1.6.02.016.437-.234.672-.343.406-.188.347-.16.941-.137.871.14 1.738.098 2.324-.113.727-.188 1.297-.152 1.801.227.305.23.711.195.473-.231-.082-.145-.266-.684-.242-.887.035-.297-.04-.488-.16-.496h-.02Zm9.328 1.223c1.652 1.465 3.691 3.695 8.492 6.285.25.406.586.941.8 1.36.02.117-.01.218-.136.18-2.965-1.735-4.613-2.579-8.722-6.313-.254-.38-.524-1.024-.735-1.547.043-.149.235 0 .301.035Zm-.7.558 1.833 3.172-6.188-.02c1.575-.859 3.075-2.003 4.356-3.152Zm-10.257.055c-1.016.371-1.168.445-2.176.219-.59-.133-.426.18-.129.312.762.329 1.864.098 2.274-.16.27-.16.453-.523.03-.37Zm-1.043.977c-1.066.011-2.07.351-2.145.75-.015.074.07.164.239.07.722-.398 2.511-.523 3.863-.074.219.074.258-.051.031-.223-.504-.387-1.261-.531-1.988-.523Zm13.5 1.375c2 1.703 3.93 3.27 8.238 5.55.309.626.754 1.372.836 1.434-4.039-1.809-8.433-5.371-8.433-5.371s-.692-1.137-.848-1.625c-.016-.164.152-.027.207.012Zm1.375 2.652s3.684 2.871 7.883 4.824c.172.153.594 1.075.73 1.172.137.102-.168.102-.469-.043-2.199-.933-6.914-3.926-6.914-3.926-.449-.68-1.097-1.39-1.23-2.027ZM23.262 52.7c.336-.664.683-1.402.906-2.004 1.004.012 1.5-.332 1.855-.75.508-.011.899-.008 1.59-.023-.02-.633.012-1.524.012-1.524.707-.664 1.184-1.43.098-2.605 0 0-.043-.55-.059-1.484-.5-.075-1.625-.028-1.625-.028-.91-1.18-2.523-.883-3.016-.004 0 0-.722.035-1.222.035-.008.25-.098 1.352-.098 1.352s-2.121 1.328.074 2.898l-.03 1.317c.41.027.706.004 1.241.101 0 0-.843 1.793-1.398 2.645-.192.047-.145-.055-.371-.648-.274-.704-.895-1.473-1.422-1.852-.715-.508-1.695-.668-2.379-1.11-.656-.425-1.121-.976-1.332-.874-.066.214-.145 1.441.102 2.23.347 1.297 2.375 2.125 4.066 2.75.133.074.246.191.246.234.004.215-.223.149-.777.098-.84-.078-1.188.133-1.485.793-.09.16-.297.441-.468.625-.172.188-.348.367-.375.445-.024.079-.2.48-.372.813-.109.207-.285.422-.3.726-.04.93-.059 2.18.093 2.965.11.578.903.91 1.176.957.422.075.496.465.43.785-.324 1.583-1.317 2.547-1.633 2.028-.082-.137-.168-.785-.191-.778-.016.008-.168.551-.11.77.059.238.39.414.715.309.485-.16.867-.602 1.168-1.602.125-.41.242-.64.45-.668.382.024.976.75.976.75-1.988 1.516-5.813 4.27-5.813 4.27l-.046-49.801 31.445.11c.168 3.945-.36 7.265-1.91 10.78-1.836 3.786-4.676 6.598-6.852 10.082-2.629 4.204-3.476 8.57-2.594 12.965-2.683 3.215-4.941 4.758-7.086 6.25 0 0-1.601-1.55-2.492-2.422 0 0 .38-.027.817-.042 2.035-.208 4.238-.47 5.09-2.415.124-.214.074-.312-.07-.343-1.595.203-2.977-.008-3.88.05-2.21.141-3.144.844-3.144.844Zm.238 1.434s-2.555-1.121-2.742-1.153c-1.113-.187-3.797-1.48-4.25-2.355-.059-.113-.207-1.71-.254-2.04.02-.1.062-.097.176-.023.285.18 1.398.852 1.808 1.036 1.696.761 2.352 1.3 2.766 2.441.101.29.21.586.273.645.137.136.192.125.364.007.73-.867 1.07-1.586 1.41-2.515.043-.102.137-.207.082-.36-.133-.41-.457-.941-.121-1.34-1.067.044-2.082-.675-1.95-1.39.286-1.324.899-1.086 2.043-1.277-.125-3.067 2.997-2.317 2.985-.18 3.43.27 1.8 3.184-.192 2.734.79 1.66-1.585 2.278-1.918 1.996-.136.536-1.043 2.258-1.238 2.77 2.547-1.652 6.633-.91 7.227-1.016-1.48 2.836-6.309 2.137-6.469 2.02Zm45.79-10.38c.644.458 6.112 3.614 7.124 3.684 0 0 .48.5.879.954.371.425.508.492.55.578.044.086-.14.078-.171.078-2.457-.988-4.961-2.027-7.09-3.668-.285-.223-.348-.328-.492-.496-.188-.23-.742-1.047-.8-1.13Zm1.812 2.54c2.5 1.297 4.625 2.555 6.902 3.234.328.11.492.118.656.223.16.105.856.504 1.02.594 1.039.562 1.144.535.886.629-.285.101-2.113-.391-3.656-.918-2.734-.934-3.703-1.465-4.691-2.29-.223-.21-1.262-1.355-1.117-1.472ZM21.18 53.426c.21-.004.547.117.898.363.375.266 1.297.824 1.68.977l.258.097 2.453 2.57-6.344 4.727s-.516-.484-.68-.644c-.152-.157-.11-.282.086-.457.153-.137.168-.438.14-.586-.038-.223-.03-.47.274-.672a.643.643 0 0 0 .27-.535c-.008-.067.133-.278.344-.418.445-.297.582-.66.433-1.086-.062-.18-.097-.227.156-.383.454-.277.567-.54.602-.945.008-.063-.012-.133-.023-.184-.09-.43.324-.32.664.223.183.293.238.777.328 1.328.11.648.183.824.222.734.22-.523-.035-2.492-.683-2.758-.953-.39-1.746-1.187-1.508-1.5.082-.109.098-.07.676.176.34.145.656.262.703.262.672.023.266-.242.047-.27-.266-.035-1.051-.476-1.14-.629-.153-.257-.067-.386.144-.39Zm-1.621.336c.617-.008.734.148.742.636.004.29.12.512.613 1.09.2.235.332.414.32.508-.023.152-.082-.008-.765-.082-.242-.027-.364-.031-.45.086-.234.32-.73-.016-1.039-.488-.726-1.125-.468-1.742.579-1.75Zm11.796.695 6.727 7.594-.762.539-6.75-7.488Zm-1.125.465.72 1.121s-2.095 1.637-2.641 2.098a9554.779 9554.779 0 0 0-14.473 10.777l-.133-1.508Zm-12.164.183c.13.004.282.157.493.458.187.257.582.78 1.003 1.14.82.695.899.633.231.695-.262.028-.352 0-.512.368-.492.562-1.93-1.45-1.59-2.22.133-.296.243-.444.375-.44Zm2.348 1.09c.121-.008.281.035.469.14.36.138.383.216.32.528-.055.301-.305.38-.793-.02-.37-.32-.308-.636.004-.648Zm10.754.2.789.94-17.996 13.333.008-1.54c.437.056 11.98-9.132 17.199-12.733Zm-13.938.132c.051-.011.125.141.325.418.402.563.773.934 1.199 1.227.402.281.445.433.172.437-.121 0-.281.114-.367.246-.168.27-.184.208-.446.063-.375-.203-.754-.508-.902-.906-.14-.38-.156-.953-.04-1.371.02-.07.04-.11.06-.114Zm2.836 1.07c.457-.015.786.477.485.872-.168.152-.32.222-.656.043-.442-.242-.524-.61-.16-.817a.7.7 0 0 1 .331-.097Zm-2.949 1.055c.098-.004.27.125.559.399.222.21.61.39.765.472.348.18.364.243.176.383-.082.063-.347.067-.418.258-.207.555-1.078-.09-1.16-.883-.043-.402-.047-.625.078-.629Zm2.195.07c.57.024.84.637.383.938-.246.168-.875-.125-.937-.426-.04-.195.336-.52.555-.511Zm13.399.477c.332.004.602.25.602.555 0 .305-.27.555-.602.555-.336-.004-.602-.25-.602-.555 0-.309.27-.555.602-.555Zm-1.797.227c.332 0 .598.25.598.554 0 .305-.27.555-.602.551-.332 0-.601-.246-.601-.55 0-.31.27-.555.605-.555Zm-12.055.719h.114c.55.027.582.511.254.77-.2.155-.375.202-.63.015-.452-.332-.285-.758.262-.785Zm13.391.832c.332 0 .602.25.598.554 0 .305-.27.551-.602.551-.332 0-.601-.246-.601-.555 0-.304.273-.55.605-.55Zm52.82.117.028 1.398-21.282 16.215-.714-.863Zm-54.043.031-1.578 3.242-.469-.836-1.175-.004.363-.965-.691-.777Zm33.414 13.543 2.797-2.059c-1.191-5.582 3.617-7.796 8.176-6.168l2.844-2.218C73 60.137 60.605 62.883 64.44 74.668ZM26.633 63.695c.332 0 .601.25.601.555 0 .305-.27.55-.601.55-.332 0-.602-.245-.602-.554 0-.305.27-.55.602-.55Zm-1.824.133c.332 0 .582.23.582.535a.585.585 0 0 1-.586.575c-.332-.004-.602-.254-.602-.56.004-.304.274-.55.606-.55Zm9.718 1.137-2.777 2.039c.707 5.344-2.125 8.062-8.203 6.219l-2.945 2.14c7.933 5.035 18.343-1.422 13.925-10.398Zm-8.53.469c.331.004.6.25.597.554 0 .305-.27.555-.602.555-.332-.004-.601-.25-.601-.555 0-.304.27-.554.605-.554Zm58.312.234c.332 0 .601.25.601.555 0 .304-.273.554-.605.55-.332 0-.602-.246-.602-.55.004-.309.274-.555.606-.555Zm-59.559.039-1.777 3.219-.442-.973-1.191.016.387-1.125-.743-.578Zm57.176.43.55.851 1.165.032-.442.808.84.797-3.793.852Zm-61.41 2.242c.332 0 .601.246.601.555 0 .304-.273.55-.605.55-.332 0-.602-.25-.598-.554 0-.305.27-.551.602-.551Zm-1.73.058c.331 0 .6.25.6.555 0 .305-.273.551-.605.551-.332 0-.601-.246-.601-.555 0-.304.273-.55.605-.55Zm60.202.426c.336 0 .602.246.602.555 0 .305-.27.55-.602.55-.332 0-.601-.25-.601-.554 0-.305.27-.55.601-.55Zm6.09.094.024 1.23c-5.555 4.489-17.23 13.153-17.23 13.153l-.724-.86s11.88-8.89 17.93-13.523Zm-65.094 1.094c.336 0 .602.25.602.554 0 .305-.27.555-.602.555-.332 0-.601-.25-.601-.555 0-.308.27-.554.601-.554Zm60.235.23c.332 0 .601.25.601.555 0 .305-.27.555-.601.555-.336 0-.602-.25-.602-.559 0-.305.27-.55.602-.55Zm-1.703.098c.332 0 .601.246.601.555 0 .304-.27.554-.605.55-.332 0-.602-.25-.602-.554 0-.305.274-.551.606-.551Zm6.726.207-.055 1.562C79.81 76.348 68.802 84.695 68.84 84.7l-.828-1.054s12.062-9.52 17.23-13.06Zm-66.36-.336-1.663 3.434-.715-.926-1.047-.07.25-.926-.957-.606Zm57.47 1.45 1.058-.184-.187.996.742.718-3.899.782 1.891-3.211Zm5.789 16.753c.789 1.09.738 2.274.406 2.457-.348-.183-.649-.496-1.012-.64-1.812-.723-3.262-1.317-3.52-2.375-.984-2.399 3.47-.348 4.126.558Zm-9.532-6.379 6.118-4.562s.937.445 1.113.644c.062.223-.106.29-.356.496-.113.137-.187.266-.191.555-.008.316.105.457-.035.594-.23-.012-.414.265-.406.488.007.172-.235.36-.38.488-.25.23-.324.278-.488 1.051-.02.078-.011.277-.132.383-.352.027-.61.824-.77.871-.258-.016-.668-.305-.77-.734-.062-.278-.042-.817.028-1.164.086-.414.125-.79.097-.891-.066-.23-.23-.09-.23.234 0 .133-.055.528-.144.899-.094.37-.34.867-.231 1.16.164.437.773.625 1.05.855.72.614.88.91.962 1.043.574.977.578 1.141.43 1.871-.083.422-.532.348-.797.176 0 0-1.72-1.152-2.465-1.722-1.13-.868-1.922-1.75-2.403-2.735Zm2.313 3.145c.656.246 2.36 1.386 2.36 1.386l-1.56 2.97c.282.464.391 1.62.391 1.62 1.969-.132 3.028 2.914-.035 2.63.348 1.882-2.953 3.35-2.86-.024-3.437.242-2.273-3.336-.16-2.66-.058-1.516 1.04-1.711 1.817-2.082.637-.66 1.031-2.157 1.031-2.157l-.156-.457c-.652 1.043-3.426 1.34-6.477.782.832-1.797 3.336-1.743 5.649-2.008Zm-6.067 2.254c-.105.359-.109.355.364.312.238-.023 1.191-.02 1.86.004 1.226.09 3.155.102 4.128-.574.188-.164.29-.153.324-.063.082.438-.863 1.88-.863 1.88l-1.55.784s-.638.028-1.427.008l-.015 1.281c-.617.336-1.68 1.77.02 2.875l-.06 1.399 1.5.027c.997.88 1.805.875 2.72.051l1.73.004-.004-1.508c.856-.629.977-1.7.11-2.555l-.02-1.53-1.332.003s-.274-.195-.281-.351c0-.098.972-1.82 1.16-2.067.242-.32.176-.137.562.602.551 1.058 1.098 1.488 2.5 2.117 1.254.558 1.7.816 2.063 1.137.289.254.457.175.57-.204.242-.843.172-1.687-.332-2.457-1.062-1.628-2.918-1.707-3.21-2.085-.04-.09.339-.192.745-.36.703-.39 1.73-1.574 1.863-2.05-.023-.231.145-.954.266-1.11.14-.285.156-.418.152-1.18-.125-.437-.007-1.004.051-1.199.063-.394-.164-.863-.488-1.437-.121-.532-.094-.391.285-1.59.059-.192.484-1.864-.055-1.977.008.016.055.067.07.094.09.168.141.887.06 1.094-.036.078-.094.289-.137.465-.332 1.34-.524 1.675-.82 1.382-.067-.07-.337-.172-.544-.297-.394-.242-.36-.359-.261-.804.023-.07.18-.684.164-.664-.086.21-.145.757-.41.882-.145.032-.344-.085-.715-.382a7.055 7.055 0 0 0-.446-.309s4.422-3.41 6.067-4.539l-.114 50.602-31.21-.04c-.387-3.132.648-7.28 2.351-11.43 1.055-2.566 2.566-4.468 4.27-6.76 3.27-4.38 5.742-8.825 4.8-14.466-.12-.836-.246-1.238-.203-1.465.399-.68 1.973-2.75 3.121-3.609 1.692-1.266 4.04-3.152 4.227-3.039.559.996 1.219 1.8 2.094 2.406.156.153.16.29-.2.36-2.324-.024-4.718.441-5.5 2.332ZM14.68 73.008c.332 0 .601.25.601.555 0 .304-.27.554-.601.554-.332-.004-.602-.25-.602-.555 0-.308.27-.554.602-.554Zm58.351.219c.332.003.602.25.602.554 0 .305-.27.555-.602.555-.336-.004-.601-.25-.601-.555 0-.304.27-.554.601-.554Zm1.309 1.52c.332 0 .601.25.601.554 0 .304-.27.554-.605.554-.332-.003-.602-.25-.598-.554 0-.309.27-.555.602-.555Zm-1.95.233c.333 0 .602.247.602.555 0 .305-.27.55-.601.55-.332 0-.602-.25-.602-.554 0-.304.27-.55.602-.55Zm-2.152 1.258 1.09-.05c-.137.359-.21.73-.289 1.105l.883.598-3.832.593 1.656-3.12Zm-2.633 9.102-6.44-7.672.78-.578 6.492 7.59Zm-.773-7.445c.332 0 .602.246.602.554 0 .305-.27.551-.602.551-.332 0-.602-.25-.602-.555 0-.304.27-.55.602-.55Zm13.559.878c.523.375 0 .899-.5.692-.434-.168-.403-.574-.059-.735a.54.54 0 0 1 .559.043Zm.695.36c.539.008 1.129 1.18 1.02 1.523-.16.399-.31.41-1.067-.18-.746-.581-.758-.605-.453-.921.168-.176.25-.414.5-.422Zm-12.77.191c.332 0 .602.25.602.555 0 .305-.27.555-.602.555-.336 0-.601-.25-.601-.559 0-.305.27-.55.601-.55Zm-1.867.211c.336 0 .602.246.602.555 0 .305-.27.55-.602.55-.332 0-.601-.25-.601-.554 0-.305.27-.55.601-.55Zm13.215.414c.594.082.75.496.477.801-.371.414-1.204.035-1.004-.457a.564.564 0 0 1 .527-.344Zm1.066.625c.23-.02.582.278.965.77.43.55.465.726.34 1.062-.18.492-.289.582-.676.102-.144-.18-.484-.602-.722-.836-.516-.496-.598-.371-.29-.75.145-.172.243-.336.383-.348Zm-1.398.578c.535.254.586.582.27.817-.372.183-1.028-.04-1.153-.375-.183-.496.383-.746.883-.442Zm.902.73c.301-.019.551.27.918.817.63.934.66 1.246.125 1.864-.386.44-.425.464-.8-.243-.309-.574-.895-1.25-1.434-1.656-.227-.172-.309-.406-.145-.422.047-.004.25-.015.446-.02.293-.007.398-.046.554-.187a.538.538 0 0 1 .336-.152Zm-2.168.723c.282-.011.645.13.914.418.305.297.27.567-.332.622-.27.093-1.007-.352-1.007-.649-.004-.25.18-.379.425-.39Zm1.414 1.086a.08.08 0 0 1 .043 0c.254.008.383.235.668.758.434.805.305 1.239-.445 1.594-.512.242-.902.312-.969.035-.02-.078-.02-.308-.058-.535-.055-.3-.13-.61-.418-1.012-.457-.636-.54-.863-.035-.676.265.102.558.09.863-.058a.974.974 0 0 1 .351-.106Zm-2.554 1.286c-.172-.004-.285.093-.239.359.157.07.41.004.598.066.258.086.414.47.688.407.027-.32-.66-.825-1.047-.832Zm-52.098 5.515c-1.406-.617-4.887-2.05-6.566-2.074-3.11-.805-3.32-.441-4.41-.7 5.777-1.37 9.75 1.286 11.203 2.575.66.605.3.43-.227.2Zm3.656 12.524c3.293 5.277 6.364 11.23 11.516 20.043l-.496.14H19.789c.996-9.722-4.703-19-5.09-18.636 4.465.082 8.172-.704 8.957-2.215l-.636-.168c-2.602 2.054-6.368 2.144-8.961 1.504.066-5.07-.235-10.422-.051-15.489 3.07-.203 5.469.836 7.164 2.899 2.855 3.472 4.789 7.883 7.312 11.922ZM19.47 88.96c.789-.055 5.101 1.586 7.031 2.805.535.511 1.316 1.398 1.316 1.484.004.238-.378-.055-2.238-1.035-1.41-.73-2.875-1.317-4.297-1.88a8.112 8.112 0 0 1-.195-.073s-.106-.114-.29-.242c-.503-.364-1.491-1.004-1.327-1.06Zm2.093 1.852c-.042-.008 4.278 1.437 7.711 3.96.457.336 1.016 1.586 1.016 1.586-.305-.53-5.73-3.527-7.637-4.214l-1.09-1.332Zm1.52 1.914c.238-.133 6.55 3.308 7.477 4.195.418.297 1.398 1.73 1.402 2.02.004.257-.305.035-.867-.446-2.907-2.504-7.11-4.394-7.145-4.351Zm1.172 1.992c2.965 1.16 6.687 3.941 8.566 5.597.47.43.805 1.051.867 1.336.04.18-.058.168-.097.266-2.434-2.578-7.79-5.523-8.5-5.754.008.16-.586-1-.836-1.445Zm9.84 8.035c.34.32.879 1.441.758 1.578-.059.07-.055.035-.2-.059-.777-.714-4.78-3.988-8.12-5.828-.313-.144-1.364-1.675-1.141-1.703 1.746.528 6.742 4.203 8.703 6.012Zm-7.227-3.66c.059.004.16.07.34.164 3.074 1.562 7.523 5.496 8.367 6.441.192.293.492.828.473 1.153-.04.257-.152.039-1.395-1.086a44.071 44.071 0 0 0-6.722-5.016c-.47-.293-.38-.332-.715-.875-.34-.547-.477-.793-.348-.781Zm19.668.09c2.2.062 3.055 1.59 4.403 4.41 1.101 2.777 1.554 5.32 1.601 7.347.004.133-.266.02-.387-.011-.59-.149-1.32-.285-2.168-.086-.625.14-1.218.125-.578-.258.207-.125.766-.602 1.067-.77.601-.343.234-.34-.364-.07-.453.203-.754.461-.941.504-.117.023-.043-.324.066-.574.645-1.442.836-2.297-.113-2.567-.258-.07-.601-.293-.766-.437-.132-.117-.242-.586-.285-.606-.043-.02-.074.426-.074.496.004.231.328.704.715.958.66.437.793.558.43 1.593-.504 1.446-.614 1.797-.707 2.133-.055.195-.157.524-.207.734-.204.82-.18 1.536-.145 2.22.215 1.523 2 2.277 4.398 1.433.227-.078.32-.004.32-.004-1.913 1.781-4.058 2.918-5.312 6.523-1.601-2.98-3.87-5.312-7.652-6.254l-.055-.62c1.317.581 3.875 1.378 5.5.492.871-.547.606-.899-.449-.524-1.258.445-3.527.39-4.656-.2-.23-.116-.469-.015-.535.005-.059-.352-.598-1.668-.52-2.164-.047-.07.348-.07.422.02.312.386 1.902 1.534 3.555 1.445.82-.043 1.5-.27 2.215-.961.058-.051.351-.082.39-.125.063-.067.016-.164.016-.2-.02-.05-.125-.195-.196-.359a.591.591 0 0 1-.093-.406c0-.094.07-.145.125-.211a.519.519 0 0 0 .008-.375.22.22 0 0 1-.047-.34c.222-.234-1.922-2.04-2.344-2.035-.152 0-.063.258.246.445 1.09.672 1.887 1.543 1.703 1.656-.137.086-.625-.105-1.125-.214-1-.215-2.2-.356-3.5.503-.488.368-1.777.422-1.777.422-.012-.644-2.961-7.847-2.969-7.535 1.078-1.152 4.473-3.883 7.867-5.055 1.047-.312 2.168-.472 2.918-.378Zm-12.867 1.59 6.16.097c-1.55.715-4.371 3.281-4.371 3.281-.8-1.492-1.047-2.234-1.789-3.379Zm-5.328.738c.46.004 5.344 3.675 6.035 4.539.086.105.578.586 1.102 1.07 1.261 1.168 1.78 1.84 1.785 2.32.004.227-.223.082-.559-.261-2.527-2.59-4.172-4-7.3-5.989-.356-.171-1.454-1.523-1.079-1.675.004 0 .008-.004.016-.004Zm16.726.703c-.14-.004-.117.117-.043.226.778.633 2.825.61 3.532.102.64-.461-.2-.219-.461-.117-.614.238-1.27.21-2.121.004-.496-.125-.77-.211-.907-.215Zm1.887 1.027c-.719.008-1.465.203-1.3.445.062.086.257.254.726.02.676-.305 2.062.102 2.105.11.141.035-.46-.368-.664-.45-.222-.09-.543-.125-.867-.125Zm-17.266.656c2.625 1.485 5.82 4.446 7.739 6.563.32.363.55.812.55 1.074.004.38-.081.168-1.824-1.46-1.367-1.29-3.43-3.044-4.797-3.99-.82-.55-.964-.624-1.351-1.276-.36-.614-.492-.918-.317-.91Zm16.372.52c-.496.215-1.149.168-1.79-.031-.578-.184-.44-.028-.222.55.098.266.16.637.16.692.004.129.004.14.41-.07.356-.18.43-.246 1.188-.082.77.168.785.105 1.144-.067.317-.152.383-.242.598-.16.422.156.898.223 1.441-.04.418-.198.551-.062.742.028.262.121.364.043.262-.195a3.086 3.086 0 0 1-.117-.633c-.004-.246-.07-.465-.184-.414-.414.192-.75.395-1.144.387-.727-.016-1.36-.414-2.488.035Zm-32.024.453c6.535 7.512 5.356 18.324 5.14 18.234l-5.136.012Zm17.04 1.543c2.613 1.691 5.718 4.637 7.44 6.672.294.352.055.46.2.887.055.156-.235-.078-1.067-.899-1.03-1.023-2.73-2.562-3.851-3.457-1.227-.98-1.578-1.226-1.84-1.558-.207-.274-1.043-1.606-.883-1.645Zm14.722.715h-.082c-.934.039-1.406 1-.61 1.68.297.254.774.406.774.27 0-.036-.152-.173-.254-.247-.664-.473-.598-1.203.16-1.21.262 0 .278.085.887.483.71.473 1.55.477 1.543.004-.008-.347-.149-.707-.785-.648-.168.012-.39.031-.586-.016-.188-.043-.348-.148-.422-.18a1.774 1.774 0 0 0-.625-.136Zm-13.027 2.187c1.996 1.239 4.742 4.036 6.144 5.684.324.387.344.816.211 1.043-.027.047-.273-.094-.273-.094-1.625-1.761-3.465-3.363-5.27-4.992 0 0-1.074-1.59-.812-1.64Zm19.394 2.704-.43.195c-.656-.903-1.254-.914-1.757.137l-.32-.075c-.243-.242.866-2.535 2.507-.257Zm-.094-.77c.18.004.496.094.57.266.083.156-.011.332-.261.324-.035-.004-.274-.274-.395-.438-.086-.101-.047-.156.086-.152Zm-7.351 1.094-.485.02c-.922-1.118-1.609-.372-2.023.093l-.52-.066c.086-1.223 2.438-1.645 3.028-.047Zm4.707-.946c.074 0 .144.016.215.04-.192.265-.227.488-.27.726-.187.07-.457.223-.656.027-.371-.308.203-.8.71-.793Zm-7.559.114c.23 0 .16-.012.063.105a2.03 2.03 0 0 0-.313.516c-.031.133-.054.18-.187.183-.258.008-.778-.078-.774-.074-.195-.172.621-.715 1.211-.73Zm2.93.16c.152-.016.113.183.066.262-.097.105-.136.14-.191.007a.427.427 0 0 0-.098-.148c-.074-.09-.066-.094.028-.11a1.5 1.5 0 0 1 .195-.011Zm7.906.902c.563-.015.184.864-.601 1.078-.868.399-1.86.301-2.868-.23-.578-.3-.75-.621-.25-.492 1.891.48 2.352.394 3.496-.285a.406.406 0 0 1 .223-.07Zm-18.21-.219c1.882 1.47 3.296 3.133 4.8 4.668.3.34.441.668.383.891-.074.277-.692-.383-.692-.383.016.004-3.668-3.625-3.668-3.625s-.937-1.547-.824-1.55Zm5.632.516c.129.004.387.059.809.16 1.808.508 2.359.489 3.402.051.664-.277.937-.238.652.184-.523.773-2.37.855-3.758.421-.367-.117-.687-.316-1.039-.562-.191-.18-.238-.262-.066-.254Zm8.355.524c.11-.004.31.109.555.238 1.52.793 2.64.652 3.574.12.172-.14.262-.073.286.067.078.48.101.828-.137 1.059-.14.137-.38.195-.735.305-1.472.453-3.261.125-3.601-.891-.11-.52-.18-.883.058-.898Zm-12.05 2.156h.015c.106.015.352.21.739.617 2.015 2.11 3.132 3.32 2.925 3.93-.02 0-.03.132-.117.066-1.11-.887-2.015-1.852-2.687-2.86-.739-1.109-1.043-1.742-.875-1.753Zm16.289 1.508c-1.711 1.195-3.782 4.046-3.973 5.453-.035.265-.004.468-.113.566-.086.074-.278.082-.535.035-.16-.027-.121-.043-.157-.207-.148-.644.528-2.261 1.918-4.168.73-1 2.383-2.347 2.848-2.355.309.117.008.691.012.676Zm-12.63-.672c.122 0 .31.058.567.16 1.532.605 2.102.828 3.09 1.57 1.844 1.387 3.89 4.676 3.29 4.985-.266.132-.454.046-.56-.258a7.556 7.556 0 0 0-.445-.906c-1.23-2.094-2.84-3.536-5.105-4.555-.84-.38-.922-.336-.989-.649-.046-.238 0-.343.153-.347Zm12.602 1.23c.153-.012.192.246.137.762-.043.422-.07.414-.582.906-.82.61-1.789 2.04-2.242 3.492 0 .051-.043.164-.117.223-.211.168-.477.086-.66.082-.13-.062-.094-.328-.07-.477.378-1.32 1.3-2.945 2.75-4.367.406-.402.648-.613.784-.62Zm-12.285.016c.813-.016 3.688 1.969 4.852 3.703.758 1.133.965 1.598.789 1.762-.094.086-.504.097-.719.023-.195-.07-.27-.344-.633-.976-.945-1.645-2.316-2.836-3.797-3.47-.277-.116-.425-.19-.515-.28-.098-.192-.223-.723.023-.762Zm.434 1.472c.254.043.95.461 1.531.856 1.027.695 2.59 2.82 2.266 3.125-.106.098-.465.098-.649.031-1.097-1.805-2.527-2.664-3.11-3.168-.175-.273-.585-.914-.038-.844Zm-2.29.317c.048-.012.243.16.59.5 1.032 1 1.688 2.11 1.536 2.668-.13.472-.281.21-1.461-1.867-.496-.871-.735-1.285-.664-1.301Zm14.153.047c.024.578-.027.719-.094 1.023-.047.207-.195.301-.336.465-.355.402-.753 1.098-.957 1.66-.171.453-.09.563-.699.5-.281-.035-.215-.105-.101-.406.382-.98 1.304-2.574 2.187-3.242Zm-11.758 1.066c.012-.297 2.77 2.266 2.39 2.55-.358.06-.573.071-.722-.046-.297-.61-1.61-1.766-1.61-1.766Zm11.602.824a.012.012 0 0 1 .016 0c.124.024.054 1.594-.051 1.723-.196.094-.57.102-.77 0-.12-.062-.156-.172-.11-.293.114-.305.716-1.394.915-1.43Zm-10.43 1.711c-.09.125-.625.145-.828.004-.066-.043-.129-.824-.05-.965.206-.125.945.793.878.961Zm0 0" style="stroke:none;fill-rule:nonzero;fill:#131f67;fill-opacity:1"/><path d="m61.969 16.305.347.418-2.023.007c.328.258 7.8 14.141 17.355 30.18 1.582 2.813 4.61 3.832 8.122 3.961l-9.282-13.797c.992-.496 2.961-1.82 4.153-1.574.074.336.425.203.433-.094l.43.008.152.219h1.809l.148-.196 1.559.211c-4.16-4.73-6.344-12.011-5.617-19.117l-13.82.008-.184-.223Zm-1.676.425c-.008-.003-.016-.007-.016 0Zm-15.91 9.22c-1.582 4.663-5.477 8.495-7.79 12.355-2.484 4.215-3.07 7.883-2.382 11.898l.453.04c5.285-6.606 9.387-14.5 11.688-22.266.046-.172-.036-.47.003-.641a.498.498 0 0 1 .051-.488c.137-.125.086-.633-.011-1.465-.243-2.477-.192-4.418.039-6.664.175-1.723.168-1.992.168-1.992l-.903-.016c.16 2.934-.27 6.547-1.316 9.238Zm21.726-9.009 1.485.032c.219 4.168 4.035 4.718 4.625 4.656-.98 2.816.629 5.914 4.515 6.36-.898 2.609.676 6.058 3.786 5.968l.328.191c-.203.375-.246 1.149-.235 1.16-.691.047-1.066.137-1.515.22C75.09 29.952 66.109 16.94 66.109 16.94Zm13.184.024c-.457 4.656.547 11.05 2.918 14.832 0 0-.078.254-.125.32-.23.317-.34.043-.477-.21-.504-.86-1.46-.997-1.882-.516-.93 1.156.074 1.617.851 2.273-3.183-.184-4.238-3.41-3.5-5-.016.305.16.762.395 1.086.89 1.25 2.199.2 1.828-.79-.156-.405-.723-1.089-.723-1.089s.774-.101 1.09-.277a.796.796 0 0 0 .41-.88c-.062-.327-.078-.472-.27-.765-.23-.273-.652-.457-.988-.437-.66.039-.738.453-1.172.738-.105-.75-.625-1.32-1.476-1.18-.649.106-1.117.739-.723 1.532.203.406.485.53.766.882-4.574-.48-4.067-5.472-3.559-5.382 0 0 .137-.024.094.168-.262 1.222 1.387 1.953 2.113 1.066.465-.719-.527-1.856-.527-1.856s.66-.128.96-.289c1.196-.632-.073-2.453-1.183-2.007-.39.164-.492.496-.875.671-.254-.261-.265-.546-.722-.78-1.254-.645-2.043.874-1.348 1.542.285.274.785.52.687.551-3.89-.457-3.843-4.2-3.757-4.172Zm-33.438-.024h.536c-.16 2.223-.508 5.149-.29 7.317.258 2.066.27 2.36.11 2.566-.223.227-.106.332-.063.52.055.34.063.343.008.535a41.905 41.905 0 0 1-1.847 5.351c-2.516 6.344-6.614 13.254-9.825 16.875 0-.011-.144.012-.148 0-.867-5.062 1.016-9.28 1.996-11.011 1.988-3.508 5.11-6.5 6.965-10.176 1.578-3.129 2.746-6.887 2.558-11.977Zm19.708.012 13.011 18.668-2.383 1.07L62.88 17.016Zm7.64 3.652c.336.004.61.254.61.567 0 .308-.274.562-.614.562-.336 0-.61-.254-.61-.566 0-.309.274-.563.614-.563Zm4.313 6.227c.343 0 .62.258.62.57-.003.317-.28.57-.62.57-.344-.003-.621-.257-.618-.57 0-.316.278-.57.618-.57ZM46.43 27.895c.222.812-4.164 13.003-10.38 20.753l2.708.055.082.277c3.785 5.153 1.402 9.704-1.664 11.813l1.058 1.3-.957.712-.953-1.047c-7.77 5.34-22.941 17.164-22.941 17.164l.082 1.898 1.183-.855c7.672 6.851 23.965 6.504 28.262-7.602l1.145.024c-2.602 10.34-13.125 14.37-21.059 12.644l-1.863 2.453.496.246c-.09-.132-.176-.18-.04-.296l1.583-1.868c11.871 1.418 19.05-4.75 21.394-13.113l1.516.027c-1.312 7.028-4.91 13.211-10.031 18.043-3.692-.02-10.176-.105-10.176-.105 2.355 2.105 6.855 8.535 7.035 9.187 0 0 4.64.141 9.617.04 1.828-.754 4.27-1.051 5.407-.524 2.004.934 3.879 4.379 4.714 9.906.215 1.426.414 2.028.473 2.317.012.05.149.09.168.078.074-.035-.125.254-.133.465-.008.215 0 .539.11.648.14.145.125.238.105.297-.016.043-.285.27-.285.27-.047 3.222-.031 6.144-.23 10.101l.687.004c.008-6.371 2.11-12.262 5.34-16.312 1.965-2.66 4.043-5.528 5.195-8.258 1.297-3.075 1.48-6.309.793-9.035l-.473.023c-2.832-1.793-3.976-5.605-.48-8.324l-1.234-1.48c-3.493 2.472-4.301 7.042-.696 10.831l-1.414-.007c-3.515-4.047-2.726-8.688 1.352-11.997l-.906-1.066.992-.8.89.902 22.77-17.43-.012-1.91-1.746 1.297c-10.184-8.684-25.316-2.625-27.555 7.812l-1.386.008c2.925-11.23 13.644-14.387 21.386-12.879l1.918-2.656c-1.406-.367-2.777-1.227-4.066-2.242-.547-.43-.89-.692-1.285-1.118-3.664-3.57-6.145-8.527-6.262-8.535l-9.977-.039c-1.464.664-3.976 1.418-5.347.395-2.95-2.2-3.934-6.625-4.332-9.469-.121-.887-.223-2.43-.313-2.941-.058-.094-.168-.098-.265-.082Zm35.367 4.976c.332 0 .601.25.601.559 0 .304-.273.554-.605.55-.332 0-.602-.246-.602-.554 0-.305.27-.555.606-.555Zm1.297.656c.488.586.926 1.192 1.168 1.828-.23-.003-.446.06-.7-.125-.058-.644-.347-1.03-.707-1.46Zm-1.828.817c.203.093.359.793.218.914-.242.047-.406.031-.488-.047-.121-.188.11-.828.27-.867Zm-39.692 6.023 9.262.024c1.61 1.136 3.184.992 5.473.082l10.3.02.582.972-26.12-.043c.144-.363.503-1.055.503-1.055Zm-.765 1.516 26.656.043.668.996-27.988-.043Zm2.57 1.453 2.988.004-1.11 1.726-3.085-.004Zm6.637.008 2.855.008-1.273 1.722-2.828-.004Zm9.234.015-1.203 1.727-2.902-.004 1.25-1.71Zm3.578.008 2.86.004-1.07 1.727-2.962-.008Zm-38.402.207c-1.852-.023-1.512 2.239-1.336 2.168-1.164-.25-2.027.258-2.172 1.168-.113.727.652 1.758 1.996 1.613-.18.192.004 1.286.18 1.383 0 0 .023.16-.688 1.52-.847 1.613-1.02 1.691-1.398.629-.406-1.14-1.043-1.723-2.695-2.461-.438-.2-1.063-.543-1.383-.766-.739-.512-.746-.504-.711.535.043 1.348.484 1.942 2.05 2.739.766.39 2.231.945 2.497.941.187 0 .875.281 1.89.781.2.098.88.446 1.75.524.926.062 3.008-.137 4.219-.774.676-.36.938-.68 1.441-1.601 0 0-1.71.078-2.492-.11-1.625-.09-2.433-.008-3.668.578-1.031.493-1.086.579-.656-.23.2-.375.383-.813.547-1.25.18-.434.23-.469.68-.512.988-.09 1.55-.613 1.644-1.523.027-.242-.012-.5-.012-.5.672.09 2.047-.215 2.008-1.496-.035-1.153-.93-1.418-2.027-1.496.14-.59-.324-1.844-1.664-1.86Zm.023.356c1.625.015 1.582 1.383.875 2.16l-.863-.656-.7.593c-.757-.449-.75-2.109.688-2.097Zm44.438.09.797 1.085-1.649-.003Zm-30.325 1.507 3.06.004-1.231 1.586-2.891-.004s.648-1.011 1.063-1.586Zm9.641.016-1.16 1.645-2.672-.004 1.074-1.61Zm3.582.004 2.762.008-1.098 1.754-2.73-.004Zm6.5.012 2.8.004-1.14 1.757-2.761-.008Zm6.34.011 2.883.004-1.192 1.754-2.78-.004Zm-40.14.262 1.37 1.273-1.34 1.235-1.378-1.219Zm3.484 1.246c-.246 1.477-1.797 1.395-2.239.672l.633-.664-.773-.7c.754-1.109 2.562-.425 2.379.692Zm-4.614-.715-.746.766.813.723c-.524.671-2.543.613-2.137-1 .262-1.024 1.395-1.211 2.07-.489Zm47.106-.113.848 1.074-1.598.012Zm-33.172 1.266 34.195.156.914 1.031c-11.941.168-23.632-.215-35.828-.246Zm-12.027.648c1.355.766.351 2.375-1.102 2.098-1.086-.438-1.305-1.473-.328-2.07l.766.578Zm11.726.637h-.933l-.91.976c3.43 3.332 3.296 6.22.093 8.73l1.285 1.329c3.594-2.82 4.399-7.254.465-11.035Zm3.532.133c1.917 2.77 3.574 8.011-2.172 12.8l-.692-.773c5.004-4.477 3.84-8.25 1.606-11.996Zm.535.066 7.761.043c-1.671 5.82-2.843 9.246-3.039 18.355l-2.242.008c.246-.207-1.152-5.5-2.789-7.34 3.45-5.363 1.602-8.394.309-11.066Zm-24.426-.031c.133 0 .406.16.945.457.485.27 1.11.605 1.395.754 1.066.55 1.593 1.07 1.898 1.863.223.594.082.605-.57.043-.485-.414-1-.773-2.293-1.59-.453-.289-.598-.242-.336.11.191.25.602.539 1.43 1.003.601.34 1.43 1.016 1.363 1.114-.059.093-.16.086-.453-.032-.133-.054-.567-.218-.957-.367-1.692-.633-2.414-1.41-2.512-2.699-.035-.45-.062-.652.09-.656Zm35.433.086s.235.285.266.402c.063.254-.207.488-1.07.84-.293.121-.54.183-.531.344.039.37.812.937.714 1.445-.18.387-1.254.766-1.523 1.223 0 .312.7.793.598 1.218-.055.13-.282.258-.614.524-.683.543-.726.625-.476 1.05.578.985.601.91-.196 1.61-.796.703-.785.691-.402 1.305.41.66.39.632-.164 1.054-.543.41-.52.496-.23 1.012.28.496.343.504-.13.887-.554.449-.656.496-.269 1.062.403.586.434.563-.023 1.04-.43.452-.48.472-.246.78.289.387.347.493.039.915-.332.46-.332.43-.028.855.254.363.211.766.211.766l-.96-.004s-.008-.508-.122-.695c-.27-.454-.261-.594.063-.997.332-.41.277-.445-.032-.859-.312-.418-.265-.414.141-.887.375-.433.395-.64.18-.886-.5-.594-.5-.84.008-1.23.386-.298.422-.43.09-.938-.325-.5-.364-.543.234-1.04.613-.507.605-.496.195-1.074-.394-.558-.375-.593.266-1.136.648-.551.656-.555.234-1.25-.394-.649-.398-.641.375-1.274.774-.586 1.035-.66.27-1.508-.43-.675-.125-.738.582-1.074 1.234-.691.672-.648.156-1.676-.434-.691-.184-.695.57-1.039.188-.074.395-.156.61-.265.504-.258.23-.496.23-.496Zm1.614.02 3.707.046c-4.305 5.04-6.387 11.488-7.14 18.293l-1.403-.023c-.074-5.317 1.754-11.954 4.836-18.317Zm19.035.148c2.117 1.644 3.687 2.586 4.805 2.957 0 0-1.5 2.277-1.614 2.195-8.597-1.535-18.836 3.055-21.168 12.992l-1.355.004c.508-3.898 1.633-7.152 3.695-10.547 2.043-3.297 3.926-5.222 6.766-7.644Zm-14.793-.11 1.824.035s.344.38.496.516c.79.82.856.656-.883 1.559-1.097.566-1.582.828-1.648 1.066-.05.242.477.719.54 1.04 0 .038-1.493.952-1.767 1.081-.375.168-.394.313-.023.91.43.688.395.664-.531 1.258-.906.578-1.086.52-.7 1.098.532.804.282.984-.98 1.605-.32.157-.328.317-.105.864.308.761.386.687-.266 1.097-.77.485-.902.496-.734.797.492.863.691 1.074.027 1.36-.504.21-.516.335-.238.906.28.574.351.55-.145.875-.46.3-.734.234-.285.722.355.391.32.696.031.934-.246.098-.363.531-.293.543l-.64.016c-.5-.625.093-.98.183-1.04.082-.144-.02-.246-.218-.582-.282-.464-.27-.52.132-.789.407-.273.418-.203.149-.808-.313-.703-.297-.785.195-1.11.488-.32.496-.39.164-1.007-.348-.653-.348-.653.52-1.176.605-.371.617-.348.297-1.04-.223-.472-.067-.636.761-1.156.473-.296.508-.355.29-.71-.614-.977-.606-1.008.452-1.633.864-.516.856-.559.524-1.246-.36-.743-.39-.688.797-1.336.976-.54 1.031-.508.629-1.157-.496-.804-.465-.671 1.488-1.695.703-.441 1.34-.289.64-1.043-.308-.363-.683-.754-.683-.754Zm-34.484 1.27c.136-.004.238.148.234.433-.027.399-.234.793-.43 1.192-.414.804-.828 1.402-1.043 1.406-.511.004-.496-.102.184-1.32.308-.555.629-1.192.68-1.313.113-.265.253-.394.375-.398Zm6.273 1.84c.004 1.71-5.836 2.566-6.137 1.699 1.02-.73 4.028-.399 4.668-1.055-.77-.039-1.812.074-2.523.086-.89.012-2.332.36-2.344.504-.094-.45 1.531-1.293 2.813-1.344 1.203-.047 2.507.086 3.523.11Zm.492 2.613s-11.398 8.64-17.035 12.824l.031 1.867L31.23 56.004Zm-.035.43.727.812-16.934 12.637-.059-1.328Zm53.434 4.527-.61.598c-16.492-11.325-31.73 5.8-23.37 18.082-.075.16-.661.55-.661.55-9.316-14.257 8.598-30.894 24.64-19.23Zm-9.086-2.488c.937.008 2.664.601 3.39 1.41.848.941.598 1.36-.476.472-1.156-.777-2.114-.957-.508-.042.355.203.672.597.691.64.059.156-.238-.008-1.586-.46-.8-.27-1.816-1-2.082-1.497-.195-.371.082-.527.57-.523Zm-3.473.02c.293 0 .55.019.738.07 1.18.312 1.551.476 1.989.792.3.215.207.372-.145.231-.406-.16-1.695-.516-1.926-.492-.336.031 0 .234.48.344 1.067.246 1.598.503.837.511-.399.055-2.137.055-2.61.004-.793-.086-1.976-.754-1.703-.988.297-.258 1.461-.465 2.34-.473Zm-3.39 1.015c1.402.02 2.156.5.624.594-2.628.379-3.136.906-.218.28.68-.144.664.083.195.294-.383.172-.863.254-1.262.43-.718.277-2.367.332-3.011.109-.95-.336 2.035-1.727 3.671-1.707Zm11.269.238c.707.016 2.215.961 2.887 1.848.437.578.218.996-.446.527-.132-.09-1.086-.84-1.136-.855-.09-.032.789.738.918.957.109.183.363.605-.114.613-.742-.086-2.48-1.879-2.488-2.762-.004-.238.145-.336.379-.328Zm-8.781.488c.293-.007.144.137-.418.496-1.012.653-.485.524.699-.035.36-.168.789-.3.941-.324.153-.027.336-.066.407-.082.316-.09.07.27-.446.649-1.09.796-2.316 1.425-3.164 1.617-1.078.242-1.308.273-.91-.344.637-.984 1.563-1.77 2.445-1.922.2-.035.348-.05.446-.055Zm3.633.024c.449-.008 1.003.078 1.878.254.614.176.454.215-.285.285-1.386.137-.808.289.54.27 1.84-.012-.923.609-1.821.73-.7.027-.902.004-2.426-.262-.582-.101-.234-.492.867-.972.454-.196.793-.297 1.247-.305Zm11.37.246.047 1.09-22.312 17.09-.758-.77Zm-7.581.926c.886-.012 2.171.558 2.03.898-.05.13-.151.121-.827-.043-.446-.11-1.242-.226-1.137-.137.035.032.66.25.895.305.785.176 1.726.582 1.515.703-.363.203-.695.043-1.125 0-1.078-.136-2.847-.64-3.137-.89-.332-.285.829-.828 1.786-.836Zm-10.395.047c.16.007.219.144.066.332-.23.28-.34.515-.546.863-.75 1.055-1.22 1.473-1.938 1.883-.715.406-.816.336-.754-.516.082-.887.774-1.816 1.75-2.25.45-.059.707-.168.235.352-.84.922-.266.828.52-.22.245-.331.507-.452.667-.444Zm-2.894.117c.484 0 .644.156.027.422-.59.254-1.766 1.004-1.793 1.086-.05.14.39-.079 1.121-.442.973-.488 1.059-.476.586.082-.531.633-1.816 1.422-2.82 1.711-1.41.352-1.375.106-.586-.851.75-1.043 1.386-1.54 2.347-1.825a4.174 4.174 0 0 1 1.118-.183Zm-23.868.12c5.09 8.102 2.243 16.321-3.691 20.509-6.2 4.375-15.836 4.097-21.512-1.172l.793-.684c-.004.004 8.945 8.41 20.254.977 5.738-3.77 8.121-12.696 3.406-18.93Zm-22.87-.019a.116.116 0 0 0-.04.008c-.172.102-.824 1.852-.953 2.574a.611.611 0 0 0 .207.594c.133.117.348.043.414.02.434-.18.672-.457 1.05-1.328.255-.477.29-1.047.24-1.247-.02-.082-.16-.27-.333-.375-.195-.12-.469-.246-.586-.246Zm.097.364c.207 0 .61.304.66.523 0 .379-.234 1.012-.414.918-.293-.34-.633-.125-.688-.25-.039-.371.223-.86.403-1.187.012 0 .027-.004.039-.004Zm55.144.394c2.274.004 4.528.617 6.184 1.969L78.07 64c-3.882-2.555-8.41-1.816-11.097-.102-2.657 1.696-5.016 5.457-2.723 10.766l-.832.691c-2.57-4.27-1.176-9.906 3.395-12.566 1.609-.937 3.671-1.473 5.742-1.504.074 0 .148-.004.218 0Zm-33.574.567c.07 0 .172.207.16.46-.011.31-.152.704-.379.79-.253.093-.41-.602-.41-.602a2.8 2.8 0 0 1 .63-.648Zm40.649.304c.093-.004.183 0 .261.008.25.031.254.238.016.438-.258.214-.395.226-.652.054-.23-.156-.243-.27-.043-.402.105-.063.265-.09.418-.098Zm-43.606-.023.754.855-2.617 1.926-.309.023L14.06 80.114v-1.351Zm41.742 2.129-2.722 2.058c-5.434-2.605-9.805 2.016-8.274 6.223l-2.36 1.871c-4.187-10.625 8.13-14.238 13.356-10.152Zm-14.242-1.645a.025.025 0 0 1 .024 0 .16.16 0 0 1 .054.031c.094.086-.097 1.493-.242 1.754a.758.758 0 0 0-.09.274c0 .113-.504 1.078-.898 1.715a4.157 4.157 0 0 0-.352.703c-.316 1.394-.992-.848-.75-2.149.114-.613 1.059-1.875 1.332-1.78.14.05.133.144-.113.632-.684 1.363-.86 2.066-.14.75.831-1.52 1.046-1.91 1.175-1.93Zm-46.226-.047c.101.004.18.055.222.164.032.094.063.286.008.38-.14.288-.43.476-.723.46-.128-.008-.27-.113-.285-.238a.55.55 0 0 1 .176-.461c.207-.195.434-.316.602-.305Zm20.714.121c.325.016.66.813.446 1.176-.18.297-.211.242-.52-.336a6.298 6.298 0 0 1-.289-.629l.266-.191c.023-.008.047-.016.066-.02h.031Zm-.542.336s.335.563.417 1.012c.051.277.043.227-.285.11-.258-.149-.312-.235-.472-.419-.106-.171-.215-.3-.215-.3Zm2.039.121c.171-.003.355.157.52.547.632 1.461.57 3.102-.142 3.875-.117.13-.148.133-.289.055-.117-.066-.125-.762-.011-.957.035-.063.136-.48.148-.719.02-.562-.148-.633-.23-.11-.094.602-.196 1.02-.375.657-.09-.183-.133-.367-.2-.562-.355-1.266.063-2.77.579-2.786Zm-2.758.372s.61.722.86.98c.085.14.081.176-.06.227-.242.085-1.042-.41-1.363-.563-.172-.129-.097-.223-.097-.223.218-.152.441-.3.66-.421Zm24.008.066c.324-.004.324.098-.024.559-1.941 2.554-1.55 2.175-.316.777.687-.777.804-.852.879-.676.058.129-.758 1.645-1.184 2.192-.219.285-.96.757-1.336.93-.922.429-.82.257-.48-.805.437-1.649 1.53-2.97 2.46-2.977Zm-25.145.844c5.285 12.14-9.258 17.441-15.805 11.82l.766-.559c9.11 5.7 18.129-3.394 14.023-10.53 0 0 .371-.286 1.016-.731Zm1.227.297c.875.082 2.164 1.554 2.226 2.37.137.583-.043.684-.351.274-.52-.89-.461-.328-.016.555.234.449.289.98.043 1.011-.336-.062-1.063-1.132-1.281-1.57-.528-.965-.567-.8-.856-2.226-.054-.27.024-.414.235-.414Zm-2.641.394c4.031 7.129-4.684 15.68-13.516 10.129l2.653-1.93c4.613 2.043 9.77-.472 8.304-6.324Zm40.324 1.39-7.3 5.575c-1.493-4.633 4.023-7.266 7.3-5.574Zm-13.543-.03c.239-.047.438 1.355.477 3.324.043 1.925.094 2.113-.555 1.406-.273-.29-.61-.566-.758-.824-.43-.754-.289-1.54-.168-2.64.114-1.024.512-.864.446.21-.043.691-.04 1.55.082 1.55.043 0 .054-.066.027-.163-.055-.196.207-2.422.313-2.688.046-.113.093-.168.136-.176Zm-20.097.812c.523.191.671 1.809.097 3.371-.246.668-.625 1.11-1.187 1.379-.399.191-.492.129-.313-.207.336-.547.512-1.117.649-1.824.054-.692-.34-.137-.309.156-.312 1.289-.723 1.484-.668.125.043-1 .184-1.43.7-2.117.257-.344.534-.817 1.03-.883Zm18.289.195c.214 0 .27.27.074.79-.137.359-.598 1.527-.543 1.523.035 0 .527-1.051.629-1.223.164-.281.226-.336.37-.324.142.52-.007 1.168-.077 1.707-.301 1.398-1.34 2.844-1.739 2.414-.644-.703-.335-3.543.524-4.406.324-.324.594-.485.762-.48Zm-27.774.168c.774 4.957-3.68 7.067-7.52 5.567.083-.02 7.52-5.567 7.52-5.567Zm18.184.121.773.938 1.418.07-.73.985.722 1.261-1.586.024-.91.96-.793-.87-1.383-.067.81-1.183-.65-1.133 1.497-.063Zm-11.914.407c.175.007 1.05 1.066 1.136 1.457.262.945.16 2.734-.21 2.671-.399-1.289-.239-1.953-.383-1.804-.25.234.148 2.21.015 2.699-.066.125-.277-.027-.52-.344-.64-.855-.55-4.183-.054-4.675.004 0 .008-.004.016-.004Zm47.406 2.086L67.746 83.582l1.008 1.2L85.32 72.253Zm-25.309.187c.078-.012.254.102.582.434.57.71 1.176 1.687 1.399 2.441.082.293.215.68.297.863.12.27.133.348.058.43-.3.344-1.57-.527-1.976-1.355-.574-1.165-.586-2.215-.012-1.192.207.371.469.914.465.7 0-.063-.254-.844-.445-1.192-.122-.219-.563-1.09-.368-1.129Zm25.121.367.036 1.102-16.344 12.52-.637-.716s15.39-11.726 16.945-12.906Zm-25.476.64c.074.009.113.11.09.333-.074.73-.274 2.316-.235 2.457.024.082.262-1.05.317-1.254.277-1.05.699 1.465.441 2.59-.039.18-.12.465-.164.64-.043.176-.18.477-.234.555-.465.668-1.547-1.996-1.36-3.351.114-.844.868-1.996 1.145-1.97Zm-18.883.552c.215-.008.254.183.219.59-.125 1.386-1.133 2.843-2.235 3.226-1.093.387-1.195.309-.546-.41.496-.547.793-1.121.71-1.195-.046-.04-.156.191-.554.66-.5.59-.582.09-.125-.778.394-.746.762-1.136 1.5-1.593.52-.325.844-.489 1.031-.5Zm9.922.437c-.23 5.977-1.863 12.469-5.004 18.11h-2.926c3.59-4.844 5.887-10.84 6.54-18.086Zm1.285.008s.442.422.617.703c.196.313.25.582-.105.816-.418.32-.59.2.086 1 .355.426.238.493-.203.848-.457.363-.485.383-.063.879.453.531.535.613-.055 1.023-.535.368-.542.454-.128 1.055.382.55.5.547-.239 1.117-.629.485-.64.352-.039 1.25.223.332.207.352-.199.684-1.008.816-.957.766-.813.98 1.098 1.454.602 1.41-.476 2.102-.219.168-.164.363.32 1.086.414.617.352.75-.617 1.36-1.008.636-1.043.722-.539 1.374.496.64.508.594-.3 1.254-.364.301-.665.574-.665.574l-1.785-.004s.379-.316.637-.492c1.465-.992 1.46-.886.843-1.61-.546-.636-.492-.679.063-1.042.398-.258.937-.527 1.34-.797.219-.14.058-.258-.301-.89-.406-.704-.426-.622.328-1.192.828-.625.84-.602.395-1.39-.45-.797-.457-.727.113-1.153.844-.629.883-.598.441-1.328-.355-.586-.355-.57.243-1.117.601-.551.527-.516.171-1.024-.359-.515-.343-.586.137-.976.516-.418.442-.395.016-.93-.418-.531-.414-.492.101-.902.27-.215.54-.434.524-.535-.04-.262-.313-.637-.57-.993-.102-.136.097-.18.417-.484.329-.309.313-.23.067-.644-.133-.223-.383-.598-.383-.598Zm-4.785.008.512.011s.086.106.203.22c.328.304.34.484.012.648-.313.16-.196.379.07.734.277.379.273.336-.125.707-.414.309-.63.395-.176.98.262.27.227.551-.176.793-.308.184-.824.34-.281 1.051.262.508.281.477-.27.832-.734.48-.87.395-.535 1.094.371.773.41.785-.359 1.305-.895.605-.926.652-.555 1.375.371.73.383.547-.562 1.222-.696.496-.852.52-.649.934.383.766.547.973-.578 1.5-1.293.605-1.36.652-.738 1.559.504.738.39.632-.445 1.074-1.207.637-1.739.914-1.778 1.113-.027.223.938.89.938.89l-1.684.04s-.707-.528-.98-.774c-.758-.683-.77-.46 1.765-1.586 1.399-.62 1.282-.48 1.055-.843-.672-1.075-.695-1.188.57-1.77 1.098-.508.91-.543.645-1.312-.23-.668-.195-.61.383-1 1.402-.954 1.363-.856 1.148-1.325-.215-.46-.379-.675-.219-.902.504-.66 1.578-.8 1.141-1.594-.203-.511-.277-.625.344-1.066.558-.426.558-.371.203-.938-.434-.515-.371-.601.266-1.004.457-.382.449-.37.195-.742-.348-.511-.332-.527.168-.93.41-.328.48-.347.219-.71-.344-.48-.286-.586.171-.82.278-.145.278-.204.254-.446-.008-.047-.152-.32-.152-.32Zm6.316.039 2.344.008c.742 3.996 2.047 5.64 2.8 6.906-2.972 4.367-2.308 8-.503 11.219l-7.422-.04c1.914-5.98 2.906-12 2.781-18.093Zm-16.09-.012c.086-.004.149.125.294.352.468.738.132 1.78-.555 2.87-.516.817-.61.192-.371-.984.148-.742-.258.371-.453 1.266-.106.488-.364.879-.637.855-.258-.039-.18-.722-.168-.87.059-1.075.496-1.837 1.344-2.9.32-.405.449-.581.547-.589Zm23.926 2.14c.11-.003.266.04.457.141.149.078.418.227.606.32.648.333.699.434.39.762-.382.41-.625.254-1.285-.43-.445-.46-.453-.78-.168-.792Zm-.218.9c.105.003.32.105.53.327.43.453.376.832-.097.723-.195-.262-.293-.656-.476-.95-.043-.066-.02-.1.043-.1Zm20.937.089c-.414 0-1.113.504-1.246 1.016-.406 1.562-.406 1.496-.043 1.722.105.067.184.117.238.145.211.156.5.394.54.347.343 0 .87-2 .855-2.414.02-.433.039-.488-.082-.683-.051-.09-.145-.133-.262-.133Zm-21.254 0c.028-.004.063.012.102.043.273.246.379.691.52 1.012 0 .07-.032.183-.071.25-.238.414-.602.011-.637-.703-.023-.403 0-.586.086-.602Zm21.188.344h.05c.282.011.235.277-.152.66-.203.203-.621.297-.762.172-.199-.184.215-.68.672-.797a1.06 1.06 0 0 1 .192-.035Zm-47.078.144c.015 0 .03-.004.042 0 .149.008.27.067.364.172.187.211.11.535.02.809-.223.715-1.68 2.094-2.204 2.097-.308-.05.992-1.566 1.035-1.82-.097-.09-.906.766-1.285 1.36-.172.269-.367.601-.469.656-.273.031-.586.187-.59.02.047-.759 1.669-2.41 2.22-2.868.34-.293.632-.422.867-.426Zm3.898.078c1.246-.011-1.215 2.496-2.809 2.856-.496.11-1.406.14-1.472.043-.067-.094.008-.172.21-.219.329-.078 1.958-1.027 1.958-1.14-.004-.141-.676.093-1.25.433-.371.219-.543.176-.344-.094.937-1.23 2.187-1.867 3.707-1.879Zm21.613.036c.07.007.14.136.184.425.226.54.238.688.023.844-.367.27-.457.195-.453-.43.008-.511.13-.847.246-.84Zm-41.136.648s.453.16.265.36c-.133.136-.691.019-.691-.024Zm62.73.117c.148-.008.152.117.07.438-.039.168-.222 1.047-.539 1.289-.039.023-.5-.23-.625-.348-.058-.055-.238-.176-.261-.258-.079-.265.007-.613.226-.785a.689.689 0 0 1 .352-.101c.07-.004.285-.067.476-.145a1.04 1.04 0 0 1 .301-.09Zm-62.57.508c.297-.004.668.027.976.125.922.25 2.61.945 2.871 1.176.375.332-.613.683-1.8.695-.63.004-.747-.113-1.618-.594-.109-.07-.617-.375-.468-.488.16-.152.644.047 1.25.328.199.094.68.067.68-.015-.005-.094-1.212-.508-2.118-.778-.594-.172-.578-.347-.215-.422.106-.015.258-.027.442-.027Zm-1.192.379s.25.203.575.426c.351.246.761.547 1.042.945.415.46 1.063 1.613.989 1.82-.168.477-1.907-.363-3.328-1.675-.461-.426-.73-.743-.73-.743l.542-.449s.477.367 1.027.817c1.032.84 1.028.55-.011-.336-.293-.25-.563-.473-.563-.473.012-.16.176-.3.457-.332Zm42.52.105s.554.532.762.778c-3.395 3.039-4.696 7.289-1.434 11.82l-1.57-.008c-2.93-5.32-1.528-9.32 2.242-12.59Zm-28.649.082c.211-.011.02.22-.355.801-.7 1.09-.84 1.367-1.973 1.637-.293.07-.707.012-.879.031-.488.059-.27 0 .477-.441 1.035-.617.156-.301-.8.148-.556.262-1.138.25-1.188.113-.028-.074.226-.273.386-.406 1.461-1.195 1.907-1.144 3.266-1.574.59-.188.922-.305 1.066-.309Zm-6.093 1.082a7.59 7.59 0 0 1 1.457.141c.289.063.761.117.363.445-.45.391-1.668.918-2.57.954-.125.003-1.977-.118-1.582-.485.078-.039.332-.027.546-.066 1.028-.176.75-.328-.511-.27-1.586.074-1.657-.074-.457-.375a11.455 11.455 0 0 1 2.527-.344h.227Zm8.457.125c.707-.007 1.254.11 1.257.356.004.402-1.332 1.277-2.21 1.45-.204.042-.5.1-.649.132-.309.062-2 .004-2.164-.05-.793-.266-.238-.368 1.215-.52.633-.067.933-.22.933-.332-.003-.051-.468-.067-1.16.011-.777.09-.625-.12.34-.578.64-.3 1.64-.465 2.438-.469Zm-13.04.532c.098.004.337.078.731.23.844.227 2.004.485 2.793 1.281.64.575.797.758.664.957-.164.243-2.152.055-2.988-.273-.555-.219-1.211-.688-1.512-1.09-.726-.976-.422-1.234.504-.55 1.117.824 1.281.91 1.48.87.079-.015-.117-.183-.492-.437-.937-.645-1.394-.992-1.18-.988Zm6.88 1.062c.933 0 1.136.067 2.042.45 1.137.37.86.699-1.156 1.156-1.012.215-2.027.062-2.765-.356-1.622-.922-1.516-1.105.3-.691.594.133 1.188.16 1.227.058.027-.078-.695-.25-1.277-.43-.637-.19-.09-.175 1.18-.183.167-.004.316-.004.448-.004Zm46.757 4.047s-.207.09-.297.133c-.074.039-.636.101-1.25.144-1.21.079-2.027.258-2.761.528-1.114.41-1.856 1.672-1.856 1.672.828-.051 5.524.738 6.828-.817.274-.324-.703 2.457-1.203 2.582-1.238-.14-1.761 1.645-1.636 1.57-1.25.442-2.22.7-1.903 2.036.137.578.774 1.27 2.133 1.097-.375 2.309 2.7 2.914 3.043.13 0 0 .598-.106.828-.13 1.402-.3 1.746-2.183-.308-2.785-.57-.156-.602-.254-.602-.254.105-.425.082-.87-.25-1.367.453-.992 1.586-2.91 1.586-2.91Zm.22.574c.28.348-1.196.918-2.767 1.043-.351.024-1.128.09-1.148.121-.168.274 3.04.078 4.04-.433.339-.176.37-.02.222.25-1.16 1.37-3.961 1.027-6.149.785-.125-.117-.02-.258.473-.625.898-.668 1.547-.89 2.969-1.024.394-.007 2.18-.316 2.36-.117Zm1.73 1.422c-.204.586-1.258 2.387-1.258 2.387-.133.117-.594.2-.559-.254.008-.488 1.008-2.504 1.277-2.543.32-.02.555.195.54.41Zm.668.137c.304 2.066 2.007 2.558 3.644 3.215.43.18.793.504 1.227.71.808-1.011-.098-2.98-1.52-3.624-1.059-.453-2.02-.817-2.617-.778-.344.024-.73.227-.734.477Zm.874-.121c.184-.004.446.047 1.399.281 1.441.356 2.457 1.336 2.723 2.625.007.05.082 1.047-.168 1.012-.375-.098-.575-.446-1.18-.68-.75-.289-1.805-.672-2.45-1.215-.523-.437-.808-.906-.87-1.308-.063-.418.09-.461.468-.121.856.625 1.7.84 2.543 1.445.235.168 1.078.601.504.066-.39-.363-1.539-1-2.148-1.27-.848-.374-1.305-.831-.82-.835ZM13.61 88.883l9.641 13.906c-2.379 1.152-3.555 1.652-7.504 1.363l.016.184-1.68-.094c2.89 4.168 6.461 9.602 5.426 19.067l11.777.007s.184.164.203.172c.172.11.43-.183.43-.183l5.312-.02.145.156 2.477-.011s-11.29-19.5-16.961-29.18c-2.328-3.887-4.758-5.613-9.282-5.367Zm60.961.555c.637-.012 1.266.39 1.27 1.167 0 .407-.371.973-.371.973l-.864-.758-.824.758c-.406-.308-.644-.894-.511-1.23.253-.57.808-.899 1.3-.91Zm-9.996.261c.813 2.934 1.688 6.977-5.426 16.305-4.207 5.52-5.59 10.73-5.77 17.09h-.425c.207-3.489.246-9.82.246-9.82l.399-.325s-.18-.265-.258-.582c-.133-.535-.024-.355.324-1.785 1.465-6.902 10.91-20.883 10.91-20.883Zm-37.89 1.285 35.957.207-.48.868-34.798-.286Zm47.93.329 1.331 1.195-1.304 1.347-1.375-1.324Zm-1.098.503-.727.711.629.614c-.652 1.254-2.383.273-2.32-.668.07-1.098 1.465-1.547 2.418-.657Zm2.304 1.422.582-.68-.652-.66c1.074-.972 2.09-.113 2.184.7.105.867-1.368 1.843-2.114.64Zm-42.586-.898 2.946.031-1.098 1.883-2.984-.02Zm6.563.023 2.707.004-1.149 1.91-2.738-.004Zm6.39.012 2.868.004-1.168 1.906-2.946-.004Zm6.422.008 2.938.008-1.074 1.906-3.047-.004Zm6.543.012 2.832.003-1.152 1.91-2.914-.007Zm-31.261-.04 1.902.004-.777 1.254Zm47.433 1.282c1.086.804.328 2.12-.804 2.144-.782.016-1.915-1.203-.684-2.191l.812.691Zm-40.015.949 2.765.004-1.047 1.719-2.707-.004Zm6.148.023 3.031.008-1.07 1.715-2.887-.004Zm6.496.012 3.02.004-.989 1.719-3.05-.004Zm6.473.012 2.996.004-.938 1.715-3.164-.004Zm-24.703.023 1.91.004-.817 1.375Zm1.437 1.996 28.027.274-.476.836-26.844-.04Zm.98 1.5 26.266.102-.605 1.152-9.074-.05c-1.77-1.22-3.797-.66-6.106.027 0 0-6.945.055-9.68-.016Zm-8.745 4.883 13.816 20.121-3.063-.035-13.117-18.93Zm-2.778 1.305 13.043 18.805c-.601-.012-1.156.02-1.758.011.25-3.508-2.82-5.16-4.62-5.246 1.09-4.101-2.165-5.832-4.333-6.16.89-5.332-3.91-6.094-3.98-6.043.023-.437-.067-.754-.13-1.117Zm-2.12.293c-.028.113.245 1.176-.27.98l-.036-.976Zm-2.75.023c.183.707.577.848 1.112 1.324 0 0-.687.106-.843.004-.286-.183-.88-1.336-.88-1.336Zm2.042 1.2c.328 0 .598.25.598.554 0 .305-.27.55-.602.55-.332-.003-.598-.25-.598-.554 0-.304.27-.55.602-.55Zm1.188.425c1.718-.101 4.21 1.598 3.546 4.774-.113-.223-.25-.711-.527-1.059-1.183-1.473-2.582.543-1.644 1.367.46.403.675.563.628.598-1.062-.188-1.867.676-1.425 1.633.73 1.242 1.754.586 2.347-.149 0 0 .364 1.11.723 1.254.555.215 1.32-.058 1.582-.672.39-.914-.55-1.152-.758-1.66 1.988.063 4.52 2.738 3.363 5.055.153-.527-.464-1.711-1.664-1.41-.597.191-.808.992-.324 1.82.153.262.235.36.235.36s-.516.062-.653.14c-1.558.879.442 3.281 1.602 1.781.117-.175.312-.379.312-.379.192.332.25.805.598.965 1.43.664 2.07-.73 1.469-1.418-.336-.386-.719-.836-.719-.836-.059-.246 4.293.813 3.754 4.703l-11.54-.035c1.083-5.976-1.495-12.82-2.812-14.906l.575-.695c.14.258.378.91.8 1.035 1.336.398 1.746-.461 1.57-1.348-.097-.469-.812-.847-1.038-.918Zm3.043 5.633c.316 0 .57.238.57.527-.004.29-.258.52-.57.52-.317 0-.575-.234-.57-.523 0-.29.257-.524.57-.524Zm4.32 6.234c.316 0 .574.239.574.532 0 .293-.258.527-.578.527-.316 0-.574-.238-.574-.527 0-.293.258-.532.578-.532Zm0 0" style="stroke:none;fill-rule:nonzero;fill:#000;fill-opacity:1"/></svg>