<svg xmlns="http://www.w3.org/2000/svg" width="99" height="140"><path d="M9.298 719.743h215.404c4.93 0 8.92 4.005 8.92 8.938v314.362c0 4.934-3.99 8.938-8.92 8.938H9.298c-4.93 0-8.92-4.004-8.92-8.938V728.681c0-4.933 3.99-8.938 8.92-8.938Zm0 0" style="fill-rule:nonzero;fill:#fff;fill-opacity:1;stroke-width:.755906;stroke-linecap:butt;stroke-linejoin:miter;stroke:gray;stroke-opacity:1;stroke-miterlimit:4" transform="matrix(.42308 0 0 .42042 0 -302.435)"/><path d="m24.805 39.82 11.949-11.914-11.95-11.914-11.949 11.914ZM24.805 124.008l11.949-11.914-11.95-11.914-11.949 11.914ZM24.805 81.914 36.754 70l-11.95-11.914L12.856 70ZM74.195 39.82l11.95-11.914-11.95-11.914-11.949 11.914ZM74.195 124.008l11.95-11.914-11.95-11.914-11.949 11.914ZM49.5 60.867l11.95-11.914L49.5 37.04 37.55 48.953ZM74.195 81.914 86.145 70l-11.95-11.914L62.246 70ZM7.277 25.79l3.985-3.974-3.985-3.968-3.98 3.968ZM91.723 114.21l3.98 3.974-3.98 3.968-3.985-3.968ZM11.262 4.945l-3.36 9.871c-.09.254-.312.383-.675.383h-1.32c-.274 0-.41-.082-.41-.242 0-.156.562-1.73 1.683-4.727.656-1.722 1.304-3.445 1.953-5.168h-3.95c-.015.247-.07.602-.16 1.07a.497.497 0 0 1-.265.075H3.723c-.285 0-.426-.098-.426-.293 0-.094.086-.969.258-2.629h7.707ZM87.738 135.055l3.36-9.871c.09-.254.312-.383.675-.383h1.32c.274 0 .41.082.41.242 0 .156-.562 1.73-1.683 4.727-.656 1.722-1.304 3.445-1.953 5.167h3.95c.015-.246.07-.601.16-1.07a.497.497 0 0 1 .265-.074h1.035c.285 0 .426.098.426.293 0 .094-.086.969-.258 2.629h-7.707Zm0 0" style="stroke:none;fill-rule:nonzero;fill:red;fill-opacity:1"/></svg>