<?xml version="1.0" encoding="UTF-8"?>
<svg xmlns="http://www.w3.org/2000/svg" xmlns:xlink="http://www.w3.org/1999/xlink" width="99px" height="140px" viewBox="0 0 99 140" version="1.1">
<g id="surface1">
<path style="fill-rule:nonzero;fill:rgb(100%,100%,100%);fill-opacity:1;stroke-width:0.755906;stroke-linecap:butt;stroke-linejoin:miter;stroke:rgb(50.196078%,50.196078%,50.196078%);stroke-opacity:1;stroke-miterlimit:4;" d="M 9.297585 719.743103 L 224.702415 719.743103 C 229.632812 719.743103 233.621449 723.747651 233.621449 728.681329 L 233.621449 1043.042991 C 233.621449 1047.976669 229.632812 1051.981217 224.702415 1051.981217 L 9.297585 1051.981217 C 4.367188 1051.981217 0.378551 1047.976669 0.378551 1043.042991 L 0.378551 728.681329 C 0.378551 723.747651 4.367188 719.743103 9.297585 719.743103 Z M 9.297585 719.743103 " transform="matrix(0.423077,0,0,0.42042,0,-302.434542)"/>
<path style=" stroke:none;fill-rule:nonzero;fill:rgb(100%,0%,0%);fill-opacity:1;" d="M 24.804688 39.820312 L 36.753906 27.90625 L 24.804688 15.992188 L 12.855469 27.90625 Z M 24.804688 39.820312 "/>
<path style=" stroke:none;fill-rule:nonzero;fill:rgb(100%,0%,0%);fill-opacity:1;" d="M 24.804688 124.007812 L 36.753906 112.09375 L 24.804688 100.179688 L 12.855469 112.09375 Z M 24.804688 124.007812 "/>
<path style=" stroke:none;fill-rule:nonzero;fill:rgb(100%,0%,0%);fill-opacity:1;" d="M 24.804688 81.914062 L 36.753906 70 L 24.804688 58.085938 L 12.855469 70 Z M 24.804688 81.914062 "/>
<path style=" stroke:none;fill-rule:nonzero;fill:rgb(100%,0%,0%);fill-opacity:1;" d="M 74.195312 39.820312 L 86.144531 27.90625 L 74.195312 15.992188 L 62.246094 27.90625 Z M 74.195312 39.820312 "/>
<path style=" stroke:none;fill-rule:nonzero;fill:rgb(100%,0%,0%);fill-opacity:1;" d="M 74.195312 124.007812 L 86.144531 112.09375 L 74.195312 100.179688 L 62.246094 112.09375 Z M 74.195312 124.007812 "/>
<path style=" stroke:none;fill-rule:nonzero;fill:rgb(100%,0%,0%);fill-opacity:1;" d="M 49.5 60.867188 L 61.449219 48.953125 L 49.5 37.039062 L 37.550781 48.953125 Z M 49.5 60.867188 "/>
<path style=" stroke:none;fill-rule:nonzero;fill:rgb(100%,0%,0%);fill-opacity:1;" d="M 74.195312 81.914062 L 86.144531 70 L 74.195312 58.085938 L 62.246094 70 Z M 74.195312 81.914062 "/>
<path style=" stroke:none;fill-rule:nonzero;fill:rgb(100%,0%,0%);fill-opacity:1;" d="M 7.277344 25.789062 L 11.261719 21.816406 L 7.277344 17.847656 L 3.296875 21.816406 Z M 7.277344 25.789062 "/>
<path style=" stroke:none;fill-rule:nonzero;fill:rgb(100%,0%,0%);fill-opacity:1;" d="M 91.722656 114.210938 L 95.703125 118.183594 L 91.722656 122.152344 L 87.738281 118.183594 Z M 91.722656 114.210938 "/>
<path style=" stroke:none;fill-rule:nonzero;fill:rgb(100%,0%,0%);fill-opacity:1;" d="M 11.261719 4.945312 L 7.902344 14.816406 C 7.8125 15.070312 7.589844 15.199219 7.226562 15.199219 L 5.90625 15.199219 C 5.632812 15.199219 5.496094 15.117188 5.496094 14.957031 C 5.496094 14.800781 6.058594 13.226562 7.179688 10.230469 C 7.835938 8.507812 8.484375 6.785156 9.132812 5.0625 L 5.183594 5.0625 C 5.167969 5.308594 5.113281 5.664062 5.023438 6.132812 C 4.941406 6.183594 4.851562 6.207031 4.757812 6.207031 L 3.722656 6.207031 C 3.4375 6.207031 3.296875 6.109375 3.296875 5.914062 C 3.296875 5.820312 3.382812 4.945312 3.554688 3.285156 L 11.261719 3.285156 Z M 11.261719 4.945312 "/>
<path style=" stroke:none;fill-rule:nonzero;fill:rgb(100%,0%,0%);fill-opacity:1;" d="M 87.738281 135.054688 L 91.097656 125.183594 C 91.1875 124.929688 91.410156 124.800781 91.773438 124.800781 L 93.09375 124.800781 C 93.367188 124.800781 93.503906 124.882812 93.503906 125.042969 C 93.503906 125.199219 92.941406 126.773438 91.820312 129.769531 C 91.164062 131.492188 90.515625 133.214844 89.867188 134.9375 L 93.816406 134.9375 C 93.832031 134.691406 93.886719 134.335938 93.976562 133.867188 C 94.058594 133.816406 94.148438 133.792969 94.242188 133.792969 L 95.277344 133.792969 C 95.5625 133.792969 95.703125 133.890625 95.703125 134.085938 C 95.703125 134.179688 95.617188 135.054688 95.445312 136.714844 L 87.738281 136.714844 Z M 87.738281 135.054688 "/>
</g>
</svg>
