<svg xmlns="http://www.w3.org/2000/svg" width="99" height="140"><path d="M9.298 719.743h215.404c4.93 0 8.92 4.005 8.92 8.938v314.362c0 4.934-3.99 8.938-8.92 8.938H9.298c-4.93 0-8.92-4.004-8.92-8.938V728.681c0-4.933 3.99-8.938 8.92-8.938Zm0 0" style="fill-rule:nonzero;fill:#fff;fill-opacity:1;stroke-width:.755906;stroke-linecap:butt;stroke-linejoin:miter;stroke:gray;stroke-opacity:1;stroke-miterlimit:4" transform="matrix(.42308 0 0 .42042 0 -302.435)"/><path d="m7.277 17.848 3.985 3.968-3.985 3.973-3.98-3.973ZM11.262 10.996c0 .957-.063 1.652-.196 2.086-.222.754-.703 1.313-1.433 1.676-.582.293-1.278.441-2.094.441-1.66 0-3.074-.562-4.242-1.683l2.07-1.493c.774.676 1.473 1.012 2.102 1.012.43 0 .707-.207.832-.617.054-.18.082-.512.082-1.004V3.285h2.879ZM87.738 129.004c0-.957.063-1.652.196-2.086.222-.754.703-1.313 1.433-1.676.582-.293 1.278-.441 2.094-.441 1.66 0 3.074.562 4.242 1.683l-2.07 1.493c-.774-.676-1.473-1.012-2.102-1.012-.43 0-.707.207-.832.617-.054.18-.082.512-.082 1.004v8.129h-2.879ZM24.805 35.848l7.965-7.942-7.965-7.941-7.965 7.941ZM91.723 114.21l3.98 3.974-3.98 3.968-3.985-3.968ZM74.195 120.035l7.965-7.941-7.965-7.942-7.965 7.942Zm0 0" style="stroke:none;fill-rule:nonzero;fill:red;fill-opacity:1"/><path d="m12.93 123.96-.075-107.968 73.29.215-.063 107.8Zm26.402-89.933c-2.621-.656-2.559 1.723-.64 1.813 2.148.172 3.074-3.176 2.05-4.496 0 0-.898 2.523-1.41 2.683Zm-17.027 13.43-3.149 1.277-.015 2.149c1.312-.953 2.34-2.113 3.164-3.426ZM43.699 112c-.62-.29-1.367-.902-1.25-1.012.055-.05.39.047.696.172 2.457.95 4.367.89 7.304-.078.219-.074.551.313.426.523-1.3 1.754-5.504 1.125-7.176.395Zm-1.293-2.637c-.566-.777.184-.187.434.032 1.82 1.55 4.285 2.074 6.402.62.098-.1.113-.19.082-.261-.058-.145-.058.008-.965.297-2.03.691-3.746.117-5.414-1.051-.687-.488-1.004-.727-1.004-.852 0-.117.13-.187.36-.152.144.024.543.098.836.121.508.04.468.02.988-.199 1.117-.469 2.14-.64 3.305-.45.27.048.61.13.652.114.262-.078-.121-.39-1.105-1.11-.196-.14-.438-.261-.516-.382-.125-.188.012-.238.152-.238.407.007 2.223 1.398 2.848 2.226.187.25.32.277.32.54-.035.269-.086.53.239.91.226.273.449.71.453.734 0 .023-.047.16-.258.031-.098-.016-.14-.11-.32-.086-.153.02-.403.129-.676.246-2.555 1.5-4.903.766-6.813-1.09Zm5.59-.097c.05.004-.176-.86-.43-1.114-.507-.504-1.28-.593-1.75-.082-.261.29-.55 1.094-.55 1.094s.41.11.523.11c.016-.18.02-.684.426-.981.2-.14.629-.137.797-.02.332.153.472.758.476.993.184.05.602.004.508 0Zm-3.082-1.246c-.363.144-.828.242-.937.464-.141.29.359.375.617.477.36.156.367.098.484-.152.074-.16.168-.368.262-.555.27-.477 0-.41-.426-.234Zm3.89.828c.208-.188.247-.313.063-.528-.082-.097-.32-.199-.582-.277-.332-.106-.476-.227-.27.184l.297.59c.157.285.29.206.493.03ZM14.782 88.672c.125 0 1.383-.375 1.832-.559.442-.152.496-.148.32-.37-.066-.087-.12-.325-.085-.583l.03-.363c-.773-.145-1.929.246-2.327.742-.281.316-.254 1.02.23 1.133Zm-.16 1.762c.234.214.3.222 1.008-.016.246-.148.762-.336 1.125-.36.851-.206.851-.124.613-.62-.113-.231-.148-.418-.113-.63.043-.253.074-.285-.082-.331-.406-.118-2.297.527-2.637 1.03-.242.352-.207.657.086.927Zm44.418 15.328c-.125.172-.34.468-.43.672-.156.347-.062.418 0 1.101.036.399.043 1.016.043 1.348.004.633-.007.832.203.867.188.035.274-.094.364-.426.047-.164.156-.336.187-.441.133-.715.383-1.906.95-2.406.078-.059.304-.098.722-.102.508-.004.672-.02.828-.125.89-.71.192-1.633-.601-1.7-.922-.073-2.192 1.087-2.266 1.212Zm3.535-.293c.055.82-.84 1.379-1.746 1.187-.367-.086-.48-.008-.726.469-.54 1.316-.75 2.64-.895 3.504-.062.777-.379 2.8-.152 3.445 2.586 2.926 5.304 5.95 8.285 8.961l17.754.043.133-19.094-5.149-4.46.02-7.067c-5.524 2.371-11.028 4.773-16.54 7.164 1.196 3.52-2.874 4.25-3.765 1.895-.773.644-1.41 4.136-1.125 4.308 0 0 .102.125.273-.152a2.902 2.902 0 0 1 1.043-1.016c1.149-.644 2.516-.324 2.59.813Zm-14.125-.371c-.87-.637-.402-1.602.32-1.887.383-.152 1-.133 1.676.086.594.25.95.215 1.563.148.402-.039.328.735-.098.934-.297.14-.98.07-1.808-.36-1.434-.75-2.063.215-1.176 1.09.488.48-.352.098-.477-.011ZM18.957 93.496c.77-.45.45-1.246-.262-1.379-.96.016-1.207 1.024-.52 1.375 0 .121-.343.02-.527-.105-.285-.196-.023-.961-.289-.992-.203 0-2.191.64-2.406.77-.89.46-.055 1.503.461 1.386 1.078-.246 2.54-.465 3.543-1.055ZM14.523 92c.02.465.16.672.497.676.695-.11 1.347-.414 2-.606.507-.152.714-.324.328-.617-.118-.121-.223-.297-.164-.633.132-.382.03-.402-.145-.422-.18-.02-.586.137-1.625.5-.547.192-.652.274-.793.547-.066.211-.105.34-.098.555Zm5.778 6.004c.12-.129.39-.938.39-1.137-.054-.336-.324-.41-.566-.195-.293.238-.215.598-.387.875-.062.098-.125.23-.11.285.095.29.49.344.673.172Zm2.285-4.406c8.906-8.649 14.434-20.621 4.82-37.153-1.082-.422-1.418 1.184-1.52 1.25l-1.234.977c6.512 10.293 5.36 22.117-2.632 30.52l.007.535c.02 1.171.391 1.12.93.574.574-.551.191-.102-.043.125-.203.195-.523.582-.61.683.102.704.587 2.02.282 2.489ZM22 90.996c-.094-.234-.188-.77-.238-1.18-.032-.27-.043-.52-.059-.78-.09-.524-.324-1.716-.512-1.981-.203-.285-.699-.493-1.253-.524-.473-.031-.512-.023-.614.121-.176.239-.058 1.461.117 1.91.2.528.082.813-.082 1.333-.054.19-.074.203.028.214.441-.027.59-.523.765-.375.059.055-.093.461-.3.875-.223.434-.286 1.036-.028 1.774.145.41.082.543-.008.789-.058.168-.16.68-.164 1.187.207.637.102.918-.02 1.13-.265.538-.472 1.273-.331 1.683.062.18.226.027.347-.281.188-.61.407-.746.954-.746.398 0 .437.128.57-.036.3-.37 1.031-1.68 1.047-2.046.285-.934.3-1.735-.219-3.067Zm4.246 6.133c.238-.086.613-.55.613-.711 0-.18-1.488-1.508-2.109-1.871-.281-.168-.414-.05-.914.562-.441.543-.5.547-.418.653.098.125 1.617 1.031 2.121 1.285.176.09.469.164.707.082Zm2.797-2.356c-.223-.156-2.004-1.968-2.535-2.058-.2-.035-.848.637-.848.789 0 .105 1.113 1.144 1.902 1.773.227.18.473.328.555.328.25-.117.895-.59.926-.832Zm1.898-1.703c0-.11-.195-.328-.675-.761-1.223-1.102-1.903-1.606-2.118-1.602-.234.07-.66.723-.687.95.082.136 2.125 1.835 2.39 2 .329.288 1.044-.384 1.09-.587Zm1.922-1.75c.055-.164-.047-.3-.308-.527-.184-.16-.832-.746-1.446-1.3-1.289-1.161-1.289-1.161-1.707-.622-.425.559-.422.563.832 1.684 1.336 1.195 1.649 1.437 1.856 1.437.32-.133.664-.355.773-.672Zm-14.347-1.066a.683.683 0 0 0-.61.105c-.949.735.395 1.684.95 1.094.37-.332.355-1.047-.34-1.2Zm16.324-.75c0-.125-.278-.402-1.235-1.238-2.363-2.067-2.257-1.989-2.52-1.86-.163.078-.483.633-.483.84 0 .156.226.367 1.98 1.867 1.027.88 1.332 1.102 1.508 1.102.281-.125.734-.399.75-.711Zm-16.266.058c.465-.187.555-.644.29-1.007-.505-.41-1.208-.075-1.22.453.086.492.544.699.93.555Zm18.211-1.792c0-.247-4.047-3.715-4.336-3.715-.195 0-.336.144-.52.535-.16.344-.144.543.055.719.293.257 1.075.918 1.817 1.535.437.363.941.797 1.12.965.415.39.876.695 1.052.695.25-.133.601-.317.812-.734Zm-18.418-.47a.507.507 0 0 0-.144-.386c-.278-.27-.797-.129-.926.23-.121.844 1.031.883 1.07.157Zm3.04-26.956.796-2.215 2.422-.055.344-2.203 2.492-.324.043-2.274 2.387-.296-.145-2.438 2.215-.473-.106-2.257 2.008-.559-.078-1.965.348-.246-.867-.809-.75.22-.016 2.019-2.008.586.207 2.234-2.031.422-.027 2.426-2.332.238-.168 2.14-2.278.407-.34 2.098-2.207.132-.675 1.844-1.457.016-.004 1.234Zm26.304 39.664c-.078-.164.121-.14.469.058.36.211.886.387 1.265.387.157 0 .715-.09 1.242-.2.63-.21 1.188-.222 1.84-.093.485.059.977.11 1.086.11.328.039.88-.325 1.024-.555.402-.625.304.512.308.64.004.582.082 1.25-.37.938-.27-.129-.743-.242-1.118-.012-.379.23-.691.278-1.137.035-.363-.132-.554-.16-.828.07-.3.259-1.039.165-1.433.048-.676-.106-1.055-.196-1.508.132-.246.125-.305.032-.489-.457-.18-.492-.324-1.039-.351-1.101Zm1.723-.406c-.043-.067.324-.391.57-.504.719-.34 2.152-.325 3.176.023.535.18.613.488.097.422-1.082-.207-2.437-.379-3.484.074-.082.04-.336.012-.36-.015Zm.918-1.543c-.739-.25-1.102-.52-1.102-.606 0-.09.16-.074.738.074.793.27 1.73.41 2.512.16.559-.187.84-.308.84-.19 0 .116-.23.433-.617.612-.77.286-1.782.149-2.371-.05Zm16.046-1.856.547-.07-.187-2.09 2.02-.547-.137-2.078 2.152-.676-.125-2.34L72.906 88l.297-2.047 2.11-.137.44-2.226 2.27-.07.473-1.852 1.508-.008L80 80.621l-2.352.004-.503 2.004-2.22.055-.472 2.203-2.328-.02-.3 2.375-2.188.324-.004 2.559-2.113.496.16 2.188-2.11.699.239 2.09ZM80.57 47.145c-.3.195-.414.585-.324.902.297.719 1.344.496 1.469-.027.062-.223-.102-.567-.387-.641-.05-.012-.226 0-.32-.086-.067-.063.351-.258.594-.184.308.094.558.465.558.786 0 .125-.039.308.008.37.508-.011 1.086-.265 1.629-.402.918-.23 1.25-.71 1.047-1.273-.168-.469-.692-.656-1.383-.422-.95.324-2.059.48-2.89.977Zm-39.215 51.3c3.106-1.992 4.938-3.129 8.922-3.32-1.422-.535-1.652-1.238-2.05-1.91-4.938.422-7.559 1.86-9.907 3.2.97.417 1.977.905 3.035 2.03Zm17.31-2.746c-1.505-.972-3.294-1.562-5.153-2.02l-1.426 1.348c-.082-.047 4.125.043 6.578.672Zm14.472-12.777c-9.688-13.645-3.149-25.633 3.613-33.27.219-.25.27-.265.223-.465-.067-.261-.141-1.585-.09-2.351-12.5 11.285-12.84 26.012-5.028 37.707.56-.457 1.688-1.066 1.282-1.621Zm1.46-1.164c-1.593-2.426-10.062-15.57 2.926-30.207 0 0-.043-.746-.14-1.028-.172-.503-.442-.707-.442-.707-5.457 7.465-13.386 16.805-3.523 33.051Zm-7.39-24.727c.195-.144.477-.668.477-.886 0-.192-.153-.356-1.614-1.711-1.945-1.813-2.28-2.09-2.53-2.09-.24 0-.852.531-.852.738-.004.098.57.664 1.921 1.898 2.512 2.297 2.395 2.204 2.598 2.051Zm1.8-3.328c0-.11-.179-.324-.605-.726-1.125-1.063-2.734-2.407-2.875-2.407-.18 0-.672.364-.8.59-.09.16-.09.195.015.348.2.285 2.711 2.469 3.426 3.02.43.359.82-.551.84-.825Zm.973-1.351c.2-.098.579-.743.536-.907-.024-.078-.66-.707-1.418-1.394-1.496-1.367-1.586-1.418-1.957-1.114-.34.278-.555.555-.512.668.05.133 2.293 2.223 2.754 2.563.36.266.402.281.597.184Zm11.454-.086c.707-.618-.094-1.297-.676-.985-.246.137-.395.442-.317.645.125.336.621.52.993.34Zm1.394-.157c1.195-.285 1.766-.476 2.02-.816.172-.234.191-.379-.004-.762-.18-.355-.387-.465-1.137-.09-.512.254-1.656.38-2.059.594-.16.125-.082.125.047.2.29.167.43.28.399.5-.07.48-.016.554.734.374Zm-1.262-1.71c.582-.27.465-.926-.18-1.188-.855-.203-1.406.734-.706 1.191.187.121.66.102.886-.004Zm1.93-.262c.836-.262 1.16-.469 1.402-.89.192-.337.11-.485.086-.81-.039-.492-.308-.437-1.09-.18-.382.134-2.207.602-2.234.77.883.461.656.703.664 1.293.043.133.457.035 1.172-.183ZM72.07 49.34c0-.223-2.336-2.32-2.586-2.32-.386-.004-.941.546-.859.847.04.137 2.23 2.16 2.504 2.309.387.207.918-.504.941-.836Zm1.348-1.305c.102-.074.281-.262.398-.418.254-.336.239-.523-.066-.699-.11-.066-.598-.473-1.09-.902-.488-.434-.95-.809-1.027-.832-.403-.051-1.133.539-1.059.84.043.16 1.836 1.777 2.235 2.019.257.156.382.152.609-.008Zm3.176-3.12c0-.06-.406-.298-1.059-.622-1.992-.992-2.027-1-2.648-.54-.215.161-.39.34-.39.403 0 .067.429.489.98.965 1.144.992 1.425 1.203 1.582 1.203.332-.219 1.484-1.133 1.535-1.41Zm2.793-.927c.246-.27.523-1.203.394-1.39-.12-.11-.433-.094-.582.03-.152.126-.535 1.298-.476 1.438.058.141.449.075.664-.078Zm-21.84 39.715c.187-.023.558-.234 1.098-.656.574-.45 2.394-1.45 2.593-1.856.086-.226.024-.558-.164-.582-.144-.02-.176.082-1.386.88-.817.534-2.254 1.491-2.47 1.695-.093.218.118.496.329.52Zm-.18 6.422c1.246-.79 2.258-1.605 3.883-2.52a.562.562 0 0 0 .07-.558c-.097-.227-.226-.14-.718.172-1.2.734-2.43 1.601-3.461 2.246-.332.203-.61.316-.543.43.093.152.605.199.77.23Zm1.211.484c.82-.609 1.8-1.195 2.676-1.785.125-.113.156-.488.031-.644-.101-.121-.02-.098-.262.027-.351.184-2.472 1.5-2.867 1.797-.23.176-.422.262-.367.324.266.156.547.25.79.281Zm1.027.477c.172-.106 1.63-.953 1.747-1.066.132-.13.097-.707-.036-.754-.367.265-2.312 1.343-2.316 1.52.2.163.46.312.605.3Zm1.56.121c.222-.187.269-.219.273-.43.007-.382-.094-.363-.688.024-.414.242-.668.414-.594.562.293.418.711.09 1.008-.156Zm.16.773c.116-.039.116-.093.1-.226-.019-.149-.042-.14-.218-.14-.473.015-.047.406.117.366Zm-5.669-2.132a3.92 3.92 0 0 1 1.008-1.641c1.961-1.582 1.363-3.535.129-5.125a133.654 133.654 0 0 0 4.582-6.2v-3.23l.188.016c-.075 7.05.261 18.613.261 18.613l1.586 1.114-.21.093c.26-.035-4.63-2.84-7.544-3.64Zm1.442-.805c1.355-.93 2.672-1.664 4.02-2.656.14-.11.226-.114.23-.36.007-.465-.094-.468-.594-.14a117.6 117.6 0 0 1-1.813 1.14c-.808.496-1.558.938-1.707 1.098-.757.797-1.039 1.176-.96 1.29.081.12.234-.009.824-.372Zm1.48-2.262c.695-.418 2.363-1.472 2.516-1.601.261-.227.308-.59.07-.63-.113-.023-1.406.763-2.496 1.516-.531.368-.648.454-.648.797 0 .211.136.172.558-.082Zm.695-1.644c2.137-1.383 2.082-1.266 2.036-1.782-.016-.175-.055-.253-.141-.27-.066-.01-.445.235-.871.509-.426.273-.93.636-1.184.8-.746.47-.988.594-.992.864 0 .265.078.433.207.433.05 0 .473-.25.945-.554Zm-.304-1.075c.984-.632 2.07-1.347 2.215-1.515.18-.207.148-.656-.079-.656a42.005 42.005 0 0 0-3.011 2.015c-.11.086-.246.168-.29.281-.007.149.192.344.274.348.16 0 .414-.164.89-.472Zm-.637-2.148c.75-.465 1.434-1.016 2.18-1.48.562-.352.718-.461.687-.899-.02-.254-.261-.11-1.21.465-.7.426-1.02.59-1.266.879-.172.367-.743.71-.774 1.129 0 .152.11.078.383-.094Zm2.309-2.789c.578-.348.632-.355.57-.82-.078-.582-.145-.547-.695.222-.364.504-.489.653-.434.746.094.16.2.067.559-.148Zm-2.094-4.273c-.063-.258-.149-.204-.438.03-.535.43-.62.74-.289.903.18.086.317.074.418-.137.23-.457.293-.617.309-.796Zm-2.996 4.054c-.07-.238-.387-.558-.625-.672-.239-.113-.383-.09-.61.172-.21.242-.113.387.204.754.23.266.32.352.503.352.22-.078.57-.352.528-.606ZM43.957 89.062c-.152-.269-.477-.554-.625-.507-.156.05-.309.257-.312.386.066.266.308.446.496.45.355-.047.57-.102.441-.329Zm1.41-.41c-.304-.293-.906-.941-1.004-.941-.152 0-.523.352-.523.496 0 .172.547.875.73.934.461-.04 1.309.007.797-.489Zm1.742.086c-.03-.14-1.742-1.812-1.87-1.812-.165 0-.489.328-.489.48 0 .121.555.781 1.066 1.274.254.242.278.277.59.234.34-.047.785.02.703-.176Zm3.036-.367c0-.336-.192-.523-.965-1.289a56.02 56.02 0 0 1-1.055-1.074c-.578-.606-.828-.793-1.059-.793-.18 0-.46.27-.46.441 0 .11 1.425 1.606 2.714 2.88.285.28.414.362.688.23.16-.102.137-.266.137-.395Zm-2.227-4.008c-.293.219-.398.309-.402.453 0 .223 2.457 2.696 2.675 2.696.13 0 .11-.016.188-.282.152-.804-.086-1.043-.723-1.578-.43-.355-1.289-1.586-1.738-1.289Zm4.344-1.648c-.688-.75-1.067-1.098-1.207-1.098-.094 0-.239.086-.39.238-.259.223-.235.215-.071.48.082.138.32.407.523.603.38.355.57.468.754.3.164-.152.563-.332.39-.523Zm-.356-1.875c-.168 0-.449.273-.449.426 0 .125.555.765.945 1.086.313.257.461.324.68.156.164-.215.129-.414.027-.582-.28-.29-.886-1.07-1.203-1.086Zm1.93.187c-.004-.218-.707-1.054-.93-1.14-.183 0-.578.394-.578.578 0 .097.152.312.406.586.5.531.63.648.739.566.18-.137.367-.375.363-.59Zm.797-.941c.047-.184-.078-.371-.36-.695-.351-.403-.523-.43-.855-.118-.121.114-.176.215-.176.27-.004.156.735 1.012.871 1.012.317-.035.41-.246.52-.47Zm-1.301 2.117c-.066.277-.191.457-.484.586-2.25 1.477-2.184 3.89-2.664 6.117-3.645-.035-9.403 1.32-9.368 1.395l19.38-17.82s.242.054.093.21c-1.566 1.028-1.473 3.028-2.504 4.028-1.726 1.902-3.328 3.547-4.453 5.484ZM42.816 89.48c.032-.203-.171-.257-.347-.093-.176.156-.106.281.14.254.133-.012.192-.059.207-.16Zm5.965-.742c.074-.172-.097-.328-1.133-1.383-1.046-1.066-1.285-1.316-1.468-1.316-.153 0-.532.348-.532.492 0 .067.168.281.368.48.203.2.586.587.851.864.457.48.676.71.848.824.172.11.3.102.578.102.375.004.457.011.488-.063Zm1.801-3.347c.07-.207.172-.395.176-.473 0-.145-1.324-1.383-1.547-1.516-.27-.16-.773.36-.648.66.035.086.425.508.874.946.567.55.852.812.946.8.094-.015.105-.144.199-.417Zm.555-1.297c.097-.13.18-.301.18-.383 0-.09-.223-.336-.54-.66-.59-.61-.742-.68-1.066-.399-.324.282-.215.414.352 1 .71.739.789.828 1.074.442Zm5.078-5.793c.222-.239.226-.36.023-.578a41.815 41.815 0 0 1-.273-.301c-.184-.2-.426-.168-.672.09-.121.125-.2.25-.2.293 0 .039.13.21.286.379.348.37.562.414.836.117Zm.777-.914c.153-.211.086-.442-.195-.676-.266-.219-.399-.23-.586-.04-.25.25-.207.337.059.61.304.305.546.352.722.106Zm.625-.758c.207-.192.203-.352.02-.57-.176-.204-.356-.258-.54-.168-.32.156-.285.425.028.726.191.184.281.203.492.012Zm-14.863 38.039c3.96.41 8.219.7 15.73-.36l.04-2.328c-2.344 1.668-5.415.52-5.59-1.402-.02-1.71.484-3.683.91-5.09.312-1.047.402-1.453.11-1.656-.645-.332-1.798-.375-2.09-1.074-.137-.367-.153-.758.054-.477.094.125.84.446 1.426.567 1.015.207 1.18.277 1.293.66.074.238-.098 1.07-.364 1.82-.195.535-.418 1.399-.418 1.567 0 .18.153.21.329.16.074-.02.433-.348.66-.532.976-.793 1.261-.77.426.008-.333.309-.793.735-.793.77 0 .164.171.144.546.023.579-.191 1.93-.168 2.532.11.75.347.78.332.765-.711-.133-1.95-.476-4.254-1.168-6.051-1.054-2.746-3.25-5.293-6.5-5.184-3.96.184-6.355 1.625-9.05 3.348 1.62 3.3-.735 5.824-1.586 6.156-.086.035 1.058 3.356 1.547 5.047.445 1.531 1.19 4.629 1.19 4.629ZM59.73 35.102c-.093-.22-2.285-6.786-2.898-9.528-5.957-.324-10.363-.781-15.61.57 0 0-.117 1.852-.062 1.942.055.227.235.223.383.148 2.422-1.214 5.047-.664 5.227 2.336.066 1.149-.356 1.953-.434 3.04-.066.949-.887 2.214-.39 2.937.062.086.41.262.886.45.89.347 1.238.667 1.3 1.198.098.367-.148.614-.222.239-.047-.239-.09-.45-1.187-.797-1.07-.336-1.36-.723-1.465-.93-.149-.281-.121-.48.02-.93.292-.957.581-1.93.558-2.39-.012-.168-.211-.086-.469.113-.328.254-1.722 1.09-1.762 1.055-.02-.016.23-.356.622-.696.476-.414 1.066-.914 1.066-1.007 0-.16-.07-.047-.531.074-.801.203-1.723.172-2.344-.078-.527-.215-.895-.336-.973-.223-.199 2.922.27 5.938 1.61 8.29 1.199 2.136 3.695 4.812 7.453 4.218 3.879-.617 7.66-3.465 7.527-3.469-1.445-3 .207-5.23 1.695-6.562Zm-30.886 79.746c-1.715-1.578-6.051-3.297-9.028-4.086-.238-.047-.472-.149-.476.11l-.043 5.401-5.332 4.551.09 2.227 11.3-.035 7.516-10.04s.36-.058.399-.12c-1.368-5.336-3.434-9.602-4.75-11.739.023.028-1.895 1.41-3.579-.316-.941-.969-.359-2.668.54-3.29-.758-.511-2.325-1.433-3.352-1.702-.215-.047-.531.347-.637.703-.187.582-.504 1.101-.715 1.687-.23.489-.453.563-.797.426a11.025 11.025 0 0 1-.675-.195l.008 6.347c4.109 1.309 8.335 4.653 9.53 10.07ZM46.027 47l1.22-1.207c-1.927-.219-3.946-.535-6.31-1.215 1.641 1.113 3.36 1.809 5.09 2.422Zm-6.687-3.406c2.148.656 4.863 2.183 8.258 1.613-3.094-1.125-5.438-3.746-6.43-9.082-.223 1.035-.676 3.188-1.39 3.418-.997-3.54-5.024-1.484-3.415 1.402-4.082 2.559-8.988 3.996-13.437 5.965 0 0-.672 1.88-4.008 4.445-.625-3.015.129-7.488-.254-10.52l-5.219-4.515c.078.86.043 1.395 0 2.399.14.176.34.265.543.375.313 17.375-.168 34.547-.187 50.324-.063 9.668.203 19.742.035 28.871l-.2.332.009 2.184 5.34-4.637s-.243-3.293.038-5.809c3.364.625 6.504 2.075 9.317 3.66.351.094-1.719-6.324-9.285-9.18 0 0-.008-2.003 0-6.355.004-4.199-.067-4.644-.168-4.714-.309.304-4.184 1.492-4.38 1.293.106.03-1.081-7.438-.046-8.57l3.707.077c1.059.782.633-.172 1.25-.328.367-.09 2.082.524 2.082.524 7.074-7.61 6.387-20.137 1.328-27.192-1.3.961-2.683 2.266-3.984 2.824-.016-.043-.02-3.886-.02-3.886 6.754-3.95 14.11-15.407 13.64-15.446 0 0 2.09 1.864 2.9 2.914l-6.676 8.81c1.523 2.808 3.062 5.355 4.062 7.823.133.336.55.328.656.68.09.3-.312.715-.258 1.047 1.399 4.914 1.711 10.129.317 14.847-.293 1.067.238 1.926.953 2.727.062.07-.664-.574-.73-.61-.247-.136-.665.34-.754.946.058.371.277.438.57.738.512.39 2.555 2.23 3.453 3.07.797.747 1.004.782 1.543.254.152-.128.309-.304.457-.417.027.043.227-.145.293-.207l12.047-10.715c1.398-1.246-12.027 11.242-12.027 11.242s-6.512 5.828-8.11 7.262c-1.648 1.484-1.875 1.808-1.937 1.918-.121.199.53.195.824.152.023 0-.246.058-.524.055-1.691-.348-2.27 1.363-3.34 1.707-2.828 1.828-.93 4.773 1.77 3.804l.656-.285c1.633 2.777 3.985 7.836 5.086 12.23l-.449.192-7.129 9.742 40.356.051c-2.895-2.64-5.356-5.883-7.864-8.309-4.027 1.098-16.195.856-16.004.38 0 0-1.832-6.817-2.867-10.169 3.313-2.586 2.977-6.668-1.824-8.507 3.5-2.52 7.023-3.372 10.453-3.57 1.113 2.589 3.727 2.753 4.965.386.012-.027 4.64 1.308 6.344 2.746-2.531-.242-5.031-.707-7.563-.82 2.227.808 4.496 2.914 5.219 5.316.355.86.895 3.692 1.04 3.703 0 0 .85-3.27 1.507-3.09 1.664 3.188 4.55.793 3.34-1.746 4.258-1.851 9.05-3.918 12.968-5.636 1.145-1.57 3.961-4.559 4.145-4.57 0 0 5.207-27.052 5.219-36.098-.156-10.871.273-22.977-.227-33.149v-2.922l-10.918-.008-7.804 10.461s-.063.164-.059.239c1.055 4.226 2.414 7.824 4.55 11.73 2.958-2.035 5.446 1.324 3.227 3.27-.418.367-.308.46.11.715.41.253 3.21 1.542 3.343 1.542.508-.687.657-1.703 1-2.48.086-.293.329-.332.817-.277.629.066.625.308.61-3.344l-.013-3.137c-3.785-1.601-8.796-5.66-9.023-9.875 2.188 1.457 7.219 3.582 8.563 3.774.59.148.5-.79.52-1.168.155.097.214 1.55.214 1.55-2.223-.617-3.39-.492-8.934-3.437.946 4.148 5.485 7.422 8.778 8.918 0 0 .136 1.969.125 4.176-.032 6.73.043 7.027.043 7.027 0-.004 1.812-.422 2.316-.648.902-.657 2.34-.153 2.54.332.288 2.539.003 4.894-.06 7.32-1.539.098-2.378.39-3.136.418-.492-.059-.793-.063-1.043-.32-.73-1.45-.684-.532-.778.558-.066.32-1.902-.242-2.085-.34-7.942 8.332-7.278 17.938-1.907 26.836.89-.547 2.426-1.593 3.957-2.277.035 1.129.051 3.46.051 3.46-6.21 4.153-13.66 15.169-13.41 15.2l-2.52-2.754s1.594-2.304 2.153-2.914c.066-.07.11-.785.11-.785l3.859-5.086c-1.739-2.824-2.926-5.234-4.16-8.012-.07-.23-.372-1.23-.305-1.324-2.555-10.617.238-15.894.03-16.297 0 0-.03-.21-.085-.254-.086-.062.02-.125.117-.277.184-.293.477-.895.375-1.074-.074-.133-2.156-2.04-3.941-3.61-.938-.828-.899-.921-1.387-.472-.18.168-.625.644-.625.644-6.465 5.45-11.598 10.418-18.09 16.223l-.308-.258c9.441-8.555 18.968-17.02 28.316-25.656l-1.64.023c.046-.11.113-.21.21-.238.88 0 1.785-.242 2.442-.582 1.332-.902 3.246-2.11 3.398-3.3-.094-2.298-2.21-2.634-3.742-1.513-2.121-3.492-3.797-7.69-4.695-11.613-.043-.195-.34-.531-.387-.754.457-1.3 7.691-10.28 7.691-10.28l-40.55-.052 7.707 8.407c0-.332 11-1.508 16.035-.098l3.054 9.96c-2.792 2.458-3.62 6.505 1.5 8.622.102.195-.484.52-.484.52.082-.122.223-.247.164-.36-1.379-.55-2.855-1.953-2.855-1.953-3.09 2.2-5.973 3.422-8.797 3.527 0 0 1.492.926 1.777 1.938 0 0-.137-.016-.176-.055-.304-.344-1.007-1.45-1.597-1.773-1.004-.223-1.602-.063-2.395.437l-1.074.945c-2.465-.687-5.2-1.812-6.703-3.511Zm-.445 24.37 1.125-1.015c.128-.75.351-1.707 1.304-2.746 1.055-1.156 2.223-2.242 3.082-3.27 1.032-1.234 1.594-2.351 1.324-2.87 1.536-.25 2.946-1.489 2.997-3.735.02-1.183.644-2.902.691-2.879 0 0 10.719-.32 18.102-6.734 0 0 .515.101.394.187-2.797 2.555-5.77 4.434-9.285 5.633L39.234 68.188Zm2.144-2.026c.29-.266.356-.352.191-.477-.25-.188-.73.203-.73.594 0 .25.215.175.54-.118Zm1.004-.899c.23-.203.223-.348.035-.523-.262-.239-.644-.094-.773.293-.13.386.379.546.738.23Zm.887-.816c.117-.125.215-.25.215-.282 0-.136-.372-.445-.532-.445-.21 0-.582.316-.582.496 0 .149.371.453.555.453.07 0 .223-.097.344-.222Zm.832-1.52c-.262-.2-.438-.203-.653-.004-.254.23-.23.485.075.727.226.219.324.195.636.023.258-.242.305-.469-.058-.746Zm.976-.133c.285-.218.246-.398-.066-.683-.324-.297-.578-.301-.809.015a.5.5 0 0 0-.105.27c0 .117.539.558.68.558.078 0 .183-.07.3-.16Zm.942-.847c.242-.23.21-.395-.137-.723-.29-.273-.492-.297-.75-.078-.27.226-.215.465.086.738.305.278.531.32.8.063Zm1.066-.98c.176-.173.129-.161.004-.345-.195-.289-.762-.765-.926-.77-.203 0-.383.298-.379.59 0 .294.157.41.559.704.27.191.187.21.394.101.114-.062.27-.187.348-.28Zm.844-.704c.383-.398.308-.473-.61-1.36-.312-.3-.375-.335-.597-.32-.215.016-.227.067-.336.27-.203.375-.055.566.523 1.129.594.578.684.629 1.02.281Zm.945-.926c.145-.117.246-.254.246-.343 0-.153-.746-.91-1.011-1.047-.188-.098-.383-.043-.63.148-.148.113-.144.14-.109.27.059.207 1.016 1.129 1.172 1.129.067 0 .195-.047.332-.157Zm.934-.828c.16-.144.285-.324.285-.402 0-.168-.8-1.016-1.05-1.137-.212-.101-.333-.059-.544.207-.238.309-.144.45.332.953.45.477.594.621.68.621.027 0 .14-.097.297-.242Zm.886-.867c.204-.11.47-.348.36-.543-.113-.2-1.516-1.559-1.668-1.633-.297-.148-.29.063-.29.735v.351l.645.578c.942.848.73.64.953.512Zm1.145-.957c.11-.102.215-.273.215-.336-.582-.652-2.278-2.707-2.582-2.629-.031.008-.047.008-.067.066-.078.208-.109.633-.054.977.531.469 1.793 2.004 2.078 2.098.172.062.246-.028.41-.176Zm.91-.871c.11-.094.195-.223.195-.281 0-.063-.187-.278-.386-.496-.2-.215-.594-.653-.871-.973-1.598-1.824-1.711-1.961-1.957-1.774-.16.121-.2.551-.121.711.14.278 1.882 2.203 2.445 2.7.355.316.426.347.695.113Zm.922-.805c.137-.117.25-.273.25-.347 0-.07-.258-.368-.527-.66-.27-.29-.72-.782-.996-1.098-.72-.809-.723-.836-1.258-.887-.813-.078-.703.086.215 1.066.218.239.64.707.93 1.043.679.785.98 1.075 1.117 1.075.058 0 .132-.075.269-.192Zm.938-.84c.417-.316.335-.422-1.016-1.699-.441-.418-.473-.484-.816-.488-.348 0-.461.066-.461.219 0 .093 1.761 2.011 1.886 2.058.176.063.196.074.407-.09Zm.988-.918c.11-.109.203-.25.203-.312 0-.137-.383-.582-.742-.871-.168-.133-.38-.274-.512-.274-.23 0-.625.117-.695.22-.043.065.48.655.992 1.151.34.329.473.356.754.086Zm.867-.785c.215-.199.215-.379-.008-.648-.16-.192-.21-.211-.543-.211-.629 0-.644.144-.16.62.363.356.461.466.711.24Zm.926-.832c.246-.281.035-.437-.367-.273-.094.043-.145.144-.164.191-.125.297.296.356.53.082Zm-15.465 2.387c-.895.512-2.398 1.488-3.422 2.144a2.651 2.651 0 0 0 0 .774c.578-.36 2.441-1.442 3.29-2.055.042-.23.105-.633.132-.863Zm1.64-2.371c-.027-.137-.128-.051-.394.152-.348.27-3.289 2.254-4.07 2.754-.297.191-.578.352-.61.418-.03.063-.058.605.055.742.637-.445 3.66-2.293 3.707-2.36.313-.452 1.012-1.245 1.313-1.706Zm-.343 6s-3.613 3.957-4.774 5.93c0 0-.011 2.257-.047 3.554l-.199.05s-.011-3.483-.054-7.265c-.106-9.449-.204-11.742-.204-11.742l-1.171-.785-.047-.371s5.191 3.332 7.726 3.863c-1.86 2.653-3.57 3.672-1.23 6.766Zm-4.285 4.73c.07-.156.023-.148-.13-.144-.105.004-.167.097-.175.199-.004.113.008.14.105.125.07-.012.164-.102.2-.18Zm.867-1.172c.52-.582.95-.96 1.027-1.39-.332.05-2.246 1.273-2.277 1.402.015.649-.145.727.441.441.254-.124.461-.28.809-.453Zm.168-1.445c.554-.422 2.59-1.422 2.824-1.914.09-.227-.2-.438-.242-.418.035.031-2.914 1.64-3.992 2.488-.098.11-.075.293-.008.45.117.28.351.054 1.418-.606Zm-.676-.781a198.89 198.89 0 0 0 2.398-1.5c.606-.383.727-.512.508-.797-.086-.113-.203-.184-.402-.102-1.758 1.114-1.91 1.305-3.246 2.086-.09.22-.067.547.07.664.102.004.274-.109.672-.351Zm-.008-1.207c1.602-1.055 2.465-1.586 2.524-1.703.062-.13.082-.633-.024-.688-.594.414-2.187 1.3-3.277 2.106-.027.168-.063.539.027.62.219.083.285-.027.75-.335Zm-.183-3.817a80.039 80.039 0 0 1 3.457-2.21c1.027-.622 1.199-.762.804-.95-.136-.062-.41-.164-.582-.11-1.367 1.005-2.886 1.966-4.336 2.942-.035.149 0 .434-.007.563-.016.199.273.031.664-.235Zm-.16-1.125c.097-.078.706-.445 1.355-.875 1.746-1.148 1.953-1.261 1.953-1.382 0-.336-.504-.407-.96-.067-.84.621-2.849 1.758-2.852 1.922-.008.238-.055.473.023.574.094.133.234.024.48-.172Zm.507-1.562c1.774-1.125 1.703-1.074 1.703-1.277 0-.176-.171-.098-.445-.114-.254-.02-.258.047-.746.383-1.035.711-1.414.906-1.523 1.117-.036.067-.059.328.003.387.125.113.27-.027 1.008-.496Zm.117-1.121c.348-.266.625-.457.649-.512.05-.121-.211-.336-.406-.336-.215 0-.383.102-.914.516-.47.367-.563.289-.524.5.02.117.02.383.067.433.113.125.355-.015 1.128-.601Zm-.714-.73c.375-.29.453-.348.18-.598-.247-.227-.536-.282-.688-.145-.086.102-.004.7-.012.817-.016.19.262.12.52-.075Zm8.035-6.208c0-.125.652-.558 1.14-.66.625-.125 1.407-.058 1.957.192.47.218.98.734.223.417-.695-.28-2.187-.289-2.73-.058-.403.184-.59.23-.59.11Zm-.48-2.183c.05-.047.699.105 1.058.195.965.23 1.754.098 2.762-.168.238-.062.355.086.21.195-.511.325-1.18.512-1.75.563-1.261.105-2.617-.485-2.28-.785Zm-6.184-1.711c.539-.239 1.199-3.61.988-4.192-.656.918-1.398 1.332-2.45 1.168-1.722-.261-1.784-2.199-.452-2.39.53-.078 1.183.242 1.289.168.566-.243 1.015-1.985 1.156-2.547.102-.555.254-2.086.277-2.574.047-1.036.004-2.563.004-2.563l-8.367-9.176-18.363-.093s-.078 12.835-.043 19.402l5.191 4.566.059 7.371c5.812-2.312 11.437-4.738 16.945-7.363-.637-.695-.617-2.453.547-3.117 1.715-.977 3.137.32 3.219 1.34Zm4.601 1.57c.04-.418.38-.758.403-1.18 0-.093.082-.203.355-.07.356.172.465.05.871-.117.715-.3.918-.293 1.469-.094.355.176.465.176.8.02.458-.278.942-.368 1.344-.239.598.192.81.297 1.149.149.172-.078.39-.363.426-.34.246.332.195.86.351 1.156.278.5.168.864-.156.614-.691-.52-1.227-.532-2.215-.31-.582.13-.87.231-1.512.161-1.988-.219-2.12-.164-2.527.082-.39.238-.691.266-.758.168Zm5.336-3.285c-.57-.133-1.226-.61-1.703-.48-.586.035-.918-.598-.617-.942.516-.457 1.312.004 1.621.219.672.469.77.504 1.043.504 1.117-.016.902-.973.363-1.32-.32-.31-.351-.508-.281-.583.11-.12.43-.015.777.32.668.575.684 1.72-.14 2.063-.407.207-.676.309-1.063.219Zm2.34-3.305c-.52-.344-1.445-1.117-1.687-1.394-.407-.465-.57-.762-.52-1.137.04-.29.09-.461-.113-.559-.219-.101-.426-.543-.383-.773.012-.063.254-.023.402.144.188.028.149-.074.356-.195 2.125-1.3 3.828-1.047 5.843-.152.586.258 2.11 1.32 1.293.976-.05-.023-.585-.234-1.125-.484-1.746-.766-3.69-1.234-5.28-.25-.274.172-.438.305-.227.309.894-.16 1.773-.497 2.691-.442 1.363.016 2.188.633 3.211 1.059 1.113.457 1.324.61.922.984-.117.117-.207.113-.742.074-.578-.039-.625-.027-.953.164-.852.497-1.957.766-2.938.692-1.156-.09-1.281-.176-1.305-.024-.015.098.235.266.575.555.261.215.609.535.64.586.098.156-.344.078-.66-.133Zm-.324-1.691c0-.125-.258-.668-.406-.809-.149-.137-.262-.082-.575.117-.234.149-.257.27-.043.442.457.37 1.028.465 1.024.25Zm1.742.078c.465-.207.941-.938.727-1.176-.13-.14-.239-.008-.485.39-.117.188-.32.43-.406.485-.383.242-.887.016-1.098-.523-.125-.325-.261-.532-.41-.41-.27.222.035 1.027.57 1.234.317.125.774.144 1.102 0Zm1.453-.121c.473-.133.7-.324.66-.516-.035-.156-.375-.34-.605-.34-.106 0-.309-.004-.38.086-.163.196-.417.79-.429.852.055.133.215.07.754-.082Zm1.64-3.219c-2.359-.828-4.226-1.164-6.472-.289-.719.281-1.129.313-1.164.078-.031-.195.488-.777 1.047-1.043 1.57-.652 3.45-.715 5.027-.02.59.266 2.242 1.34 2.242 1.438 0 .11-.152.024-.68-.164Zm27.598 24.203c.563-.27.825-.8.48-1.117-.1-.09-.241-.09-.358-.09-.2 0-1.676.36-1.961.5-.188.09-.121.25.058.399.082.066.14.21.156.37.016.208-.03.391.118.36.3-.062.777-.125 1.507-.422Zm-2.097.492c.16-.265.09-.629-.328-.855-.22-.106-.395-.047-.57.18-.419.699.617 1 .898.675Zm-2.11.325c.09-.891.051-3.52.051-3.52s-.523.402-.855.418c.12-.387.254-.527.441-.902a5.5 5.5 0 0 0 .14-1.512c-.03-.441-.374-.453-.019-1.25.18-.406.211-.832-.02-1.336-.1-.246-.132-.39.13-.703.246-.293.148-.441.144-1.05-.004-.845 0-.981-.281-.302-.418.567-.61.457-1.246.387-.617 1.262-1.34 2.586-1.371 3.672-.02.684-.028.789.433 2.223.172.535.235.71.242 1.359.008.613.06.832.16 1.172.184.605.922 1.61 2.051 1.344Zm-21.52 56.734.009-1.27s-2.223.625-3.352.239c-1.16-.29-1.156-.344-1.133-.227.04.203.903.621 1.7.793.558.121 1.683 0 2.234-.148.312-.086.348-.004.223.082-1.364.972-3.09.523-4.176-.285-.578-.52-.969-.524-.656.171 1.488 2.762 5.19 1.141 5.152.645Zm-1.495-1.887.508.008s-.157-.805-.418-1.039c-.536-.48-1.29-.41-1.774.063-.219.214-.387.98-.387.98l.407.008c.148-.356.793-2.028 1.664-.02Zm-2.02-1.218c-.285-.075-.918.187-1.222.367-.114.117-.114.133.02.297.292.351.741.523.776.39.13-.187.458-.984.426-1.054Zm3.336.898c.067-.25-.187-.672-.586-.82-.172-.04-.34-.07-.289.101.055.196.172.512.285.727.078.16.13.238.301.18.133-.043.246-.079.29-.188ZM80.07 91.871l.008-2.148c-1.191 1.097-2.746 2.941-3.219 3.632Zm-36.195-59.27c.504-.199.875-.796.75-1.101-.082-.188-.29-.04-.5.242-.344.445-.43.496-.727.496-.32 0-.445-.074-.664-.468-.148-.368-.254-.426-.394-.266-.067.074-.063.176.023.445.223.707.801.93 1.512.653Zm1.375-.222c.555-.176.672-.23.645-.399-.028-.18-.473-.418-.723-.375-.184.102-.656.782-.629.907.066.093.254.008.707-.133Zm-3.219-.3c-.02-.157-.043-.313-.09-.364-.18-.2-.558-.059-.558.191 0 .192.297.407.535.407.168 0 .145.039.113-.235Zm3.153-1.282c.796.273 1.199.305.765-.067-.594-.601-3.312-1.293-4.773-.312-.106.137-.082.656.031.625 1.188-.73 2.707-.688 3.977-.246Zm-2.715-2.078c-.664.203-1.293.52-1.371.816-.133.477.101.485.976.235a4.554 4.554 0 0 1 3.336.324c.727.484.942.324.82-.082-.406-1.344-2.675-1.586-3.761-1.293Zm0 0" style="stroke:none;fill-rule:nonzero;fill:#131f67;fill-opacity:1"/><path d="m85.305 20.14-4.914 4.438.062 5.254c.492.828-7.57-2.363-8.84-3.328.14 3.512 5.383 7.52 8.79 8.988l.077 11.153s1.375-.485 2.13-.723c.558-.18 1.84-.16 2.261-.344.68-7.644 1.266-17.59.434-25.437Zm-27.297 5.47c-.477.007-.766.124-.758.406-.145-.024 1.805 6.566 2.691 9.316-1.738 1.598-3.55 4.379-.964 6.953.55.55 1.562 1.016 2.523 1.547.43.379-5.27 3.727-10.336 3.723-1.621-3.258-3.894-1.461-5.148-.325-.977-.082-4.625-2.07-6.489-3.21-.03-.02-.011-.489-.007-.575.128.774 7.312 2.457 7.636 1.68-.207 0-3.218-1.867-4.082-3.707-1.101-2.074-1.984-4.926-1.984-4.926-.403 1.055-.27 2.516-1.38 3.035-.323-3.43-5.687-1.687-3.023 1.668-1.5.403-2.78 1.11-4.238 1.696 3.04 3.789 7.227 6.308 11.649 7.8-.586 1.133-4.035 3.688-1.211 6.704.129.093-2.707 2.914-4.106 5.117-1.05 1.664-.734 2.937-.613 2.98 3.84-4.015 6.004-7.41 6.004-7.41-.035.465 4.55.219 4.48-3.555.102-1.02.309-2.12.739-3.066 6.996.309 13.02-1.965 18.113-6.742 0 0 1.035.273 1.687.367.329.047.793-.148.868-.168.296-.016.722-.066 1.117-.27.543-.277 1.094-.757 1.676-1.187.761-.563 1.523-1.106 1.793-1.684.304-.644.066-1.422-.192-2.113-1.629-1.758-2.715.133-3.437-.117-2.508-3.121-4.59-11.95-4.934-12.02-1.402-.261-6.2-1.945-8.074-1.918Zm-17.25 6.003c-.188.012-.863 2.754-1.461 2.735-2.524-1.493-2.582 1.586-.41 1.449 1.836-.117 2.863-2.82 1.879-4.184h-.008Zm-27.012 5.188c.063 16.687.367 33.367.77 50.047 1.652-.371 2.851-.653 4.468-.004.16-4.742-.28-16.711-.152-28.297 6.172-4.375 10.512-9.207 13.563-15.52l-9.422 4.02s-3.082 4.027-4.067 4.285c-.14-.574-.285-7.398-.156-10.324ZM34.66 47.145l-1.855 2.445s.03 8.402.133 12.453c.074.805.874 1.547.234 2.266.39.004 2.086 10.906.453 15.324-.293.789-.02 1.347.434 1.531l3.523 3.273c1.11.34 2.195.208 3.129.004 3.344-2.785 8.09-7.668 8.09-7.668L36.28 65.93c-1.07-2.63-1.62-18.785-1.62-18.785Zm45.637 35.097c-9.086 6.188-13 15.008-13.063 14.95.036.101-.043.464.524.18 2.351-1.161 8.394-3.661 8.394-3.661 1.438-1.574 2.543-3.094 4.188-4.59 0 0 .168 6.84.02 10.266 1.476 1.011 4.992 4.16 4.992 4.16 0-.004 1.039-48.574-1.055-49.809-2.035.36-3.059 1.035-3.817-1.12-.55 9.886-.03 19.812-.183 29.624Zm-19.672-27.36c-2.191 1.634-9.73 8.368-9.715 8.438 1.992 3.063 9.867 9.2 13.64 12.63l.524 17.452c.559-.683.961-1.324 1.567-2.007 0 0-.086-8.836-.313-12.98-.066-1.228-.375-2.192-.277-2.302-1.055-5.031-1.489-10.586.023-15.976-3.566-2.813-4.699-4.68-5.449-5.254Zm.559 19.934c-.008 0-.012.004-.02.012-1.852 2.402-5.39 7.617-5.644 7.606-.075-.157-3.653-.016-4.333 2.039-.57 1.53-.613 2.941-1.03 4.52-7.177-.223-12.434 1.843-17.973 6.495-1.575.055-2.95.172-3.918.496-.813.274-1.25.77-1.75 1.098-1.407.93-1.786 1.723-1.72 2.691.122 1.762 3.528 2.016 3.704.774.172.004 3.32 6.598 3.625 7.723.742 1.816 1.535 5.214 1.629 5.218 1.273.075 8.406 1.914 8.434 1.25.671-.261-2.47-9.699-2.47-9.699 5.52-4.219-.55-8.742-1.98-8.578 3.14-2.04 6.746-3.41 10.719-3.586.613 2.016 3.461 3.059 4.902.379 0 0 6.172 2.027 6.145 2.695-2.543-.355-4.633-.539-7.18-.765 4.875 2.425 5.02 5.613 6.012 8.789.137-.563 1.426-3.016 1.426-3.016 1.652 3.356 4.8 1.031 3.508-1.676l3.917-1.656c.45-.207-5.843-6.691-11.574-7.617.29-.485.403-.938.703-1.328 1.438-1.29 2.555-3.172.36-5.434 1.453-1.851 4.824-6.316 4.613-6.398 0 0 .066-2.09-.105-2.032ZM14.016 95.367c-.055 0-.18 15.504-.07 23.2-.141.316-.235 2.019-.235 2.019l5.226-4.473.165-5.793c1.363-.293 9.855 3.657 9.171 3.633.653-.246-3.91-8.14-9.238-9.02-.094-4.468-.137-9.527-.273-10.886-1.852.32-4.746 1.328-4.746 1.32Zm46.336 9.38c-1.465.398-2.079 3.202-1.606 4.566.086.253.031.308.266.062.57-.766.39-2.285 1.398-3.09 2.656.735 2.399-2.422-.058-1.539Zm0 0" style="stroke:none;fill-rule:nonzero;fill:#e2cf00;fill-opacity:1"/><path d="m26.504 122.992 6.926-9.527c8.246 2.527 16.668 2.582 25.183 1.351l7.594 8.227-3.11-.004-4.78-6.254c-1.735.363-3.54.52-5.337.746l2.235 5.496h-2.438l-1.754-5.441c-4.128.14-6.941-.195-9.808-.508l-1.043 5.934-2.48-.004 1.683-6.125c-1.95-.336-3.918-.625-5.55-1.106l-5.087 7.22Zm7.922-5.601 2.867.71-1.406 4.903-5.25-.004Zm7.402 5.62.817-4.331c1.925.351 4.44.425 7.09.402l1.242 3.941Zm13.586-4 2.262-.542 3.386 4.566-4.12-.004ZM22.437 91.407c11.055-11.719 9.606-24.035 3.52-33.976l1.3-1.22c7.036 10.599 8.516 25.657-4.495 37.31-.137-.704-.325-2.114-.325-2.114Zm44.04-13.105c1.582 2.469 2.546 4.965 4.218 7.449l-3.98 4.906Zm-47.504 7.715c-.094-7.743.058-23.426.058-23.426l3.727-2.598c4.449 4.946 6.863 17.98-1.153 26.64-.582-.386-2.164-.23-2.632-.616Zm52.882-1.5c-10.195-15.758-4.984-27.23 4.875-37.414.032.785.094 1.57.168 2.351-8.464 8.832-11.863 21.906-3.593 33.75ZM53.36 82.207l4.66-5.789s.887-2.3 1.63-2.98l.855-.688c.281.25.824.566.805.855-.016.27-.457 1.707-.457 1.707l-5.454 7.266s-1.648-.27-2.039-.371Zm24.786-28.086c.148-.152 1.992.555 1.992.555l.086 23.8-3.7 2.169c-1.074.496-9.433-15.137 1.622-26.524Zm-38.961 9.98c1.687-2.093 3.46-3.906 5.097-5.828.418.133 1.528.157 1.528.157.117.058-.375 1.597-1.582 2.656-1.215 1.129-4.11 4.223-4.196 5.781-.027.48-1.21 1.031-1.21 1.031l-.837-.812a9.333 9.333 0 0 1 1.2-2.984Zm-10.485-9.144 3.711-4.387.352 11.668Zm12.164-29.582-7.32-8.387 3.55.004 4.36 5.934 5.234-.54-1.835-5.382 2.168.004 1.523 5.297c3.207.074 6.344.304 9.39.586l1.575-5.871 2.207.003-2.012 6.145 5.906 1.422 5.274-7.555 2.613.004-7.473 9.754c-9.75-2.688-17.585-2.39-25.16-1.418Zm21.153-3.48 1.68-4.875 4.995.011-3.832 5.567Zm-12.098-1.2-1.05-3.687 8.812.012-1.14 4.117c-2.33-.364-4.454-.434-6.622-.442Zm-10.559-3.699 3.52.004 1.363 3.816-2.027.207Zm0 0" style="stroke:none;fill-rule:nonzero;fill:#d40000;fill-opacity:1"/><path d="m32.395 16.45 8.48 9.292c1.77-.574 10.691-1.492 16.04-.37.925 3.335 1.91 6.71 2.948 9.75 0 0-.336.355-.578.581-3.422 3.594-1.008 7.07 2.117 8.211-.566 1.066-6.562 3.727-10.21 3.402.007-.03-1.118-2.445-3.403-1.632-.781.277-1.102.812-1.707 1.336-2.18-.602-5.055-1.915-6.55-3.356 2.8 1.277 5.554 1.965 8.323 1.633 0 0-.343-.262-.734-.426-.23-.101-.797-.41-1.25-.691-1.285-.793-2.14-1.75-3.02-3.387-1.011-1.656-1.171-3.438-1.726-5.008-.297.805-.426 2.93-1.195 3.371-.2.117-.235.082-.383-.367-.586-1.637-2.73-1.43-3.442-.27-.359 1-.308 1.442.145 2.372l-1.305.66-.004.195-.8.348-.168-.102c-3.727 1.637-7.38 3.344-11.184 4.914 0 0-2.02 3.059-3.871 4.274l-.055-10.39-5.465-4.524-.027 2.472.39.38c.052 17.394-.038 34.507-.046 50.3l.004 14.539-.336.016-.02 1.695.38.078-.06 2.395-.195.011-.031 1.516.3.043-.019 8.559-.293.343v2.446l5.72-4.954.136-5.64c4.504.785 9.207 3.746 9.207 3.746-.785-4.723-6.258-8.621-9.406-9.402l.027-11.192s-2.34.887-3.496 1.024c-.574.074-.793-.008-1.067-.383-.199-.278-.203-.528-.023-1.098.086-.265.082-.336-.023-.601-.145-.375-.145-.547 0-1.211.152-.387.085-.598-.075-.957-.168-.387-.183-.457-.11-.68.192-.586.204-.684.106-.945-.199-.512-.203-.88-.023-1.211.848-1.29 2.734-.97 3.758-.922.52.527.828.824.879.058.363-.914 1.77.024 2.43.414 5.613-6.855 8.39-16.144 1.378-27.777l-3.918 2.856.016-3.582c5.191-3.04 11.035-9.954 13.57-15.41.836.898 1.801 1.785 2.707 2.695l-.593.906-.176-.09c-1.614 2.8-5.989 8.102-6.059 8.047 1.613 2.742 3.047 5.508 4.27 8.309l.32-.133.285.844-.566.152c1.906 5.738 1.96 11.05.515 15.945l.336 1.301s2.02 1.793 2.567 2.32l3.011 2.676L41 84.512l-.11-.14 16.22-14.677 1.011.887c-9.934 9.117-27.191 24.86-27.191 24.86l-.594.078c-.34.046-.844.062-1.164.043-.527-.036-.59-.024-1.016.16-.476.207-.867.511-1.394 1.086-.242.265-.41.379-.676.464-3.379 1.836-.332 5.547 2.543 3.598 2.101 3.68 3.879 7.961 4.855 12.2 0 .03-.379.148-.379.148l-7.585 10.246 2.914.004.304-.473-2.183-.004 6.976-9.18c8.86 2.215 16.989 2.54 25.242 1.235l7.172 7.996-2.847-.004.406.473 3.687.058-8.433-9.117c-3.024.734-10.996 1.32-16 .54-.758-3.395-2.016-7.087-2.946-10.024 4.782-3.41 1.204-7.922-1.742-8.555-.144-.246 5.98-3.637 10.336-3.394 1.246 2.738 3.977 2.335 4.961.3 1.805.61 4.153 1.215 6.012 2.57-2.484-.5-5.36-.773-7.727-.808 4.5 1.598 5.758 4.961 6.309 8.137.098.523.406 1.203.406 1.203.383-1.145.7-2.328 1.457-3.305.344 1.121 1.621 1.992 2.91 1.328.75-.492 1.012-1.343.778-2.515-.067-.328-.098-.508-.098-.508l1-.492.129.101s1.098-.426 1.644-.668c.083-.039-.101-.195-.101-.195L76.21 93.82c-.04-.02 2.555-3.246 4.043-4.488.039 3.867.027 5.461.016 10.055l.57.511c.508.454 1.61 1.391 4.097 3.485.56.472.954.703.954.703l.02-67.68h-.083v-1.3l.117-.008.004-3.387-.101-.055V30.59l.136-.094.024-9.14-.16-.028-.008-2.191-5.645 5.445.035 5.137c-2.52-.301-5.628-1.774-7.77-2.965-.694-.387-1.077-.488-1.058-.27.297 3.063 5.137 7.746 8.864 8.977l-.012 11.512c0 .004.879-.403 1.418-.606l.082.203 1.2-.453.097-.234 1.043-.121c.011.195.047.168.047.168.925.238 1.336.816.96 1.465-.128.218-.156.527-.046.609.402.578.504 1.09.02 1.637-.188.28-.188.437.003.738.5.926.215.863-.16 1.414-.086.414.41.687.246 1.078-.078.258-.375.563-.578.7-.238.156-.434-.137-.434-.137s-.75.293-1.293.386c-.53.157-1.445.438-1.761-.215-.18-.375-.035-.718-.047-1.136l-.778-.078-.03 1.902c-.446.215-2.22-.613-2.22-.613-7.62 9-7.421 18.996-1.793 27.375.055.136 3.98-2.446 3.98-2.446s-.01 2.118.024 3.27c-4.992 3.758-9.812 8.824-13.265 15.066l-2.13-2.312c.368-.297.384-.766.376-1.121l1.55-2.106.016-.547 4.031-5.136c.063.308-4.144-6.903-4.699-9.25l.278-.067c-1.883-6.547-1.489-11.125-.114-16.46l-.39-.344-5.305-4.856c-.43.367-.863.73-1.293 1.098-.062.054-.387.02-.453.078-2.8 2.39-5.488 4.793-8.152 7.285-.07.066.046.332-.024.395-2.668 2.503-5.433 4.882-8.133 7.382l-.984-.859c9.562-8.71 27.57-24.887 27.57-24.887s.078-.129.203-.133c.5-.02.946-.12 1.442-.25.594-.125.687-.164.937-.402.153-.14.403-.344.559-.445.258-.176.855-.633 1.789-1.371.566-.453.922-1.114.91-1.7-.023-1.05-.781-1.94-1.758-2.074-.406-.05-1.203.14-1.605.387-.309.191-.453.277-.586.191-1.945-3.613-3.832-8.156-4.633-11.902-.043-.238-.02-.309.192-.605.132-.184.417-.59.64-.903 1.742-2.3 3.766-5.093 5.664-7.613l.93-1.227.46-.691-3.003-.004-.371.54 2.472.003-7.367 9.664c-13.55-4.066-24.664-1.512-24.93-1.457l-7.316-8.258 3.352.008-.407-.543Zm6.597.007.371.54L42.88 17l-.2-.54Zm5.86.547 2.168.004-.125-.543h-2.223Zm3.878-.535.137.539 8.813.012.16-.54Zm10.778.55 2.207.004.164-.539-2.219-.004Zm4.367-.53-.188.538 5.004.004.38-.539Zm21.402 3.757.078 1.5-3.613 3.469-.004 4.855-1.05-.226-.036-5.016Zm-1.015 3.195c.027 1.485-.239 2.91.191 4.426.211.746.64 1.621.692 2.504l-1.192-.027c-.148-.446-.207-.938-.387-1.485-.437-1.351-.789-2.777-.464-4.207Zm-25.985 2.391c.043.074.184.703.317 1.285.617 3.2 1.453 5.574 2.304 7.988 1.082 3.043 2.684 6.875 4.243 8.653.207.222.308.472.234.582-.125.187-.766-.074-1.191-.485-.176-.171-.512-.644-.758-1.066-.547-.937-1.278-2.297-1.352-2.512a52.262 52.262 0 0 0-.636-1.492 35.386 35.386 0 0 1-1.368-3.59c-.375-1.133-.715-2.316-1.133-3.508-.68-1.953-1.074-3.503-1.453-5.296-.054-.262-.148-.57-.113-.633.215-.145.8-.086.906.074Zm.383.125c-.07-.055.617-.062.84.105.063.063.18.438.281.918.617 2.942 1.551 5.985 2.633 8.864.867 2.304 1.813 4.52 2.996 6.316.367.598.871 1.238 1.508 1.926.36.39.387.441.293.55-.121.13-.328.114-.727-.062-.37-.16-.777-.515-1.152-1.015-.129-.172-.328-.43-.437-.575-1.743-2.757-2.801-5.379-3.754-8.043-.98-2.726-1.864-5.488-2.461-8.668-.008-.105-.016-.21-.02-.316Zm2.192.414c.152.145.238.418.37.984.723 2.73 1.317 5.168 2.173 7.407.457 1.203.855 2.41 1.351 3.543.79 1.812 1.754 3.465 2.942 4.84.39.453 1.101 1.015 1.699 1.34.414.222.476.28.449.413-.035.118-.441.164-.574.157-.653-.106-1.621-.57-1.895-.914-2-1.977-3.426-5.211-4.465-7.868-1.78-4.57-3.218-10.277-2.945-10.097-.016-.133.719.02.895.195Zm.859.168a.95.95 0 0 1 .219.031c.375.094.422.14.511.52a80.324 80.324 0 0 0 2.063 7.098c.77 2.226 1.558 4.328 2.789 6.53.902 1.61 2.043 2.72 3.273 3.286.356.16.668.316.704.344.03.03.023.113-.02.187-.066.11-.14.133-.441.13-.559-.013-.95-.169-1.551-.54-1.57-.992-2.942-3.238-3.547-4.512a47.859 47.859 0 0 1-2.027-4.93c-1.098-3.156-1.782-5.245-2.282-7.913 0-.153.114-.235.309-.23Zm23.562 4.29-.011.925c-3.961.234-8.02-1.3-11.282-2.68 2.457 2.98 5.079 5.63 11.278 6.184l.008.953c-8.075-.113-13.754-7.594-13.454-9.457 3.32 1.965 9.32 4.238 13.461 4.074Zm-22.285-3.942c.196.008.457.086.559.18.656 2.25 1.137 4.75 2.223 7.261 1.335 3.086 2.078 5.805 4.558 8.348.774.726 2.29.707 2.29.707s-.192.394-.454.46c-.531.071-.918.094-1.305-.023-1.441-.554-2.539-1.965-3.105-2.918-.531-.71-1.828-3.656-2.895-6.656-1.16-3.266-2.117-6.66-2.007-7.344a.454.454 0 0 1 .136-.015Zm1.332.383a1 1 0 0 1 .375.097c.16.07.23.117.317.395.054.18.043.46.14.918.559 2.351 1.328 4.261 2.094 6.12.73 1.77 1.512 3.505 2.473 5.075.488.79.969 1.531 1.277 1.809.828.761 2.242.8 2.66.046.23-.43.184-1.109-.273-1.46-.352-.31-1.156-.18-1.176.19 0 .102.2.06.488.028.805-.086 1.059 1.223.02 1.438-1.317.273-2.227-1.352-1.063-2.344 1.97-1.219 3.465.45 3 2.05-.453.946-1.203 1.427-2.199 1.462-1.281.035-1.812-.328-3.125-2.078-1.504-2.211-2.156-4.371-3.215-6.79a27.492 27.492 0 0 1-1.98-6.859c.027-.066.094-.097.187-.097Zm1.246.378c.118.004.36.059.47.122.062.035.155.117.155.117 1.762 5.898 3.23 9.433 4.727 11.925 0 0-.023.461-.125.59-.18.235-.266.176-.496-.195-.945-1.672-1.84-3.516-2.676-5.418-.984-2.238-1.855-4.559-2.223-6.762.02-.285-.05-.363.168-.379Zm11.926 3.383c.25 0 .453.188.453.414 0 .23-.203.414-.453.414-.254 0-.457-.187-.457-.414.004-.23.207-.414.457-.414Zm-36.746-.117c-.527.652-.957 2.988-1.504 3.016-.601-.012-1.332-.325-1.8.168-.575.605-.223 1.27.48 1.636.324.149 1.016.184 1.433.075 1.72-.524 2.372-3.067 1.391-4.895Zm38.461.656c.36.004.652.27.652.602 0 .332-.293.598-.656.598-.36 0-.652-.27-.652-.598 0-.332.293-.602.656-.602Zm-38.434.239c.586 1.347-.066 2.96-.78 3.503-.661.497-1.692.56-2.282.075-.488-.422-.27-1.438.644-1.36.31.008.676.266.883.535.598.06 1.285-2.703 1.535-2.753Zm40.711.378c.41 0 .739.305.739.676 0 .371-.332.676-.739.672-.41 0-.738-.3-.738-.672 0-.375.332-.675.738-.675Zm2.614.481c.418 0 .754.309.754.687 0 .383-.34.688-.754.688-.418 0-.754-.309-.754-.688 0-.382.34-.687.754-.687ZM59.762 35.77c.113 0 .191.097.265.296.153.41.149.457-.09.735-2.32 2.926-.214 5.926 3.145 6.258.281.015.426.308.574.648-.02.16-.023.16-.785.172-.496.008-.898-.024-1.144-.082-1.176-.293-2.618-1.266-3.207-2.164-.676-1.04-.79-2.113-.368-3.543.27-.918.614-1.524 1.141-2.024.21-.199.36-.296.469-.296Zm21.972.351.024 10.059-1.172.39.062-10.699Zm2.22.39c1.452 3.317 1.515 6.352.19 9.114l-1.332.176c1.833-3.89 1.06-6.68.032-9.371Zm-70.063.47 4.738 4.093.098 45.563-.754-.246-.239-44.813-3.843-3.23Zm46.312.187h.024c.128.016.246.16.351.437.125.325.121.336-.02.66-.652 1.458-.124 2.844 1.485 3.282.379.113.441.168.668.601.144.282.207.383.152.446-.082.054-.289.078-.894-.04-2.387-.75-3.254-3.14-2.164-5.034.136-.22.261-.336.375-.352h.023Zm-19.039-.203s.5 1.613.45 1.976c-.13.707-1.227 1.836-2.192 2.246-.89.313-2.238.153-2.797-.39-2.047-2.192 1.777-4.383 2.734-2.106.575 1.496-1.773 1.848-1.875.7 0-.297.102-.387.407-.578.27-.172.238-.325.007-.325-.886.293-.91 1.04-.511 1.512.797.762 1.785.32 2.468-.238.918-.754 1.098-1.836 1.31-2.797Zm19.8 1.683c.044 0 .981 2.051 1.102 2.344-.03.203-.273.188-.691-.078-.426-.27-.55-.465-.73-1.094-.055-.222-.145-1.035.32-1.172Zm-19.042.844c.207 0 .422.692.324 1.047-.172.613-1.934 1.652-3.172 1.863l-.59.102c-.257.043-.554-.09-.867-.379-.219-.207-.324-.41-.27-.457.044-.04.61.05 1.09.043 1.352.02 2.391-.863 3.196-1.918.12-.164.254-.3.289-.3Zm-26.805.48s.91.758 1.39 1.192c-.054 2.008-.866 4.184-.87 5.98.02 1.563 1.12 2.864 1.23 4.223.067.88-.219 2.184-.691 3.176a6.588 6.588 0 0 0-.68 2.855c.055 2.22 1.793 4.649 1.18 6.844-.578 2.063-1.238 3.25-1.067 4.348.332 2.113 1.563 3.988 1.23 5.746-.304 1.637-1.116 3.27-1.034 4.746.097 1.703.797 3.129.988 4.688.129 1.011-.188 2.585-.188 2.585l-1.277.094c.707-2.39-.34-4.558-.738-6.86-.34-1.96.625-3.519.914-5.19.18-1.04-.024-2.028-.582-3.352-1.11-2.442-.707-4.031.098-6.156.992-2.266-.368-4.059-.704-6.227-.171-1.871-.035-3.191.735-4.855.578-1.598.738-2.528-.114-4.063-.535-.973-.675-1.543-.675-2.824.281-2.531 1.031-3.953.855-6.95Zm27.414 1.044c.2 0 .297.129.297.386 0 .477-.773 1.075-2.14 1.657-.708.304-1.118.351-1.532.171-.386-.167-.367-.316.059-.43 1.066-.28 1.824-.671 2.687-1.374.274-.227.559-.41.63-.41Zm-6.176.32c3.516 3.45 6.965 5.223 9.606 6.055l-.418.898c-3.465-1.23-7-2.941-9.992-6.617Zm6.782.57c.097 0 .453.414.453.528 0 .062-.13.273-.29.46-.234.27-.44.41-1.023.704-.789.39-1.265.488-1.605.32-.34-.164-.227-.3.621-.758.441-.234 1.027-.613 1.3-.84.278-.226.52-.414.544-.414Zm-9.325.496c2.88 3.61 6.59 6.012 10.954 7.297l-.688.844c-3.988-1.258-7.887-3.535-11.445-7.54Zm10.07.457c.145 0 .473.336.473.489 0 .07-.066.203-.144.293-.152.18-.957.73-1.3.89-.27.13-.474.125-.766-.008-.344-.156-.286-.289.28-.62.278-.165.696-.465.934-.673.235-.203.473-.37.524-.37Zm-11.6.25c-.087.094-4.262 8.805-13.094 14.977l-.04-1.45c4.891-3.534 8.454-8.382 11.141-12.613Zm12.437.641c.136-.004.23.078.324.242.11.196-.012.367-.508.707-.308.215-.422.254-.676.25-.656-.011-.64-.156.082-.746.375-.305.61-.45.778-.453Zm17.039.45 1.84.132c.496.316-7.196 4.902-12.524 4.484l.145-1.101c4.676.125 10.668-3.317 10.539-3.516Zm-15.778.413c.422.215.95.473.82.555-.198.113-1.445.039-1.73-.102-.218-.105-.203-.16.094-.464.363-.372.426-.192.816.011Zm-16.394-.293c-2.922 4.696-6.398 8.977-10.422 11.766l-.047-2.484c3.828-2.684 6.727-7.594 6.735-7.614Zm36.508.34.89.48c-5.566 4.692-11.57 6.712-17.34 6.196l.465-.95c9.36.688 15.586-5.632 15.985-5.726Zm1.347.172s.301-.035.27.02c-1.848 1.652-4.387 3.41-6.047 4.394-7.867 7.363-14.602 13.176-21.457 19.734l-1.094-1.046.992-.957c.008-1.891 2.547-4.012 4.051-5.645.63-.645 1.809-2.305 1.676-3.004a2.07 2.07 0 0 1-.05-.219c2.378-.433 2.948-2.191 3.003-3.75.113-1.043.266-1.988.653-2.843 10.761.8 17.707-6.434 18.003-6.684Zm-18.757 1.063c1.218 0 2.14.882 2.136 2.132-.011.524-.21.922-.992 2.305-.754 1.184-.851 1.906-1.148 3.27l-.766-.63-1.394 1.145.023-1.668s.48-.558 1.258-1.351c.984-1 1.879-2.282 1.836-3.004-.024-.723-.856-1.313-1.711-.84-.742.473-1.086 1.328-1.528 3.89-.078.454-.152.989-.191 1.106-.11.316-1.184 1.242-1.184 1.242-.093 0-.511-1.883-.511-1.883l-1.086.164a12.963 12.963 0 0 0 2.87-4.32c.583-.969 1.325-1.55 2.388-1.558Zm-23.586.37s-2.164 4.094-5.957 6.755l-.024-1.606C21.32 49.86 23.004 47.172 23 47.18Zm51.941.169c-7.5 7.078-17.297 20.117-5.187 38.468l1.605-1.687c-9.746-16.598-2.812-25.184 3.633-33.8Zm-40.508.535c2.192 1.426 4.48 2.843 7.438 3.746-.157.484-4.23 3.61-1.317 6.504.121.152-.187.52-.664 1.043-1.398 1.738-2.793 2.98-3.96 4.937l-.055 3.688-1.164-.942Zm40.219.386.047 2.102c-11.149 12.348-9.91 23.48-3.633 33.738l-1.207 1.118c-10.289-16.235-3.836-28.454 4.793-36.958Zm-27.46 1.211c-.493 1.184-2.642 3.211-2.642 3.211s.286-1.976.465-2.601c.137-.473.45-1.117.754-1.426.867-.867 1.73.121 1.422.816Zm-14.767-1.129L34.707 64l-1.562-1.445-.211-12.664Zm-2.117 3.239.293 11.246c-1.554-3.371-3.746-7.063-3.789-7.027 0 0 1.8-2.176 3.496-4.22Zm12.352 3.531s.238-.18.613-.574c.813-.746.887-.754.809.258-.028.39-.004.886-.004.886.472-.25 1.597-1.457 1.914-1.238.242.207.437.648.441 1.328-.027 1.332-.855 2.551-2.16 2.95-3.61 1.015-6.023-2.79-3.516-5.196.25-.238.961-.68 1.301-.594.422.707.407 1.489.602 2.18Zm35.785-1.148c.21.523.477 1.043 1.207 1.277-.133 16.102-.09 44.61-.09 44.61l3.54 3.042-.028 1.328-4.692-3.933s-.203-33.621.063-46.324Zm3.52.75c.124 1.554-.168 3.195.124 4.796.286 1.106.723 2.106.758 3.192.032.996-.043 1.562-.511 2.953-.325.969-.356 1.125-.434 2.094-.176 1.351.3 2.578.664 3.652.484 1.43.348 3.152-.437 5.43-.282.82-.332 1.164-.293 1.906.105 1.559.71 3.04 1.02 4.57.167.88-.009 2.024-.602 3.97-.22.722-.454 1.983-.454 2.46-.003.508.176 1.473.348 1.887.817 1.969.856 2.324.899 3.504.003.89-.278 1.789-.625 2.57-.575 1.246-.2 2.531-.004 3.934l-1.414-1.106a4.397 4.397 0 0 1 .12-3.219c.555-1.402.692-1.53.684-2.34-.008-1.07-.676-2.335-.953-3.09-.492-1.335-.492-2.648 0-4.058.242-.695.59-2.055.672-2.61.148-1.058.04-1.898-.543-4.03-.285-1.04-.344-1.442-.36-2.477-.019-.957.137-1.957.473-3.11.489-1.835.485-2.94-.144-4.644-.508-1.41-.649-2.363-.52-3.484a5.13 5.13 0 0 1 .602-1.868c.605-1.382.703-2.703.254-4.023-.77-2.7-.758-4.066-.676-6.504Zm-3.973.875c-.137 11.035-.031 23.671-.031 23.671s-3.579 2.286-3.567 2.165c-4.597-6.95-6.34-17.184 1.723-26.403 0 0 1.297.504 1.875.567ZM25.676 57.25c6.512 11.14 7.344 22.387-3.461 33.91.344 1.02.289 1.969.113 2.903 2.106-1.497 18.992-16.868 4.82-38.317Zm33.25-.867 3.203.176.215 2.52-1.04.937s-.019-.52-.03-.985c-.016-.57-.102-1.07-.16-1.05-.055.015-.114.68-.16 1.406l-.052 1.078-.359.328c-.477.437-.574.402-.59-.211-.039-1.336-.035-1.43-.144-1.332-.059.055-.094.512-.11 1.203-.011.547-.054 1.074-.094 1.168-.082.191-.69.688-.847.688-.149 0-.14-.196-.137-1.028 0-.699-.082-1.086-.203-.824-.031.059-.082.758-.094 1.32-.011.567-.054 1.082-.09 1.149-.136.226-.765.71-.875.672-.16-.055-.199-.47-.191-1.164.004-.344.062-.63-.082-.723-.145-.09-.172.3-.133 1.3l-.012 1.09-.402.399c-.637.598-.684.57-.684-.465.032-.816 0-1.176-.175-1.113-.18.066-.11.46-.075 1.27.032.718.02 1.081-.035 1.171-.043.075-.25.29-.457.473-.21.187-.468.445-.5.445-.047-.87-.125-2.742-.125-2.742l-3.343-.137s.687-.742.976-.886c.152-.07.387-.082 1.227-.047.57.023 1.34-.02 1.406-.043.25-.09-.27-.168-1.008-.211-.492-.035-.621-.024-1.168-.098l.488-.457.364-.328 1.066.031c.649.02 1.125.02 1.2-.02.632-.113.042-.245-.68-.245-.7-.004-1.098-.004-1.098-.145 0-.144.789-.797 1.012-.836.113-.023.687-.043 1.27-.047 1.003-.008 1.366-.02 1.308-.172-.055-.152-.719-.109-1.16-.125-1.227-.003-1.285-.046-.446-.714l.407-.325.77.02c1.16.031 1.722-.012 1.722-.113 0-.09-.754-.18-1.395-.18-.383 0-.695.008-.695.008.285-.344.594-.617.93-.922l1.035-.016c.758.012 1.222.04 1.234-.09.012-.125-.27-.125-.617-.125-.473-.004-1.031-.043-1.105-.109-.079-.074.07-.273.398-.543Zm-31.727-.004c8.946 13.39 5.692 27.848-4.32 36.832l-.29-1.754c9.45-10.477 11.114-21.3 3.5-34.047Zm16.668 1.816c-1.613 2.211-4.074 4.387-5.008 6.192-.187.203-.25.66-.547.754-.148 0-.195-.258-.156-.848.028-.441.074-.594.309-1.027 1.273-2.118 2.746-3.637 4.375-5.649Zm.38.215 1.487.09c-.332.96-.78 1.645-1.308 2.27-.676.796-1.489 1.605-2.438 2.585-1.37 1.426-2.058 2.875-1.996 3.516-.344.328-.582.555-1.015.895l-.868-.73c.645-3.016 3.766-5.782 6.137-8.626Zm18.194 1.246.485.028c1.648.09 2.68.183 2.738.25.035.039.082.27.106.511.035.367.003.614-.211 1.489-.141.578-.297 1.086-.348 1.136-.191.176-.266 0-.356-.82-.05-.492-.074-.852-.144-.813-.031.02-.11.547-.086.946.055 1.027.047 1.281-.305 1.59-.613.543-.648.488-.691-.477-.02-.402-.125-.984-.152-1.012-.133-.12-.18.434-.18 1.371l-.004 1-.29.29c-.382.375-.503.433-.644.304-.086-.078-.054-.25-.054-.824.004-.668-.125-1.055-.266-.926-.023.024-.031.672-.035 1.239a27.774 27.774 0 0 1-.02 1.109c-.023.133-.718.77-.843.77-.145 0-.262-.735-.262-1.34 0-.403-.094-.473-.184-.25-.023.054-.043.62-.043 1.125l-.004.921-.406.387c-.547.516-.637.485-.637-.222 0-.61-.046-.93-.18-.93-.077 0-.097.285-.097.972 0 .47-.035.934-.074 1.032-.04.097-.219.312-.399.476-.18.168-.359.305-.406.305-.074 0-.183-.578-.152-.828.004-.05.008-.414 0-.809-.012-.933.058-.894-1.578-.941-1.914-.059-1.946-.07-1.367-.578.55-.485.472-.465 1.742-.387 1.02.063 1.144.059 1.246-.035.062-.055.097-.117.078-.137-.02-.016-.406-.05-.863-.074-1.262-.067-1.371-.149-.836-.637l.3-.277 1.294.004c.87 0 1.464-.035 1.496-.082.086-.125-.262-.157-1.09-.2-.446-.027-.864-.058-.93-.078-.21-.058-.133-.25.223-.554l.343-.293h1.141c1.059 0 1.574-.059 1.578-.188 0-.09-.21-.129-.754-.133-.77-.011-1.28-.078-1.316-.175.187-.332.445-.516.75-.793l1.16.039c1.168.039 1.531 0 1.531-.184 0-.098-.5-.168-1.144-.133-.418.024-.922-.07-.922-.203 0-.058.168-.258.375-.445l.375-.336 1.137.043c.632.023 1.308.02 1.359-.012.188-.117-.25-.21-.96-.25-1.102-.058-1.173-.137-.59-.64Zm-39.597.508c5.87 9.637 4.976 18.703-1.301 26.414a6.066 6.066 0 0 0-2.305-.672L19.11 62.66Zm42.074 3.813c.117-.016.117.16.082.535-.027.3-.074.613-.11.699-.07.16-.12.168-.695.094-.648-.086-.64-.196.075-.836.347-.313.546-.477.648-.492Zm-31.59.394s.777-.004 1.164.012c0 0 .059 1.8.215 2.84l2.52.113-.98.93-1.911-.059s-.578-2.559-1.008-3.836Zm30.05 1.125c.356-.004 1.29.145 1.4.242.081.078.085.27.007 1.434-.027.418-.055 1.32-.062 2-.012 1.234-.012 1.238-.168 1.258-.207.027-.23-.04-.285-.852-.032-.457-.098-.86-.157-.875-.066-.02-.062.383-.062 1.215v1.078c-.203.152-.39.352-.617.461-.145 0-.22-.203-.29-.766-.066-.562-.132-.957-.214-.832-.02.032-.016.641.023 1.141l.07.91-.441.406c-.457.418-.512.454-.586.344-.168-.414.074-2.312-.336-2.555-.062-.03-.61-.046-1.238-.07-1.067-.043-1.668-.062-1.817-.18-.09-.07.415-.601.672-.707.188-.078.395-.082 1.274-.027 1.015.063 1.531.059 1.394-.062-.035-.032-.55-.102-.957-.137-.816-.074-1.105-.152-1.105-.29.191-.308.426-.487.707-.753l.394.039c.215.02.73.07 1.141.113.41.043 1.242.051.906.024.11-.098-.316-.2-.902-.266-1.11-.129-1.211-.242-.652-.746l.343-.305c.582.04 1.172.055 1.75.137.422.063.649.04.649-.09 0-.094-.211-.09-.719-.183-.184-.032-1.14-.02-1.156-.278.226-.285.629-.804 1.035-.828Zm-25.843 2.156c.168-.007.18.368.195 1.364.016 1.09.036 1.277.137 1.37.098.09.344.122 1.39.169 1.606.078 1.645.097 1.079.597-.395.344-.41.301-.734.266-.848-.094-2.086-.074-2.133 0-.086.121.004.148.781.203.941.067 1.2.098 1.2.242 0 .067-.16.254-.356.422l-.36.3-.992-.034c-1.043-.04-1.578-.055-1.578.074 0 .078.594.168 1.54.254.245.02.495.023.51.062.032.094-.444.633-.737.836-.243.16-.325.07-1.372.051-1.066-.023-1.16.012-.96.192.046.046.222.05.625.074.652.043.964.133.964.281 0 .145-.59.7-.867.82-.242.106-.347.11-.887.04-.425-.055-.507-.137-.496-.5.008-.165.04-1.227.075-2.368.066-2.195.086-2.308.406-2.265.133.015.168.168.203.91.035.797.07.953.215.953.054 0 .062-.317.031-1.082-.05-1.184-.055-1.36.344-1.703.176-.153.316-.278.398-.164.168.468.121.976.168 1.449-.004.472.196.57.242.12a73.893 73.893 0 0 1-.03-2.116l.484-.438c.253-.23.414-.375.515-.379Zm-3.125.883c.192-.027 1.266-.012 1.418.024-.27.39-.844.894-1.238 1.117-.098.008-.2-.946-.18-1.14ZM64.8 70.73l.227 1.465-1.754-.11Zm-23.612.207c.011 0 .023.004.03.004.126.047.16.329.212 1.692.023.64.07 1.14.113 1.191.05.055.27.082.676.082.328 0 .949.02 1.379.043.937.051.96.086.402.59l-.379.344-1.172-.047c-1.207-.047-1.406-.027-1.406.125 0 .102.207.152.59.14.152-.003.535.016.851.044.703.062.72.109.192.625l-.38.37-.362-.046c-.59-.074-2.141-.059-2.23.023-.145.133.042.192.745.23 1.098.063 1.285.094 1.285.208 0 .054-.152.242-.343.414l-.34.308-1.39-.066c-.974-.016-1.306 0-1.329.055-.039.101.121.132 1.125.23.965.09 1.105.184.738.598-.402.457-.554.511-1.312.441-.836-.074-1.692-.078-1.813-.004-.195.11.004.184.598.227.898.062 1.422.148 1.422.27 0 .136-.297.484-.586.687l-.238.164-1.024-.102c-1.023-.101-1.547-.05-1.402.082.043.04.422.094.844.121.773.055 1.156.145 1.156.29 0 .046-.2.257-.438.476-.242.219-.52.363-.52.363l-3.16-.261s-.16-.516.16-1.918c.29-1.262.407-1.543.544-1.309.039.063.07.371.097.582.063.504.2.824.282.824.093 0 .093-.3-.028-1.011-.164-.989-.183-1.028.23-1.422.352-.34.552-.422.661-.266.031.043.074.492.113.867.074.66.117.813.211.727.063-.055.106-.246.04-1.223l-.083-.953.465-.43c.422-.394.469-.421.555-.32.058.07.125.48.152.965.047.723.11.96.223.855.054-.05.031-1.687-.028-2.066-.035-.246-.02-.285.325-.633.41-.418.625-.594.734-.594.148-.003.227.41.227.954 0 .585.05.816.109.886.156.192.172-.468.137-1.117l-.04-1.187.422-.387c.399-.363.434-.379.543-.277.094.085.086.289.125.886.055.828.23 1.23.282.656a1.825 1.825 0 0 0-.008-.562 6.89 6.89 0 0 1-.055-.906c.004-.485.028-.614.156-.805.188-.277.743-.71.914-.727Zm18.261.926s.707.551.707.711c0 .07-.281.371-.66.711-.7.625-.766.73-.848 1.403-.027.25-.168.582-.492 1.175-.246.453-.605.985-.605.985-1.114 1.215-2.168 2.324-4.125 4.89-.11.235-.117.473-.23.668a.88.88 0 0 1-.372.297c-.129.05-.386.195-.574.324-.73.508-1.203 1.18-1.414 2.012-.117.45-.184.856-.387 2.242-.082.57-.36 1.567-.36 1.567-4.194-.059-8.124.601-11.628 2.402Zm5.61.598.925 3.875-.96-.02-.094-2.812-3-.266 1.074-.949Zm-4.555.348c.254.242.574.504.809.765-.81 2.45-3.352 5.625-5.883 8.778l-1.848-.188c-.031-.07 2.566-3.371 3.813-4.625.472-.52.792-1.02 1.218-1.789.153-.277.418-1 .625-1.754.438-.48 1.266-1.18 1.266-1.187Zm.996.863 1.395 1.297.316 18.347c-2.156-1.55-4.695-2.699-7.406-3.574l.476-.984.52-.512c1.847-1.82 1.437-3.785.039-5.176 1.71-2.273 3.262-3.968 4.566-6.187l-.015-1.524c-.012-1.406.109-1.687.109-1.687Zm-16.734.742c.144-.012.164.328.199 1.29.035.898.074 1.327.14 1.417.086.129.172.137 1.333.172 1.226.035 1.48.066 1.48.187 0 .036-.156.207-.348.383l-.351.32-1.094-.019c-.582.02-1.27.008-1.285.023-.098.083.265.192.797.196.332 0 .86.055.918.074.207.074.11.262-.34.656l-.45.395-.992-.02c-.546-.008-1.21.004-1.296.032-.301.09-.153.168.347.171.836.012 1.41.079 1.434.196.015.058-.14.27-.348.468l-.37.364-1.458-.055c-1.383.008-1.566.098-.418.207.441.04 1.133.14 1.16.145.024.004.063.05.086.105.047.113-.508.684-.805.824-.152.075-.257.078-.523.024-.312-.067-1.648-.055-1.793.023-.121.067.14.14.512.149.558.011 1.226.16 1.226.28 0 .102-.285.419-.586.661-.14.11-.472.012-1.394.04-.633.015-1.055.07-1.055.108 0 .036.317.149.719.176.398.024.945.114.984.149.094.086-.62.851-.62.851l-3.032-.043-.277-2.937.257-.274c.582-.609.711-.523.825.578.082.805.144 1.051.273.934.047-.043.027-.5-.016-1.176-.039-.558-.07-1.066-.07-1.129 0-.152.692-.816.824-.789.133.024.207.297.278 1.047.058.621.09.79.222.668.063-.058.07-.383.012-1.164l-.082-1.023.293-.317c.59-.636.703-.566.773.469.047.7.122 1.066.262 1.066.047 0 .051-.52.024-1.308l-.043-1.184.367-.34c.203-.187.41-.34.457-.34.14 0 .223.297.312 1 .102.786.133.918.215.844.035-.031.031-.508-.015-1.117l-.102-1.172.45-.414c.245-.226.491-.406.55-.394.133.023.219.379.23.879.008.468.094.87.208.976.058.05.074-.238.062-1.074-.02-1.285-.059-1.383.578-1.984.168-.16.278-.266.356-.274Zm16.379.547.011 1.793c-.789 1.539-2.61 3.793-4.457 6.21l-.96-.476c2.308-2.761 4.241-5.332 5.406-7.527Zm-26.336.531c.043 0 .093.004.148.004.496.027.508.184.047.582-.195.164-.418.297-.5.297-.145 0-.152-.02-.106-.363.055-.418.11-.516.41-.52Zm30.054 1.332 1.36 1.223.32 13.14-1.434 2.13Zm1.7 1.735c1.222 2.636 2.492 5.105 3.898 7.113l-3.64 4.683Zm-12.231 4.078c1.672-.02 3.207 1.191 3.398 2.422.364 1.41-.433 2.925-1.738 3.39-.453.149-.719.16-.719.16-.16-.851-.09-1.671-.296-2.535 0 0-.786.942-1.227 1.274-.227.113-.328.144-.3-.13.015-.476.058-1.534.058-1.534l-1.934 1.824s-.156-.2-.344-.656c-.601-1.485.188-3.032 1.43-3.743a3.325 3.325 0 0 1 1.672-.472Zm25.684-.078.035 1.605c-3.031 2.145-7.36 6.66-11.07 12.55l-1.633.626c2.52-5.48 7.832-11.063 12.668-14.781Zm.03 2.113.028 2.39c-2.676 2.348-5 4.77-7.027 7.891-1.18.516-3.367 1.496-3.367 1.496-.274-.058 5.965-8.914 10.367-11.777Zm-26.968 2.016c.121 0 .113.214.074.527-.086.707-.175.96-.46 1.305-.981 1.058-2.54 2.492-2.755 3.828-.105.715.504 1.382 1.102 1.316 1.86-.21 2.066-3.234 2.227-4.727.062-.367.093-.68.16-.792.394-.457.816-.903 1.347-1.266l.223 2.312 1.05-.32c-2.964 3.672-2.112 3.902-3.675 5.406-1.453 1.395-4.262-.203-3.539-2.328.629-1.43 1.598-2.863 1.86-4.394.074-.453.113-.77.113-.77l.672 1.281c.343-.308 1.343-1.324 1.601-1.379Zm27.074.824-.007 1.648c-1.383 1.418-2.575 2.508-3.985 4.465l-2.238.93c1.465-2.54 3.863-4.914 6.23-7.043Zm-27.34 1.422s.145.773-.183 2.168c-.156.664-.856 2.597-1.961 2.14-.938-.758.207-2.16.785-2.82.445-.477.93-.992 1.36-1.488Zm-2.949.195-.61 1.191c-5.483.012-10.808 1.797-15.554 5.45l-1.199-.36c5.027-4.332 11.254-6.433 17.363-6.281Zm5.762.926c6.176 1.894 9.027 4.656 11.36 7.554l-.977.454c-2.445-2.899-5.465-5.551-11.09-7.09Zm-7.078 1.773-.266 1.024c-3.46.09-7.113 1.207-10.668 3.457l-1.281-.188c3.578-2.562 7.664-4.02 12.215-4.293Zm15.8 6.922-1.097.473c-3.27-3.887-6.227-4.996-9.59-5.989l.363-.859c4.52 1.102 7.832 3.203 10.325 6.375Zm-45.652-4.633.078 10.36-.789-.145-.097-10.02Zm-1.832.563c-1.511 5.148-.343 6.484.196 9.492l-1.247-.184c-1.21-3.047-1.328-5.82-.3-9.05Zm37.871.836c.094.082-.078.332-.308.457-.227.12-.176.105-.535-.016-.352-.113-.793-.418-.793-.531.254.004 1.41-.008 1.636.09Zm1.059.074c.207.023.805.012.84.183.015.102-.219.266-.7.563-.726.453-.972.543-1.187.328-.203-.207-.14-.418.2-.703.331-.277.523-.375.847-.371Zm-24.816.082c.418 0 1.16.473 1.609 1.02.457.652.977 1.32 1.402 1.98.957 1.5 1.7 3.02 2.317 4.578 1.625 3.703 2.574 7.293 3.363 10.86-.016.3-.3.296-.535.226-.121-.04-.242-.113-.266-.168-.336-.875-.453-1.77-.707-2.645-.64-2.195-.867-3.449-2.101-6.543-.641-1.605-1.567-3.84-2.582-5.558-.649-1.098-1.403-2.117-2.38-3.016-.257-.238-.577-.453-.577-.5 0-.148.164-.234.457-.234Zm26.402.152c.387.086 1.316.188.965.469-1.313.457-1.735.957-2.43 1.465-.105-.004-.52-.473-.52-.586.567-.633 1.274-.902 1.985-1.348Zm-24.508-.027c.547-.016 1.082.629 1.332 1.039 1.68 2.266 3.117 5.496 4.3 8.66 1.27 3.406 2.075 6.68 2.427 9.004-.032.074-.192.098-.371.098-.344-.004-.395-.075-.48-.325-.876-3.847-2.048-7.812-3.47-11.183-.761-1.797-1.629-3.598-2.847-5.406-.832-1.121-1.305-1.707-1.27-1.793.024-.059.164-.09.324-.09.016 0 .036-.004.055-.004Zm-3.766.062c.739 0 1.961.801 2.79 1.832 1.757 2.207 2.757 4.782 3.8 7.282 1.196 2.863 2.055 6.047 2.57 8.55.087.36.231.516-.14.63-.563-.15-.547-.133-.707-.758-.219-.672-.285-1.348-.488-2.032-1.184-3.898-2.504-8.23-4.707-11.754-2.645-3.879-3.418-2.8-3.84-3.484.031-.156.328-.266.722-.266Zm6.38.957c2.269 3.621 3.273 5.848 3.96 8.036 1.047 3.316 2.285 5.964 2.828 9.835 0 0-.601.008-.84-.082-.097-.09-.203-.476-.265-.793-.543-2.734-1.43-5.968-2.371-8.515-1.016-2.84-2.227-5.54-4.02-8.145-.468-.703-.554-.98-.27-.992.516.035.743.395.977.656Zm23.73-.359c.105 0 .148-.012.34.047.3.094.398.156.414.266.023.156-.164.21-.746.332-.457.097-1.352.535-1.973 1.003-.29.22-.54.454-.61.454-.14 0-.484-.344-.48-.485.477-.664 1.992-1.574 3.055-1.617Zm-31.387.05c1.93.055 3.434 2.106 4.223 3.485.308.543.707 1.13 1.008 1.746 1.562 3.2 2.882 7.211 3.527 9.774.312 1.23.672 2.136.543 2.379-.16.09-.496.02-.649-.098-.101-.078-.152-.36-.328-.875-.449-1.32-1.187-5.094-3.12-9.063-.044-.09-.981-2.597-2.602-4.98-.657-.969-1.727-1.578-2.7-1.777-.488-.075-.636-.02-.605-.262.02-.156.074-.2.336-.273.117-.032.238-.051.367-.055Zm12.04 8.192c-.13 0-.247-.23-.333-.605-.043-.188-.105-.32.278-.54 2.394-2.32.343-5.734-2.665-6.034-.277-.04-.636-.04-.742-.079-.152-.078-.43-.57-.55-.77 4.156-.917 8.554 4.524 4.011 8.028Zm20.71-7.57c.246.058.785.516.715.617-.078.117-.547.121-1.219.23-1.426.227-2.043 1.079-2.707 1.712-.148.039-.277-.055-.41-.258-.098-.153-.176-.336-.176-.407.746-.988 2.735-1.984 3.797-1.894Zm-33.726.254c1.214 0 2.425.539 3.109 1.418 2.488 3.414 5.277 10.996 5.941 14.734-.066.121-.246.133-.59.043-.195-.05-.171-.11-.292-.457-.778-2.723-1.633-5.367-2.637-7.797-.52-1.25-1.133-2.472-1.707-3.57-.363-.695-1.094-1.93-1.371-2.309-.657-1.129-1.98-1.457-2.817-1.097-.863.425-.972 1.449-.316 1.902.547.348 1.406.293 1.723-.246.109-.192.074-.43.007-.488-.07-.059-.191-.043-.215.02.043.663-.882.702-1.285.444-.644-.44-.215-1.835 1.543-1.273.68.328.907.945.582 1.598-.332.668-.84.972-1.629.968-.953-.015-2.039-.632-2.043-1.734.004-.82.422-1.504 1.204-1.96.289-.173.402-.196.793-.196Zm10.285.523c2.945.13 4.297 3.301 2.742 5.211-.395.457-.645.371-.813-.219-.082-.242-.175-.277.063-.464 1.383-1.207.254-3.559-2.024-3.657 0 0-.421-.566-.464-.867.152-.05.355-.004.496-.004Zm24.578.246c.222.051.695.47.695.614 0 .171-.094.14-.617.058-1.238-.207-2.48.45-3.52 1.88-.503.855-.566.773-.828.034-.136-.379-.136-.37.39-1.07.985-1.152 2.438-1.676 3.88-1.516Zm1.152 1.457c1.035.864.547 2.758-.855 2.954-1.235.128-2.332-1.094-1.551-1.926.508-.5 1.14-.551 1.527-.117.403.445.23 1.05-.34 1.113-.066.023-.125.07-.125.105 0 .114.512.082.684-.047.348-.351.355-.886.047-1.27-.277-.339-.863-.612-1.336-.437-.832.27-1.68 1.301-2.168 2.598-.137.363-.215.707-.273.785-.118.168-.11.16-.22.098-.097-.055-.273-.852-.273-1.153 0-.23.22-.835.508-1.355.903-1.527 2.926-2.55 4.375-1.348Zm-25.273-.414c1.207.067 2.156 1.63 1.633 2.72-.164.198-.399.335-.508.206-.04-.043-.223-.555-.48-1.098-.255-.539-.493-1.07-.563-1.203-.192-.375-.332-.629-.082-.625Zm-8.203.895c1.37 2.226 2.515 4.781 3.468 7.273.739 1.942 1.344 3.848 1.692 5.532.035.168.082.257 0 .332-.137.125-.793-.184-.793-.184-1.145-3.621-2.067-7.254-4.797-11.867 0 0-.121-.184-.152-.301-.036-.29.058-.656.25-.86.078-.074.183-.081.332.075Zm-15.434 4.187c6.5.407 11.527 2.914 14.203 9.532-.953-.493-5.793-3.895-14.14-4.352l-.012-.918c5.984-.039 11.82 2.816 11.699 2.773-2.223-4.195-7.812-5.902-11.77-6.019Zm45.11 1.391c-.41.586-.395.562-.59 1.066.023.164.054 1.192.078 1.79.035.761.058 1.093.125 1.167.11.121.336.141.433.032.04-.043.11-.207.153-.364.539-1.855.793-2.546 1.011-2.777.141-.168.192-.152.778-.09 1.328.11 1.777-1.332.914-1.914-1.16-.59-2.39.395-2.903 1.09Zm1.398.394c-.95.711-.977 1.735-1.266 2.68-.156.637-.375.969-.46.012-.157-1.328.046-2.32.679-3.102.39-.574 1.031-.96 1.61-.996 1.238-.078 1.363.82 1.019 1.301-.25.352-.945.504-1.582.106Zm-44.793.376c.469 0 .848.347.848.773-.004.426-.383.773-.852.773-.465 0-.844-.347-.844-.773 0-.43.38-.773.848-.773Zm2.7.53c.417 0 .757.31.757.692-.004.383-.344.692-.762.692-.418 0-.754-.313-.754-.692 0-.383.34-.691.758-.691Zm2.456.762c.34 0 .617.254.613.563 0 .312-.273.566-.613.566-.34-.004-.617-.254-.617-.566 0-.313.277-.563.617-.563Zm1.746 1.012c.262 0 .477.195.477.438-.004.238-.215.433-.477.433-.265 0-.48-.195-.48-.433.004-.243.218-.438.48-.438Zm-6.12 1.383c-.18.836-.04 1.7.171 2.297.477 1.281.254 3.574.254 3.574l-1.41 1.29c.101-1.204.261-2.47.187-3.481-.047-.668-.379-1.297-.465-1.97-.078-.624.043-1.87.043-1.87Zm2.288.387.04 5.468-4.837 4.274-.004-1.129 4.125-3.727-.082-5.066ZM30.637 123l-.317.473 5.45.004.117-.473Zm7.054.008-.129.472 2.524.004.086-.472s-1.324-.004-2.48-.004Zm4.137.004-.082.472 9.367.012-.136-.473Zm10.95.015.148.47 2.496.003-.207-.473Zm4.171.004.18.473 4.289.004-.355-.473Zm0 0" style="stroke:none;fill-rule:nonzero;fill:#000;fill-opacity:1"/></svg>