<?xml version="1.0" encoding="UTF-8"?>
<svg xmlns="http://www.w3.org/2000/svg" xmlns:xlink="http://www.w3.org/1999/xlink" width="99px" height="140px" viewBox="0 0 99 140" version="1.1">
<g id="surface1">
<path style="fill-rule:nonzero;fill:rgb(100%,100%,100%);fill-opacity:1;stroke-width:0.755906;stroke-linecap:butt;stroke-linejoin:miter;stroke:rgb(50.196078%,50.196078%,50.196078%);stroke-opacity:1;stroke-miterlimit:4;" d="M 9.297585 719.743103 L 224.702415 719.743103 C 229.632812 719.743103 233.621449 723.747651 233.621449 728.681329 L 233.621449 1043.042991 C 233.621449 1047.976669 229.632812 1051.981217 224.702415 1051.981217 L 9.297585 1051.981217 C 4.367188 1051.981217 0.378551 1047.976669 0.378551 1043.042991 L 0.378551 728.681329 C 0.378551 723.747651 4.367188 719.743103 9.297585 719.743103 Z M 9.297585 719.743103 " transform="matrix(0.423077,0,0,0.42042,0,-302.434542)"/>
<path style=" stroke:none;fill-rule:nonzero;fill:rgb(100%,0%,0%);fill-opacity:1;" d="M 24.804688 39.820312 L 36.753906 27.90625 L 24.804688 15.992188 L 12.855469 27.90625 Z M 24.804688 39.820312 "/>
<path style=" stroke:none;fill-rule:nonzero;fill:rgb(100%,0%,0%);fill-opacity:1;" d="M 24.804688 124.007812 L 36.753906 112.09375 L 24.804688 100.179688 L 12.855469 112.09375 Z M 24.804688 124.007812 "/>
<path style=" stroke:none;fill-rule:nonzero;fill:rgb(100%,0%,0%);fill-opacity:1;" d="M 74.195312 39.820312 L 86.144531 27.90625 L 74.195312 15.992188 L 62.246094 27.90625 Z M 74.195312 39.820312 "/>
<path style=" stroke:none;fill-rule:nonzero;fill:rgb(100%,0%,0%);fill-opacity:1;" d="M 74.195312 124.007812 L 86.144531 112.09375 L 74.195312 100.179688 L 62.246094 112.09375 Z M 74.195312 124.007812 "/>
<path style=" stroke:none;fill-rule:nonzero;fill:rgb(100%,0%,0%);fill-opacity:1;" d="M 7.277344 25.789062 L 11.261719 21.816406 L 7.277344 17.847656 L 3.296875 21.816406 Z M 7.277344 25.789062 "/>
<path style=" stroke:none;fill-rule:nonzero;fill:rgb(100%,0%,0%);fill-opacity:1;" d="M 91.722656 114.210938 L 95.703125 118.183594 L 91.722656 122.152344 L 87.738281 118.183594 Z M 91.722656 114.210938 "/>
<path style=" stroke:none;fill-rule:nonzero;fill:rgb(100%,0%,0%);fill-opacity:1;" d="M 11.261719 14.777344 C 11.261719 14.894531 11.242188 15.007812 11.203125 15.117188 C 11.117188 15.171875 11.023438 15.199219 10.925781 15.199219 L 6.242188 15.199219 C 5.882812 15.199219 5.703125 14.992188 5.703125 14.578125 C 5.703125 14.511719 5.707031 14.398438 5.71875 14.230469 C 5.726562 14.066406 5.734375 13.941406 5.734375 13.851562 C 5.734375 13.660156 5.769531 13.535156 5.84375 13.480469 C 5.894531 13.441406 6.015625 13.421875 6.199219 13.421875 L 8.023438 13.421875 L 8.023438 12.152344 L 3.929688 12.152344 C 3.507812 12.152344 3.296875 11.925781 3.296875 11.480469 C 3.296875 11.402344 3.304688 11.265625 3.316406 11.058594 C 3.332031 10.851562 3.339844 10.683594 3.339844 10.5625 C 3.339844 10.378906 3.433594 10.144531 3.625 9.863281 L 7.839844 3.582031 C 7.972656 3.386719 8.136719 3.285156 8.335938 3.285156 L 9.300781 3.285156 C 9.527344 3.285156 9.644531 3.429688 9.644531 3.714844 L 9.644531 10.457031 C 9.816406 10.457031 10.015625 10.453125 10.242188 10.441406 C 10.46875 10.429688 10.617188 10.421875 10.679688 10.421875 C 10.941406 10.421875 11.105469 10.5 11.167969 10.648438 C 11.230469 10.789062 11.261719 11.148438 11.261719 11.722656 C 11.261719 11.824219 11.253906 11.90625 11.242188 11.960938 C 11.210938 12.085938 11.097656 12.152344 10.90625 12.152344 L 9.644531 12.152344 L 9.644531 13.421875 C 9.824219 13.421875 10.027344 13.417969 10.253906 13.40625 C 10.484375 13.394531 10.628906 13.390625 10.6875 13.390625 C 10.964844 13.390625 11.132812 13.46875 11.1875 13.628906 C 11.238281 13.761719 11.261719 14.144531 11.261719 14.777344 Z M 8.050781 5.9375 C 7.785156 6.398438 6.796875 7.90625 5.089844 10.457031 L 8.023438 10.457031 C 8.023438 10.164062 8.019531 9.664062 8.007812 8.953125 C 7.996094 8.308594 7.988281 7.804688 7.996094 7.441406 C 8 6.890625 8.019531 6.390625 8.050781 5.9375 Z M 8.050781 5.9375 "/>
<path style=" stroke:none;fill-rule:nonzero;fill:rgb(100%,0%,0%);fill-opacity:1;" d="M 87.738281 125.222656 C 87.738281 125.105469 87.757812 124.992188 87.796875 124.882812 C 87.882812 124.828125 87.976562 124.800781 88.074219 124.800781 L 92.757812 124.800781 C 93.117188 124.800781 93.296875 125.007812 93.296875 125.421875 C 93.296875 125.488281 93.292969 125.601562 93.28125 125.769531 C 93.273438 125.933594 93.265625 126.058594 93.265625 126.148438 C 93.265625 126.339844 93.230469 126.464844 93.15625 126.519531 C 93.105469 126.558594 92.984375 126.578125 92.800781 126.578125 L 90.976562 126.578125 L 90.976562 127.847656 L 95.070312 127.847656 C 95.492188 127.847656 95.703125 128.074219 95.703125 128.519531 C 95.703125 128.597656 95.695312 128.734375 95.683594 128.941406 C 95.667969 129.148438 95.660156 129.316406 95.660156 129.4375 C 95.660156 129.621094 95.566406 129.855469 95.375 130.136719 L 91.160156 136.417969 C 91.027344 136.613281 90.863281 136.714844 90.664062 136.714844 L 89.699219 136.714844 C 89.472656 136.714844 89.355469 136.570312 89.355469 136.285156 L 89.355469 129.542969 C 89.183594 129.542969 88.984375 129.546875 88.757812 129.558594 C 88.53125 129.570312 88.382812 129.578125 88.320312 129.578125 C 88.058594 129.578125 87.894531 129.5 87.832031 129.351562 C 87.769531 129.210938 87.738281 128.851562 87.738281 128.277344 C 87.738281 128.175781 87.746094 128.09375 87.757812 128.039062 C 87.789062 127.914062 87.902344 127.847656 88.09375 127.847656 L 89.355469 127.847656 L 89.355469 126.578125 C 89.175781 126.578125 88.972656 126.582031 88.746094 126.59375 C 88.515625 126.605469 88.371094 126.609375 88.3125 126.609375 C 88.035156 126.609375 87.867188 126.53125 87.8125 126.371094 C 87.761719 126.238281 87.738281 125.855469 87.738281 125.222656 Z M 90.949219 134.0625 C 91.214844 133.601562 92.203125 132.09375 93.910156 129.542969 L 90.976562 129.542969 C 90.976562 129.835938 90.980469 130.335938 90.992188 131.046875 C 91.003906 131.691406 91.011719 132.195312 91.003906 132.558594 C 91 133.109375 90.980469 133.609375 90.949219 134.0625 Z M 90.949219 134.0625 "/>
</g>
</svg>
