<?xml version="1.0" encoding="UTF-8"?>
<svg xmlns="http://www.w3.org/2000/svg" xmlns:xlink="http://www.w3.org/1999/xlink" width="99px" height="140px" viewBox="0 0 99 140" version="1.1">
<g id="surface1">
<path style="fill-rule:nonzero;fill:rgb(100%,100%,100%);fill-opacity:1;stroke-width:0.755906;stroke-linecap:butt;stroke-linejoin:miter;stroke:rgb(50.196078%,50.196078%,50.196078%);stroke-opacity:1;stroke-miterlimit:4;" d="M 9.297585 719.743103 L 224.702415 719.743103 C 229.632812 719.743103 233.621449 723.747651 233.621449 728.681329 L 233.621449 1043.042991 C 233.621449 1047.976669 229.632812 1051.981217 224.702415 1051.981217 L 9.297585 1051.981217 C 4.367188 1051.981217 0.378551 1047.976669 0.378551 1043.042991 L 0.378551 728.681329 C 0.378551 723.747651 4.367188 719.743103 9.297585 719.743103 Z M 9.297585 719.743103 " transform="matrix(0.423077,0,0,0.42042,0,-302.434542)"/>
<path style=" stroke:none;fill-rule:nonzero;fill:rgb(100%,0%,0%);fill-opacity:1;" d="M 24.804688 39.820312 L 36.753906 27.90625 L 24.804688 15.992188 L 12.855469 27.90625 Z M 24.804688 39.820312 "/>
<path style=" stroke:none;fill-rule:nonzero;fill:rgb(100%,0%,0%);fill-opacity:1;" d="M 24.804688 124.007812 L 36.753906 112.09375 L 24.804688 100.179688 L 12.855469 112.09375 Z M 24.804688 124.007812 "/>
<path style=" stroke:none;fill-rule:nonzero;fill:rgb(100%,0%,0%);fill-opacity:1;" d="M 49.5 102.960938 L 61.449219 91.046875 L 49.5 79.132812 L 37.550781 91.046875 Z M 49.5 102.960938 "/>
<path style=" stroke:none;fill-rule:nonzero;fill:rgb(100%,0%,0%);fill-opacity:1;" d="M 24.804688 81.914062 L 36.753906 70 L 24.804688 58.085938 L 12.855469 70 Z M 24.804688 81.914062 "/>
<path style=" stroke:none;fill-rule:nonzero;fill:rgb(100%,0%,0%);fill-opacity:1;" d="M 74.195312 39.820312 L 86.144531 27.90625 L 74.195312 15.992188 L 62.246094 27.90625 Z M 74.195312 39.820312 "/>
<path style=" stroke:none;fill-rule:nonzero;fill:rgb(100%,0%,0%);fill-opacity:1;" d="M 74.195312 124.007812 L 86.144531 112.09375 L 74.195312 100.179688 L 62.246094 112.09375 Z M 74.195312 124.007812 "/>
<path style=" stroke:none;fill-rule:nonzero;fill:rgb(100%,0%,0%);fill-opacity:1;" d="M 49.5 60.867188 L 61.449219 48.953125 L 49.5 37.039062 L 37.550781 48.953125 Z M 49.5 60.867188 "/>
<path style=" stroke:none;fill-rule:nonzero;fill:rgb(100%,0%,0%);fill-opacity:1;" d="M 74.195312 81.914062 L 86.144531 70 L 74.195312 58.085938 L 62.246094 70 Z M 74.195312 81.914062 "/>
<path style=" stroke:none;fill-rule:nonzero;fill:rgb(100%,0%,0%);fill-opacity:1;" d="M 7.277344 25.789062 L 11.261719 21.816406 L 7.277344 17.847656 L 3.296875 21.816406 Z M 7.277344 25.789062 "/>
<path style=" stroke:none;fill-rule:nonzero;fill:rgb(100%,0%,0%);fill-opacity:1;" d="M 91.722656 114.210938 L 95.703125 118.183594 L 91.722656 122.152344 L 87.738281 118.183594 Z M 91.722656 114.210938 "/>
<path style=" stroke:none;fill-rule:nonzero;fill:rgb(100%,0%,0%);fill-opacity:1;" d="M 11.261719 11.714844 C 11.261719 12.890625 10.859375 13.785156 10.058594 14.394531 C 9.351562 14.929688 8.417969 15.199219 7.246094 15.199219 C 6.089844 15.199219 5.160156 14.910156 4.453125 14.339844 C 3.683594 13.703125 3.296875 12.804688 3.296875 11.632812 C 3.296875 10.40625 3.917969 9.5 5.167969 8.921875 C 4.207031 8.289062 3.726562 7.382812 3.726562 6.210938 C 3.726562 5.175781 4.117188 4.40625 4.898438 3.902344 C 5.542969 3.492188 6.386719 3.285156 7.4375 3.285156 C 8.390625 3.285156 9.175781 3.527344 9.792969 4.007812 C 10.46875 4.550781 10.808594 5.300781 10.808594 6.265625 C 10.808594 7.371094 10.332031 8.253906 9.375 8.914062 C 10.632812 9.464844 11.261719 10.398438 11.261719 11.714844 Z M 8.828125 6.574219 C 8.828125 5.5625 8.308594 5.054688 7.261719 5.054688 C 6.789062 5.054688 6.410156 5.1875 6.128906 5.453125 C 5.847656 5.714844 5.707031 6.085938 5.707031 6.574219 C 5.707031 7.046875 5.855469 7.417969 6.152344 7.695312 C 6.433594 7.964844 6.804688 8.101562 7.261719 8.101562 C 7.710938 8.101562 8.085938 7.964844 8.382812 7.6875 C 8.679688 7.410156 8.828125 7.039062 8.828125 6.574219 Z M 9.195312 11.640625 C 9.195312 11.078125 9.011719 10.636719 8.640625 10.308594 C 8.292969 10 7.839844 9.847656 7.285156 9.847656 C 6.746094 9.847656 6.296875 10.003906 5.949219 10.320312 C 5.574219 10.648438 5.386719 11.089844 5.386719 11.640625 C 5.386719 12.222656 5.566406 12.671875 5.933594 12.988281 C 6.273438 13.289062 6.726562 13.4375 7.296875 13.4375 C 7.859375 13.4375 8.308594 13.285156 8.648438 12.980469 C 9.015625 12.664062 9.195312 12.214844 9.195312 11.640625 Z M 9.195312 11.640625 "/>
<path style=" stroke:none;fill-rule:nonzero;fill:rgb(100%,0%,0%);fill-opacity:1;" d="M 87.738281 128.285156 C 87.738281 127.109375 88.140625 126.214844 88.941406 125.605469 C 89.648438 125.070312 90.582031 124.800781 91.753906 124.800781 C 92.910156 124.800781 93.839844 125.089844 94.546875 125.660156 C 95.316406 126.296875 95.703125 127.195312 95.703125 128.367188 C 95.703125 129.59375 95.082031 130.5 93.832031 131.078125 C 94.792969 131.710938 95.273438 132.617188 95.273438 133.789062 C 95.273438 134.824219 94.882812 135.59375 94.101562 136.097656 C 93.457031 136.507812 92.613281 136.714844 91.5625 136.714844 C 90.609375 136.714844 89.824219 136.472656 89.207031 135.992188 C 88.53125 135.449219 88.191406 134.699219 88.191406 133.734375 C 88.191406 132.628906 88.667969 131.746094 89.625 131.085938 C 88.367188 130.535156 87.738281 129.601562 87.738281 128.285156 Z M 90.171875 133.425781 C 90.171875 134.4375 90.691406 134.945312 91.738281 134.945312 C 92.210938 134.945312 92.589844 134.8125 92.871094 134.546875 C 93.152344 134.285156 93.292969 133.914062 93.292969 133.425781 C 93.292969 132.953125 93.144531 132.582031 92.847656 132.304688 C 92.566406 132.035156 92.195312 131.898438 91.738281 131.898438 C 91.289062 131.898438 90.914062 132.035156 90.617188 132.3125 C 90.320312 132.589844 90.171875 132.960938 90.171875 133.425781 Z M 89.804688 128.359375 C 89.804688 128.921875 89.988281 129.363281 90.359375 129.691406 C 90.707031 130 91.160156 130.152344 91.714844 130.152344 C 92.253906 130.152344 92.703125 129.996094 93.050781 129.683594 C 93.425781 129.351562 93.613281 128.910156 93.613281 128.359375 C 93.613281 127.777344 93.433594 127.328125 93.066406 127.011719 C 92.726562 126.710938 92.273438 126.5625 91.703125 126.5625 C 91.140625 126.5625 90.691406 126.714844 90.351562 127.019531 C 89.984375 127.335938 89.804688 127.785156 89.804688 128.359375 Z M 89.804688 128.359375 "/>
</g>
</svg>
