<svg xmlns="http://www.w3.org/2000/svg" width="99" height="140"><path d="M9.298 719.743h215.404c4.93 0 8.92 4.005 8.92 8.938v314.362c0 4.934-3.99 8.938-8.92 8.938H9.298c-4.93 0-8.92-4.004-8.92-8.938V728.681c0-4.933 3.99-8.938 8.92-8.938Zm0 0" style="fill-rule:nonzero;fill:#fff;fill-opacity:1;stroke-width:.755906;stroke-linecap:butt;stroke-linejoin:miter;stroke:gray;stroke-opacity:1;stroke-miterlimit:4" transform="matrix(.42308 0 0 .42042 0 -302.435)"/><path d="M11.262 15.2H9.598l-.649-1.227c-.539.43-1.14.648-1.8.648-1.09 0-2.004-.547-2.747-1.637-.738-1.097-1.105-2.441-1.105-4.035 0-1.023.168-1.965.504-2.832.34-.867.808-1.554 1.414-2.07.594-.508 1.234-.762 1.918-.762 1.07 0 1.972.559 2.71 1.672.739 1.117 1.11 2.457 1.11 4.027 0 1.465-.324 2.727-.973 3.786ZM9.55 8.972c0-1.008-.23-1.871-.688-2.582-.468-.73-1.043-1.094-1.73-1.094-.711 0-1.293.351-1.746 1.062-.453.704-.676 1.579-.676 2.625 0 1.196.289 2.137.875 2.832.457.543.976.817 1.559.817.332 0 .648-.098.94-.29L6.77 9.86H8.44l.66 1.254c.297-.644.45-1.36.45-2.14ZM87.738 124.8h1.664l.649 1.227a2.803 2.803 0 0 1 1.8-.648c1.09 0 2.004.547 2.747 1.637.738 1.097 1.105 2.441 1.105 4.035 0 1.023-.168 1.965-.504 2.832-.34.867-.808 1.554-1.414 2.07-.594.508-1.234.762-1.918.762-1.07 0-1.972-.559-2.71-1.672-.739-1.117-1.11-2.457-1.11-4.027 0-1.465.324-2.727.973-3.786Zm1.711 6.227c0 1.008.23 1.871.688 2.582.468.73 1.043 1.094 1.73 1.094.711 0 1.293-.351 1.746-1.062.453-.703.676-1.578.676-2.625 0-1.196-.289-2.137-.875-2.832-.457-.543-.977-.817-1.559-.817-.332 0-.648.098-.94.29l1.315 2.484H90.56l-.66-1.254a5.062 5.062 0 0 0-.45 2.14ZM7.277 17.848l3.985 3.968-3.985 3.973-3.98-3.973ZM91.723 114.21l3.98 3.974-3.98 3.968-3.985-3.968ZM24.805 35.848l7.965-7.942-7.965-7.941-7.965 7.941ZM74.195 120.035l7.965-7.941-7.965-7.942-7.965 7.942Zm0 0" style="stroke:none;fill-rule:nonzero;fill:red;fill-opacity:1"/><path d="M62.457 16.887S73.828 31.953 77.68 34.625c.285.125 5.039-.71 5.039-.71-2.438-5.349-4.004-10.88-2.422-17.083Zm6.316 23.828c-7.835 2.027-15.656 3.933-24.152.629l-9.281 8.218c-.074.211 12.023 4.993 12.215 4.47l-2.977 8.718 6.863 1.383 3.153-9.274s9.48-.832 13.883-2.214c3.343-1.055 6.804-1.817 9.793-4.106-6.172-3.398-9.5-7.867-9.497-7.824Zm-47.136 2.43c-2.969-1.672-5.293 1.77-3.117 3.484-.254 1.004-.34 2.496.718 3.152.973.567 2.785-.02 3.047-.011.02 0 .047 1.804-.101 1.8-.286-.008-1.344-.84-2-1.02-2.215-.609-5.329-.91-5.274-.804.094.176-.55.594 1.918 2.016.918.527 3.817-.067 6.125.601 1.41.407 2.793 1.082 3.555.746.965-.37 2.094-1.539 2.457-2.492.101-1.039-5.793 1.211-5.438 1.246l-.015-2.093c2.375.238 4.52-1.34 2.183-4.047 1.739-1.582-.691-5.36-4.058-2.578Zm9.898 9.582C25.691 58.125 13.75 68.262 13.75 68.262l.125 7.562 11.668 9.574c.926-10.164 7.223-19.648 13.223-24.39.55-1.446-5.961-7.778-7.23-8.281Zm41.63 1.867c-.88 6.25-1.68 14.77-13.243 24.242 2.004 3.129 4.555 6.312 8.223 7.832.261.539 10.609-9.816 16.972-14.711l-.031-6.633Zm-52.11 1.34c-.024.136-.45 1.777-.559 1.734.008.09 1.184-.398 1.317-.848.117-.394.386-.93.402-1.008-.266-1.687-.766-.488-1.16.122Zm-4.328 4.37c-.418.93-.813 2.637-.668 3.75 2.07.95 2.632-3.003 2.078-3.378-.336-.13-1.125-.383-1.41-.371Zm63.925 18.118c-.191.789-.148 1.023.235 1.176.668.27.968-.055 1.508-1.34.32-.762.605-1.914.347-2.371-1.27-.809-1.941 1.941-2.09 2.535ZM49.348 76.57a6.052 6.052 0 0 0-1.157.11c-3.418.718-3.16 6.191-3.738 8.375-10.734 1.402-13.574 2.074-16.516 3.18-4.57 1.722-6.019 2.773-7.23 3.64.762-.082 8.965 6.934 9.39 7.922-.523-1.356 15.872-4.66 24.606-1.34 1.07.352 9.227-7.262 8.969-8.11 1.062-1.699-10.281-3.609-11.711-4.671-1.176-5.793 7.922-8.965 1.625-8.797-1.148.031-2.785-.32-4.238-.309Zm28.547 6.508c-.204.219-.407.336-.668.59l-.602.727.438.644 1.117-1.129Zm-8.004 7.285c1.18-.488 5.359-2.347 5.539-1.918l-.09 1.86c-.64-.192-4.766.433-2.38 4.34-1.503 3.105 1.845 4.703 4.192 2.652 4.918 1.547 4.262-2.965 3.246-3.695.801-1.137-.207-3.563-.707-3.57 0 0 4.293.886 3.871.187-.19-.32-.43-.871-1.382-1.457-1.098-.672-3.032-.43-4.594-.727-1.672-.32-2.746-.87-4.152-.945-2.118.176-4.098 1.883-3.543 3.273Zm-47.825 14.64-5.914 1.45s1.914 4.07 2.575 7.7c.808 4.44.164 9.265.164 9.265l17.16.082Zm0 0" style="stroke:none;fill-rule:nonzero;fill:#e2cf00;fill-opacity:1"/><path d="M37.477 123.441c-7.532-9.851-14.508-19.226-23.774-29.558 0 0 .008-3.992.043-7.953l28.457 37.414Zm15.242-15.91c-.242-1.87-.657-4.11-1.254-6.039L56.66 97c-.562 4.016-1.422 7.094-3.941 10.531Zm24.836-14.156c1.16 1.414-.801 2.2-1.543 1.57-1.5-1.277.699-2.597 1.543-1.57ZM26.03 84.453c-.863.508 1.551-12.348 8.168-18.992 4.028 10.574-3.074 16.504-8.168 18.992Zm32.66-.047-4.398-1.086 2.191-5.64s4.13.886 3.774 2.058c-1.145 3.813-1.567 4.668-1.567 4.668Zm-20.355-2.168c1.191-1.793 2.098-3.77 2.93-5.797l6.25-.793-3.625 6.442Zm26.5-7.91c-3.402-6.21.605-16.043 8.008-18.75-.266 6.3-2.399 12.68-8.008 18.75Zm-22.871-1.766c.152-2.207-.125-4.519-.457-6.566l15.476 1.89.54 5.95Zm11.324-9.449c.527-1.89.992-3.465 2.004-5 1.129.035 5.7-.656 5.113.16-1.242 1.457-1.836 3.82-2.648 5.309-.856-.082-4.723.531-4.469-.469Zm-10.25-1.082c-1.562-.508-3.703-.648-4.535-1.758l1.625-4.73 4.824 1.355ZM56.57 16.898l3.782-.035s18.156 21.301 24.96 29.59c-.226.844.075 7.996.075 7.996C75.75 42.012 56.57 16.9 56.57 16.9Zm-34.816 29.72c-1.016-.997.598-1.884 1.27-.993.593.79-.735 1.52-1.27.992Zm20.371-3.493c.059-4.934 3.879-10.793 3.84-10.645-.047-.007.543 4.829 1.277 6.348-.199.27-4.933 4.606-5.117 4.297Zm0 0" style="stroke:none;fill-rule:nonzero;fill:#d40000;fill-opacity:1"/><path d="m12.996 15.992-.14 108.004 73.289.012-.024-107.84Zm66.977.848c-.594 5.973-.7 10.656 2.683 16.855-.61.586-5.21.754-6.664 1.45-.027.167.375.457.375.457 1.516-.649 7.43-1.235 7.43-1.235-2.477-3.96-4.516-11.578-2.98-17.418l4.269.012-.027 28.777s.336 5.555.464 8.684c-2.273-2.692-5.289-6.457-7.257-9.25-2.387-3.078-5.047-6.692-7.778-10.082-.804-1.07-1.953-2.457-2.89-3.703-1.47-1.93-2.684-3.422-4.211-5.5-1.63-2.145-3.188-4.098-5.125-6.59-1.64-2.125-1.715-2.375-1.715-2.375Zm-28.04.11c2.766 4.41 7.723 5.905 8.97 6.202l.722.97c-5.84-1.048-8.969-4.49-10.438-6.614-.113-.164-.101-.547-.101-.547Zm-2.742 0c-.765 1.667-1.836 2.624-2.851 3.632l.035-1.07c.031.066 1.52-1.45 2.035-2.563Zm1.34 0s.024.284-.07.519c-.586 1.734-4.227 5.031-4.121 4.539l-.04-.852c-.015.035 2.74-2.402 3.458-4.207Zm-2.648 0c-.281.484-1.34 1.948-1.438 1.542l.094-1.543Zm8.32 0c.461.609.879 1.054 1.36 1.679.09.117.144.258.12.312-.074.172-.288.043-.894-.445-.988-.805-1.66-1.547-1.66-1.547Zm-3.68 0 .895.003c1.852 2.82 5.176 4.32 6.324 4.649.309.312.637.878.766 1.003-3.102-.77-6.578-3.175-7.985-5.656Zm2.172-.012c.989 1.304 2.535 2.222 3.407 2.843.464.34 1.086 1.028 1.027 1.164-1.941-.562-4.207-2.535-5.25-3.996Zm-3.8.808.539.785c-1.305 1.977-2.946 3.754-5.13 5.157l-.011-1.032c2.48-1.636 3.55-3.281 4.602-4.91Zm.875 1.14c1.554 1.923 4.91 4.9 10.292 5.79 0 0 .305.254.75.808.567.707.575.735.653 1.891.047 2.117.8 4.992 1.543 6.8-.09.45-.176.677-1.102 1.821-3.851 4.774-12.058 9.285-16.101 3.125-1.348-1.973-1.48-5.754-1.563-8.113 0 0 .024-.164.035-.211.098-.43.23-.36.961-.176.739.29 1.508.055 2.293-.14.89-.333.965-.075.106.66-.297.254-.66.644-.625.625.039-.02.539-.207.761-.36.688-.48.848-.297.594.23-1.078 2.239-1.273 2.329.246 2.95.317.129.535.273.711.418 1.04.894.668.414.375 0-.445-.645-.043-.984.711-.586.508.27 1.168.484 1.528.383.699-.211.914-.914.707-1.684-.168-.43-1.122-1.183-.903-.394.574-.024 1.07.722.57 1.23-.374.465-1.046.211-2.078-.41-.566-.395-1.257-.191-1.23.289.016.324-.484.25-.809-.164-.18-.227-.058-.887.282-1.512 2.136-3.937.336-7.75-3.36-6.676-.41.118-.773.215-.773.215l-.02-1.504c2.121-1.359 4.371-3.52 5.446-5.304Zm2.156 7.063c-.555.617-.36 1.168.867.613.996-.449 1.133-.503 2.219-.539 1.543-.05 2.925.399 4.636 1.364 1.133.636 1.301.683.993.285-.918-1.61-6.332-4.05-8.715-1.723Zm-5.235.184c1.07.25 2.098.898 1.918 1.164-.062.098-.125.117-.261.05-.782-.355-2.032-.933-3.832-.226-.2.078-.313-.043-.309-.262 0-.43.785-.77 1.613-.797.293 0 .614.016.871.07Zm6.215 1.25c-.636.305-.855.465-1.125.328-.648-.324-.511-.07-.11.586.282.457.282.555.24.836-.048.308-.04.32.284.648.61.73 1.215 1.438 2.125 1.996.285.172.664.371.696.371.09.004.054-.062-.11-.21-1.164-1.028-2.086-1.95-.898-1.56 1.383.415 2.699-.1 3.781-.437.438-.125.902-.23 1.016-.23.996.004 1.23-.379.593-.957-2.156-2.219-3.945-2.738-6.492-1.371Zm5.117.414c.446.379.68.582.637.68-.05.105-.39-.07-.969-.352-1.156-.566-2.468-.7-4.105-.266-1.273.336-.898-.199.52-.699 1.136-.48 2.703-.34 3.917.637Zm-11.878-.762c.968-.015 1.98.277 2.66.813.472.37.125.46-.64.168-1.161-.438-2.142-.508-3.095-.102-.297.129-.64.281-.738.273-.156-.097-.227-.386-.086-.59.383-.343 1.14-.55 1.899-.562Zm16.015.305c.07.004.18.105.34.312.29.375.3.559.059 1.215-.293.801-.41.668-.485-.445-.05-.727-.05-1.086.086-1.082Zm.965 1.207c.11-.016.238.164.445.535.145.258.11.336-.34 1.547-.187.504-.367.91-.37.914-.141.098-.122.09-.18.02-.325-.375-.301-1.11-.024-1.993.211-.668.324-1.008.469-1.023Zm-8.758.09c.035-.004.25.039.25.039-.023 1.793 1.492 1.433 1.692.16 0 0 .37-.035.43.05.179.266-.239 1.032-.86 1.286-.453.183-1.07.14-1.441-.172-.102-.176-.415-.84-.356-1.117.07-.16.18-.238.285-.246Zm-.902.21h.047c.148.008.258.044.316.208l.324.91c-.238.262-1.144-.266-1.144-.664 0-.274.226-.446.457-.453Zm-6.149-.003c.23-.02.309.004.336.199.078.594-.566 1.234-1.406 1.27-.809.085-1.246-.493-1.223-1.055.004-.426.403-.48.45-.14.129.972 1.035 1.03 1.449.491.16-.21.121-.73.394-.765Zm9.95.199a.913.913 0 0 1 .28.059c.837.246.856.363.142.601-.852.281-.907.317-.708-.226.114-.305.145-.43.286-.434Zm-8.86.086c.621.035.672.516.13.676-.813.328-1.087.308-.77-.176.168-.344.32-.492.64-.5Zm-3.875.172c.074 0 .16.027.25.09.094.257.25.453.375.722-.125.114-.43.114-.625-.027-.386-.281-.32-.781 0-.785Zm19.48.558c.243 0 .485.348.567.61-.844.988-.71 2.84-.906 3.398-.168.453-.223.063-.692-1.117-.187-.473.762-2.836.985-2.887a.096.096 0 0 1 .047-.004Zm.86 1.012a.922.922 0 0 1 .488.68c.024.203-.086.476-.156.746a18.144 18.144 0 0 0-.484 2.976c-.035.477-.031.907-.055.946-.254.457-.789-.766-.742-1.739.168-.777.258-3.5.95-3.609Zm1.188 1.399c.117.152.195.265.23.398.063.227.012.496-.137 1.074-.382 1.531-.328 3.18-.078 4.875.055.356-.215.176-.625-.437-.226-.34-.37-.805-.437-1.356-.145-1.203.129-2.836.363-4.125.105-.57.176-1.07.684-.43Zm.64.933.676.746s-.29 1.715-.29 2.63c-.046.343.337 4.07.462 4.374-.414-.426-.61-.68-1.063-1.215-.05.008-.445-3.672-.175-5.082.168-.851.39-1.453.39-1.453Zm1.059 1.48c.113-.003.258.114.437.348.164.211.246.383.254.645.008.191-.097.336-.101.68-.02 2.027.28 3.94.656 5.785.133.66-.125.39-.55-.028-.391-.383-.4-.527-.61-1.07-.04-.11-.457-3.848-.453-4.133.015-1.16.05-1.808.195-2.086.047-.094.105-.136.172-.14Zm-2.453 4.075s-.785.37-.993.242c-.332-.828-1.527-3.05-1.55-3.445.023-.13.492-.715.492-.715.66 1.316 1.258 2.664 2.05 3.918ZM52.512 36.09c-.235.258-.52.148-1.09-.082-.293-.082-.246.031-.73.262-.376.18-.508.183-.758.18-.329 0-.446-.106-.446.105 0 .117-.02.644-.097.918-.106.37-.2.535-.141.601.168.14.309.055.66-.258.582-.515.977-.367 1.625-.175.742.218.895.297 1.57.082.958-.309 1.536-.309 1.915-.086.66.386.859.363.585-.688-.085-.34-.093-.863-.148-.953-.059-.101-.227.191-.402.297-.332.207-.508.203-1.262-.023-.445-.133-.945-.57-1.281-.18Zm12.125.137c.293.632 1.453 2.738 1.418 2.972-.227.188-.528.324-.707.156-.582-.972-.754-1.496-1.227-2.585-.14-.258.281-.922.516-.543Zm6.238-.075c.082-.011.254.145.383.301.394.488.422.547.433 1.07.043 1.895.305 4.125.887 5.848.113.336.332.75.309.805-.196.261-1.102-.438-1.375-1.5-.375-1.352-.598-2.758-.715-3.676-.152-1.613-.152-2.766.078-2.848Zm-6.965 1.043c.332.594.754 1.614 1.04 2.227.128.266-.536.473-.684.383-.266-.18-.391-.688-.567-.996-.55-1.106-.648-1.13-.344-1.473.188-.238.415-.535.555-.14Zm8.274.68c.05 0 .113.043.191.137.352.379.586.668.68.949.066.203.011.355.035.723.062.964.34 2.285 1.12 4.98.08.262.185.574.169.66-.074.492-.867-.308-1.098-1.136-.265-.942-.754-2.145-.898-3.254-.297-1.766-.461-3.059-.2-3.059Zm-8.973.71c.66 1.411.71 1.411.297 1.52-.442.118-.465.079-.98-.878-.376-.704-.45-.79-.133-1.043.48-.52.609-.024.816.402Zm-9.172-.335c-.074.004-.297.156-.52.238-.542.196-1.507.211-2.097.047-1.043-.383-.75.113.172.418.718.223 2.136.05 2.355-.36.137-.132.184-.343.09-.343Zm7.934.742c.59.832.765 1.168.664 1.23-.094.087-.559.247-.75.16-.239-.105-.45-.62-.555-1.023.074-.199.461-.55.64-.367Zm-14.727.352c.262 0 .945.843.809.996-.04.078-.297.004-.895-.149-.2-.07-.652-.12-.508-.386.07-.121.489-.461.594-.461Zm14.098 1.152c-.059.145-.504.18-.692.168a2.262 2.262 0 0 1-.25-.66c.063-.121.364-.441.516-.379.09.074.379.719.426.871Zm12.23-.809c.094 0 .258.153.496.47.457.597.395.554.723 1.98.371 1.617.812 2.77 1.262 4.422.007.273-.114.203-.446.015-.543-.304-.722-.64-.894-1.515-.29-1.45-.906-2.79-1.14-4.5-.126-.567-.138-.88 0-.871Zm-13.672.579c.32-.012.278.441.184.515-.234.188-.879.13-.988.14-.25-.355.593-.644.804-.655Zm15.301 1.539c.094.011.348.34.82.949.454.586.356.488.63 1.453.382 1.332 1.019 2.297 1.394 3.523 0 .141-.188.122-.363.055-.344-.133-.653-.355-.946-.574-.199-.2-.195-.45-.785-2.309a26.3 26.3 0 0 1-.535-1.867c-.223-.851-.32-1.246-.215-1.23Zm-49.312 3.98c1.547 2.61.976 3.766-2.352 4.13-.242-.032-.012 1.335-.02 1.948 1.665-.875 3.68-1.082 5.54-1.629-.508 1.485-1.395 3.168-4.082 2.91-2.813-1.992-6.118-.796-8.364-1.605-1.218-.418-1.687-1.66-1.699-1.871 1.461.133 3.113.422 4.535.324-1.55-1.094-1.097-2.605-.879-3.3-1.812-2.094-.3-4.454 2.332-3.907.274.059.813.3.813.3 2.539-2.085 5.484-.124 4.176 2.7Zm51.398-1.27c.106-.007.336.243.805.84 1.379 1.774 2.574 3.422 2.558 3.516-.062.305-1.5-.23-1.863-.668-.414-.5-1.578-3.062-1.578-3.469.004-.136.023-.214.078-.218Zm-56.258 7.59c.719.098.918.153.914.41.059.22-1.746.247-1.992.087-.195-.13.059-.414.25-.48.281-.079.559-.052.828-.017Zm49.762.235c-10.086 4.367-14.211 15.984-9.121 24.887l-.7.464c-4.992-9.414-1.277-19.5 6.833-24.593.328-.211 1.054-.38 1.39-.582 0 0-3.308.691-4.425 1.093-.23-.007-.895.207-1.614.922-.625.532-2.586 3.008-2.523 3.094l-5.207.191.004.18 5.113-.11c-5.266 7.946-3.973 15.505-.723 20.794l.082.05c.188.114.684-.218 1.715-1.113.426-.37.961-.828 1.192-1.02.636-.534 1.543-1.46 2.168-2.124-3.54-6.614-.047-15.325 8.23-19.25.016-.207-.086-.844-.086-.844s-.312-.258-.5-.234c-9.223 3.726-12.918 12.98-9.168 21.394l-.621.617c-4.71-8.715.348-19.605 9.168-22.687-.004-.2-.195-.45-.434-.297-9.52 4.05-13.671 14.402-9.007 23.226l-.586.477c-5.309-9.66.285-20.488 9.05-24.188.258-.054-.23-.347-.23-.347Zm-51.328.09s-.067.515.129.691c.093.367-.055.328-.395.254-.84-.184-.183.254.5.605.676.348.586.336-.004.68-.394.23-.351.317-.3.492.078.258.132.086.296-.054.348-.29.622-.364.93-.36.457 0 .504.34.422.602-.18.555-.8.523-1.313.387-.832-.227-2.19-1.551-2.171-2.329-.059-.699.984-1 1.906-.968Zm3.746.172c.32.109.727.253 1.176.425a7.3 7.3 0 0 1 1.644.72c1.23.75 1.157 2.253 1.067 2.401l-6.348 5.516s-.36-.16-.7-.316c-1.066-.5-1.32-.762-.73-1.04.29-.132.383-.421.422-.706.055-.375.035-.313.281-.485.43-.3.45-.422.45-.922.004-.328.039-.48.172-.687.101-.164.21-.508.285-.903.011-.062.015-.226.03-.28.075-.31.18-.403.25-.47.071-.07.188-.308.267-.515.175-.461.144-.39.43-.34.413.074.355.297.312.648-.024.172-.149.293-.106.254.055-.05.313-.164.364-.175.132-.028.265.015.3.207.02.105-.03.3-.027.453.008.394.023.863.121 1.172.473 1.492.379 1.285.219.043-.04-.297-.082-.73-.04-1.094.036-.258.114-.574.223-.746.282-.446.293-.535-.308-.754-.227-.082-.61-.223-.688-.367-.097-.172-.382-.41-.757-.493-.915-.195-1.446-1.003-1.313-1.125.086-.078.453.028.688.036.832.027 1.007-.012 1.375-.305.199-.152.285-.293.44-.3.169-.005.376.108.5.148Zm43.21.894c-8.53 6.324-10.023 16.559-5.769 24.457l-.738.531C54.57 69.22 58.16 59.227 64.73 53.762Zm-49.237.754c.148-.012.316.188.914.777.402.395.824.739 1.043.852.5.219.39.129-.028.492-.425.45-.187.816-.699.594-1.328-.57-2.258-2.254-1.394-2.66a.45.45 0 0 1 .164-.055Zm-.66 1.77a.306.306 0 0 1 .101.007c.164.04.363.32.574.516.59.547.863.789 1.336.98.465.188.477.23.149.563a.985.985 0 0 0-.215.348c-.028.082-.035.183-.137.199-.516.094-2.23-.863-2.3-1.52.058-.617.226-1.074.491-1.093Zm3.636.183c.3-.008.473.234.473.629 0 .273-.168.387-.512.504-.726.25-1.176-.23-.668-.758.215-.223.504-.371.707-.375Zm-.445 1.606c.55 0 .71.425.308.793-.378.343-1.144.347-1.144-.032.004-.297.488-.761.836-.761Zm-3.41.507c.375.102 1.277.7 1.675.77.024.203-.242.258.133.637.172.172.188.289.04.363-.458.223-2.032-.48-2.137-1.203-.051-.352.078-.555.289-.567Zm2.054.864c.543.023 1.157.039 1.09.273-.047.172-.242.629-.488.543-.121-.043-.238-.152-.32-.226-.29-.254-.368-.59-.282-.59Zm20.48 2.058c1.579 1.309 7.31 14.989-4.636 24.953l-2.531.7c11.465-8.258 9.558-19.977 6.465-25.036 0-.148-.047-.128-.332.106-.25.207-.278.254-.176.293 3.496 4.934 4.805 18.867-8.973 25.594-.23.218.235.187.235.187.027-.183 6.207-1.558 5.77-1.594 5.757-4.668 10.773-15.8 4.53-25.504-.152-.09-.351.301-.351.301Zm-1.987 1.547-.082.309c5 9 .226 20.023-9.067 24.105.156.102.324.172.496.246 10.54-5.203 13.578-16.218 8.98-24.75Zm-.836.64-.059.325c4.137 7.66.852 18.285-9.023 22.598-.094.465 0 .328.46.304 11.43-5.617 12.504-16.304 8.93-23.242Zm-.711.919c-.325.39-.914.594-1.11 1.097 3.32 8.043-.972 15.79-8.234 19.055-.008.402-.324 1.406.445 1.246 8.973-3.73 12.88-13.637 8.953-21.437l-.054.039Zm45.078 15.554c.332.02.625.114.933.149 1.114.133 1.836.879 1.34 1.332-.164.148-.394.062-1.117-.262-.332-.148-.387-.289-.453-.625-.086-.402-.172-.445-.285-.133-.114.317-.235.512-.614.434-1.07-.227-.664-.902.196-.895Zm-11.926 6.848c-2.676-1.39-5.98-3.902-7.871-6.758-.941 1.617-2.043 4.559-2.043 4.559l-4.203-1.074-.047.078 4.152 1.097-.406 1.27c-.043.14-.687 1.586-.687 1.586l6.488 2.773c-.403.578-.84.95-1.399 1.489-.316.304-.324.695-.324.695l8.992-7.863s1.16 1.578 1.594 1.933c.402.336.531.418.059.516-2.114.285-3.754 1.754-3.184 3.719.094.218.281.14.68-.09 1.402-1.168 4.832-2.246 4.949-1.973l.016 1.254c-3.692.05-3.317 2.54-3.043 3.871 0 .031-1.07.887-1.07.887.378.18.75.367 1.097.594-.324 1.66 1.219 4.066 4.25 2.832.262.246.508.496.797.804.308-.328.668-1.105.668-1.105 1.504.625 4.629-.774 3.031-3.973l.879-.773-.844-.489c-.023-.812-.16-1.539-.691-2.25 0 0 1.422.332 2.473.387.648.055 1.195.07 1.14-.289-.015-.105-.113-.625-.176-.793-.312-.84-1.941-1.457-3.52-1.535-.257-.016-.534-.008-.589-.07-.105-.114.082-.278.25-.25.867.136 1.7-.45 1.848-1.196.03-.129.207-.367.46-.625.45-.449.485-.437.477-1.09-.004-.453.082-.554.309-.859.297-.433.433-1 .285-1.582-.047-.187-.238-.45-.078-.91.265-.75-.317-1.438-1.082-1.828-.059-.016-.04.039-.09.094-.695.199-1.54-.258-1.54-.258-.175-.078.59-4.153 2.177-3.79.261.145.375.856.355.868.07 0 .11-.418.008-.695-.106-.29-.352-.567-.824-.485-.368.063-.793.508-.985.735-.738.863-.746 1.418-.992 2.336-.121.433-.133.41-.789-.06-.473-.339-.7-.444-.535-.644.074-.09.379-.37.379-.37l5.734-5.06v50.677H52.56l.226-6.512c.61-4.582-.465-14.196-1.273-15.102.625-.644 2.562-2.195 2.457-2.265l-.258-.137-1.023.863-2.532-.703c-1.082-.684-2.183-1.316-3.328-1.586-1.867-.437-5.46.961-5.465.977-5.742.39-10.343 2.527-10.277 2.511-.25-.21-.582-.882-.59-.879-2.96-3.777-5.871-5.894-9.848-8.476l5.036-2.55-11.938-11.438-.105-9.282 17.293-15.16c.101-.261 5.515 3.508 7.53 6.574.388-1.5 1.106-2.859 1.708-4.332.062-.132 3.441 1.145 4.441 1.2.153.007.27-.137.27-.137L40.426 55.3l.914-2.395s.316-.648-.043-.758c-2.031-.601-3.938-1.664-5.879-2.57 0 0 .906-.926.918-.965.016-.039.383-.535.293-.707-.988.88-9.055 7.739-9.055 7.739-.23-1.176-.59-1.59-1.375-2.317.43-.016 1.098-.406 1.485-.664 1.183-.789 1.824-2.2 1.671-3.02-1.136.329-2.16.72-3.582.954-.8.132-1.558.465-2.015.82l-.07-1.313c0 .012 1.91.305 2.796-.87.762-1.012.45-2.172.274-2.762.02-.133-.024-.118.305-.395.246-.203.62-.469.62-.469.02-.074-.984-.414-1.152-.726.266-2.434-1.855-3.375-3.652-2.942-.336.094-.496.149-.895-.257-.058-.059-.539-.524-.539-.524s-.21.445-.32.64c-.352.638-.45.446-1.207.481-1.922.086-2.781 1.512-2.34 3.258.106.41.059.348-.238.867-.149.266-.395.602-.395.602s.356.18.59.277c.356.145.371.313.371.637.047.707.219 1.183.664 1.793-1.508.031-2.664-.098-4.027-.516.207 1.926 1.754 2.64 3.648 2.922 0 0-.199.172-.406.246-.445.117-.723.477-.719.797a1.48 1.48 0 0 1-.476.773c-.293.235-.535.563-.422 1.204-.027.46-.148.593-.297.77-.297.355-.398.706-.324 1.171.035.219.105.684.058 1.16-.082.801.23 1.102.625 1.664.258.364.204.375.145.637-.14.637-.29.965-.445 1.445-.344 1.082-.356 1.903-.075 2.114.422.316.907.222 1.13.16 1.675-.477 1.382-1.985 1.472-2.996.047-.262.145-.387.238-.375.477.507.977.804 1.621 1.125-2.23 2.082-3.687 3.355-6.507 5.625l.078-50.692h32.16s.035.375-.043 2.211c-.14 3.727-.309 7.633-.043 11.434.043 1.312.016 2.613.223 3.914.199 1.265.289 2.633.933 3.816.262.637.27.59-.722 1.426-.485.414-.895.852-.88.926.008.027-.019.125.055.07.051-.039.407-.363.446-.406.27-.29.718.082 2.25.48.297.075.722.336 1.043.551 2.289 1.766 5.507 1.215 7.91.25.683-.273.851-.3 1.949-.422 4.062-.441 8.402-2.066 8.395-2.062l.53.797s.2-.036.34.168c2.337 4.046 9.965 8.668 9.833 8.453l-4.989 2.53C76.907 55.2 85.211 62.18 85.211 62.18l-.191 10.027c-2.23 1.633-4.192 3.508-6.149 5.336-.566.512-.96.805-.75.812.512-.07.95.391 1.363.711.262.266.2.243-.105.61-.211.258-.29.332-.29.515.009.36.005.602-.343.871-.219.25-.344.41-.383.708-.039.293-.035.484-.258.746-.375.074-.41.574-.343.796.394.36.215.747.25.665-.75.75-1.54 1.394-1.035.351.226-.39.304-.71.304-.71s-.36.343-.55.503c-.29.246-.395.102-.403-.66-.039-.578-.305-1.383-.41-1.54-.059-.085-.066.063-.04.622.036.73.13.941-.151 1.672-.38.988-.649 1.129-.032 1.094.582-.032 1.078-.04 1.332.28.086.106.2.294.434.4.48.241.863.507 1.129.777.863.859.617 1.629-1.055 1.105-.879-.273-.3-.621.64-.539.583.05.68-.148.18-.289-.937-.156-1.085-.254-1.703.418-2.586-.234-4.039-1.563-4.738-2.64-.293-.454-.383-.54-.18-.798.082-.097.032-.066-.105.07-.137.141-.512.259-.637.36-.87.793-1.75 1.649-2.535 2.293Zm11.262-5.566c.441.05.433.386.039.71-.367.258-.621.305-.828.114-.364-.336.105-.828.789-.824Zm1.281.234c.352-.004.805.148 1.34.555.64.488.789 1.672.2 1.875-.247.086-.286 0-.81-.457-.355-.309-.738-.586-1.117-.75-.77-.336-.87-.465-.347-.696.109-.05.25-.171.316-.27.133-.194.176-.257.418-.257Zm-.836 1.57c.106.004.242.063.453.168 1.301.653 1.938 1.672 1.5 2.25-.289.375-.762.23-1.117-.304-.203-.301-.738-.688-1.348-.973-.695-.32-.71-.367-.207-.59a.983.983 0 0 0 .461-.383c.117-.187.13-.168.258-.168Zm.418 2.434c.984.898.871 1.387.23 1.754-.433.246-1.132.308-1.363.105-.37-.297-.36-.64.051-.75.379-.074.238-.215-.121-.297-1.274-.332-2.055-.953-.672-.816.398.04.785-.246.992-.473.301-.332.707.317.883.477Zm-67.02.348 28.684 37.648-23.187-.039s-.09-.277.101-2.535c.277-3.063-.152-5.715-.941-8.703.097-.012-1.11-3.63-2.051-5.399-.172-.37-.145-.406.41-.472 1.645-.239 3.41-.606 5.05-1.239.763-.062 1.884.211 1.821.125-.027-.043-.992-.851-.992-.851-2.676.98-5.148 1.34-7.473 1.582 3.086 4.816 4.188 11.375 3.262 17.265l-4.441-.011-.016-28.992Zm5.126 5.578c.406-.016 1.414.636 1.539 1.129.023.101.289.703.582 1.265.003.106 1 1.75.562 1.606-.867-1.082-2.422-2.926-2.812-3.824 0-.122.015-.172.128-.176Zm3.101 1.644c.05.274.352.985.59 1.453.621 1.223 1.578 3.137 1.383 3.68-.13.371.004.352-.348-.105-.172-.22-.707-.907-.836-1.063-.312-.387-.101-.031-.281-.66-.426-1.777-1.117-2.711-1.563-3.75-.16-.484.848.25 1.055.445Zm.55.27c.083.055 1.22.789 1.333.894.406 1.313 2.015 5.524 1.598 6.274-.145-.106-.758-.781-.844-1.133-.184-2.012-.883-3.461-1.63-4.961-.21-.45-.374-.902-.456-1.074Zm2.138 1.48c.359.16.734.528.945.86.14.222.21.484.344 1.039.414 1.715 1.199 3.457.843 5.289-.218.273-.699-.348-.765-.957-.23-2.031-.422-3.004-1.203-5.39-.149-.462-.266-.825-.164-.84Zm1.824 1.575c.078.003.234.132.5.359.508.441.582.601.586 1.332.015 1.07.406 2.297.465 3.379.035.625.16 2.242.054 2.336-.148.187-.808-.496-.758-1.547.086-1.262.016-2.211-.57-4.395-.27-1.007-.41-1.437-.293-1.465h.016Zm52.957-6.376c2.05 1.208 1.328 3.434.887 3.708 2.832 3.277-1.567 4.957-2.965 3.777-2.067 1.883-5.614.305-4.246-2.797 0 0-2.594-4.547 2.523-4.242 0 0 .086-1.836-.059-1.922-1.824-.113-4.308 1.5-5.011 1.95-.39.214-.477.109-.477.109-.097-.954-.101-1.387.324-1.918.735-.93 1.954-1.243 3.555-1.567 1.984.559 3.871 1.438 5.707 1.3 1.008.009 2.043.157 3.024.642.66.285 1.003 1.355 1.003 1.355-1.035.5-4.265-.394-4.265-.394Zm-.977-6.742c.012-.324.41-.687.805-.644.543.035.613.625.133.844-.14.101-.59-.051-.614.062.032.203-.187.117-.23.043-.074-.082-.094-.207-.094-.305Zm-.328 1.285c.2-.128.367-.14.567-.164.308-.035.703.008.789.305.086.29-.52.461-1.012.469-.25.004-.54.05-.617-.113-.07-.149.172-.426.273-.497ZM15.926 63.75c.394-1.262.148-1.965.808-3.52l1.602.489s.07 1.523-.254 2.375c-.324.847-1.387 1.523-2.156.656Zm11.949 34.082c.191.02.656.625.863 1.18.196.515.13 1.168.27 1.722.316 1.899.297 3.801.215 4.375-.043.29-.243.172-.52-.101-.402-.399-.344-.406-.34-1.508.004-.945-.226-3.281-.332-3.758-.195-.875-.273-1.715-.23-1.86.015-.038.039-.054.074-.05Zm18.766.227c2.062.3 3.714 1.593 4.664 3.722.91 2.164 1.136 5.117 1.277 7.832-.008.653-.3.489-1.066.082-.836-.37-1.012-.265-2.235-.007-.761.16-.691-.317.563-1.102.426-.258.922-.598.758-.648-.082-.028-.465.066-.739.273-1.23.91-1.562 1.133-1.21.246.09-.223.374-.844.495-1.14.446-1.114-.07-1.59-1.582-2.294-.379-.18-.625-.472-.25.145.309.504-.328.91-1.12.32-.548-.41-1.653-.136-2.008.375-.344.492-.16 1.418.519 1.715.602.238.824.067.242-.3-.746-.477-.597-1.278.239-1.274.207 0 .574.215 1.496.672.66.328 1.132.191 1.132-.297 0-.328.204-.3.641-.106.582.266.52.504.211 1.247-.211.52-.313 1.109-.504 1.648-.492 1.824-.559 3.887-.016 4.531 1.454 1.711 2.993 1.528 4.313.399l-.059 1.87c-1.343.993-2.914 1.665-5.34 5.337-.847-.977-4.476-4.957-10.296-5.86l-1.309-1.64c.023-.102-.977-6.11-1.633-8.157 0 0 .719-1.003 1.375-1.742 2.614-2.949 7.028-6.328 11.442-5.847Zm-7.59 1.703c-.227.066-.297-.344-.176-.422.27-.02.363-.012.633.008.203.011.199.222-.457.414Zm-9.824-.305c.293.188.648.7.992 1.164.195.258.086.688.113 1.11.043.597.117 1.582.16 2.187.09 1.184-.027 2.172-.219 2.527-.191.426-.582.133-.68-.453-.023-.14.106-1.59.106-2.383 0-1.37-.383-3.058-.472-4.152Zm8.812-.008c.102-.008.18-.004.246.078.313.368.442.59.156.79-.379.292-.722.218-.933-.333-.133-.39.183-.515.531-.535Zm-1.168.324c.336.207.672.754.707 1.149-.02.105-.125.2-.351.367-.227.188-.297.176-.547-.187-.395-.563-.578-.934-.5-1.13a.731.731 0 0 1 .691-.199Zm13.758.07c.562.044 1.117.282 1.668.4l-.836.741c-.25-.379-.535-.761-.832-1.14Zm-15.012.387c.313.372.852 1.336.82 1.696a.889.889 0 0 1-.328.297c-.105.027-.195-.141-.547-.703-.605-.985-.785-1.262-.468-1.383.164-.016.418-.008.523.093Zm-1.222.23c.34.274 1.148 1.74 1.171 2.153a.463.463 0 0 1-.12.297c-.512.5-.383.418-1.141-1.012-.637-1.175-.809-1.293-.383-1.425.094-.028.328-.067.473-.012Zm-1.215.384c.222-.004.285.336.718 1.113.723 1.465.997 1.668.832 1.824-.203.235-.32.399-.511.117-.438-.652-.871-1.484-1.282-2.214-.324-.547-.351-.61-.144-.746a.831.831 0 0 1 .387-.094Zm12.937.414c-.27.07-1.367.39-.695.445.137.012.48-.066.723-.082.675-.043 2.085.074 2.035-.043-.13-.45-1.692-.406-2.063-.32Zm-13.887.137c0 .027.176.312.352.593 1.031 1.825 1.602 2.489 1.418 2.778-.148.171-.383.394-.52.34-.222-.083-.515-.68-1.253-2.032-.762-1.398-.84-1.504-.45-1.683.16-.07.356-.121.453.004Zm-1.027.644c.473.707.41.613.406 2.91-.004 1.43-.207 2.344-.464 2.696-.137.183-.38.074-.5-.286-.055-.168.101-.41.132-.671.184-1.72.055-3.438.059-5.067.144-.016.289.305.367.418Zm12.215.563c.219.289.164.523.164.91-.004.55.04.59.453.312.367-.246.399-.261 1.05.145.388.242.88.27 1.196.004.223-.188.297-.102.598-.032.324.164.418.192 1.117-.12.469-.192.488-.22.77-.083.492.399.566.254.5-.265 0-.184.058-.524.117-.743.246-.93-.153-.937-.68-.347-.203.226-.656.328-1.086.144-.613-.265-1.57-.16-2.277-.05-.84.128-1.227-.082-1.563-.344-.191-.153-.629-.285-.675-.168-.047.113.05.293.316.637Zm-11.238 1.3c.105-.02.265.266.504.868.3.78-.23 3.488-.547 3.933-.172.23-.282.375-.625-.058-.14-.188-.032-.25.105-.782.207-.808.383-2.12.395-2.73.004-.793.05-1.207.168-1.23Zm1.07 2.63c.074.003.164.16.281.468.172.426.09 1.242-.136 1.867-.13.363-.254.754-.473 1.078-.078.184-.465.121-.57-.285-.067-.258.164-.574.277-.984.113-.41.242-.934.309-1.196.117-.64.199-.957.312-.949Zm8.266 1.198h-.024s-.004.008-.008.008c-.02.016.805.84 1.028 1.07.113.09 1.105 1.196.488.942-1.555-.594-3.375-.3-4.5.688-.137.124-.254 0-.68-.032-.87-.058-1.187.258-.656.653.078.058.25.086.324.183.07.09.051.246.086.293 1.688 2.05 4.805 2.45 6.766 1.11.246-.168.383-.227.613-.165.457.125.496-.226.094-.714-.176-.215-.39-.461-.266-.532.25-.195.371-.515-.062-.636-.297-.082-.633-.387-.797-.813-.2-.496-2.117-2.02-2.406-2.055Zm-7.649.899c.367-.008.383 1.973-.023 2.578-.207.227-.684-.2-.61-.633.055-.332.442-1.82.532-1.898.035-.031.07-.047.101-.047Zm7.465 1.238a1.72 1.72 0 0 1 1.063.399c.18.152.496.8.367 1.054-.04.13-.418.121-.453.028-.207-1.313-1.364-1.5-1.73-.278 0 0-.24.184-.27-.172.082-.695.437-1.027 1.023-1.03Zm9.32.113c.368-.007.72.165.899.524.125.25.14.46.09.57-.04.082-.16.047-.16.047-.59-1.476-1.387-.793-1.68.024 0 0-.301.085-.34-.004-.035-.086-.012-.254.105-.48.23-.442.668-.673 1.086-.68Zm-7.859.09c.207-.007.566.145.832.39.27.25.297.4.078.587-.133.11-.598.223-.687.027l-.395-.84c-.039-.082.078-.16.172-.164Zm-2.832.04c.234.003.285.05-.082.831-.078.164-1.016-.078-.836-.398.266-.258.687-.434.918-.434Zm9.398.062c.094-.004.172.008.203.047-.085.027-.437.851-.437.851-.336-.039-.738.008-.809-.246-.07-.234.067-.379.54-.547a2.14 2.14 0 0 1 .503-.105Zm2.746.21c.356.122.438.395.395.54-.035.105-.203.11-.324.023-.114-.117-.278-.324-.266-.46.035-.141.082-.141.195-.102Zm-17.699.763c.11.187.309 1.253.078 1.226-.222-.05-.328-.375-.367-.664-.008-.059.192-.559.29-.562Zm3.91.57c.106-.016.364.07.754.27 1.274.562 2.578.644 3.965.359.8-.192 1.004-.301 1.117-.176.192.215-.109.426-1.242.777-1.238.38-2.523.317-4.21-.777-.458-.293-.516-.438-.384-.453Zm14.137.293c.211.36-.504.699-.867.793-.766.207-1.934.11-2.59-.254a1.503 1.503 0 0 1-.156-.094c-.535-.367-.317-.629.281-.348.64.305 1.941.36 2.633.055.348-.152.586-.347.7-.152Zm-15.816.668c-.075.015.047.18.297.426 1.742 1.793 5.898 2.765 8.234.918.734-.63.621-.915-.531-.41-1.278.386-3.094.437-4.66.222-.774-.094-2.028-.367-2.668-.793-.399-.27-.61-.375-.672-.363Zm12.011.054c.11.008.293.043.7.239.59.281 1.93.183 2.37.035.927-.313 1.114.086.239.527-.977.543-2.324.332-3.113-.367-.242-.2-.375-.45-.266-.469.008-.004.059.035.07.035Zm-11.55 3.172c3.433.29 8.609 3.41 10.629 7.16h-1.16c-2.032-2.953-5.153-5.328-8.856-6.214-.145-.102-.691-.817-.613-.946Zm15.23.688-.156 1.035c-.574.434-2.684 2.035-4.246 4.543-.328-.016-.485-.375-.43-.621 1.25-2.262 2.746-3.512 4.832-4.957Zm-13.867.812c.789-.05 5.91 2.473 7.633 5.66h-.942c-1.941-2.316-4.097-3.828-6.011-4.433-.465-.453-.977-1.207-.68-1.227Zm13.71.72-.007 1.401c-1.227 1.094-2.121 2.196-2.824 3.54h-.953s-.211-.383-.137-.626c1.082-1.785 2.117-3.082 3.922-4.316Zm-7.78 4.94h-.922a10.174 10.174 0 0 0-2.992-2.554c-.434-.492-.922-1.102-.723-1.2.012-.367 4.086 2.16 4.637 3.754Zm7.8-2.851-.02.812c-.624.73-1.144 1.344-1.644 2.04h-.785c.715-1.418 2.512-3.235 2.45-2.852Zm-10.57 1.57c.285.067 1.324.977 1.29 1.281l-.47-.011c-.261-.305-.57-.621-.754-.93-.117-.195-.19-.379-.066-.34Zm10.39.25h.005c.004 0-.008 1.031-.008 1.031h-.79c-.081-.015.384-.777.794-1.03Zm0 0" style="stroke:none;fill-rule:nonzero;fill:#131f67;fill-opacity:1"/><path d="M68.398 16.7c-3.859 0-7.765.023-12.105.062l29.324 38.152.024-8.477-9.41-11.132c2.14-.606 4.757-1.028 6.816-1.196-2.645-5.375-3.969-10.422-2.805-17.343-4.164-.043-7.98-.063-11.844-.067Zm11.356.245c-.23 2.442-.531 5.164-.047 8.192-1.527-.512-1.883.363-2.137.453-.289-.586-1.351-1.602-2.554-.41-.63.62-.325 1.789 1.129 2.316-1.665.117-2.528-1.187-2.82-2.531-.9-.531-1.845-1.05-1.934-2.902l.46.07c-.152 1.293 1.31 1.949 2.169 1.332.55-.387.613-.988.394-1.922.441-.082 1.484-.484 1.211-1.711-.383-1.691-2.281-1.496-3.148-.379-.72-.82-2.04-.973-2.57.3-.298.708.378 1.5 1.14 1.657-1.695.297-2.55-1.848-2.649-3.3l-.703-1.145c4.59-.027 6.598-.02 12.059-.02Zm-22.984.04 3.406.003L85.03 46.48l.051 7.344Zm8.609.003.543.004c.426 2.598 2.055 4.477 4.84 5.39.144 2.122 1.258 5.005 5.492 5.977-.125 2.395 1.55 4.684 3.348 5.782 0-.004-.485.109-.864.14-2.414-1.754-3.008-4.34-3.25-5.406-.082-.156-.312-.191-.492-.23-2.07-.668-3.808-2.227-4.52-4.125l-.445-1.864c0-.242-.054-.129-.668-.336-1.593-.539-3.066-2.12-3.73-4.008-.348-.996-.254-1.324-.254-1.324Zm-2.188.004 1.907.004s.011.309.039.508c.258 1.86 2.078 4.195 3.937 4.969.262.109.625.265.711.336.52 3.05 2.028 4.886 5.211 6.144.047.047.192.078.234.137.434 1.887 1.383 4.07 3.184 5.273l-.777.075Zm9.32 3.203c.43 0 .782.32.782.715 0 .395-.352.715-.781.715-.434 0-.782-.32-.782-.715 0-.394.348-.715.782-.715Zm-26.335 3.907c.043.105-10.672 8.418-9.63 24.058l-.312.317.086.113c-.355.367-.695.664-1.082 1.023 2.223 1.297 6.098 2.715 6.11 2.676l-.739 1.574 4.63 1.371-.622 1.496-4.558-1.386c-.657 1.336-1.055 2.75-1.536 4.144-.046.114-.148.059-.316-.16-2.402-3.762-7.344-6.473-7.176-6.207l-17.52 15.242-.116 9.418 12.12 11.457s-3.507 1.582-5.167 2.621c1.293.965 2.754 1.711 4.035 2.625 2.656 1.715 4.445 4.239 6.168 5.95 8.113-3.692 16.285-3.485 23.344-1.246-.82.792-1.739 1.48-2.586 2.34 2.05 4.937 1.394 14.738 1.289 15.003 4.273-4 10.625-12.578 9.777-24.656l1.797-1.652c-.031-.086-4.496-2.274-6.356-2.75l.516-1.504-4.453-1.274.496-1.195 4.438 1.18c.84-1.89 1.73-4.54 1.73-4.54 1.77 2.43 3.723 4.641 7.742 6.891L85.703 71.75l-.11-9.824-11.859-10.871 4.934-2.36c-.473-.351-1.16-.683-1.648-1.035-.036-.027.097-.101.062-.125-.125-.09-.215-.16-.34-.238-.027-.02-.117.098-.144.078-1.676-1.074-3.352-2.137-4.672-3.422-.031-.035.015-.168-.016-.2-.687-.671-1.367-1.296-2.066-1.956-.32-.3-.856-1.012-.856-1.012l-.031-.234-.75-.864c-2.41 1.305-12.691 4.579-22.64.954l1.89-1.735a12.31 12.31 0 0 1-.96-3.37c-.52-4.083-.321-11.434-.321-11.434Zm31.363 2.312c.453 0 .824.34.824.758 0 .414-.37.754-.824.754-.457 0-.824-.34-.824-.754 0-.418.367-.758.824-.758Zm2.578.898c.422 1.883 1.344 4.61 2.266 6.45l-1.098.113c-.89-.531-1.836-1.309-1.933-2.406-2.415.015-3.118-3.453-2.239-3.04-.11 1.188.817 1.653 1.727 1.54.781-.102 1.46-1.094.527-2.188.414-.148.617-.261.75-.468Zm-34.187 5.56c.156 2.405.672 4.16 1.152 5.976l-4.766 4.12c.371-3.761 1.579-7.128 3.614-10.097Zm22.86 7.917.605.797c-6.887 3.71-18.645 3.973-25.81.844l.95-.828c6.3 2.605 16.555 2.8 24.254-.813Zm-44.74 1.238c-.695-.007-1.495.235-2.347.828-3.16-1.32-5.23 1.766-3.273 3.813-.29 1.469-.508 1.742.699 3.234-1.285.149-2.902-.16-4.281-.355.234 2.18 3.636 2.687 5.054 2.45 1.528-.306 2.97.386 3.032.401.902.23 1.46.63 2.347.82 1.461.321 3.602-1.253 3.914-2.745.028-.2.094-.383-.027-.41-.996.234-2.098.562-3.07.757-.953.215-1.672.43-2.399.95l-.058-1.801c4.949.218 2.793-4.098 2.515-4.285.918-1.704-.187-3.633-2.105-3.657Zm44.997.137 1.078 2.375-2.86.89-.734-2.327Zm-45.203.07c1.683.016 3.187 1.641 1.57 3.461 3.133 2.532-.883 5.246-2.793 3.364-2.547 2.136-5.25-.094-3.828-2.422-2.715-2.227.633-5.215 2.922-3.29a2.542 2.542 0 0 1 2.129-1.113Zm19.535.871c.402 0 .73.301.73.668 0 .372-.328.668-.73.668-.402 0-.73-.296-.73-.668 0-.367.328-.668.73-.668Zm-18.64.051a.24.24 0 0 0-.145.059c-.082.008-.258.289-.703.762-.774.82-.856.828-.856.828-.824-.246-1.375-.114-1.918.199 0 0-.617-.106-1.469-.762-.39-.297-.601-.363-.668-.203-.07.172.106.34.852.805 1.031.644.969.597.969.597-.063.567.035 1.028.27 1.454 0 0-.184.402-.915 1.285-.207.246-.379.52-.379.601 0 .34.325.11 1.075-.758.293-.34.695-.828.695-.828.883.282 1.191.11 1.742-.07 0 0 .191.129.672.48.879.641 1.066.711 1.176.63.144-.11.125-.145-.207-.368-.992-.656-1.332-1.039-1.332-1.039.203-.719-.02-1.312-.235-1.687 0 0 .016-.094.575-.664.41-.422.972-1.086.937-1.184.012-.059-.043-.14-.137-.137Zm20.284.145 2.579.734-.57 2.457-2.747-.812Zm18.649.601.719 2.399-2.68.652-.441-2.543Zm1.883.04c.402 0 .726.3.726.671 0 .367-.324.668-.726.668-.403 0-.73-.3-.73-.668 0-.37.327-.672.73-.672Zm6.093.085 2.25 1.84-2.5 1.16-1.203-2.398Zm-21.25.532 2.622.285-.11 2.578-3.004-.367Zm-9.082.03 2.914 1.173-1.05 2.691-2.985-1.176Zm7.508.208c1.074.156.785 1.316 0 1.336-.402 0-.726-.297-.726-.668 0-.367.324-.668.726-.668Zm9.422.004.356 2.578-2.715.152-.059-2.62Zm1.867.293c.403 0 .73.3.73.668 0 .37-.327.668-.73.668-.402 0-.73-.297-.73-.668 0-.367.328-.668.73-.668Zm-37.836.242c.418 0 .754.309.754.687 0 .383-.336.692-.754.692-.414 0-.75-.309-.75-.692 0-.378.336-.687.75-.687Zm32.184-.023c.402 0 .73.296.73.667 0 .368-.328.668-.73.668-.402 0-.73-.3-.73-.668 0-.37.328-.667.73-.667Zm12.8.164 1.06 2.652-2.97.879-.84-2.727Zm2.087.07c.402 0 .726.3.726.668 0 .37-.324.672-.726.672-.407 0-.73-.301-.73-.672 0-.367.323-.668.73-.668Zm5.132.754 1.918 1.242-.949.488c-.25-.547-.691-1.195-.969-1.73Zm-27.43.238 2.833.566-.434 2.72-3.09-.567Zm-8.425.152 1.504.649-.992 2.265-2.434-1.187Zm6.727.145c.402 0 .726.3.726.672 0 .367-.324.668-.726.668-.403 0-.73-.301-.73-.668 0-.371.327-.672.73-.672Zm16.359.152.508 2.719-3.196.414-.199-2.777Zm11.965.051c.402 0 .726.297.726.668 0 .371-.324.668-.726.668-.403 0-.73-.297-.73-.668 0-.371.327-.668.73-.668Zm-2.27.02 1.059 2.398-3.125 1.2-.926-2.403Zm-7.969.171c.403 0 .731.301.731.668 0 .372-.328.672-.73.672-.403 0-.731-.3-.731-.672 0-.367.328-.668.73-.668Zm-10.554.274 2.988.05-.035 2.75-3.273-.081Zm23.922.191 1.175.75c-12.109 7.137-29.117 8.024-42.39.996 0 0 .543-.496.851-.785 11.965 6.567 29.434 5.645 40.364-.96Zm-25.547.309c.406 0 .73.3.73.672 0 .367-.324.668-.73.668-.403 0-.727-.301-.727-.668 0-.371.324-.672.727-.672Zm6.14.152c.407 0 .73.301.73.668 0 .371-.323.672-.73.672-.402 0-.726-.3-.726-.672 0-.367.324-.668.726-.668Zm-14.246.367 3.125.829-.53 2.261-3.427-.902Zm-2.066.016c.402 0 .73.3.73.672 0 .367-.328.668-.73.668-.402 0-.727-.3-.727-.668 0-.371.325-.672.727-.672Zm24.266.484.746 2.536-3.453.68-.418-2.497Zm1.98.368c.406 0 .73.3.73.668 0 .37-.324.668-.73.668-.402 0-.727-.297-.727-.668 0-.368.325-.668.727-.668Zm-45.117.394-.008 1.778c-.57-.43-1.219-.891-1.879-1.36.672.035 1.3-.137 1.887-.418Zm-7.113.043c.156 0 .527.117.964.117 1.407-.004 4.036.399 4.813.98.258.196.644.368.855.684 0 .149-.23.153-.57-.043-.652-.367-1.734-.699-3.184-.882-.261-.036-.296-.024-.296.09 0 .136.242.218 1.007.335.985.149 1.196.239 1.414.293.59.145.215.344-.39.395-2.465.215-4.313-.758-4.684-1.871-.031-.074 0-.098.07-.098Zm34.347.04 3.102.37-.14 2.38-3.395-.356Zm-26.379.206c.543.39.168 1.574-.125 1.922-.191.195-.64.094-.636-.184.066-.246-.028-1.421.03-1.785.216-.113.532-.082.731.047Zm35.946.106.164 2.457-3.387.14.027-2.41Zm-11.418.168c.406 0 .73.297.73.668 0 .367-.324.668-.73.668-.403 0-.727-.301-.727-.668 0-.371.324-.668.727-.668Zm-18.856.03c.125 1.802-2.89 3.024-4.02 2.474-.5-.247-.292-.399.7-.582 1.281-.31 2.125-.614 2.125-.833.004-.136-.192-.117-.715.06-.805.25-1.64.355-2.41.671-.574.238-.797.324-.926.18-.27-.301 1.004-1.063 2.328-1.266.992-.152 1.996-.637 2.918-.703Zm32.14.227c.407 0 .731.301.731.668 0 .372-.324.668-.73.668-.403 0-.727-.296-.727-.668 0-.367.324-.668.727-.668Zm-6.78.489c.402 0 .73.3.73.668 0 .37-.328.672-.73.672-.403 0-.73-.301-.73-.672 0-.367.327-.668.73-.668Zm16.25 1.136C75.234 56.492 80.586 61.398 85 65.434c-.008 2.113-.02 6.336-.02 6.336L68.125 86.457c-3.05-1.707-5.633-3.844-8.012-7.637.266-.21.504-.347.707-.578l-.879.48c-3.109-4.558-4.43-13.644.852-20.925l-5.336.18.871-1.664 5.809-.293 2.347-2.31s.746-.128 1.364-.257c.609-.129 1.859-.457 2.777-.726.914-.274 1.691-.497 1.727-.497Zm-39.399 1.18s5.016 2.5 7.8 7.508C29.75 68.02 26.356 76.289 25.59 84.895c-4.899-4.204-7.375-6.528-11.805-10.61l.16-6.09Zm18.938.797c-1.301 2.543-2.414 5.328-3.414 8.316l-1.399-.378s.902-.344 1.305-.567l-.723-1.07 1.371-.516-.808-.91 1.39-.738-.695-.801 1.277-.586-.793-.836 1.34-.684-.699-.8Zm.425.004s.18.031.391.07c.05-.02-.25.668-.219.692.489.09.516.066.664.105l.371-.703.61.105c-1.23 2.547-2.547 5.333-3.301 8.348l-.719-.137s.207-.636.211-.722c-.086-.016-.492-.172-.617-.219-.043.102-.297.836-.297.836l-.57-.012c.93-3.293 2.555-6.945 3.476-8.363Zm2.34.098 1.274.968-1.446.516.75.914-1.535.508.88.95-1.517.51.907 1.15-1.578.487.996 1.008-1.426.614.852.773s-.887.27-.938.281c-.145.032-.742-.101-.742-.101.902-2.942 2.015-5.918 3.523-8.578Zm-31 .488c-.351.21-.152.668-.593 1.058-.07.067-.079.227-.106.368-.02.105-.367 1.379-.367 1.379s.086-.098.226-.504c.118-.344.223-1 .286-1.114.328-.09.375-1.062.707-.93.191.079.152.239.046.61-.234.746-.328 1.059.075.55.601-.663.66-1.26-.016-1.39-.074-.011-.219-.023-.258-.027Zm9.102.277L15.012 68.633l-.051 5.058 5.484 5.094 3.887 3.457c1.414-7.742 4.652-15.129 12.629-21.52-1.223-1.8-3.316-4.07-6.203-5.648Zm42.453.14c-9.254 3.99-11.383 12.165-8.516 19.571 4.41-5.203 7.871-10.086 8.516-19.57Zm-32.938.415 4.204 1.238-1.582 4.95-3.782-1.051-.386-.88Zm32.473.129c-.402 6.617-3.125 13.078-7.86 18.148-2.394-5.414-.952-14.07 7.86-18.148Zm-22.637.035-.261.617.582.149.246-.625Zm-.582 1.453-.238.625.598.188.222-.637Zm24.793.113c-1.297 9.18-6.703 17.532-12.418 21.79 1.82 2.706 3.961 4.449 6.137 5.902l16.094-14.137-.063-4.715Zm-42.53 2.438a7.671 7.671 0 0 0-.134.504s.184-.156.676-.403c3.16-1.445 2.14.754.652 1.567-.336.164-.675.36-.675.36s.316.062.656.12c1.922.367 1.512 1.395-.488 1.235-.297-.024-.645-.075-.645-.059s.121.402.258.723c.676 1.558-.582 1.68-1.41.687-.117-.136-.38-.52-.38-.52s-.081.29-.128.567c-.715 2.445-2.48 2.383-1.824-.098.086-.253.183-.714.183-.714s-.394.222-.828.398c-2.285.938-2.656-.027-.578-1.434.59-.402.79-.558.79-.558a6.626 6.626 0 0 1-1.009-.149c-1.656-.378-2.097-1.289.559-1.246.39.008.789.032.789.032s-.129-.52-.27-.914c-.636-1.82.653-2.04 1.739-.407.234.348.3.348.3.348-.035.004.067-.621.332-1.195 1.317-2.239 1.832-.196 1.434 1.156Zm28.464-1.813c-1.106 1.793-2.07 3.57-2.531 5.43l-4.301-.07c.3-1.645 1.058-3.356 1.965-5.168 1.75-.043 3.332-.114 4.867-.192Zm-11.356.797-.246.657.621.175.227-.64Zm-32.156 1.235c-.46 1.097-.613 2.32-.87 3.3-.106.567.003.805.374.93.527.18 1.29-.066 1.715-.625.242-.316.418-.965.453-2.117l.04-1.024c-.653-.113-1.099-.273-1.712-.464Zm31.574.144-.203.606.602.203.226-.61Zm27.852.227c.73.015.867.074 1.531.433l1.278 1.207a1.543 1.543 0 0 0-.543 1.168c0 .89.789 1.614 1.761 1.614.48 0 1.239-.465 1.239-.465l2.023 1.926c-1.18.472-2.336-.618-2.77-1.051-.101-.102-.128-.172-.128-.172s.015.055-.024.27c-.172.855-1.094 3.382-1.972 3.25-.997-.153.015-3.766.027-3.684-.684.66-4.008 1.367-3.774.629.461-1.469 2.95-2.035 3.278-2.29-1.324-.73-3-2.75-1.926-2.835Zm-59.266.047c.422.027.711.074.996.183.133.031.141.133.157.23 0 .434.12 1.704-.317 1.72-.488-.012-.945.085-1.265.308-.258.18-.344.05-.274-.41.067-.45.309-1.39.414-1.77.02-.16.153-.27.29-.261Zm13.141.015c-.973 0-1.762.723-1.762 1.617 0 .891.79 1.618 1.762 1.618.973 0 1.762-.727 1.762-1.618 0-.894-.79-1.617-1.762-1.617Zm0 .567c.633 0 1.145.468 1.145 1.05 0 .579-.512 1.047-1.145 1.047s-1.148-.468-1.148-1.047c0-.582.515-1.05 1.148-1.05Zm9.094.02c4.039 6.394 3.574 15.171-1.192 21.554l5.121-.328-.671 1.203-5.461.488c-.832.7-1.594 1.5-2.414 2.246l-.008.266c-1.871.398-3.746.86-5.653 1.488-1.007-.906-2.902-2.719-2.886-2.766l.12-.585c12.985-6.075 9.184-18.254 8.27-19.258 1.395-1.531 3.055-2.977 4.774-4.309Zm36.035 1.16c.527 0 .95.394.95.874 0 .485-.423.875-.95.875-.527 0-.953-.39-.953-.875 0-.48.426-.875.953-.875Zm4.234.238L81 63.938a1.2 1.2 0 0 1-.805.304c-.632 0-1.144-.469-1.144-1.047 0-.3.136-.57.355-.761Zm-54.8.183c.523 0 .949.39.949.875 0 .48-.426.871-.95.871-.527 0-.953-.39-.953-.87 0-.485.426-.876.953-.876Zm-7.086.367c.445.137.343.52-.235.856-.37.219-.715.265-1.043.105-.62-.304.668-1.16 1.278-.96Zm7.359 2.137-5.734 5.09c.359-.844.37-1.688.398-2.531 1.727.16 2.45-.64 2.2-2.293 1.112.058 2.269-.047 3.136-.266Zm9.195.582c2.66 6.957.348 14.317-7.972 18.578.343-6.664 3.394-13.035 7.972-18.578Zm7.578.61c4.567 1.097 9.762 1.605 15.16 1.609.04 1.883.141 3.875.56 5.797-4.599-1.102-9.731-1.614-15.34-1.524.234-1.992-.141-4.25-.38-5.882Zm33.86 1.03-4.864 5.212.204-2.848c1.636.191 2.222-.598 1.98-2.164.895.102 1.785-.043 2.68-.2Zm-47.25.286-.383 2.082c-.973.027-1.922.34-1.91 2.328l-2.903-.031Zm53.515.387c.524 0 .95.39.95.87 0 .485-.426.876-.95.876-.527 0-.953-.39-.953-.875 0-.48.426-.871.953-.871Zm-57.925.265c.527 0 .953.39.953.871 0 .485-.426.871-.953.871-.528 0-.954-.386-.954-.87 0-.481.426-.872.954-.872Zm55.8.895-.511 3.152c-1.325-.105-2.43.082-2.09 2.219-1.121-.102-2.676.14-3.719.223Zm-4.75.57c.528 0 .953.39.953.875 0 .48-.425.871-.953.871-.523 0-.953-.39-.953-.87 0-.485.43-.876.953-.876Zm-58.03.676c.523 0 .952.394.952.875 0 .48-.43.871-.953.871-.527 0-.953-.39-.953-.871 0-.48.426-.875.953-.875Zm3.155 1.035c1.22.25.657 2.848.383 3.555-.023.02 3.39-1.64 3.594-.907.137 1.47-2.824 2.493-2.824 2.493s1.996 1.59 2.05 2.586c.004.648-.832.527-1.921-.293-.465-.418-.829-.73-1.149-1.024.375-.297.61-.734.61-1.222 0-.895-.79-1.618-1.762-1.618-.535 0-1.016.22-1.34.57-.254-.226-.54-.484-.922-.816-.629-.539-1.074-.969-1.008-1.164.828-.535 2.48.906 2.63 1.035-.126-.28.788-3.047 1.66-3.195Zm-1.66 3.195c.004.016.016.024.028.024 0 0-.024-.016-.028-.024Zm51.848-1.168c.582-.004.543 1.204.34 1.829-.145.48-.282.87-.282.87s.489-.351.704-.44c1.574-.677 2.16.089 1.367.976-.383.457-.903.558-1.324.941.601.024 1.293.149 1.812.43.406.219.723.488.723.656-.004.371-1.004.574-1.938.477-.398.007-1.148-.188-1.148-.188s.312.48.426.766c.347.886.226 1.926-.278 1.926-.847-.207-1.258-1.067-1.59-1.688-.27.691-.53 1.43-1.136 1.941-.598.508-.907.086-.875-.777.011-.34.289-1.363.289-1.363-3.547 1.097-3.285-.387-.516-1.688-1.707-.746-2.742-1.414.16-1.566-.078-.063-.586-1.488-.043-1.82.504-.313 1.578.754 1.63.804-.024-.105.28-.937.792-1.515.39-.407.68-.567.887-.57Zm-3.266 3.102c0 .004.004.004.008 0h-.008Zm15.524-.941c-.618.05-1 .554-1.29.992-.054.09-.163.12-.203.238a13.86 13.86 0 0 0-.617 2.785c.39.149 1.274.399 1.664.266.11-.043.078-.305.114-.39.617-1.423.921-2.485.921-3.138 0-.527-.199-.785-.59-.753Zm-63.461-.067c.633 0 1.148.473 1.148 1.055 0 .332-.172.629-.433.82-.739-.676-1.118-1.027-1.614-1.473.211-.242.535-.402.899-.402Zm63.68.504c.156.344-.344.719-.989.715-.383 0-.508.047-.336-.258.203-.367 1.028-1.117 1.324-.457Zm-8.641-.246c.523 0 .953.39.953.875 0 .48-.43.871-.953.871-.528 0-.953-.39-.953-.871 0-.484.425-.875.953-.875Zm-50.235.062c.528 0 .954.391.954.872 0 .484-.426.875-.954.875-.527 0-.949-.391-.949-.875 0-.48.422-.872.95-.872Zm45.051.356c-.972 0-1.762.723-1.762 1.613 0 .895.79 1.617 1.762 1.617.973 0 1.766-.722 1.766-1.617 0-.89-.793-1.613-1.766-1.613Zm-23.555.215c-.464 1.863-1.175 3.644-2.078 5.406-1.699.094-3.535.164-4.746.324 2.016-3.242 2.067-4.004 2.813-5.719Zm2.918.265c.477.051 1 .118 1.473.2-.867 2.8-2.016 5.671-3.496 8.437l-.895-.125-.425-.484 1.422-.52-1.11-1.039 1.84-.508-1.129-1.023 1.817-.418-.973-1.082 1.629-.582-1.035-1.227 1.738-.437Zm20.637.082c.633 0 1.149.473 1.149 1.051 0 .582-.516 1.051-1.149 1.051s-1.144-.469-1.144-1.05c0-.579.511-1.052 1.144-1.052Zm-18.84.16.606.09-.184.594.688.137.226-.64s.555.046.614.085c-.723 2.703-3.282 8.36-3.313 8.328l-.66-.09.176-.57-.614-.082v-.004l-.293.621-.656-.05c1.586-3.313 2.66-5.856 3.41-8.418Zm32.176.215c.484 0 .457.227.106 1.067-.332.789-.457 1.105-.618 1.207-.382.25-1.207.043-1.14-.32.219-1.18.297-1.684.629-1.844.343-.063.68-.106 1.023-.11Zm-29.738.098 1.578.281-1.32.72.84.901-1.626.633.989.938-1.57.586.953 1.03-1.625.63 1.109.879-1.828.527.691.977-.687.351-.852-.12c1.41-3.013 2.317-5.493 3.348-8.333Zm3.883.723 3.093.77.621 1.015-1.453 4.496-4.125-1.113Zm-6.153.433-.293.739.68.129.262-.762Zm-.597 1.696-.297.738.64.113.301-.746Zm-.606 1.488-.3.734.62.121.301-.738Zm29.082 1.351c.004 0-.312.211-.398.305.07.168.27.426.238.598-.027.129-.18.23-.414.457-.582.625-.79.555-.45-.11.11-.207.16-.398.16-.398-.136.172-.237.375-.327.54-.192.339-.371.66-.371.66.37.116.617.37.855.534 0 0 .125-.3.207-.59.117-.402.352-.566.637-.703.176-.09.348-.246.348-.246-.313-.293-.348-.71-.485-1.047Zm-29.726.184-.32.781.62.14.348-.8ZM13.324 85.13c-.054 3.117.059 5.168-.062 8.527l9.199 10.926-1.438.445s-.015.149-.09.168c-1.968.496-5.156.993-5.156.993 2.371 4.96 3.91 11.167 2.848 17.37l23.805-.058Zm50.344 5.281-.82.754c-12.106-6.008-28.778-5.984-40.946 1.29l-.992-.669c13.281-7.8 29.617-7.75 42.758-1.375ZM13.77 86.223l28.02 36.902-3.294.043-24.703-29.629Zm60.128.668s-.808.191-1.488.39c-1.95.57-2.86 1.606-2.68 3.04.051.421.172.413.965-.044 1.86-1.074 1.973-1.12 4.285-1.742.18-.05.438-.015.438-.015l-.102 1.675c-3.851-.011-3.644 2.793-2.535 4.254-.386.676-1.234 3.031 1.559 3.926 1.394.254 2.87-.785 2.828-.836 2.57 1.113 5.559-.758 3.23-3.996.875-1.414.258-2.461-.578-3.363 0 0 .14.011 1.36.215 1.847.312 2.55.257 2.55.257.004-1.523-1.375-2.203-4.246-2.41-2.03.262-5.586-1.367-5.586-1.351Zm-31.015.175c.14 0 .277 0 .414.004l-.133 2.602-3.129.133-.203-2.594c1.074-.07 2.078-.14 3.05-.145Zm3.75.063 3.355.375-.508 2.433-3.093-.304Zm27.148.027c.344-.004.27.324-.136.395-.602.11-2.149.933-2.149 1.148 0 .14.074.121.64-.156.286-.14.876-.375 1.313-.527.438-.153.938-.336 1.11-.41.523-.215.78-.067.593.34-.125.269-.175.288-1.379.64-1.093.32-1.293.402-1.984.809-.258.152-.719.394-1.02.535-.71.34-.855.34-.855-.114-.039-1.351 1.59-2.363 3.793-2.652.027-.004.05-.004.074-.008Zm-28.976.317c.422 0 .761.312.761.699 0 .383-.34.695-.761.695-.418 0-.758-.312-.758-.695 0-.387.34-.7.758-.7Zm-8.301.187.25 2.363-3.078.723-.703-2.441c1.175-.262 2.351-.45 3.53-.645Zm39.625.18c.84.117.773 1.887.344 2.195-.664.438-1.07-.48-.774-1.695.082-.363.235-.492.43-.5Zm-37.883.094c.422 0 .762.312.762.699 0 .383-.34.695-.762.695-.418 0-.758-.312-.758-.695 0-.387.34-.7.758-.7Zm15.027.203 3.477.87-.852 2.47-3.261-.844Zm-1.89.047c.418 0 .758.312.758.699 0 .383-.34.695-.758.695-.422 0-.762-.312-.762-.695 0-.387.34-.7.762-.7Zm28.445.207c1.5.015 3.473.703 3.477 1.765-.028.305-3.137-.097-4.575-.629-.507-.187-1.128-.757-1.128-.996.003-.144.304-.133.43.004.202.227.917.461 2.562.84 1.261.293 1.386.305 1.386.129.004-.16-.746-.383-1.554-.504-.406-.063-.785-.176-1.41-.223-.29-.004-.364-.168-.118-.285.262-.07.586-.101.93-.101Zm-2.644.55c.375.164.511.485.722.657-.261.113-.375.226-.797.254.008-.254-.066-.555.075-.91Zm-45.543.192c.422 0 .761.312.761.695 0 .387-.34.7-.761.7-.418 0-.758-.313-.758-.7 0-.383.34-.695.758-.695Zm-2.043.195.82 2.414-2.938 1.172-1.043-2.39c1.016-.489 2.125-.844 3.16-1.196Zm13.59.395s2.343.004 3.152.011l-.192 2.723-2.921.02Zm-3.13.148.165 2.719-2.813.347-.555-2.734Zm17.79.027c.418 0 .757.309.757.696 0 .383-.34.695-.757.695-.418 0-.762-.312-.762-.695 0-.387.344-.696.762-.696Zm20.355.063c1.711.008 3.348 1.812 1.652 3.707 2.778 1.957-.242 5.25-2.695 3.332-3.508 3.16-5.469-1.133-4.015-2.27-2.145-3.23.488-5.273 3.207-3.847.5-.653 1.18-.926 1.851-.922Zm-28.676.078 3.09.629-.62 2.687-3.017-.562Zm10.22.066 2.82 1.286-2.188 1.93-1.625-.743Zm-18.095.305c.418 0 .758.309.758.695 0 .383-.34.696-.758.696-.422 0-.761-.313-.761-.696 0-.386.34-.695.761-.695Zm6.098.086c.418 0 .758.313.758.695 0 .387-.34.7-.758.7-1.117-.16-.816-1.371 0-1.395Zm-14.055.39.688 2.692-2.86.883-1.023-2.617Zm1.961.192c.422 0 .762.313.762.7 0 .382-.34.695-.762.695-.418 0-.758-.313-.758-.696 0-.386.34-.699.758-.699Zm42.32 1.242c-.214.243-.496.532-.496.532-.71-.27-1.402-.16-1.863.128l-.937-.687c-.778-.578-1.035-.707-1.035-.469 0 .051.261.297.582.547.875.688 1.054.934 1.054.934-.21.625-.207 1.113.196 1.636 0 0 .015.067-.293.364-.555.539-1.133 1.37-1 1.496.164.152.632-.215 1.214-.938.418-.515.543-.527.543-.527.711.176 1.106.336 1.813-.203 0 0 .27.074.805.48.836.633 1.132.766 1.226.555.07-.176-.039-.293-.742-.785-.461-.32-.973-.7-.973-.7.149-.222.258-1.027-.257-1.578 0 0 .019.036.78-.867.505-.601.594-.68.427-.808-.223-.266-.97.804-1.043.89Zm-22.046-.773 2.785 1.074-.996 2.668-2.692-1.004Zm-30.645.18c.418 0 .758.312.758.699 0 .383-.34.695-.758.695-.422 0-.762-.312-.762-.695 0-.387.34-.7.762-.7Zm28.488.074c.422 0 .762.312.762.695 0 .387-.34.695-.762.695-.418 0-.757-.308-.757-.695 0-.383.34-.695.757-.695Zm-30.433.191.91 2.07-2.07-1.417Zm22.855.531 2.774.301-.438 2.426-2.394-.2Zm-3.027.008-.031 2.492-2.633.102-.223-2.488Zm-13.559.453c.418 0 .758.313.758.696 0 .386-.34.699-.758.699-.422 0-.761-.313-.761-.7 0-.382.34-.695.761-.695Zm-2.101.051 1.07 2.504-1.66.734-2.23-1.933Zm9.918.031.43 2.383-2.75.621-.665-2.422Zm39.277.024c.602 0 1.086.445 1.086.992 0 .55-.484.992-1.086.992-.598 0-1.082-.441-1.082-.992 0-.547.484-.992 1.082-.992Zm-32.152.074c.418 0 .758.313.758.7 0 .382-.34.695-.758.695-.422 0-.762-.313-.762-.696 0-.386.34-.699.762-.699Zm7.484.258 2.93.871-.985 2.148-2.53-.629Zm-12.988.09c.418 0 .758.312.758.695 0 .387-.34.7-.758.7s-.762-.313-.762-.7c0-.383.344-.695.762-.695Zm11.14.258c.422 0 .762.308.762.695 0 .383-.34.695-.761.695-.418 0-.758-.312-.758-.695 0-.387.34-.695.758-.695Zm-18.605.816 1.008 2.129-2.754 1.09-1.203-2.168Zm1.953.125c.418 0 .762.312.762.695 0 .387-.344.7-.762.7-.418 0-.758-.313-.758-.7 0-.383.34-.695.758-.695Zm10.156.644c4.528-.007 8.614.86 11.891 2.102l-.977.84c-10.636-3.352-17.593-1.84-24.726 1.027l-.723-.816c5.043-2.262 10.012-3.145 14.535-3.153Zm12.036.024c.418 0 .761.312.761.7 0 .382-.343.694-.761.694s-.758-.312-.758-.695c0-.387.34-.7.758-.7ZM28.004 96.91c.61.031.668 1.074.383.774l-.68-.72a.678.678 0 0 1 .297-.054Zm28.437.43c-.02.793-.84 6.101-3.597 9.75-.168-1.848-.657-4.05-1.2-5.528 0 0 2.973-2.515 4.797-4.222Zm-35.312 8.043 14.363 17.762-1.508-.008c-.316-1.305-.77-2.64-1.668-3.637-.726-.813-1.379-1.422-2.683-1.965-.785-.328-.883-.258-.934-.808-.238-3.11-2.98-5.063-5.082-5.805-.203-1.879-1.129-3.727-3.445-5.281Zm-1.402.426c1.312.828 2.753 1.546 3.527 4.804.058.684.105.61.687.813 2.29.613 4.282 3.136 4.461 5.344-.004.664.235.722 1.13 1.066 1.097.426 2.238 1.32 2.882 2.2.957 1.265 1.297 3.183 1.215 3.089l-.79.004c-.566-3.25-2.792-4.543-5.151-5.152.183-4.586-3.708-6.02-5.067-6.235.082-3.305-2.25-4.668-3.754-5.773.278-.102.86-.16.86-.16Zm-2.32.457c1.171.351 2.062 1.851 1.972 2.543 1.55.18 3.18 1.554 2.82 2.984-.113.062-.293.074-.472-.09.414-2.777-4.106-1.402-2.301.606l-.805.484c-.652-2.777-1.45-4.352-2.316-6.36.316-.078 1.101-.167 1.101-.167Zm3.741 5.82c.399 0 .723.297.723.668 0 .367-.324.664-.723.664-.402 0-.73-.297-.73-.664 0-.371.328-.668.73-.668Zm3.88 2.996c1.726.45 2.285 2.05 2.226 2.633l-.375-.008c-.61-2.539-3.762-1.156-2.445.867-1.688.57-1.555 1.996-1.059 2.563.688.777 2.434.754 2.965-.446 1.64 1.946 3.902-.238 1.906-2.05 1.637.554 1.899 2.562 1.652 3.187.758.238 1.633 1.344 1.516 1.336H19.168s.594-4.531-.04-7.95c.817.18 1.364.36 2.302-.648 1.515 1.153 2.605.282 2.527-.714-.117-.696-.508-1.04-1.16-1.407 1.328-.3 2.332 1.805 2.23 2.637Zm1.367 3.191c.414 0 .746.309.746.688 0 .379-.332.687-.746.687-.415 0-.75-.308-.75-.687 0-.379.335-.688.75-.688Zm0 0" style="stroke:none;fill-rule:nonzero;fill:#000;fill-opacity:1"/></svg>