<svg xmlns="http://www.w3.org/2000/svg" width="99" height="140"><path d="M9.298 719.743h215.404c4.93 0 8.92 4.005 8.92 8.938v314.362c0 4.934-3.99 8.938-8.92 8.938H9.298c-4.93 0-8.92-4.004-8.92-8.938V728.681c0-4.933 3.99-8.938 8.92-8.938Zm0 0" style="fill-rule:nonzero;fill:#fff;fill-opacity:1;stroke-width:.755906;stroke-linecap:butt;stroke-linejoin:miter;stroke:gray;stroke-opacity:1;stroke-miterlimit:4" transform="matrix(.42308 0 0 .42042 0 -302.435)"/><path d="m49.5 39.82 11.95-11.914L49.5 15.992 37.55 27.906ZM49.5 124.008l11.95-11.914L49.5 100.18l-11.95 11.914ZM7.277 25.79l3.985-3.974-3.985-3.968-3.98 3.968ZM91.723 114.21l3.98 3.974-3.98 3.968-3.985-3.968ZM11.207 12.777 10.91 15.2H3.297c.117-1.39.66-2.617 1.625-3.68l2.586-2.273c.898-.8 1.347-1.605 1.347-2.41 0-.54-.148-.969-.449-1.285-.289-.324-.695-.489-1.21-.489-.594 0-1.04.168-1.333.497-.191.218-.336.554-.437 1.011-.102.485-.18.762-.239.84a.97.97 0 0 1-.296.043H3.887a.628.628 0 0 1-.305-.074 1.34 1.34 0 0 1-.055-.387c0-1.148.364-2.058 1.094-2.734.695-.649 1.602-.973 2.719-.973 1.035 0 1.883.285 2.543.856.703.605 1.05 1.433 1.05 2.488 0 1.035-.386 1.988-1.163 2.848-.27.308-1.04.964-2.313 1.968-.922.742-1.492 1.407-1.703 2h3.715l.062-.742c.059-.262.215-.394.473-.394h.797c.308 0 .441.156.406.468ZM87.793 127.223l.297-2.422h7.613c-.117 1.39-.66 2.617-1.625 3.68l-2.586 2.273c-.898.8-1.347 1.605-1.347 2.41 0 .54.148.969.449 1.285.289.324.695.488 1.21.488.594 0 1.04-.167 1.333-.496.191-.218.336-.554.437-1.011.102-.485.18-.762.239-.84a.97.97 0 0 1 .296-.043h1.004c.117 0 .219.027.305.074.035.117.055.246.055.387 0 1.148-.364 2.058-1.094 2.734-.695.649-1.602.973-2.719.973-1.035 0-1.883-.285-2.543-.856-.703-.605-1.05-1.433-1.05-2.488 0-1.035.386-1.988 1.163-2.848.27-.308 1.04-.964 2.313-1.968.922-.743 1.492-1.407 1.703-2h-3.715l-.062.742c-.059.262-.215.394-.473.394H88.2c-.308 0-.441-.156-.406-.468Zm0 0" style="stroke:none;fill-rule:nonzero;fill:red;fill-opacity:1"/></svg>