<svg xmlns="http://www.w3.org/2000/svg" width="99" height="140"><path d="M9.298 719.743h215.404c4.93 0 8.92 4.005 8.92 8.938v314.362c0 4.934-3.99 8.938-8.92 8.938H9.298c-4.93 0-8.92-4.004-8.92-8.938V728.681c0-4.933 3.99-8.938 8.92-8.938Zm0 0" style="fill-rule:nonzero;fill:#fff;fill-opacity:1;stroke-width:.755906;stroke-linecap:butt;stroke-linejoin:miter;stroke:gray;stroke-opacity:1;stroke-miterlimit:4" transform="matrix(.42308 0 0 .42042 0 -302.435)"/><path d="M24.793 39.82a29.097 29.097 0 0 0-4.297-6.629c-1.11-1.289-2.328-2.476-3.566-3.64-.965-.91-1.95-1.813-2.739-2.883-.535-.723-.98-1.527-1.191-2.402-.383-1.586.035-3.29.824-4.715.461-.832 1.051-1.602 1.781-2.211 1.082-.906 2.493-1.45 3.895-1.332 1.281.11 2.484.762 3.418 1.656a7.778 7.778 0 0 1 1.887 2.86 7.778 7.778 0 0 1 1.886-2.86c.938-.894 2.137-1.547 3.422-1.656 1.399-.117 2.809.426 3.89 1.332.731.61 1.321 1.379 1.782 2.21.79 1.427 1.207 3.13.824 4.716-.21.875-.656 1.68-1.191 2.402-.79 1.07-1.773 1.973-2.738 2.883-1.239 1.164-2.457 2.351-3.567 3.64a28.95 28.95 0 0 0-4.293 6.63M24.793 67.883a29.097 29.097 0 0 0-4.297-6.63c-1.11-1.288-2.328-2.476-3.566-3.64-.965-.91-1.95-1.812-2.739-2.883-.535-.722-.98-1.527-1.191-2.402-.383-1.586.035-3.289.824-4.715.461-.832 1.051-1.601 1.781-2.21 1.082-.907 2.493-1.45 3.895-1.333 1.281.11 2.484.762 3.418 1.657a7.746 7.746 0 0 1 1.887 2.859 7.746 7.746 0 0 1 1.886-2.86c.938-.894 2.137-1.546 3.422-1.656 1.399-.117 2.809.426 3.89 1.332.731.61 1.321 1.38 1.782 2.211.79 1.426 1.207 3.13.824 4.715-.21.875-.656 1.68-1.191 2.402-.79 1.07-1.773 1.973-2.738 2.883-1.239 1.164-2.457 2.352-3.567 3.64a28.95 28.95 0 0 0-4.293 6.63M74.18 39.82a28.95 28.95 0 0 0-4.293-6.629c-1.11-1.289-2.328-2.476-3.567-3.64-.965-.91-1.949-1.813-2.738-2.883-.535-.723-.98-1.527-1.191-2.402-.383-1.586.035-3.29.824-4.715.46-.832 1.05-1.602 1.781-2.211 1.082-.906 2.492-1.45 3.89-1.332 1.286.11 2.485.762 3.423 1.656a7.778 7.778 0 0 1 1.886 2.86 7.778 7.778 0 0 1 1.887-2.86c.934-.894 2.137-1.547 3.418-1.656 1.402-.117 2.813.426 3.895 1.332.73.61 1.32 1.379 1.78 2.21.79 1.427 1.208 3.13.825 4.716-.21.875-.656 1.68-1.191 2.402-.79 1.07-1.774 1.973-2.739 2.883-1.238 1.164-2.457 2.351-3.566 3.64a29.097 29.097 0 0 0-4.297 6.63M49.484 81.914a28.95 28.95 0 0 0-4.293-6.629c-1.109-1.289-2.328-2.476-3.566-3.64-.965-.91-1.95-1.813-2.738-2.883-.535-.723-.98-1.528-1.192-2.403-.383-1.586.035-3.289.825-4.714.46-.833 1.05-1.602 1.78-2.211 1.083-.907 2.493-1.45 3.891-1.332 1.286.109 2.489.761 3.422 1.656a7.746 7.746 0 0 1 1.887 2.86 7.746 7.746 0 0 1 1.887-2.86c.933-.895 2.136-1.547 3.422-1.656 1.398-.118 2.808.425 3.89 1.332.73.609 1.32 1.379 1.781 2.21.79 1.426 1.208 3.13.825 4.715-.211.875-.657 1.68-1.192 2.403-.789 1.07-1.773 1.972-2.738 2.883-1.238 1.164-2.457 2.351-3.566 3.64a28.95 28.95 0 0 0-4.293 6.63M74.18 67.883a28.95 28.95 0 0 0-4.293-6.63c-1.11-1.288-2.328-2.476-3.567-3.64-.965-.91-1.949-1.812-2.738-2.883-.535-.722-.98-1.527-1.191-2.402-.383-1.586.035-3.289.824-4.715.46-.832 1.05-1.601 1.781-2.21 1.082-.907 2.492-1.45 3.89-1.333 1.286.11 2.485.762 3.423 1.657a7.746 7.746 0 0 1 1.886 2.859 7.746 7.746 0 0 1 1.887-2.86c.934-.894 2.137-1.546 3.418-1.656 1.402-.117 2.813.426 3.895 1.332.73.61 1.32 1.38 1.78 2.211.79 1.426 1.208 3.13.825 4.715-.21.875-.656 1.68-1.191 2.402-.79 1.07-1.774 1.973-2.739 2.883-1.238 1.164-2.457 2.352-3.566 3.64a29.097 29.097 0 0 0-4.297 6.63M24.793 100.18a29.097 29.097 0 0 1-4.297 6.629c-1.11 1.289-2.328 2.476-3.566 3.64-.965.91-1.95 1.813-2.739 2.883-.535.723-.98 1.527-1.191 2.402-.383 1.586.035 3.29.824 4.715.461.832 1.051 1.602 1.781 2.211 1.082.906 2.493 1.45 3.895 1.332 1.281-.11 2.484-.762 3.418-1.656a7.778 7.778 0 0 0 1.887-2.86 7.778 7.778 0 0 0 1.886 2.86c.938.894 2.137 1.547 3.422 1.656 1.399.117 2.809-.426 3.89-1.332.731-.61 1.321-1.379 1.782-2.21.79-1.427 1.207-3.13.824-4.716-.21-.875-.656-1.68-1.191-2.402-.79-1.07-1.773-1.973-2.738-2.883-1.239-1.164-2.457-2.351-3.567-3.64a28.95 28.95 0 0 1-4.293-6.63M24.793 72.117a29.097 29.097 0 0 1-4.297 6.63c-1.11 1.288-2.328 2.476-3.566 3.64-.965.91-1.95 1.812-2.739 2.883-.535.722-.98 1.527-1.191 2.402-.383 1.586.035 3.289.824 4.715.461.832 1.051 1.601 1.781 2.21 1.082.907 2.493 1.45 3.895 1.333 1.281-.11 2.484-.762 3.418-1.657a7.746 7.746 0 0 0 1.887-2.859 7.746 7.746 0 0 0 1.886 2.86c.938.894 2.137 1.546 3.422 1.656 1.399.117 2.809-.426 3.89-1.332.731-.61 1.321-1.38 1.782-2.211.79-1.426 1.207-3.13.824-4.715-.21-.875-.656-1.68-1.191-2.402-.79-1.07-1.773-1.973-2.738-2.883-1.239-1.164-2.457-2.352-3.567-3.64a28.95 28.95 0 0 1-4.293-6.63M74.18 100.18a28.95 28.95 0 0 1-4.293 6.629c-1.11 1.289-2.328 2.476-3.567 3.64-.965.91-1.949 1.813-2.738 2.883-.535.723-.98 1.527-1.191 2.402-.383 1.586.035 3.29.824 4.715.46.832 1.05 1.602 1.781 2.211 1.082.906 2.492 1.45 3.89 1.332 1.286-.11 2.485-.762 3.423-1.656a7.778 7.778 0 0 0 1.886-2.86 7.778 7.778 0 0 0 1.887 2.86c.934.894 2.137 1.547 3.418 1.656 1.402.117 2.813-.426 3.895-1.332.73-.61 1.32-1.379 1.78-2.21.79-1.427 1.208-3.13.825-4.716-.21-.875-.656-1.68-1.191-2.402-.79-1.07-1.774-1.973-2.739-2.883-1.238-1.164-2.457-2.351-3.566-3.64a29.097 29.097 0 0 1-4.297-6.63M74.18 72.117a28.95 28.95 0 0 1-4.293 6.63c-1.11 1.288-2.328 2.476-3.567 3.64-.965.91-1.949 1.812-2.738 2.883-.535.722-.98 1.527-1.191 2.402-.383 1.586.035 3.289.824 4.715.46.832 1.05 1.601 1.781 2.21 1.082.907 2.492 1.45 3.89 1.333 1.286-.11 2.485-.762 3.423-1.657a7.746 7.746 0 0 0 1.886-2.859 7.746 7.746 0 0 0 1.887 2.86c.934.894 2.137 1.546 3.418 1.656 1.402.117 2.813-.426 3.895-1.332.73-.61 1.32-1.38 1.78-2.211.79-1.426 1.208-3.13.825-4.715-.21-.875-.656-1.68-1.191-2.402-.79-1.07-1.774-1.973-2.739-2.883-1.238-1.164-2.457-2.352-3.566-3.64a29.097 29.097 0 0 1-4.297-6.63M91.715 114.21a9.65 9.65 0 0 1-1.43 2.212c-.37.43-.777.824-1.187 1.21-.325.305-.653.606-.914.962-.18.242-.329.511-.399.8-.129.532.012 1.098.274 1.575.156.277.351.531.593.734.364.305.832.484 1.301.445.426-.035.828-.253 1.14-.55.274-.266.489-.594.63-.953.136.359.351.687.625.953.312.297.715.515 1.14.55.469.04.938-.14 1.301-.445a2.64 2.64 0 0 0 .594-.734c.262-.477.402-1.043.273-1.574a2.267 2.267 0 0 0-.398-.801c-.262-.356-.59-.656-.914-.961a16.55 16.55 0 0 1-1.188-1.211 9.65 9.65 0 0 1-1.43-2.211M7.273 25.79a9.65 9.65 0 0 0-1.43-2.212 16.55 16.55 0 0 0-1.187-1.21c-.324-.305-.652-.606-.914-.962a2.267 2.267 0 0 1-.398-.8c-.13-.532.011-1.098.273-1.575a2.64 2.64 0 0 1 .594-.734c.363-.305.832-.485 1.3-.445.426.035.829.253 1.141.55.274.266.489.594.625.953.141-.359.356-.687.63-.953.312-.297.714-.515 1.14-.55.469-.04.937.14 1.3.445.243.203.438.457.594.734.262.477.403 1.043.274 1.574-.07.29-.219.56-.399.801-.261.356-.59.657-.914.961-.41.387-.816.781-1.187 1.211a9.65 9.65 0 0 0-1.43 2.211M11.262 9.066c0 1.696-.297 3.075-.89 4.137-.743 1.328-1.888 1.996-3.434 1.996-.903 0-1.649-.18-2.239-.543-.71-.445-1.066-1.101-1.066-1.965 0-.191.133-.285.394-.285h1.188c.152 0 .285.09.39.266.16.265.286.437.372.512.218.18.539.27.96.27.711 0 1.266-.337 1.66-1.009.313-.539.485-1.207.524-1.996-.625.504-1.375.754-2.246.754-1.11 0-1.992-.394-2.648-1.183-.622-.743-.93-1.684-.93-2.829 0-1.203.34-2.152 1.02-2.851.68-.703 1.609-1.055 2.788-1.055 2.774 0 4.157 1.93 4.157 5.781ZM9.074 7.242c0-.59-.16-1.094-.476-1.504-.348-.453-.801-.683-1.364-.683-.578 0-1.035.222-1.379.668-.308.406-.464.91-.464 1.52 0 .616.152 1.124.457 1.523.332.441.793.66 1.386.66.59 0 1.051-.223 1.38-.668.304-.399.46-.906.46-1.516ZM87.738 130.934c0-1.696.297-3.075.89-4.137.743-1.328 1.888-1.996 3.434-1.996.903 0 1.649.18 2.239.543.71.445 1.066 1.101 1.066 1.965 0 .191-.133.285-.394.285h-1.188c-.152 0-.285-.09-.39-.266-.16-.266-.286-.437-.372-.512-.218-.18-.539-.27-.96-.27-.711 0-1.266.337-1.66 1.009-.313.539-.485 1.207-.524 1.996.625-.504 1.375-.754 2.246-.754 1.11 0 1.992.394 2.648 1.183.622.743.93 1.684.93 2.829 0 1.203-.34 2.152-1.02 2.851-.68.703-1.609 1.055-2.788 1.055-2.774 0-4.157-1.93-4.157-5.781Zm2.188 1.824c0 .59.16 1.094.476 1.504.348.453.801.683 1.364.683.578 0 1.035-.222 1.379-.668.308-.406.464-.91.464-1.52 0-.616-.152-1.124-.457-1.523-.332-.441-.793-.66-1.386-.66-.59 0-1.051.223-1.38.668-.304.399-.46.906-.46 1.516Zm0 0" style="stroke:none;fill-rule:nonzero;fill:red;fill-opacity:1"/></svg>