<svg xmlns="http://www.w3.org/2000/svg" width="99" height="140"><path d="M9.298 719.743h215.404c4.93 0 8.92 4.005 8.92 8.938v314.362c0 4.934-3.99 8.938-8.92 8.938H9.298c-4.93 0-8.92-4.004-8.92-8.938V728.681c0-4.933 3.99-8.938 8.92-8.938Zm0 0" style="fill-rule:nonzero;fill:#fff;fill-opacity:1;stroke-width:.755906;stroke-linecap:butt;stroke-linejoin:miter;stroke:gray;stroke-opacity:1;stroke-miterlimit:4" transform="matrix(.42308 0 0 .42042 0 -302.435)"/><path d="M7.273 25.79a9.65 9.65 0 0 0-1.43-2.212 16.55 16.55 0 0 0-1.187-1.21c-.324-.305-.652-.606-.914-.962a2.267 2.267 0 0 1-.398-.8c-.13-.532.011-1.098.273-1.575a2.64 2.64 0 0 1 .594-.734c.363-.305.832-.485 1.3-.445.426.035.829.253 1.141.55.274.266.489.594.625.953.141-.359.356-.687.63-.953.312-.297.714-.515 1.14-.55.469-.04.937.14 1.3.445.243.203.438.457.594.734.262.477.403 1.043.274 1.574-.07.29-.219.56-.399.801-.261.356-.59.657-.914.961-.41.387-.816.781-1.187 1.211a9.65 9.65 0 0 0-1.43 2.211M91.715 114.21a9.65 9.65 0 0 1-1.43 2.212c-.37.43-.777.824-1.187 1.21-.325.305-.653.606-.914.962-.18.242-.329.511-.399.8-.129.532.012 1.098.274 1.575.156.277.351.531.593.734.364.305.832.484 1.301.445.426-.035.828-.253 1.14-.55.274-.266.489-.594.63-.953.136.359.351.687.625.953.312.297.715.515 1.14.55.469.04.938-.14 1.301-.445a2.64 2.64 0 0 0 .594-.734c.262-.477.402-1.043.273-1.574a2.267 2.267 0 0 0-.398-.801c-.262-.356-.59-.656-.914-.961a16.55 16.55 0 0 1-1.188-1.211 9.65 9.65 0 0 1-1.43-2.211M49.484 39.82a28.95 28.95 0 0 0-4.293-6.629c-1.109-1.289-2.328-2.476-3.566-3.64-.965-.91-1.95-1.813-2.738-2.883-.535-.723-.98-1.527-1.192-2.402-.383-1.586.035-3.29.825-4.715.46-.832 1.05-1.602 1.78-2.211 1.083-.906 2.493-1.45 3.891-1.332 1.286.11 2.489.762 3.422 1.656a7.778 7.778 0 0 1 1.887 2.86 7.778 7.778 0 0 1 1.887-2.86c.933-.894 2.136-1.547 3.422-1.656 1.398-.117 2.808.426 3.89 1.332.73.61 1.32 1.379 1.781 2.21.79 1.427 1.208 3.13.825 4.716-.211.875-.657 1.68-1.192 2.402-.789 1.07-1.773 1.973-2.738 2.883-1.238 1.164-2.457 2.351-3.566 3.64a28.95 28.95 0 0 0-4.293 6.63M49.484 81.914a28.95 28.95 0 0 0-4.293-6.629c-1.109-1.289-2.328-2.476-3.566-3.64-.965-.91-1.95-1.813-2.738-2.883-.535-.723-.98-1.528-1.192-2.403-.383-1.586.035-3.289.825-4.714.46-.833 1.05-1.602 1.78-2.211 1.083-.907 2.493-1.45 3.891-1.332 1.286.109 2.489.761 3.422 1.656a7.746 7.746 0 0 1 1.887 2.86 7.746 7.746 0 0 1 1.887-2.86c.933-.895 2.136-1.547 3.422-1.656 1.398-.118 2.808.425 3.89 1.332.73.609 1.32 1.379 1.781 2.21.79 1.426 1.208 3.13.825 4.715-.211.875-.657 1.68-1.192 2.403-.789 1.07-1.773 1.972-2.738 2.883-1.238 1.164-2.457 2.351-3.566 3.64a28.95 28.95 0 0 0-4.293 6.63M49.484 100.18a28.95 28.95 0 0 1-4.293 6.629c-1.109 1.289-2.328 2.476-3.566 3.64-.965.91-1.95 1.813-2.738 2.883-.535.723-.98 1.527-1.192 2.402-.383 1.586.035 3.29.825 4.715.46.832 1.05 1.602 1.78 2.211 1.083.906 2.493 1.45 3.891 1.332 1.286-.11 2.489-.762 3.422-1.656a7.778 7.778 0 0 0 1.887-2.86 7.778 7.778 0 0 0 1.887 2.86c.933.894 2.136 1.547 3.422 1.656 1.398.117 2.808-.426 3.89-1.332.73-.61 1.32-1.379 1.781-2.21.79-1.427 1.208-3.13.825-4.716-.211-.875-.657-1.68-1.192-2.402-.789-1.07-1.773-1.973-2.738-2.883-1.238-1.164-2.457-2.351-3.566-3.64a28.95 28.95 0 0 1-4.293-6.63M11.262 11.836c0 1.105-.395 1.957-1.192 2.55-.715.544-1.652.813-2.812.813-2.64 0-3.961-1.219-3.961-3.656 0-.113.02-.219.058-.324a.557.557 0 0 1 .282-.07h1.082c.105 0 .203.023.293.07.027.078.05.168.066.27.094.671.29 1.156.582 1.46.328.336.828.504 1.508.504.555 0 1.008-.144 1.355-.437.368-.317.551-.739.551-1.27 0-1.125-.633-1.785-1.89-1.98a1.008 1.008 0 0 1-.352-.098c-.043-.086-.066-.523-.066-1.316 0-.102.027-.2.078-.29.414-.12.832-.242 1.246-.367.437-.195.66-.605.66-1.226 0-.942-.566-1.414-1.7-1.414-.523 0-.929.125-1.222.375-.156.136-.316.367-.484.691-.121.246-.242.371-.367.371H3.902c-.27 0-.406-.117-.406-.355 0-.907.363-1.621 1.09-2.145.656-.472 1.46-.707 2.414-.707 1.098 0 1.996.227 2.688.676.816.523 1.226 1.297 1.226 2.32 0 1.235-.625 2.074-1.875 2.52 1.484.61 2.223 1.625 2.223 3.035ZM87.738 128.164c0-1.105.395-1.957 1.192-2.55.715-.544 1.652-.813 2.812-.813 2.64 0 3.961 1.219 3.961 3.656 0 .113-.02.219-.058.324a.557.557 0 0 1-.282.07h-1.082a.624.624 0 0 1-.293-.07 1.511 1.511 0 0 1-.066-.27c-.094-.671-.29-1.156-.582-1.46-.328-.336-.828-.504-1.508-.504-.555 0-1.008.144-1.355.437-.368.317-.551.739-.551 1.27 0 1.125.633 1.785 1.89 1.98.157.02.274.055.352.098.043.086.066.523.066 1.316 0 .102-.027.2-.078.29-.414.12-.832.242-1.246.367-.437.195-.66.605-.66 1.226 0 .942.566 1.414 1.7 1.414.523 0 .929-.125 1.222-.375.156-.136.316-.367.484-.691.121-.246.242-.371.367-.371h1.075c.27 0 .406.117.406.355 0 .907-.363 1.621-1.09 2.145-.656.472-1.46.707-2.414.707-1.098 0-1.996-.227-2.688-.676-.816-.523-1.226-1.297-1.226-2.32 0-1.235.625-2.074 1.875-2.52-1.484-.61-2.223-1.625-2.223-3.035Zm0 0" style="stroke:none;fill-rule:nonzero;fill:red;fill-opacity:1"/></svg>