<?xml version="1.0" encoding="UTF-8"?>
<svg xmlns="http://www.w3.org/2000/svg" xmlns:xlink="http://www.w3.org/1999/xlink" width="99px" height="140px" viewBox="0 0 99 140" version="1.1">
<g id="surface1">
<path style="fill-rule:nonzero;fill:rgb(100%,100%,100%);fill-opacity:1;stroke-width:0.755906;stroke-linecap:butt;stroke-linejoin:miter;stroke:rgb(50.196078%,50.196078%,50.196078%);stroke-opacity:1;stroke-miterlimit:4;" d="M 9.297585 719.743103 L 224.702415 719.743103 C 229.632812 719.743103 233.621449 723.747651 233.621449 728.681329 L 233.621449 1043.042991 C 233.621449 1047.976669 229.632812 1051.981217 224.702415 1051.981217 L 9.297585 1051.981217 C 4.367188 1051.981217 0.378551 1047.976669 0.378551 1043.042991 L 0.378551 728.681329 C 0.378551 723.747651 4.367188 719.743103 9.297585 719.743103 Z M 9.297585 719.743103 " transform="matrix(0.423077,0,0,0.42042,0,-302.434542)"/>
<path style=" stroke:none;fill-rule:nonzero;fill:rgb(100%,0%,0%);fill-opacity:1;" d="M 24.792969 39.820312 C 23.667969 37.425781 22.21875 35.1875 20.496094 33.191406 C 19.386719 31.902344 18.167969 30.714844 16.929688 29.550781 C 15.964844 28.640625 14.980469 27.738281 14.191406 26.667969 C 13.65625 25.945312 13.210938 25.140625 13 24.265625 C 12.617188 22.679688 13.035156 20.976562 13.824219 19.550781 C 14.285156 18.71875 14.875 17.949219 15.605469 17.339844 C 16.6875 16.433594 18.097656 15.890625 19.5 16.007812 C 20.78125 16.117188 21.984375 16.769531 22.917969 17.664062 C 23.75 18.457031 24.394531 19.445312 24.804688 20.523438 C 25.214844 19.445312 25.859375 18.457031 26.691406 17.664062 C 27.628906 16.769531 28.828125 16.117188 30.113281 16.007812 C 31.511719 15.890625 32.921875 16.433594 34.003906 17.339844 C 34.734375 17.949219 35.324219 18.71875 35.785156 19.550781 C 36.574219 20.976562 36.992188 22.679688 36.609375 24.265625 C 36.398438 25.140625 35.953125 25.945312 35.417969 26.667969 C 34.628906 27.738281 33.644531 28.640625 32.679688 29.550781 C 31.441406 30.714844 30.222656 31.902344 29.113281 33.191406 C 27.390625 35.1875 25.941406 37.425781 24.820312 39.820312 "/>
<path style=" stroke:none;fill-rule:nonzero;fill:rgb(100%,0%,0%);fill-opacity:1;" d="M 24.792969 67.882812 C 23.667969 65.488281 22.21875 63.25 20.496094 61.253906 C 19.386719 59.964844 18.167969 58.777344 16.929688 57.613281 C 15.964844 56.703125 14.980469 55.800781 14.191406 54.730469 C 13.65625 54.007812 13.210938 53.203125 13 52.328125 C 12.617188 50.742188 13.035156 49.039062 13.824219 47.613281 C 14.285156 46.78125 14.875 46.011719 15.605469 45.402344 C 16.6875 44.496094 18.097656 43.953125 19.5 44.070312 C 20.78125 44.179688 21.984375 44.832031 22.917969 45.726562 C 23.75 46.519531 24.394531 47.503906 24.804688 48.585938 C 25.214844 47.503906 25.859375 46.519531 26.691406 45.726562 C 27.628906 44.832031 28.828125 44.179688 30.113281 44.070312 C 31.511719 43.953125 32.921875 44.496094 34.003906 45.402344 C 34.734375 46.011719 35.324219 46.78125 35.785156 47.613281 C 36.574219 49.039062 36.992188 50.742188 36.609375 52.328125 C 36.398438 53.203125 35.953125 54.007812 35.417969 54.730469 C 34.628906 55.800781 33.644531 56.703125 32.679688 57.613281 C 31.441406 58.777344 30.222656 59.964844 29.113281 61.253906 C 27.390625 63.25 25.941406 65.488281 24.820312 67.882812 "/>
<path style=" stroke:none;fill-rule:nonzero;fill:rgb(100%,0%,0%);fill-opacity:1;" d="M 74.179688 39.820312 C 73.058594 37.425781 71.609375 35.1875 69.886719 33.191406 C 68.777344 31.902344 67.558594 30.714844 66.320312 29.550781 C 65.355469 28.640625 64.371094 27.738281 63.582031 26.667969 C 63.046875 25.945312 62.601562 25.140625 62.390625 24.265625 C 62.007812 22.679688 62.425781 20.976562 63.214844 19.550781 C 63.675781 18.71875 64.265625 17.949219 64.996094 17.339844 C 66.078125 16.433594 67.488281 15.890625 68.886719 16.007812 C 70.171875 16.117188 71.371094 16.769531 72.308594 17.664062 C 73.140625 18.457031 73.785156 19.445312 74.195312 20.523438 C 74.605469 19.445312 75.25 18.457031 76.082031 17.664062 C 77.015625 16.769531 78.21875 16.117188 79.5 16.007812 C 80.902344 15.890625 82.3125 16.433594 83.394531 17.339844 C 84.125 17.949219 84.714844 18.71875 85.175781 19.550781 C 85.964844 20.976562 86.382812 22.679688 86 24.265625 C 85.789062 25.140625 85.34375 25.945312 84.808594 26.667969 C 84.019531 27.738281 83.035156 28.640625 82.070312 29.550781 C 80.832031 30.714844 79.613281 31.902344 78.503906 33.191406 C 76.78125 35.1875 75.332031 37.425781 74.207031 39.820312 "/>
<path style=" stroke:none;fill-rule:nonzero;fill:rgb(100%,0%,0%);fill-opacity:1;" d="M 49.484375 81.914062 C 48.363281 79.519531 46.914062 77.28125 45.191406 75.285156 C 44.082031 73.996094 42.863281 72.808594 41.625 71.644531 C 40.660156 70.734375 39.675781 69.832031 38.886719 68.761719 C 38.351562 68.039062 37.90625 67.234375 37.695312 66.359375 C 37.3125 64.773438 37.730469 63.070312 38.519531 61.644531 C 38.980469 60.8125 39.570312 60.042969 40.300781 59.433594 C 41.382812 58.527344 42.792969 57.984375 44.191406 58.101562 C 45.476562 58.210938 46.679688 58.863281 47.613281 59.757812 C 48.445312 60.550781 49.089844 61.535156 49.5 62.617188 C 49.910156 61.535156 50.554688 60.550781 51.386719 59.757812 C 52.320312 58.863281 53.523438 58.210938 54.808594 58.101562 C 56.207031 57.984375 57.617188 58.527344 58.699219 59.433594 C 59.429688 60.042969 60.019531 60.8125 60.480469 61.644531 C 61.269531 63.070312 61.6875 64.773438 61.304688 66.359375 C 61.09375 67.234375 60.648438 68.039062 60.113281 68.761719 C 59.324219 69.832031 58.339844 70.734375 57.375 71.644531 C 56.136719 72.808594 54.917969 73.996094 53.808594 75.285156 C 52.085938 77.28125 50.636719 79.519531 49.515625 81.914062 "/>
<path style=" stroke:none;fill-rule:nonzero;fill:rgb(100%,0%,0%);fill-opacity:1;" d="M 74.179688 67.882812 C 73.058594 65.488281 71.609375 63.25 69.886719 61.253906 C 68.777344 59.964844 67.558594 58.777344 66.320312 57.613281 C 65.355469 56.703125 64.371094 55.800781 63.582031 54.730469 C 63.046875 54.007812 62.601562 53.203125 62.390625 52.328125 C 62.007812 50.742188 62.425781 49.039062 63.214844 47.613281 C 63.675781 46.78125 64.265625 46.011719 64.996094 45.402344 C 66.078125 44.496094 67.488281 43.953125 68.886719 44.070312 C 70.171875 44.179688 71.371094 44.832031 72.308594 45.726562 C 73.140625 46.519531 73.785156 47.503906 74.195312 48.585938 C 74.605469 47.503906 75.25 46.519531 76.082031 45.726562 C 77.015625 44.832031 78.21875 44.179688 79.5 44.070312 C 80.902344 43.953125 82.3125 44.496094 83.394531 45.402344 C 84.125 46.011719 84.714844 46.78125 85.175781 47.613281 C 85.964844 49.039062 86.382812 50.742188 86 52.328125 C 85.789062 53.203125 85.34375 54.007812 84.808594 54.730469 C 84.019531 55.800781 83.035156 56.703125 82.070312 57.613281 C 80.832031 58.777344 79.613281 59.964844 78.503906 61.253906 C 76.78125 63.25 75.332031 65.488281 74.207031 67.882812 "/>
<path style=" stroke:none;fill-rule:nonzero;fill:rgb(100%,0%,0%);fill-opacity:1;" d="M 24.792969 100.179688 C 23.667969 102.574219 22.21875 104.8125 20.496094 106.808594 C 19.386719 108.097656 18.167969 109.285156 16.929688 110.449219 C 15.964844 111.359375 14.980469 112.261719 14.191406 113.332031 C 13.65625 114.054688 13.210938 114.859375 13 115.734375 C 12.617188 117.320312 13.035156 119.023438 13.824219 120.449219 C 14.285156 121.28125 14.875 122.050781 15.605469 122.660156 C 16.6875 123.566406 18.097656 124.109375 19.5 123.992188 C 20.78125 123.882812 21.984375 123.230469 22.917969 122.335938 C 23.75 121.542969 24.394531 120.554688 24.804688 119.476562 C 25.214844 120.554688 25.859375 121.542969 26.691406 122.335938 C 27.628906 123.230469 28.828125 123.882812 30.113281 123.992188 C 31.511719 124.109375 32.921875 123.566406 34.003906 122.660156 C 34.734375 122.050781 35.324219 121.28125 35.785156 120.449219 C 36.574219 119.023438 36.992188 117.320312 36.609375 115.734375 C 36.398438 114.859375 35.953125 114.054688 35.417969 113.332031 C 34.628906 112.261719 33.644531 111.359375 32.679688 110.449219 C 31.441406 109.285156 30.222656 108.097656 29.113281 106.808594 C 27.390625 104.8125 25.941406 102.574219 24.820312 100.179688 "/>
<path style=" stroke:none;fill-rule:nonzero;fill:rgb(100%,0%,0%);fill-opacity:1;" d="M 24.792969 72.117188 C 23.667969 74.511719 22.21875 76.75 20.496094 78.746094 C 19.386719 80.035156 18.167969 81.222656 16.929688 82.386719 C 15.964844 83.296875 14.980469 84.199219 14.191406 85.269531 C 13.65625 85.992188 13.210938 86.796875 13 87.671875 C 12.617188 89.257812 13.035156 90.960938 13.824219 92.386719 C 14.285156 93.21875 14.875 93.988281 15.605469 94.597656 C 16.6875 95.503906 18.097656 96.046875 19.5 95.929688 C 20.78125 95.820312 21.984375 95.167969 22.917969 94.273438 C 23.75 93.480469 24.394531 92.496094 24.804688 91.414062 C 25.214844 92.496094 25.859375 93.480469 26.691406 94.273438 C 27.628906 95.167969 28.828125 95.820312 30.113281 95.929688 C 31.511719 96.046875 32.921875 95.503906 34.003906 94.597656 C 34.734375 93.988281 35.324219 93.21875 35.785156 92.386719 C 36.574219 90.960938 36.992188 89.257812 36.609375 87.671875 C 36.398438 86.796875 35.953125 85.992188 35.417969 85.269531 C 34.628906 84.199219 33.644531 83.296875 32.679688 82.386719 C 31.441406 81.222656 30.222656 80.035156 29.113281 78.746094 C 27.390625 76.75 25.941406 74.511719 24.820312 72.117188 "/>
<path style=" stroke:none;fill-rule:nonzero;fill:rgb(100%,0%,0%);fill-opacity:1;" d="M 74.179688 100.179688 C 73.058594 102.574219 71.609375 104.8125 69.886719 106.808594 C 68.777344 108.097656 67.558594 109.285156 66.320312 110.449219 C 65.355469 111.359375 64.371094 112.261719 63.582031 113.332031 C 63.046875 114.054688 62.601562 114.859375 62.390625 115.734375 C 62.007812 117.320312 62.425781 119.023438 63.214844 120.449219 C 63.675781 121.28125 64.265625 122.050781 64.996094 122.660156 C 66.078125 123.566406 67.488281 124.109375 68.886719 123.992188 C 70.171875 123.882812 71.371094 123.230469 72.308594 122.335938 C 73.140625 121.542969 73.785156 120.554688 74.195312 119.476562 C 74.605469 120.554688 75.25 121.542969 76.082031 122.335938 C 77.015625 123.230469 78.21875 123.882812 79.5 123.992188 C 80.902344 124.109375 82.3125 123.566406 83.394531 122.660156 C 84.125 122.050781 84.714844 121.28125 85.175781 120.449219 C 85.964844 119.023438 86.382812 117.320312 86 115.734375 C 85.789062 114.859375 85.34375 114.054688 84.808594 113.332031 C 84.019531 112.261719 83.035156 111.359375 82.070312 110.449219 C 80.832031 109.285156 79.613281 108.097656 78.503906 106.808594 C 76.78125 104.8125 75.332031 102.574219 74.207031 100.179688 "/>
<path style=" stroke:none;fill-rule:nonzero;fill:rgb(100%,0%,0%);fill-opacity:1;" d="M 74.179688 72.117188 C 73.058594 74.511719 71.609375 76.75 69.886719 78.746094 C 68.777344 80.035156 67.558594 81.222656 66.320312 82.386719 C 65.355469 83.296875 64.371094 84.199219 63.582031 85.269531 C 63.046875 85.992188 62.601562 86.796875 62.390625 87.671875 C 62.007812 89.257812 62.425781 90.960938 63.214844 92.386719 C 63.675781 93.21875 64.265625 93.988281 64.996094 94.597656 C 66.078125 95.503906 67.488281 96.046875 68.886719 95.929688 C 70.171875 95.820312 71.371094 95.167969 72.308594 94.273438 C 73.140625 93.480469 73.785156 92.496094 74.195312 91.414062 C 74.605469 92.496094 75.25 93.480469 76.082031 94.273438 C 77.015625 95.167969 78.21875 95.820312 79.5 95.929688 C 80.902344 96.046875 82.3125 95.503906 83.394531 94.597656 C 84.125 93.988281 84.714844 93.21875 85.175781 92.386719 C 85.964844 90.960938 86.382812 89.257812 86 87.671875 C 85.789062 86.796875 85.34375 85.992188 84.808594 85.269531 C 84.019531 84.199219 83.035156 83.296875 82.070312 82.386719 C 80.832031 81.222656 79.613281 80.035156 78.503906 78.746094 C 76.78125 76.75 75.332031 74.511719 74.207031 72.117188 "/>
<path style=" stroke:none;fill-rule:nonzero;fill:rgb(100%,0%,0%);fill-opacity:1;" d="M 91.714844 114.210938 C 91.34375 115.007812 90.859375 115.753906 90.285156 116.421875 C 89.914062 116.851562 89.507812 117.246094 89.097656 117.632812 C 88.773438 117.9375 88.445312 118.238281 88.183594 118.59375 C 88.003906 118.835938 87.855469 119.105469 87.785156 119.394531 C 87.65625 119.925781 87.796875 120.492188 88.058594 120.96875 C 88.214844 121.246094 88.410156 121.5 88.652344 121.703125 C 89.015625 122.007812 89.484375 122.1875 89.953125 122.148438 C 90.378906 122.113281 90.78125 121.894531 91.09375 121.597656 C 91.367188 121.332031 91.582031 121.003906 91.722656 120.644531 C 91.859375 121.003906 92.074219 121.332031 92.347656 121.597656 C 92.660156 121.894531 93.0625 122.113281 93.488281 122.148438 C 93.957031 122.1875 94.425781 122.007812 94.789062 121.703125 C 95.03125 121.5 95.226562 121.246094 95.382812 120.96875 C 95.644531 120.492188 95.785156 119.925781 95.65625 119.394531 C 95.585938 119.105469 95.4375 118.835938 95.257812 118.59375 C 94.996094 118.238281 94.667969 117.9375 94.34375 117.632812 C 93.933594 117.246094 93.527344 116.851562 93.15625 116.421875 C 92.582031 115.753906 92.097656 115.007812 91.726562 114.210938 "/>
<path style=" stroke:none;fill-rule:nonzero;fill:rgb(100%,0%,0%);fill-opacity:1;" d="M 7.273438 25.789062 C 6.902344 24.992188 6.417969 24.246094 5.84375 23.578125 C 5.472656 23.148438 5.066406 22.753906 4.65625 22.367188 C 4.332031 22.0625 4.003906 21.761719 3.742188 21.40625 C 3.5625 21.164062 3.414062 20.894531 3.34375 20.605469 C 3.214844 20.074219 3.355469 19.507812 3.617188 19.03125 C 3.773438 18.753906 3.96875 18.5 4.210938 18.296875 C 4.574219 17.992188 5.042969 17.8125 5.511719 17.851562 C 5.9375 17.886719 6.339844 18.105469 6.652344 18.402344 C 6.925781 18.667969 7.140625 18.996094 7.277344 19.355469 C 7.417969 18.996094 7.632812 18.667969 7.90625 18.402344 C 8.21875 18.105469 8.621094 17.886719 9.046875 17.851562 C 9.515625 17.8125 9.984375 17.992188 10.347656 18.296875 C 10.589844 18.5 10.785156 18.753906 10.941406 19.03125 C 11.203125 19.507812 11.34375 20.074219 11.214844 20.605469 C 11.144531 20.894531 10.996094 21.164062 10.816406 21.40625 C 10.554688 21.761719 10.226562 22.0625 9.902344 22.367188 C 9.492188 22.753906 9.085938 23.148438 8.714844 23.578125 C 8.140625 24.246094 7.65625 24.992188 7.285156 25.789062 "/>
<path style=" stroke:none;fill-rule:nonzero;fill:rgb(100%,0%,0%);fill-opacity:1;" d="M 11.261719 9.066406 C 11.261719 10.761719 10.964844 12.140625 10.371094 13.203125 C 9.628906 14.53125 8.484375 15.199219 6.9375 15.199219 C 6.035156 15.199219 5.289062 15.019531 4.699219 14.65625 C 3.988281 14.210938 3.632812 13.554688 3.632812 12.691406 C 3.632812 12.5 3.765625 12.40625 4.027344 12.40625 L 5.214844 12.40625 C 5.367188 12.40625 5.5 12.496094 5.605469 12.671875 C 5.765625 12.9375 5.890625 13.109375 5.976562 13.183594 C 6.195312 13.363281 6.515625 13.453125 6.9375 13.453125 C 7.648438 13.453125 8.203125 13.117188 8.597656 12.445312 C 8.910156 11.90625 9.082031 11.238281 9.121094 10.449219 C 8.496094 10.953125 7.746094 11.203125 6.875 11.203125 C 5.765625 11.203125 4.882812 10.808594 4.226562 10.019531 C 3.605469 9.277344 3.296875 8.335938 3.296875 7.191406 C 3.296875 5.988281 3.636719 5.039062 4.316406 4.339844 C 4.996094 3.636719 5.925781 3.285156 7.105469 3.285156 C 9.878906 3.285156 11.261719 5.214844 11.261719 9.066406 Z M 9.074219 7.242188 C 9.074219 6.652344 8.914062 6.148438 8.597656 5.738281 C 8.25 5.285156 7.796875 5.054688 7.234375 5.054688 C 6.65625 5.054688 6.199219 5.277344 5.855469 5.722656 C 5.546875 6.128906 5.390625 6.632812 5.390625 7.242188 C 5.390625 7.859375 5.542969 8.367188 5.847656 8.765625 C 6.179688 9.207031 6.640625 9.425781 7.234375 9.425781 C 7.824219 9.425781 8.285156 9.203125 8.613281 8.757812 C 8.917969 8.359375 9.074219 7.851562 9.074219 7.242188 Z M 9.074219 7.242188 "/>
<path style=" stroke:none;fill-rule:nonzero;fill:rgb(100%,0%,0%);fill-opacity:1;" d="M 87.738281 130.933594 C 87.738281 129.238281 88.035156 127.859375 88.628906 126.796875 C 89.371094 125.46875 90.515625 124.800781 92.0625 124.800781 C 92.964844 124.800781 93.710938 124.980469 94.300781 125.34375 C 95.011719 125.789062 95.367188 126.445312 95.367188 127.308594 C 95.367188 127.5 95.234375 127.59375 94.972656 127.59375 L 93.785156 127.59375 C 93.632812 127.59375 93.5 127.503906 93.394531 127.328125 C 93.234375 127.0625 93.109375 126.890625 93.023438 126.816406 C 92.804688 126.636719 92.484375 126.546875 92.0625 126.546875 C 91.351562 126.546875 90.796875 126.882812 90.402344 127.554688 C 90.089844 128.09375 89.917969 128.761719 89.878906 129.550781 C 90.503906 129.046875 91.253906 128.796875 92.125 128.796875 C 93.234375 128.796875 94.117188 129.191406 94.773438 129.980469 C 95.394531 130.722656 95.703125 131.664062 95.703125 132.808594 C 95.703125 134.011719 95.363281 134.960938 94.683594 135.660156 C 94.003906 136.363281 93.074219 136.714844 91.894531 136.714844 C 89.121094 136.714844 87.738281 134.785156 87.738281 130.933594 Z M 89.925781 132.757812 C 89.925781 133.347656 90.085938 133.851562 90.402344 134.261719 C 90.75 134.714844 91.203125 134.945312 91.765625 134.945312 C 92.34375 134.945312 92.800781 134.722656 93.144531 134.277344 C 93.453125 133.871094 93.609375 133.367188 93.609375 132.757812 C 93.609375 132.140625 93.457031 131.632812 93.152344 131.234375 C 92.820312 130.792969 92.359375 130.574219 91.765625 130.574219 C 91.175781 130.574219 90.714844 130.796875 90.386719 131.242188 C 90.082031 131.640625 89.925781 132.148438 89.925781 132.757812 Z M 89.925781 132.757812 "/>
</g>
</svg>
