<svg xmlns="http://www.w3.org/2000/svg" width="99" height="140"><path d="M9.298 719.743h215.404c4.93 0 8.92 4.005 8.92 8.938v314.362c0 4.934-3.99 8.938-8.92 8.938H9.298c-4.93 0-8.92-4.004-8.92-8.938V728.681c0-4.933 3.99-8.938 8.92-8.938Zm0 0" style="fill-rule:nonzero;fill:#fff;fill-opacity:1;stroke-width:.755906;stroke-linecap:butt;stroke-linejoin:miter;stroke:gray;stroke-opacity:1;stroke-miterlimit:4" transform="matrix(.42308 0 0 .42042 0 -302.435)"/><path d="M11.262 15.2H9.598l-.649-1.227c-.539.43-1.14.648-1.8.648-1.09 0-2.004-.547-2.747-1.637-.738-1.097-1.105-2.441-1.105-4.035 0-1.023.168-1.965.504-2.832.34-.867.808-1.554 1.414-2.07.594-.508 1.234-.762 1.918-.762 1.07 0 1.972.559 2.71 1.672.739 1.117 1.11 2.457 1.11 4.027 0 1.465-.324 2.727-.973 3.786ZM9.55 8.972c0-1.008-.23-1.871-.688-2.582-.468-.73-1.043-1.094-1.73-1.094-.711 0-1.293.351-1.746 1.062-.453.704-.676 1.579-.676 2.625 0 1.196.289 2.137.875 2.832.457.543.976.817 1.559.817.332 0 .648-.098.94-.29L6.77 9.86H8.44l.66 1.254c.297-.644.45-1.36.45-2.14ZM87.738 124.8h1.664l.649 1.227a2.803 2.803 0 0 1 1.8-.648c1.09 0 2.004.547 2.747 1.637.738 1.097 1.105 2.441 1.105 4.035 0 1.023-.168 1.965-.504 2.832-.34.867-.808 1.554-1.414 2.07-.594.508-1.234.762-1.918.762-1.07 0-1.972-.559-2.71-1.672-.739-1.117-1.11-2.457-1.11-4.027 0-1.465.324-2.727.973-3.786Zm1.711 6.227c0 1.008.23 1.871.688 2.582.468.73 1.043 1.094 1.73 1.094.711 0 1.293-.351 1.746-1.062.453-.703.676-1.578.676-2.625 0-1.196-.289-2.137-.875-2.832-.457-.543-.977-.817-1.559-.817-.332 0-.648.098-.94.29l1.315 2.484H90.56l-.66-1.254a5.062 5.062 0 0 0-.45 2.14ZM24.797 35.848a19.47 19.47 0 0 0-2.863-4.418c-.739-.86-1.555-1.649-2.38-2.426-.644-.61-1.296-1.211-1.824-1.922-.355-.484-.652-1.02-.796-1.602-.254-1.058.023-2.19.55-3.144a5.23 5.23 0 0 1 1.188-1.473c.723-.605 1.66-.968 2.594-.886.855.07 1.656.503 2.28 1.101a5.175 5.175 0 0 1 1.259 1.906 5.175 5.175 0 0 1 1.258-1.906c.625-.598 1.425-1.031 2.28-1.101.934-.082 1.876.28 2.595.886.488.407.878.918 1.187 1.473.527.953.805 2.086.55 3.144-.144.582-.44 1.118-.796 1.602-.527.711-1.18 1.313-1.824 1.922-.825.777-1.637 1.566-2.38 2.426a19.47 19.47 0 0 0-2.863 4.418M74.188 104.152a19.47 19.47 0 0 1-2.864 4.418c-.742.86-1.554 1.649-2.379 2.426-.644.61-1.297 1.211-1.824 1.922-.355.484-.652 1.02-.797 1.602-.254 1.058.024 2.19.551 3.144.309.555.7 1.066 1.188 1.473.718.605 1.66.968 2.593.886.856-.07 1.656-.503 2.281-1.101a5.175 5.175 0 0 0 1.258-1.906 5.175 5.175 0 0 0 1.258 1.906c.625.598 1.426 1.031 2.281 1.101.934.082 1.871-.28 2.594-.886a5.23 5.23 0 0 0 1.188-1.473c.527-.953.804-2.086.55-3.144-.144-.582-.441-1.118-.796-1.602-.528-.711-1.18-1.313-1.825-1.922-.824-.777-1.64-1.566-2.379-2.426a19.47 19.47 0 0 1-2.863-4.418M91.715 114.21a9.65 9.65 0 0 1-1.43 2.212c-.37.43-.777.824-1.187 1.21-.325.305-.653.606-.914.962-.18.242-.329.511-.399.8-.129.532.012 1.098.274 1.575.156.277.351.531.593.734.364.305.832.484 1.301.445.426-.035.828-.253 1.14-.55.274-.266.489-.594.63-.953.136.359.351.687.625.953.312.297.715.515 1.14.55.469.04.938-.14 1.301-.445a2.64 2.64 0 0 0 .594-.734c.262-.477.402-1.043.273-1.574a2.267 2.267 0 0 0-.398-.801c-.262-.356-.59-.656-.914-.961a16.55 16.55 0 0 1-1.188-1.211 9.65 9.65 0 0 1-1.43-2.211M7.273 25.79a9.65 9.65 0 0 0-1.43-2.212 16.55 16.55 0 0 0-1.187-1.21c-.324-.305-.652-.606-.914-.962a2.267 2.267 0 0 1-.398-.8c-.13-.532.011-1.098.273-1.575a2.64 2.64 0 0 1 .594-.734c.363-.305.832-.485 1.3-.445.426.035.829.253 1.141.55.274.266.489.594.625.953.141-.359.356-.687.63-.953.312-.297.714-.515 1.14-.55.469-.04.937.14 1.3.445.243.203.438.457.594.734.262.477.403 1.043.274 1.574-.07.29-.219.56-.399.801-.261.356-.59.657-.914.961-.41.387-.816.781-1.187 1.211a9.65 9.65 0 0 0-1.43 2.211" style="stroke:none;fill-rule:nonzero;fill:red;fill-opacity:1"/><path d="m85.852 16.195-72.997-.203.032 107.922 73.258.094c-.43-35.985-.348-71.899-.293-107.813Zm-8.614.88 7.7.062-.16 41.523s-.477-.012-.434-.305c.062-.386 0-1.117-.297-1.425-.121-.13-.324-.332-.406-.48-.2-.372-.532-.759-.797-.86-.133-.055-.285-.082-.305-.168-.02-.078-.062-.336-.117-.574-.14-.598-.266-.578.148-1.168 1.434-2.051 1.993-3.942 1.817-5.817-.051-.586-.211-1.343-.285-1.449-1.383 1.27-2.387 2.84-3.329 4-.203-1.664-.171-2.914-.195-4.246.738-.191 1.184-.55 1.504-1.473 0 0 .79.57 1.273.492l-.316-1.074c2.113-.59 2.414-3.125-.078-3.672l.23-1.336s-.754.23-1.086.38c-.164.062-.207.011-.32-.208-1.156-1.672-2.965-1.32-3.765.32l-.973-.386c.101.457.226.918.137 1.371-2.047.832-1.551 3.129.078 3.434l-.145 1.07 1.227-.363c.18.504.086.797 1.066 1.367-.035 2.242-.078 3.648-.012 5.64-1.273-1.207-2.503-2.05-4.664-2.671 0 0-.023.484.102 1.218.039.243.031.207-.094.207-.281-.007-1.539-1.886-1.539-1.886s-.148 0-.277.117c-.153.137.191.39.676 1.055.562.777.507.746.062 1.093-2.543 1.969-6.23 9.492-5.617 10.227-1.602.082-7.852 2.879-9.008 8.687-.07.262-.203.598-.203.598l-1.805-.418c1.11-4.754 3.602-14.422 3.602-14.422s1.73-.445 2.738-.543l-.008-.375-2.379.504.118-.828 2.246-.402-.008-.196-2.375.285.39-1.378s-5.335.703-7.246.644c.102 5.371-.375 9.828-.148 15.613l-2.606-1.46c-.214-4.032-.246-14.204-.246-14.204l-7.195-1.066.23 1.598c-5.956-2.196-11.937-4.22-16.331-8.493 2.722-1.91 7.257-3.797 7.257-3.797l-.144-.304c-11.16 5.25-15.313 8.91-20.926 13.449l-.008-37.676 30.399.086-.125 6.871s-.04.176-.098.239c-.379 1.664.676 4.62.457 6.058.098.445.059 1.27.059 1.27-1.825 2.285-2.793 4.453-3.61 7.113-.312.113-.777.344-1.101.426l-.094.363c.715-.36 2.734-.941 2.734-.941 8.98 4.066 15.594 3.101 22.68.125-1.14 3.64 1.293 8.285 5.324 9.273.461.113 1.25.211 1.703.102.453-.118-1.004-3.22-1.652-3.336-1.95-.782-2.742-2.614-2.527-4.707l-.32-.5c-.676 2.543.913 5.132 3.105 5.77l.586 1.187c-3.973-1.11-5.657-4.547-4.317-7.934.032-2.117-1.457-3.059-2.136-3.973-3.454-1.226-4.086-4.18-3.473-6.562 1.61.637-1.078-2.098-1.078-2.098-1.196 2.36-1.703 5.352 1 8.39-1.762 2.138-4.035 3.825-6.57 5.267-3.708 1.765-6.477.558-8.247-3.383-1.066-2.367-1.441-4.727-1.425-7.192.011-1.527.03-1.574.652-1.312.582.242 1.848.281 2.605-.074 1.032-.485.98-.188-.144.87-.305.29-.633.548-.633.602-.004.313.48.051 1.164-.57.254-.227.438-.445.516-.441.09.003.082.296-.024.613-.039.12-.168.637-.285 1.14a18.465 18.465 0 0 1-.351 1.32c-.309.876-.23 1.286.683 1.692.48.215 1.301.945 1.297.945 0 0-.195-.796-.121-1.054.09-.309.484-.09.89.09.895.398 1.419.41 1.9.043.667-.508.48-1.657-.34-1.957-.602-.223-.708-.02-.106.37.898.583-.121 1.473-.887.915-.598-.434-1.637-.489-1.754-.125-.11.34-.223.277-.637.054-.644-.351-.648-.41-.101-2.324 1.035-3.617.941-4.949-.41-6.055-1-.816-2.657-1.199-4.38-.3l.005-1.235c2.527-.918 4.37-2.449 5.86-5.015h.288c1.465 2.945 3.836 5.062 8.313 6.625 1.746 1.597-2.2-4.582-.942-2.051-2.375-.86-4.492-2.508-5.648-4.566h.648c.68.91 2.055 2.574 4.516 3.726.222.176.441-.004.441-.004s-2.058-2.988-2.394-3.699l20.66-.07c-.672 4.632-1.613 9.664 1.984 18.699-1.699-.828-8.539.902-7.34 1.254.61-.64 4.965-1.57 8.184-.864-.266-.21-4.875-10.152-2.137-18.988Zm2.137 18.988c.008.007.012.007.012.003-.004 0-.008 0-.012-.004ZM63.348 53.89l.015.726.164-.035-.093-.707ZM44.832 16.992l.91.004c-.203.375-.492.656-.937.89Zm1.563.004.972.004c-.762 1.113-1.574 1.785-2.55 2.309l.019-.872c.566-.453 1.105-.921 1.559-1.44Zm1.613.008h.898c-1.226 1.726-2.484 2.883-4.093 3.613v-.707c.996-.707 2.406-1.746 3.195-2.906Zm1.375.004h.726c-1.261 2.195-3.011 3.703-5.3 4.539v-.527c2.511-1.22 3.609-2.586 4.574-4.012Zm1.988.004.875.004c1.191 2.199 3.676 4.285 6.41 5.203l.414.894c-3.601-1.207-5.988-2.953-7.699-6.101Zm2.531.011h.625c.653.844 1.446 1.532 2.375 2.106l.563 1.012c-1.254-.782-2.649-1.73-3.563-3.118Zm1.141 0 .695.04.922 1.421c-.617-.324-1.078-.972-1.617-1.46Zm-.824 5.7c-.957-.008-1.828.234-2.461.703-.668.5-.18 1.047.781.64 1.633-.695 3.508-.375 5.527.653 1.7.863 1.106-.032-.48-.992-1.086-.668-2.281-.997-3.367-1.004Zm-7.7 1.101c1.376.012 2.946.578 2.981 1.32-.91-.703-2.738-1.05-4.496-.335-.133-.028-.152-.47-.07-.63.379-.253.96-.363 1.586-.355Zm8.313.504c-.867-.004-1.664.203-2.031.652-.192.211-.239.235-.446.204-.402-.063-.382.152.079.742.222.285.183.61-.118.996-.343.445-.277.46.743.914.777.355 1.402.852 2.113 1.262.504.265.605.035.14-.313-.16-.12-.636-.433-1.062-.691-.723-.438-1.254-.88-.68-.68.266.074.332.11.625.156.746.149 1.48.235 2.11.121.449-.082 1.035-.355 1.52-.734.12-.055.245.004.542.016 1.14.043.89-.266-.746-1.094-1.617-.82-2.89-.973-3.93-.527-.437.187-.691.234-.625.113a.917.917 0 0 1 .387-.375c1.68-.918 3.024-.149 4.5.55.633.352.8.442.879.333.098-.145-.707-.672-1.781-1.172-.633-.305-1.453-.469-2.219-.473Zm-5.363 1.05c.281.106.152.403-.106.31-1.547-.645-1.855-.958-3.703-.372-.61.192-.851.02-.101-.273 1.632-.625 2.812-.195 3.91.336Zm-1.067.75c-.425 1.962-2.543 1.352-2.3.005l.39.004c.028 1.183 1.317 1.18 1.54.015Zm12.332.044.567 1.129c-1.258 2.828.422 6.644 4.105 7.57 0 0 .594.844.477.95-6.918-1.43-6.363-7.505-5.149-9.65Zm-6.558.055.195.011c.594 1.367 1.465.586 1.637.008l.441.012c-.14 1.414-2.476 1.648-2.273-.031Zm-5.332.023c.277-.031.37.355.293.43-.02.02-.535.476-.598.203-.09-.395.188-.617.305-.633Zm-3.23.027c.023 0 .046 0 .074.004.171.125.234.489.144.676-.102.098-.52-.039-.598-.184-.125-.214.024-.5.38-.496Zm11.226.168c.137.004.512.157.472.325-.007.039-.53.394-.648.335-.227-.113.086-.62.133-.652.008-.008.023-.008.043-.008Zm-3.059.051h.008c.04.027.375.223.09.574-.02.024-.399-.101-.406-.14-.032-.207.254-.418.308-.434Zm8.38 2.512c-.095 1.625.362 3.207 2.288 4.23l-.414-.699c-.492-.367-1.523-1.406-1.39-2.637Zm-17.349 2.851.211 1.075a23.553 23.553 0 0 0-2.554 5.082l-1.004.332c.805-2.352 1.547-4.215 3.347-6.489Zm.415 1.672.28.922c-.523.883-1.085 1.879-1.425 3.043l-1.11.371c.505-1.539 1.239-3.035 2.255-4.336Zm3.515.39a.196.196 0 0 0-.047.009c-.011.18-.011.68.028 1.508.004.156.172.09.644-.13.41-.19.371-.222.77-.097 1.101.352 1.601.203 2.035.102.656-.157.926-.09 1.305.12.21.118.496.204.554.223.301.102.188-.023-.02-.773-.226-.848-.128-.942-.495-.723-.082.05-.317.168-.446.18-.32.035-.855-.328-1.172-.215-.777.277-.77.203-1.488.04-.36-.083-.703.116-1.015.17-.18.02-.403-.413-.653-.413Zm13.164.481c1.305 1.11 2.649 1.493 4.106 1.914-.18.547-.532 1.164-.7 1.883-7.601 3.668-15.23 3.528-22.41.153l3.739-1.301c2.027 3.258 4.636 4.133 7.582 3.078 3.289-1.395 5.726-3.344 7.683-5.727ZM45.691 35l.317.8-.485 1.2-.914.34c.176-.82.52-1.492 1.082-2.34Zm6.852.95c-.227.007-.57.148-1.352.148-.421 0-.754-.035-.918-.004-.343.062.055.203.817.406.762.203 1.695-.094 1.812-.398.032-.075-.07-.164-.359-.153Zm-6.32.37.195.407-.34.109Zm20.175.293.563 1.192c-.992 1.953-1.664 7.312 4.883 9l.285.77c-4.461.062-8.91-5.173-5.73-10.962Zm-15.007.356c-.641-.008-1.313.136-1.746.453-.391.281.085.46.593.238.66-.293 1.758-.265 2.403.106.488.312.746.257.418-.215-.258-.367-.942-.57-1.668-.582Zm28.605 1.43c1.715-.024 1.883 2.234 1.55 2.43.099-.032.391-.11.806-.099 1.253.036 1.906.676 1.976 1.606.07.937-.707 1.457-1.832 1.398-.418-.02-.707-.058-.687.008.207.75-.051 1.88-1.13 2.156-.124.032-.3.192-.304.247-.086 1.187.266 5.265.266 5.265s2.03-3.117 2.488-3.59c.894-1.113 1.055-1.011 1.047.844-.156 2.574-.606 3.16-2.262 5.316-.707.93-2.375.434-2.227 1.067.032.137.301.387.575.625.172.152.351.246.754.238.714-.02.992-.152.562.414-.336.45-1.52.54-1.652.774-.313.547-.102.425-.633.902-.406.41-.266.2-.082.54.289.433.164 1.3-.125 1.886-.238.472-.211.812-.211.812.004.04.66-.617.86-1.383.167-.636.363-.953.359-.597-.004.449.078 1.058.52 1.293.347.187.394.37.335.597-.058.235.211.442.48.637.063.059.274.137.25.262-.074.39.098.851.407.926.137.062 1.016-.004 1.164-.457-.016-.145 0-.743-.348-.782-.246-.105-.222-.168.153-.37.562-.305.968-.524 1.246-.571.37-.047.726-.414.726-.414l-.02 24.574c-3.335 3.121-6.987 6.223-11.8 9.27-2.781-2.149-5.82-4.325-9.05-5.957l-1.118-.614.402-.472-1.93-2.36 2.188-1.613.551.648-1.035.918 1.543 1.586 3.5-3.12-2.29-2.028 1.204-2.059.762.348-.582 1.305 1.742 1.023 2.203-3.992-2.77-1.172.715-2.684.856.086L69.805 76l2.16.402.894-4.558-3.168-.531.278-2.598.886.012-.136 1.437 2.242.3.437-3.972-3.109-.484.414-3.067.711.094-.144 1.89 2.277.368c.258-1.281.469-2.89.844-4.148l-2.934-1.02 1.05-2.57.661.21-.582 1.395 2.164.86 1.844-3.317-2.551-1.676c.578-.87 1.152-1.699 1.973-2.406l.5.406s-.184.153-.47.512c-.347.438-.456.656-.41.77.048.113 1.622 1.191 1.743 1.191.14.004.664-.434.933-.73.293-.313.442-.344.743-.145.058.04.144.117.203.184a.392.392 0 0 1 .11.199.128.128 0 0 1-.024.101c.027-.023.082-.058.199-.12.215-.11-.414-.622-.926-.887-1.539-.801-3.344-2.309-3.758-4.184-.148-.844 2.211.176 3.836 1.676.246.226 1.164 1.05 1.164 1.05-.129-2.171-.312-4.374-.199-6.57l-.36-.23c-.5-.324-.69-.856-.737-1.387-.028-.367.312-.555-.465-.531-1.625.008-2.555-1.403-1.567-2.602.352-.449 1.848-.664 1.848-.652-.379-1.438.773-2.207 1.617-2.274Zm-.652 16.71c-.031.028-.016.028 0 0Zm2.203-14.28c-.024.003-.047.01-.047.01a.104.104 0 0 0 .047-.01ZM27.52 45.347c4.52 3.527 7.398 5.898 16.609 8.574l.223 1.258c-5.297-1.145-11.07-3.446-17.926-9.137Zm-1.364.808c2.86 2.473 5.79 4.364 8.762 5.946l1.043.582-.543.507 1.742 2.329-2.258 1.687-.535-.496 1.18-1.055-1.668-1.523-3.422 3.168 2.332 1.914-1.363 1.914-.492-.203.726-1.336-2.168-1.098-2.441 4.102 3.086 1.304-.711 2.516-.719-.035.25-1.973-2.324-.386-.797 4.613 2.988.441-.082 2.656-.797-.011.063-1.504-2.363-.11-.223 3.875 2.902.356-.3 3.144-.715-.171.09-2.04-2.215-.21-.778 4.34 2.985.792-1.067 2.704-.648-.329.43-1.394a171.28 171.28 0 0 0-2.075-.813l-1.965 3.364 2.528 1.593-1.567 2.516-.601-.375 1.082-1.465-2.098-1.222-1.203 1.5c-.508-.407-1.418-.973-1.766-1.352-.37-.316-.656-.363-1.136-.262-.38.082-.742.145-.657.02.04-.059.762-.504 1.86-1.14.308-.177.55-.333.547-.493 0-.121.168-.309.39-.434.246-.132.192-.261.153-.402-.211-.758-.07-1.941.343-2.734.282-.532.368-.63.188-.63-.535.063-1.192 1.84-1.32 2.344-.04-.039-.098-.511-.133-.69-.067-.329-.117-.532-.403-.595-.34-.074-.23-.222-.265-.46-.055-.383-.25-.626-.602-.762-.343-.13-.379-.184-.363-.496 0-.246-.277-.664-.484-.797l-1.188.383c-.094.285.031.66.223.796.594.516-.278.524-.875.856-.16.094-.356.305-.485.234-.379-.117-.351.926-.726.797l.187-25c3.184-3.016 12.461-9.297 12.461-9.297Zm47.961 4.574.457.47c-1.422 1.46-2.457 2.968-3.594 4.812-.972 1.57-1.816 3.773-2.261 6.175-.344 1.47-.403 2.965-.617 4.473-.22 1.617-.27 3.8-.61 5.508-.64 4.691-2.082 7.184-5.203 9.836-1.371 1.164-5.633 3.36-5.75 3.34l-1.004-.235c8.735-4.082 10.926-6.91 11.906-16.64.23-12.207 6.282-16.918 6.676-17.739Zm.856.82.465.419-2.56 3.3 2.505 1.637-1.004 2.137-.758-.262.547-1.457-2.11-.828-1.722 4.246 3.004.883-.504 2.77-.61-.153.012-1.887-2.23-.425-.668 4.746 3.285.433-.25 2.45-.777-.051-.024-1.461-2.281-.117-.54 4.113 3.24.52-.598 2.921-.688-.152.16-1.93-2.168-.27-1.273 3.946 2.722 1.274-1.351 2.53-.574-.37.75-1.496-2.118-.973-2.062 3.262 2.215 2.023-2.18 2.086-.48-.574 1.125-1.106-1.668-1.53-3.492 2.538 1.769 2.16-.21.274-1.833-.688-.875-1.07-1.055.422-.828-.293c5.153-2.469 8.508-5.336 9.907-9.672.769-2.398 1.003-5.016 1.257-7.652.133-1.371.274-2.75.493-4.102.261-2.21.636-4.066 1.62-6.2 1.192-2.581 2.637-4.401 4.415-6.37ZM47.3 53.099l3.523 1.726-.058 1.137-3.258-1.516Zm.992.035 2.516.324.004.938Zm-11.344-.008 1.469.617 1.238 1.324.938-.558 1.008.351c-3.204 1.504-6.047 3.305-8.27 6.422-2.477 3.477-2.77 8.035-3.102 12.434-.546 6.07-1.695 10.328-6.093 15.238l-.645-.379 2.38-3.453-2.665-1.594 1.223-2.043.613.2-.48 1.218 2.203 1.078 1.707-4.355-3.106-.902.531-2.727.782.067-.215 1.953 2.223.332.652-4.61-2.992-.433.074-2.434.734.067-.008 1.484 2.364.125.199-4.207-2.938-.309.372-2.969.824.083-.2 1.78 2.262.305 1.09-3.843-2.933-1.23 1.593-2.59.711.304-.734 1.434 2.035.922 2.148-3-2.261-2.016 2.238-2.14.543.495-1.215 1.278 1.672 1.433 3.332-2.554-1.613-2.25Zm21.13.21-.106 1.08-3.547 1.839v-1.055Zm18.995.102.781.45-.57.613-.68-.398Zm-20.484.086-2.125 1.122.004-1.122Zm24.992 1.133c.11 0 .211.024.29.07.214.13.183.446-.06.598-.316.203-1.175.188-1.257-.023-.121-.301.547-.656 1.027-.645Zm-33.832.332 3.035 1.524-.012 1.066-2.921-1.492Zm9.91.067-.183 1.39-3.141 1.516-.02-1.203ZM42.5 55.03l1.246.297c-4.625 1.883-9.2 4.617-10.992 9.414-.559 1.434-.941 3.031-1.191 5.074-.122 2.16-.434 4.286-.551 6.082-.239 3.665-1.567 8.625-6.114 13.883l-.433-.312c2.789-3.14 4.242-5.996 5.148-9.008 1.43-4.8.75-10.102 2.274-14.93.93-2.937 2.847-5.562 5.715-7.828 1.992-1.414 4.898-2.672 4.898-2.672Zm2.094.41c.011 0 .02 0 .02.004 1.109 3.48 2.468 9.817 2.468 9.817-2.96-1.328-7.895-1.106-7.895-1.106s-2.765-3.304-3.304-3.578c2.234-2.754 8.285-5.117 8.71-5.137Zm38.176.672c.683-.02.628.938-.235 1.582-.445.332-.648.285-.972.02-.098-.121-.376-.207-.579-.184-.484-.004.477-.922 1.332-1.3.176-.079.329-.114.454-.118Zm-34.668.664 2.707 1.293.023 1.055-2.508-1.262Zm9.191.172-.148 1.16-2.829 1.344.016-1.066Zm26.426.52a.272.272 0 0 1 .234.093c.383.399-.351 1.59-1.183 1.95-.32.136-.516.113-.778-.098-.129-.105-.32-.238-.43-.23-.476.043-.21-.446.172-.473.106-.008.774-.465 1.278-.848.336-.254.55-.383.707-.394Zm-2.871.457c.601-.012.816.449.105.644-.504.145-.789.04-.785-.273.11-.32.414-.356.68-.371Zm-32.38.515 2.403 1.118.004 1.14-2.203-1.07Zm8.61.184-.172 1.078-2.597 1.219.011-.89Zm27.156.54c.164.01.215.179.211.476-.004.496-.36.953-.894 1.172-.395.164-.668.148-.864-.043-.09-.09-.21-.16-.273-.16-.84-.036-.703-.235.102-.54.28-.11.836-.46 1.097-.633.297-.19.496-.28.621-.273Zm-3.07.343c.41 0 .77.27.543.441-.176.133-.84.196-.969.074-.25-.23-.027-.52.426-.515Zm-32.305.66 2.047 1.023-.015 1.086-1.953-1.027Zm7.868.11-.051 1.109-2.36 1.062-.011-1.058Zm25.328.542c.398.028.347.38.027.551-.242.152-.555.074-.68-.11-.285-.5.368-.437.653-.44Zm.797 1.14c.066.122.027.34-.102.411-.176.066-.629-.008-.7-.129-.058-.097-.042-.152.067-.254.188-.133.606-.234.735-.027Zm-33.7-.089 1.746.887-.015 1.062-1.606-.867Zm7.282.05-.09 1.024-2.043.926.031-1Zm-21.336.579c.437.004.773.273.511.73-.16.286-.28.391-.98.84-.285.188-.535.356-.555.375-.02.024-.199.14-.32.215-.629.399-.406-.433.379-1.66.226-.352.625-.508.965-.5Zm21.175.98-.168 1.125-1.824.852.004-1.086Zm-6.851.083 1.469.675.015 1.098-1.332-.652Zm17.7.14a.14.14 0 0 1 .116.055c.121.156.137.828.016 1.207-.207.445-.606-.684-.559-.969.086-.133.282-.285.426-.293Zm-30.977.106c.597-.008 1.027.367.824.921-.235.54-1.582.872-2.192 1.239-.398.18-.492-.016-.367-.332.055-.145.102-.262-.203-.301-.734-.106-.285-.43 1.066-1.258.293-.18.602-.266.872-.27Zm29.55.445c.211 0 .47.113.739.383.46.465.793 1.441.539 1.695-.196-.023-.29.238-.301.348-.031.304-.637-.258-1.211-1.14-.461-.716-.23-1.282.234-1.286Zm-24.82.086c1.816-.004 5.285.351 10.074 3.133.61.355 1.223.746 1.914 1.062 1.817.91 3.317 1.528 5.664 1.938l-.07 1.12c-.023.352.602 2.4.305 3.548-.43-.008.418.34.418.34l.547 1.042s-2.883-.035-4.192-.273c-2.11-.324-5.953-1.984-7.812-3.285-1.93-1.313-4.844-2.406-7.348-2.836l-.031-.961s-.235-3.297-.434-3.746l-.457-1.043c.113.039.598-.035 1.422-.04Zm15.152.77-.144 1.105-1.602.683.004-.945Zm7.965.078c.45 0 1.125.484 1.895 1.449.172.218.304.406.332.539.02.12-.059.187-.188.172-.304-.051-.418-.153-.504.195-.02.086.035.242-.07.215-.543-.149-2.09-1.594-1.992-2.055.074-.348.258-.52.527-.516Zm-14.234.027 1.164.574.047 1.09-1.035-.414Zm-12.524.289c.356-.008.578.121.692.379.27.617-.215.984-1.656 1.258-1.254.27-1.227.289-1.051-.141.117-.281-.27-.316-.485-.39-.367-.13-.066-.169.985-.645.66-.3 1.156-.45 1.515-.461Zm-4.168.277c.036 0 .079.031.141.102 1.813 2.035 1.332 4.992-.977 6.445-.261.16-.273.012-.242-.305l.047-.601c.016-.121 2.656-1.602.719-4.922l.164-.469c.055-.148.09-.242.148-.25Zm29.735.727c.719.008 2.73 1.699 1.87 1.754-.1.008-.07.129-.07.203 0 .078-.003.222-.027.281-.062.145-.297.117-.66-.082-.914-.504-1.121-.664-1.437-.941-.625-.547-.446-1.22.324-1.215Zm-7.102.27-.02.906-1.437.636.012-.82Zm-18.21.593c.964-.027 1.507.86.538 1.324-.386.184-1.66.051-2.25 0-.668-.054-.273-.238-.234-.293.09-.136.164-.16-.184-.351-.277-.27-.433-.336.258-.414.336-.04 1.149-.11 1.434-.196.152-.043.297-.066.437-.07Zm29.433.309c.07 0 .062.105.031.39l-.047.606c-.441.062-2.64 2.562-.875 5.48l-.148.516c-.07.258-.094.293-.32.137-1.333-.852-1.747-5.172 1.019-6.946.18-.11.285-.18.34-.183Zm-5.2.488c.258.008.575.074.934.227.84.355 1.395.64 1.528.832.078.113-.047.21-.22.253-.202.055-.23.133-.175.356 0 .129.035.273-.14.281-.325.012-1.047-.199-1.778-.562-1.238-.618-1.066-1.403-.148-1.387Zm-6.285-.004-.003 1.106-1.18-.508Zm-19.789.887c.125.004.29.023.508.054.266.043.68.082.89.079 1.345-.016 1.9.847.79 1.28-.305.122-.43.106-1.262-.116-.394-.11-.883-.223-1.082-.274-.398-.105-.535-.222-.273-.304.25-.079.27-.235.117-.442-.035-.21.035-.285.312-.277Zm31.262.101c-.2 1.707-.36 3.043-.644 4.715-.207-.074-1.645-3.234.644-4.715Zm-5.664.801c.438.008 1.176.164 1.895.426.625.215.707.273.27.441-.263.102-.231.196-.153.356.117.117.344.355-.012.304-.422.028-1.535-.03-1.871-.09-1.016-.163-1.29-1.007-.453-1.398.066-.031.176-.043.324-.039Zm-26.05.348c.093 0 .265.047.574.136 1.82.536 2.554 1.18 1.664 1.797-.262.18-.664.102-1.418-.289-.774-.402-1.16-.62-1.305-.761-.145-.141-.063-.301.156-.29.301.02.258-.117.235-.351-.016-.164-.028-.242.093-.242Zm4.91.168 1.394.297-3.54 14.023c-1.19.313-1.878.45-2.714.86l2.41-.376-.21 1.004-2.192.371-.05.301 2.51-.41s-.093.957-.183 1.328c2.395-.168 4.758-.773 7.168-.785 0 0 .098-11.074.094-12.281-.004-1.305.012-2.864.012-2.864l2.41 1.258.344 13.961 7.554 1.156a63.193 63.193 0 0 1-.254-1.316c5.598 1.54 11.27 3.809 16.278 8.469-2.344 1.16-4.559 2.308-6.836 3.422l-.332.433c5.773-2.46 14.554-7.586 20.902-13.261l.004 36.914-30.285.011.008-3.453.03-3.086c-.116-1.98.267-4.156-.386-5.82l-.12-1.742c1.874-1.992 2.89-4.508 3.792-7.082 0 0 .898-.317 1.336-.457l.152-.504c-.867.402-2.863 1.082-2.863 1.082.215-.152-4.23-1.895-6.977-2.309-4.535-.68-10.64-.011-15.511 2.192-.239.156-.34.152-.281-.047 1.144-3.781-1.223-7.586-5.395-8.7-.883-.234-1.61-.238-1.61-.238l.075.332c6.824.73 8.398 7.375 5.758 10.453-.692 1.016-.797 1.313.648 1.282 5.844-.024 7.852 5.996 5.176 9.312.008-.027.215.387.215.387 1.668-2.012 2.125-5.844-.809-8.55 2.184-2.227 6.375-5.79 9.988-5.567 1.313.078 2.606 1.55 3.465 2.722 1.82 2.48 2.278 5.942 2.399 7.914.03.52.105.895.105 1.165 0 .793-.164.695-.719.562-.695-.168-1.648-.176-2.351.02-1.137.312-.953.132.058-1.016.598-.676.68-.883.434-.93-.074-.011-.328.219-.66.684-1 1.406-.918.828-.192-1.367.473-1.426.426-1.528-.843-2.418-.422-.297-.938-.582-.985-.672-.238-.469-.34.117-.125.504.207.379-.238.55-1.02.16-1.835-.945-3.038.95-1.402 1.781.387.195.606.035.305-.223-1.004-.863-.3-1.585 1.063-.816.789.441 1.09.3 1.359-.25.145-.223 1.371.59 1.367.902 0 .207-.144.868-.289 1.309-.394 1.246-.504 1.633-.676 2.438-.316 1.464-.308 2.214.02 2.863.734 1.445 2.594 2.129 4.215 1.554.234-.082.683-.152.683-.152l.016 1.059c-3.191 1.101-5.508 4.566-5.402 4.683H47.5c-1.496-2.765-4.145-4.851-7.516-6.011 0 0-.406-.625-.047.515.02.453.54 1.098.961 1.324 1.602.754 3.72 2.094 4.88 4.165l-.805.007c-.977-1.382-2.246-2.316-3.45-3.132-.285-.055.196 2.5 1.352 3.292l-20.785.266c1.437-5.105 1.73-10.773-1.567-18.219 2.758.164 5.204-.37 7.446-1.265l-.2-.532c-2.558 1.118-5.359 1.329-8.16 1.055 2.114 3.633 3.946 11.235 2.106 18.531l-7.63.016.044-39.824s.3.25.39.336a1.8 1.8 0 0 1 .47.793c.085.308.179.328.652.656.226.156.359.297.359.379-.016.09-.02.367.133.539.418.469.344.77.027 1.07-1.469 1.395-2.394 4.336-1.668 7.446 1.738-1.07 3.535-3.875 3.594-3.88l.152 3.84c-.152-.03-1.215.543-1.23 1.297-.48.13-1.063-.093-1.551-.226l.348 1.133c-1.782.648-1.887 2.89.172 3.539 0 0-.192.875-.356 1.343l1.344-.183c.77 2.144 3.758 1.469 3.75-.024 0 0 .91.317 1.254.457l-.332-1.46c3.406-1.551.87-3.602.093-3.575.012-.406.215-.535.407-1.011l-1.375.078c-.246-.754-1.168-1.375-1.203-1.293l-.168-5.496c1.035.836 2.05 1.695 3.425 2.359 1.266.617 1.395.48 1.211-.574-.082-.477-.074-.79-.074-.79.477.102 1.672 1.544 1.613 2.255.434.527.84-.891-.289-2.102 3.024-2.894 5.34-7.703 5.84-10.984l4.012-1.453.047-.48c2.738-1.673 4.172-4.009 4.93-6.653Zm3.331.87.918.384-1.046.472Zm-8.886.204c.18.078.445.242.816.492.781.531 1.238.895 1.25 1.219.008.156-.12.363-.316.457-.477.23-.926.039-1.946-.93-.332-.312-.55-.48-.652-.617-.117-.16-.031-.312.164-.246.828.348.113-.613.684-.375Zm28.234.289c.172.004.305.008.39.023.22.04.286.157.15.27-.216.172-.157.352.058.445.148.067.086.203-.09.297a2.517 2.517 0 0 1-.484.172c-1.258.36-2.184.25-2.426-.293-.274-.621.258-.918 1.797-.914h.605Zm-18.316.313-.016.828-1.308.574.148-.844Zm-11.098.222c.113.008.3.168.574.477 1.254 1.426 1.422 1.699 1.008 2.074-.492.445-1.176.012-1.91-1.234-.098-.168-.219-.383-.29-.461-.269-.293-.148-.383.192-.36.188.016.278-.047.285-.226.004-.188.051-.274.141-.27Zm30.172.817c.23 0 .21.07.11.316-.083.219-.212.285.12.426.055.023.18.164.067.222-.262.165-1.438.653-1.863.782-.829.25-1.332-.371-.844-.985.203-.257 1.601-.718 2.297-.757.043-.004.078-.004.113-.004Zm-30.836.722c.832 1.153.934 1.688.383 2.024-.352.242-1.094-.114-1.262-.856-.129-.566-.183-1.16.02-1.633.304-.714.773.344.859.465Zm11.75-.437.004.898-1.594.727.153-.989Zm3.234.047 1.489.894.086.766-1.543-.785Zm16.649.937c.039 0 .062.016.062.059-.004.105-.03.48.192.515.437.07.336.196-.047.5-.418.336-.8.739-1.305.985-1.293.437-1.695-.825-.469-1.477a5.451 5.451 0 0 1 1.094-.453c.215-.055.387-.133.473-.129Zm-16.613.406 1.726.946.059.945-1.719-.813Zm-3.336.079.004.82-1.692.887.14-.918Zm6.988.69c.476.208 6.61 1.798 8.64 1.27 0 0 1.735 2.313 3.016 3.145-2 2.687-8.758 5.305-8.758 5.305Zm13.816.102c.11 0 .137.102.137.293-.031.559-1.035 2.614-1.824 1.555-.219-.39.004-.797.703-1.281.555-.383.84-.559.984-.567Zm-33.422.22c.149.152.079.62-.246.59-.093-.013-.105-.485-.043-.743.094-.043.235.101.29.152Zm12.633.3-.015 1.043-2.004 1 .218-1.16Zm3.313.156 1.98.98.227 1.157-2.196-1.059Zm-3.324 1.41v1.051l-2.258 1.055.156-1.035Zm3.359.102 2.21 1.168.29 1.098-2.473-1.188ZM16.3 77.852c.367-.004.496.351.219.578-.18.156-.696.12-.743-.004-.23-.207.09-.57.524-.574Zm.676 1.113a.45.45 0 0 1 .148.012c.262.062.426.41.262.609-.297.367-1.075.11-.961-.356.031-.12.316-.25.55-.265Zm27.375.437-.004.942-2.453 1.183.16-1.05Zm3.464.145 2.52 1.258.191 1.054-2.71-1.312Zm-32.043-.074c.125-.008.22.023.274.109.047.074.101.266.277.36.324.175.36.214-.265.46-.262.106-.778.426-.957.54-.551.34-.774.222-.813-.18-.05-.508.957-1.266 1.484-1.29Zm1.895.773a.625.625 0 0 1 .34.07c.21.13.219.387.015.516-.46.27-1.183-.105-.796-.43a.781.781 0 0 1 .441-.156Zm26.676.598.008 1.219-2.739 1.316.188-1.234Zm-28.028.05a.801.801 0 0 1 .497.133.67.67 0 0 0 .468.25c.469.02.32.176-.172.383-.68.281-1.156.64-1.644 1.059-.512.43-.547.523-.715.344-.617-.66.598-2.122 1.566-2.168Zm31.536.118 2.855 1.449.242 1.219-3.101-1.602Zm-29.66.761c.117 0 .226.024.308.09.203.153.086.446-.195.578-.242.114-.637.063-.75-.043-.27-.25.222-.617.636-.625Zm-1.387.61c.175-.016.332.191.472.41.051.059.246.031.387.035.535.004.61.215.09.477-.152.078-.652.43-.988.687-.903.79-1.387.602-1.27-.207.113-.773.844-1.363 1.309-1.402Zm31.039.176 3.152 1.605.305 1.309-3.461-1.73Zm-3.485.011-.02 1.207-2.976 1.438.235-1.223Zm3.528 1.547 3.527 1.985.125 1.285-3.656-1.957Zm-3.535.203v1.184l-3.293 1.527.171-1.12Zm-26.688.7a.532.532 0 0 1 .227.039c.382.164.28.445-.297.734-.594.293-.793.242-.922-.09-.106-.281.535-.676.992-.683Zm36.93.277c6.144 1.316 12.156 4.14 17.98 9.05l-1.222.794s-5.102-5.395-16.473-8.586Zm-6.68.543 1.703.933.004.235-1.71-.133Zm-29.062-.082c.128.004.242.074.851.344 2.442 1.636 3.418 2.62 4.02 4.406.359 1.07.351 1.027-.84.441-1.125-.554-2.668-1.472-3.656-2.656-.176 2.781.16 6.238.16 6.238 1.527.696 1.027 2.504 1.023 2.492 3.938-.976 3.059 3.801.13 2.762.687 3.59-3.774 3.285-3.306.211-3.55-.14-2.91-3.7.036-3.2-.301-1.1.125-1.843 1.21-2.312l-.148-4.695s-2.906 3.813-3.39 3.754c-.286-.04-.708-.477.023-3.828.383-1.746 2.398-3.867 3.527-3.93.2-.012.281-.031.36-.027Zm2.828.043.52.328-.493.805-.539-.364Zm22.648.304-.023.704-1.594.082Zm-17.512 7.891c-.238.008.407.149.809.484 3.75.547 6.027 4.782 4.281 7.832-.21.137.114.805.324.555 1.84-2.383.5-8.254-4.835-8.832a8.843 8.843 0 0 0-.579-.039Zm1.414 1.61c-.304.761-.386.945.387.636 1.367.469 2.832 2.52 2.352 4.574-.153.239.113-.156.293.52.68-1.5.015-4.75-3.032-5.73Zm17.325 3.886c3.836.004 7.636.79 10.652 2.399-1.031.523-4.312 1.246-4.312 1.246-1.836-1.91-2.766-3.817-6.102-2.856-3.492.817-6.645 3.59-8.422 5.43-1.766-.98-2.726-1.219-4.297-1.305-.094-.004-.23.364-.113-.23.45-.637.762-1.356 1.066-2.086 3.301-1.715 7.438-2.598 11.528-2.598Zm11.925 2.485c-.773 2.273-1.77 4.515-3.453 6.484l-.203-.988c1.582-2.223 2.34-4.243 2.68-5.13Zm-1.488.585c.098.145-1.543 3.704-2.347 4.352l-.31-.922c.657-.906 1.634-3.097 1.606-3.117Zm-9.914-.027c-.05.004-.07.043-.07.133-.004.328.367.586 1.043.73.91.192 2.191-.093 2.195-.492 0-.23-.176-.246-.7-.027-.66.277-1.237.223-2.089-.2-.195-.093-.312-.152-.379-.144Zm8.125.594c-.258.863-.637 1.496-1.121 2.156l-.152-.453c.336-.496.554-1.059.84-1.61Zm-.957.277c-.121.301-.262.649-.543.914l-.363-.715Zm-5.777.645c-.617.008-1.23.187-1.285.492-.028.144.21.09 1.363-.04.605-.066.894.267 1.45.235.284-.031.019-.273-.067-.34-.309-.246-.914-.359-1.461-.347Zm-2.64.648c-.063.012.003.156.233.528.126.203.157.609.18.863-.035.633-.031.613.309.25.215-.195.625-.153 1.281.015.422.106.523.145.816-.023.34-.195.422-.098.715-.043.282.055.54-.05.848-.129.379-.094.45-.07.781.004.5.223.426.2.473-.582.043-.773 0-.828-.488-.57-.47.25-.793.363-1.516.129-.785-.254-.898-.192-1.457-.04-.676.188-.98.25-1.516-.054-.355-.2-.59-.36-.66-.348Zm-11 1.133.3.453c2.719.903 4.55 2.957 3.45 6.403l.257.382c1.375-3.472-.168-6.351-4.008-7.238Zm.839 1.473.367.703c2.043.914 1.91 3.422 1.797 3.324l.316.652c.52-1.62-.406-4.02-2.48-4.68Zm8.531 3.765c-.078 0-.133.028-.156.078-.05.125.105.2 1.039.797.8.516 1.422.899 1.371.97-.031.05-.527-.063-.887-.165-.933-.258-2.312.047-3.086.547-.195.117-.523-.016-.804-.082-.114-.031-.364-.059-.489-.031-.582.14-.019.656 1.407 1.324 1.754.824 2.703.902 3.77.41.706-.336.96-.082.187.297-1.356.668-2.649.457-4.781-.903-.985-.628-1.383-.527-.536.075 1.489 1.078 4.36 2.398 6.13.8.066-.019.226-.011.304-.007.367 0 .383-.106.004-.664-.23-.336-.695-.692-.125-1.102.43-.309.398-.457-.121-.602-.137-.035-.121.047-.328-.109-1.246-.93-2.465-1.633-2.899-1.633Zm.535 1.832c.524.016 1.051.391 1.211 1.059.016.059.028.121.04.184l-.45.015c-.363-1.363-1.48-.914-1.594-.117l-.402-.05c.148-.763.672-1.106 1.195-1.09Zm9.243 1.192-.297.043c-.196-.504-1.07-1.18-1.496.039l-.375-.016c.27-1.652 1.898-1.39 2.168-.066Zm-2.278-.696c.121.16-.094.43-.219.551-.117.117-.382.016-.492-.097-.093-.118-.023-.344.14-.418.165-.079.45-.149.571-.036Zm-5.226.036c.125.257-.227.449-.27.359-.074-.023-.164-.45-.121-.477.117 0 .344.036.39.118Zm7.859-.016c.188.012.39.098.43.293 0 .129-.164.27-.352.273-.078.004-.394-.207-.332-.511.067-.106.145-.067.254-.055Zm-10.922.043c.063.094-.062.371-.09.41-.015.02-.414.004-.406-.023.008-.028-.035-.239.063-.391.109-.066.351-.098.433.004Zm7.281.922c.051 0 .118.02.196.066 1.117.676 2.558.98 3.601.504.23-.105.383-.101.383.004 0 .113-.258.344-.738.473-1.07.293-2.836-.102-3.446-.707-.18-.18-.152-.344.004-.34Zm-9.84.672c-.109-.004-.144.054-.12.175.066.399 3.062 1.997 4.316 2.211 1.027.18 1.828.106 2.46-.23 1.532-.813 1.145-1.922-.355-1.094-1.007.559-3.558.293-5.07-.52-.672-.359-1.055-.538-1.23-.542Zm13.512.625c.38-.149.543-.196.625-.133.387.297-.246.758-1.402.937-.922.137-1.473.16-2.523-.558-.813-.559-.43-.824.039-.57 1.242.671 2.164.695 3.261.324Zm-13.254 1.687c2.649.887 5.66 3.004 6.993 5.574l-.82-.007c-.907-1.47-2.7-3.332-5.669-4.649-.261-.2-.398-.558-.504-.918Zm13.934 1.246-.004.801a9.496 9.496 0 0 0-4.066 3.535l-.926-.015c1.07-1.727 2.668-3.348 4.996-4.32Zm-.004 1.223-.004.984c-1.039.555-1.906 1.29-2.52 2.137l-1.097-.004c.887-1.367 2.098-2.457 3.621-3.117Zm-12.156.715c.789.422 2.094 1.543 2.566 2.402l-.422.016c-.43-.504-1.113-1.086-1.672-1.547-.355-.387-.472-.871-.472-.871Zm12.148.672c.016 0 .016.007 0 .023v.781c0 .02-.789.493-1.129.934l-.89-.004c.617-1.02 1.894-1.738 2.02-1.734Zm0 1.297-.004.445h-.562c.039-.05.351-.367.566-.445Zm-10.93.078c.169.082.294.37.294.37l-.149.016Zm0 0" style="stroke:none;fill-rule:nonzero;fill:#131f67;fill-opacity:1"/><path d="M20.61 105.309c1.847.046 5.742-.586 5.68-.524 0 0 12.085 18.492 11.597 18.309-.16.23-15.485.222-15.485.222-.332.004 3.25-6.851-1.793-18.007Zm5.48-13.028c5.89-4.492 12.062-4.527 18.683-5.144l.153-15.27 2.398 1.32.051 13.993c8.746.601 16.29 3.55 22.773 8.715.079.109-9.378 4.77-13.523 6-3.215-2.172-11.7-3.543-17.328-1.872-1.543.457-3.442 1.192-5.29 1.735 1.34-7.371-4.913-8.461-7.112-8.801-.274-.043-.602-.586-.805-.676Zm-7.559 2.383c.106-1.57-.008-3.14-.136-4.746-.032-.367-3.442 4.777-3.633 3.527-.477-3.12 1.207-7.093 3.855-7.582.262-.328 5.508 2.66 5.266 5.242-.078.84-4.676-2.84-4.695-2.62-.11.43.136 6.195.277 6.183 1.324.684 1.035 1.566 1.18 2.297 3.55-.48 3.355 3.144.007 3.031.207 4.281-4.113 2.348-3.261.067-4.352-.192-2.207-3.93-.043-3.11-.13-.945.125-1.93 1.183-2.289Zm4.992-18.168c-.25-.094-9.28-.52-9.28-.52l.472-20.246c4.61-9.746 21.96-5.187 19.2-3.113-8.29 5-9.552 14.121-10.392 23.88Zm16.653-8.32-.274-2.246c-.707-1.399 18.461 6.754 18.676 6.93l.559 2.398c.113 1.05-12.192-4.274-18.961-7.082Zm34.875-3.969c-.285 9.086-1.805 15.238-7.54 22.66-.16.246-1.78.863-1.906 1.074.82 1.192 5.5 2.942 7.66 3.883l11.239-6.164c.129.008-.383-21.59-.383-21.59Zm4.254-9.867c-1.512-.211-5.028-3.567-4.297-4.582.023-.758 4.37 2.156 4.824 2.941-.223-.234-.254-7.12-.324-6.847-.168.082-1.328-.684-1.028-2.122-3.332.68-3.152-3.308-.234-3.144-.379-3.629 4.438-2.297 3.156.133 4.121-.7 3.41 3.558.293 2.867.266 1.613-.457 2.062-1.468 2.383.062.676.34 5.191.34 5.191s3.046-4.297 3.265-3.926c.61 1.305-.504 8.196-4.527 7.106ZM65.184 38.492c-1.375 4.363 2.394 9.348 5.953 9.332.715-.105 2.086.254 1.613.606-5.613 4.187-18.715 5.054-18.719 4.875.137 5.14-.113 10.332-.246 15.468l-2.402-1.332c-.074-4.687-.203-9.48-.317-14.168-8.394-1.007-15.941-3.5-21.902-8.8 3.961-2.7 8.688-4.387 13.23-6.094 5.72 2.738 13.684 4.316 22.79.113ZM61.043 17.77c-.262-.11.906-.907.906-.907s9.75.117 14.59.059c-1.766 6.66-.516 12.625 1.758 18.355-.602-.129-4.61.168-5.586.575-.156.144-11.543-17.922-11.668-18.082Zm0 0" style="stroke:none;fill-rule:nonzero;fill:#e2cf00;fill-opacity:1"/><path d="M38.203 123.066 26.41 104.742l1.77-.707 12.156 19.059Zm-20.98-24.5 1.703-1.613 1.707 1.594-1.785 1.527ZM55.05 88.29l-.239-1.312c6.793 1.53 12.356 4.746 16.352 8.246l-.953.644c.297-.074-9.648-6.945-15.16-7.578Zm-19.73-1.293 2.156-.285-.063 1.102-2.047.425Zm39.765-.871-1.172-.871.844-.922 1.14.828Zm-39.898-8.879c2.914-1.27 5.19-6.398 4.906-6.738l1.59.344-3.672 14.05-2.766.457c-.012-2.687-.062-5.425-.059-8.113Zm19.19 7.95c-.987-2.958-2.937-9.65-2.937-9.65.075.22 6.329 1.856 8.559 1.263.953 1.199 2 2.254 3.105 3.222-2.316 2.082-5.19 3.824-8.726 5.164ZM80.595 74.43l-1.102-.88.988-1.112 1.211.847Zm-14.395-.59c-.894-1.485-.957-3.16.707-4.817Zm-34.222-2.875c-.07-.156.378-3.672.484-3.828.184-.274.547.71.719 1.465.215.945-.942 2.921-1.203 2.363Zm25.168-1.094s2.425-10.332 3.472-14.383l2.957-.687-.402 8.484c-2.426 2-4.445 6.762-4.445 6.762Zm-38.926-1.719-1.168-1.004.988-.996 1.031.97Zm20.949-4.027-3.215-3.46c1.992-2.548 5.297-4.024 8.797-5.18l2.371 9.706c-2.68-.742-5.57-1.546-7.953-1.066ZM22.75 55.469l.824-.942 1.078.782-.82 1.043Zm38.676-2.914 2.066-.274-.156 1.305-2.188.324ZM27.75 45.21l1.273-.727c4.47 3.692 9.403 6.239 14.786 7.688l.363 1.598c-6.07-1.723-11.805-4.336-16.422-8.56Zm52.215-1.473-1.656-1.504 1.492-1.523 1.77 1.406c-.587.813-1.606 1.621-1.606 1.621Zm-9.168-7.312L58.41 16.973l1.79-.012 12.187 18.738Zm0 0" style="stroke:none;fill-rule:nonzero;fill:#d40000;fill-opacity:1"/><path d="m58.297 16.645-2.961.011 16.8 31.11s-.456.07-1.347-.145c-4.035-.976-6.52-4.902-5.61-8.75.094-.3.118-.555.118-.555-10.402 4.332-16.84 2.739-22.848-.023l-2.558.906c.168-1.426 2.082-6.773 4.945-9.293l-.004-2.695-.07-1.273-.227-2.313c-4.258 3.691-9.226 9.504-9.847 17.754 0 0-3.88 1.832-7.188 3.863.184-.023 5.156 5.598 17.098 8.754l-.524-1.797c1.774.461 4.297.824 6.809 1.117l.336 14.086 2.851 1.555.098-15.594c.09.063 4.55-.148 6.953-.675l-.34 1.503 2.375-.43v1.098l-2.601.567L56.848 70l2.16.445c.629-2.937 2.226-5.312 4.539-6.77l-.024-.558c1.48-.98 4.563-1.758 4.582-1.742 1.051-4.727 3.497-8 6.098-11.117l-1.238-1.551 4.75-1.602-6.594-10.328c2.54-1.613 7.567-1.011 7.567-1.011-2.157-5.36-4.051-10.891-1.922-19l-18.34.011Zm6.016.335c-.004 1.356-1.926 1.215-2.16-.007Zm11.78-.043c-1.163 6.211-.777 12.266 1.927 18.012 0 0-.395.024-.442.012-.039-.004.047-.309.024-.39-.051-.216-.442-.114-.766.09-.145.085-.309.187-.41.234-.336.156-2.035.144-2.035.144.554-.348 1.332-1.32.882-1.887-.105-.12-.168-.07-.265.094-.485.79-.723.914-1.367.906-1.012-.011-1.739-.59-1.657-1.457.079-.847 1.434-1.293 1.235-.472-.055.73.73.87.879.144.054-.273.007-.148.074-.469 1.574-.77.707-2.335-.766-2.007-.344.086-.386.113-.633 0-.453-.22-.832-.149-1 .152-.152.266.079.48.415.48.347 0 .417.157.414.348 0 .45-.84.664-1.399.402-1.473-.687-.926-2.484.781-2.48.52.004.739.031.758-.07.063-.29-.73-.793-1.176-.72-.379.071-.609.161-.41-.304.121-.48.121-.695.016-1.058-.274-.512-.266-.25-.438.168-.562.859-1.41 1.05-2.14.578-.676-.434-.656-1.262-.012-1.856.45-.41.926-.129.66.328-.113.192-.023.426.176.473.402.094.656-.125.656-.574-.008-.25-.082-.305.403-.559 1.257-.664.316-2.469-1.102-1.89-.313.128-.387.253-.527.191-.594-.516-1.446.137-.942.484.219.098.485.133.555.141.121.063.082.227-.098.426-.586.64-1.922.324-2.238-.578-.363-1.043.793-2.137 1.68-1.532.265.18.492.2.492-.066 0-.414-.567-.89-1.29-.844-.734.047-.652.137-.253-.476.297-.543.258-1.075 0-1.395-.2-.246-.402-.297-.383-.035.16.809-.863 1.574-1.707 1.238-.812-.336-1.215-1.172-.816-1.894.367-.672 1.257-.739 1.109-.024-.066.453.309.696.672.426.133-.098.164-.183.172-.48.011-.325-.133-.422.094-.614.601-.074.64-1.25.546-1.297Zm-10.757.04c.379 0 .7.12.7.472s-.31.633-.692.633c-.38 0-.692-.281-.692-.633 0-.351.301-.472.684-.472Zm-6.766.046h1.535l12.118 18.594-1.434.645Zm2.52.649c.734.387 1.414.707 2.336.789-.27.504-.516 1.055-.563 1.996Zm2.469 3.746c.75.246 1.398.621 2.629.242-.657.535-1.028 1.176-1.31 1.852Zm6.304 2.246c.352 0 .64.266.64.59 0 .324-.288.586-.64.586-.351 0-.64-.262-.64-.586 0-.324.289-.59.64-.59Zm-3.925 1.469c.539.183 1.105.305 1.734.277-.309.395-.414.992-.438 1.68Zm1.855 2.93c.5.226 1.094.554 2.14.449-.695 1.086-.542 1.386-.617 1.86Zm6.074 2.16c.367 0 .668.277.668.617 0 .34-.3.617-.668.617-.37 0-.672-.277-.672-.617 0-.34.301-.617.672-.617Zm-3.765 1.382c.457.239 1.363.375 1.37.313-.054-.04-.257.8-.292 1.332Zm2.109 3.168c.652.356 1.371.32 1.793.364-.45.082-.879.187-1.363.363Zm7.68 3.48c-1.57.09-1.934 1.2-1.746 2.321-1.196-.176-2.536.867-2.16 2.145.35 1.21 1.574 1.254 2.417 1.172-.062.293-.242 1.285 1.059 2.12l.172 6.286s-.574-.484-.945-.828c-1.633-1.496-4.083-2.578-3.93-1.735.023.125.074.438.113.7.262 1.421 2.336 2.96 3.75 3.734.508.258.82.535.82.535-2.648 2.606-4.07 5.387-4.425 8.149a424.046 424.046 0 0 0-.856 7.226c-1.082 11.809-6.586 14.781-6.847 15.36l-.102 1.574-1.54-.106-1.769 1.41c5.801 2.762 9.184 6.09 9.137 6.153 4.629-2.793 8.629-5.895 12.402-9.102l-.074-26.297s-.312.106-.394.106c-.285 0-.325.117-.422.62-.055.27-.227.517-.364.692-.261.34-.167.168.157.29.746.277-.219 1.53-1.278 1.683-.757.11-1.183.238-1.312.402-1.602 1.29-3.195 1.492-4.402 1.02-.59-.235-1.239-.574-1.454-1.145-.496-1.289.536-3.148 1.141-4.222 1.11-1.973 2.953-3.45 2.953-3.45l-.3-.3s.359.004.43-.02c1.589-.531 1.687-.539 1.98-.93.293-.386 1.03-1.496 1.183-1.859.817-1.957.93-2.086.926-3.371 0-1.04-.074-1.734-.293-1.79-1.254.884-2.52 2.95-3.262 4.169-.254-1.805-.332-4.953-.332-4.953.266-.27 1.774-.121 1.438-2.38 1.324.552 2.722-.292 2.664-1.464-.09-1.832-1.621-1.777-2.867-1.547.593-1.105-.536-2.437-1.668-2.367Zm-.024.153c1.637.047 1.961 1.711.957 2.657 0 0-.652-.461-.996-.723-.328.234-.422.441-.781.683a1.623 1.623 0 0 1-.688-1.296c.02-.774.868-1.34 1.508-1.32Zm-37.402.051c6.625 3.41 14.93 3.652 22.535.18l-.094.578-.832.43.473.796.258-.117.007.528c-6.269 3.117-16.765 3.761-24.984-1.414l.715-.305s.16.101.316.191c.301.172.793.446 1.121.578l.497-.66s-.762-.426-.684-.453Zm.586 1.047-.38.793.95.465.36-.797Zm-3.606.09c10.203 5.894 19.696 4.14 25.399 1.726l.074.63c-7.36 2.882-17.04 3.655-26.25-2.044Zm24.012.379-.906.332.36.765.933-.367Zm-25.23.14c8.289 4.922 17.18 5.887 26.761 2.282l.367.94c-9.332 3.45-19.18 3.052-28.18-2.812Zm6.37.028-.37.824 1.027.36.297-.81Zm17.43.343-.898.266.281.79.93-.29Zm-15.859.223-.223.832 1.047.27.184-.832Zm37.96 1.367c.145 1.41-2.128 2.09-2.976.774l.75-.836-.672-.575c.91-1.324 2.766-.687 2.899.637Zm-47.179-1.32 2.473 1.566-1.797 2.57-2.664-1.648Zm42.86.07 1.57 1.254-1.442 1.555-1.472-1.367Zm-.977.426-.883.945.957.938c-1.133 1.11-2.824.422-2.808-.934.011-1.035 1.734-2.047 2.734-.949Zm-18.305-.363-.945.261.215.762.976-.234Zm-12.726.242-.176.816 1.082.215.184-.816Zm11.168.137-1.004.199.172.816 1.004-.195Zm20.945.191-.828.75.828.79.832-.79Zm-30.375.023-.129.829 1.137.14.086-.836Zm7.645.114-1.024.11.106.808 1.058-.121Zm-6.028.097-.015.848.996.07.004-.836Zm4.39.079-1 .035.005.816 1.023-.059Zm-18.237.007c-.59 0-1.063.438-1.063.98 0 .544.473.981 1.063.981s1.062-.437 1.062-.98c0-.543-.473-.98-1.062-.98Zm16.562.028-.984.008.004.832 1.011.003Zm26.043.004.43.398-.43.39-.441-.39Zm-42.61.312c.387 0 .7.29.7.645 0 .355-.313.644-.7.644-.382 0-.699-.289-.699-.644 0-.356.317-.645.7-.645Zm-3.78.05 1.413 1.06c-.449.796-1.874 2.472-1.874 2.472l-2.618-1.933 1.367-.711a.894.894 0 0 0-.113.441c-.004.531.469.96 1.047.96.574 0 1.047-.429 1.047-.96 0-.512-.434-.926-.98-.96Zm-.794.68c.387 0 .704.294.704.649 0 .355-.317.645-.704.645-.386 0-.703-.29-.703-.645 0-.355.317-.648.703-.648Zm48.102.305s.387.137.48.27c.758 1.074-.03 2.347-1.304 2.324-1.485-.031-1.875-1.746-.856-2.445l.832.722Zm-38.637.438 2.93 1.035-1.113 2.934-3.203-1.211Zm-12.043.304c11.953 9.918 28.93 10.63 41.274 4.047l.75-.011.398.375C58.516 55.965 41.04 54.3 29.238 44.445Zm32.91.594.946 2.899-3.242.785-.723-2.938Zm-34.136.106c3.629 3.218 8.758 6.039 14.781 7.636l.148 1.188c-6.394-1.766-11.222-4.129-15.93-8.227Zm14.043.043c-.578 0-1.047.433-1.047.964 0 .532.469.961 1.047.961s1.047-.43 1.047-.96c0-.532-.47-.965-1.047-.965Zm-5.211.218 3.023 1.47-1.508 2.776-3.207-1.585Zm5.199.102c.387 0 .703.289.703.644 0 .356-.316.645-.703.645-.387 0-.703-.29-.703-.645 0-.355.316-.644.703-.644Zm5.004.394 2.902.387-.133 2.965-3.386-.375c.129-1.043.617-2.977.617-2.977Zm14.023.07c-.578 0-1.047.434-1.047.966 0 .53.47.96 1.047.96.578 0 1.047-.43 1.047-.96 0-.532-.468-.965-1.047-.965Zm-.011.321c.386 0 .703.29.703.645 0 .359-.317.644-.703.644-.387 0-.703-.285-.703-.644 0-.356.316-.645.703-.645Zm-23.61.04c-.578 0-1.047.433-1.047.964 0 .531.47.96 1.047.96.578 0 1.047-.429 1.047-.96 0-.531-.469-.965-1.047-.965Zm18.567.003.414 2.98-3.172.145-.188-2.973Zm22.722.266h.453c.04 2.562.262 5.53.582 7.722.047.328.07.426.036.485-.313.508-.672-.133-.817-1.59-.039-.402-.086-.988-.14-1.371-.164-1.16-.114-5.246-.114-5.246Zm-53.59.047c-4.769 2.738-12.699 9.28-12.652 9.433l.035 25.14.617.028.516-.926c-.793-.183-.574-1.554.945-1.832.262-.047 1.051-.289 1.247-.425 1.152-.81 3.027-1.29 4.34-.97 1.917.45 2.308 1.75 1.386 4.005-.726 1.777-2.168 4.054-3.52 4.703l-.347.16s.312.262.43.332c3.722-1.984 5.605-9.094 5.503-13.52.153-4.53 1-9.078 2.985-12.386 3.285-5.465 7.629-7.664 7.605-7.684 0 0-5.855-3.273-9.09-6.058Zm12.29.003c.386 0 .703.29.703.645 0 .355-.317.645-.703.645-.387 0-.704-.29-.704-.645 0-.355.317-.645.704-.645Zm28.96.102 1.133 2.766-3.144 1.183-1.133-2.906Zm-18.078.016c-.578 0-1.047.43-1.047.96 0 .536.47.965 1.047.965.578 0 1.047-.43 1.047-.964 0-.532-.468-.961-1.047-.961Zm6.391.238c-.578 0-1.047.434-1.047.965 0 .531.469.96 1.047.96s1.047-.429 1.047-.96c0-.531-.469-.965-1.047-.965Zm-6.402.078c.386 0 .703.29.703.645 0 .359-.317.644-.703.644-.387 0-.703-.285-.703-.644 0-.356.316-.645.703-.645Zm6.39.238c.387 0 .7.29.7.649 0 .355-.313.644-.7.644-.39 0-.703-.289-.703-.644 0-.36.313-.649.703-.649Zm10.688.332c-.578 0-1.047.43-1.047.961 0 .535.469.965 1.047.965s1.047-.43 1.047-.965c0-.53-.47-.96-1.047-.96Zm-.012.317c.387 0 .7.289.7.644 0 .36-.313.645-.7.645-.39 0-.703-.285-.703-.645 0-.355.312-.644.703-.644Zm-22.2.047 3.141.742-.73 3.031-3.543-.867Zm39.731-.078c.512 1.484-.43 3.382-.476 3.507-.57 1.489-1.258 2.707-1.508 2.778-.211.074-.309.027-.305-.157 0-.28.7-2.187 1.254-3.418.133-.3.445-1.207.445-1.359.004-.23-.238.145-.5.715-.507 1.148-1.242 2.375-1.402 3.484-.113.91-.305.782-.441-.3-.188-1.5.168-2.274 2-4.364.437-.5.89-1.011.933-.886Zm-23.074.773.91 2.969-3.707.582-.578-3.012Zm-15.52.297c-.578 0-1.046.433-1.046.965 0 .53.468.96 1.047.96.578 0 1.046-.43 1.046-.96 0-.532-.468-.965-1.046-.965Zm5.54.195 3.359.176.031 3.086-3.644-.145Zm-5.555.125c.387 0 .703.29.703.645 0 .355-.316.644-.703.644-.387 0-.7-.289-.7-.644 0-.356.313-.645.7-.645Zm14.094.274c-.578 0-1.047.43-1.047.96 0 .536.469.965 1.047.965s1.047-.43 1.047-.964c0-.532-.47-.961-1.047-.961Zm-6.961.246c-.578 0-1.047.433-1.047.965 0 .53.469.96 1.047.96s1.047-.43 1.047-.96c0-.532-.47-.965-1.047-.965Zm6.949.07c.387 0 .703.29.703.645 0 .359-.316.644-.703.644-.387 0-.703-.285-.703-.644 0-.356.316-.645.703-.645Zm-6.961.246c.387 0 .703.293.703.649 0 .355-.316.644-.703.644-.387 0-.703-.289-.703-.644 0-.356.316-.649.703-.649Zm22.898.188c.055-.004.13.007.176.007.75-.007 3.281 1.664 3.93 2.676.535.895.258 1.25-.36.45-.855-.876-2.433-2.172-2.632-2.176-.215 0 .082.285 1.086 1.187.996.89 2.047 2.059 2.047 2.266 0 .136-.2.12-.485-.043-.62-.352-1.16-.707-1.437-.946-.164-.144-.485-.41-.707-.593-.93-.75-1.989-2.477-1.692-2.809.016-.016.043-.02.074-.02Zm-46.855.246c.648-.02 1.379.36 1.406 1.054.024.489.059.528.54.536.46.007 1.784.152 1.784.152l.008 1.371s-.636-.004-1.375-.035c-1.258-.055-1.254-.055-1.414.453-.062.207-.152.305-.402.457-1.129.684-2.219-.555-1.52-1.727.243-.398.258-.535.09-.777-.336-.7.113-1.45.883-1.484Zm.277.699a.641.641 0 0 0-.433.184c-.184.171-.188.656 0 .937.176.27.172.34-.035.52-.364.312-.375.933-.02 1.167.324.211.668-.07.672-.5 0-.472.36-.464.36-.464l2.359.039.008-.356-1.711-.078c-.239 0-.489-.023-.672-.137-.196-.125-.418-.34-.207-.601.3-.367.035-.711-.32-.711Zm-5.117.812 1.117 1.754 1.305.043.117 1.067 1.586.941-1.625.875-.082 1.074-1.23.145-1.145 1.316-1.098-1.316-1.207.008-.015-1.102-1.664-.988 1.82-.942-.02-1.257 1.29-.079Zm39.563.797.054 1.059-1.832.3.239-1.077ZM51.352 53.43l2.468.07-.14 14.867-.578-.004-.012-.578-.79.024-.804-.45Zm-27.817.379-1.453 1.687 1.758 1.414 1.547-1.652Zm28.559.226v.684h1.035v-.684Zm-28.528.582 1.02.692-.777.945-.985-.785Zm39.586.39-.035 8.138c-3.394 2.453-4.449 6.77-4.449 6.77l-1.383-.075 3.508-14.332Zm-18.402.18c-3.055 1.34-6.133 2.352-9.164 5.543 1.172.973 2.414 1.965 3.516 3.622 2.523-.344 5.328.07 8.39 1.18Zm7.344.184v.707h1.035v-.707Zm-34.34 1.02c.074.218.098.449.098.449 2.242-.172 1.671 2.222.242 2.305-.168.02.14.421.472.55.848.328 1.457.117 2.012-.562.43-.524.453-.602.453-.602l1.383.676s.04-.02-.203.566c-.445 1.063.203 2.364.703 1.414.27-.503 1.05-.792 1.594-.585.637.246.855 1.289.41 1.949-.133.195-.137.238-.055.422.125.277.2.992.07 1.222-.167.297-.363.364-.745.121-.52-.332-.813-.472-1.72-.703-1.593-.277-1.905-.793-2.542-2-1.887.52-4.711-.57-4.336-3.148.172-.57.219-1.664-.094-1.887-.621-.441.059-1.07.988-1.172.762-.07 1.13.594 1.27.985Zm26.707-.746 2.453 9.468c-2.695-.91-5.34-1.617-7.68-1.09-1.07-1.574-1.984-2.351-3.175-3.375 2.316-2.57 5.261-4.011 8.402-5.003Zm-27.785.464c-.156-.004-.336.063-.524.215 0 0 .164.125.254.301.145.277.149.277-.015.89-.75 2.47 1.027 4.102 3.554 3.387.621-.175.598-.156.774.516.297 1.102 1.144 1.672 2.828 1.883.105.011.277.043.414.12.742.434.437-.144.234-.366-.144-.18-.406-.352-.406-.352s.223-.137.332-.187c.473-.235.652-1.141.258-1.336-.356-.18-.965.09-.969.425-.004.618-.848.684-1.586.172-.953-.66-.11-2.316-.105-2.316l-.535-.215c.07.059-1.125 1.625-2.602 1.078-1.031-.383-1.758-1.48-1.277-1.793.347-.086.765.09 1.027-.097.527-.38.102-1.047-.648-1.024-.16.004-.52.07-.52.07.043-.312.129-.53.086-.832-.043-.296-.27-.535-.574-.539Zm35.426.72v.581l1.027.008v-.582Zm-.008 1.202v.602h1.035v-.602Zm0 1.293v.617h1.035v-.617Zm0 1.211v.649h1.035v-.649Zm0 1.211v.606h1.035v-.606Zm0 1.234v.614h1.035v-.614Zm-33.688.602.871 1.355 1.04.043.038.93 1.762 1.242-1.539 1.012-.113 1.008-1.219.035-.992 1.535-1.215-1.347-.977-.145-.113-1.227-1.508-1.039 1.418-1.039.114-1.09 1.152.094Zm57.336.648c.094 0 .195.024.309.075.367.172.48.191 1.433.234 1.102.05 1.493.145 2.04.48.328.204.347.2.699-.015 1.55-.945 3.32-.086 3.449 1.676.031.46.082.648.281 1.035.137.27.274.48.195.652-.25.528-1.441.559-2.093-.219a.515.515 0 0 0-.395-.168c-.324.11-1.148-.488-1.14-.515-.079.418-.114.75-.196 1.355l-1.445-.02s-.031-.245-.102-1.097c-.074-.976-.34-1.262-.68-.734-.581.91-2.136.508-2.226-.574-.031-.368-.055-.415-.27-.57-.734-.516-.519-1.606.141-1.595Zm-23.648.051v.543h1.035v-.543Zm23.812.582c-.285.02-.12.489.352.739.27.14.27.136.234.57-.062.781.758 1.164 1.121.523.063-.113.09-.254.063-.347-.153-.567 1.183-.414 1.504.175.074.133.156.493.195.856.04.344.047.742.047.742h.43s-.008-.238.02-.465c.105-.972.57-1.586 1.198-1.582.27 0 .278.043.09.364-.316.542-.012.933.73.937.473.004.47.004.645.313.192.34.34.445.52.382.125-.043.129.024-.04-1.132-.245-1.72-1.331-2.18-2.831-1.208-.426.278-.516.266-.895-.066-.562-.504-.922-.617-2.023-.656-.528-.016-1.043-.067-1.153-.106a.5.5 0 0 0-.207-.039Zm-35.594.492c-.246.004-.53.051-.777.07.274 1.329.403 2.657.528 3.985 1.261-.2 2.898-.012 5.058.914 1.324.57 2.941 1.54 4.637 2.637 1.836 1.187 3.988 1.887 5.82 2.254 2.23.445 4.024.406 3.973.308-.098.016-.805-3.257-.711-3.957-3.086-.261-6.067-1.312-8.348-2.738-3.015-1.89-6.5-3.531-10.18-3.473Zm11.782.114v.55h1.035v-.55Zm-34 .105-1.64 1.574 1.784 1.555 1.512-1.586Zm-.047.715.93.82-.75.875-1.047-.828Zm23.113.129c.219.004.434.144 1.156.516.606.386 1.09.625.91.023.141-.176.813.39 1.602.746.953.703.957.535 1.082.184.13-.254.305-.082 1.067.57 1 .852.91.856 1.109.64.23-.398.305-.394 1.121.47.848.87 1.027 1.058 1.211.683.277-.191.422-.004 1.574.992.567.52.7.438.805.086.11-.36.14-.277 1.098.422 1.105.813 1.214.875 1.261.59.07-.445.414-.29 1.555.465.691.457.95.582 1.098.468.152-.246-.375-.714.738-.27l.308 1.485-.386-.101c-.239-.059-.758-.223-.559.242.11.266-.168.234-1.035-.238-1.238-.68-1.465-.836-1.559-.696-.164.508-.14.54-.976-.062-.973-.68-1.168-.867-1.305-.633-.015.512-.289.406-1.195-.313-.766-.617-.93-.94-1.274-.468-.093.164-.187.125-.316.039-.445-.305-1.34-1.176-1.594-1.426-.199-.2-.312-.137-.476.031-.153.153-.164.106-.66-.312-1.18-.996-1.399-1.246-1.563-1.11-.137.23-.008.551-.914-.109-1.14-.754-1.633-1.09-1.555-.594-.195.223-.058.266-1.199-.316-1.082-.55-1.219-.715-1.375-.527-.11.3-.473.19-.473.175l-.218-1.515.39.004s.375-.141.547-.141Zm-8.687.129c-.086.234-.684 1.582-.692 5.02.07.081 1.48-1.243 1.551-2.473.063-1.168-.855-2.551-.86-2.547Zm19.617.094v.629h1.035v-.63Zm-19.543.496c1.316 1.922-.133 3.738-.496 3.863 0-1.445.23-2.8.496-3.863Zm34.562 1.617c-2.164 1.254-1.812 4.656-.75 5.527.079 0 .762-3.672.75-5.527Zm-.296.418-.583 4.375c-.757-.774-.89-3.074.582-4.375Zm13.656.738 1.144 1.324 1.016.07.226.958 1.485 1.11-1.488.929-.13 1.058-1.105.106-1.094 1.582-1.07-1.55-1.027-.102-.031-1.02-1.614-1.094 1.54-.851.03-1.153 1.204.004Zm-40.508.414c-.727 3.184-2.465 5.36-4.91 6.824l.011.32-4.124 1.524c-.903 3.883-2.528 7.668-5.934 11.223l.95 1.773-4.61 1.461 6.597 10.414c.454 0-3.195 1.59-7.601 1.176 2.789 6.285 3.363 12.797 1.82 18.496l21.59-.086-16.5-29.812-.27-.485c-.23-.39 8.77 1.164 6.86 8.852-.028.176.039.2.148.125 1.75-1.383 13.371-5.223 22.653-.152l2.757-1.055c-1.312 4.23-2.804 7.14-5.32 9.691l.426 6.02c4.45-3.356 9.277-9.516 9.926-17.7 2.004-.898 3.746-1.921 5.613-2.882l.25.074 1.207-.668c-3.875-3.906-11.79-7.637-16.86-8.617l.301 1.32c-2.8-.691-4.89-.84-7.07-1.055l-.332-14.007-2.816-1.532-.09 15.454c-2.106.023-6.953.789-6.953.789l.218-1.32-2.218.421-.04-1.289 2.508-.664 3.637-14.191Zm.305.317 1.156.214-3.598 13.918s-2.02.512-2.144.442c-.16-2.61-.223-7.93-.223-7.93 3.555-2.726 4.11-4.656 4.809-6.644Zm-24.707 1.02c.543-.005 1.125.359 1.164.683.093.203.168.289.316.308.906.118.938.336.961.82-.125.926.547.15.734-.769.024-.098.012-.797.012-.797l1.11-.011s.039.734.054.851c.098.707.426 1.285.656.906.782-1.293 2.57-.632 2.29.614-.07.293-.067.312.152.539.355.363.488.75.37 1.086-.112.332-.366.379-.901.183-.254-.094-.559-.129-1.38-.152-1.16-.031-1.23-.05-1.683-.453l-.285-.254-.488.265c-.82.446-1.563.461-2.426.051-.563-.265-.89-.898-.98-1.89-.016-.528-.176-.91-.532-1.04-.191-.163.024-.496.348-.796a.97.97 0 0 1 .508-.145Zm64.816.151-1.527 1.754 1.812 1.496 1.692-1.832Zm-35.379.25 2.117 1.118.27 13.808-2.39-.062Zm-29.379.196c-.16.012-.058.25.059.613.105.324.133.527.097.75-.222 1.516 1.66 2.285 3.02 1.234.363-.378.422-.355.727.055.37.43.914.57 2.054.508.52-.031.863.227 1.09.055.16-.11.004-.395-.312-.563-.192-.105-.2-.12-.16-.476.097-.895-.708-1.133-1.274-.375-.473.625-1.184.21-1.41-.82-.137-.794-.246-.782-.348-.09-.11.84-1.312 1.753-1.793 1.34-.133-.122-.133-.094.004-.516.172-.54.035-.743-.61-.883-.105-.024-.226-.106-.265-.18-.34-.484-.324-.652-.879-.652Zm64.91.32.97.77-.845.918-1.03-.73Zm-34.867.492v.653h.906v-.653Zm0 1.313v.687h.906v-.687Zm5.45.793c1.015 3.465 2.035 6.93 3.054 10.394.965-.355 6.535-2.629 9.164-5.543-.101.004-2.39-2.054-3.191-3.39-2.625.398-5.645-.11-9.028-1.461Zm-5.45.41v.64h.906v-.64Zm6.02.176c2.394.656 5.465 1.562 8.289 1.101.726 1.207 1.781 2.2 2.972 3.114-2.14 2.14-5.23 3.773-8.43 5.03Zm22.73.25c.121 0 .242.043.36.136.378.313.671.418 1.445.536 1.25.187 2.2.902 2.469 1.859.113.402.175.426.796.281 2.356-.547 4.168 1.25 3.61 3.649-.195.84-.258.937.015 1.27.598.593.73.6.075 1.124-.598.492-1.782.254-2.032-.547-.238-.437-.234-.468-.632-.527-1.536-.227-1.47-2.184-.024-2.41.121-.016.211.004.27-.02.414-.172-.446-1.066-1.157-.93-.867.169-1.3.684-1.644 1.489l-1.371-.719c.344-.656.597-1.5.297-2.02-.239-.44-.547-.456-.637-.035-.223.989-1.559 1.286-2.438.48-.488-.452-.546-.937-.187-1.589.234-.422.242-.453.14-.629-.343-.62.122-1.402.645-1.398Zm-28.75.804v.668l.906-.004v-.664Zm28.918.055c-.277.004-.277.254-.02.555.231.215.274.312-.042.496-.395.34-.48.848-.207 1.238.41.582 1.359.258 1.25-.43-.075-.48.336-.695.988-.515.953.262 1.402 1.242 1.031 2.226-.07.188-.21.621-.21.621l.28.157s.332-.492.461-.64c1.082-1.224 3.633-.602 3.348.925-.043.48-.039.547-.61.394-.374-.175-.738.196-.73.657.02.422.414.754.961.687.434-.074.543-.058.512.477.043.375.195.62.46.746.645.246.973-.09.462-.586-.313-.3-.297-.766-.098-1.203.234-.524.11-1.668-.25-2.317-.516-.93-1.969-1.32-3.184-.855-.554.273-.613.336-.668-.145-.304-1.187-1.277-2.086-2.488-2.164-.465-.03-.949-.265-1.246-.324ZM45.66 78.086v.617h.906v-.617Zm0 1.207v.68h.906v-.68Zm0 1.324v.684s.496-.016.906 0v-.684Zm29.547 1.094.988 1.348 1.098.066.129 1.09 1.664.953-1.441.832-.012 1.055-1.375.105-1.215 1.485-1.031-1.31-1.035.005-.243-1.168-1.832-.856 1.88-.988-.055-1.226 1.277-.008Zm-29.547.16v.7h.906v-.7Zm0 1.277v.692h.906v-.692Zm28.988.516-1.418 1.738 1.915 1.457 1.52-1.761Zm-28.988.695v.758h.906v-.758Zm29.137.09.984.703-.703.825-.98-.688ZM45.66 85.758v.633h.906v-.633Zm-26.926.078c-1.746.008-3.394 2.61-3.789 3.84-.468 1.578-.535 4.433-.093 4.515 1.562-1.039 2.304-2.793 3.48-4.105.18 1.52.152 4.45.152 4.45s-.695.335-1.07.866c-.27.446-.355.973-.125 1.465-.871-.258-2.445.035-2.535 1.512.059 2.082 2.527 1.789 2.535 1.758-.055-.012-.484 2.215 1.703 2.453.785.082 2.168-.445 1.758-2.469 1.383.211 2.574-.492 2.59-1.715.015-.84-.676-1.562-1.867-1.566-.25 0-.774.101-.774.101.016-.12.477-1.421-1.129-2.367l-.25-6.023s.555.554.801.765c1.067.903 1.762 1.36 2.992 1.957 1.196.579 1.051.438.844-.668-.566-1.66-1.75-2.91-4.25-4.48a1.83 1.83 0 0 0-.973-.29Zm.172.129.352 8.52h-.52l-.445-8.512Zm51.328.281c.047 0 .094 0 .141.004 1.129.09 1.418 1.25.914 1.766-.203.207-.273.25-.168.375.484.566.215 1.457-.266 1.593-1.523.438-1.753-.332-1.75-1.234l-2.351-.082.016-1.258 2.593.047c-.195-.574.18-1.184.871-1.21Zm-52.418.016h.028c.246.02-.008.617-.688 1.535-.457.617-1.097 1.707-1.289 2.144-.418.965-.699 2.692-.422 2.375.254-.722.282-1.023.496-1.543.29-.675 1.625-2.898 1.891-3.12.227-.184.285-.071.281.554-.015 1.41-.738 2.89-2.468 4.629-.29.289-.672.605-.7.605-.168-.004-.164-.32-.16-.992.012-2.66 1.086-5.039 2.735-6.058.128-.082.226-.125.296-.13Zm1.75.125c.762.203 2.122 1.324 2.684 1.898.648.649 1.52 2.438 1.367 2.711-.05.121-.16.102-.539-.094-2.414-1.254-4.144-2.797-3.691-3.293.125-.14.644.149 1.34.743.472.382.957.777 1.386 1.168.68.613.832.703.422.02-.367-.614-1.406-1.645-2.664-2.52-.512-.356-.629-.641-.305-.633Zm50.817.355c-.031.004-.063.008-.086.016-.473.183-.281.75-.324 1.187l-2.614-.086-.015.336 2.449.121c.043.34-.148 1.075.168 1.2.684.261 1.059-.551.477-1.04-.208-.171-.43-.246.144-.484.379-.3.438-.883.113-1.14a.516.516 0 0 0-.312-.11Zm-33.031.102-.133.89-1.512.352-.039-.953Zm17.859.316c5.59 1.387 11.805 4.531 15.84 8.09l-.805.488c-4.195-3.566-9.726-6.273-14.808-7.62Zm-9.633.137c9.207-.024 17.598 3.27 24.371 8.594l-1.105.64c-6.18-4.699-13.024-7.836-22.23-8.21-6.02-.243-12.887 1.175-19.657 4.605l-.504-.844c6.574-3.3 13.027-4.77 19.125-4.785Zm-.723 1.277 3.622.094-.227 3.098-3.29-.098Zm-3.894.219.508 2.988-3.149.54-.894-2.993Zm11.46.394 3.599.883-1.188 3.043-3.156-.828Zm-5.76.043c-.571 0-1.036.426-1.036.954 0 .527.465.953 1.035.953.57 0 1.031-.426 1.035-.953 0-.528-.465-.954-1.035-.954Zm0 .329c.378 0 .687.28.687.625 0 .343-.309.625-.688.625-.383 0-.691-.282-.691-.625 0-.344.308-.625.691-.625Zm-7.145.007c-.57 0-1.032.426-1.032.954 0 .523.461.949 1.032.949.57 0 1.035-.426 1.035-.95 0-.527-.465-.953-1.035-.953Zm0 .329c.382 0 .691.277.691.625 0 .343-.309.625-.691.625-.38 0-.688-.282-.688-.625 0-.348.309-.625.688-.625Zm14.242.382c-.57 0-1.035.426-1.035.953 0 .528.465.954 1.035.954.57 0 1.035-.426 1.035-.954 0-.527-.465-.953-1.035-.953Zm-20.047.114 1.066 2.914-3.05 1.136-1.145-2.879Zm20.047.218c.379 0 .687.278.687.621 0 .344-.308.625-.687.625-.383 0-.692-.28-.692-.625 0-.343.309-.62.692-.62Zm5.98.696 3.239 1.574-1.676 2.785-3.02-1.445Zm-27.11.254c-.57 0-1.03.425-1.03.953 0 .523.46.949 1.03.949.571 0 1.036-.426 1.036-.95 0-.527-.465-.952-1.035-.952Zm12.231.09.153 2.94-2.867.188-.52-2.925Zm3.442.156 3.27.414-.77 2.832-2.957-.438Zm-15.672.082c.383 0 .691.277.691.625 0 .343-.308.62-.691.62-.379 0-.688-.277-.688-.62 0-.348.309-.625.688-.625Zm10.707.383c-.57 0-1.035.425-1.035.949 0 .527.465.953 1.035.953.57 0 1.035-.426 1.035-.953 0-.524-.465-.95-1.035-.95Zm-5.223.117.848 2.863-3.152.832-.965-2.754Zm11.442.047c-.57 0-1.035.425-1.035.949 0 .527.464.953 1.035.953.57 0 1.035-.426 1.035-.953 0-.524-.465-.95-1.035-.95Zm-6.22.164c.38 0 .688.277.688.62 0 .348-.308.626-.687.626-.379 0-.688-.278-.688-.625 0-.344.309-.621.688-.621Zm6.22.164c.379 0 .687.277.687.62 0 .348-.308.626-.687.626-.38 0-.688-.278-.688-.625 0-.344.309-.621.688-.621Zm11.058.008c-.57 0-1.035.425-1.035.949 0 .527.465.953 1.035.953.57 0 1.035-.426 1.035-.953 0-.524-.464-.95-1.035-.95Zm-5.593.277 3.156.992-1.258 2.719-3.023-1.059Zm5.593.05c.383 0 .692.278.692.622 0 .347-.309.625-.692.625-.379 0-.687-.278-.687-.625 0-.344.308-.621.687-.621ZM36.86 93.2c-.57 0-1.035.426-1.035.95 0 .527.465.953 1.035.953.57 0 1.032-.426 1.032-.954 0-.523-.461-.949-1.032-.949Zm0 .328c.38 0 .688.278.688.621 0 .348-.309.625-.688.625-.382 0-.691-.277-.691-.625 0-.343.309-.62.691-.62Zm19.133.555c-.57 0-1.035.426-1.035.953 0 .528.465.953 1.035.953.57 0 1.031-.425 1.031-.953 0-.527-.46-.953-1.03-.953Zm0 .328c.38 0 .688.281.688.625s-.309.625-.688.625c-.383 0-.691-.281-.691-.625s.308-.625.691-.625ZM19 94.742c.828.031 1.45.715 1.484 1.426.028.543-.718 1.25-.718 1.25l-.871-.742-.84.707c-.14.047-.79-.973-.59-1.5.258-.684.789-1.168 1.535-1.14Zm46.953 0 2.5 1.887s-1.098.613-1.3.723a.934.934 0 0 0 .034-.258c0-.528-.46-.953-1.035-.953-.57 0-1.03.425-1.03.953 0 .449.339.828.796.93-.254.132-.598.308-.598.308L64 97.312Zm-3.96 5.04-1.106.417c-6.813-4.12-16.13-6.375-26.778-2.226l-.367-.813c7.906-3.031 17.883-3.976 28.25 2.621Zm-.606-4.118 2.68 1.512-1.704 2.406-2.617-1.539Zm-.809 4.664-1.125.39c-8.312-4.917-17.172-4.656-25.09-1.71l-.12-.688c9.32-3.718 18.675-2.535 26.335 2.008Zm5.574-3.855c.383 0 .692.277.692.62 0 .344-.309.626-.692.626-.379 0-.687-.281-.687-.625s.308-.621.687-.621ZM17.79 97.598l-.926.859.844.875s-.266.207-.46.305c-1.106.554-2.317-.32-2.259-1.266.082-1.379 1.887-2.035 2.801-.773Zm43.984-.657c-.57 0-1.035.426-1.035.954 0 .523.465.949 1.035.949.57 0 1.032-.426 1.032-.95.004-.527-.461-.953-1.032-.953Zm-40.242.04c.82.003 1.461.585 1.54 1.253.062.536-.239 1.047-.887 1.41-.883.493-1.907-.304-1.891-.351l.746-.68-.894-.84c-.028-.015.59-.8 1.386-.793Zm-2.574.164 1.523 1.398-1.613 1.383-1.492-1.383Zm40.16 3.718-.855.364-1.164-.649-.344.61.648.378-.675.235c-7.766-4.02-16.543-2.856-22.375-.188 0 0 .05-.414.054-.414l.633-.3-.234-.739-.34.09-.028-.816c8.329-3.454 17.782-2.664 24.68 1.43Zm2.656-3.593c.38 0 .688.277.688.625 0 .343-.309.625-.688.625-.382 0-.691-.282-.691-.625 0-.348.309-.625.691-.625Zm-42.851.5-.809.746.805.793.789-.77Zm25.426.164-1.067.043.059.8 1.035-.023Zm.722.004.02.8.965-.004-.004-.789Zm1.715.015-.047.793.957.043.07-.793Zm-4.137.102-1.09.11.122.8 1.03-.11Zm5.922.011-.078.82.985.102.132-.785Zm-29.64.004.472.465-.472.43-.5-.45Zm21.883.243-1.051.152.11.828 1.026-.188Zm9.535 0-.176.765.98.219.157-.781Zm-11.258.335-.887.215.195.809.93-.211Zm12.937.032-.187.777.996.25.203-.746Zm-14.398.386-.922.301.238.746.938-.289Zm16.113.086-.308.746.863.32.383-.675Zm-17.637.438-.878.332.363.738.832-.347Zm-18.07.023.887.817 1.055-.875c.918.75.906 2.5-.723 2.793-1.426.254-2.727-1.707-1.219-2.735Zm37.29.157-.337.687.953.387.329-.66Zm-27.22 4.406 12.043 18.844-1.906-.036-11.652-18.207Zm-1.976.715.668.953c-1.305-.953-3.223-.149-3.14 1.054.062.54.558.864.558.348-.059-.543.773-1.016 1.379-.988 1.117.012 1.797 1.332 1.027 1.992-.504.43-1.191.41-.96-.18.038-.203.019-.277-.087-.363-.32-.27-.91.078-.765.465.093.254.12.316-.207.523-1.278.825-.387 2.453 1.16 1.711.316-.105.445-.12.586-.07.644.23 1.082-.285.472-.55-.355-.157-.363-.423-.02-.634.727-.449 1.864.254 1.864 1.153-.004.632-.914 1.105-1.789.918-.516-.11-.578.215-.105.55.921.653 2.3.114 2.714-1.058.13-.367.11-.445.11-.445l1.23 1.867s-.383-.164-.613-.23c-1.156-.325-2.453.366-2.457 1.308-.004.445.281.617.441.27.375-.813 1.184-1.13 2.016-.786.77.317 1.121 1.031.82 1.672-.312.672-1.37.867-1.25.234.055-.3-.144-.484-.496-.457-.133.012-.305.372-.258.54.043.164.012.199-.441.527-1.074.77-.246 2.027 1.094 1.664.222-.063.308-.059.508.031.488.215.996.082.996-.262 0-.234-.114-.324-.418-.328-.457 0-.36-.48.148-.71 1.277-.59 2.578.894 1.8 2.046-.331.496-.542.547-1.734.426-.19-.02-.28.102-.164.246.352.461 1.403.606 2.012.352.66-.274 1.063-.97 1.11-1.707l1.343 2.164c-1.047-1.008-2.855-.621-3.144.824 0 .363.36.555.488.254.543-1.305 2.617-.903 2.61.504 0 .226-.051.355-.208.554-.379.676-1.351.84-1.175.235.078-.188-.079-.39-.344-.45-.266-.058-.434.145-.426.512.004.278.008.364.008.364-.485.187-.793.554-.903 1.101l-9.433.02c1.125-6.02.86-11.457-1.285-16.598l-.45-1.094 1.665.043c.402.32 1.918.196 2.511-.3Zm1.601 2.367.977 1.61c-.406-.212-.816-.352-1.441-.403.324-.445.351-.848.464-1.207Zm-2.558 1.71c.351 0 .64.266.64.59 0 .329-.289.594-.64.594-.356 0-.645-.265-.645-.593 0-.325.29-.59.645-.59Zm6.715 4.813.937 1.54c-.457-.18-.84-.356-1.554-.372.257-.281.484-.75.617-1.168Zm-2.707 1.649c.34 0 .61.25.61.562 0 .309-.27.559-.61.559-.336 0-.606-.25-.606-.559 0-.312.27-.562.606-.562Zm6.8 4.793 1.383 2.261c-.543-.289-1.129-.652-1.867-.582.352-.687.543-1.062.484-1.68Zm-1.843 2.82-1.489.008c.297-1.2 1.5-.887 1.489-.008Zm1.406-.574c.504.023.941.183 1.215.586l-1.871.007s.011-.597.656-.593Zm0 0" style="stroke:none;fill-rule:nonzero;fill:#000;fill-opacity:1"/></svg>