<?xml version="1.0" encoding="UTF-8"?>
<svg xmlns="http://www.w3.org/2000/svg" xmlns:xlink="http://www.w3.org/1999/xlink" width="99px" height="140px" viewBox="0 0 99 140" version="1.1">
<g id="surface1">
<path style="fill-rule:nonzero;fill:rgb(100%,100%,100%);fill-opacity:1;stroke-width:0.755906;stroke-linecap:butt;stroke-linejoin:miter;stroke:rgb(50.196078%,50.196078%,50.196078%);stroke-opacity:1;stroke-miterlimit:4;" d="M 9.297585 719.743103 L 224.702415 719.743103 C 229.632812 719.743103 233.621449 723.747651 233.621449 728.681329 L 233.621449 1043.042991 C 233.621449 1047.976669 229.632812 1051.981217 224.702415 1051.981217 L 9.297585 1051.981217 C 4.367188 1051.981217 0.378551 1047.976669 0.378551 1043.042991 L 0.378551 728.681329 C 0.378551 723.747651 4.367188 719.743103 9.297585 719.743103 Z M 9.297585 719.743103 " transform="matrix(0.423077,0,0,0.42042,0,-302.434542)"/>
<path style=" stroke:none;fill-rule:nonzero;fill:rgb(100%,0%,0%);fill-opacity:1;" d="M 7.273438 25.789062 C 6.902344 24.992188 6.417969 24.246094 5.84375 23.578125 C 5.472656 23.148438 5.066406 22.753906 4.65625 22.367188 C 4.332031 22.0625 4.003906 21.761719 3.742188 21.40625 C 3.5625 21.164062 3.414062 20.894531 3.34375 20.605469 C 3.214844 20.074219 3.355469 19.507812 3.617188 19.03125 C 3.773438 18.753906 3.96875 18.5 4.210938 18.296875 C 4.574219 17.992188 5.042969 17.8125 5.511719 17.851562 C 5.9375 17.886719 6.339844 18.105469 6.652344 18.402344 C 6.925781 18.667969 7.140625 18.996094 7.277344 19.355469 C 7.417969 18.996094 7.632812 18.667969 7.90625 18.402344 C 8.21875 18.105469 8.621094 17.886719 9.046875 17.851562 C 9.515625 17.8125 9.984375 17.992188 10.347656 18.296875 C 10.589844 18.5 10.785156 18.753906 10.941406 19.03125 C 11.203125 19.507812 11.34375 20.074219 11.214844 20.605469 C 11.144531 20.894531 10.996094 21.164062 10.816406 21.40625 C 10.554688 21.761719 10.226562 22.0625 9.902344 22.367188 C 9.492188 22.753906 9.085938 23.148438 8.714844 23.578125 C 8.140625 24.246094 7.65625 24.992188 7.285156 25.789062 "/>
<path style=" stroke:none;fill-rule:nonzero;fill:rgb(100%,0%,0%);fill-opacity:1;" d="M 91.714844 114.210938 C 91.34375 115.007812 90.859375 115.753906 90.285156 116.421875 C 89.914062 116.851562 89.507812 117.246094 89.097656 117.632812 C 88.773438 117.9375 88.445312 118.238281 88.183594 118.59375 C 88.003906 118.835938 87.855469 119.105469 87.785156 119.394531 C 87.65625 119.925781 87.796875 120.492188 88.058594 120.96875 C 88.214844 121.246094 88.410156 121.5 88.652344 121.703125 C 89.015625 122.007812 89.484375 122.1875 89.953125 122.148438 C 90.378906 122.113281 90.78125 121.894531 91.09375 121.597656 C 91.367188 121.332031 91.582031 121.003906 91.722656 120.644531 C 91.859375 121.003906 92.074219 121.332031 92.347656 121.597656 C 92.660156 121.894531 93.0625 122.113281 93.488281 122.148438 C 93.957031 122.1875 94.425781 122.007812 94.789062 121.703125 C 95.03125 121.5 95.226562 121.246094 95.382812 120.96875 C 95.644531 120.492188 95.785156 119.925781 95.65625 119.394531 C 95.585938 119.105469 95.4375 118.835938 95.257812 118.59375 C 94.996094 118.238281 94.667969 117.9375 94.34375 117.632812 C 93.933594 117.246094 93.527344 116.851562 93.15625 116.421875 C 92.582031 115.753906 92.097656 115.007812 91.726562 114.210938 "/>
<path style=" stroke:none;fill-rule:nonzero;fill:rgb(100%,0%,0%);fill-opacity:1;" d="M 49.484375 39.820312 C 48.363281 37.425781 46.914062 35.1875 45.191406 33.191406 C 44.082031 31.902344 42.863281 30.714844 41.625 29.550781 C 40.660156 28.640625 39.675781 27.738281 38.886719 26.667969 C 38.351562 25.945312 37.90625 25.140625 37.695312 24.265625 C 37.3125 22.679688 37.730469 20.976562 38.519531 19.550781 C 38.980469 18.71875 39.570312 17.949219 40.300781 17.339844 C 41.382812 16.433594 42.792969 15.890625 44.191406 16.007812 C 45.476562 16.117188 46.679688 16.769531 47.613281 17.664062 C 48.445312 18.457031 49.089844 19.445312 49.5 20.523438 C 49.910156 19.445312 50.554688 18.457031 51.386719 17.664062 C 52.320312 16.769531 53.523438 16.117188 54.808594 16.007812 C 56.207031 15.890625 57.617188 16.433594 58.699219 17.339844 C 59.429688 17.949219 60.019531 18.71875 60.480469 19.550781 C 61.269531 20.976562 61.6875 22.679688 61.304688 24.265625 C 61.09375 25.140625 60.648438 25.945312 60.113281 26.667969 C 59.324219 27.738281 58.339844 28.640625 57.375 29.550781 C 56.136719 30.714844 54.917969 31.902344 53.808594 33.191406 C 52.085938 35.1875 50.636719 37.425781 49.515625 39.820312 "/>
<path style=" stroke:none;fill-rule:nonzero;fill:rgb(100%,0%,0%);fill-opacity:1;" d="M 49.484375 81.914062 C 48.363281 79.519531 46.914062 77.28125 45.191406 75.285156 C 44.082031 73.996094 42.863281 72.808594 41.625 71.644531 C 40.660156 70.734375 39.675781 69.832031 38.886719 68.761719 C 38.351562 68.039062 37.90625 67.234375 37.695312 66.359375 C 37.3125 64.773438 37.730469 63.070312 38.519531 61.644531 C 38.980469 60.8125 39.570312 60.042969 40.300781 59.433594 C 41.382812 58.527344 42.792969 57.984375 44.191406 58.101562 C 45.476562 58.210938 46.679688 58.863281 47.613281 59.757812 C 48.445312 60.550781 49.089844 61.535156 49.5 62.617188 C 49.910156 61.535156 50.554688 60.550781 51.386719 59.757812 C 52.320312 58.863281 53.523438 58.210938 54.808594 58.101562 C 56.207031 57.984375 57.617188 58.527344 58.699219 59.433594 C 59.429688 60.042969 60.019531 60.8125 60.480469 61.644531 C 61.269531 63.070312 61.6875 64.773438 61.304688 66.359375 C 61.09375 67.234375 60.648438 68.039062 60.113281 68.761719 C 59.324219 69.832031 58.339844 70.734375 57.375 71.644531 C 56.136719 72.808594 54.917969 73.996094 53.808594 75.285156 C 52.085938 77.28125 50.636719 79.519531 49.515625 81.914062 "/>
<path style=" stroke:none;fill-rule:nonzero;fill:rgb(100%,0%,0%);fill-opacity:1;" d="M 49.484375 100.179688 C 48.363281 102.574219 46.914062 104.8125 45.191406 106.808594 C 44.082031 108.097656 42.863281 109.285156 41.625 110.449219 C 40.660156 111.359375 39.675781 112.261719 38.886719 113.332031 C 38.351562 114.054688 37.90625 114.859375 37.695312 115.734375 C 37.3125 117.320312 37.730469 119.023438 38.519531 120.449219 C 38.980469 121.28125 39.570312 122.050781 40.300781 122.660156 C 41.382812 123.566406 42.792969 124.109375 44.191406 123.992188 C 45.476562 123.882812 46.679688 123.230469 47.613281 122.335938 C 48.445312 121.542969 49.089844 120.554688 49.5 119.476562 C 49.910156 120.554688 50.554688 121.542969 51.386719 122.335938 C 52.320312 123.230469 53.523438 123.882812 54.808594 123.992188 C 56.207031 124.109375 57.617188 123.566406 58.699219 122.660156 C 59.429688 122.050781 60.019531 121.28125 60.480469 120.449219 C 61.269531 119.023438 61.6875 117.320312 61.304688 115.734375 C 61.09375 114.859375 60.648438 114.054688 60.113281 113.332031 C 59.324219 112.261719 58.339844 111.359375 57.375 110.449219 C 56.136719 109.285156 54.917969 108.097656 53.808594 106.808594 C 52.085938 104.8125 50.636719 102.574219 49.515625 100.179688 "/>
<path style=" stroke:none;fill-rule:nonzero;fill:rgb(100%,0%,0%);fill-opacity:1;" d="M 11.261719 11.835938 C 11.261719 12.941406 10.867188 13.792969 10.070312 14.386719 C 9.355469 14.929688 8.417969 15.199219 7.257812 15.199219 C 4.617188 15.199219 3.296875 13.980469 3.296875 11.542969 C 3.296875 11.429688 3.316406 11.324219 3.355469 11.21875 C 3.4375 11.171875 3.53125 11.148438 3.636719 11.148438 L 4.71875 11.148438 C 4.824219 11.148438 4.921875 11.171875 5.011719 11.21875 C 5.039062 11.296875 5.0625 11.386719 5.078125 11.488281 C 5.171875 12.160156 5.367188 12.644531 5.660156 12.949219 C 5.988281 13.285156 6.488281 13.453125 7.167969 13.453125 C 7.722656 13.453125 8.175781 13.308594 8.523438 13.015625 C 8.890625 12.699219 9.074219 12.277344 9.074219 11.746094 C 9.074219 10.621094 8.441406 9.960938 7.183594 9.765625 C 7.027344 9.746094 6.910156 9.710938 6.832031 9.667969 C 6.789062 9.582031 6.765625 9.144531 6.765625 8.351562 C 6.765625 8.25 6.792969 8.152344 6.84375 8.0625 C 7.257812 7.941406 7.675781 7.820312 8.089844 7.695312 C 8.527344 7.5 8.75 7.089844 8.75 6.46875 C 8.75 5.527344 8.183594 5.054688 7.050781 5.054688 C 6.527344 5.054688 6.121094 5.179688 5.828125 5.429688 C 5.671875 5.566406 5.511719 5.796875 5.34375 6.121094 C 5.222656 6.367188 5.101562 6.492188 4.976562 6.492188 L 3.902344 6.492188 C 3.632812 6.492188 3.496094 6.375 3.496094 6.136719 C 3.496094 5.230469 3.859375 4.515625 4.585938 3.992188 C 5.242188 3.519531 6.046875 3.285156 7 3.285156 C 8.097656 3.285156 8.996094 3.511719 9.6875 3.960938 C 10.503906 4.484375 10.914062 5.257812 10.914062 6.28125 C 10.914062 7.515625 10.289062 8.355469 9.039062 8.800781 C 10.523438 9.410156 11.261719 10.425781 11.261719 11.835938 Z M 11.261719 11.835938 "/>
<path style=" stroke:none;fill-rule:nonzero;fill:rgb(100%,0%,0%);fill-opacity:1;" d="M 87.738281 128.164062 C 87.738281 127.058594 88.132812 126.207031 88.929688 125.613281 C 89.644531 125.070312 90.582031 124.800781 91.742188 124.800781 C 94.382812 124.800781 95.703125 126.019531 95.703125 128.457031 C 95.703125 128.570312 95.683594 128.675781 95.644531 128.78125 C 95.5625 128.828125 95.46875 128.851562 95.363281 128.851562 L 94.28125 128.851562 C 94.175781 128.851562 94.078125 128.828125 93.988281 128.78125 C 93.960938 128.703125 93.9375 128.613281 93.921875 128.511719 C 93.828125 127.839844 93.632812 127.355469 93.339844 127.050781 C 93.011719 126.714844 92.511719 126.546875 91.832031 126.546875 C 91.277344 126.546875 90.824219 126.691406 90.476562 126.984375 C 90.109375 127.300781 89.925781 127.722656 89.925781 128.253906 C 89.925781 129.378906 90.558594 130.039062 91.816406 130.234375 C 91.972656 130.253906 92.089844 130.289062 92.167969 130.332031 C 92.210938 130.417969 92.234375 130.855469 92.234375 131.648438 C 92.234375 131.75 92.207031 131.847656 92.15625 131.9375 C 91.742188 132.058594 91.324219 132.179688 90.910156 132.304688 C 90.472656 132.5 90.25 132.910156 90.25 133.53125 C 90.25 134.472656 90.816406 134.945312 91.949219 134.945312 C 92.472656 134.945312 92.878906 134.820312 93.171875 134.570312 C 93.328125 134.433594 93.488281 134.203125 93.65625 133.878906 C 93.777344 133.632812 93.898438 133.507812 94.023438 133.507812 L 95.097656 133.507812 C 95.367188 133.507812 95.503906 133.625 95.503906 133.863281 C 95.503906 134.769531 95.140625 135.484375 94.414062 136.007812 C 93.757812 136.480469 92.953125 136.714844 92 136.714844 C 90.902344 136.714844 90.003906 136.488281 89.3125 136.039062 C 88.496094 135.515625 88.085938 134.742188 88.085938 133.71875 C 88.085938 132.484375 88.710938 131.644531 89.960938 131.199219 C 88.476562 130.589844 87.738281 129.574219 87.738281 128.164062 Z M 87.738281 128.164062 "/>
</g>
</svg>
