<svg xmlns="http://www.w3.org/2000/svg" xmlns:xlink="http://www.w3.org/1999/xlink" width="99" height="140"><defs><symbol id="a" overflow="visible"><path d="M5.938-5.984c-.543 0-.95.18-1.22.53-.273.356-.405.888-.405 1.595 0 .71.132 1.242.406 1.593.27.356.676.532 1.218.532.54 0 .946-.176 1.22-.532.269-.351.405-.882.405-1.593 0-.707-.136-1.239-.406-1.594-.273-.352-.68-.531-1.218-.531Zm3.812-5.813v2.235a8.639 8.639 0 0 0-1.438-.532A4.885 4.885 0 0 0 7-10.28c-.918 0-1.637.261-2.156.781-.512.523-.809 1.29-.89 2.297a4.18 4.18 0 0 1 1.14-.594A4.43 4.43 0 0 1 6.454-8c1.218 0 2.202.367 2.952 1.094.75.718 1.125 1.668 1.125 2.843 0 1.305-.422 2.344-1.265 3.125C8.43-.155 7.312.234 5.906.234c-1.554 0-2.758-.53-3.61-1.593-.855-1.063-1.28-2.57-1.28-4.532 0-2 .492-3.57 1.484-4.718 1-1.145 2.367-1.72 4.11-1.72.55 0 1.081.048 1.593.142.52.085 1.035.214 1.547.39Zm0 0" style="stroke:none"/></symbol><symbol id="b" overflow="visible"><path d="M-5.938 5.984c.543 0 .95-.18 1.22-.53.273-.356.405-.888.405-1.595 0-.71-.132-1.242-.406-1.593-.27-.356-.676-.532-1.218-.532-.54 0-.946.176-1.22.532-.269.351-.405.882-.405 1.593 0 .707.136 1.239.406 1.594.273.352.68.531 1.218.531Zm-3.812 5.813V9.562c.512.239.992.415 1.438.532.449.125.886.187 1.312.187.918 0 1.637-.261 2.156-.781.512-.523.809-1.29.89-2.297a4.18 4.18 0 0 1-1.14.594A4.43 4.43 0 0 1-6.454 8c-1.218 0-2.202-.367-2.952-1.094-.75-.718-1.125-1.668-1.125-2.843 0-1.305.422-2.344 1.265-3.125.836-.782 1.954-1.172 3.36-1.172 1.554 0 2.758.53 3.61 1.593.855 1.063 1.28 2.57 1.28 4.532 0 2-.492 3.57-1.484 4.718-1 1.145-2.367 1.72-4.11 1.72a8.83 8.83 0 0 1-1.593-.142 9.547 9.547 0 0 1-1.547-.39Zm0 0" style="stroke:none"/></symbol></defs><path d="M9.298 719.743h215.404c4.93 0 8.92 4.005 8.92 8.938v314.362c0 4.934-3.99 8.938-8.92 8.938H9.298c-4.93 0-8.92-4.004-8.92-8.938V728.681c0-4.933 3.99-8.938 8.92-8.938Zm0 0" style="fill-rule:nonzero;fill:#fff;fill-opacity:1;stroke-width:.755906;stroke-linecap:butt;stroke-linejoin:miter;stroke:gray;stroke-opacity:1;stroke-miterlimit:4" transform="matrix(.42308 0 0 .42042 0 -302.435)"/><path d="M7.273 25.79a9.65 9.65 0 0 0-1.43-2.212 16.55 16.55 0 0 0-1.187-1.21c-.324-.305-.652-.606-.914-.962a2.267 2.267 0 0 1-.398-.8c-.13-.532.011-1.098.273-1.575a2.64 2.64 0 0 1 .594-.734c.363-.305.832-.485 1.3-.445.426.035.829.253 1.141.55.274.266.489.594.625.953.141-.359.356-.687.63-.953.312-.297.714-.515 1.14-.55.469-.04.937.14 1.3.445.243.203.438.457.594.734.262.477.403 1.043.274 1.574-.07.29-.219.56-.399.801-.261.356-.59.657-.914.961-.41.387-.816.781-1.187 1.211a9.65 9.65 0 0 0-1.43 2.211M91.715 114.21a9.65 9.65 0 0 1-1.43 2.212c-.37.43-.777.824-1.187 1.21-.325.305-.653.606-.914.962-.18.242-.329.511-.399.8-.129.532.012 1.098.274 1.575.156.277.351.531.593.734.364.305.832.484 1.301.445.426-.035.828-.253 1.14-.55.274-.266.489-.594.63-.953.136.359.351.687.625.953.312.297.715.515 1.14.55.469.04.938-.14 1.301-.445a2.64 2.64 0 0 0 .594-.734c.262-.477.402-1.043.273-1.574a2.267 2.267 0 0 0-.398-.801c-.262-.356-.59-.656-.914-.961a16.55 16.55 0 0 1-1.188-1.211 9.65 9.65 0 0 1-1.43-2.211M24.793 39.82a29.097 29.097 0 0 0-4.297-6.629c-1.11-1.289-2.328-2.476-3.566-3.64-.965-.91-1.95-1.813-2.739-2.883-.535-.723-.98-1.527-1.191-2.402-.383-1.586.035-3.29.824-4.715.461-.832 1.051-1.602 1.781-2.211 1.082-.906 2.493-1.45 3.895-1.332 1.281.11 2.484.762 3.418 1.656a7.778 7.778 0 0 1 1.887 2.86 7.778 7.778 0 0 1 1.886-2.86c.938-.894 2.137-1.547 3.422-1.656 1.399-.117 2.809.426 3.89 1.332.731.61 1.321 1.379 1.782 2.21.79 1.427 1.207 3.13.824 4.716-.21.875-.656 1.68-1.191 2.402-.79 1.07-1.773 1.973-2.738 2.883-1.239 1.164-2.457 2.351-3.567 3.64a28.95 28.95 0 0 0-4.293 6.63M24.793 81.914a29.097 29.097 0 0 0-4.297-6.629c-1.11-1.289-2.328-2.476-3.566-3.64-.965-.91-1.95-1.813-2.739-2.883-.535-.723-.98-1.528-1.191-2.403-.383-1.586.035-3.289.824-4.714.461-.833 1.051-1.602 1.781-2.211 1.082-.907 2.493-1.45 3.895-1.332 1.281.109 2.484.761 3.418 1.656a7.746 7.746 0 0 1 1.887 2.86 7.746 7.746 0 0 1 1.886-2.86c.938-.895 2.137-1.547 3.422-1.656 1.399-.118 2.809.425 3.89 1.332.731.609 1.321 1.379 1.782 2.21.79 1.426 1.207 3.13.824 4.715-.21.875-.656 1.68-1.191 2.403-.79 1.07-1.773 1.972-2.738 2.883-1.239 1.164-2.457 2.351-3.567 3.64a28.95 28.95 0 0 0-4.293 6.63M74.18 39.82a28.95 28.95 0 0 0-4.293-6.629c-1.11-1.289-2.328-2.476-3.567-3.64-.965-.91-1.949-1.813-2.738-2.883-.535-.723-.98-1.527-1.191-2.402-.383-1.586.035-3.29.824-4.715.46-.832 1.05-1.602 1.781-2.211 1.082-.906 2.492-1.45 3.89-1.332 1.286.11 2.485.762 3.423 1.656a7.778 7.778 0 0 1 1.886 2.86 7.778 7.778 0 0 1 1.887-2.86c.934-.894 2.137-1.547 3.418-1.656 1.402-.117 2.813.426 3.895 1.332.73.61 1.32 1.379 1.78 2.21.79 1.427 1.208 3.13.825 4.716-.21.875-.656 1.68-1.191 2.402-.79 1.07-1.774 1.973-2.739 2.883-1.238 1.164-2.457 2.351-3.566 3.64a29.097 29.097 0 0 0-4.297 6.63M74.18 81.914a28.95 28.95 0 0 0-4.293-6.629c-1.11-1.289-2.328-2.476-3.567-3.64-.965-.91-1.949-1.813-2.738-2.883-.535-.723-.98-1.528-1.191-2.403-.383-1.586.035-3.289.824-4.714.46-.833 1.05-1.602 1.781-2.211 1.082-.907 2.492-1.45 3.89-1.332 1.286.109 2.485.761 3.423 1.656a7.746 7.746 0 0 1 1.886 2.86 7.746 7.746 0 0 1 1.887-2.86c.934-.895 2.137-1.547 3.418-1.656 1.402-.118 2.813.425 3.895 1.332.73.609 1.32 1.379 1.78 2.21.79 1.426 1.208 3.13.825 4.715-.21.875-.656 1.68-1.191 2.403-.79 1.07-1.774 1.972-2.739 2.883-1.238 1.164-2.457 2.351-3.566 3.64a29.097 29.097 0 0 0-4.297 6.63M24.793 100.18a29.097 29.097 0 0 1-4.297 6.629c-1.11 1.289-2.328 2.476-3.566 3.64-.965.91-1.95 1.813-2.739 2.883-.535.723-.98 1.527-1.191 2.402-.383 1.586.035 3.29.824 4.715.461.832 1.051 1.602 1.781 2.211 1.082.906 2.493 1.45 3.895 1.332 1.281-.11 2.484-.762 3.418-1.656a7.778 7.778 0 0 0 1.887-2.86 7.778 7.778 0 0 0 1.886 2.86c.938.894 2.137 1.547 3.422 1.656 1.399.117 2.809-.426 3.89-1.332.731-.61 1.321-1.379 1.782-2.21.79-1.427 1.207-3.13.824-4.716-.21-.875-.656-1.68-1.191-2.402-.79-1.07-1.773-1.973-2.738-2.883-1.239-1.164-2.457-2.351-3.567-3.64a28.95 28.95 0 0 1-4.293-6.63M74.18 100.18a28.95 28.95 0 0 1-4.293 6.629c-1.11 1.289-2.328 2.476-3.567 3.64-.965.91-1.949 1.813-2.738 2.883-.535.723-.98 1.527-1.191 2.402-.383 1.586.035 3.29.824 4.715.46.832 1.05 1.602 1.781 2.211 1.082.906 2.492 1.45 3.89 1.332 1.286-.11 2.485-.762 3.423-1.656a7.778 7.778 0 0 0 1.886-2.86 7.778 7.778 0 0 0 1.887 2.86c.934.894 2.137 1.547 3.418 1.656 1.402.117 2.813-.426 3.895-1.332.73-.61 1.32-1.379 1.78-2.21.79-1.427 1.208-3.13.825-4.716-.21-.875-.656-1.68-1.191-2.402-.79-1.07-1.774-1.973-2.739-2.883-1.238-1.164-2.457-2.351-3.566-3.64a29.097 29.097 0 0 1-4.297-6.63" style="stroke:none;fill-rule:nonzero;fill:red;fill-opacity:1"/><use xlink:href="#a" x="2.262" y="15.035" style="fill:red;fill-opacity:1"/><use xlink:href="#b" x="96.738" y="124.965" style="fill:red;fill-opacity:1"/></svg>