<svg xmlns="http://www.w3.org/2000/svg" width="99" height="140"><path d="M9.298 719.743h215.404c4.93 0 8.92 4.005 8.92 8.938v314.362c0 4.934-3.99 8.938-8.92 8.938H9.298c-4.93 0-8.92-4.004-8.92-8.938V728.681c0-4.933 3.99-8.938 8.92-8.938Zm0 0" style="fill-rule:nonzero;fill:#fff;fill-opacity:1;stroke-width:.755906;stroke-linecap:butt;stroke-linejoin:miter;stroke:gray;stroke-opacity:1;stroke-miterlimit:4" transform="matrix(.42308 0 0 .42042 0 -302.435)"/><path d="M11.262 15.2H8.789L5.406 9.91v5.29h-2.11V3.284h2.11v4.098L8.38 3.285h2.512L7.059 8.598ZM87.738 124.8h2.473l3.383 5.29v-5.29h2.11v11.915h-2.11v-4.098l-2.973 4.098H88.11l3.832-5.313ZM91.715 114.21a9.65 9.65 0 0 1-1.43 2.212c-.37.43-.777.824-1.187 1.21-.325.305-.653.606-.914.962-.18.242-.329.511-.399.8-.129.532.012 1.098.274 1.575.156.277.351.531.593.734.364.305.832.484 1.301.445.426-.035.828-.253 1.14-.55.274-.266.489-.594.63-.953.136.359.351.687.625.953.312.297.715.515 1.14.55.469.04.938-.14 1.301-.445a2.64 2.64 0 0 0 .594-.734c.262-.477.402-1.043.273-1.574a2.267 2.267 0 0 0-.398-.801c-.262-.356-.59-.656-.914-.961a16.55 16.55 0 0 1-1.188-1.211 9.65 9.65 0 0 1-1.43-2.211M7.273 25.79a9.65 9.65 0 0 0-1.43-2.212 16.55 16.55 0 0 0-1.187-1.21c-.324-.305-.652-.606-.914-.962a2.267 2.267 0 0 1-.398-.8c-.13-.532.011-1.098.273-1.575a2.64 2.64 0 0 1 .594-.734c.363-.305.832-.485 1.3-.445.426.035.829.253 1.141.55.274.266.489.594.625.953.141-.359.356-.687.63-.953.312-.297.714-.515 1.14-.55.469-.04.937.14 1.3.445.243.203.438.457.594.734.262.477.403 1.043.274 1.574-.07.29-.219.56-.399.801-.261.356-.59.657-.914.961-.41.387-.816.781-1.187 1.211a9.65 9.65 0 0 0-1.43 2.211M24.797 35.848a19.47 19.47 0 0 0-2.863-4.418c-.739-.86-1.555-1.649-2.38-2.426-.644-.61-1.296-1.211-1.824-1.922-.355-.484-.652-1.02-.796-1.602-.254-1.058.023-2.19.55-3.144a5.23 5.23 0 0 1 1.188-1.473c.723-.605 1.66-.968 2.594-.886.855.07 1.656.503 2.28 1.101a5.175 5.175 0 0 1 1.259 1.906 5.175 5.175 0 0 1 1.258-1.906c.625-.598 1.425-1.031 2.28-1.101.934-.082 1.876.28 2.595.886.488.407.878.918 1.187 1.473.527.953.805 2.086.55 3.144-.144.582-.44 1.118-.796 1.602-.527.711-1.18 1.313-1.824 1.922-.825.777-1.637 1.566-2.38 2.426a19.47 19.47 0 0 0-2.863 4.418M74.188 104.152a19.47 19.47 0 0 1-2.864 4.418c-.742.86-1.554 1.649-2.379 2.426-.644.61-1.297 1.211-1.824 1.922-.355.484-.652 1.02-.797 1.602-.254 1.058.024 2.19.551 3.144.309.555.7 1.066 1.188 1.473.718.605 1.66.968 2.593.886.856-.07 1.656-.503 2.281-1.101a5.175 5.175 0 0 0 1.258-1.906 5.175 5.175 0 0 0 1.258 1.906c.625.598 1.426 1.031 2.281 1.101.934.082 1.871-.28 2.594-.886a5.23 5.23 0 0 0 1.188-1.473c.527-.953.804-2.086.55-3.144-.144-.582-.441-1.118-.796-1.602-.528-.711-1.18-1.313-1.825-1.922-.824-.777-1.64-1.566-2.379-2.426a19.47 19.47 0 0 1-2.863-4.418" style="stroke:none;fill-rule:nonzero;fill:red;fill-opacity:1"/><path d="m35.648 114.355 24.075.594c2.117 2.73 6.367 8.297 6.367 8.297l-38.903.285ZM25.562 116.2c1.051-1.93 1.262-3.797 1.079-6.488-.145-2.066 1.265-3.664 2.707-3.043 1.113.48.586 2.434-.567 2.016-.441-.16-.828-.02-.773.906.09 2.289.734 4.867.152 7.055-.406 2.128-3.574 1.132-2.598-.446Zm-9.73-3.031c-1.215-1.703.988-3.285 2.36-2.496.652.285.554.898-.266.566-1.145-.46-2.387 1.149-1.395 1.801.461.3.633.262.285-.113-.921-1.004 1.461-1.434 1.387-.778-.168.801-.187 1.137-.27 1.297-.488.696-1.417.332-2.101-.277Zm3.457-7.121c-1.312-1.535.211-2.727.191-2.684.395-.39-3.117-6.511-2.671-6.547 4.484-.418 9.007-.066 13.5.086 0 0-2.418 3.961-3.383 5.922-.39.793.504 1.73.129 2.317-1.16 1.16-.45 2.457-1.172 2.511-2.02-.25-4.016-.57-6.258-.168-.168 0-.18-.87-.336-1.437ZM38.922 63.73c2.203 10.653-1.2 21.922-8.899 29.329-1.074-.965-1.89-2.79-2.964-3.98-2.985-.845-5.145.12-7.247 1.07-1.859-1.004-3.957-1.598-6.003-1.583l-.055-1.644c2.07-.031 4.254.156 6.094 1.219l2.89-1.07-8.949-8.66.133-1.47 10.86 10.223 1.405.05c-3.046-7.597-.277-19.628 12.735-23.484ZM54.07 77.156l1.54 6.957s-8.395 8.258-13.575 12.172l-3.887-.344s5.36-8.695 4.383-8.035Zm31.313 9.684c-3.727 3.812-8.168 6.23-13.102 8.89-1.953-2.039-4.328-4.28-5.695-6.285 4.305-2.097 8.402-3.718 12.625-7.402-.234.238-5.371 1.82-5.352 1.637-.191.789-.082 1.277-.918 1.48-.98-1.277-1.93-2.316-3.484-2.894-.652.05-1.52-.352-1.52-.352.438-.078.274-4.969.032-5.027 0 0 .129-.145 1.27-.117 2.038-.118 3.366-2.387 4.636-3.16 3.953-.282 7.45.093 11.344.015-.055 4.352.191 8.863.164 13.215ZM60.355 75.7c-.097-.188-1.054-7.403-.082-11.919.184-1.058 1.993-1.41 2.344-2.199.586-1.715-.265-3.84.2-5.762.476-1.957 1.484-3.054 2.37-4.504.961-1.574 2.333-3.535 3.844-4.703.446-.398 1.985.899 3.125 3.13 3.344 1.968 7.66-.528 7.66-.528s1.664 1.265 5.438 1.972l-.074 1.352c-.02.395-4.246-.437-5.149-1.23 0 0-3.16.96-3.16 1.14-.004.758 8.281 7.926 8.281 7.926l.035 1.758c-1.238-1.613-10.96-9.375-10.96-9.375 2.101 11.75-3.114 19.039-13.872 22.941Zm-13.957-2.368-.148-6.914 7.117.113.254 6.989Zm-32.515-7.633c.191-.242-.207-12.89-.176-12.89 4.55-4.141 8.996-6.446 13.45-8.954 1.995 1.848 3.695 3.407 5.163 5.641l-6.148 3.457c.226.852-.379 1.152 3.555 4.48.066-.226 1.37-.89 1.593.118-.547 2.125.215 3.933.309 5.078-.543.668-1.742-.059-1.742-.059-.778-.754-3.856 2.942-4.73 3.352-3.81-.149-11.489.05-11.274-.223Zm42.992-22.336c.05-.043 3.871.047 3.82.172-.707 1.723-2.453 4.781-4.054 8.305-1.84 3.008-4.38 4.77-6.551 6.734-1.735 1.567-3.29 4.047-4.465 3.399-.707-2.145-.863-4.04-1.64-6.414-.356-1.407 1.855-2.309 12.89-12.196ZM73.672 31.59c1.398.558 5.332.289 5.957.047.8.504.297 1.172.191 1.543.817.965 1.266 1.308.325 2.851-.215 0 2.832 6.43 2.914 6.434 0 0-3.25-1.445-4.391-2.414l-2.262 2.75-2.59-3.133c-.011.281-5.046 3.336-5.109 3.187-.156-.148 4.61-4.843 3.688-7.617-.223-.668.296-1.343.656-1.93.246-.402-.078-1.183.62-1.718Zm-2.602-.586c.215-.223-1.183-6.031.38-8.363.66-.848 1.847-.887 2.34-.188.374.973-.763 2.317-.993 2.973-.746 1.832.332 4.258-.211 5.992-1.617 3.781-4.418-.395-1.516-.414ZM81.7 28.48c-.84.032-.24-2.289-.098-2.953-.004-.132 1.543-.457 2.093.457.887 1.371-.199 3.086-1.996 2.496Zm-9.958-11.757-7.969 8.863c-8-.89-16.03-1.469-24.226-.352l-6.535-8.523Zm0 0" style="stroke:none;fill-rule:nonzero;fill:#e2cf00;fill-opacity:1"/><path d="m86.113 16.14-73.258-.148.196 108.016 73.094-.047Zm-16.855.579c.8.004 1.605.008 2.41.015l-8.828 9.934-.215.066c.574 1.586 1.398 3.563 2.184 5.067 1.257 2.43 4.421 6.898 2.41 10.449-.196.305-.38.453-.621.45-.34-.005-.332-.188-.13-.544.45-.785.759-2.648.59-3.636-.109-.63-.484-1.602-1.195-3.075-3.3-5.707-4.324-8.746-4.136-8.746a.754.754 0 0 0-.239-.09l-.328-.101c1.137 3.605 2.996 6.64 4.465 9.445 1.203 2.61 1.328 3.621.68 5.512-.25.734-.7 1.203-1.137 1.2-.328-.005-.309-.067-.082-.438 1.176-1.934.918-4.051-.52-6.516-2.082-4.078-3.332-6.656-4.07-9.266-.02 0-.383-.117-.516-.148.61 2.719 2.34 5.86 3.95 9.07 1.328 2.473 1.707 4.274 1.215 5.692-.165.613-.676 1.527-1.317 1.55-.25 0-.289-.12-.05-.437 1.003-1.574 1.19-3.031-.575-6.36-1.621-3.054-3.246-6.476-3.793-9.46-.035-.247-.746-.54-.594-.133.86 3.527 2.594 7.14 4.434 10.668 1.035 2.187 1.137 3.582.344 4.8-.446.68-.559.836-.887.84-.39.008-.383.02-.164-.394.96-1.832.812-3.45-.441-6.11-1.723-3.644-3.172-6.664-3.782-9.867-.113-.031-.703-.246-.617-.086a49.237 49.237 0 0 0 3.375 8.762c.492.996 1.293 2.934 1.55 3.902.485 1.844-.648 4.371-2.116 4.489-.547.047-.477-.207.136-.727 1.055-.898 1.266-2.336.918-4.012-.257-1.285-.71-2.668-1.336-4.074-1.265-2.844-2.64-5.82-3.066-8.441.016-.235-.57-.239-.406.008.308 1.843 1.05 3.945 1.867 5.894.895 2.137 2.227 4.531 2.652 7.149.348 2.14-1.105 4.152-2.855 4.265-2.11.137-2.512-1.797-2-2.7.836-1.347 3.234-.565 2.512.813-.418.793-1.672.579-1.614-.293-.011-.078.125-.32.098-.332-.043-.023-.227.133-.285.23-.43.704.844 1.657 1.738 1.095 2.992-1.48 1.004-6.055-.281-8.852-1.246-2.601-2.156-4.953-2.543-7.36-.11-.073-.602-.19-.531-.109.355 1.285.515 2.371.867 3.45.554 1.695 1.554 3.593 2.37 5.492.74 1.87 1.481 3.46 1.126 5.402-.031.18-.113.395-.246.527-.133.13-.246.11-.281-.386-.012-.07-.106-.157-.122-.242a5.565 5.565 0 0 0-.171-2.145c-.172-.578-.5-1.168-1.196-2.29-.273-.417-.992-1.694-.742-.812.145.497.633 1.606 1.149 2.41.316.497.644 1.856.542 2.118-.105.258-.351.27-.464.183-.102-.082-.098-.445-.125-.668-.102-.925-1.114-2.539-1.817-3.175-.504-.528 1.184 2.238 1.305 2.976.05.309.156.563.039.715-.074.102-.23.102-.379.066-.144-.035-.137-.128-.285-.601-.258-.813-.578-1.223-1.246-1.957-.227-.25-.383.062-.02.469.504.746.88 1.218 1.004 2.171-.332.43-.492.348-1.172-.75-.449-.722-.722-.91-.84-.906-.3.012-.019.36.817 1.598.437.66.445 1.066-.055 1.062-.168 0-1.105-.968-1.34-1.386-.195-.348-.437-.614-.441-.192 0 .168.582 1.059.98 1.489.625.683.809.82.887 1.12.035.141.113.391.164.555.16.489.078.63-.25.367-.144-.359-.265-.398-.672-.68-.34-.234-.812-.843-1.125-1.277-.113-.16-.215-.367-.336-.53-.3-.532-.707-.583-.418-.044.137.246.364.657.598.957.395.528.309.801-.16.797-.203-.004-.762-.691-1.113-1.23-.227-.348-.586-.598-.543-.25.011.086.285.699.699 1.183.45.524.508.801.066.797-.297-.004-.554-.27-.933-.812-.364-.516-.586-.696-.692-.641-.129.074.516 1.094 1.047 1.652.504.528.133.828-.449.356-.313-.254-.941-1.012-1.117-1.375-.313-.64-.516-.469-.317.043.223.562.57 1.176.996 1.578.223.207.68.375.903.555.633.511 1.031.984.98 1.07-1.812.082-3.289-1.715-3.691-2.8-.285-.712-.613-.821-.305.187.867 2.504 3.613 3.816 5.524 2.707 1.152-.672.148-2.438-.793-1.875-.258.152-.274.59.054.36.614-.438 1.22.648.551.968-.937.445-1.973-.442-1.328-1.508.637-1.098 3.156-.457 2.652 1.316-.304.797-1.62 1.786-2.742 1.797-2.09.028-3.523-1.46-4.316-2.925-.102-.192-.285-.563-.438-.864-.129-.261-.234-.457-.242-.453.219 1.777 2.043 3.98 3.68 4.352 2.726.609 3.48-.895 5.273-2.442 0 0 1.305.164 1.348.137.12-.066 2.539-.152 2.613-.09-9.86 16.34-9.226 35.8-.91 50.61.547 1.085.645.878-.273.656-.95-.235-1.813.113-2.583-.055-1.593-.309-1.94.695-3.171 1.23-1.532.528-1.192 1.512-1.563 2.461-.113.149-.2.27-.137.25.102-.03.43-.308.457-.554.067-.63.313-1.125.59-1.375.266-.239.45-.36.512-.254.05.078.012.363-.121.59-.375.644.105 2.82.144 1.273.032-1.226.844-2.59 1.97-3.144.902-.403 1.179-.36.444.265-.835.817-1.406 1.77-1.449 2.961-.015.492.196.906.274.461-.02-2.266 2.441-4.777 5.054-3.508.133.086.243.25.204.344-2.54-.406-4.758.867-4.45 3.91 0 0 .23-.594.364-1.187.41-1.864 2.691-2.668 4.285-2.149.3.117.535.512.492.567-1.95-.578-4.102 1.12-4.238 2.968-.043.602-.032 1.118.308.036 1.285-4.106 5.164-2.223 4.684-1.891-3.008-.344-4.11 1.523-4.05 3.691.038.2.148.266.237.454.399.816.578 1.519.602 3-.035.382.293 2.816-.05 2.71-1.09-.378-1.919-.824-3.817-.046-.172.007-.227-.079-.168-.215.078-.184.379-.547.898-1.082 1.168-1.14.5-.836-.46-.047-.622.512-.485.16.105-1.594.242-.71.093-.797-.918-1.277-1.043-.5-1.766-.578-.883-.059.348.2.719.406 1.113.555.461.238.406.336.059 1.36-.672 1.991-.91 2.718-.883 4.058.066 3.261 3.426 2.957 5.344 2.23l.066 2.149 7.149 9.422s-25.168-.149-38.633-.008c.777-1.707 8.957-8.903 9.449-10.196.047.004-.887-2.652-1.379-3.808-2.324-5.457-5.402-7.766-3.594-11.336.391-.707.461-.945.754-.942.399.004.524.247.07.938-1.94 2.98 2.137 8.152 3.504 11.445.22.528 1.137 2.996 1.293 3.828.016.254.664.344.485.047-.5-1.683-1.133-3.52-1.426-4.18-1.082-2.433-2.227-4.093-3.281-6.472-.59-1.5-.899-3.23.035-4.781.344-.563.441-.88.664-.907.191 0 .3.063.313.207.015.16-.094.418-.348.817-1.633 2.539 1.219 6.672 2.629 9.613.918 1.918 1.73 3.938 2.011 5.754.004.125.184.457.54.234-.598-3.394-2.387-6.69-3.958-9.867-1.34-2.484-1.835-4.644-.015-6.672.16-.14.496-.117.52.094.011.14-.106.41-.391.95-1.614 3.081.84 5.6 1.984 8.55 1.117 2.469 2.156 4.543 2.563 7.168.32.113.48.254.515-.117-.808-3.711-2.57-7.05-4.101-10.27-.703-1.394-.953-2.066-.996-3-.059-1.285.648-2.906 1.277-3.332.16-.109.262-.129.41-.054.203.101.164.172-.242.87-.777 1.34-.852 2.852-.148 4.454 1.214 2.457 2.242 4.476 2.964 6.281.793 1.977 1.235 3.692 1.407 5.238 0 0 .546.23.464-.109-.328-2.164-1.086-4.41-1.91-6.316-.773-1.793-1.75-3.524-2.539-5.305-.957-2.137-.14-4.461 1.852-5.617l.914.023c-.055-.023-2.09.715-2.211 3.403-.117 2.558 1.187 4.136 2.121 6.312 1.14 2.621 2.16 4.918 2.39 7.715.09.098.59.121.583.082-.235-1.883-.82-3.672-1.653-5.875-.886-2.34-1.777-3.379-2.597-5.836-.559-1.66-.47-3.906.797-4.926 1.894-1.754 4.515-.488 3.843 1.528-.515 1.418-2.613 1.125-2.593-.207 0-.856 1.144-1.086 1.52-.434.085.125.14.68.179.7.039.019.16-.434.164-.536.008-.707-1.024-1.305-1.797-.95-1.059.485-1.75 1.61-1.688 3.122.063 1.605.372 2.644 1.778 5.172 1.636 2.941 2.168 6.12 2.511 8.265.153-.058.336.016.395 0-.227-2.918-1.246-5.921-2.523-8.421-1.547-3.028-1.977-4.876-1.446-6.227.078-.2.153-.348.246-.36.176-.023.227.235.387.778.047.168-.016.43-.055.633-.14 1.234.782 3.816 1.645 4.965.254.328.582.316.3-.262-.886-1.504-1.425-2.863-1.488-4.68-.02-.535.653-.293.668-.023.043.867.13 1.89.575 2.62.902 1.446 1.41 1.513.488-.1-.207-.376-.79-1.958-.547-2.497.133-.113.293-.129.375-.02.258.895.617 1.778 1.258 2.47.336.359.39.199.215-.25-.293-.516-1.211-2.25-.782-2.637.137-.106.059-.047.43.52.516.792.8 1.1 1.055 1.335.336.309.418.102.07-.437-.691-1.082-1.082-1.98-.836-2.204.242-.222.301-.117.848.75.242.387.594.958.715 1.094.117.133.23.168.23.059-.12-1.047-1.086-2.246-1.476-2.453-.055-.098-.032-.926-.032-.926 1.457.703 1.512 1.488 2.473 2.7.098.089.238-.02.2-.184-.036-.227-.598-1.235-.958-1.68-.277-.348-.289-.547-.05-.645.386-.16.925.375 1.492 1.325.265.445.62.699.625.468 0-.125-.489-1.265-.832-1.593-.567-.551-.282-.93.375-.422.3.23.703.406 1.117 1.242.242.488.453.555.457.164.004-.438-.785-1.512-1.32-1.809-.41-.23-.645-.488-.528-.656.367-.492 1.824.774 2.32 1.945.145.344.403.524.47.371.112-.078-.18-.921-.485-1.312-.496-.895-1.684-1.766-2.387-1.664-.137.02-.508-.711-.508-.711 1.801-.262 3.535 1.738 3.844 2.484.582 1.418.883 1.254.375.012-.996-2.43-4.121-3.805-5.867-2.64-.992.664-.41 2.265.61 2 .405-.141.8-.52.09-.395-.794.066-1.04-1.047-.231-1.27 1.3-.351 1.586 1.563.535 1.985-1.09.426-2.172-.223-2.063-1.328.203-2.086 2.985-2.676 5.715-.973.766.477 1.707 2.031 2.027 3.016.106.324.47.437.512.398.106-.098-.75-1.824-1.031-2.266-1.18-2.53-5.492-2.675-5.492-2.543 0 0-1.696.973-3.207 2.586l-3.852-.347C48.105 81.434 49 60 39.012 44.773c.129.079 1.933.516 2.558.067.461-.2.594-.27 1.102-.098.57.192 1.172.028 1.797-.496.472-.394.48-.52.785-.48.894.113 1.488-.371 1.68-1.563.074-.465.129-.953.054-.883-.043.043-.148.446-.215.7-.187.703-.355.957-.652 1.183-.488.375-.766.164-.562-.406.195-.367.359-1.317.097-1.75-.043-.078-.058.219-.125.453-.543 1.863-1.105 2.809-2.066 3.023-.453.102-.66.04-.516-.203 1.707-1.664 1.606-3.515 1.477-3.36-.367 1.071-1.047 2.665-2.153 3.317-.953.563-2.343.61-3.117.13-.437-.27.227-.348 1.223-.356 1.676-.012 3.254-2.074 3.004-3.82-.059-.325-.156.019-.293.55-.633 1.887-1.7 3.207-4.121 2.801-.192-.031-.317-.148-.418-.215-.395-.254-.246-.426.535-.328 1.754.219 3.289-1.293 3.289-3.129 0-.883-.137-.87-.293-.215-.219.922-1.012 3.758-3.844 2.817-.508-.258-.785-.586-.605-.633 1.652.316 3.172-.016 3.773-2.02a3.86 3.86 0 0 0-.054-2.422c-.079-.484-.25-.851-.309-1.343-.148-1.309-.367-2.762-.293-4.196.137-.125.16-.097.637.2.93.578 1.636.449 2.59.113 1.226-.402 1.113-.328-.172 1a6.96 6.96 0 0 0-.57.668c-.329.562.285.152.742-.379.64-.734.773-.902.902-.902.035.8-.281 1.765-.445 2.422-.215.722-.215.89.285 1.078.215.082.633.242.863.347 1.043.465.95.09.117-.351-1.12-.594-1.133-.563-.804-1.54.386-1.144.578-2.132.789-3.265.52-2.805-1.758-4.355-4.805-3.39-.172.078-.363-1.477-.332-1.887.027-.149-.461-.121-.856-.575.121-.097-4.449-5.453-6.574-8.695 12.016.043 24.086-.086 36.14-.023Zm-7.531 9.98a.193.193 0 0 1 .046.031c-.02-.02-.035-.03-.046-.03Zm10.472-9.71 12.887.062.039 25.781-1.14.023s-2.133-3.433-2.692-5.054c-.137-.406-.383-.961-.477-1.18-.218-.496-.37-.559-.078-.86.586-.6.477-1.827-.086-2.417-.172-.196-.261-.13-.25-.594.008-.402.051-.656-.062-.863-.192-.344-.32-.371-.043-.75.289-.395.672-1.04.836-1.543.265-.817.082-.973.66-.778 1.445.434 2.668-.515 2.637-1.867-.028-1.14-1.172-2.16-2.512-1.855-.309.07-.371.043-.844-.235-.136-.078-.344-.246-.52-.308-.218-.078-.402-.074-.492-.219-.175-.289-.734-.746-1.417-.719-.418.016-.957-.125-1.102-.195-.234-.117-.902-.027-1.75-.148-.379-.055-.684.082-.867.082-.52.003-.309-.055-.406-.426-.641-1.914-2.555-1.696-3.442-.262-.324.563-.562 1.402-.687 2.266l-5.149-.098Zm-39.86-.141c1.915 2.273 3.74 4.82 5.665 7.14 2.371 2.809 2.45 3.133 1.793 5.946-.367 1.59-.524 1.957-1.25 1.832-.68-.114-1.262.379-1.356 1.007-.183 1.176 1.043 1.907 2.278 1.325.656-.309.676-.34.453.683-.32 1.473-.95 2.739-1.348 2.696-1.023-2.036-3.55-.606-2.726 1.511-.266.367.078.836.207 1.223 0 0 .004.047-1.438.48-7.07 1.899-15.844 6.903-20.644 11.618l-.125-35.454Zm40.49 5.035a1.21 1.21 0 0 1 .816.281c.613.512.464 1.227-.395 2.57-.906 1.871-.668 3.348-.477 5.317-.011 1.144-.433 2.23-1.101 2.695-1.082.758-2.406-.27-1.844-1.3.29-.512.899-.208 1.043-.692.05-.293.05-.75.086-.965-.125-.863-.375-3.496-.371-4.41.016-.79.3-1.777.687-2.516.383-.613.989-.968 1.555-.98Zm1.679 3.066c-.242.188-.653.192-.7-.047.004-.246.215-1.03.36-1.117.887-.187.598.965.34 1.164Zm1.328-1.219c.73-.023 1.2 1.707.562 2.715-.12.02-1.003.012-1.011.028-.012-.184.047-.543.117-.887.058-.293.09-.52-.004-.836-.234-.793-.39-.941.336-1.02Zm1.39.032h.087c.738.008 1.156 1.332.914 2.781-.036.207-.055.422-.137.473-.309-.078-1.172.199-1.188.199-.078-.078-.043-.488.067-.86.207-.687.265-1.144.031-1.855-.168-.613-.172-.73.227-.738Zm1.844.39c.813.13.856 2.22.516 2.895-.082.098-.387.074-.496.11-.695.179-.54.277-.453-.743.058-.7.074-1.242-.035-1.82-.055-.254-.075-.434.125-.45a.921.921 0 0 1 .343.008Zm-4.066.797c.32.41.055 1.363-.195 1.715-.282.39-.399.422-.243.594.063.07.2.441.114.594-.157.285.242.34.601.515.586.29.867.813 1.301 1.77.152.336.465.23.316-.13-.128-.304-.18-.757-.265-1.058-.094-.308.012-.465.394-.37.582.136.5.01.715-.063.465-.235.774.105.492.289-.16.11-.504.172-.886.265-.325.082-.25.371.074.371.3 0 1.164-.218 1.726-.375 1.61-.445 1.665-.683 1.508.164-.203 1.122-.867 1.961-1.96 2.239-.954.246-3.145.187-4.122-.11-.926-.394-.984-.668-1.261-1.425-.38-1.04-.594-2.797-.149-3.813.395-.863.356-.77.727-.726.332.109.777-.008.879-.196.05-.09.175-.254.234-.25Zm6.156.653c.09.46.098.933-.078 1.293-.102.164-.664.152-.883.156-.129.027-.11-1.563.031-1.735.329-.453.75-.086.93.286Zm-16.32-.356 1.594.027-.004.36-1.88-.024Zm5.574.09v.465l-2.398-.008-.02 2.926 2.684.02.011.609-3.59-.032.032-3.996Zm12.2-.035c2.456.515 1.343 3.031.421 3.18-1.152.187-2.125.062-1.8-.876.324-.636.105-1.43.199-2.007.222-.188.8-.375 1.18-.297Zm-18.555.797 2.367.03v.485l-2.707-.02Zm5.257.468c.38.004.684.29.68.641 0 .352-.308.633-.687.633-.38-.004-.684-.29-.68-.64 0-.352.308-.634.687-.634Zm6.676.286c.442.046.477.671.297.855-.234.211-.664.117-.793-.207-.117-.297.152-.664.496-.648Zm-12.597.21 3.027.024-.004.39-3.059.008-.078-.25Zm17.046.254c.418-.007.676.32.41.598-.398.406-1.199-.223-.41-.598Zm-32.277.696c-.68.527-.14 1.054.762.554 1.945-1.074 4.797-.199 6.652.711.363.172.418-.23.059-.511-1.711-1.414-5.371-2.239-7.473-.754Zm29.352-.598c.472.008.46.555.156.746-.305.121-.356.086-.559.016-.273-.102-.066-.762.403-.762Zm1.675.02c.559.027.493 1.074-.355.691-.305-.309-.102-.695.355-.691Zm-15.656.46 2.942.04-.004.445-2.75-.04Zm-19.027.958c.8.593.55.628-.778.187-.87-.184-1.738-.074-2.285.125-.648.234-.797.164-.515-.234.758-.782 2.824-.614 3.578-.078Zm3.863 1c-.082.183-.355-.153-.73-.09-.532.09-.38.113.18.71.558.598.742.739.706.97-.05.335.051.519.41.484.176-.016.38.172.645.398.914.781 1.379 1.168 1.68 1.29 1.215.495.668-.06-.11-.563-1.293-.836-1.742-1.395-.82-1.094.98.32 2.54.148 3.313-.277.378-.211.617-.532 1.152-.371.746.226 1.035-.184.828-.414-.34-.204-1.113-.45-1.848-.915-1.57-.75-3.226-.734-4.336-.144-.652.352-.879.102-.238-.242 2.567-1.27 4.586-.035 6.219.894.281.16.48.149.48.035-.039-.37-.77-.601-1.062-.77-2.274-1.3-4.672-1.726-6.469.099Zm15.543-1.059 2.559.012-.004.468-2.367-.02Zm-20.816.496c.71 0 2.25.598 2.218 1.086-.03.188-.414.02-.75-.172-.644-.371-1.64-.476-2.578-.316-.718.117-.945.226-1.05.148-.243-.52 1.503-.746 2.16-.746Zm27.656.484v.84c-1.39.086-1.684 1.52-.797 2.32.727.657 1.934.407 2.547-.519.11-.164.121-.262.183-.18.043.051.079.207.11.36.094.441-.043.554-.36.93-.511.609-.585 1.374-.269 1.949.086.16.266.386.234.488.18-.004-1.601 4.547-4.175 6.832-.434.266-.743-.05-.52-.477 2.113-4.418-1.855-8.554-3.383-12.523Zm-18.563.672.368.032c-.305 2.043-2.438 1.703-2.512.039l.308-.008c.407 1.547 1.836.922 1.836-.063Zm-12.046-.015s.152.23.152.355c0 .477-.016 1.164-.027 1.371-.137 1.965-2.82 2.317-2.606.637.16-.715 1.133-.79 1.367-.14.344.812.41-.196.418-.508.29-.497.5-1.094.696-1.715Zm12.93.203c.109.004.308.094.46.246.176.18.11.266-.305.46-.445.212-.648.192-.484-.237.102-.27.188-.473.328-.47Zm20.073.199c.063.004.215.078.18.293-.062.355-.398.555-.484.473.058-.188.125-.692.304-.766Zm-23.28.578c-.056.145-.145.078-.38-.105-.258-.207-.242-.336.024-.48.386-.216.406.452.355.585Zm-8.122-.574c.441 1.316 1.352 1.156 1.766.074l.394-.004c-.097 1.692-2.402 1.649-2.414.012Zm-.809.16c.137-.02.036.418.036.418s-.38-.184-.157-.371a.318.318 0 0 1 .121-.047Zm3.387.129c.047-.004.133.031.23.09.223.137.184.219-.074.418-.394.3-.574.133-.359-.278.082-.152.14-.23.203-.23Zm29.453.43c.168-.012.399.062.895.183 1.363.344 3.191.34 4.746-.047.492-.125.852.676.582 1.258-.117.254-.098.285.258.633.504.492.582 1.281.191 2-.281.52-.261.473.067 1.367.148.41.34.828.375.938.414 1.32 1.441 2.879 2.066 4.18.625.917-1.133.007-1.133.007s.469.59 1.098 1.035c.61.434 1.808.149 2.355.676.13.164-.144 3.653-.273 3.746-5.426-.258-14.477-.117-14.477-.117l1.684 2.461c2.66 1.004 5.21.77 7.66-.645-.062.204 2.961 1.594 5.445 1.758l.008 1.653c-1.844-.203-3.715-.25-5.426-1.262 0 0-1.578.605-3.16 1.055l8.793 8.539-.004 1.418s-3.754-3.29-7.617-6.996l-.02 18.136 7.65.176c-.267 4.719-.188 7.723-.165 13.129-3.637 3.426-8.629 6.848-13.234 8.894-2.16-1.953-3.942-4.066-5.496-6.324-.032-.047.16-.136.128-.183-.05-.07-.32-.098-.37-.164-.946-1.329-3.15-5.004-2.798-5.09.68.047 3.833-.297 4.47-2.047.007-.113-.063-.426.023-.793.226-.95.347-2.39-.024-3.309-.668-1.66 1.367-1.117 1.438-1.007l.031-6.247c-2.66 1.961-5.348 3.887-8.895 4.684-2.144-10.328 1.422-23.14 11.434-31.793l-.547-.047C61.246 53.2 58.5 64 60.184 75.402c0 0 .062.356.07.477.023.285-.05.39-.324.594-.258.156-.496.328-.473.52.043.366-.336.378-.832.37-.227-.183-.535.047-.719.133-.258.031-.379-.941-.71-.23-.13.453-.364.484-.91.257-.345-.093-.352.063-.024.434.453.457.836 1.145.758 1.348-.168.457-.098.918.597 1.187-.039 0-.43 1.395.653 1.36.343.007 1.214.175 1.214.175.059.266-.035.418-.172.535l-.75-.355-.203.832-1.004-.07 2.426 2.808.297-2.18 2.852.348c.453 1.11 3.3 7.262 8.78 11.856 0 0-3.015 1.203-3.862 1.582l-.516-1.742-.477.629-.84-.207-.1.714-.755.223 1.305.922-3.371.933c-9.528-14.44-13.766-34.46-1.676-55.55l3.023.05-.593.934.859-.121.238.684.633-.274.629.742.734-1.972s2.145.054 2.41.03c.212-.019 4.547-3.362 4.458-3.491-.067-.094-4.723 3.031-4.875 2.91 0 0-.47.101-.102-.3.652-.72 1.117-1.27 1.781-2.306 1.102-1.375 1.602-3.054 1.864-4.191.003-.082.03-.266-.043-.398-.41-.77-.317-1.27.437-2.172.262-.317.281-.395.207-.59-.168-.438-.004-.813.344-1.11.137-.113.226-.171.355-.175Zm-25.5 2.937c1.895.735.364 2.328-1.039.926-.734-.738-1.32-.695-1.722-.16-.184.238.078.664.312.531.219-.125.442-.27.758 0 2.387 2.066 4.129-.8 2.062-1.523-.253-.11-.62.129-.37.226Zm-7.816-.11c.02 0 .039.009.066.028.09.05.094.778 0 1.082-.308 1.543-1.515 5.13-3.937 3.36-.965-.704-.074-2.454 1.078-1.852.902.469.285 1.578-.688.934-.476-.309-.328.328.075.511.675.336 1.91-.226 2.492-1.23.234-.403.453-1.11.7-2.133.124-.512.136-.695.214-.7Zm.191 2.68c.196 1.118-.734 3.07-2.039 3.352-1 .215-2.23-.394-2.136-.953.027-.16.097.055 1 .195 1.261.203 2.066-.426 2.804-1.883.23-.457.328-.703.371-.71Zm3.137.547c0 .13-.066.461-.125.68-.137.523-.223.723.395.465.41-.172 1.007-.344 1.62-.024.68.356 1.333.293 2.133-.02.7-.21 1.04-.21 1.426 0 .707.384.465.138.38-.815-.06-.676-.259-.586-.516-.333-.168.165-.504.2-.88.012-.449-.226-1.074-.125-1.285.035-.21.157-.515.176-.925-.082-.27-.172-.422-.086-.758.051-.55.227-.762.106-1.063-.113-.27-.184-.394-.13-.402.144Zm-2.738.79c.074 0 .082.257.027.777-.242 1.914-1.863 2.976-3.758 2.039-.832-.445-.715-.758.102-.477 1.305.446 2.629-.164 3.285-1.734.168-.402.281-.606.344-.606Zm4.636 1.39c.938.367 1.981.258 2.247-.062.3-.36-.157-.301-.395-.25-.824.18-1.39.109-1.723-.028-.972-.355-.914.024-.129.34Zm-9.816 1.027c1.211 1.391 1.367 1.664 2.41 3.243 7.61 12.14 9.98 27.449 4.856 41.308-1.407 3.824-3.383 7.719-5.59 10.848l-2.629.012.906-.954-1.222.079-.07-.633-.93.273-.442-.953-.855 2.18-4.871-.012c11.468-10.246 13.785-22.715 11.714-32.742 0 0 .957-.55 1.094-.875.031-.078.106-.414.168-.461.426-.258.711-.504.918-.453.121.027.184.078.27.199.398.547.484.633.707.082.16-.395.093-.535.61-.457.304.148.706.148.67.09-.026-.04-.456-.512-.655-.778-.48-.632-.617-.746-.57-1.023.07-.418-.29-.875-.512-.988.07-1.133-.399-1.246-1.723-1.508a1.002 1.002 0 0 1 .125-.527l.777.582.29-1.07 1.054.058-3.047-2.766c.012.778.047 1.563-.035 2.309-1.434-.078-2.848-.516-2.871-.434-2.082-4.62-5.27-8.535-8.645-11.593l3.395-1.497.953 1.708.238-.965.84.144.145-.617.93-.117-1.02-.91Zm20.16 2.086c.13.153.235.164.407.301l-.348.227a1.332 1.332 0 0 0-.059-.528Zm-22.543.457c-.285 0-.523.22-.523.485s.23.484.52.484c.288 0 .519-.215.523-.48 0-.266-.23-.485-.52-.489Zm2.828.094c-.289-.004-.523.211-.523.48-.004.27.23.485.516.489.289 0 .523-.215.527-.484 0-.266-.23-.485-.52-.485Zm-9.109.309c1.672 1.3 3.203 2.996 5.059 5.644l-.04.356.57.199s3.09 3.82 2.915 5.512c-1.066.199-1.895-.172-3.813 1.48l-1.226-.254-1.293.285s.016.375.336.504c.14.055.375-.468.523-.453.63.07 1.262.082 1.145.266-.133.05-.492 3.828.16 4.636.36.82.098.813-.23.965-.36.211-1.477-.25-1.477-.25l.223 6.004c2.98-3.12 9.242-5.183 8.796-4.957 3.051 15.406-4.468 25.637-12.316 33.125l4.09.04s-3.555 5.238-3.828 6.69c.199.485.75 1.485-.192 2.184-.32.32-.363 1.785-.363 1.785-2.148.059-4.012-.644-6.496.153-.258.078-.305-1.258-.316-1.496-.758-.668-.872-2.016-.211-2.711.246-.258.14-.121-.059-.996-.316-1.391-1.394-3.305-2.219-4.535a11.124 11.124 0 0 1-.601-1.016c-.59-.656-2.149-.363-2.336-.535-.172-.137-.262-3.696-.086-3.778 6.129.48 15.726.008 15.726.008l-2.554-3.351c-3.164-1.164-7.535.777-7.328.879.011.011-3.473-1.786-5.895-1.543l.086-1.747c2.156.004 4.137.387 5.867 1.344l2.953-1.004-8.98-8.843.113-1.45s2.293 2.305 4.785 4.77c2.14 2.11 2.942 2.469 2.942 2.469l.11-18.246-7.763-.06-.187-3.726-.2-.328-.074-2.676.215-.27-.066-1.144-.074-.164-.082-2.734.168-.23.035-1.72c3.77-3.394 13.488-9.081 13.488-9.081Zm6.629.55L34.723 48l.609-.695.93.273.07-.848.852-.27Zm30.848.762c-.286 0-.524.215-.524.485 0 .265.23.484.52.484.289.004.523-.215.523-.48.004-.27-.23-.489-.52-.489Zm-2.442.293c-.289-.004-.523.215-.527.48 0 .27.23.485.52.489.288 0 .523-.215.527-.484 0-.266-.235-.485-.52-.485Zm-29.918.281c-.289 0-.523.215-.523.485-.004.265.23.484.52.484.284.004.519-.21.523-.48 0-.27-.23-.485-.52-.489Zm31.785.45-3.648 3.152 1.016-.035.18.926.913-.383.73.637Zm1.54 1.07c-.29 0-.524.215-.524.484-.004.266.23.485.52.489.289 0 .523-.215.523-.485 0-.265-.23-.484-.52-.488Zm-28.883.484c-.29 0-.524.215-.524.485-.004.265.23.484.52.484.285.004.523-.21.523-.48 0-.266-.23-.485-.52-.489Zm2.257.418c-.289-.004-.523.215-.527.48 0 .27.23.49.52.49.289 0 .523-.216.523-.481.004-.27-.23-.489-.516-.489Zm-2.054.711c.093 1.297.246 2.832.277 4.133l.691-.625.793.3.29-.792.863-.035Zm22.355 1.192c-.289-.004-.523.21-.527.48 0 .266.23.484.52.488.288 0 .523-.214.523-.484.004-.266-.23-.484-.516-.484Zm-23.86-.032c-.288-.004-.523.211-.523.48-.004.267.23.485.52.49.285 0 .523-.216.523-.485 0-.266-.23-.485-.52-.485Zm25.927.243c-.29 0-.524.214-.524.48-.004.27.27.488.516.488s.523-.215.527-.48c0-.27-.23-.488-.52-.488Zm-.317 1.046-3.027 2.86.988.09.305.816.633-.492.761.523Zm1.653.622c-.29 0-.524.214-.528.484 0 .266.23.484.52.488.289 0 .523-.215.523-.484.004-.266-.23-.485-.515-.488Zm-23.743.78c-.289 0-.523.216-.527.485 0 .266.234.485.52.488.289 0 .523-.253.527-.484 0-.226-.234-.484-.52-.488Zm-12.789.235-.984.696.242-.036s.59.645.59.688c0 .047.363-.008.363-.008Zm15.25.5c-.285-.004-.52.211-.523.48 0 .266.23.485.52.489.288 0 .523-.215.523-.484.004-.266-.23-.485-.52-.485Zm-3.742.672c-.285-.004-.52.215-.523.48 0 .27.23.489.52.489.288 0 .523-.215.523-.48.004-.27-.23-.489-.52-.489Zm21.555 1.082c-.29-.004-.524.215-.524.48-.004.27.23.485.516.489.29 0 .523-.215.527-.485 0-.265-.23-.484-.52-.484Zm-2.063.7c-.289 0-.523.214-.527.484 0 .265.23.484.52.484.289.004.523-.215.523-.48.004-.27-.23-.485-.516-.489Zm21.02.222 1.078 1.102-.09 16.011-1.058.016Zm-42.211-.094c.883.008 1.867.13 2.18.63.484.562-.551.339-1.426.46-.809.086-.34.242.797.309 1.57.093 2.187.132 2.418.472.129.313.03.524.058.86l-1.781-.086c-.922-.004-1.465-.024-1.742.043-.219.05-.156.21-.082.281.039.039.75.05 1.578.074 2.226.067 2.719.137 2.875.805.117.61-.422.516-2.711.273-1.016-.082-1.566.137-1.715.203-.254.114.727.23 1.047.184.2-.027 1.668.129 2.21.223.454.066.056.054-.179.308-.152.215-.105.457-.343.578-.293.141-.872.137-1.91.133-1.188-.008-1.743.258-.114.332 1.05.047 1.113.032 1.2.313.234.699-.274.82-1.348.972-.516.079-1.274.028-1.852-.011-2.27-.16-3.055-.668-3.355-1.598-1.125-3.477.3-5.59 3.609-5.742.184-.008.383-.016.586-.016Zm22.965.27-2.586 3.453.988-.352.469.942.793-.524.789.457Zm-19.2.328c.133.148.075.262-.148.375-.184.09-.504.02-.71-.067-.274-.109-.302-.566-.075-.617.328-.058.73.086.934.309Zm-18.581-.27-1.41 1.243.042.046 1.852-.668Zm39.374.727c-.289-.004-.523.21-.523.48-.004.266.23.485.52.489.285 0 .523-.215.523-.485 0-.265-.23-.484-.52-.484Zm19.102.512s1.297 1.203 1.832 1.71l-.484-.003.008.945 1.543.023.847.778-2.363-.024-.004.965 2.922.016-.012-.41 1.149.976.078 10.738-5.57-.043c.007-5.289.05-10.386.054-15.671Zm-38.23.976c-.079.23-.258.23-.563.113-.453-.171-.387-.636-.043-.683.649-.063.766.215.606.57Zm1.754.211c-.29 0-.524.215-.524.48-.004.27.23.489.52.489.289.004.523-.215.523-.48 0-.27-.23-.489-.52-.489Zm-1.84.363c.203.012.406.11.523.215.281.27.18.52-.14.672-.36.172-.61-.066-.711-.46-.07-.266.097-.419.328-.427Zm16.375 1.352a.507.507 0 0 0-.528.484c0 .266.235.485.524.489.289 0 .523-.215.527-.485 0-.27-.234-.488-.523-.488Zm-17.25.504c.449.016.586.445.347.672-.336.308-.86.172-.933-.125-.02-.332.273-.547.586-.547Zm15.375.273c-.285-.004-.524.215-.524.48 0 .27.23.49.52.49.289 0 .523-.216.523-.485.004-.266-.23-.485-.52-.485Zm1.851.328-2.355 3.63.949-.344.566.707.594-.477.89.41Zm-18.328.52c.418.004.531.309.227.59-.207.187-.442.191-.676.015-.36-.27-.082-.609.45-.605Zm19.961.145c-.289-.004-.523.21-.523.48s.23.484.52.488c.288 0 .523-.215.523-.484 0-.266-.23-.484-.52-.484Zm-17.004.296c-.289 0-.5.215-.504.485 0 .265.23.484.52.484.289.004.523-.21.523-.48.004-.27-.25-.485-.539-.489Zm38.692.297-.008 1.028 2.945.015.004-1.027Zm-38.66.727-1.15 3.816.95-.492.582.559.551-.621.984.242Zm2.003.422c-.289 0-.523.215-.523.484-.004.266.23.484.515.488.29 0 .524-.215.528-.484 0-.266-.23-.484-.52-.488Zm-3.675.18c-.29-.005-.524.214-.524.48-.004.27.23.484.52.488.285 0 .52-.215.523-.484 0-.266-.23-.485-.52-.485Zm40.32.495-.004.926 2.941.012.004-.918Zm-24.227 1.09c-.289 0-.523.215-.523.485 0 .265.23.484.52.484.288.004.523-.215.523-.48.004-.27-.23-.485-.52-.489ZM81 66.332l-.008.992 2.945.016.004-.996Zm-60.68-.176 1.035.024-.082 17.347-1.003-.996Zm-.433.031-.14 15.856-1.95-1.926.52-.004.007-1.078-1.699-.02-.719-.66 2.418.012.008-1.058-2.871-.024-.004.64-1.406-1.405.082-10.352Zm36.965.665-1.59 3.765.988-.52.512.473.527-.441.898.41Zm-41.329-.02-.02 1.016 2.9.011.007-1.011Zm43.106.414c-.29 0-.524.215-.524.48 0 .27.23.489.52.489.29.004.523-.215.523-.48.004-.27-.23-.489-.52-.489Zm-3.55.04c-.29-.005-.524.21-.524.48-.004.265.23.484.52.488.284 0 .519-.215.523-.484 0-.266-.23-.485-.52-.485Zm-12.282.116c-.29 0-.524.215-.524.485-.003.265.23.484.52.488.285 0 .52-.215.523-.484 0-.266-.23-.485-.52-.489Zm38.191.578-.004 1.067 2.942.016.008-1.067Zm-38.261.418-.438.622-1-.32 1.344 3.835 1.73-3.984-.984.515Zm-27.211.145-.008 1.012 2.887.015.003-1.015ZM80.98 69.77l-.007 1.054 2.941.016.008-1.059Zm-65.476.566-.004 1.012 2.883.015.008-1.015Zm41.289.39a.507.507 0 0 0-.527.485c0 .27.234.488.523.488.29 0 .523-.215.523-.484.004-.27-.23-.488-.519-.488Zm-15.715.43c-.289 0-.523.215-.523.485-.004.27.23.488.52.488.288 0 .523-.215.527-.484 0-.27-.235-.489-.524-.489Zm3.352.106c-.29 0-.528.218-.528.484-.004.27.23.488.52.492.289 0 .527-.218.527-.484 0-.27-.23-.488-.52-.492Zm36.539.246-.004.953 2.941.016.004-.954Zm-24.188.328-.625.605-.894-.238 2.011 3.527 1.047-3.78-.898.527Zm-41.285.156-.008 1.153 2.887.015.004-1.152Zm27.227.656c-.29-.003-.528.215-.528.485s.23.488.52.488c.293 0 .527-.215.527-.484.004-.27-.23-.489-.52-.489Zm-.04 1.004c-.226.145-.324.403-.558.535l-.953-.382.547 4.797 2.676-4.52-1.215.184Zm-27.199.024-.004 1.195 2.883.016.008-1.2Zm43.332.765c-.289 0-.527.215-.527.485s.23.488.52.488c.289.004.527-.215.527-.484.004-.27-.23-.489-.52-.489Zm-3.39.04c-.29 0-.524.214-.524.484-.004.27.23.488.52.488a.507.507 0 0 0 .527-.484c0-.27-.234-.489-.523-.489Zm-39.95.933-.007 1.2 2.886.015.008-1.203Zm41.833.469c-.29 0-.524.215-.528.484 0 .27.235.488.524.492.289 0 .523-.218.527-.484 0-.27-.234-.488-.523-.492Zm7.398.074c2.805.098 3.211.938 3.211 3.832 0 2.313-.746 3.211-2.559 3.648-.66.157-3.129-.003-3.824-.214-.012-.2-.36-.66-.433-1.012.175-.047.742.027 1.808.129.863.078 1.086-.05.817-.207-1.63-.367-2.739-.274-4.301-.559-.02-.437-.395-.945-.395-.945.086-.031 2.41.215 3.637.183.543-.019.219-.253 0-.3-1.43-.196-2.36-.172-3.871-.356.043-.36-.152-.687-.395-.96 0 0 .766-.005 2.344.027.828.015 1.55.05 1.914.039.61.004.559-.262.028-.301-.645-.07-3.18-.094-3.18-.094.187-.082.441-1.137.344-1.148 0 0 .656.015 1.074.004 2.035-.063 2.386-.032 2.426-.102.265-.223-.454-.316-1.207-.316-.325-.004-.797.062-.793-.102.003-.152 0-.46-.164-.781 1.25-.438 2.398-.5 3.519-.465Zm-24.195.477c-.29 0-.528.214-.528.484s.23.488.52.488c.289.004.527-.215.527-.48.004-.27-.23-.489-.52-.492Zm20.015.199c.344.004.45.582.125.672-.5.132-.77.023-.75-.25.012-.153.399-.422.625-.422Zm-16.597.422c-.29 0-.528.215-.528.484 0 .27.23.488.524.488.289.004.523-.215.523-.484.004-.266-.23-.484-.52-.488Zm14.918.62c1.187-.003.562 1.49-.344.946-.453-.27-.129-.945.344-.945ZM40.09 78.782c-.024-.004-.04.02-.035.074l.246 4.555 2.879-4.238-1.137.387-.484-.692-.614.445c-.254.184-.726-.519-.855-.53Zm17.648.551c.532.07.883.57.516.805-.836.336-1.274-.774-.516-.805Zm-1.281.992c-.289 0-.527.215-.527.485-.004.27.23.488.52.492.288 0 .527-.219.527-.485.003-.27-.23-.488-.52-.492Zm2.012.422c.453-.004.664.61.215.797-.098.043-.38.07-.504-.016-.528-.367-.254-.746.289-.78Zm-19.621.656c-.293 0-.528.215-.528.485-.004.27.23.488.52.488.289.004.527-.215.527-.484 0-.266-.23-.489-.52-.489Zm40.02.805-1.946.598-.004.851c.848-.246 1.336-.883 1.95-1.449Zm-18.204.324c.34.133.426.555.137.696-.23.113-.848.093-.996-.094-.39-.586.453-.746.86-.602Zm-18.305.078c-.289 0-.527.215-.527.485-.004.27.23.488.52.488.289.004.527-.215.527-.484.004-.266-.23-.489-.52-.489Zm-2.152.832c-.254-.004-.465.188-.465.426s.203.43.461.43a.446.446 0 0 0 .465-.426c0-.238-.207-.43-.461-.43Zm21.777.829c-.289 0-.527.214-.527.484s.23.488.52.488c.289.004.527-.215.527-.484.004-.27-.23-.488-.52-.488Zm-23.468-.086-.051 4.296 3.11-3.503-1.075.21-.453-.87-.664.394Zm19.593 1.086c-.289-.004-.523.214-.523.484-.004.266.23.484.52.488.289 0 .527-.215.527-.484 0-.27-.23-.488-.524-.488Zm15.457.09-.511.8 1.441-.734Zm-13.367.507a.507.507 0 0 0-.527.485c0 .265.234.488.523.488.29 0 .524-.215.528-.485 0-.27-.235-.488-.524-.488Zm1.762.531-.629.829-.824-.25-.25.789-.988-.04 3.203 2.618Zm-25.09.211c-.289 0-.523.215-.523.485-.004.27.23.488.52.488a.507.507 0 0 0 .527-.484c0-.266-.235-.485-.524-.489Zm48.262.934.058 35.66-18.3-.055-7.48-9.59c-.145-1.558-.048-3.156.671-5.242.734.48 2.348.227 2.305-1.609-.032-1.203-2.024-1.828-3.024-.93.059-1.16.578-2.906 1.313-3.418.5.426.605 1.055 1.746.883.808-.117 1.453-.953 1.105-1.933a2.535 2.535 0 0 1-.132-.75c.003-.204.027-.563-.016-.762-.055-.266-.074-.55-.074-.55 9.765-2.798 16.761-7.31 21.828-11.704Zm-44.598.394c-.289 0-.527.215-.527.485-.004.27.23.488.52.492.288 0 .527-.219.527-.484 0-.27-.23-.489-.52-.493Zm-2.476.465c-.29 0-.524.215-.524.485-.004.27.23.488.52.488.289 0 .523-.215.527-.484 0-.27-.234-.489-.523-.489Zm25.93.36c-.294 0-.528.215-.528.484-.004.27.23.488.52.488.289.004.527-.214.527-.484 0-.266-.23-.484-.52-.488Zm-27.813.386-.84 4.524 3.586-3.367-.969-.024-.187-.773-.91.265Zm24.25 1.082c-.29 0-.524.215-.528.485 0 .27.235.488.524.488.289.004.523-.215.523-.484.004-.266-.23-.485-.52-.489Zm2.308.54c-.289 0-.523.214-.527.484 0 .27.234.488.523.488.29.004.524-.215.528-.48 0-.27-.235-.489-.524-.492Zm-28.793.453c-.289-.004-.523.215-.523.484-.004.266.23.488.52.488.289 0 .523-.215.527-.484 0-.27-.235-.488-.524-.488Zm30.875.515-.859.598-.781-.45-.192.962-.668.324 2.797 1.84Zm2.067 1.309c-.29-.004-.528.215-.528.48 0 .27.23.489.524.493.289 0 .523-.215.523-.485.004-.27-.23-.488-.52-.488Zm-29.633.02c-.29-.004-.523.214-.523.484-.004.265.23.484.52.488.288 0 .526-.215.526-.484 0-.27-.23-.489-.523-.489Zm-2.328.62c-.29 0-.527.22-.527.485 0 .27.23.488.52.492.292 0 .526-.215.526-.484.004-.27-.23-.489-.52-.493Zm30.605 1.438c-.289 0-.523.215-.527.484 0 .27.234.489.523.489.29 0 .524-.215.528-.485 0-.27-.235-.488-.524-.488Zm-2.199.426c-.289-.004-.523.215-.523.484-.004.266.23.488.52.488.288 0 .523-.214.527-.484 0-.27-.235-.488-.524-.488Zm-20.289.594c.004 0 .008 0 .008.003.062.059.238.504.078.727-.086-.035-.46-.363-.363-.473.047-.05.23-.257.277-.257Zm-11.894.703s.507.027.617.074c0 .121-.121.383-.262.676-.691 1.468-.805 3.117-.121 4.707 1.078 2.164 4.129 7.277 3.898 7.746l-6.8-.008.035-.961c1.91-.062 2.215-1.144 1.746-2.043-.328-.625-1.254-.984-2.102-.664-1.222.469-1.3 1.027-1.742 1.895l-.195-.23c.37-.45.496-.888.468-1.384-.027-.488-.042-.351.141-.617 1.07-1.059.383-2.445.383-2.445-.125-.848 3.219-6.25 3.934-6.746Zm-15.551.066c1.926 1.438 3.57 6.262 3.469 6.336-.086-.07-1.567 1.54.007 3.05 0 0-.101.903.2 1.368-.707 1.344-.829 1.445-.895 2.55-.012-.003-.121-.011-.77-.019-3.207-.027-3.375 3.754-.175 3.977.437.031.59-.059.851.183.27.313.508.621.965.465.11 0 .285.098.469.258.305.387.75.664 1.387.563.226.02.457.082.703.164.277.207.765.367 1.144.214a.727.727 0 0 1 .512.016c.46.2.934.078 1.105-.047.434-.203.528.13.504.434-.222.703.254 1.36.985 1.62 1.535.45 2.316-.425 2.656-2.167.086-.383.16-.836.16-.836l5.152.152-7.445 7.926-12.594.082.082-26.308c.555-.028.973.015 1.528.02ZM61.91 98.56c.938.34 1.008.957.074.683-1.515-.441-3.156.414-3.504 1.645-.066.226-.132.398-.171.441-.215.238-.204.02-.137-.664.133-1.328 1.148-2.285 2.469-2.316.43.004.894.09 1.27.21Zm-.472.937c.394 0 .808.11 1.12.363.348.36.243.598-.027.586-1.27-.5-2.894.09-3.535 1.578-.394.915-.46.422-.285-.285.324-1.281 1.383-2.226 2.727-2.242Zm-8.856.309c-.555 0-1.082.101-1.352.336-.515.445-.09.453.836.16.45-.145 1.317-.074 1.868.11.46.148.625.214.601.077-.023-.402-1.027-.68-1.953-.683Zm10.371 1.55c.23.5.074 1.375-.742 1.461-.969.098-1.457-1.406.305-1.132-.227-.602-1.02-.442-1.41-.29-.797.317-1.34 1.04-1.836 2.372-.149.394-.254.601-.31.562-.093-.07-.132-.683.087-1.422.39-1.332 1.328-2.133 2.32-2.152.64-.09 1.387.168 1.586.601Zm-13.8-.644c-.087.016.062.297.292.734.13.239.22.551.215.614 0 .234.195.296.48.144.337-.172.387-.305.856-.11.441.22.875.356 1.281.141.22-.117.364-.113.785-.007.508.128.575.148.95 0 .484-.184 1.054-.051 1.175.074.118.12.051-.047.317-.61.121-.261.297-.578.25-.668-.063-.12-.504.012-.98.125-.262.063-.508.043-1-.09-1.047-.277-1.704-.203-2.36.083-.367.16-1.285-.067-2.207-.422-.023-.008-.043-.012-.055-.008Zm2.042 2.61a1.228 1.228 0 0 0-1.101.64c-.23.523.152 1.477.742 1.559.523.074.504-.223.242-.305-.398-.121-.867-.656-.558-1.117.21-.317.84-.309 1.277.082.879.793 1.894.851 2.09.168.058-.274-.164-.641-.508-.543-.27.078-.887.097-1.402-.23a1.497 1.497 0 0 0-.782-.255Zm9.325 2.546c2.257-.113 1.27 2.746-.028 2.004-.465-.266-.254-1.23.985-1.207-1.207-.883-2.043.184-1.75 1.383-.278.39-.356 1.137-.536 1.558-.277.48-.488-.785-.203-2.003.274-1.18.73-1.696 1.532-1.735Zm-12.77.04c-.469 0 .008.468.082.523 1.398 1.035 2.082 1.672.953 1.328-1.832-.414-2.308.062-3.71.629-.259.113-.333.043-.641-.043-1.227-.344-1.141.37.14 1.027 1.934.984 3.535 1.211 5.047.488.969-.464 1.02-.156.113.36-1.547.824-3.168.691-5.652-.762-.805-.469-.918-.16-.098.336 1.875 1.062 4.407 2.035 6.485.484.41-.332.492-.507.804-.359.825.387.555-.285-.003-.914-.2-.223-.344-.406-.333-.559.051-.543-.273-.543-.57-.53-.355.015-.316-.099-.75-.544-.629-.652-1.402-1.348-1.867-1.465Zm-18.805 2.812c-.78.05-.96.082-.78 1.57.034.281.163 1.121.198 1.434.442 3.898.059 5.617-1.113 6.09a1.561 1.561 0 0 1-1.14-.012c-.739-.278-1.04-1.114-.497-2.106.145-.265.325-.68.395-.914.07-.238.23-.761.355-1.164.301-.976.469-2.46.301-3.879-.11-.965-.086-1.047.176-1.695.574-.957.945-1.445 2.14-1.453 1.336.137 1.7 2.015-.035 2.129Zm28.727.054-.363.012c-.434-1.363-1.356-.926-1.516.028l-.309-.004c.063-1.817 2.508-1.313 2.188-.036ZM23.34 107.59c2.492.238 2.945.816 3.125 3.617.012 1.356-.09 2.172-.317 2.48-.375.165-.73-.148-1.265.165-.293.164-.238.18-.363 0-.118-.172.027-.883.222-1.454.184-.543-.125-.863-.949-1.566-.223-.187-.418-.453-.617-.828-.422-1.074-.645-.602-.29.324.173.399.216.594-.323.422-.317-.105-.59.012-.836.133-.688.16-1.274-.192-.68-.399.363-.125 1.012-.304 1.21-.304.15.004.22-.028.22-.09.003-.27-1.32-.246-2.329.07-1.242.524-1.312.43-1.191-.394.3-2.086 2.395-2.329 4.383-2.176Zm24.406.3c.637-.023 1.219.657 1.098 1.235l-.301-.02c-.137-1.085-1.242-1.14-1.543.075l-.438.007c.282-.937.747-1.28 1.184-1.296Zm7.418.055c.25.14.074.516-.195.59-.102.024-.422-.187-.344-.312.145-.153.367-.23.54-.278Zm2.86.2c.175 0 .402.085.433.304.008.32-.258.254-.344.223-.172-.149-.238-.516-.09-.527Zm-8.75.214c.464.055.632.602.101.633-.234.043-.242-.504-.102-.633Zm-2.848.047c.054 0-.031.446-.149.512-.234.129-.527-.016-.515-.148.027-.325.449-.368.664-.364Zm8.156 1.13c.89.316 2.047.624 3.14.276.4-.136.715-.3.715-.144-.003.164-.32.41-.89.559-1.172.296-2.024.175-2.824-.391-.227-.16-.309-.305-.141-.3Zm-.371.464c1.441.79 2.746.875 3.926.309.476-.153.488-.012.488.273-2.129 1.715-4.762-.09-4.414-.582Zm-35.484 1.02c-.364.668-.567 2.324-1.153 2.808-3.992-.23-1.398-5.11 1.153-2.808Zm24.75-.43c-.227.11-.028.637.324.781 3.05 1.238 4.613 1.39 6.355.836.719-.23 1.117-.773 1.153-1.039.046-.316-.418-.348-1.235-.02-2.48.891-4.031.18-6.027-.527a.89.89 0 0 0-.57-.031Zm-11.696-.016-.035 4.133-2.906-.062.035-.61 2.18.07-.02-2.953-2.527-.035v-.547Zm.676.012 2.902.02.141.421-3.047-.015Zm-11.719 1.258c-.191.156-.523.191-.66.062-.305-.293.008-.82.5-.812.488.004.527.445.16.75Zm1.344-.668c.438.004.582.386.246.691-.226.188-.344.203-.547.059-.254-.207-.117-.739.301-.75Zm-2.867.09c.117-.004.219.007.293.113.262.508-.613.855-.797.476-.133-.304.21-.582.504-.59Zm16.414.132.164.536-3.344-.004.004-.532Zm-11.977.098c.5.055.422.524.188.727-.399.34-.785.23-.68-.23.063-.286.266-.493.492-.497Zm-2.695 1.512c-.18.582.188 1.762.074 1.883-.246.27-.636.129-.808.035-.602-.364-.63-2.477-.043-2.602.375.18.629-.133.8-.18.172-.042.055.243-.023.864Zm8.844-.824c.332 0 .597.25.594.554 0 .305-.27.555-.598.551-.332 0-.598-.25-.594-.555 0-.308.27-.554.598-.55Zm2.644.082 3.422.015c.203.266.184.446.125.63l-3.55-.013Zm-10.047.023c.157 0 .23.309.125.664-.191.64-.187 1.512-.058 1.89.086.262.168.442.117.516-.18.258-.719.079-.95-.265-.554-.969-.452-2.778.216-2.633.254.117.398-.066.55-.172Zm-3.02.23c-.163.243-.054 1.622-.073 1.735-.02.14-.446.066-.68-.035-.578-.254-.418-.899-.3-1.414.128-.41.41-.438.753-.473.192-.02.442-.004.3.188Zm4.657.098c.184-.004.207.121.164.63-.035.398-.054.737.016 1.116.144.797.16 1.016-.059 1.168-.258.188-.601.13-.867-.09-.547-.41-.574-2.39-.14-2.562.402.098.656-.195.886-.262Zm11.813.656-.496.625-2.914-.011.003-.63Zm-10.407.79c.454.007.375.753.13 1.222-.212.281-.364.313-.673.043-.351-.305.075-1.27.543-1.266Zm9.551.257-.414.348-2.137-.012v-.347Zm0 0" style="stroke:none;fill-rule:nonzero;fill:#131f67;fill-opacity:1"/><path d="m20.758 99.328-3.531-2.601c4.214-.067 8.433.046 12.648.132l-4.227 2.77c-.859-.883-1.359-2.059-2.582-2.633-.914.344-1.543 1.547-2.308 2.332Zm31.105-.75c-.07-.012-.129-.016-.172-.043-.097-.055-.156-.18-.226-.597-1.028-4.563-6.203-4.266-6.168-4.133-.04-.18 6.46-5.575 10.289-9.809 1.129 3.258 4.57 10.703 4.426 10.676 0 0-1.008.004-3.621-.07-2.383.988-4.043 1.949-3.973 3.359-.02.492-.148.7-.324.656a3.655 3.655 0 0 0-.23-.039Zm11.7-14.617c3.367-.035 4.011-1.559 4.394-1.738 2.215-.328 3.57 1.015 4.531 2.449 1.235.7 1.082.058 1.344-1.016l3.086-.824-.008.91c-.953.473-2.37 1.684-2.37 1.684l-.938-.059-.543.664c-2.145 1.067-4.25 2.336-6.512 3.156 0 0-2.684-3.261-2.984-5.226Zm-41.934.082.066-18.027c1.395-.082 3.957-.059 3.957-.059 1.082-1.754 2.547-2.57 4.059-3.586.2 2.227.27 4.348.207 6.57-4.012 4.5-6.258 10.055-3.848 18.383l-1.472-.156Zm22.035 1.117c1.156-3.754 2.059-7.566 2.45-11.504l7.593-.066.137 2.418Zm25.898-8.082-.101-6.746c5.574-6.121 5.934-11.48 3.918-18.27 1.828.399 2.762 1.727 4.496 3.563l-.098 17.586c-1.215.164-4.218.312-4.218.312-.098.825-2.645 2.782-3.996 3.555ZM46.16 66.336l-.32-2.977 9.914-8.707c-.836 3.79-1.844 7.68-2.152 11.715Zm-16.316-9.371c-.707.426-3.29-2.09-3.703-3.778.656-.812 6.382-3.386 6.382-3.386s3.317 3.996 3.168 5.656c-1.484.36-2.77.457-3.902 1.574-.644.051-.867-.625-1.945-.066Zm-4.489-3.387c.797.121.282 1.117.153 1.844l-4.203 1.137c1.449-1.137 2.476-2.106 4.05-2.98Zm13.72-8.73c.862-.024 1.76.312 2.429.066.25-.086.746-.227 1.293-.125 1.25.363 1.7-.918 2.5-.918 1.035.008 1.613-.664 1.625-2.012.008-.582.058-.644.18-.703a.542.542 0 0 1 .773.395c.73 2.484 2.59 4.722 5.547 4.558-2.363 2.22-9.563 9.036-9.563 9.036-1.27-3.657-2.964-7.063-4.785-10.297Zm30.476-1.993 4.328-2.886 2.566 2.933 2.25-2.77c1.305.88 4.278 2.84 4.278 2.84s-8.946.079-13.422-.117Zm0 0" style="stroke:none;fill-rule:nonzero;fill:#d40000;fill-opacity:1"/><path d="m72.148 16.512-39.652.043 7.649 9.597c8.195-1.507 15.316-.468 22.707.766Zm-1.02.48-2.655 3.031c-.727-.617-2.356-.402-2.133.942-2.02-.988-2.461 1.691-.742 1.59-.22.523-1.953.656-2.438-.301-1.785.918-2.324.016-2.793-.57 2.254 1.437 3.371-1.489.883-1.668.988-1.832-2.496-2.684-2.305-.29-2.297-.496-1.789 2.512-.093 1.907-1.106 1.527-2.903.488-3.266.187-.93.64-2.68.653-3.164-.379 2.558.489 2.297-2.644.016-1.933 1.226-2.403-2.81-2.098-1.84-.121-2.293-.094-1.801 2.539.218 2.101-1.8 1.559-3.132.09-3.418.059-1.066 1.082-2.925.476-3.175-.168 1.82.68 2.437-2.168.132-2.008.602-1.832-2.71-2.07-1.992.02-1.824-.395-1.937 2.32.11 1.906.12.746-1.493 1.45-2.477.726-.726.364-1.527.938-2.465.082 1.438-.21 1.688-2.468-.636-1.992.117-1.386-.739-1.465-1.801-1.117l-1.684-2.144Zm-27.37 3.274c-.13.257-.34.433-.293.629.039.164.219.386.465.69 1.968 2.415 5.992 2.352 7.218-.116.247-.461.2-.567-.097-.957a.566.566 0 0 1 .492-.93c.652.066.766.594.445.973-.687.797 1.184 2.617 3.059 2.91 2.406.375 4.695-1.184 4.387-2.594-.02-.082-.063-.156-.082-.242-.247-1.18 1.761-.606 1.035.14-.274.274-.422.352-.387.653.57 2.496 3.836 2.777 5.398 2.012-2.027 3.035-5.195.675-5.742-1.454-2.84 3.766-6.222 2.965-8.093-.367.222.207-3.754 5.938-8.192.02-1.922 4.734-5.36 1.512-5.121 1.32 1.582.828 4.465.543 4.758-1.992.039-.313-.215-.332-.363-.582-.743-1.258 1.675-1.254 1.113-.113Zm-7.457.273c.36.035.418.172.355.512Zm30.765 1.043-.523.605c-.125-.296-.125-.57.523-.605Zm5.649.227c-1.235.043-2.195 1.62-2.145 3.734.024 1.023.203 3.594.278 3.977.101.535-.016 1.257-.22 1.332-.534.199-.737.328-.882.566-.379.613-.07 1.309.715 1.621.562.227 1.281-.078 1.77-.746.269-.371.332-.535.574-1.469.113-.43.105-1.144-.016-1.8-.273-1.497-.05-3.352.504-4.22 1-1.562.988-2.585-.035-2.913a1.668 1.668 0 0 0-.543-.082Zm-.067.238c1.438.012 1.391 1.344.594 1.75a1.144 1.144 0 0 1-1.062-.078c-.422-.23-.368.031.07.328.512.351.734.328.45 1.14-.263.758-.407 2.399-.27 3.329.37 2.55.039 3.82-1.118 4.257-.57.215-1.183-.097-1.34-.52-.242-.667.2-1.233 1.286-1.07 0 0 .078-.21-.192-2.425-.375-3.078-.207-5.223.403-5.973.328-.398.75-.738 1.18-.738Zm9.723 3.223c-.336 0-.7.082-1.066.273 0 0-.051 1.383-.094 1.594-.25 1.168-.18 1.308.406 1.476 1.422.41 2.598-.46 2.555-1.84-.027-.773-.797-1.507-1.8-1.503Zm.192.183c.777-.015 1.48.832 1.398 1.629-.047.953-1.031 1.469-1.91 1.297-.262-.04-.531-.086-.614-.266-.175-.254.11-.343.704-.34.648.008.77-.074.984-.41.43-.668-.11-1.52-.805-1.363-.238.055-.273.152.004.227.852.363.531.859.235 1.058-.356.238-.934-.094-1.032-.293l.067-1.289s.281-.246.969-.25Zm-8.817 5.942s-.324.14-.484.273c-.344.297-.418.742-.254 1.184.074.195.062.226-.2.543-.753.898-.851 1.347-.472 2.164.172.37.172.37.004.859-.715 2.09-2.113 4.46-3.606 6.098-.23.254-.324.511-.324.511s.348-.015.54-.101c1.534-.7 3.16-2.063 4.667-2.953a84.179 84.179 0 0 1-4.93 3.367l3.235.18c-.817.77-15.059 11.859-11.406 31.89 4.433-1 6.5-2.687 8.87-4.637.016 1.614.028 5.954.044 5.954.043-.07-2.043-.743-1.555.859.29.879.426 3.102-.105 4.355-.024.051.226.137.199.188-.028.055-.336.055-.336.055-.809 1.39-2.883 1.683-3.903 1.636-.375-.035-.226.446-.18.618.188.718 1.067 2.257 2.716 4.73l.437.059-.254.214c.196.332.715.961.715.961l.02.211s.906 1.18 1.39 1.739c.035.035.114-.051.145-.016.27.305.594.644.867.95.023.023-.043.109-.02.132a236.17 236.17 0 0 1 1.532 1.594l.203-.043.797.844c6.675-2.782 13.675-8.973 13.601-8.958l.133-13.394-7.887-.063.067-17.742 7.836 7.27-.04-2.074c-1.777-1.586-8.921-8.352-8.921-8.352a9.37 9.37 0 0 0 3.043-.934c1.71.887 3.539 1.422 5.64 1.172V50.77c-2.382-.016-3.855-.758-4.918-1.649l-1.472-.05c-2.73 1.906-4.645 1.003-6.711.617L71.05 47.77l14.636.003-.078-4.64-2.222.035-1.438-.996 1.668.664s-.023-.254-.355-.742c-.895-1.375-2.028-3.395-2.703-5.157-.329-.89-.329-.855-.047-1.378.39-.715.312-1.586-.192-2.079-.355-.343-.343-.417-.226-.675.48-1.016-.664-1.395-.668-1.328-2.457.863-5.739-.055-5.68-.082Zm5.7.398c.488-.004.542.195.538.535-.046.621-.918.84-1.308.926-1.883.39-5.16.137-5.371-.68-.153-.597.25-.93 1.586-.625 2.144.438 3.472-.015 4.554-.156Zm-6.079 1.695c.195 0 .426.188.492.489.055.257-.238 1.015-.48 1.187-.598.43-1.133-.246-.73-.977.23-.417.468-.699.718-.699Zm6.414.117c.09.004.25.02.352.09.472.313.512 1.39.066 1.543-.449.157-.867-.281-.86-.965.005-.421.177-.675.442-.668Zm-1.504.215c.098-.004.2.016.305.063.39.172.578 1.3.184 1.66-.305.277-.957.258-1.145-.32-.223-.696.137-1.38.656-1.403Zm-3.336.016c.579.008.704 1.203.137 1.691-.476.407-1.195 0-.965-.812.114-.41.375-.852.828-.88Zm1.645.2c.844.14.762 2.062-.348 1.862-.625-.41-.601-1.84.348-1.863Zm-3.711 2.042 1.195.11s-1.566 3.101-2.988 4.285c-.531.492-.836.511-.43-.016.891-1.016 2.223-4.379 2.223-4.379Zm7.168.055c.687 1.73 1.394 3.492 2.336 5.262-1.442-1.301-2.711-3.301-3.883-5.18Zm-5.621.14.789.012a5.392 5.392 0 0 0 1.242 2.453c.469-.726.766-1.523 1.055-2.375l.629-.004c.238.133-.758 3.504-1.723 3.91-1.012-.773-1.86-2.851-1.992-3.996Zm-.34.797c-.066.078 1.211 2.977 2.305 3.91 1.035-.925 1.703-2.148 2.152-3.609l3.375 4.445-3.3-2.12c-.669 1.015-1.376 1.988-2.223 2.792-.907-.918-1.688-2.004-2.508-3.039-1.281.875-2.184 1.809-3.848 2.621.008.035 3.27-3.234 4.047-5Zm-.336 3.145 2.297 2.637-6.156-.114Zm5.008.066 3.867 2.504-5.785.028ZM47.8 41.351s.031.16.07.254c.672 2.614 2.563 4.797 5.426 4.551l-9.453 8.684s-1.528-4.899-4.645-9.93l1.024.195c.418.06.738.043 1.054-.03.239-.032.426-.18.641-.22.363-.07.816.055 1.055.133.648.117 1.09-.218 1.902-.875.215-.175.297-.133.57-.133 1.012.008 1.664-.796 1.555-2.05l-.047-.555-.133.625c-.246 1.18-.418 1.688-1.675 1.73-.305.008-.422.2-.907.583-.675.53-1.152.578-1.629.363-.484-.215-.53-.09-.992.11-.527.23-1.293.202-1.984.015-.965-.262-.848-.176-.848-.176 5.54 9.266 7.45 18.133 7.281 26.004-.238 11.21-4.511 20.242-8.25 25.68 0 0 .637-.055 1.204-.13.273-.07.484 0 .753.087.25.086.442.082.688.058.191-.02.664.004.965.047.687.094.734.012 1.488-.66 2.137-1.906 1.996-1.836 3.535-1.781 2.309.078 4.149 1.504 4.906 3.8.098.293.223.7.239.7l-.145-.61c-.66-3.078-3.488-4.218-5.851-4.187l10.035-9.25c-.051.012 2.273 7.086 4.316 10.246 0 .02-.625-.254-1.773-.121-.625.07-1.324-.008-1.715-.074-.504-.016-.813.12-1.445.601-.262.207-.5.434-1.012.63-1.215.472-1.703.96-1.715 2.198-.004.223-.043.512-.039.621 0 .032 0 .082.008.082.02 0 .047-.043.07-.078.063-.082.188-.304.281-.82.176-.926.387-1.246 1.332-1.652a7.993 7.993 0 0 0 1.145-.649c.875-.64 1.164-.785 1.871-.629.398.09.738.137 1.277.078.641-.07.68-.101 1.364.067.465.113 1.039.226 1.039.226-9.575-18.093-9.16-34.824.484-51.75 0 0-2.824.02-2.945.086-.047.028-.39-.004-.766-.07-.765-.133-.597-.043-2.426 1.64-2.254 2.087-5.836.4-6.898-3.124a1.43 1.43 0 0 0-.188-.426c-.027-.043-.097-.113-.097-.113Zm9.136 2.11c.415.043.723.144.668.508L44.211 56.023l-.203-.78Zm2.81.086c-.165.3-.614.676-.81.957l.72.844-.407.672-1.11-.875-2.132 1.933 1.758 1.856-1.684 1.558-.555-.59.891-.855-1.367-1.2-2.434 2.173 1.961 1.875-1.453 1.28-.574-.51.761-.774-1.28-1.243-2.266 2.125 1.773 1.856-1.387 1.266-.609-.583.668-.636-1.27-1.25-2.312 2.097 1.855 1.887-1.379 1.133-.48-.477.668-.66-1.246-1.25-1.434 1.196-.234-.829 14.187-12.949Zm.812.2-.602 1.105-.457-.473.602-.57Zm-33.286-.09c-.363.077-8.789 4.386-13.601 9.132l-.024 1.777-.18.211.071 2.754.117.149.035 1.12-.191.294-.02 3.082.254.043.02 3.77 7.86.058-.114 18.012s-4.586-4.735-7.895-7.532l.004 2.106 8.743 8.476c-.606.079-1.395.211-2.582.813-2.844-1.668-6.145-1.18-6.145-1.18l.004 2.145c2.098-.176 3.984.097 6.184 1.488 1.82-1.133 4.007-1.816 7.261-.895.711 1.06 1.422 2.149 2.137 2.86l-15.566.031-.004 4.344c.691.02 2.418.012 2.418.012.867 1.597 2.574 3.78 3.273 6.52-.988 1.089-.914 1.972.035 3.077-.012.496-.176 1.043.422 1.602 1.984-.89 4.219-.48 5.879-.012.562.156.781-.437.766-1.191-.051-.43-.047-.614.312-.899.848-.676.332-2.078.2-2.11-.044-1.23 4.23-7.359 4.23-7.245l-.844.277h-3.625c9.578-8.488 13.617-18.203 12.844-29.2-.168-2.769-.625-4.042-.625-4.042-3.367 1.371-6.13 2.363-8.824 5.016l-.145-5.73c.148.273 1.14.526 1.586.183.309-.184.34-.383.062-1.078-.406-1.012-.488-3.176-.18-3.91.036-.087.067-.313.095-.54.035-.3-.036-.316-.063-.312.078-.016.402.047.441.015 1.153-.93 2.383-1.511 3.891-1.562l.043-.684c-1.105-2.625-2.043-3.66-3.047-5.129 0 0-.289-.09-.469-.054l.235-.227c-1.41-2.101-3.418-4.015-5.266-5.832.008-.008 0-.008-.012-.004Zm-.062.35 1.004.872C23.395 47 18.633 50.12 13.94 54.363l.07-1.566c5.305-4.586 9.302-6.781 13.2-8.79Zm30.863 1.72.602.562-.844.902.543.52-.309.687-1.386-1.351Zm-30.011-.075c.316 0 .574.243.57.535 0 .293-.258.532-.574.532-.317-.004-.575-.242-.57-.535 0-.297.257-.532.573-.532Zm41.132.934c9.743 10.18 4.625 24.875-8.472 28.348l-.141-.832c13.219-4.067 16.395-17.86 7.879-26.586Zm-39.437-.121.62.672c-5.6 2.449-11.07 6.136-16.366 11.468l-.047-1.351c4.976-4.809 10.285-8.274 15.793-10.79Zm-3.606.187c.317 0 .57.243.57.535 0 .293-.257.532-.574.532-.32-.004-.574-.242-.57-.535 0-.297.258-.532.574-.532Zm-1.75.993c.317.003.57.242.57.535-.003.293-.261.53-.577.53-.317-.003-.57-.241-.57-.534.003-.297.26-.531.577-.531Zm5.809.378c.316 0 .57.243.57.536-.004.293-.261.53-.578.527-.316 0-.57-.238-.57-.535.004-.293.262-.531.578-.528Zm24.89.489.57.566-.913.84 1.285 1.262 1.25-1.106-.633 1.653L45.63 61.859l-.223-1.07.871-.8-1.32-1.235-.227-.82 1.31-1.125.542.523-.766.813 1.22 1.125 2.237-1.891-1.828-1.883 1.524-1.355.523.476-.73.692 1.27 1.289 2.296-2.02-1.867-1.851 1.516-1.372.57.508-.766.844 1.293 1.172 2.246-2.043-1.828-1.805Zm-32.417.199c.316.004.574.242.57.535 0 .293-.258.531-.574.531-.317-.004-.575-.242-.57-.535 0-.297.257-.531.574-.531Zm9.039.148.433.676c-6.668 3.086-11.289 6.192-18.133 13.34l.004-.906c5.29-5.965 10.774-9.801 17.696-13.11Zm-3.34.063c.316 0 .57.242.57.535-.004.293-.262.531-.578.531-.316-.004-.57-.242-.57-.535 0-.297.261-.531.578-.531Zm51.457.453c1.168.977 3.625 1.957 5.215 1.86l.035 1.167c-2.774.23-5.18-1.43-5.18-1.43-2.14 1.2-4.312 1.34-6.574.805l-.86-1.734c3.348 1.46 6.504.098 7.364-.668Zm-13.258.254c.125.21.535.457.535.457 2.586-.613 3.38 1.863 2.164 3.273l.34 1.036c.461.082.863.234 1.192.445.624.41.968 1.113.886 1.847.082.797-1.207 1.532-1.277 1.477l-.024 1.14c.36.282.793.555 1.07.95.614.969.36 1.937-.593 2.539-.57.355-1.184.398-1.207.363l-.606 1.29c.524.28.668.75.75 1.081.172.727-.382 1.672-1.07 2.016-.87.437-2.055.039-2.055.039l-.851.785c.215.68.273 1.09.156 1.488-.293.989-1.41 1.372-2.308 1.293-.704-.062-1.23-.543-1.23-.543l-.942.329c.027 0 .008 1.105-.469 1.441-.148.14-.68.457-.68.457l-.12-.762c.374-.246.609-.851.538-1.293l2.032-.91c0 .067.55.57.93.645.777.152 1.593-.41 1.6-1.075 0-.386-.238-.652-.304-.964l1.73-1.645c.711.23 1.211.27 1.532.102.605-.32.77-.985.656-1.387-.133-.473-.586-.781-.617-.824l.972-2.25c.45 0 .727-.067 1.075-.274.715-.43.629-1.277.328-1.675-.367-.493-.903-.586-.945-.575l.082-2.34c0 .02.976-.43 1.082-.949.16-.77-.188-1.261-1.204-1.484-.562-.121-.535-.02-.535-.02l-.793-2.125c1.282-.715.883-1.863.239-2.254-.68-.41-1.641-.035-1.641-.035s-.438-.406-.766-.734Zm-34.105.262c.832 1.05 2.238 3.152 3.02 5.03.034.083.015.497.015.497-2.262.172-3.043.992-3.852 1.566-.62-.3-.879-.648-2.012 0-.003.032-2.863-1.625-3.398-3.859 2.055-1.164 4.016-2.27 6.227-3.234ZM21 49.848c.316.004.57.242.57.535-.004.297-.261.531-.578.531-.316 0-.57-.242-.57-.535.004-.293.262-.531.578-.531Zm5.434.132c.316.004.57.243.57.536-.004.293-.262.53-.578.53-.317-.003-.57-.241-.57-.534.003-.297.261-.532.578-.532Zm39.218.844c.98 1.215 2.457 3.504 2.801 5.528.48 2.847.133 5.832-1.281 7.91-2.574 4.445-7 5.375-7.004 5.527l-.04-.914c.04.207 3.384-1.082 5.673-4.016 1.414-1.992 2.226-4.84 1.965-7.07-.149-3.21-2.586-6.18-2.606-6.191Zm-46.449.211c.317 0 .574.242.57.535 0 .293-.257.532-.574.528-.316 0-.574-.239-.57-.535 0-.293.258-.532.574-.528Zm5.43.035c.316 0 .57.239.57.535-.004.293-.262.532-.578.528-.316 0-.57-.242-.57-.535.004-.293.261-.532.578-.528Zm48.933 1.133c1.27.137 2.813 2.285 4.223 3.516l-.086 17.457-4.226.058c-.559 1.227-1.844 2.434-3.883 3.625l.035-6.543c6.976-6.87 5.133-14.437 3.937-18.113Zm-55.925-.07c.316 0 .574.238.57.535 0 .293-.258.531-.574.527-.317 0-.575-.242-.57-.535 0-.293.257-.531.574-.527Zm5.226.12c.317 0 .57.24.57.536-.003.293-.261.527-.578.527-.316 0-.57-.242-.57-.535.004-.293.262-.531.578-.527Zm53.676.302 8.602 8.136-.04 1.188-9.687-9.238Zm-50.512.515.223 1.02c-.277-.41-.285-.563-.77-.637Zm-4.68.274c.317 0 .57.242.567.535 0 .293-.258.531-.574.527-.317 0-.57-.238-.57-.535 0-.293.257-.531.578-.527Zm-5.18.125c.317 0 .571.238.571.535-.004.293-.262.527-.578.527-.316 0-.57-.242-.57-.535.004-.293.261-.531.578-.527Zm48.638.234 1.699 1.133-.567 2.02L64.2 55.39Zm-39.442-.027.301.168-.36 1.383-3.937 1.3c1.27-.996 2.574-2.082 3.996-2.851Zm.64.648c.274 1.028.872 2.547 1.606 3.836-.508.238-2.324 1.184-2.32 1.625.25.805 2.16 1.55 2.16 1.55a19.543 19.543 0 0 0-2 3.856c-.324-.52-.351-2.562.356-3.406-.692-.258-1.641-.844-2.36-1.45.477-1.53 2.469-2.437 2.555-2.444-.035.074-.57-3.207.004-3.567Zm-6.378.227c.316 0 .57.242.57.535-.004.293-.262.531-.578.527-.316 0-.57-.238-.57-.535.004-.293.262-.527.578-.527Zm43.754.258c2.527 4.421.988 8.25-3.094 10.976l.098-1.039c2.82-1.879 4.656-5.594 2.629-9.156Zm-48.598-.11c.317 0 .57.239.57.535-.003.293-.261.532-.578.528-.316 0-.57-.242-.57-.535.004-.293.262-.532.578-.528Zm40.793.227c-1.906 6.469-1.875 9.437-2.105 11.191l-7.266.024-.266-2.336Zm-29.023.035s1.566 1.367 2.976 2.559l-.172.308-1.375.164c-1.043-1.93-1.43-3.031-1.43-3.031Zm-1.309.707h.012l.082.965c-.473-.016-5.594 1.941-9.535 5.086.59-.953 1.582-1.867 2.539-2.645 2.039-1.84 6.902-3.406 6.902-3.406Zm-7.266.184c.317 0 .575.242.57.535 0 .293-.257.531-.573.531-.317-.004-.575-.242-.57-.535 0-.297.257-.531.573-.531Zm3.215.62.29.282-1.36.644Zm9.453.333c.016-.004.036 0 .055 0 .211.027.297.117.418.215a3.143 3.143 0 0 0-.773-.075.439.439 0 0 1 .3-.14Zm-5.191.172.121.722c-2.95 1.54-6.457 2.989-11.57 7.434l.012-1.488a37.19 37.19 0 0 1 11.437-6.668Zm3.953.09c.184.042.348.042.516.007 0 0-.11.196-.235.2-.136.003-.28-.208-.28-.208Zm1.246.046c.371-.02.621.297.543.7-.289 1.37-.285 2.757.012 3.73.234.754.293 1.023.094 1.148-1.739 1.102-2.66-3.91-1.203-5.32.195-.172.386-.25.554-.258Zm-14.152.106c.316 0 .574.242.57.535 0 .293-.258.531-.574.531-.316-.004-.574-.242-.57-.535 0-.297.258-.531.574-.531Zm49.805.367 1.066 1.684-1.508 1.55-.906-1.816Zm-37.098.73-.063.579c-.773.214-1.449.52-2.03.976-.114.09 1.784.895 1.987.711l-.007.621c-.028.2-3.149-.734-3.356-1.426.356-.453 2.34-1.507 3.469-1.46Zm-14.223.239c.317 0 .575.242.57.535 0 .293-.257.531-.574.527-.316 0-.574-.238-.57-.535 0-.293.258-.527.574-.527Zm8.52.652c-.223.39-.555.91-.621 1.477-2.153 1.195-4.356 2.312-7.047 5.07l-1.442-.016-.027-.351c2.938-2.575 6.113-4.793 9.137-6.18Zm5.52.195.011.727c-.5.004-.77-.149-1.14-.324.312-.184.558-.364 1.128-.403Zm16.128.157.399.39-.25.219Zm-21.726 1.41.793.46a21.937 21.937 0 0 0-6.082 4.337l-1.57-.008c1.995-1.988 4.144-3.774 6.859-4.79Zm42.328.73.144 1.985-2 1.004.051-2.09Zm-37.906-.176 1.367.145.14.539c-1.156.676-2.16 1.465-3.12 2.29a10.93 10.93 0 0 1 1.613-2.974Zm-3.29.196.586.258-.238.93c-1.683.683-3.027 1.613-4.469 2.87l-1.609-.007c1.418-1.403 3.777-3.16 5.73-4.051Zm5.094.902h.008l.18 6.113c-5.957 6.41-5.672 12.637-3.977 18.29l-1.129-.051c-1.304-1.524-3.043-3.075-3.043-3.075l.098-17.773 4.082.035c.977-2.066 3.633-3.523 3.781-3.539Zm-4.824.832.043.817c-.844.46-1.566.968-2.184 1.515l-1.535-.008c1.067-.91 2.125-1.828 3.676-2.324Zm13.918.469.219.96c-13.77 4.552-16.328 17.966-8.27 27.22l-.554.566c-9.262-9.332-5.086-24.488 8.605-28.746Zm-13.816.894.093.98-1.539-.007c.348-.375.657-.762 1.446-.973Zm38.675.496-.898 1.915-2.363.02 1.086-1.911Zm-14.968 1.239 2.152.011-.012 1.91-2.152-.007Zm-9.32.144.03.84c-.96.45-.722 1.168-.964 1.156-.586.137-2.14.891-2.14.891-.552-.465-1.294-.352-1.638-.129-.48.29-.59.965-.457 1.54L32.5 72.77c-.793-.32-1.57-.305-1.957.187-.438.55-.277 1.242.437 2.016l-.91 2.132c-.101-.128-1.601.274-1.629 1.102-.023.875 1.235 1.453 1.23 1.52l-.073 2.355c-.055-.113-1.29.348-1.13 1.477.15 1.039 1.673.918 1.704 1.007l.816 2.258c-.054-.07-1.125.895-.476 1.813.539.77 2.12.281 2.11.23l.437.578-.489.485s-.21-.235-.328-.211c-.922.156-1.949-.043-2.437-.727-.668-.969.09-2.469.328-2.457l-.559-1.3c-1.039-.024-1.91-.887-1.953-1.61-.09-1.508 1.246-2.133 1.25-2.121l.047-1.406c-.082.082-1.313-.739-1.277-1.672.023-.684.648-1.485 1.41-1.801.222-.098.566-.246.566-.246l.524-1.152s-.723-.98-.532-1.97c.36-1.491 2.457-1.378 2.79-1.234l.98-1.125c-.477-1.035.36-2.23 1.441-2.421.485-.07 1.828.234 1.828.234l1.25-.594c-.015-.633.73-1.039 1.422-1.422Zm7.077 2.125 1.844.012-.012 1.91-1.843-.008Zm4.914.028 2.083.007-.012 1.91-2.078-.007Zm-11.859.418-.027.73c-11.946 5.309-7.133 16.442-5.442 17.742l-.386.785c-2.086-1.191-7.403-14.039 5.855-19.257Zm9.16 1.98 2.239.012.007 1.965-2.238-.012Zm-9.691.91-.723 1.785-2.187.16.816-1.78Zm44.7 1.524 1.495.015c-2.816 3.028-5.847 5.086-8.836 6.203 0 0-.008-.27.082-.48.075-.172-.039-.602-.039-.602 3.32-1.5 5.61-3.246 7.297-5.136Zm-7.673-.012c-.39.43-.832.805-1.379 1.086l-.207-1.11c.457-.003 1.586.024 1.586.024Zm2.633-.008c.152.352-3.941 2.38-3.953 2.203l.012-.68 2.21-1.507Zm.883.004h.008l1.148.012c-1.047 1.511-6.547 4.246-6.316 3.86l.226-1.114c1.774-.711 3.383-1.688 4.934-2.758Zm1.933.008 1.512.012c-2.289 2.671-4.601 3.64-6.82 4.78-.133-.015-.07-.062-.485-.054l-.753-.55c.14.12 5.097-2.547 6.546-4.188Zm-42.28-.11-.06.81c-3.195 2.526-4.488 5.765-2.855 9.542l-.398.8c-1.754-4.026-1.207-7.933 3.312-11.151Zm14.48.196.156 2.187-9.926 8.88c1.531-4.977 1.965-7.99 2.387-11.09Zm31.617.668-.004 1.215c-3.914 3.964-7.848 5.73-11.242 6.433l-.074-.465 1.574-.89c5.07-2.024 7.297-4.07 9.746-6.293Zm-11.817-.024c.067.88-.785 2.532-1.75 3.461L70 77.848l-.18-.664c1.371-.676 2.64-1.594 3.578-2.782Zm.497.266c.601.906-.32 3.238-.356 3.148-.074.16 5.164 1.215-.238 3.598.113.711.61 2.223.215 3.156-.118-.36-1.043-2.789-1.762-3.414 1.683-.437 2.902-1.386 2.77-1.703-.27-.45-1.02-1.004-2.286-1.41 1.086-1.387 1.414-2.43 1.657-3.375Zm-38.532.254.16 1.844-1.921 1.062-.137-2.027Zm33.328 1.875c.153.004.293.039.36.11.945.359.988 4.648.129 5.081-.625.36-1.063-.226-1.04-.332.426-1.972.172-3.191.008-4.574.02-.2.297-.289.543-.285Zm16.508.144-.008 1.524c-5.593 5.332-11.613 9.523-17.75 11.867l-.55-.883c7.453-3.156 13.695-7.683 18.308-12.508Zm-.976.133c-2.598 3.32-5.75 5.48-10.055 6.446l-.078-.946c5.363-1.101 10.273-5.5 10.133-5.5Zm-70.153.2c3.34 3.203 6.762 6.378 10.16 9.667L22.875 87l-8.852-8.617Zm39.965.351.113.79-.98.991 1.535 1.547.074.363-1.332 1.282-.593-.555.734-.758-1.234-1.222-2.32 2.05 1.89 1.926-1.442 1.262-.562-.547.738-.781-1.27-1.258-2.363 2.164 1.77 1.832-1.195 1.215-.559-.555.613-.644-1.28-1.243-2.274 2.012 1.847 1.922-1.52 1.39-.581-.53.855-.856-1.39-1.238-1.121.972s.425-.969.488-1.133c.094-.242.465-.433 2.828-2.574 2.82-2.582 5.715-5 8.531-7.824Zm16.094.605c.82.016 2.219.207 2.89.543 1.254.622.86 1.102.04 1.461-.98.426-1.782.633-2.887.66l.035-.503c.645-.141 1.309-.282 1.875-.57.39-.2.492-.36.492-.36s-.375-.36-.98-.566c-.442-.153-1.074-.153-1.418-.207Zm-36.719.485 1.024 1.441-1.235 1.899-1.164-1.649Zm20.836.258c.035.27.399 1.324.207 1.12l-.683-.722Zm15.945.215c.57.05 1.168.066 1.586.257-.484.348-1.035.422-1.582.504Zm14.325.789c.347.003.625.265.62.585 0 .32-.28.579-.624.575-.348 0-.625-.262-.621-.582 0-.32.28-.578.625-.578Zm-32.235.851.532.48-.696.743 1.242 1.226 1.555-1.336.2.852L40.55 95.965l-.801-.059.926-1.008-1.043-1 .433-.71 1.23 1.027 2.278-2.004-1.824-1.8 1.578-1.49.59.477-.906.903 1.304 1.25 2.383-2.156-1.844-1.88 1.485-1.304.543.48-.692.676 1.344 1.313 2.008-1.922-1.809-1.867 1.625-1.454.493.465-.75.766 1.351 1.312 2.192-2.07-1.786-1.816Zm30.778.492c.343.004.625.266.62.586 0 .32-.28.578-.628.574-.344 0-.621-.261-.621-.582.004-.32.285-.578.629-.578Zm-11.774-.03c.977 1.077 1.563 2.276 1.672 3.562-.781-1.114-1.773-2.102-3.078-2.961l.226-.536Zm13.89.155-.007 1.297c-4.414 4.594-9.762 8.051-15.246 10.445l-.926-1.054c6.488-2.653 11.188-5.961 16.18-10.688Zm-6.46.871-1.79 1.278.005-.559Zm-9.172.051c1.512.695 2.773 1.863 3.52 3.586-2.075 1.195-4.348 2.16-6.516 3.121-1.031-1.558-2.07-3.015-2.879-5.02 3.336-.007 4.262-1.695 4.285-1.71.805.289.973.32 1.59.023Zm11.984.313c.313.007.621.23.633.558-.004.325-.285.582-.629.578-.344 0-.625-.261-.62-.582.07-.398.343-.562.616-.554Zm-4.617.36v.558c-.855.691-2.515 1.804-2.515 1.804l-.684-.039.23-1.586c1.036-.191 2.043-.465 2.97-.738Zm-43.582-.15 1.629 1.258-.512 1.93-1.601-1.14Zm21.942.473.148.563-13.492 12.258-.766-.118Zm24.761.598c.348 0 .625.262.621.582 0 .32-.28.578-.625.578-.347 0-.625-.262-.62-.582 0-.32.28-.578.624-.578Zm4.961.02c.07 0 .16-.004.156.062l-.003 1.066a.744.744 0 0 1-.211.032.557.557 0 0 1-.57-.582c0-.32.28-.579.628-.579Zm-1.523 1.285c.344.004.62.265.62.586-.003.32-.284.578-.628.574-.344 0-.621-.262-.621-.582.004-.32.285-.578.629-.578Zm-5.25-.02c.347.004.625.266.62.586 0 .32-.28.578-.624.574-.348 0-.625-.261-.621-.582 0-.32.281-.578.625-.578Zm-4.516.156.645.024-1.2.656c.223-.254.426-.45.555-.68Zm11.445.328.004 1.192c-3.09 2.836-6.98 5.777-12.925 8.598l-.754-.715c4.847-2.118 9.402-5.094 13.675-9.075Zm-8.722.61c.344 0 .625.262.62.582 0 .32-.28.578-.628.578-.344-.004-.621-.266-.621-.586.004-.32.285-.578.629-.574Zm5.55.07c.348 0 .626.262.622.582 0 .32-.282.578-.625.578-.348-.004-.625-.261-.621-.582 0-.32.28-.582.625-.578Zm-62.203 2.024c2.125-1.13 3.829-1.258 6.254-.899l.72 1.332c-2.364-.402-4.852-.379-6.993 1.137-2.2-1.305-3.871-1.688-5.684-1.484l-.027-1.403c2.363-.293 4.48.469 5.73 1.317Zm54.926-.996c.344.003.621.265.621.585-.004.32-.285.579-.629.575-.343 0-.62-.262-.62-.582.003-.32.284-.579.628-.579Zm5.707.269c.348 0 .625.262.621.582 0 .32-.28.578-.625.574-.347 0-.625-.261-.62-.582 0-.32.28-.578.624-.574Zm-7.59.828c.344 0 .621.262.621.582-.003.32-.285.578-.628.578-.344-.004-.625-.265-.621-.586 0-.32.28-.578.628-.574Zm5.817.363c.347.004.625.262.625.582-.004.32-.285.582-.63.579-.343 0-.624-.262-.62-.582 0-.32.281-.579.625-.579Zm-7.75.653c.351 0 .633.265.629.59 0 .324-.285.586-.633.586-.352-.004-.633-.266-.633-.594.004-.324.29-.586.637-.582Zm6.078.515c.344 0 .621.262.621.582-.004.32-.285.579-.629.579-.344-.004-.625-.262-.621-.582 0-.32.281-.582.629-.579Zm-7.934.364c.348 0 .625.261.621.582 0 .32-.28.578-.625.578-.347-.004-.625-.266-.62-.586 0-.32.28-.578.624-.574Zm-27.609.39 1.547 1.328-1.617 1.489-.586-.528.902-.863-.602-.758Zm33.812.293c.344 0 .622.262.622.582 0 .32-.282.578-.63.578-.343-.003-.62-.265-.62-.585.003-.32.285-.579.628-.575Zm-1.804.973c.347 0 .625.262.62.582 0 .32-.28.578-.624.578-.348-.004-.625-.266-.621-.586 0-.32.281-.578.625-.574Zm-1.957.977c.344 0 .62.261.62.582-.003.32-.284.578-.628.574-.344 0-.625-.262-.621-.582 0-.32.281-.578.629-.575Zm-32.13 1.484.509.383-.801.886-.61-.011Zm-9.82 2.351c-1.777.805-2.62 1.313-3.859 2.305l-1.758-2.285Zm-12.042-.043 4.71.082-1.578 2.055c-1.027-1.02-2.074-1.71-3.132-2.137Zm5.609.25c.512.153 1.84 1.93 2.46 2.899 1.349-.984 2.669-2.082 4.102-2.672-1.71 1.66-3.214 3.383-4.289 5.047-.297-.754-1.125-2.914-2.18-3.856-1.683 1.446-2.355 3.196-2.355 3.196a27.874 27.874 0 0 0-3.219-4.207c-.207-.262 1.524.746 3.23 2.308.493-1.129 1.798-2.672 2.25-2.715Zm-5.664 1.086c.805.602 2.992 3.235 3.234 4.813l-1.054.055c-.551-1.621-1.485-3.246-2.18-4.868Zm11.719.325c-.805 1.515-1.805 3.062-2.524 4.738l-1.039-.047c1.152-2.312 1.57-2.73 3.563-4.691Zm-5.977.648c.008-.004.02 0 .023.004.985 1.262 1.446 2.48 1.731 3.969l-.766-.032s-.523-1.492-.886-2.023c-.239-.32-.426-.281-.598-.016-.379.63-.523 1.258-.742 1.946l-.88-.067c-.155-1.125 1.81-3.754 2.118-3.78Zm-.164 4.32c.36.008.73.371.723 1.004.027.297-.227.953-.493.985-.503.242-1.09-.524-.937-1.16.133-.543.39-.833.707-.829Zm-1.734.114c.707.062.851 1.535.562 1.836-.332.3-1.2.082-1.281-.442-.277-.672.242-1.39.719-1.394Zm3.488.007c.77.106.566 1.723.168 1.957-.621.301-1.094-.21-.879-.968.172-.614.426-.977.71-.989Zm1.781.278c.88.094.363 1.52-.023 1.805-.563.402-1.102-.204-.828-.926.21-.563.558-.883.851-.88Zm-7.125.008c.64.097 1.004 1.449.621 1.836-.199.218-.777-.106-1.043-.477-.316-.445-.011-1.363.422-1.36Zm6.817 2.972c.074.707-.504.707-2.16.352-.837-.176-2.32-.074-3.079.05-1.277.208-1.457.126-1.453-.359.008-.558.723-.87 2.38-.914 1.183-.027 4.132-.023 4.312.871Zm2.582-.402c-1.977.16-2.516 2.457-2.301 3.309.164 1.418.082 2.902-.219 3.878-.215.7-.406 1.446-.75 2.082-.523.957-.394 1.668.375 2.055.629.32 1.41.215 1.902-.27.887-.874 1-2.742.485-6.984-.184-1.5-.078-1.797.703-1.707 1.64-.004 1.586-2.351-.195-2.363Zm-.25 1.93c-.442-.16-.743.21-.688 1.136.012.414.09.875.14 1.246.618 4.07.364 6.793-.984 6.922-1.172.168-1.957-.636-1.382-1.46.328-.47.605-.532 1.234-.282.863.504.648-.223-.125-.762-.5-.332-.54-.332-.266-1.355.371-1.383.5-2.371.375-4.125-.18-1.238.278-2.879 1.977-2.969 1.715-.039 1.183 2.223-.281 1.649Zm-12.149 5.296c.555.254 1.102.215 1.633.012.21-.863.23-1.582.863-2.754-1.039-.976-2.797-.605-3.297.41-.504 1.016-.046 1.95.801 2.332Zm1.692-2.992c.632.125.53.743-.063.54-1.414-.63-2.582 1.234-1.441 1.945.582.304.843.132.265-.29-.238-.253-.175-.355-.031-.609.3-.511 1.383-.426 1.3-.054-.25 1.183-.413 1.523-.796 1.527-2.207.094-2.598-3.742.766-3.059Zm18.71 2.22s-6.605 6.862-9.789 10.378l39.645.02-7.492-9.7c-6.477 1.356-14.078.918-22.364-.699Zm-.21 2.198c.992.016 2.113.692 3.074 2.922.054.02 4.394-6.055 8.09.274.617-1.414 4.148-5.09 8.18-.329 1.46-3.168 4.78-2.078 5.085-.968-.066-.239-3.164-.938-4.515 1.16-.25.445-.266.867.015 1.117.668.594-.066 1.438-.828.953-.297-.191-.332-.586-.101-.867.675-.46-.696-1.922-1.829-2.45-1.554-.722-3.726-.417-4.777.606-.566.551-.91 1.047-.996 1.442-.043.183-.02.28.098.406.449.508.148 1.203-.465 1.113-.801-.113-.692-.808-.153-1.187.165-.075.106-.164.055-.297-1.445-3.84-6.914-3.137-7.52-.485-.023.098-.07.2-.046.297.062.254.218.47.156.668-.254.817-1.352.575-1.398-.101-.02-.305.336-.399.515-.676.106-.176.153-.39.055-.586-1.465-2.89-4.012-2.3-5.277-1.652-.024.011 1.136-1.38 2.582-1.36Zm-1.649 1.664c.54-.015 1.031.235 1.488.735 1.559-.758 2.653.57 2.47.695-2.192-1.336-2.923 1.75-.755 1.64-.96 1.825 2.434 2.626 2.063.286 2.093.691 2.457-1.98.332-1.953.691-1.098 2.472-.79 3.222-.094.891-1 3.063-.031 3.274.832-2.434-1.176-2.7 2.375-.332 1.629-.711 2.258 3.047 1.953 2.02 0 2.335.726 2.035-2.524-.27-1.875-.137-.172 1.832-2.04 3.246-.266.195-.312 2.422-1.32 3.629.285-2.63-.84-2.149 2.457-.258 1.813-.52 2.18 2.89 1.84 2.031-.024 2.637.633 1.489-3.109-.375-1.738.313-1.5 2.528-.867 2.5-.637 0 0 1.188-1.175 2.5-.304-2.062.152-1.375 2.738.578 2.011-.027.876.754 1.461 1.817 1.168l1.656 2.172-38.004.04 3.055-3.348c1.012.785 2.066.422 2.203-.801 2.203 1.27 2.793-1.715.723-1.856.422-.265.816-.398 1.187-.41Zm-2.129.961c.13.086-.05.5-.344.38Zm29.621 1.012c.114.152.192.25.305.398.055.137-.59-.074-.305-.398Zm0 0" style="stroke:none;fill-rule:nonzero;fill:#000;fill-opacity:1"/></svg>