<?xml version="1.0" encoding="UTF-8"?>
<svg xmlns="http://www.w3.org/2000/svg" xmlns:xlink="http://www.w3.org/1999/xlink" width="99px" height="140px" viewBox="0 0 99 140" version="1.1">
<g id="surface1">
<path style="fill-rule:nonzero;fill:rgb(100%,100%,100%);fill-opacity:1;stroke-width:0.755906;stroke-linecap:butt;stroke-linejoin:miter;stroke:rgb(50.196078%,50.196078%,50.196078%);stroke-opacity:1;stroke-miterlimit:4;" d="M 9.297585 719.743103 L 224.702415 719.743103 C 229.632812 719.743103 233.621449 723.747651 233.621449 728.681329 L 233.621449 1043.042991 C 233.621449 1047.976669 229.632812 1051.981217 224.702415 1051.981217 L 9.297585 1051.981217 C 4.367188 1051.981217 0.378551 1047.976669 0.378551 1043.042991 L 0.378551 728.681329 C 0.378551 723.747651 4.367188 719.743103 9.297585 719.743103 Z M 9.297585 719.743103 " transform="matrix(0.423077,0,0,0.42042,0,-302.434542)"/>
<path style=" stroke:none;fill-rule:nonzero;fill:rgb(100%,0%,0%);fill-opacity:1;" d="M 7.273438 25.789062 C 6.902344 24.992188 6.417969 24.246094 5.84375 23.578125 C 5.472656 23.148438 5.066406 22.753906 4.65625 22.367188 C 4.332031 22.0625 4.003906 21.761719 3.742188 21.40625 C 3.5625 21.164062 3.414062 20.894531 3.34375 20.605469 C 3.214844 20.074219 3.355469 19.507812 3.617188 19.03125 C 3.773438 18.753906 3.96875 18.5 4.210938 18.296875 C 4.574219 17.992188 5.042969 17.8125 5.511719 17.851562 C 5.9375 17.886719 6.339844 18.105469 6.652344 18.402344 C 6.925781 18.667969 7.140625 18.996094 7.277344 19.355469 C 7.417969 18.996094 7.632812 18.667969 7.90625 18.402344 C 8.21875 18.105469 8.621094 17.886719 9.046875 17.851562 C 9.515625 17.8125 9.984375 17.992188 10.347656 18.296875 C 10.589844 18.5 10.785156 18.753906 10.941406 19.03125 C 11.203125 19.507812 11.34375 20.074219 11.214844 20.605469 C 11.144531 20.894531 10.996094 21.164062 10.816406 21.40625 C 10.554688 21.761719 10.226562 22.0625 9.902344 22.367188 C 9.492188 22.753906 9.085938 23.148438 8.714844 23.578125 C 8.140625 24.246094 7.65625 24.992188 7.285156 25.789062 "/>
<path style=" stroke:none;fill-rule:nonzero;fill:rgb(100%,0%,0%);fill-opacity:1;" d="M 11.261719 11.714844 C 11.261719 12.890625 10.859375 13.785156 10.058594 14.394531 C 9.351562 14.929688 8.417969 15.199219 7.246094 15.199219 C 6.089844 15.199219 5.160156 14.910156 4.453125 14.339844 C 3.683594 13.703125 3.296875 12.804688 3.296875 11.632812 C 3.296875 10.40625 3.917969 9.5 5.167969 8.921875 C 4.207031 8.289062 3.726562 7.382812 3.726562 6.210938 C 3.726562 5.175781 4.117188 4.40625 4.898438 3.902344 C 5.542969 3.492188 6.386719 3.285156 7.4375 3.285156 C 8.390625 3.285156 9.175781 3.527344 9.792969 4.007812 C 10.46875 4.550781 10.808594 5.300781 10.808594 6.265625 C 10.808594 7.371094 10.332031 8.253906 9.375 8.914062 C 10.632812 9.464844 11.261719 10.398438 11.261719 11.714844 Z M 8.828125 6.574219 C 8.828125 5.5625 8.308594 5.054688 7.261719 5.054688 C 6.789062 5.054688 6.410156 5.1875 6.128906 5.453125 C 5.847656 5.714844 5.707031 6.085938 5.707031 6.574219 C 5.707031 7.046875 5.855469 7.417969 6.152344 7.695312 C 6.433594 7.964844 6.804688 8.101562 7.261719 8.101562 C 7.710938 8.101562 8.085938 7.964844 8.382812 7.6875 C 8.679688 7.410156 8.828125 7.039062 8.828125 6.574219 Z M 9.195312 11.640625 C 9.195312 11.078125 9.011719 10.636719 8.640625 10.308594 C 8.292969 10 7.839844 9.847656 7.285156 9.847656 C 6.746094 9.847656 6.296875 10.003906 5.949219 10.320312 C 5.574219 10.648438 5.386719 11.089844 5.386719 11.640625 C 5.386719 12.222656 5.566406 12.671875 5.933594 12.988281 C 6.273438 13.289062 6.726562 13.4375 7.296875 13.4375 C 7.859375 13.4375 8.308594 13.285156 8.648438 12.980469 C 9.015625 12.664062 9.195312 12.214844 9.195312 11.640625 Z M 9.195312 11.640625 "/>
<path style=" stroke:none;fill-rule:nonzero;fill:rgb(100%,0%,0%);fill-opacity:1;" d="M 87.738281 128.285156 C 87.738281 127.109375 88.140625 126.214844 88.941406 125.605469 C 89.648438 125.070312 90.582031 124.800781 91.753906 124.800781 C 92.910156 124.800781 93.839844 125.089844 94.546875 125.660156 C 95.316406 126.296875 95.703125 127.195312 95.703125 128.367188 C 95.703125 129.59375 95.082031 130.5 93.832031 131.078125 C 94.792969 131.710938 95.273438 132.617188 95.273438 133.789062 C 95.273438 134.824219 94.882812 135.59375 94.101562 136.097656 C 93.457031 136.507812 92.613281 136.714844 91.5625 136.714844 C 90.609375 136.714844 89.824219 136.472656 89.207031 135.992188 C 88.53125 135.449219 88.191406 134.699219 88.191406 133.734375 C 88.191406 132.628906 88.667969 131.746094 89.625 131.085938 C 88.367188 130.535156 87.738281 129.601562 87.738281 128.285156 Z M 90.171875 133.425781 C 90.171875 134.4375 90.691406 134.945312 91.738281 134.945312 C 92.210938 134.945312 92.589844 134.8125 92.871094 134.546875 C 93.152344 134.285156 93.292969 133.914062 93.292969 133.425781 C 93.292969 132.953125 93.144531 132.582031 92.847656 132.304688 C 92.566406 132.035156 92.195312 131.898438 91.738281 131.898438 C 91.289062 131.898438 90.914062 132.035156 90.617188 132.3125 C 90.320312 132.589844 90.171875 132.960938 90.171875 133.425781 Z M 89.804688 128.359375 C 89.804688 128.921875 89.988281 129.363281 90.359375 129.691406 C 90.707031 130 91.160156 130.152344 91.714844 130.152344 C 92.253906 130.152344 92.703125 129.996094 93.050781 129.683594 C 93.425781 129.351562 93.613281 128.910156 93.613281 128.359375 C 93.613281 127.777344 93.433594 127.328125 93.066406 127.011719 C 92.726562 126.710938 92.273438 126.5625 91.703125 126.5625 C 91.140625 126.5625 90.691406 126.714844 90.351562 127.019531 C 89.984375 127.335938 89.804688 127.785156 89.804688 128.359375 Z M 89.804688 128.359375 "/>
<path style=" stroke:none;fill-rule:nonzero;fill:rgb(100%,0%,0%);fill-opacity:1;" d="M 91.714844 114.210938 C 91.34375 115.007812 90.859375 115.753906 90.285156 116.421875 C 89.914062 116.851562 89.507812 117.246094 89.097656 117.632812 C 88.773438 117.9375 88.445312 118.238281 88.183594 118.59375 C 88.003906 118.835938 87.855469 119.105469 87.785156 119.394531 C 87.65625 119.925781 87.796875 120.492188 88.058594 120.96875 C 88.214844 121.246094 88.410156 121.5 88.652344 121.703125 C 89.015625 122.007812 89.484375 122.1875 89.953125 122.148438 C 90.378906 122.113281 90.78125 121.894531 91.09375 121.597656 C 91.367188 121.332031 91.582031 121.003906 91.722656 120.644531 C 91.859375 121.003906 92.074219 121.332031 92.347656 121.597656 C 92.660156 121.894531 93.0625 122.113281 93.488281 122.148438 C 93.957031 122.1875 94.425781 122.007812 94.789062 121.703125 C 95.03125 121.5 95.226562 121.246094 95.382812 120.96875 C 95.644531 120.492188 95.785156 119.925781 95.65625 119.394531 C 95.585938 119.105469 95.4375 118.835938 95.257812 118.59375 C 94.996094 118.238281 94.667969 117.9375 94.34375 117.632812 C 93.933594 117.246094 93.527344 116.851562 93.15625 116.421875 C 92.582031 115.753906 92.097656 115.007812 91.726562 114.210938 "/>
<path style=" stroke:none;fill-rule:nonzero;fill:rgb(100%,0%,0%);fill-opacity:1;" d="M 24.792969 39.820312 C 23.667969 37.425781 22.21875 35.1875 20.496094 33.191406 C 19.386719 31.902344 18.167969 30.714844 16.929688 29.550781 C 15.964844 28.640625 14.980469 27.738281 14.191406 26.667969 C 13.65625 25.945312 13.210938 25.140625 13 24.265625 C 12.617188 22.679688 13.035156 20.976562 13.824219 19.550781 C 14.285156 18.71875 14.875 17.949219 15.605469 17.339844 C 16.6875 16.433594 18.097656 15.890625 19.5 16.007812 C 20.78125 16.117188 21.984375 16.769531 22.917969 17.664062 C 23.75 18.457031 24.394531 19.445312 24.804688 20.523438 C 25.214844 19.445312 25.859375 18.457031 26.691406 17.664062 C 27.628906 16.769531 28.828125 16.117188 30.113281 16.007812 C 31.511719 15.890625 32.921875 16.433594 34.003906 17.339844 C 34.734375 17.949219 35.324219 18.71875 35.785156 19.550781 C 36.574219 20.976562 36.992188 22.679688 36.609375 24.265625 C 36.398438 25.140625 35.953125 25.945312 35.417969 26.667969 C 34.628906 27.738281 33.644531 28.640625 32.679688 29.550781 C 31.441406 30.714844 30.222656 31.902344 29.113281 33.191406 C 27.390625 35.1875 25.941406 37.425781 24.820312 39.820312 "/>
<path style=" stroke:none;fill-rule:nonzero;fill:rgb(100%,0%,0%);fill-opacity:1;" d="M 24.792969 81.914062 C 23.667969 79.519531 22.21875 77.28125 20.496094 75.285156 C 19.386719 73.996094 18.167969 72.808594 16.929688 71.644531 C 15.964844 70.734375 14.980469 69.832031 14.191406 68.761719 C 13.65625 68.039062 13.210938 67.234375 13 66.359375 C 12.617188 64.773438 13.035156 63.070312 13.824219 61.644531 C 14.285156 60.8125 14.875 60.042969 15.605469 59.433594 C 16.6875 58.527344 18.097656 57.984375 19.5 58.101562 C 20.78125 58.210938 21.984375 58.863281 22.917969 59.757812 C 23.75 60.550781 24.394531 61.535156 24.804688 62.617188 C 25.214844 61.535156 25.859375 60.550781 26.691406 59.757812 C 27.628906 58.863281 28.828125 58.210938 30.113281 58.101562 C 31.511719 57.984375 32.921875 58.527344 34.003906 59.433594 C 34.734375 60.042969 35.324219 60.8125 35.785156 61.644531 C 36.574219 63.070312 36.992188 64.773438 36.609375 66.359375 C 36.398438 67.234375 35.953125 68.039062 35.417969 68.761719 C 34.628906 69.832031 33.644531 70.734375 32.679688 71.644531 C 31.441406 72.808594 30.222656 73.996094 29.113281 75.285156 C 27.390625 77.28125 25.941406 79.519531 24.820312 81.914062 "/>
<path style=" stroke:none;fill-rule:nonzero;fill:rgb(100%,0%,0%);fill-opacity:1;" d="M 74.179688 39.820312 C 73.058594 37.425781 71.609375 35.1875 69.886719 33.191406 C 68.777344 31.902344 67.558594 30.714844 66.320312 29.550781 C 65.355469 28.640625 64.371094 27.738281 63.582031 26.667969 C 63.046875 25.945312 62.601562 25.140625 62.390625 24.265625 C 62.007812 22.679688 62.425781 20.976562 63.214844 19.550781 C 63.675781 18.71875 64.265625 17.949219 64.996094 17.339844 C 66.078125 16.433594 67.488281 15.890625 68.886719 16.007812 C 70.171875 16.117188 71.371094 16.769531 72.308594 17.664062 C 73.140625 18.457031 73.785156 19.445312 74.195312 20.523438 C 74.605469 19.445312 75.25 18.457031 76.082031 17.664062 C 77.015625 16.769531 78.21875 16.117188 79.5 16.007812 C 80.902344 15.890625 82.3125 16.433594 83.394531 17.339844 C 84.125 17.949219 84.714844 18.71875 85.175781 19.550781 C 85.964844 20.976562 86.382812 22.679688 86 24.265625 C 85.789062 25.140625 85.34375 25.945312 84.808594 26.667969 C 84.019531 27.738281 83.035156 28.640625 82.070312 29.550781 C 80.832031 30.714844 79.613281 31.902344 78.503906 33.191406 C 76.78125 35.1875 75.332031 37.425781 74.207031 39.820312 "/>
<path style=" stroke:none;fill-rule:nonzero;fill:rgb(100%,0%,0%);fill-opacity:1;" d="M 49.484375 63.25 C 48.363281 60.855469 46.914062 58.617188 45.191406 56.621094 C 44.082031 55.332031 42.863281 54.144531 41.625 52.980469 C 40.660156 52.070312 39.675781 51.167969 38.886719 50.097656 C 38.351562 49.375 37.90625 48.570312 37.695312 47.695312 C 37.3125 46.109375 37.730469 44.40625 38.519531 42.980469 C 38.980469 42.148438 39.570312 41.378906 40.300781 40.769531 C 41.382812 39.863281 42.792969 39.320312 44.191406 39.4375 C 45.476562 39.546875 46.679688 40.199219 47.613281 41.09375 C 48.445312 41.886719 49.089844 42.871094 49.5 43.953125 C 49.910156 42.871094 50.554688 41.886719 51.386719 41.09375 C 52.320312 40.199219 53.523438 39.546875 54.808594 39.4375 C 56.207031 39.320312 57.617188 39.863281 58.699219 40.769531 C 59.429688 41.378906 60.019531 42.148438 60.480469 42.980469 C 61.269531 44.40625 61.6875 46.109375 61.304688 47.695312 C 61.09375 48.570312 60.648438 49.375 60.113281 50.097656 C 59.324219 51.167969 58.339844 52.070312 57.375 52.980469 C 56.136719 54.144531 54.917969 55.332031 53.808594 56.621094 C 52.085938 58.617188 50.636719 60.855469 49.515625 63.25 "/>
<path style=" stroke:none;fill-rule:nonzero;fill:rgb(100%,0%,0%);fill-opacity:1;" d="M 74.179688 81.914062 C 73.058594 79.519531 71.609375 77.28125 69.886719 75.285156 C 68.777344 73.996094 67.558594 72.808594 66.320312 71.644531 C 65.355469 70.734375 64.371094 69.832031 63.582031 68.761719 C 63.046875 68.039062 62.601562 67.234375 62.390625 66.359375 C 62.007812 64.773438 62.425781 63.070312 63.214844 61.644531 C 63.675781 60.8125 64.265625 60.042969 64.996094 59.433594 C 66.078125 58.527344 67.488281 57.984375 68.886719 58.101562 C 70.171875 58.210938 71.371094 58.863281 72.308594 59.757812 C 73.140625 60.550781 73.785156 61.535156 74.195312 62.617188 C 74.605469 61.535156 75.25 60.550781 76.082031 59.757812 C 77.015625 58.863281 78.21875 58.210938 79.5 58.101562 C 80.902344 57.984375 82.3125 58.527344 83.394531 59.433594 C 84.125 60.042969 84.714844 60.8125 85.175781 61.644531 C 85.964844 63.070312 86.382812 64.773438 86 66.359375 C 85.789062 67.234375 85.34375 68.039062 84.808594 68.761719 C 84.019531 69.832031 83.035156 70.734375 82.070312 71.644531 C 80.832031 72.808594 79.613281 73.996094 78.503906 75.285156 C 76.78125 77.28125 75.332031 79.519531 74.207031 81.914062 "/>
<path style=" stroke:none;fill-rule:nonzero;fill:rgb(100%,0%,0%);fill-opacity:1;" d="M 24.792969 100.179688 C 23.667969 102.574219 22.21875 104.8125 20.496094 106.808594 C 19.386719 108.097656 18.167969 109.285156 16.929688 110.449219 C 15.964844 111.359375 14.980469 112.261719 14.191406 113.332031 C 13.65625 114.054688 13.210938 114.859375 13 115.734375 C 12.617188 117.320312 13.035156 119.023438 13.824219 120.449219 C 14.285156 121.28125 14.875 122.050781 15.605469 122.660156 C 16.6875 123.566406 18.097656 124.109375 19.5 123.992188 C 20.78125 123.882812 21.984375 123.230469 22.917969 122.335938 C 23.75 121.542969 24.394531 120.554688 24.804688 119.476562 C 25.214844 120.554688 25.859375 121.542969 26.691406 122.335938 C 27.628906 123.230469 28.828125 123.882812 30.113281 123.992188 C 31.511719 124.109375 32.921875 123.566406 34.003906 122.660156 C 34.734375 122.050781 35.324219 121.28125 35.785156 120.449219 C 36.574219 119.023438 36.992188 117.320312 36.609375 115.734375 C 36.398438 114.859375 35.953125 114.054688 35.417969 113.332031 C 34.628906 112.261719 33.644531 111.359375 32.679688 110.449219 C 31.441406 109.285156 30.222656 108.097656 29.113281 106.808594 C 27.390625 104.8125 25.941406 102.574219 24.820312 100.179688 "/>
<path style=" stroke:none;fill-rule:nonzero;fill:rgb(100%,0%,0%);fill-opacity:1;" d="M 74.179688 100.179688 C 73.058594 102.574219 71.609375 104.8125 69.886719 106.808594 C 68.777344 108.097656 67.558594 109.285156 66.320312 110.449219 C 65.355469 111.359375 64.371094 112.261719 63.582031 113.332031 C 63.046875 114.054688 62.601562 114.859375 62.390625 115.734375 C 62.007812 117.320312 62.425781 119.023438 63.214844 120.449219 C 63.675781 121.28125 64.265625 122.050781 64.996094 122.660156 C 66.078125 123.566406 67.488281 124.109375 68.886719 123.992188 C 70.171875 123.882812 71.371094 123.230469 72.308594 122.335938 C 73.140625 121.542969 73.785156 120.554688 74.195312 119.476562 C 74.605469 120.554688 75.25 121.542969 76.082031 122.335938 C 77.015625 123.230469 78.21875 123.882812 79.5 123.992188 C 80.902344 124.109375 82.3125 123.566406 83.394531 122.660156 C 84.125 122.050781 84.714844 121.28125 85.175781 120.449219 C 85.964844 119.023438 86.382812 117.320312 86 115.734375 C 85.789062 114.859375 85.34375 114.054688 84.808594 113.332031 C 84.019531 112.261719 83.035156 111.359375 82.070312 110.449219 C 80.832031 109.285156 79.613281 108.097656 78.503906 106.808594 C 76.78125 104.8125 75.332031 102.574219 74.207031 100.179688 "/>
<path style=" stroke:none;fill-rule:nonzero;fill:rgb(100%,0%,0%);fill-opacity:1;" d="M 49.484375 79.132812 C 48.363281 81.527344 46.914062 83.765625 45.191406 85.761719 C 44.082031 87.050781 42.863281 88.238281 41.625 89.402344 C 40.660156 90.3125 39.675781 91.214844 38.886719 92.285156 C 38.351562 93.007812 37.90625 93.8125 37.695312 94.6875 C 37.3125 96.273438 37.730469 97.976562 38.519531 99.402344 C 38.980469 100.234375 39.570312 101.003906 40.300781 101.613281 C 41.382812 102.519531 42.792969 103.0625 44.191406 102.945312 C 45.476562 102.835938 46.679688 102.183594 47.613281 101.289062 C 48.445312 100.496094 49.089844 99.507812 49.5 98.429688 C 49.910156 99.507812 50.554688 100.496094 51.386719 101.289062 C 52.320312 102.183594 53.523438 102.835938 54.808594 102.945312 C 56.207031 103.0625 57.617188 102.519531 58.699219 101.613281 C 59.429688 101.003906 60.019531 100.234375 60.480469 99.402344 C 61.269531 97.976562 61.6875 96.273438 61.304688 94.6875 C 61.09375 93.8125 60.648438 93.007812 60.113281 92.285156 C 59.324219 91.214844 58.339844 90.3125 57.375 89.402344 C 56.136719 88.238281 54.917969 87.050781 53.808594 85.761719 C 52.085938 83.765625 50.636719 81.527344 49.515625 79.132812 "/>
</g>
</svg>
