<?xml version="1.0" encoding="UTF-8"?>
<svg xmlns="http://www.w3.org/2000/svg" xmlns:xlink="http://www.w3.org/1999/xlink" width="99px" height="140px" viewBox="0 0 99 140" version="1.1">
<g id="surface1">
<path style="fill-rule:nonzero;fill:rgb(100%,100%,100%);fill-opacity:1;stroke-width:0.755905;stroke-linecap:butt;stroke-linejoin:miter;stroke:rgb(50.196078%,50.196078%,50.196078%);stroke-opacity:1;stroke-miterlimit:4.3;" d="M 9.297585 0.380943 L 224.702415 0.380943 C 229.632812 0.380943 233.621449 4.385491 233.621449 9.319169 L 233.621449 323.680831 C 233.621449 328.614509 229.632812 332.619057 224.702415 332.619057 L 9.297585 332.619057 C 4.367188 332.619057 0.378551 328.614509 0.378551 323.680831 L 0.378551 9.319169 C 0.378551 4.385491 4.367188 0.380943 9.297585 0.380943 Z M 9.297585 0.380943 " transform="matrix(0.423077,0,0,0.42042,0,0)"/>
<path style=" stroke:none;fill-rule:nonzero;fill:rgb(0%,0%,0%);fill-opacity:1;" d="M 5.457031 25.789062 C 5.457031 25.554688 5.445312 25.386719 5.445312 25.152344 C 5.929688 25.152344 6.457031 25.152344 6.945312 25.152344 C 6.945312 24.597656 6.945312 24.558594 6.945312 24 C 5.996094 24.03125 4.96875 24.101562 4.078125 23.710938 C 3.390625 23.335938 3.199219 22.464844 3.339844 21.746094 C 3.457031 20.933594 3.910156 20.214844 4.503906 19.660156 C 5.273438 18.84375 6.253906 18.289062 7.277344 17.847656 C 8.324219 18.296875 9.328125 18.867188 10.105469 19.707031 C 10.808594 20.363281 11.277344 21.289062 11.261719 22.261719 C 11.277344 22.960938 10.839844 23.699219 10.121094 23.851562 C 9.316406 24.074219 8.5 24.035156 7.671875 24 C 7.671875 24.558594 7.671875 24.597656 7.671875 25.152344 C 8.160156 25.152344 8.605469 25.152344 9.09375 25.152344 C 9.09375 25.386719 9.105469 25.554688 9.105469 25.789062 C 7.992188 25.78125 6.660156 25.78125 5.457031 25.789062 Z M 5.457031 25.789062 "/>
<path style=" stroke:none;fill-rule:nonzero;fill:rgb(0%,0%,0%);fill-opacity:1;" d="M 89.898438 114.210938 C 89.898438 114.445312 89.886719 114.613281 89.886719 114.847656 C 90.371094 114.847656 90.898438 114.847656 91.386719 114.847656 C 91.386719 115.402344 91.386719 115.441406 91.386719 116 C 90.4375 115.96875 89.410156 115.898438 88.519531 116.289062 C 87.832031 116.664062 87.640625 117.535156 87.78125 118.253906 C 87.898438 119.066406 88.351562 119.785156 88.945312 120.339844 C 89.714844 121.15625 90.695312 121.710938 91.71875 122.152344 C 92.765625 121.703125 93.769531 121.132812 94.546875 120.292969 C 95.25 119.636719 95.71875 118.710938 95.703125 117.738281 C 95.71875 117.039062 95.28125 116.300781 94.5625 116.148438 C 93.757812 115.925781 92.941406 115.964844 92.113281 116 C 92.113281 115.441406 92.113281 115.402344 92.113281 114.847656 C 92.601562 114.847656 93.046875 114.847656 93.535156 114.847656 C 93.535156 114.613281 93.546875 114.445312 93.546875 114.210938 C 92.433594 114.21875 91.101562 114.21875 89.898438 114.210938 Z M 89.898438 114.210938 "/>
<path style=" stroke:none;fill-rule:nonzero;fill:rgb(0%,0%,0%);fill-opacity:1;" d="M 11.261719 15.199219 L 9.625 15.199219 L 8.980469 12.746094 L 5.605469 12.746094 L 4.933594 15.199219 L 3.296875 15.199219 L 6.484375 3.285156 L 8.082031 3.285156 Z M 8.390625 10.535156 L 7.292969 6.445312 L 6.191406 10.535156 Z M 8.390625 10.535156 "/>
<path style=" stroke:none;fill-rule:nonzero;fill:rgb(0%,0%,0%);fill-opacity:1;" d="M 87.738281 124.800781 L 89.375 124.800781 L 90.019531 127.253906 L 93.394531 127.253906 L 94.066406 124.800781 L 95.703125 124.800781 L 92.515625 136.714844 L 90.917969 136.714844 Z M 90.609375 129.464844 L 91.707031 133.554688 L 92.808594 129.464844 Z M 90.609375 129.464844 "/>
<path style="fill-rule:nonzero;fill:rgb(100%,100%,100%);fill-opacity:1;stroke-width:4.72441;stroke-linecap:butt;stroke-linejoin:miter;stroke:rgb(0%,0%,0%);stroke-opacity:1;stroke-miterlimit:4;" d="M 49.303977 202.550223 C 34.752841 194.55971 30.736506 175.977121 33.672585 160.692941 C 36.183949 143.448298 45.767756 128.145536 58.269176 116.345592 C 74.546875 98.942997 95.302557 87.1988 116.972301 77.740262 C 139.09446 87.356752 160.31179 99.491183 176.792614 117.349051 C 191.629972 131.304576 201.527699 151.011412 201.223011 171.647377 C 201.546165 186.550614 192.31321 202.290067 177.088068 205.54202 C 160.053267 210.261998 142.815341 209.41649 116.325994 209.379325 C 89.827415 209.34216 68.102273 210.828767 49.303977 202.550223 Z M 49.303977 202.550223 " transform="matrix(0.423077,0,0,0.42042,0,0)"/>
<path style=" stroke:none;fill-rule:nonzero;fill:rgb(0%,0%,0%);fill-opacity:1;" d="M 34.601562 100.328125 C 34.601562 98.433594 34.601562 96.996094 34.601562 95.101562 C 38.535156 95.101562 42.34375 95.101562 46.277344 95.101562 C 46.277344 90.597656 46.277344 90.308594 46.277344 85.808594 C 38.601562 86.054688 30.800781 86.660156 23.609375 83.507812 C 18.042969 80.464844 16.507812 73.386719 17.628906 67.566406 C 18.589844 61 22.257812 55.167969 27.039062 50.675781 C 33.265625 44.046875 41.203125 39.574219 49.488281 35.972656 C 57.949219 39.636719 66.0625 44.257812 72.367188 51.058594 C 78.042969 56.371094 81.828125 63.878906 81.710938 71.738281 C 81.835938 77.414062 78.304688 83.410156 72.480469 84.648438 C 65.96875 86.441406 59.410156 86.125 52.722656 85.847656 C 52.722656 90.351562 52.722656 90.597656 52.722656 95.101562 C 56.65625 95.101562 60.464844 95.101562 64.398438 95.101562 C 64.398438 96.996094 64.398438 98.433594 64.398438 100.328125 C 55.390625 100.265625 34.601562 100.347656 34.601562 100.328125 Z M 34.601562 100.328125 "/>
<path style=" stroke:none;fill-rule:nonzero;fill:rgb(100%,100%,100%);fill-opacity:1;" d="M 57.988281 63.386719 C 57.988281 72.808594 54.195312 80.449219 49.515625 80.449219 C 44.835938 80.449219 41.042969 72.808594 41.042969 63.386719 C 41.042969 53.964844 44.835938 46.324219 49.515625 46.324219 C 54.195312 46.324219 57.988281 53.964844 57.988281 63.386719 Z M 57.988281 63.386719 "/>
<path style="fill-rule:evenodd;fill:rgb(0%,0%,0%);fill-opacity:1;stroke-width:0.755906;stroke-linecap:butt;stroke-linejoin:miter;stroke:rgb(0%,0%,0%);stroke-opacity:1;stroke-miterlimit:4;" d="M 116.34446 154.096122 C 114.525568 155.480525 114.119318 155.945089 113.122159 157.478153 C 112.752841 158.063504 112.078835 159.447907 111.894176 160.377037 C 111.709517 161.296875 111.571023 162.644113 111.571023 163.350251 C 111.571023 165.765988 112.337358 167.271177 113.168324 167.224721 C 113.916193 167.131808 114.87642 166.351339 116.316761 164.585993 " transform="matrix(0.423077,0,0,0.42042,0,0)"/>
<path style="fill-rule:evenodd;fill:rgb(0%,0%,0%);fill-opacity:1;stroke-width:0.755906;stroke-linecap:butt;stroke-linejoin:bevel;stroke:rgb(0%,0%,0%);stroke-opacity:1;stroke-miterlimit:4;" d="M 117.646307 154.133287 C 119.465199 155.51769 119.871449 155.982254 120.877841 157.515318 C 121.237926 158.10067 121.911932 159.485073 122.105824 160.414202 C 122.290483 161.33404 122.428977 162.681278 122.428977 163.387416 C 122.419744 165.803153 121.653409 167.308343 120.822443 167.261886 C 120.074574 167.178265 119.12358 166.388504 117.674006 164.623158 " transform="matrix(0.423077,0,0,0.42042,0,0)"/>
<path style="fill-rule:nonzero;fill:rgb(100%,100%,100%);fill-opacity:1;stroke-width:1.133858;stroke-linecap:round;stroke-linejoin:round;stroke:rgb(0%,0%,0%);stroke-opacity:1;stroke-miterlimit:4;" d="M 93.225142 149.571261 C 89.642756 146.077734 87.131392 140.029102 86.789773 133.48803 C 86.401989 126.287277 90.196733 119.13298 95.875 115.054102 C 102.245739 110.575698 112.882102 109.330664 119.502131 109.665151 C 123.980114 109.665151 133.960938 111.997266 137.487926 114.617411 C 143.674006 119.123689 146.988636 125.506808 147.210227 132.781892 C 147.551847 140.094141 144.477273 145.659626 140.710227 149.13457 " transform="matrix(0.423077,0,0,0.42042,0,0)"/>
<path style="fill-rule:nonzero;fill:rgb(100%,100%,100%);fill-opacity:1;stroke-width:1.133858;stroke-linecap:butt;stroke-linejoin:miter;stroke:rgb(0%,0%,0%);stroke-opacity:1;stroke-miterlimit:4;" d="M 97.59233 163.712612 C 98.894176 166.853069 100.269886 169.928488 100.399148 173.152567 C 99.799006 175.754129 99.983665 178.829548 100.629972 181.273158 C 101.47017 184.627316 104.72017 188.613281 107.97017 189.932645 C 111.294034 191.149805 113.371449 191.456417 117.09233 191.456417 " transform="matrix(0.423077,0,0,0.42042,0,0)"/>
<path style="fill:none;stroke-width:1.133858;stroke-linecap:butt;stroke-linejoin:miter;stroke:rgb(0%,0%,0%);stroke-opacity:1;stroke-miterlimit:4;" d="M 100.851562 164.716071 C 101.922585 167.21543 102.245739 168.58125 103.021307 171.080608 C 103.676847 173.384849 103.916903 174.787835 104.323153 178.067662 " transform="matrix(0.423077,0,0,0.42042,0,0)"/>
<path style="fill-rule:nonzero;fill:rgb(100%,100%,100%);fill-opacity:1;stroke-width:1.133858;stroke-linecap:butt;stroke-linejoin:round;stroke:rgb(0%,0%,0%);stroke-opacity:1;stroke-miterlimit:4;" d="M 93.4375 129.074665 C 91.987926 130.347573 92.172585 132.261579 92.431108 135.114007 C 92.643466 137.278878 94.019176 139.415876 94.09304 141.394922 C 94.600852 145.576004 93.363636 149.757087 92.791193 153.166992 C 92.384943 157.09721 93.511364 160.46995 94.97017 161.780022 C 96.419744 163.071512 98.294034 163.601116 100.260653 164.20505 C 102.051847 164.678906 102.975142 165.487249 104.332386 166.5 C 105.948153 168.209598 106.326705 169.631166 106.289773 171.37793 " transform="matrix(0.423077,0,0,0.42042,0,0)"/>
<path style="fill-rule:nonzero;fill:rgb(100%,100%,100%);fill-opacity:1;stroke-width:1.133858;stroke-linecap:butt;stroke-linejoin:miter;stroke:rgb(0%,0%,0%);stroke-opacity:1;stroke-miterlimit:4;" d="M 136.389205 163.712612 C 135.096591 166.853069 133.711648 169.928488 133.582386 173.152567 C 134.182528 175.754129 133.997869 178.829548 133.351562 181.273158 C 132.520597 184.627316 129.233665 188.492494 125.983665 189.82115 C 122.733665 191.149805 120.65625 191.456417 116.935369 191.456417 " transform="matrix(0.423077,0,0,0.42042,0,0)"/>
<path style="fill:none;stroke-width:1.133858;stroke-linecap:butt;stroke-linejoin:miter;stroke:rgb(0%,0%,0%);stroke-opacity:1;stroke-miterlimit:4;" d="M 106.003551 171.508008 C 108.634943 173.115402 113.18679 172.883119 117.267756 172.808789 C 121.801136 172.790206 125.68821 172.45572 128.245739 170.913365 " transform="matrix(0.423077,0,0,0.42042,0,0)"/>
<path style="fill:none;stroke-width:1.133858;stroke-linecap:butt;stroke-linejoin:miter;stroke:rgb(0%,0%,0%);stroke-opacity:1;stroke-miterlimit:4;" d="M 106.372869 175.391769 C 109.410511 177.305776 112.992898 177.965458 117.110795 177.807506 C 121.394886 177.705301 124.672585 177.342941 127.599432 175.336021 " transform="matrix(0.423077,0,0,0.42042,0,0)"/>
<path style="fill:none;stroke-width:6.049412;stroke-linecap:butt;stroke-linejoin:miter;stroke:rgb(0%,0%,0%);stroke-opacity:1;stroke-miterlimit:4;" d="M 229.901402 385.64619 C 247.248662 406.605544 271.495399 410.222643 299.044029 410.965883 C 328.563939 412.055967 358.231695 400.312783 365.870403 385.64619 " transform="matrix(0.0792632,0,0,0.0788356,25.847582,44.312186)"/>
<path style="fill:none;stroke-width:6.049412;stroke-linecap:butt;stroke-linejoin:miter;stroke:rgb(0%,0%,0%);stroke-opacity:1;stroke-miterlimit:4;" d="M 240.694157 350.961679 L 241.039131 395.456951 " transform="matrix(0.0792632,0,0,0.0788356,25.847582,44.312186)"/>
<path style="fill:none;stroke-width:6.049412;stroke-linecap:butt;stroke-linejoin:miter;stroke:rgb(0%,0%,0%);stroke-opacity:1;stroke-miterlimit:4;" d="M 254.985933 358.641821 L 254.739524 402.740699 " transform="matrix(0.0792632,0,0,0.0788356,25.847582,44.312186)"/>
<path style="fill:none;stroke-width:6.049412;stroke-linecap:butt;stroke-linejoin:miter;stroke:rgb(0%,0%,0%);stroke-opacity:1;stroke-miterlimit:4;" d="M 269.967657 360.524694 L 269.52412 406.704643 " transform="matrix(0.0792632,0,0,0.0788356,25.847582,44.312186)"/>
<path style="fill:none;stroke-width:6.049412;stroke-linecap:butt;stroke-linejoin:miter;stroke:rgb(0%,0%,0%);stroke-opacity:1;stroke-miterlimit:4;" d="M 283.470922 361.51568 L 283.273794 408.389319 " transform="matrix(0.0792632,0,0,0.0788356,25.847582,44.312186)"/>
<path style="fill:none;stroke-width:6.049412;stroke-linecap:butt;stroke-linejoin:miter;stroke:rgb(0%,0%,0%);stroke-opacity:1;stroke-miterlimit:4;" d="M 298.699056 361.961624 L 298.699056 408.785713 " transform="matrix(0.0792632,0,0,0.0788356,25.847582,44.312186)"/>
<path style="fill:none;stroke-width:6.049412;stroke-linecap:butt;stroke-linejoin:miter;stroke:rgb(0%,0%,0%);stroke-opacity:1;stroke-miterlimit:4;" d="M 313.237242 359.186863 L 313.434369 408.587516 " transform="matrix(0.0792632,0,0,0.0788356,25.847582,44.312186)"/>
<path style="fill:none;stroke-width:6.049412;stroke-linecap:butt;stroke-linejoin:miter;stroke:rgb(0%,0%,0%);stroke-opacity:1;stroke-miterlimit:4;" d="M 326.76251 360.524725 L 327.206048 406.506476 " transform="matrix(0.0792632,0,0,0.0788356,25.814588,44.312184)"/>
<path style="fill:none;stroke-width:6.049412;stroke-linecap:butt;stroke-linejoin:miter;stroke:rgb(0%,0%,0%);stroke-opacity:1;stroke-miterlimit:4;" d="M 341.574384 357.99768 L 341.771512 402.146107 " transform="matrix(0.0792632,0,0,0.0788356,25.847582,44.312186)"/>
<path style="fill:none;stroke-width:6.049412;stroke-linecap:butt;stroke-linejoin:miter;stroke:rgb(0%,0%,0%);stroke-opacity:1;stroke-miterlimit:4;" d="M 357.147492 350.020242 L 355.718314 394.218219 " transform="matrix(0.0792632,0,0,0.0788356,25.847582,44.312186)"/>
<path style="fill:none;stroke-width:1.133858;stroke-linecap:butt;stroke-linejoin:miter;stroke:rgb(0%,0%,0%);stroke-opacity:1;stroke-miterlimit:4;" d="M 133.120739 164.651032 C 132.058949 167.150391 131.652699 168.441881 130.886364 170.941239 C 130.230824 173.24548 129.990767 174.648465 129.584517 177.928292 " transform="matrix(0.423077,0,0,0.42042,0,0)"/>
<path style="fill-rule:evenodd;fill:rgb(0%,0%,0%);fill-opacity:1;stroke-width:0.755906;stroke-linecap:butt;stroke-linejoin:miter;stroke:rgb(0%,0%,0%);stroke-opacity:1;stroke-miterlimit:4;" d="M 100.897727 143.569085 C 103.418324 143.132394 105.865057 142.844364 108.385653 142.556334 C 111.691051 141.720117 113.352983 145.492383 112.43892 148.335519 C 111.303267 150.85346 109.6875 153.064788 107.840909 155.201786 C 106.409801 156.818471 104.710938 157.078627 103.085938 156.530441 C 101.774858 156.16808 100.565341 155.359738 99.263494 153.482896 C 98.691051 151.875502 98.192472 151.039286 97.472301 149.032366 C 96.899858 147.183398 97.786222 144.423884 100.897727 143.569085 Z M 100.897727 143.569085 " transform="matrix(0.423077,0,0,0.42042,0,0)"/>
<path style="fill-rule:nonzero;fill:rgb(100%,100%,100%);fill-opacity:1;stroke-width:1.133858;stroke-linecap:butt;stroke-linejoin:round;stroke:rgb(0%,0%,0%);stroke-opacity:1;stroke-miterlimit:4;" d="M 140.728693 128.96317 C 142.178267 130.236077 141.993608 132.150084 141.735085 135.002511 C 141.53196 137.167383 140.147017 139.304381 140.073153 141.283426 C 139.565341 145.464509 140.802557 149.645592 141.384233 153.055497 C 141.78125 156.985714 140.65483 160.358454 139.205256 161.668527 C 137.746449 162.960017 135.087358 163.656864 133.90554 164.093555 C 132.520597 164.576702 131.107955 165.459375 129.833807 166.472126 C 128.301136 167.949442 127.839489 169.519671 127.87642 171.266434 " transform="matrix(0.423077,0,0,0.42042,0,0)"/>
<path style="fill-rule:evenodd;fill:rgb(0%,0%,0%);fill-opacity:1;stroke-width:0.755906;stroke-linecap:butt;stroke-linejoin:miter;stroke:rgb(0%,0%,0%);stroke-opacity:1;stroke-miterlimit:4;" d="M 133.139205 143.569085 C 130.618608 143.132394 128.171875 142.844364 125.651278 142.556334 C 122.355114 141.720117 120.683949 145.492383 121.598011 148.335519 C 122.742898 150.85346 124.349432 153.064788 126.196023 155.201786 C 127.627131 156.818471 129.335227 157.078627 130.960227 156.530441 C 132.271307 156.16808 133.480824 155.359738 134.78267 153.482896 C 135.345881 151.875502 135.84446 151.039286 136.573864 149.032366 C 137.146307 147.183398 136.25071 144.423884 133.139205 143.569085 Z M 133.139205 143.569085 " transform="matrix(0.423077,0,0,0.42042,0,0)"/>
<path style="fill:none;stroke-width:4.72441;stroke-linecap:butt;stroke-linejoin:miter;stroke:rgb(0%,0%,0%);stroke-opacity:1;stroke-miterlimit:4;" d="M 103.944602 207.511775 L 103.787642 221.058482 L 76.541193 221.058482 C 76.541193 221.058482 76.541193 221.058482 76.541193 243.654911 L 158.289773 243.654911 L 158.289773 221.058482 L 130.203125 221.058482 L 130.203125 208.98909 " transform="matrix(0.423077,0,0,0.42042,0,0)"/>
<path style=" stroke:none;fill-rule:nonzero;fill:rgb(100%,100%,100%);fill-opacity:1;" d="M 44.929688 86.980469 L 46.257812 86.980469 L 46.257812 89.320312 L 44.929688 89.320312 Z M 44.929688 86.980469 "/>
<path style=" stroke:none;fill-rule:nonzero;fill:rgb(100%,100%,100%);fill-opacity:1;" d="M 52.707031 86.929688 L 54.109375 86.929688 L 54.109375 89.269531 L 52.707031 89.269531 Z M 52.707031 86.929688 "/>
<path style=" stroke:none;fill-rule:nonzero;fill:rgb(0%,0%,0%);fill-opacity:1;" d="M 31.441406 110.898438 L 30.578125 110.898438 L 30.578125 106.335938 L 31.441406 106.335938 Z M 31.441406 110.898438 "/>
<path style=" stroke:none;fill-rule:nonzero;fill:rgb(0%,0%,0%);fill-opacity:1;" d="M 34.898438 109.71875 C 34.898438 110.113281 34.761719 110.429688 34.488281 110.667969 C 34.226562 110.898438 33.894531 111.011719 33.496094 111.011719 C 32.847656 111.011719 32.355469 110.683594 32.023438 110.023438 L 32.753906 109.582031 C 32.976562 109.984375 33.226562 110.1875 33.515625 110.1875 C 33.648438 110.1875 33.765625 110.148438 33.871094 110.074219 C 33.984375 109.988281 34.042969 109.882812 34.042969 109.757812 C 34.042969 109.621094 33.96875 109.472656 33.8125 109.3125 C 33.753906 109.25 33.621094 109.132812 33.421875 108.972656 C 33.046875 108.664062 32.789062 108.433594 32.65625 108.28125 C 32.378906 107.96875 32.238281 107.667969 32.238281 107.375 C 32.238281 107.039062 32.367188 106.761719 32.621094 106.539062 C 32.863281 106.324219 33.15625 106.21875 33.496094 106.21875 C 33.953125 106.21875 34.394531 106.464844 34.820312 106.953125 L 34.175781 107.523438 C 33.949219 107.207031 33.71875 107.050781 33.484375 107.050781 C 33.386719 107.050781 33.300781 107.074219 33.226562 107.125 C 33.136719 107.183594 33.09375 107.257812 33.09375 107.347656 C 33.09375 107.425781 33.121094 107.496094 33.171875 107.566406 C 33.246094 107.660156 33.457031 107.855469 33.808594 108.152344 C 34.148438 108.433594 34.347656 108.609375 34.414062 108.675781 C 34.738281 109.003906 34.898438 109.351562 34.898438 109.71875 Z M 34.898438 109.71875 "/>
<path style=" stroke:none;fill-rule:nonzero;fill:rgb(0%,0%,0%);fill-opacity:1;" d="M 41.492188 108.679688 C 41.492188 109.398438 41.273438 109.96875 40.832031 110.382812 C 40.582031 110.617188 40.285156 110.769531 39.9375 110.839844 C 39.734375 110.878906 39.390625 110.898438 38.910156 110.898438 L 37.863281 110.898438 L 37.863281 106.335938 L 38.894531 106.335938 C 39.46875 106.335938 39.90625 106.394531 40.214844 106.511719 C 40.617188 106.667969 40.9375 106.957031 41.179688 107.382812 C 41.386719 107.753906 41.492188 108.183594 41.492188 108.679688 Z M 40.613281 108.65625 C 40.613281 107.667969 40.082031 107.171875 39.027344 107.171875 L 38.730469 107.171875 L 38.730469 110.046875 L 39.132812 110.046875 C 39.472656 110.046875 39.726562 110.015625 39.894531 109.953125 C 40.125 109.867188 40.308594 109.699219 40.441406 109.453125 C 40.554688 109.238281 40.613281 108.972656 40.613281 108.65625 Z M 40.613281 108.65625 "/>
<path style=" stroke:none;fill-rule:nonzero;fill:rgb(0%,0%,0%);fill-opacity:1;" d="M 45.394531 109.054688 C 45.394531 109.429688 45.382812 109.691406 45.355469 109.835938 C 45.308594 110.097656 45.195312 110.328125 45.023438 110.527344 C 44.734375 110.851562 44.34375 111.011719 43.847656 111.011719 C 43.550781 111.011719 43.277344 110.945312 43.03125 110.8125 C 42.765625 110.667969 42.574219 110.46875 42.453125 110.210938 C 42.347656 109.984375 42.296875 109.597656 42.296875 109.054688 L 42.296875 106.335938 L 43.171875 106.335938 L 43.171875 109.289062 C 43.171875 109.492188 43.183594 109.636719 43.207031 109.730469 C 43.246094 109.886719 43.332031 110.003906 43.460938 110.078125 C 43.5625 110.144531 43.683594 110.175781 43.832031 110.175781 C 44.148438 110.175781 44.359375 110.050781 44.457031 109.800781 C 44.5 109.691406 44.519531 109.484375 44.519531 109.179688 L 44.519531 106.335938 L 45.394531 106.335938 Z M 45.394531 109.054688 "/>
<path style=" stroke:none;fill-rule:nonzero;fill:rgb(0%,0%,0%);fill-opacity:1;" d="M 48.488281 107.191406 L 47.65625 107.191406 L 47.65625 110.898438 L 46.769531 110.898438 L 46.769531 107.191406 L 45.957031 107.191406 L 45.957031 106.335938 L 48.488281 106.335938 Z M 48.488281 107.191406 "/>
<path style=" stroke:none;fill-rule:nonzero;fill:rgb(0%,0%,0%);fill-opacity:1;" d="M 52.320312 106.335938 L 50.980469 108.921875 L 50.980469 110.898438 L 50.105469 110.898438 L 50.105469 108.921875 L 48.757812 106.335938 L 49.695312 106.335938 L 50.546875 107.972656 L 51.394531 106.335938 Z M 52.320312 106.335938 "/>
<path style=" stroke:none;fill-rule:nonzero;fill:rgb(0%,0%,0%);fill-opacity:1;" d="M 57.890625 107.660156 C 57.890625 107.96875 57.808594 108.230469 57.648438 108.445312 C 57.484375 108.660156 57.253906 108.808594 56.957031 108.894531 C 56.792969 108.941406 56.488281 108.964844 56.039062 108.964844 L 56.039062 110.898438 L 55.167969 110.898438 L 55.167969 106.335938 L 56.09375 106.335938 C 56.492188 106.335938 56.792969 106.359375 56.988281 106.414062 C 57.304688 106.496094 57.542969 106.664062 57.699219 106.917969 C 57.824219 107.125 57.890625 107.371094 57.890625 107.660156 Z M 57.046875 107.660156 C 57.046875 107.484375 56.976562 107.355469 56.839844 107.273438 C 56.738281 107.214844 56.554688 107.183594 56.285156 107.183594 L 56.039062 107.183594 L 56.039062 108.117188 L 56.316406 108.117188 C 56.664062 108.117188 56.882812 108.050781 56.972656 107.917969 C 57.023438 107.847656 57.046875 107.761719 57.046875 107.660156 Z M 57.046875 107.660156 "/>
<path style=" stroke:none;fill-rule:nonzero;fill:rgb(0%,0%,0%);fill-opacity:1;" d="M 62.785156 110.898438 L 61.878906 110.898438 L 61.519531 109.957031 L 59.652344 109.957031 L 59.28125 110.898438 L 58.375 110.898438 L 60.140625 106.335938 L 61.023438 106.335938 Z M 61.195312 109.109375 L 60.585938 107.542969 L 59.976562 109.109375 Z M 61.195312 109.109375 "/>
<path style=" stroke:none;fill-rule:nonzero;fill:rgb(0%,0%,0%);fill-opacity:1;" d="M 64.265625 110.898438 L 63.398438 110.898438 L 63.398438 106.335938 L 64.265625 106.335938 Z M 64.265625 110.898438 "/>
<path style=" stroke:none;fill-rule:nonzero;fill:rgb(0%,0%,0%);fill-opacity:1;" d="M 68.875 108.679688 C 68.875 109.398438 68.65625 109.96875 68.21875 110.382812 C 67.964844 110.617188 67.667969 110.769531 67.320312 110.839844 C 67.117188 110.878906 66.777344 110.898438 66.292969 110.898438 L 65.246094 110.898438 L 65.246094 106.335938 L 66.277344 106.335938 C 66.851562 106.335938 67.289062 106.394531 67.597656 106.511719 C 68 106.667969 68.320312 106.957031 68.5625 107.382812 C 68.773438 107.753906 68.875 108.183594 68.875 108.679688 Z M 67.996094 108.65625 C 67.996094 107.667969 67.46875 107.171875 66.410156 107.171875 L 66.113281 107.171875 L 66.113281 110.046875 L 66.519531 110.046875 C 66.855469 110.046875 67.109375 110.015625 67.277344 109.953125 C 67.511719 109.867188 67.691406 109.699219 67.824219 109.453125 C 67.9375 109.238281 67.996094 108.972656 67.996094 108.65625 Z M 67.996094 108.65625 "/>
<path style=" stroke:none;fill-rule:nonzero;fill:rgb(0%,0%,0%);fill-opacity:1;" d="M 24.519531 43.578125 L 23.113281 45.191406 L 19.65625 42.203125 L 20.226562 41.546875 L 23.058594 43.992188 L 23.890625 43.035156 Z M 24.519531 43.578125 "/>
<path style=" stroke:none;fill-rule:nonzero;fill:rgb(0%,0%,0%);fill-opacity:1;" d="M 25.554688 42.546875 L 24.945312 43.160156 L 21.695312 39.945312 L 22.304688 39.332031 Z M 25.554688 42.546875 "/>
<path style=" stroke:none;fill-rule:nonzero;fill:rgb(0%,0%,0%);fill-opacity:1;" d="M 26.207031 35.941406 L 27.863281 40.5 L 27.214844 41.035156 L 23.042969 38.558594 L 23.734375 37.988281 L 26.695312 39.75 L 25.515625 36.511719 Z M 26.207031 35.941406 "/>
<path style=" stroke:none;fill-rule:nonzero;fill:rgb(0%,0%,0%);fill-opacity:1;" d="M 30.398438 38.625 L 29.691406 39.121094 L 27.058594 35.386719 L 27.769531 34.890625 Z M 30.398438 38.625 "/>
<path style=" stroke:none;fill-rule:nonzero;fill:rgb(0%,0%,0%);fill-opacity:1;" d="M 34.296875 36.101562 L 33.589844 36.550781 L 30.324219 35.078125 L 31.9375 37.601562 L 31.203125 38.070312 L 28.742188 34.222656 L 29.445312 33.773438 L 32.722656 35.253906 L 31.101562 32.722656 L 31.835938 32.253906 Z M 34.296875 36.101562 "/>
<path style=" stroke:none;fill-rule:nonzero;fill:rgb(0%,0%,0%);fill-opacity:1;" d="M 38.164062 31.511719 C 38.355469 31.839844 38.445312 32.21875 38.433594 32.65625 C 38.414062 33.503906 38.015625 34.140625 37.238281 34.5625 C 36.828125 34.785156 36.417969 34.898438 36 34.898438 C 35.566406 34.902344 35.15625 34.785156 34.773438 34.546875 C 34.402344 34.316406 34.109375 34.007812 33.898438 33.621094 C 33.605469 33.09375 33.53125 32.535156 33.667969 31.953125 C 33.828125 31.257812 34.246094 30.730469 34.914062 30.367188 C 35.601562 29.992188 36.320312 29.929688 37.058594 30.179688 L 36.8125 31.003906 C 36.277344 30.828125 35.78125 30.863281 35.328125 31.109375 C 34.9375 31.320312 34.679688 31.625 34.550781 32.027344 C 34.417969 32.433594 34.457031 32.828125 34.667969 33.214844 C 34.886719 33.609375 35.210938 33.867188 35.636719 33.976562 C 36.054688 34.089844 36.464844 34.035156 36.867188 33.816406 C 37.390625 33.53125 37.632812 33.101562 37.597656 32.527344 L 36.433594 33.160156 L 36.042969 32.445312 L 38.0625 31.347656 Z M 38.164062 31.511719 "/>
<path style=" stroke:none;fill-rule:nonzero;fill:rgb(0%,0%,0%);fill-opacity:1;" d="M 45.585938 30.636719 L 44.746094 30.972656 L 44.058594 30.238281 L 42.328125 30.933594 L 42.335938 31.945312 L 41.496094 32.285156 L 41.417969 27.394531 L 42.234375 27.0625 Z M 43.4375 29.574219 L 42.285156 28.347656 L 42.3125 30.027344 Z M 43.4375 29.574219 "/>
<path style=" stroke:none;fill-rule:nonzero;fill:rgb(0%,0%,0%);fill-opacity:1;" d="M 52.90625 27.667969 C 52.886719 28.046875 52.75 28.414062 52.5 28.773438 C 52.011719 29.46875 51.328125 29.78125 50.445312 29.707031 C 49.984375 29.667969 49.578125 29.535156 49.226562 29.308594 C 48.863281 29.070312 48.589844 28.75 48.402344 28.339844 C 48.214844 27.945312 48.140625 27.527344 48.179688 27.085938 C 48.230469 26.484375 48.472656 25.976562 48.910156 25.566406 C 49.429688 25.078125 50.066406 24.863281 50.824219 24.925781 C 51.609375 24.992188 52.242188 25.335938 52.722656 25.949219 L 52.058594 26.5 C 51.707031 26.058594 51.273438 25.820312 50.761719 25.773438 C 50.320312 25.738281 49.9375 25.851562 49.605469 26.113281 C 49.273438 26.378906 49.085938 26.730469 49.050781 27.167969 C 49.011719 27.621094 49.140625 28.011719 49.433594 28.339844 C 49.722656 28.660156 50.09375 28.84375 50.550781 28.878906 C 51.144531 28.929688 51.585938 28.707031 51.871094 28.207031 L 50.550781 28.097656 L 50.621094 27.28125 L 52.914062 27.476562 Z M 52.90625 27.667969 "/>
<path style=" stroke:none;fill-rule:nonzero;fill:rgb(0%,0%,0%);fill-opacity:1;" d="M 58.445312 30.039062 C 58.203125 30.660156 57.785156 31.101562 57.191406 31.367188 C 56.601562 31.632812 55.996094 31.644531 55.375 31.40625 C 54.746094 31.160156 54.300781 30.738281 54.042969 30.140625 C 53.78125 29.542969 53.773438 28.929688 54.019531 28.304688 C 54.175781 27.898438 54.421875 27.566406 54.75 27.300781 C 55.078125 27.035156 55.457031 26.867188 55.886719 26.800781 C 56.304688 26.738281 56.714844 26.78125 57.113281 26.9375 C 57.734375 27.175781 58.171875 27.601562 58.425781 28.207031 C 58.679688 28.8125 58.683594 29.421875 58.445312 30.039062 Z M 57.632812 29.71875 C 57.789062 29.316406 57.789062 28.925781 57.636719 28.542969 C 57.476562 28.152344 57.195312 27.878906 56.796875 27.726562 C 56.386719 27.566406 55.996094 27.578125 55.621094 27.757812 C 55.253906 27.933594 54.992188 28.226562 54.832031 28.636719 C 54.648438 29.105469 54.671875 29.542969 54.902344 29.949219 C 55.082031 30.265625 55.339844 30.488281 55.679688 30.621094 C 56.078125 30.777344 56.464844 30.761719 56.847656 30.582031 C 57.214844 30.40625 57.476562 30.117188 57.632812 29.71875 Z M 57.632812 29.71875 "/>
<path style=" stroke:none;fill-rule:nonzero;fill:rgb(0%,0%,0%);fill-opacity:1;" d="M 63.4375 32.449219 C 63.144531 33.042969 62.691406 33.449219 62.078125 33.667969 C 61.464844 33.882812 60.863281 33.84375 60.261719 33.550781 C 59.660156 33.253906 59.25 32.796875 59.042969 32.179688 C 58.832031 31.558594 58.878906 30.949219 59.175781 30.347656 C 59.367188 29.957031 59.636719 29.644531 59.988281 29.40625 C 60.335938 29.167969 60.730469 29.035156 61.164062 29.007812 C 61.589844 28.976562 61.992188 29.054688 62.375 29.242188 C 62.972656 29.535156 63.371094 29.996094 63.578125 30.621094 C 63.777344 31.242188 63.730469 31.851562 63.4375 32.449219 Z M 62.65625 32.058594 C 62.847656 31.671875 62.882812 31.285156 62.757812 30.890625 C 62.632812 30.488281 62.378906 30.191406 61.992188 30.003906 C 61.597656 29.808594 61.207031 29.789062 60.820312 29.9375 C 60.4375 30.082031 60.152344 30.351562 59.957031 30.746094 C 59.734375 31.199219 59.71875 31.636719 59.914062 32.058594 C 60.066406 32.390625 60.308594 32.632812 60.636719 32.796875 C 61.015625 32.980469 61.40625 33 61.800781 32.851562 C 62.183594 32.707031 62.46875 32.445312 62.65625 32.058594 Z M 62.65625 32.058594 "/>
<path style=" stroke:none;fill-rule:nonzero;fill:rgb(0%,0%,0%);fill-opacity:1;" d="M 67.410156 34.839844 C 67.042969 35.457031 66.5625 35.832031 65.96875 35.964844 C 65.632812 36.039062 65.300781 36.015625 64.964844 35.902344 C 64.769531 35.832031 64.46875 35.671875 64.054688 35.429688 L 63.152344 34.894531 L 65.492188 30.972656 L 66.378906 31.5 C 66.871094 31.789062 67.21875 32.066406 67.421875 32.324219 C 67.691406 32.660156 67.816406 33.074219 67.804688 33.5625 C 67.796875 33.988281 67.664062 34.414062 67.410156 34.839844 Z M 66.664062 34.371094 C 67.171875 33.519531 66.972656 32.824219 66.0625 32.285156 L 65.808594 32.132812 L 64.335938 34.605469 L 64.683594 34.8125 C 64.972656 34.984375 65.207031 35.085938 65.382812 35.117188 C 65.625 35.164062 65.871094 35.113281 66.109375 34.964844 C 66.320312 34.839844 66.503906 34.640625 66.664062 34.371094 Z M 66.664062 34.371094 "/>
<path style=" stroke:none;fill-rule:nonzero;fill:rgb(0%,0%,0%);fill-opacity:1;" d="M 70.425781 39.703125 L 68.714844 38.421875 L 71.460938 34.769531 L 72.160156 35.292969 L 69.910156 38.28125 L 70.925781 39.039062 Z M 70.425781 39.703125 "/>
<path style=" stroke:none;fill-rule:nonzero;fill:rgb(0%,0%,0%);fill-opacity:1;" d="M 71.542969 40.648438 L 70.878906 40.089844 L 73.835938 36.605469 L 74.496094 37.160156 Z M 71.542969 40.648438 "/>
<path style=" stroke:none;fill-rule:nonzero;fill:rgb(0%,0%,0%);fill-opacity:1;" d="M 75.355469 41.371094 L 74.332031 40.402344 L 72.910156 41.886719 L 72.289062 41.296875 L 75.445312 37.992188 L 77.089844 39.554688 L 76.503906 40.167969 L 75.484375 39.199219 L 74.910156 39.796875 L 75.929688 40.765625 Z M 75.355469 41.371094 "/>
<path style=" stroke:none;fill-rule:nonzero;fill:rgb(0%,0%,0%);fill-opacity:1;" d="M 76.167969 45.25 L 74.472656 43.421875 L 77.828125 40.320312 L 79.527344 42.148438 L 78.902344 42.726562 L 77.792969 41.53125 L 77.183594 42.09375 L 78.296875 43.285156 L 77.679688 43.855469 L 76.570312 42.660156 L 75.6875 43.476562 L 76.796875 44.671875 Z M 76.167969 45.25 "/>
</g>
</svg>
