<svg xmlns="http://www.w3.org/2000/svg" width="99" height="140"><path d="M9.298 719.743h215.404c4.93 0 8.92 4.005 8.92 8.938v314.362c0 4.934-3.99 8.938-8.92 8.938H9.298c-4.93 0-8.92-4.004-8.92-8.938V728.681c0-4.933 3.99-8.938 8.92-8.938Zm0 0" style="fill-rule:nonzero;fill:#fff;fill-opacity:1;stroke-width:.755906;stroke-linecap:butt;stroke-linejoin:miter;stroke:gray;stroke-opacity:1;stroke-miterlimit:4" transform="matrix(.42308 0 0 .42042 0 -302.435)"/><path d="M5.457 25.79c0-.235-.012-.403-.012-.638h1.5V24c-.949.031-1.976.102-2.867-.29-.687-.374-.879-1.245-.738-1.964.117-.812.57-1.531 1.164-2.086.77-.816 1.75-1.37 2.773-1.812 1.047.449 2.051 1.02 2.828 1.859.704.656 1.172 1.582 1.157 2.555.015.699-.422 1.437-1.14 1.59-.806.222-1.622.183-2.45.148v1.152h1.422c0 .235.011.403.011.637a283.894 283.894 0 0 0-3.648 0ZM89.898 114.21c0 .235-.011.403-.011.638h1.5V116c-.95-.031-1.977-.102-2.867.29-.688.374-.88 1.245-.739 1.964.117.812.57 1.531 1.164 2.086.77.816 1.75 1.37 2.774 1.812 1.047-.449 2.05-1.02 2.828-1.859.703-.656 1.172-1.582 1.156-2.555.016-.699-.422-1.437-1.14-1.59-.805-.222-1.622-.183-2.45-.148v-1.152h1.422c0-.235.012-.403.012-.637-1.113.008-2.445.008-3.649 0ZM21.16 35.848c0-.465-.027-.805-.027-1.274h3v-2.3c-1.899.062-3.953.203-5.73-.579-1.376-.75-1.758-2.496-1.481-3.933.238-1.621 1.144-3.059 2.328-4.168 1.54-1.637 3.504-2.742 5.55-3.63 2.095.903 4.102 2.044 5.66 3.724 1.403 1.312 2.34 3.164 2.31 5.105.03 1.398-.84 2.879-2.282 3.184-1.61.445-3.242.367-4.894.296v2.301h2.836c0 .469.027.809.027 1.274-2.227-.016-4.89-.016-7.297 0ZM70.55 104.152c0 .465-.027.805-.027 1.274h3v2.3c-1.898-.062-3.953-.203-5.73.579-1.375.75-1.758 2.496-1.48 3.933.238 1.621 1.144 3.059 2.328 4.168 1.539 1.637 3.504 2.742 5.55 3.63 2.094-.903 4.102-2.044 5.66-3.724 1.403-1.312 2.337-3.164 2.31-5.105.03-1.398-.845-2.879-2.282-3.184-1.613-.445-3.242-.367-4.895-.296v-2.301h2.836c0-.469.028-.809.028-1.274-2.23.016-4.891.016-7.297 0Zm0 0" style="stroke:none;fill-rule:nonzero;fill:#000;fill-opacity:1"/><path d="M12.914 15.992h73.098l.133 108.016-73.29-.18s-.003-70.484.06-107.836ZM64.836 123.23c-2.723-4.543-7.023-11.937-7.152-11.996-1.59.778-17.809 2.778-25.614.844-2.668 3.688-5.285 7.34-7.61 10.996Zm-24.91-13.582c-.41.008-.864.239-.781.04.05-.118.164-1.282.214-1.696.121-.187.293.301.274.75-.012.258.125.074 1.05.117.997.051 1.817.223 2.157.29 1.18.234 3.465.066 4.445-.59.531-.352.73.03.184.41-2.469 1.719-4.426 1.062-6.57.777-.32-.043-.641-.105-.973-.098Zm1.047-1.632c-.153-.09-.254-.098-.45-.016-.757.324-.558-.14-.011-.61.246-.214.242-.324.05-.55-.093-.113-.253-.13-.218-.297.164-.738 1.289-1.856 2.55-2.352.524-.207.606.02-.058.375-1.016.551-1.344 1.02-.77.829 1.118-.368 2.133-.106 3.563.546.406.188.594.223.941.192.258-.195.485.039.645.16.101.074.12.11.234.086.813-.176.328.3-.785 1.047-1.988 1.289-4.156 1.898-5.691.59Zm3.062.32c.813-.227 1.805-.695 2.414-1.188.739-.593.32-.503-.531-.128-1.227.543-2.09.699-3.473.671-1.156-.023-1.12-.066-1.16.067-.148.465 1.442.937 2.75.578Zm-2.246-1.816c.066-.204.117-.47.059-.555-.11-.156-.34-.043-.63.297-.183.21-.16.238.02.406.09.055.157.098.211.125.246.098.285-.113.34-.273Zm.508.273c.355-1.113 1.152-1.09 1.719-.027l.402.004c-.824-2.075-2.422-1.024-2.473.007.188.059.352.016.352.016Zm2.976-.188c.375-.19.32-.324-.16-.55-.34-.16-.52-.196-.582-.09.004.23.016.558.16.742.149.082.356 0 .582-.102ZM40 103.437c-.07-.105-.059-.296.203-.41 1.613-.683.438-2.132-.808-1.047-.395.297-.985.438-1.438.258-.426-.168-.434-.648.133-.75.187-.035.664-.129.84-.242 2.168-1.062 3.316 1.25 1.78 2.024-.315.168-.651.261-.71.168Zm-6.07-2.101c-.88-.367-1-1.637-.176-2.133.523-.328 1.059-.418 2.504.238 1.023.465 1.605-.035 1.578.504-.016.328-.035.66-.629.739-.965.129-1.625-1.075-2.863-.961-.89.082-.778 1.062-.133 1.261.86.266.34.582-.281.352Zm16.164.184c-.16.07-.235-.254-.164-.43.437-.957.843-1.715 1.242-2.613.316-.715.527-1.02.672-1.02.144 0 .215.106-.032.547-.367.887-1.714 3.59-1.718 3.516Zm-7.219-.25c-.387-.254-.32-.63.121-.344.57.367 1.5-.305 1.313-.938-.23-.77-1.34-.953-2.27-.265-1.465 1.082-3.07 1.136-3.07.289.004-.242-.035-.297.574-.336.71-.043 1.508-.34 1.906-.563 1.781-.996 3.676-.308 3.285 1.356-.18.785-1.226 1.164-1.859.8Zm-6.531-2.454c-.145-.004-.407.13-.485.079-.148-.102-.125-.399-.25-.715-.214-.559-.004-.383.38-.23a2.221 2.221 0 0 0 1.44.007c.45-.144 1.044-.11 1.989.004.758.09 1.187.062 1.875-.117.75-.215.55-.14.426.285-.082.277-.184.652-.278.742-.52-.266-.91-.164-1.254.016-.558.226-.953.265-1.41.14-.433-.226-.687-.207-1.035-.011-.594.265-.86-.176-1.398-.2Zm11.168-1.164c.105-.172.258-.402.402-.664 1.156-2.113 1.234-2.699.418-3.41-1.098-.953-2.031-.539-3.082 1.367-.258.465-.41.813-.512.953-.12.168-.258.04-.328-.023-.129-.121 1.04-2.148 1.496-2.59 1.196-1.156 3.422-.23 3.282 1.34-.075.793-.239 1.23-1.028 2.684-.195.359-.363.664-.469.808-.367.23-.285-.293-.18-.465Zm-10.907-.086c.184-.75 2.81-1.097 3.5-.113.067.098.028.094-.27.016-1.335-.403-1.597-.383-2.878.082-.191.07-.328.097-.352.015Zm10.012-.14c0-.074.098-.352.246-.621.875-1.586 1.117-1.97.848-2.266-.52-.578-1.215-.074-1.86 1.582-.238.621-.402.488-.519.39-.223-.187.77-2.116 1.246-2.406 1.086-.632 1.938.102 1.461 1.399-.375.582-.684 1.484-1.035 1.957-.164.21-.387.148-.387-.035Zm-3.922-2.582c-.054-.078.047-.188.426-.926.516-1.016.676-1.395.465-1.973-.375-1.035-1.785-1.289-2.64-.61-.282.22-.47.52-.602.794-.309.629-.567 1.445-.75 1.617-.16.149-.387.18-.371-.082.203-.547.3-.973.78-1.777 1.2-2.395 4.661-1.285 3.852 1.234-.3.918-.648 1.61-.851 1.836-.117.125-.305.016-.309-.113Zm-.804-.438c0-.082.132-.304.27-.617.585-1.332.589-1.738-.266-1.754-.508.059-.586.25-1.032 1.3-.148.34-.226.583-.312.688-.094.11-.27.043-.34-.023-.184-.172.617-1.89 1.039-2.215.969-.773 2.227.328 1.637 1.317-.274.691-.512 1.16-.676 1.375-.14.187-.32.16-.32-.07Zm-20.664-15.5-2.946-.187c.52 2.898.547 6.09.02 8.351-.45 1.938-.457 3.36-.32 5.04.156 1.949 1.054 3.605 1.28 5.675.165 1.5-.198 3.067-.519 4.559-.539 2.496-.43 2.758-.351 5.683.074 2.711-.2 2.614-.371 2.457-.024-.023-.047-.504-.043-1.074.003-.57-.036-1.969-.07-2.937-.071-1.934.163-3.645.331-4.348.344-1.434.735-2.898.496-4.484-.488-2-1.172-4-1.41-5.93-.297-2.379.43-4.762.672-6.492.23-1.664-.016-4.551-.488-5.75-.082-.403-.473-.922-.473-.922-.441-.059-.89-.117-1.512-.113-.035 11.453 0 22.91.008 34.363l2.75 2.348 2.824-2.473Zm.199 13.137s4.195 2.223 8.82 4.406c-.441-2.5.957-2.875 2.27-3.164-.317-4.828 4.492-3.836 5.226.356l.477.004c.832-2.094 1.656-3.536 3.55-3.88 1.47-.269 2.919.59 3.286 2.606-.063-.14 4.875-2.668 5.011 2.668 2.243-1.281 3.84-.176 4.489 1.45.945-1.325 3.316-1.384 4.074-1.481.262-.281.726-.442 1.574-.434.723-.035 1.7-.535 2.2.074.761.11 1.343-.015 1.995.446.52.363 1.098 1.172 1.961.613 1.645-.727 3.493-1.059 4.965-1.937 0 0-.39-.461-.277-.395.043.023.226.242.504.344.097.039 1-.461 1-.461-6.13-6.496-11.172-19.184-7.84-30.918.09-.2-.277-.278-.461-.348.055-.09.957.031.574.778-.386 2.246-.82 4.683-.918 6.546 0 .23.02.434.02.434 13.746 5.832 12.058 18.465 8.527 22.863l.559.684c.246.148 10.812-5.52 10.465-5.75l1.996-.918-.32-24.774-7.91-.554s.085-.211.183-.266c.074-1.512-.074-3.746.004-5.62.03-5.352.09-7.169.015-7.317-2.437-1.48-6.074-3.641-9.136-4.688.125.035-.047 2.219-.141 2.344-2.863.84-1.535 1.914-2.594 3.066-.71.72-2.375.856-3.18-.004-.956-.855-1.41-2.816-1.41-2.816-1.511 1.488-1.203 3.29-3.23 3.969-3.262 1.488-4.297-2.961-4.106-2.86-1.25 1.11-4.757 2.012-5.136-2.668-1.575 1.336-3.34.672-4.09-.972-.965.031-2.043.726-3.016 1.101-.906.367-2.062.582-2.918.567-1.074.12-1.957.117-2.925-.149-.454.133-1.481-.27-1.797-.851-.48-.524-.903-.555-1.364-.461-1.566.758-3.246.941-5.093 1.738-.118.074.16.211.066.184-.04-.012-.969.422-.969.422 9.364 11.332 9.875 22.77 7.91 30.878-.074.282-.117.485.086.707-.3-.05-.304.032-.359-.144l.973-6.805c.03-.824.14-.761-.645-1.066-.726-.285-1.41-.559-2.012-.899-2.28-1.554-4.863-3.472-6.12-5.863-3.59-5.14-2.407-11.273.284-16.133l-.671-.64c-7.848 3.62-12.485 7.523-12.485 7.523l.035 24.309 8.067.855Zm-3.89-16.234c-.259-.262-.919-.309-1.192-.11-.063.051-.2.309-.239.301-.367-.09-.62-.156-.668-.441l.387-.54c.309-.43.75-.578 1.496-.738.266-.058.664-.11.805-.164.563-.222.758-.707.188-.492-.415.105-.993.07-1.07-.277-.063-.285-.329-.399-.626-.364-.547.121-1.043.383-1.527.645-.215.121-.621.39-.621.39-.067.094-.301-.582-.082-.78.273.03.511.034.777-.067.668-.242 1.309-.54 1.984-.774.426-.156.465-.144.352-.421-.055-.106-.102-.446-.031-.625.082-.192.07-.29-.063-.372-.3-.183-1.027-.011-2.05.442-.31.137-.516.191-.711.336.125-.297.05-.352.046-.664.418.05.793-.102 1.125-.266.278-.129.586-.262 1.34-.348.207-.027.114-.718-.12-.921-.224-.192-.692-.196-1.255-.04-.504.106-1.133.215-1.48.711-.438.383.011-.632.808-1.035.352-.007 1.121-.16 1.305-.195.309-.063.356-.73-.09-1.012-.281-.226 1.016-.234.992-.164-.015.04-.027.324.07.395.56.156.555.578.602.754.645.968.961.363 1.403.027-.094 2.113.707 2.352.816 2.484-1.105 1.895-.273 1.942.762 2.375 0 0-.395.149-.657.133-.41-.023-1.199.426-1.542.688-.188.148-.196.027-.954.004-.714-.016-.77.03-1.093.164-.645.261-.641.511-.012.414.668-.106 1.324.27 1.402.777.055.098.004.27-.004.262-.14-.024-.457.023-.449-.035a.783.783 0 0 0-.125-.457Zm.976-2.559c.183-.105.215-.41.054-.531-.144-.114-.753-.055-.925.09-.391.28.32.754.87.441Zm.39-1.27c.227-.164.254-.55.059-.773-.332-.383-1.191-.156-1.238.328-.051.512.71.781 1.18.445Zm-.28-1.746c.042-.421-.411-.687-.829-.488-.52.25-.203.774.445.742.364-.015.364-.015.383-.254Zm-1.52-1.707c-.243.11-.254.371-.024.54.91.464.633-.778.024-.54Zm63.597 2.516c-.398-1.356-1.5-.012-1.504.008-.039-1.39.246-2.008-.882-2.485 1.132-1.582.898-1.8-.31-2.406.114.008 1.602-.3 1.856-1.082.055.035 2.336.555 2.618-.59-.688.285-2.04.328-2.055-.902.129-.035.45.027.422.066-.18.79 1.383.985 1.636.36 0 0 .528.324.758.375.024.015-.71.957-1.383 1.097-1.21.368-1.628.47-1.628.692 0 .086.199.097.558.164.75.05.735.2.832.426.09.203.172.246.422.222.86-.261 1.29-.398 1.887-.949.074-.012.16.578.207.598.004-.094-.61.07-1.555.578-.77.418-1.07.476-1.168.59-.074.082.113.343.133.629.02.238-.156.355-.027.43.148.085.375.07.68-.005.663-.148 1.156-.386 1.753-.726-.129.219.086.781.086.781s-.297-.191-.539-.09c-.469.188-1.226.446-1.43.489-.199.042-.285.07-.363.128-.094.075-.078.254-.078.516-.004.184-.059.356.066.41.278.082.844.059 1.418-.129.246-.097.766-.36.766-.36l-.164.778c-.219-.222-.844-.058-1.262.094-.21.063-.273.184-.328.355-.094.29.106.489.336.582.156.067.39.04.39.04-1.085.378-.867.52-1.503.23-.274-.27-.54-.559-.645-.914Zm1.137 0c-.18-.191-.496-.3-.676-.227-.164.082-.105.246-.055.375.137.352 1.094.239.73-.148Zm-.633-.969c.254-.304-.027-.719-.496-.722-.328 0-.504.187-.5.421.008.446.781.559.996.301Zm-.523-1.168c.472-.12.617-.539.289-.844-.23-.218-.957-.246-1.153-.05-.496.504.059 1.093.864.894Zm.39-1.539c.278-.133.332-.347.086-.597-.441-.348-1.219-.075-.969.433.126.246.547.32.883.164ZM24.332 55.684c.414-.141.715-.438 1.156-.668.293-.149.207-.125-.172-.328-.296-.126-.894-.68-.949-.547-.137.234-.117 1.53-.035 1.543Zm10.527 13.562c.016-.266.051-.664.043-.953.055-.559-.054-.395-.379-.215-.242.145-.632.363-.785.434-.597.277-.527.289.317.664.71.293.789.265.804.07Zm-.824-1.3c.574-.337.762-.505.79-.88.003-.43-.052-.586-.458-.289-1.398 1.016-2.836-.976-1.558-2.082.261-.226.593-.578.597-.668.02-.64-.765-.02-1.406.864-.71.8-1.152 1.8-.527 2.765.496.703 1.605.844 2.562.29Zm-3.172-1.298c-.027-.312.07-.664.114-.77.156-.366.152-.413-.559-.105-.285.086-.625.153-.754.153-.582-.004-.437.164.395.804.84.645.867.7.804-.082Zm1.977-3.074c.09-.195-.094-.27-.27-.234-.015.004-.32.215-.68.472-1.081.786-1.878.88-2.417.278-.547-.606-.317-1.324.902-2.153.54-.363.668-.386.41-.546-.2-.121-.21-.102-.984.379-1.559.972-2.024 1.636-1.867 2.601.03.399.257.606.476.762 1.485 1.21 3.547-.461 4.43-1.559Zm1.574.57-.094-1.335c-1.586-1.258-3.09-3.407-3.61-5.188-.526-1.582-.105-4.883-.026-4.637l-.856-1.492c-.746 1.582-1.07 4-.262 6.461.692 2.09 2.067 4.621 4.848 6.192Zm-6.676-.777c.504-.89.52-.793-.453-.8-1.11-.012-.988-.133-.36.738.5.699.419.761.813.062Zm.668-1.219c.64-.191.492-.148 1.34-.656.977-.582 1.016-.902.04-.453-1.259.578-2.36.43-2.77-.32-.364-.672.398-1.512 1.652-1.836.426-.113.652-.207.656-.38 0-.526-2.133.177-3.012.97-1.699 1.535-.21 3.355 2.094 2.675Zm-2.746-2.39c.059-.078.211-.274.352-.469.601-.644.093-.453-.438-.629-.281-.094-.57-.191-.738-.168-.32.043.11.613.21.98.29.813.255.79.614.286Zm2.274-1.469c1.074-.098 1.187-.195 1.187-.398s-.133-.164-.672-.098c-1.43.184-2.379-.152-2.582-.852-.21-.726.758-1.414 2.047-1.37.7.019 1.168-.2.742-.415-.222-.113-2.148-.09-2.586.028-1.28.343-1.8 1-1.683 1.906.175 1.12.84 1.441 2.46 1.363.313-.016.708-.133 1.087-.164Zm.832-3.648c0-.176-.305-.203-1.32-.34-1.356-.188-1.958-1.336-1.145-2.031.312-.262 1.047-.375 1.457-.305.89.148 1.437.316 1.445.039.004-.25-.258-.266-1.93-.594-2.53-.492-3.918 1.793-1.894 2.91.766.426 3.383.668 3.387.32Zm.629-3.27c0-.09-.082-.156-.274-.226-.281-.098-.465-.118-1.094-.508-.836-.516-1.09-1.528-.53-2.09.538-.524-.434-1.145-1.208-.55-.805.612-.738 1.581.188 2.347.855.703 2.914 1.437 2.918 1.027Zm-4.098-.137c.879-.379 1.508-.164.836-.687-.38-.32-.7-1.234-.961-.461-.203.465-.352 1.281-.356 1.36.059.054.047-.04.48-.212Zm31.09-1.972c-1-.227-1.684-1.297-1.43-2.328.145-.579.738-1.95.855-2.036.442-.32.383.11-.023.852-.371.762-.656 1.375-.543 1.828.164.64.445 1.133 1.172 1.297.512.117.996-.082 1.32-.293.434-.281.844-1 1.332-2 .157-.277.364-1.14.625-.613.125.27-.918 2.082-1.308 2.539-.489.578-1.317.914-2 .754Zm6.039-.606c.488.43 1.312.649 1.847.492 1.32-.425 1.922-1.574 1.422-3.421-.254-1.036-.468-1.676-.687-1.805-.106-.063-.223.055-.328.195-.09.13.05.313.199.797.633 2.05.465 2.98-.305 3.371-1.117.57-2.074-.086-2.398-1.55-.051-.223-.203-.684-.203-.684-.086-.207-.778-.16-.528.52.075.527.602 1.784.98 2.085Zm5.664-5.37c-.02-.724-1.668-3.852-1.778-3.52 0 0-.007.73.055 1.02.024.109.11.206.18.323 1.433 2.352 1.215 4.008-.027 4.371-.426.18-.516.352-.329.536.383.382 1.344-.375 1.532-.649.468-.617.406-1.746.367-2.082Zm-24.004-.532c.543-.555 1.727-2.473 2.094-3.477 1.12-2.992 2.304-6.433 2.629-9.613.035-.402.058-1.012.082-1.062-.09-.09-.645-.043-.832.043-.09.109-.032.347-.063.656-.504 3.578-1.43 6.836-2.809 10.148-.601 1.442-1.16 2.39-1.886 3.39-.125.177-.285.356-.352.458-.183.246-.047.402.164.3.38-.195.703-.574.973-.843Zm-1.84.867c1.723-2.18 2.95-4.8 3.899-7.894.601-2 1.132-4.028 1.449-6.09.066-.442.117-.735.027-.867-.234-.06-.668-.024-.82.085-.09.13-.031.383-.114.977-.222 1.54-.55 3.078-1.109 5.098-1.469 4.468-2.82 6.972-4.598 9.16-.144.183-.27.305-.257.383.02.113.191.105.472-.059.367-.266.79-.496 1.051-.793Zm-2.625 1.16c.844-.437 2.328-2.355 3.375-4.418 1.176-2.437 2.16-5.191 2.809-7.574.277-1.043.675-3.652.617-3.824-.067-.203-.89-.035-.774.105 0 0-.82 4.196-1.699 6.504-1.636 4.293-3.05 7.203-4.574 8.606-.2.18-.59.539-.59.539s.008.16.133.187c.305.051.508-.031.703-.125Zm-1.289-.168c1.902-.98 4.129-5.558 5.945-11.308.313-.98.883-4.274.883-4.274s-.758.024-.906.172c-.145.2-.121.707-.336 1.91-.816 3.633-2.05 6.95-3.902 10.227-.805 1.453-2.137 2.82-2.977 3.21-.473.22-.61.458-.266.477.582.02.633.13 1.055-.078ZM64.395 95.81c-1.426-.004-2.637 1.254-3.715 2.84-2.297 3.25-3.84 8.68-4.215 11.562l.863-.148c-.129.054 1.621-7.68 4.285-10.993 1.442-2.09 1.383-2.12 2.192-2.312 1.02-.242 1.84.777 1.332 1.39-.184.211-.383.059-.328-.238.183-.945-1.313-1.129-1.73-.2-.485 1.071.796 2.024 2.046 1.603 1.117-.364 1.582-1.805.8-2.868-.402-.36-.987-.675-1.53-.636Zm-7.508-.133c-1.707 1.976-2.555 4.008-3.602 6.781-1.05 2.773-1.8 5.484-2.129 8.598l.922-.11c-.035-2 2.344-11.523 5.684-15.093.187-.223.336-.41.324-.465-.188-.48-.977.097-1.2.289Zm3.773-.739c-2.215 1.672-3.98 5.325-5.148 8.704-1.262 3.648-1.825 6.996-1.73 6.996l.878-.121c-.066-.211 2.473-13.075 7.18-15.418.406-.188.492-.375.148-.457-.531-.07-.957.09-1.328.296Zm2.48.008c-4.835.586-7.995 14.262-8.1 15.395 0 .02-.017.105-.017.105l.961-.183.012-.063c.664-3.496 1.309-5.945 2.816-9.101 1.176-2.34 2.797-5.332 5.215-5.621.2-.024.383.046.317-.165-.149-.335-.871-.378-1.203-.367Zm-28.812-4.304c-1.746.414-1.8 2.343-.637 4.812.086.188.07.29.16.36.2.16.356-.063.376-.211.035-.223-.07-.528-.254-.965-.72-1.707-.547-2.692.168-3.13 1.824-.866 2.316.919 2.593 1.74.067.198.09.472.211.487.364.047.54-.074.532-.074 0 0-.485-1.535-.778-2.113-.48-.934-1.613-1.129-2.37-.906Zm-12.672 1.82-.02 20.355-3.343 2.899c-1.438-1.133-3.32-2.91-3.32-2.91l.058-34.414-1.078-.079c-.262 14.786-.074 29.79-.086 44.602l9.887.07 8.187-11.796s.102-.141.133-.215c.102-.227.09-.567.043-1.82-.023-.512.04-.903-.039-1.02-.086-.121-.258-.035-.422.031-.164.07-.265.043-.176-.137.051-.101.215-.328.356-.539.46-.699.574-.922.418-1.691-.04-.192-.227-.352-.39-.574-1.38-1.88-1.938-4.66-1.255-6.696.215-.902.137-1.082-.332-1.785Zm43.29-21.887c-.9-.426-.883-.414-.887.39.004.606.015.75.261.669.356-.164.785-.32 1.114-.445.625-.2-.168-.454-.489-.614Zm3.558 2.098c-.7-.516-.442-.453-.637.703-.12.703-.273.719.512.488.445-.14 1.36-.05.95-.535.003.008-.688-.547-.825-.656Zm-28.04 17.797c-1.07.597-2.163 3.496-2.163 3.496-3.739.41-5.305 3.808-5.473 6.64-.133 2.235-.297 4.844-.05 5.075 2.452-1.02 3.398.156 3.628-.16.106-.137-.543-.598-1.36-1.008a4.502 4.502 0 0 1-.593-.352c-.3-.23.594-.031 1.156.32.72.454.84.36.528-.96-.34-1.438-.395-1.614.8-2.184.481-.227.75-.422 1.094-.773.274-.286.344-.356.242.062-.175.723-.87 1.04-1.496 1.332a.76.76 0 0 0-.441.7c-.004.257.32 1.66.473 2.109.136.425.187.855.296 1.289.278 1.125.297 1.347.157 2.164-.086.48-.125.754-.098 1.043l.066.625c0-.016-.667-.637-2.132-.102-1.055.383-1.891-.015-2.48-.3-.138.44-.106.925-.09 1.433 6.09 1.031 11.288.89 15.667.469.114-1.196.668-5 1.825-8.426.484-1.43 1.03-2.934 1.644-3.934.422-.687.848-1.148 1-1.226.047-.028.05-.04.05-.059 0-.039 0-.07-.003-.11-.012-.218-.07-.566-.277-.718-.508-.371-1.313.11-1.579.938-.23.5-1.292 2.652-1.367 2.613-.062-.035-.21-.04-.156-.203.406-.875.961-1.797 1.277-2.578.434-1.13 1.375-1.723 2.082-1.012.239.242.336.469.45.547.082.058.195.02.265-.078.266-.371-.351-1.211-1.011-1.38-.954-.241-1.665.4-2.747 2.485-.625 1.203-.738 1.504-.836 1.414-.023.008-.187.008-.128-.226.129-.5.957-1.957 1.558-2.88.887-1.367 2.54-1.48 3.23-.292.11.16.114.37.231.515.215.254.563.207.649-.21-.094-.278-.672-1.278-1.075-1.45-.93-.59-2.054-.476-3.004.309-.214.176-.437.535-1.066 1.715-.926 1.89-.95 1.898-1.203 1.593.371-.921 1.351-2.414 1.746-3.332a.82.82 0 0 0 .086-.425c-.023-.665.094-1.844-1.434-2.68-1.3-.649-3.015.035-3.601 1.308-.45.977-.778 1.649-1.004 1.786-.317.195-.258-.075-.227-.176.453-.883 1.086-1.774 1.188-2.664.066-2.406-2.574-3.297-4.293-2.082ZM26.837 45.375c2.059-.887 3.469-1.332 5.57-1.902.282-.118.328-.141.028-.692-1.332-2.433 2.32-4.375 3.558-1.988.168.32.203.496.367.344a15.84 15.84 0 0 0 1.047-1.492c1.395-2 2.028-4.282 2.77-6.293.308-1.184.742-2.418.863-3.688-2.77-4.457-4.7-8.742-7.64-12.71l-19.391-.013-.074 35.82c5.421-4.179 9.113-5.695 12.902-7.386Zm21.824-1.316c.238-.23.442-.61 1.285-2.211.149-.285.39-.727.489-.934.125-.375.597-.61.367.063-.051.144-.14.343-.285.601-.282.469-.547 1.04-.746 1.41-1.079 1.996-1.028 3.16.18 4.028.898.797 2.788.886 3.792-.399.153-.207.285-.472.328-.57.438-.98.762-1.469.844-1.567.445-.527.52.125-.148 1.125-.766 1.149-.782 2.391-.118 3.266.98 1.297 2.844 1.332 4.016.293.606-.66 1.09-1.496 1.48-2.566.086-.239.176-.414.239-.555.097-.215.238-.293.601-.36 2.489-.44 4.578-2.804 4.875-5.382.04-.348.149-.965.188-1.332.078-.73.078-4.516 0-4.742-.04-.122-.113-.188-.277-.184-.125 0-.301.039-.555.125-.82.27-1.203.34-1.992.078-.258-.086-.442-.117-.547-.11-.348.032.113.493 1.129 1 .433.22.777.512.425.493-.101-.008-1.328-.594-1.496-.688-.558-.316-.41.082-.125 1.13.387 1.406.164 1.8-1.035 2.35a3.137 3.137 0 0 0-.676.454c-.636.871-.472.23-.148-.23.547-.532.21-.711-.914-.344-1.281.418-1.86.113-2.219-.547-.406-.746.36-1.703.992-1.684.207.008.172.075-.132.266-.368.23-.54.457-.579.852-.078.804.547 1.144 1.418.605.41-.254.735-.43 1.043-.496.309-.067.774.039.774.27 0 .093-.016.324.008.374.078.254.52-.105.714-.234.653-.453.633-.543.454-1.277-.293-1.028-.442-1.97-.72-3.012a4.186 4.186 0 0 1-.085-1.719c.047-.281.164-.851.187-1.246.024-.39 0-.953.016-.953.648.46.914.54 1.55.316.985-.37 1.606-.332 2.434.036.305.132.586.23.586.23l.035-1.18s-.765-.148-2.183-.32c-4.266-.516-13.024-.625-13.348-.152-.086.12-.168.965-.398 2.14-.52 2.434-1.098 4.864-1.871 7.242-.16.485-.309.68-.23.692.034.008.19-.18.265-.258.414-.445.098.61-.527 1.875a.986.986 0 0 0-.106.277c0 .079-.394.961-.664 1.493-.168.332-.309.433-.309.218.192-.726.696-1.672.766-2.32-.441.586-1.082 1.559-1.566 2.137-.09.156.004.207.082.398.293.723 1 .785 1.41.133.226-.363.933-1.734 1.18-2.336.253-.617.433-.941.515-.98.172-.082.203.27-.098.851-.91 1.774-1.3 2.766-1.75 3.133-.343.285-.945.266-1.277-.238-.566-.86-1.047-.575-.527.304.535.907 1.758.993 2.394.176.211-.273 1.203-2.023 1.516-2.734.176-.395.36-.707.422-.727.336-.12-.047.79-1.004 2.606-.309.699-.809 1.433-1.48 1.664-1.637.332-1.86-.469-2.43-1.383-.278-.227-.528.137-.422.539.172.648.492.902.988 1.23 1.04.61 2.48.192 3-.503Zm7.309 3.8c-.149-.304-.13-.613-.051-.902a6.933 6.933 0 0 1 .789-1.824c.535-.235.125.699.059.84-.649 1.25-.711 1.734-.106 1.875.52.125.797-.168 1.29-1.29.25-.574.35-.828.44-.863.188-.07.278 0 .266.176-.324.738-.578 1.512-1.11 2.121-.519.403-1.304.406-1.577-.133Zm-4.867-.96c-.223-.044-.61-.31-.88-.54-.917-.773-.765-1.847.372-3.859.086-.16.418-.77.523-.969.192-.36.38-.218.375.02 0 .066-.281.625-.57 1.14-1.254 2.266-1.211 3.192.008 3.73 1.191.528 1.722.224 2.672-1.507.55-1.297.82-1.32.789-.828 0 .187-.664 1.43-1.094 2.012-.621.836-1.16.988-2.195.8Zm.093-1.094c-.468-.266-.66-.934-.383-1.477.25-.45.895-2.168 1.196-2.266.488-.015.226.364-.375 1.418-.711 1.403-.688 1.778-.137 1.993.508.199.75-.211 1.5-1.848.121-.258.285-.523.379-.469.121-.008.328.074-.066.817-.094.18-.254.55-.43.898-.512 1.012-1.094 1.27-1.684.934Zm8.434-2.973c-.207-.098-1.172-.45-1.027-.738.02-.028.074-.008.101.011.883.547 1.98.684 3.125-.074.192-.156.336-.05.23.149-.347.633-1.89.906-2.43.652Zm-2.836-.922c.027-.062.105-.242.176-.488.105-.363.082-.637.176-.59.398.203 1.117.207 1.464.008.383-.215 1.164-.281 1.446-.11.406.243.613.13.894-.074.32-.23.328-.133.906.051.43.137.598.23.778.203.07-.012.21-.16.258-.152.136.023.152.387.28.804.114.368.052.458-.308.235-.265-.164-1.027-.242-1.824-.016-.586.168-.723.098-1.152.032-1.078-.168-1.852-.297-2.657.132-.425.227-.582.348-.437-.035Zm-2.676-1.816c-.52-.969.68-2.246 1.73-1.793.352.148.66.715.145.457-2.394-.45-1.797 2.793.778 1.082 1.71-1.05 2.921-1.211 3.02-.2-.048.376-.407.317-.677.348-.71.094-.972.2-1.793.524-1.25.363-2.472.66-3.203-.418Zm9.38.445c-.587-.14-1.095-.352-1.704-.453-.602-.098-.875-.39-.766-.781.114-.407.72-.45 1.625.062 1.008.567 1.739.707 2.11.492.746-.433.343-1.14-.367-1.32-.536-.137-.145-.328.43-.172.929.324.948 1.871-.005 2.192-.32.109-.882.078-1.324-.02Zm-8.165-5.117c.68-.39 1.34-.734 1.574-.969.121-.121.461-.527.2-.406-1.391.77-3 .133-4.169-.395-.558-.242-.421-.136-.851-.109-.293.02-.527.074-.582-.117-.02-.086-.184-.051-.29-.059-.429-.039-.16-.566.747-1.148 1.07-.684 2.004-1.133 2.926-1.317.965-.191 1.941-.082 2.66.555.277.246.254.41.508.258.574-.344.578.113.093.535-.336.293-.21.371.196.648.195.13.035.254-.074.45-.04.117-.008.246-.028.332-.09.414-2.125 1.87-2.863 2.12-.504.087-.238-.265-.047-.378Zm1.414-2.68-.34.004c-.383 1.082-1.093 1.453-1.683.152l-.27.028c-.012 1.097 2.04 1.789 2.293-.184Zm-2.223 1.016c-.14-.215-.296-.711-.441-.719-.398-.016-.945.05-.816.277.207.36 1.422.692 1.257.442Zm2.72-.192c.366-.203.444-.343.206-.57-.308-.285-.469-.14-.566.32-.082.399-.024.461.36.25Zm-4.958-.765c2.45-1.024 3.38-1.153 4.375-.903.23.059.434.18.563.172.476-.027.172-.52-.684-.8-.977-.325-1.598-.176-3.473.726-1.101.531-1.996 1.313-.78.805Zm7.098-1.239a5.585 5.585 0 0 1-.223-.617c-.043-.148-.082-.304-.129-.304a7.01 7.01 0 0 1-2.402-.086c-1.719-.38-3.379-.305-4.621.144-.301.11-.676.29-.715.32-.098.083-.242-.011-.242-.117.004-.125.761-.683 1.242-.902 1.46-.664 3-.781 4.691-.36 1.102.391 1.809.325 2.512.044.348-.141.102.203-.008.664-.074.316.008.586.024.765.043.434-.012.653-.13.45Zm25.61 91.512V87.18c-6.446 4.39-18.638 8.965-18.638 8.965 1.536 2.89-1.843 5.359-3.785 2.43-1.996 2.066-4.746 9.312-4.84 11.718 0 0 5.31 8.555 7.899 12.781Zm-35.5-11.82c.179-1.8.597-4.856 1.894-8.414.547-1.488 1.203-3.2 2.133-4.735.37-.535.398-.742.003-.546-.25.12-1.386 1.3-1.539 1.601-1.742 3.39-2.55 7.469-3.187 10.582-.145.7-.188 1.57-.188 1.57Zm1.277-.149c.414-4.378 2.16-10.289 4.78-14.14.247-.367.552-.684.54-.813-.035-.375-1.043.274-1.828 1.38-.875 1.6-1.75 3.308-2.422 5.198-.945 2.668-1.637 5.133-1.906 8.477Zm2.52-.363c.26-2.523 1.108-4.84 1.82-7.156.87-2.836 2.03-4.922 3.382-6.8.434-.602.946-1.169 1.434-1.743.062-.066.125-.191.11-.246-.313-.047-.56.039-.802.164-.34.176-.812.617-1.09.941-1.925 2.27-2.964 4.918-3.925 7.59-.922 2.57-1.59 5.043-1.719 7.367Zm-17.306-1.933c.387-.032.637.039.75-.059.11-.094.075-.348.11-.672.074-.695-.004-.656-.473-.207-.777.742-2.2 1.027-3.043.578-.426-.226-.723-.383-.762-.195-.046.223.02.39.2.508 1.023.43 1.996.133 3.218.047Zm-.914-.536c.54-.164 1.086-.43 1.395-.835.293-.387.289-.442.066-.368-1.097.496-1.816.75-2.793.614-1.328-.188-1.383-.032-.504.476.57.332 1.047.34 1.836.113Zm-1.945-1.55c.203-.137.258-.707.09-.739-.168-.035-.41.25-.469.477-.066.309.176.387.379.262Zm2.05-.024.352-.027c-.18-1.43-1.859-1.492-2.168.14l.266.036c.348-1.301 1.363-1.262 1.55-.149Zm1.106-.23c.516-.262.336-.59-.355-.715-.453-.102-.43.242-.196.707.118.234.2.187.551.008Zm-3.953-1.75a1.52 1.52 0 0 0-.156-.567c-.59-1.12-.918-2.441-.852-4.086.047-1.175.063-1.539-.199-1.543-.371.165-.59 2.356-.121 4.18.336 1.29 1.352 2.887 1.328 2.016Zm-.016-1.781c-.035-.618.114-1.993.04-2.297-.098-.395-.348-.75-.493-.844-.222-.149-.277.133-.203.871.184 1.734.485 3.047.657 2.27Zm.188-3.157c.148-.242.09-.5-.23-1.082-1.27-2.285-1.434-3.844-.11-4.414.149-.062.242-.074.34-.125.418-.215.262-.601-.363-.441-1.73.441-2.07 1.933-.614 4.695.743 1.375.856 1.57.977 1.367Zm.316-1.297c.024-.093.067-.468.086-.543.016-.078-.16-.296-.343-.738-.489-1.148-.5-1.629.03-1.96.173-.095.352-.098.376-.204.043-.168.039-.441-.07-.523-.762.007-1.114.414-1.247.804-.199.618.008 1.52.606 2.64.293.349.441.99.562.524Zm.582-1.488c.407-.758.02-1.742-.539-1.406-.363.219-.382.45-.16 1.082.274.766.434.82.7.324Zm1.43-2.027c.16-.149.016-.364-.285-1.203-.258-.715-.14-1.207.352-1.348.707-.16.957.902 1.105 1.352.074.347.32.44.54.199.062-.067.081-.121-.024-.5-.457-1.649-1.051-2.172-2.008-1.762-.89.379-.774 1.23-.13 3.023.087.239.145.418.208.442.05.02.152-.121.242-.203Zm.785-.563c.211-.191.2-.105-.043-.793-.273-.785-.418-.945-.715-.675-.18.164-.09.347.118.988.242.746.304.789.64.48Zm36.84-2.683c1.402-.895.824-2.496-1.023-3.09a5.464 5.464 0 0 1-.532-.188c-.847-.375-1.507-.492-1.511-.195 0 .172.254.258 1.066.625 1.203.54 1.477 1.164.883 1.95-.43.57.371 1.218 1.117.898Zm1.274-1.95c.12-.457.3-.851.386-1.117.121-.418-.035-.32-.332-.254-.773.368-1.328.168-.953.676.418.676.762 1.2.899.695Zm-.098-1.601c.965-.531 1.176-1.918.281-2.578a3.366 3.366 0 0 0-1.035-.492c-.914-.258-2.23-.372-2.71-.239-.106.114-.11.29-.005.344.133.043.375.074.727.11 1.34.124 2.004.492 1.937 1.367-.066.906-.847 1.254-2.265.968-.758-.156-1.114-.082-.809.082.363.196 1.145.454 1.914.594.656.106 1.406.145 1.965-.156Zm-4.625-.227c1.086-2.246 1.656-8.129-4.54-12.382l.204 1.175c3.652 2.95 4.527 6.707 3.773 10.149Zm5.531-4.023c-.387.23-.71.473-1.207.68-.3.12-.308.152.098.355.195.098.52.281.644.402.211.215.465.293.559.22-.008-.337.113-1.438-.094-1.657Zm-1.832.426c1.254-.368 1.926-.922 1.785-1.852-.21-1.367-1.449-1.656-3.773-1.121-1.117.254-1.215.738-.156.488 1.34-.312 2.39.16 2.246 1.067-.082.777-.762 1.23-1.953 1.23-.633 0-.825.055-.743.262.059.14 2.079.078 2.594-.074Zm-2.07-3.246c2.05-.649 3.004-1.657 2.535-2.786-.55-1.328-2.344-1.34-4.14-.105-.84.57-.712.777.1.488 1.056-.445 1.735-.515 2.169-.16.781.645.254 1.762-.93 2.164-.574.219-.758.34-.758.5-.004.25.102.192 1.024-.101Zm3.46-.02c.052-.394-.429-1.758-.64-1.445-.055.086-.246.468-.488.668-.703.586-.57.363.129.543.39.097.941.351 1 .234Zm-5.425-2.914c2.07-1.11 2.863-2.691 1.789-3.742-.965-.946-2.566-.395-4.055 1.324-.683.785-.172.688.75-.063 1.07-.87 2.434-.449 2.426.641-.004.465-.719 1.246-1.394 1.61-.207.113-.239.285-.164.398.078.121.246.043.648-.168Zm3.633-1.156c-.106-.297-.887-1.578-1.055-1.532-.176.325-.191.758-.402 1.106-.29.523-.254.441.668.437.687-.003.77.086.789-.011Zm-6.094-1.446c1.742-1.668 1.895-3.617.262-4.066-.903-.25-2.348.352-2.352.977-.004.386.074.457.442.316 1.539-.527 2.757.836 1.343 2.406-.343.453-.39.567-.289.66.117.11.215.07.594-.293Zm18.766-14.25V17.141H74.777l-8.101 11.664-.012 2.886c0 .098.184.16.305.036.46-.329.281.015-.246.757-.535.75-.371 1.371.21 2.172 1.243 1.7 1.887 4.82 1.36 6.469-.2.621-.242.875-.113 1.223.148.398.242.609.672.867.375.238 3.453 1.347 8.418 4.289l-.024-20.754 3.125-2.762 3.3 2.914.118 34.262c0 .36.77.527 1.184.152ZM83.183 27l-2.765-2.375-2.734 2.34c-.012 11.16.07 34.062.07 34.062l2.719.18s.199-.52-.055-1.871c-.383-2.027-.36-4.504.254-8.27.383-2.308.004-4.312-.578-6.421-.5-1.407-.52-2.708-.43-3.961.195-2.008.793-3.52.867-6.407.043-1.64-.043-3.254.02-5.28.027-.27.152-.24.176.042.082 1.836.16 3.578.18 5.371-.063 2.332-.68 4.73-.747 6.863-.05 1.48-.078 1.993.598 3.79 1.066 2.828.363 7.175.351 7.25-.449 2.785-.777 6.347.743 9.011l1.476.121ZM64.157 48.05c.817-.343.98-.952.54-2.425a33.485 33.485 0 0 1-.2-.691c-.094-.364-.27-.403-.504-.114-.14.172-.012.211.203 1.02.328 1.222.137 1.625-.355 1.62-.434 0-.778-.331-.899-1.124-.043-.27-.105-.457-.175-.563-.121-.183-.262-.148-.38.051-.148.258.134 1.328.505 1.848.402.52.683.629 1.265.379Zm-.219-1.093c.172-.305-.042-1.043-.156-1.527-.101-.27-.218-.336-.414-.293-.289.066-.277.355-.172.836.215.98.328 1.101.742.984Zm2.481-1.766c.934-.492 1.02-1.336.394-2.875-.257-.632-.578-1.074-.753-1.082-.07.403-.133.618-.055.774.07.148.195.37.281.558.531 1.133.387 1.79-.125 2.145-.48.328-.176.61.258.48Zm-30.555-.593c2.188-.43 4.164-3.672 5.407-6.567 1.132-2.914 2.335-6.117 2.527-8.785 0 0-.828.035-.93.192-.094.156-.133.492-.222.968-.57 2.457-1.024 4.32-2.02 6.63-.691 1.605-1.445 3.417-3.316 5.855-.618.68-1.32 1.101-2.204 1.214-.226.032-.605-.007-.699.055-.168.11-.02.356.414.457.387.086.782.031 1.043-.02Zm30.168-.38c.336-.323.367-.714-.008-1.538-.105-.23-.152-.36-.277-.328-.266.07-.57.707-.39 1.25.238.707.378.91.675.617Zm-30.933-.515c.64-.078 1.453-.547 2.039-1.285 1.207-1.453 2.039-3.11 2.656-4.395.496-1.035 1.39-3.273 1.633-4.086.511-1.722.797-2.832 1.031-4.062.02-.113.043-.297.004-.355-.254-.063-.809-.024-.98.132-.31 1.977-1.024 3.961-1.547 5.61-.88 2.8-3.391 7.285-4.762 7.5-.734.113-1.578-.477-1.442-1.082.083-.371.137-.516.336-.606.477-.156.754.145.23.34-.605.484.485 1.227 1.157.707 1.137-.879-.535-2.562-1.902-1.789-1.512.86-1.125 2.344-.172 3.05.48.356 1.039.407 1.719.321Zm10.722-2.012c.938-.882 1.64-2.03 2.153-3.46 1.105-3.22 2.023-6.907 2.359-9.794 0 0-.8-.078-.977.079-.128.109-.007.214-.347 2.324-.57 3.078-1.403 6.137-2.606 8.781-.496 1.07-.632 1.2-.984 1.758-.484.785-.305.984.402.312Zm20.762-6.707c-.086-.039-.078-.011-.117.012-.13.082-.043.492.246 1.125.762 1.137.852 3.336.8 4.164-.015.25-.042.39.04.613.082.215.222.47.453.047.25-1.633.055-3.336-.625-4.718-.238-.493-.473-.973-.797-1.243Zm.586 4.809c.133-.438-.113-2.176-.418-2.79-.125-.245-.348-.265-.32.017.004.601-.067 1.75.004 2.09.332.706.59 1.156.734.683Zm-1.727-7.027h-.359c.012 1.14-1.082 1.453-1.488.09l-.324.066c.433 1.93 2.378 1.047 2.171-.156Zm-2.187.859c-.188-.508-.11-.691-.586-.465-.363.176-.578.36-.07.586.457.176.773.195.656-.121Zm2.742-.293c.149-.277.133-.531-.094-.531-.175-.004-.222.125-.273.398-.09.485.129.574.367.133Zm.192-1.89c.136-.04.097-.22.058-.45-.59-.758-2.058-.527-2.586-.375-.61.18-.762.113-1.176-.062-.343-.059-.39.02-.472.172-.075.132-.09.382-.114.824-.02.37-.003.543.137.426.543-.45 1.172-1.012 2.09-1.047 1.113-.043 2.063.53 2.063.511Zm-4.043 1.03c0 .153.14.06.503-.152 1.317-.722 2.079-.62 3.207-.277.25.078.407-.164.133-.371-1.336-1.012-2.988-.367-3.843.8Zm4.773-4.671 7.144-10.895-39.812-.027 6.762 11.566c5.511-1.175 14.586-2.68 25.906-.644Zm0 0" style="stroke:none;fill-rule:nonzero;fill:#131f67;fill-opacity:1"/><path d="M31.61 113.008c.843-1.16 5.019.906 5.242 1.726 2.468-1.793 5.472-1.925 7.886.32 2.485-2.503 5.14-2.331 7.907-.882-.31-.567 3.535-3.063 5.87-1.477l6.32 10.38-40.483.116c2.39-3.308 4.507-7.261 7.257-10.183ZM13.925 58.89c-.219-.563-1.11-6.325 1.144-6.47 3.645 1.49 8.293 6.813 10.45 10.071 2.668 4.031 5.367 13.305 3.878 12.899-.218-.059 4.598 4.386 4.93 4.82.543.71-8.117 14.008-9.547 13.531-.433-.144-3.316-1.73-3.316-1.73l.082-4.438s4.535-8.25 4.785-11.004c.094-1.043-3.117-2.824-3.266-3.183-.367-.899-.324-4.23-2.195-5.684-1.031-.578-2.008-.394-3.055-.27-4.25-.656-2.046-7.257-3.89-8.542Zm71.066 2.96.024 1.637c-2.797.563-7.743-1.62-9.239 1.899.184 3.8 1.11 5.504 1.754 6.652.485 1.031 3.887-.144 5.086.895 3.438 3.902 2.625 9.097 2.656 13.777l-1.492.695C73.477 81.801 65.56 64.391 64.465 59.434c-.07-3.184 9.453-13.41 9.453-13.41.023-.02 3.473 1.937 3.473 1.937.082.031-.075 13.422-.075 13.36 2.727.128 5.368.374 7.676.53ZM64.051 49.614c-5.29 6.992-7.078 17.438-6.739 24.727.688 10.883 9.098 20.582 8.536 21.5-.098-.063-.317.047-.403-.024-1.937-1.59-3.289-1.312-4.28-1.324-1.895-.027-2.419.492-3.505.59-2.773.254-2.547.32-4.902-.496-2.969-2.234-6.946-3.945-10.11-4.848-2.539.211-6.406 1.317-7.87.422 10.179-17.316 8.656-28.406-1.883-46.555.875.235 1.011.989 1.664 1.172 2.168.774 5.152.48 6.937-.238 1.945-.809 3.777.375 3.754.336 3.82 2.488 8.45 4.094 10.855 5.203.715.34 1.614-.195 2.399-.344 1.61-.3 2.988-.933 4.191-.562.387.121.961.266 1.356.441ZM40.293 26.95c-.52-.887-5.82-10.183-5.82-10.183l39.422.218-5.915 8.97c-.558.483-3.335 1.843-6.171-1.231-.051.441-4.204 3.172-7.774-.118-2.148 1.801-4.336 2.844-7.95.817-.081.566-2.898 3.101-5.792 1.527Zm0 0" style="stroke:none;fill-rule:nonzero;fill:#e2cf00;fill-opacity:1"/><path d="M44.605 114.848c-3.82-3.305-7.796-.325-7.707-.133-1.511-1.418-2.988-2.578-4.98-2.008 0 0 0-.5.016-.508 5.941 1 15.039 1.262 25.675-.793l.547 1.055c-2.855-.938-4.324.324-5.59 1.8-4.578-2.636-5.695-.323-7.96.587Zm8.907-38.403 2.703-.05c.508 7.257 7.074 18.359 7.23 18.359-.457-.586-4.789-.125-4.758-.05-2.382-5.872-5-11.735-5.175-18.259ZM37.754 93.656s-.871-2.078-1.39-2.969c2.835-4.472 5.163-9.101 6.359-14.253l1.93.02c-.571 7.105-6.731 17.901-6.9 17.202Zm34.758-.949c4.258-7.094 3.523-17.312-8.551-22.96 0 0 .316-7.493 1.21-7.509.204.059 5.466-.062 5.466-.062 1.379-3.125 3.597-6.903 6.699-9.453l.078 8.37c-2.297.212-3.695.887-4.39 2.544l-3.176.652c.23 8.414 3.66 16.188 13.828 23.168-2.43 1.926-10.735 5.84-10.703 5.773ZM21.57 87.422l.09-8.723c1.543-.308 2.758.106 4.031-2.445 0 0 2.137.937 2.848 1.281-2 3.3-3.723 6.824-6.969 9.887ZM41.812 71.98l.106-4.425 4.55.12c-.386 1.5-.507 3.005.009 4.505Zm10.383-.054c.313-1.446.535-2.903-.11-4.442l4.927.079-.114 4.41Zm-9.37-8.656c-.821-8.684-7.263-18.508-7.356-18.301.761.113 2.097.46 2.832.136.89.137 1.664.043 1.707-.03.058-.305 5.988 12.605 5.195 18.175-.094.188-2.187.203-2.379.02Zm11.39.078c.695-4.012 2.492-11.348 6.73-17.301.485 1.058.887 2.144 1.547 3.133-3.195 4.293-5.164 9.203-6.36 14.215Zm-29.473-2.164c-1.937-3.653-10.008-9.407-9.597-8.829 3.343-2.765 7.07-4.52 10.789-6.292 0 0 .66.578.558.722-2.285 3.328-3.394 10.38-1.18 14.422 2.13 4.316 5.903 6.867 9.75 8.871-.3 2.7-.445 4.652-1.164 7.332 0 0-2.418-1.172-4.398-1.93-.316-5.093-1.457-9.652-4.758-14.296Zm21.38-35.813c2.843 1.602 5.39 1.43 7.858-.742 3.102 2.598 6.454 1.387 7.872.219 1.312 1.363 3.02 2.12 5.52 1.668l-.622 1.199c.148-.637-17.227-1.676-25.637.496 0 0-.492-.902-.437-.91.734-.043 3.168.789 5.445-1.93Zm0 0" style="stroke:none;fill-rule:nonzero;fill:#d40000;fill-opacity:1"/><path d="m33.895 16.477 7.023 12.085s.207-.035.309-.054c9.738-1.758 17.449-1.996 25.73-.653l7.363-11.25c-13.398-.14-40.425-.128-40.425-.128Zm.785.515 39.058.04-2.195 3.327c-1.316-.375-2.05.184-2.234 1.348 0 0-.164-.066-.47-.094-1.921-.195-2.167 2.149-.37 2.434.46.07.539-.012.539-.012-1.606 1.242-2.516.402-3.27-.008-.02.145-1.437 1.13-2.773-.047 1.914.176 2.21-1.593 1.297-2.27a4.632 4.632 0 0 0-.387-.308c.453-.363.55-.843.262-1.394-.582-1.11-2.399-1.043-2.676.168-.11.469-.113.554-.113.554-1.465.086-1.766 1.368-1.262 2.079.289.402.918.492 1.5.464-.785 1.024-2.578.676-3.379-.171-1.273 1.382-2.723 1.214-3.445.472.492-.004.832-.012 1.281-.394.77-.66.39-1.828-.695-2.157-.215-.062-.368-.074-.38-.078.009-.008.032-.074.079-.425.27-2.036-3.035-1.836-2.715.168.035.234.105.359.105.359s-.351-.02-.55.066c-1.836.782-.57 2.934.847 2.38.133-.052.5-.22.551-.216-1.754 2.012-3.23.586-3.617.368-1.188 1.625-3.246.515-3.29.402.13.035.513-.04.88-.215 1.164-.559.836-1.996-.07-2.309-.278-.09-.614-.101-.989-.074 0 0 .028-.36-.011-.488-.57-1.961-3.208-.98-2.56.676.06.144.212.289.212.289s-.36.203-.516.336c-1.261 1.043.02 2.77 1.492 2.054.188-.093.375-.289.426-.277-.691 1.168-1.742 1.578-3.238.61-.926 1.351-2.434.788-2.856.113 1.407.117 2.32-2.375-.386-2.457-.207-.676-.2-1.707-1.914-1.532Zm19.074 4.278c.309 0 .559.234.559.52 0 .288-.25.519-.56.519-.308 0-.562-.23-.562-.52 0-.285.254-.52.563-.52Zm8.726.062c.329 0 .594.246.594.55 0 .305-.265.552-.594.552-.328 0-.593-.247-.593-.551 0-.305.265-.551.593-.551Zm-17.105.602c.316 0 .57.234.57.527 0 .293-.254.531-.57.531-.316 0-.578-.238-.578-.531 0-.293.262-.527.578-.527Zm24.508.652-.5.816c-.547-.445-.168-1.027.5-.816ZM38.539 23.71l-.492-.844c.883.055.625.64.492.844Zm15.14-.461c3.352 3.535 6.36 2.488 8.325.14.844 2 2.723 3.387 5.957 2.04-.195.32-.688.886-.688.886-2.855.711-4.273-.535-5.378-1.718-2.907 2.234-5.645 1.691-7.903-.278-1.93 2.246-5.05 2.727-7.941.895-1.32 1.805-3.215 2.531-5.598 1.629 0 0-.508-.735-.55-.782.343.27 4.734 1.954 5.804-2.097 1.527 2.394 6.54 2.523 7.973-.715Zm.34 1.453c3.77 3.262 7.727.442 7.829.242.058.184 2.21 2.559 5.312 1.664l-.504.801c-5.84-.914-11.21-1.5-23.508.172 0 0 1.961-.539 2.954-1.984.554.332 4.82 2.53 7.918-.895Zm-13.218 2.703s1.64.176 1.77.207c.144.106-1.38.492-1.387.461Zm3.328 15.555c-.098 0-.223.105-.43.293-.445.406-.547.457-.976.516-.328.042-1.016.41-1.434.761-.11.094-.328.176-.586.215l-.683.11c-.153.023-.317.07-.368.097-.218.125-.578.145-.976.055-.387-.086-.45-.086-.875.035-.617.18-1.024.18-1.328 0-.305-.176-.79-.242-1.098-.148-.453.136-1.629-.516-1.629-.903 0-.086-.668-.55-.836-.55-.597-.083-5.836 1.831-5.808 1.94 6.433 7.348 11.851 18.544 7.77 32.243l-.72-.316c.606-2.493.844-4.996 1.032-7.543-12.079-4.82-13.118-16.032-8.43-23.11l-.797-.785c-2.84 1.402-5.727 2.2-12.75 7.645l.02 8.816c.02 7.969.015 15.734.015 15.734 2.54.258 5.336.473 8.098.692 0 0-.035 7.883-.098 10.965-.055 2.605.051 2.441.051 2.441l9.14 4.457c-.644-2.348.942-3.281 2.27-3.183-.586-2.262.867-3.297 2.531-3.008 1.121.199 1.516.77 2.157 2.66.105.308.25.719.25.719l.64-.02c.801-1.594 1.336-3.617 3.223-3.883 2.469-.344 3.39 1.227 3.387 2.793 2.394-1.949 5.261-.437 5.074 2.473 1.203-.715 3.242-1.363 4.527 1.398.485-.093.73-.593 1.41-.75.254-.047.828-.336.828-.336l.008-.093s.535-.172 1.25-.282c.617.215.438.207.766-.171.371-.176.969-.29 1.43-.25.484.039.699.07.984-.043.441-.18.852-.223 1.113.046.188.192.461.098.754.09.582-.023 1.36.2 1.602.684.355.336 1.136.676 1.136.676l.633-.133.074-.215 5.176-1.828c-10.554-10.688-10.281-24.867-7.793-32.043l.953.426c-.504 2.125-1.078 4.308-1.004 7.48 9.508 3.918 14.235 14.05 8.473 22.89l.61.727c2.398-.93 8.43-4.058 10.511-5.761l.446.035s1.261-.758 1.82-1.16l.074-23.465-.441.11-.078-1.372-7.836-.578c.097-.066.171-.094.195-.234l-.043-12.989c-.293-.41-6.856-3.965-9.297-4.797-.098 0-.031.153.004.524.117 1.273-.813 2.406-1.89 2.41-.387 0-.454.152-.434.883.027 1.043-.38 1.742-1.567 2.136-1.402.47-2.351-.21-3.136-2.882-.203-.703-.606-.528-.989.433-.191.473-.808 1.63-1.18 2.239-.284.468-.734.675-1.343.925-.477.215-1.508.18-2.102-.101-1.078-.504-1.496-1.114-1.808-2.621-.04-.196-.18-.18-.531.066-1.903 1.324-4.579-.047-4.563-2.34.004-.672-.023-.699-.453-.375-1.29.973-3.043.48-3.746-1.054-.164-.36-.25-.52-.38-.516Zm-10.938.812c.133-.003.555.508.555.508.387.399.906.598 1.445.89.051-.07 6.301 7.684 7.364 18.38l2.906.011c-.543-10.386-3.64-15.382-5.063-18.585l1.043-.309c2.336 4.145 5.188 12.55 5.094 19.91h-4.8c-.68-7.371-3.782-14.558-8.118-20.012-.3-.418-.535-.71-.449-.785a.056.056 0 0 1 .023-.008Zm-1.84 1.098.489 1.41s.058-.328.207-.453c.95-.789 1.86.25 1.43 1.664l-.29 1.29s-.953-.454-1.43-.598c-1.323-.52-1.765-1.543-.753-1.66.168-.02.516-.032.516-.032-.418-.308-1.348-1.004-1.348-1.004Zm4.442.156c.402.211 1.434.438 2.023.23.48-.163.844-.073 1.34-.034.29.023.856-.094.856-.094 2.843 5.531 4.797 12.09 5.125 18.09l-2.239.011c-.843-6.37-3.511-12.847-6.894-17.648-.152-.21-.352-.547-.211-.555Zm9.34.098c.867.008 1.773.805 2.265 2.113.274.727.38.68.747.563.945-.297 1.949.66.683.82-1.242.191-.531 2.438-.637 2.633-.504.082-1.449-1.828-1.425-2.395.062-1.394-1.356-2.558-2.235-1.972-.414.277-.37.472-.5.375-.394-.309-.472-1.157-.011-1.637.335-.348.718-.504 1.113-.5Zm25.715.48s.05 1.829-.024 2.235c-.148 1.219-1.87 1.347-1.941.37-.281.392-.473.876-.586 1.313l-1.223-.777c.465-.309.906-.578 1.25-.96-.906.062-1.414-.661-.808-1.278.675-.707 2.539-.785 3.332-.903Zm-44.965.579.543.562c-4.82 7.899-3.121 17.992 8.512 23.297-.079 2.422-.415 4.875-1.04 7.148l-4.293-1.925c.032-8.93-5.437-17.442-14.168-23.036a52.073 52.073 0 0 1 10.446-6.046Zm35.137.066c.203 1.043 1.27 2.93 1.347 2.824-.012-.062-4.441 5.25-6.367 14.133l-1.648.004c1.078-5.918 3.234-11.504 6.668-16.961Zm13.66.25.875.488c-4.594 3.555-7.618 8.063-9.84 12.926l-1.16-.508C68 52.352 71.402 49.223 74.68 46.5Zm1.222.785c.243.016.528.297.97.52.433.218.323.336-.49.914-.96.683-1.054.652-1.046-.32.008-.649.184-1.079.52-1.11.015-.004.03-.004.046-.004Zm-1.054 1.004c.05 0 .09.016.117.05.07.259.062.849-.05 1.434-.09.383-1.325 1.344-1.767 1.727-.175.105-.257.066-.289-.125.016-.3.047-.703.051-1.113.004-.125-.027-.258.098-.356.605-.66 1.484-1.597 1.84-1.617Zm2.293.313a.03.03 0 0 0 .015.003c.114.067.098 1.387.016 1.477-.36.086-1.32-.055-1.567-.176-.054-.156 1.305-1.312 1.536-1.304Zm-43.024.43.332 1.296s.098-.172.121-.207c.664-.941 1.477-.39 1.461.918-.004.41-.41 2.059-.41 2.059s-2.496-1.11-2.691-1.594c-.192-.48.082-.899.539-.938.172-.02.355-.03.55 0l-1.074-1.015Zm28.582.171 1.133.387c-2.363 3.555-4.8 7.062-6.578 15.066h-4.746c.664-4.89 2.008-9.699 4.41-14.379 0 0 .934-.265 1.46-.422 0 0-3.925 8.301-4.382 13.641l2.293.043c1.227-5.2 3.516-10.59 6.41-14.336Zm-8.992.129c.64-.02 1.11.395 1.074 1.129-.008.676-.074.773-.59.504-.675-.356-1.21-.363-1.816.039-.336.219-.66.402-.66.402s.293-1.168.738-1.539c.43-.351.871-.52 1.254-.535Zm-2.434 1.73c-.046.395-.171.579-.285.915 0 0 .371-.133.551-.211.844-.364 1.723.312 1.707 1.101.04.528-.578 1.156-1.316 1.16a1.34 1.34 0 0 1-.793-.254c.191.965.23 1.41-.532 1.895-.64.395-1.984-.055-1.91-1.133l.051-.664-.648.078c-1.805.067-1.836-1.984-.38-2.308.583-.13 1.212.312 1.212.312-.274-.504-.282-1.367.09-1.77.917-.984 2.367-.09 2.253.88Zm15.75-1.28c.098.769.43 1.605.336 2.323-.14.915-.984 1.458-1.644.864-.082-.074-.23-.227-.23-.227-.301.352-.485 1.34-.485 1.34l-1.172-.668s.813-.523 1.04-.824c.062-.086.089-.242.089-.242-.648.187-1.203-.43-1.023-.973.351-.887 2.101-1.219 3.09-1.594Zm8.172.554c.438-.012 1.118.102 1.653.156.41.067.183.281-.739 1.11-.847.761-.82.691-1.472.68-1.524-.024-1.79.011-.903-.876.465-.465.868-.883 1.204-1.039.07-.015.156-.027.257-.031Zm-2.746.16c.02.004.035.008.051.024.102.085.066.48.055 1.07-.012.625-.004.625-.29.95-.359.417-.656.847-1.035 1.245-.324.328-.316.293-.511-.492-.188-.762-.082-1 .98-2.105.36-.426.617-.696.75-.692Zm4.758.438.012 1.543c-3.14 2.843-5.278 6.039-6.73 9.558l-1.094-.402c1.894-4.5 4.734-8.008 7.812-10.7Zm-27.246.933c-.52 0-.938.387-.938.867s.418.871.938.871.945-.39.945-.87c0-.481-.426-.868-.945-.868Zm-.004.274c.36 0 .648.27.648.601 0 .332-.289.602-.648.602-.36 0-.648-.27-.648-.602 0-.332.289-.601.648-.601Zm-34.918.367c9.805 5.816 14.2 14.828 14.18 22.574l-.551-.23C28.094 63.91 21.66 57.18 14.707 52.828Zm58.043.082c.219 0 .523.035.961.082.809.039.91.086.352.68-.153.16-.45.5-.657.757-.207.254-.457.52-.574.559-.172.055-1.594-.008-2-.059-.133-.02.04-.144.734-1.062.532-.7.59-.934 1.094-.953.028-.004.059-.004.09-.004Zm4.082.297s.195 4.988.055 8.172c-2.239-.079-3.551.707-4.098 2.191l-2.348-1.074c1.723-4.094 4.028-6.942 6.391-9.29Zm-6.922.117c.125 0 .2.242.235.723.148.859.132.957-.254 1.507-.192.274-.457.66-.586.864-.223.347-.383.449-.442.28-.304-.925-.402-1.495-.293-1.683.18-.308 1.016-1.402 1.133-1.547.082-.097.149-.144.207-.144Zm-55.922.094c7.88 4.511 13.645 12.215 13.883 21.523 0 0-1.68-.73-2.715-1.262l-.054-.906.546-.016.176 1.02 1.203-.035-.32-2.547-1.883.164-.379-1.441.57-.114.317.93 1.223-.297-.653-2.27-1.89.481-.606-1.531.63-.211.507.918 1.152-.371-1.086-2.274-1.742.762-.883-1.484.68-.336.547.883 1.078-.516-1.332-2.09-1.652.852-.832-1.153.511-.328.567.606.949-.621-1.453-1.805-1.578 1.144-1.172-1.25.539-.421.805.664.898-.723-1.723-1.738-1.503 1.27-1.125-.903.55-.559.7.492.746-.816-1.875-1.426-1.407 1.285-1.347-.824v-.613c.437.156.898.34 1.316.543l.695-.977-2.011-1.257Zm21.946.382.297 1.59c.285-.43.507-.73 1.12-.562.735.277.747 1.3.122 2.867-.114.29-.254.543-.254.543s-.324-.125-.54-.262c-.449-.285-1.206-.605-1.593-1.168-.406-.593-.414-1.418.332-1.347.148 0 .438.066.438.066l-1.118-1.32Zm-22.38.477 1.364.813-.281.476-1.082-.453Zm34.212.375c.394.508-.996 2.016.824 2.617 0 0 .043.348-.336.559-.89.597-2.168-.496-1.773-1.621.253-.719.988-1.551 1.285-1.555Zm3.773.047s.55.371.66.469c1.012.898 1.024 2.183.106 2.632-.61.301-1.301.06-1.543-.375-.11-.203.074-.41.304-.41.438.004.774-.773.645-1.586a6.758 6.758 0 0 0-.172-.73Zm11.957.297s.121 1.101.293 1.59c.531 1.37-.148 2.203-1.14 1.746-.145-.067-.395-.364-.395-.364l-.098 1.57-1.414-.378c.305-.457.746-.778 1.074-1.29 0 0-.21-.007-.394-.007-.848.027-1.156-.84-.274-1.55.66-.528 2.348-1.317 2.348-1.317Zm7.39.367c.173 0 .384.012.677.012.898 0 1.128-.114.734.406-.156.2-.531.758-.64.95-.227.386-.274.51-.65.585-.546.102-1.163.031-1.788.059-.137-.008.144-.438.297-.703.382-.653.613-1.102.941-1.239.129-.054.258-.07.43-.07Zm-2.773.504c.11-.004.192.176.293.547.242.867.301.886-.086 1.597-.195.36-.53.97-.668 1.22-.351.644-.37.64-.593.062-.426-1.11-.461-.993.242-2.239.437-.777.656-1.18.812-1.187Zm-51.71.305 1.269.941-.36.324-.703-.48-1.035 1.027 1.703 1.434 1.442-1.313 1.234 1.195-.375.297-.726-.648-1.086.855 1.62 1.77 1.634-1.149 1.023 1.239-.418.242-.668-.598-1.062.68 1.32 1.723 1.664-.883.95 1.437-.528.235-.535-.79-1.196.637 1.13 2.012 1.796-.695.723 1.539-.547.207-.465-.926-1.207.441.809 2.118 1.824-.485.441 1.57-.562.145-.274-.871-1.164.258.489 2.125 1.855-.11.219 1.715-.578.024-.141-1.024-1.184.016c.008.36.051 1.094.051 1.094l-.715-.305c-1.058-6.523-4.847-11.96-10.484-15.746l-.031-.781 1.37.804s1.263-1.035 1.477-1.3Zm54.171 1.523c.395-.004.219.277-.258 1.121-.535.941-.628.961-1.632 1.188-1.215.273-1.18.336-.524-.965.254-.5.442-.938.672-1.102.305-.219.898-.137 1.54-.226a1.43 1.43 0 0 1 .202-.016Zm-56.953.277c5.856 3.493 9.559 10.72 10.02 15.102 0 0-.16-.098-.48-.234-.442-.188-.552-.313-.68-.91-1.16-5.356-4.434-9.903-8.836-13.114Zm52.82.895c.247-.05.7 1.598.563 1.941-.098.246-.969-.34-1.285-.46-.156-.063.554-1.45.722-1.481Zm-28.246.074-.027 1.707s.223-.246.336-.324c.437-.293 1.102.113 1.125.617.035.7-.078.984-.684 1.953-.187.301-.468.684-.468.684s-.715-.473-1.496-1.192c-.844-.777-.684-1.816.054-1.82.223 0 .418.07.613.125-.16-.5-.753-1.476-.753-1.476Zm22.895 1.277s.383.465.82 1.692c.422 1.168-.226 2.047-1.101 1.61-.157-.083-.32-.25-.32-.25-.063.566.046 1.585.062 1.593l-1.414-.23s.773-1.137.832-1.422c0 0-.09.066-.477.066-1.422-.004-1.125-1.566.516-2.434a44.135 44.135 0 0 0 1.082-.625Zm8.144.02c.309-.012.164.262-.18.906-.374.707-.28.649-1.073.274-1.114-.504-1.047-.582.359-.934.445-.152.734-.238.894-.246Zm-20.164.207c1.114.008 1.934 1.023 1.77 2.469-.281 2.476-.121 2.324.172 2.57.531.453-.188.723-.82.293-.442-.3-.587-.594-.567-1.96.023-1.575-.066-1.974-.676-1.837-.379.086-.496.383-.457 1.445.059 1.489-.047 1.86-.656 2.336-.66.473-1.371.051-.77-.257.278-.286.329-.653.223-1.551-.117-.766-.601-3.52 1.781-3.508Zm27.532 1.25c.136 0 .277 0 .421.004 2.141.074 7.56.484 7.56.484l.046 1.48c-.242.137-4.285-.433-7.258-.382-.695.012-1.187.297-1.691.059.484.183.437 2.417-1.688 1.875-1.804-.598-.926-2.856 1.38-3.422.398-.051.808-.09 1.23-.098Zm-11.926.992 4.633 2.113c.648 8.036 3.648 16.528 13.867 22.961-1.656 1.098-5.809 3.786-10.555 5.63l-.39-.387c5.636-8.86 1.378-18.614-8.493-23.032.028-2.457.364-4.882.938-7.285Zm16.289 1.348c.887-.031 1.117.062 1.195.433.07.352.352.434.688.325.816-.278 1.312 1.058.636 1.652-.418.367-.343.512 0 .512.848.004.825 1.035-.039 1.617-.359.242-.355.355.02.527.629.285.504.852-.297 1.32-.434.254-.445.317-.09.407.903.226-.015 1.418-1.004 1.207-.406-.09-.793-.008-1.18.226-1.058.407-1.234.489-2.374.356-1.004-.168-1.454-.473-1.711-1.29-.59-1.652-1.223-3.487-1.23-5.296-.09-1.11 1.921-2.11 2.874-2.156.778-.106 1.668.152 2.512.16Zm-63.328.027c1.062 0 1.926.797 1.926 1.781 0 .985-.864 1.782-1.926 1.782-1.067 0-1.93-.797-1.93-1.782 0-.984.863-1.78 1.93-1.78Zm21.41.524-.172 1.558s.281-.203.348-.258c.5-.386 1.293.047 1.113.649-.059.531-1.05 2.113-1.445 2.445 0 0-1.59-1.605-1.762-1.918-.379-.695.137-1.422.824-1.113.102.043.383.238.383.238l-.504-1.48Zm-21.285.125c-.68.023-1.324.41-1.239.921.06.223.422-.097.778-.304.277-.16.605-.184.918-.059.277.09.394.328.554.508.137.156.286.281.372.207.07-.082.043-.184.023-.277-.148-.7-.777-1.012-1.406-.996Zm51.886.242.688.324c.93 11.36 7.14 18.035 13.664 22.012l-.516.289c-8.011-4.742-13.57-13.242-13.836-22.625Zm1.043.469s1.73.816 2.633 1.195l.035 1.027-.605.02-.203-.965-1.258.082.39 2.375 2.028-.23.285 1.437-.687.133-.352-.883-1.164.262.754 2.308 1.828-.543.574 1.508-.613.207-.395-.887-1.203.391.93 2.254 1.902-.566.77 1.41-.578.238-.551-.875-1.14.54 1.34 2.1 1.718-.831.8 1.125-.628.39-.574-.687-.926.562 1.48 1.871 1.48-1.027 1.11 1.18-.492.402-.754-.71-.894.737 1.761 1.79 1.535-1.227 1.086.933-.32.317-.734-.426-.97.953 1.852 1.488 1.47-1.488 1.25.848v.629l-1.118-.524-.746 1.04 1.863 1.304-.015.512c-10.618-5.86-13.415-14.946-13.954-21.7Zm-21.742.109c.461-.012.946.387 1.746 1.246 2.239 2.395 1.641 6.106-1.285 8.04-.426.28-.597.253-1.117-.161-3-2.383-3.176-5.57-.504-8.371.461-.48.805-.742 1.16-.754Zm10.727.332c.55.781 1.25 1.586 1.328 2.535-.04.942-.723 1.113-1.434.567-.09.492.215 1.453.215 1.453l-1.281-.125s.5-.813.523-1.32c-.89.57-1.574-.176-1.453-.782.258-1.023 1.168-1.715 2.102-2.328Zm-10.688.613c-.105.008-.215.074-.383.196-.78.582-1.394 1.3-1.71 2.05-.676 1.582-.235 3.36 1.28 4.743.77.703 1.044.656 2.223-.797.989-1.215 1.196-2.785.586-4.149-.296-.668-.836-1.316-1.48-1.785-.25-.184-.379-.27-.516-.258Zm24.684.29.996.452c1.27 7.747 5.387 12.473 10 15.73l-.008.716-1.238-.887-1.484 1.438-1.204-.91.454-.407.683.402.875-.906-1.723-1.422-1.5 1.207-1.253-1.191.382-.293.864.7.968-.798-1.675-1.734-1.496 1.05-1.047-1.28.457-.25.547.69 1.152-.663-1.219-1.735-1.742.825-.887-1.485.504-.222.578.832 1.082-.48-1.09-2.048-1.777.543-.656-1.61.512-.175.445.953 1.203-.355-.816-2.203-1.836.476-.457-1.617.57-.113.297.875 1.262-.235-.461-2.101-1.883.222c-.063-.359-.34-1.316-.336-1.68l.582-.046.18.926 1.265-.04Zm-24.617.171c.691.086 1.535 1.313 1.722 1.758.364.883.395 1.906.063 2.7-.27.644-1.082 1.796-1.598 2.116-.414.211-.765.055-1.36-.691-1.171-1.473-1.398-3.246-.472-4.46.707-.93 1.23-1.427 1.645-1.423ZM75.336 67l.5.215c.617 4.488 3.492 10.648 9.156 14.332v.566c-4.406-2.922-8.449-7.965-9.656-15.113Zm-26.035.305c-1.973 1.375-1.656 3.523-.164 4.972 1.61-.984 2.18-3.64.164-4.972Zm-30.09.09c1.11-.024 1.816.335 2.156 1.046.524 1.11.598 1.317.703 1.899l.211 1.113c.578 3.008.153 4.145-1.824 4.613-.59.141-1.41.184-1.984.059-.153-.035-.703-.04-1.137-.05-.863-.028-1.125-.11-1.559-.434-.156-.118-.308-.211-.496-.239-.984-.144-1.277-.98-.531-1.597.426-.352.469-.399.43-.457-.024-.035-.203-.063-.407-.067-.992-.004-.984-.949.02-1.625.473-.32.687-.625.375-.55-.906.199-1.227-1.028-.281-1.407.508-.261.867-.48.383-.504-.41.035-.743-.246-.618-.574.153-.398.98-.762 1.457-.625.375.106.739.203.973.047.566-.375.82-.547 1.309-.606a6.88 6.88 0 0 1 .82-.042Zm33.055.23 4.57.082-.137 4.145-4.304-.079s.945-1.851-.13-4.148Zm-10.243.094 4.38.05c-.723 1.563-.454 3.168-.188 4.07l-4.285-.062Zm7.313.008c1.176.632 1.496 2.941-.137 4.125-1.554-1.477-1.242-3.274.137-4.125Zm-10.8 1.8 1.175.102-.418 1.555s.187-.188.25-.204c1.508-.656 1.613.829.082 2.168-.34.293-.887.7-.887.7s-.425-.598-.765-1.137c-.383-.543-.645-1.125-.582-1.434.097-.445.68-.742 1.05-.468.184.136.395.34.395.34Zm20.952 1.137s.492.469.793.773c1.035 1.047 1.215 2.028.688 2.325-.45.191-.73.062-1.094-.211.074.648.633 1.61.621 1.61l-1.547.23s.38-1.301.348-1.793c0 0-.317.226-.457.28-1.012.34-1.512-.718-.68-1.776.695-.887 1.328-1.438 1.328-1.438Zm21.133 1.965c1.035 0 1.879.777 1.879 1.738s-.844 1.738-1.879 1.738c-1.039 0-1.879-.777-1.879-1.738 0-.96.84-1.738 1.88-1.738Zm.926.797c-.082.015-.149.187-.156.57-.094.777-.797 1.09-1.563.73-.308-.144-.574-.363-.574-.195 0 .086.246.551.426.711.648.54 2.23.414 2.195-.847-.016-.594-.191-.997-.328-.97Zm-34.125.652a.897.897 0 0 1 .629.223c.515.324.613.738.644 2.304.028 1.38-.004 1.415.242 1.582.606.41.97-.214.797-1.613-.168-1.347.356-2.324 1.239-2.32.43.004.511.238.183.539-.347.316-.43.703-.324 1.48.281 1.997.04 2.973-.867 3.38-.945.421-2.16-.063-2.375-1.169-.137-.734-.137-1.609-.04-2.43.016-.867-.007-.964-.331-1.46-.23-.332-.059-.5.203-.516Zm-23.781.645c.523 0 1.066.28 1.39.902.785 1.492-.914 2.723-2.468 2.82-2.7.035-5.91-.324-8.622-.656l.043-1.414c2.489.133 5.293.32 8.313.45-.344-1.313.473-2.098 1.344-2.102Zm14.207.293 1.504.304-.957 1.45c.285-.118.48-.196.765-.098.613.203.621.922.172 1.59-.355.488-1.355 1.07-2.035 1.43-.383-.762-1.23-2.094-.895-2.82.18-.388.676-.575 1.137-.364.152.086.441.222.441.222Zm3.558.039 4.582.047c-.668 4.285-1.968 10.007-4.539 14.668l-1.078.257c2.266-4.632 3.77-8.976 4.477-13.836h-2.293c-1.32 5.215-3.27 10.047-6.266 14.243l-1.336-.399c3.207-4.695 5.746-9.937 6.453-14.98Zm10.45.074h5.109c.941 8.723 4.129 14.676 8.87 20.566 0 0-.296.063-.476-.007-.488-.57-.941-.915-1.68-1.09-3.984-5.309-6.66-12.73-7.304-18.407h-3.04c.345 7.13 2.481 12.977 5.325 18.637l-1.543.262c-2.281-5.067-4.785-9.473-5.262-19.961Zm7.949 1.078c.422.3.875.594 1.304.883 1.149.746 1.133 2.156.016 2.148-.117 0-.395-.015-.395-.015s.458.925.747 1.394c-.47.113-1.442.281-1.442.281s.14-.906.113-1.66c0 0-.187.196-.343.262-.739.285-1.367-.313-1.274-1.02.125-.957 1.274-2.273 1.274-2.273Zm-34.125.172 2.511 1.152c-1.71 3.606-3.675 6.985-6.511 9.551l.07-8.336c1.55-.039 3.14-.055 3.93-2.367Zm17.191.129h1.547c-.684 6.652-5.441 15.652-6.332 16.738l-.293.203c.016-.008-.61-2.039-1.324-2.77 2.683-3.343 5.492-9.773 6.402-14.171Zm10.879 0h2.336c.727 5.3 2.5 11.027 6.992 17.984 0 0-.45.043-.797-.152-.765-.438-1.297.144-1.758.12-.714-.034-.832-.073-1.57.087-3.707-7.227-4.758-12.918-5.203-18.04Zm-25.238 1.191.836.364c-1.797 3.835-3.403 6.886-7.653 10.628l-.015-1.113c2.984-2.676 4.996-6.2 6.832-9.879Zm1.215.535c.394.137.843.364 1.214.547.125.047.094.153.094.262-.156.363-.855.523-1.117.594-.32.082-.633.14-.688.152-.367.082-.25-.258.145-.992.176-.336.246-.555.352-.563Zm1.668.813c.25-.016 1.257.5 1.472.687.078.22-.14.563-.457 1.2-.492.98-.59 1-.734.195-.028-.137-.172-.594-.262-.899-.203-.707-.223-1.113-.02-1.183Zm1.824.793s.586.262.777.379c-2.617 7.246-9.59 13.238-9.55 13.101l-1.09-.593c4.64-3.875 8.039-8.45 9.863-12.887Zm-2.766.101c.25.004.031.293-.308.989-.325.683-.434.925-.735 1.035-.437.144-1.058.148-1.613.238-.238.04-.14-.129.226-.812.43-.805.454-.973 1.125-1.141.387-.055.91-.313 1.305-.309Zm.918 1.442c.27.898.262 1.074.082 1.387-.34.582-.781 1.265-.902 1.449-.305.465-.39.367-.574-.758-.114-.695-.211-1.008-.125-1.313.152-.343.605-1.152.859-1.625.371-1.011.566.77.66.86Zm4.817-.785 1.374.418-1.078 1.203s.453-.078.504-.059c1.082.067.903 1.063.067 1.66-.348.297-2.059 1.012-2.059 1.012-.18-.887-.559-1.453-.469-2.367.063-.492.114-.934.762-.95.344-.015.48.31.703.57Zm24.894 1.078s.824.394 1.594.941c1 .711 1.172 1.547.172 1.867-.118.04-.446.024-.446.024.278.445.93 1.101.93 1.101-.328.215-.789.38-1.305.528 0 0-.125-1.102-.246-1.532 0 0-.133.243-.297.336-.964.555-1.718-.488-1.203-1.808.317-.805.801-1.457.801-1.457Zm-10.59.183c2.406-.054.996 3.59-.207 3.352-.02-.031.996-2.152-.37-2.488-.626-.157-.087-.871.577-.864Zm-3.941.258c.746-.004 1.289.485.574.79-1.121.484-.453 1.64-.426 2.292.016.403-1.004-.347-1.219-1.16-.277-1.05-.148-1.832 1.07-1.922Zm-17.79.383c.165 0 .29.012.333.043.07.172-.266.707-.754 1.394-.262.368-.375.47-.535.56-.38.194-.91.144-1.352.171-.66.008-.547-.004.188-1.055.324-.472.53-.855.726-.98.04-.024.899-.13 1.395-.133Zm.868.762c0 1.316.484 1.746.129 2.164a19.696 19.696 0 0 1-1.192 1.578c-.34.375-.3.305-.39-.68-.067-.715-.137-1.195-.035-1.418.289-.644.636-.953.996-1.64.281-.551.492-.461.492-.004Zm18.98.66c.7.008 1.133.695 1.102 1.324l-.031.602c.902-.32 2.023-.008 2.074.812.082 1.387-1.024 1.227-1.957 1.168.094.031.23 1.254-.324 1.719-.875.906-2.504-.02-2.094-1.344.086-.273.105-.45.105-.45s-.586.196-.793.188c-1.77-.07-1.632-2.382.145-2.113.363.059.61.137.61.137l-.098-.352c-.258-.89.285-1.703 1.261-1.691Zm35.426.41.957.508v.984l-1.36-.926Zm-57.23.66c.375-.004.672.024.613.106 0 .175-.824 1.234-1.313 1.718-.414.414-.472.356-1.488.309-.398-.02-.656-.02-.648-.121.468-.567 1.113-1.297 1.558-1.906.176-.047.793-.102 1.278-.106Zm.93.461c.07 0 .09.14.09.45-.005.23.034.945.07 1.257.066.563.066.563-.196.899-.32.316-.644.785-1.054 1.148-.618.633-.555.668-.547-.687.007-1.055-.078-1.055.152-1.305.129-.137.52-.578.781-.926.39-.531.598-.832.703-.836Zm5.886.188 1.27.629-1.274 1.19s.32-.003.426.017c.816.148.758.949-.066 1.546-.504.293-2.239.88-2.239.88-.062-.676-.215-1.294-.187-2.016.015-.332.047-.696.324-.985.191-.195.512-.308.957-.043.238.196.36.414.36.414Zm14.988.406c-.496 0-.902.375-.902.832 0 .46.406.836.902.836s.903-.375.903-.836c0-.457-.407-.832-.903-.832Zm14.2.195s1.664.578 2.41 1.215c.699.54.37 1.426-.324 1.445-.051 0-.344-.039-.344-.039.234.328 1.023 1.14 1.023 1.14l-1.285.485s-.207-.914-.367-1.43c-.445.958-1.55.337-1.625-.261-.18-.875.223-1.727.512-2.555Zm-14.2.074c.344 0 .625.262.625.579 0 .32-.28.582-.625.582-.347 0-.625-.262-.625-.582 0-.317.278-.579.625-.579ZM24.074 87.5c.446-.004 1.004.016 1.258.031.188.137-.21.555-.98 1.305-.618.598-.707.516-1.457.52-1.254.011-1.286.019-.711-.59.632-.664 1-1.09 1.293-1.227.097-.027.328-.035.597-.039Zm1.528.586c.132-.027.097.289.078.996l-.04 1.203-.976.867c-1.129.938-.992.996-.984.121.004-.695-.004-1.183.16-1.492.492-.55 1.008-1.035 1.566-1.562.09-.078.153-.125.196-.133Zm24.816.297c.273-.02.969 1.078 1.14 1.996.399 2.101 1.758 3.094 2.715 2.254.391-.496.434.043.414.3-.199 2.66-3.46 1.555-3.832-1.085-1.144.683-2.21-.703-1.53-.68 1.612-.473 1.171-1.844 1.093-2.785Zm-3.773.02c.16.921-1.637 2.495-2.645 1.39-.512-.563-.047-1.719.61-1.008.718.496 1.417-.078 2.035-.383Zm-24.649 1.261c.367-.004.902.059 1.137.031.328.028.094.176-.621.778-.614.515-.785.746-.856.52-.035-.348-.02-.766-.02-1.259.06-.046.192-.066.36-.07Zm8.363.613 1.094.739-1.086.921c.973-.042 1.063.801.692 1.27-.239.332-1.164.68-2.086.816-.555.082-1.008.145-1.008.145s-.02-.395-.035-1.05c-.032-1.348.066-1.876.625-2.138.402-.187 1.078.106 1.246.45.054.113.199.312.199.312Zm-7.043.075c.004-.004.008 0 .012 0 .059.078-.164 2.265-.164 2.265l-1.586-.824s1.606-1.418 1.738-1.441Zm41.965.257c1.13.493 1.973.395 2.735 1.004.66.32.464 1.203-.02 1.399-.215.062-.578.027-.578.027.398.457 1.273 1.031 1.273 1.031l-1.386.54s-.192-.868-.368-1.34c-.253.703-1.113.687-1.601.355-.344-.246-.488-1.066-.324-1.777.047-.188.27-1.239.27-1.239Zm-7.426 20.368c-13.71 3.003-24.847 1.148-25.953.793l-.87 1.203c-.106.207-.173.816-.766.984l-.887 1.227.172.168-.785.636.191.211-.574.77-.227-.02-1.324 1.86.203.21-3.047 4.407 41.188.011c-2.395-4.175-4.953-8.269-7.32-12.46Zm-.25.543.247.628c-.684-.078-1.477-.113-2.286-.148.707-.137 1.422-.3 2.04-.48Zm-2.394.546c-1.309.559-2.094 1.227-2.695 1.93-.75-.539-1.703-.922-2.84-1.16Zm-23.145.305.586.063s-.195.14-.336.113c-.105-.024-.25-.176-.25-.176Zm26.239.317.37.675c-.89-.437-4.706-1.437-5.788 2.07-1.14-1.421-5.84-3.488-8.223.903-.676-1.191-4.621-4.613-8.219-.25-1.418-2.711-2.601-2.938-5.203-2.57 1.848-1.641 4.45.07 5.555 1.468 3.101-2.379 5.7-1.664 7.965.27 2.925-2.945 5.843-2.234 7.894-.758 1.442-1.96 2.852-2.55 5.649-1.808Zm-23.965.015c1.847.23 3.691.336 5.535.418-1.066.363-2.164.676-3.031 1.402-.66-.847-1.574-1.343-2.504-1.82Zm13.308.274a13.809 13.809 0 0 0-2.96 1.789c-.938-.707-1.907-1.317-2.958-1.625 1.93.086 4.07.007 5.918-.164Zm11.809 1.39s-.371.059-.492.09c-1.63.398-1.274 2.52.402 2.52.16 0 .555-.059.555-.059-.031 1.437.441 1.789 2.027 1.707l2.692 4.45-39.801-.16 2.527-3.74c1.274.141 2.07-.515 1.79-1.51 0 0 .78.218 1 .222 1.44.008 1.812-2.035.433-2.387-.156-.04-.54-.078-.586-.094.629-1.453 2.363-.594 2.86.008 1.116-.848 2.35-.469 2.882.633 0 0-.21-.11-.273-.152-1.309-.883-2.528.949-1.246 1.793.128.085.394.156.394.156s-.156.117-.3.34c-.665 1.035.406 2.293 1.699 1.968.996-.359 1.007-1.05 1.007-1.808 0 0 .344.023.649.027 1.191.016 1.535-1.398.804-2.055-.394-.351-.91-.324-1.164-.37 1.375-1.247 2.305-.387 3.274.187.148-.004 1.683-1.707 3.508-.031-.883-.215-1.793.316-1.805 1.168.02.55.441 1.035 1.36 1.074-.098.273-.165.48-.169.746-.02.898.735 1.453 1.692 1.316.797-.094 1.386-.937 1.101-1.64-.125-.317-.304-.434-.304-.434 2.152.25 2.117-2.27.441-2.422-.394-.035-.7.125-1.102.461.985-1.86 2.786-1.484 3.458-.726.925-.622 2.199-1.47 3.722.043a2.317 2.317 0 0 0-.91.015c-1.207.297-1.215 1.715-.258 2.145.27.12.602.191.957.18-.32 1.19 1.114 2.042 2.125 1.472.727-.406.918-1.375.13-2.254 1.323-.055 1.452-1.578.69-2.113-.601-.418-1.304-.219-1.816.332-.164-.438 1.145-1.957 2.988-.863.98-.758 1.95-.989 3.059-.235Zm.578 1.192.516.867c-.344.035-.836-.309-.516-.867Zm-6.676.882c.325 0 .586.243.586.543 0 .297-.261.54-.586.54-.32 0-.582-.243-.582-.54 0-.3.262-.543.582-.543Zm-24.152.032c.074.293.11.582-.46.636Zm6.727.523c.296 0 .535.223.535.496 0 .274-.239.496-.535.496-.297 0-.536-.222-.536-.496 0-.273.239-.496.536-.496Zm8.925.156c.317 0 .57.235.57.524 0 .293-.253.527-.57.527-.312 0-.566-.234-.566-.527 0-.29.254-.524.566-.524ZM11.262 15.2H8.789L5.406 9.91v5.29h-2.11V3.284h2.11v4.098L8.38 3.285h2.512L7.059 8.598ZM87.738 124.8h2.473l3.383 5.29v-5.29h2.11v11.915h-2.11v-4.098l-2.973 4.098H88.11l3.832-5.313Zm0 0" style="stroke:none;fill-rule:nonzero;fill:#000;fill-opacity:1"/></svg>