<svg xmlns="http://www.w3.org/2000/svg" width="99" height="140"><path d="M9.298 719.743h215.404c4.93 0 8.92 4.005 8.92 8.938v314.362c0 4.934-3.99 8.938-8.92 8.938H9.298c-4.93 0-8.92-4.004-8.92-8.938V728.681c0-4.933 3.99-8.938 8.92-8.938Zm0 0" style="fill-rule:nonzero;fill:#fff;fill-opacity:1;stroke-width:.755906;stroke-linecap:butt;stroke-linejoin:miter;stroke:gray;stroke-opacity:1;stroke-miterlimit:4" transform="matrix(.42308 0 0 .42042 0 -302.435)"/><path d="M5.457 25.79c0-.235-.012-.403-.012-.638h1.5V24c-.949.031-1.976.102-2.867-.29-.687-.374-.879-1.245-.738-1.964.117-.812.57-1.531 1.164-2.086.77-.816 1.75-1.37 2.773-1.812 1.047.449 2.051 1.02 2.828 1.859.704.656 1.172 1.582 1.157 2.555.015.699-.422 1.437-1.14 1.59-.806.222-1.622.183-2.45.148v1.152h1.422c0 .235.011.403.011.637a283.894 283.894 0 0 0-3.648 0ZM89.898 114.21c0 .235-.011.403-.011.638h1.5V116c-.95-.031-1.977-.102-2.867.29-.688.374-.88 1.245-.739 1.964.117.812.57 1.531 1.164 2.086.77.816 1.75 1.37 2.774 1.812 1.047-.449 2.05-1.02 2.828-1.859.703-.656 1.172-1.582 1.156-2.555.016-.699-.422-1.437-1.14-1.59-.805-.222-1.622-.183-2.45-.148v-1.152h1.422c0-.235.012-.403.012-.637-1.113.008-2.445.008-3.649 0ZM19.34 39.82c0-.703-.04-1.207-.04-1.91h4.497v-3.453c-2.848.094-5.93.3-8.598-.867-2.062-1.125-2.633-3.746-2.215-5.899.356-2.433 1.715-4.59 3.489-6.253 2.308-2.454 5.254-4.11 8.328-5.446 3.137 1.356 6.148 3.067 8.484 5.586 2.11 1.969 3.512 4.746 3.469 7.656.043 2.102-1.266 4.32-3.426 4.782-2.414.664-4.86.547-7.34.441v3.453h4.254c0 .703.04 1.207.04 1.91-3.34-.023-7.337-.023-10.942 0ZM68.73 39.82c0-.703-.039-1.207-.039-1.91h4.496v-3.453c-2.847.094-5.93.3-8.597-.867-2.063-1.125-2.633-3.746-2.215-5.899.355-2.433 1.715-4.59 3.488-6.253 2.309-2.454 5.254-4.11 8.328-5.446 3.137 1.356 6.149 3.067 8.485 5.586 2.105 1.969 3.511 4.746 3.469 7.656.043 2.102-1.266 4.32-3.426 4.782-2.414.664-4.86.547-7.34.441v3.453h4.254c0 .703.039 1.207.039 1.91-3.34-.023-7.336-.023-10.942 0ZM19.34 100.18c0 .703-.04 1.207-.04 1.91h4.497v3.453c-2.848-.094-5.93-.3-8.598.867-2.062 1.125-2.633 3.746-2.215 5.899.356 2.433 1.715 4.59 3.489 6.254 2.308 2.453 5.254 4.109 8.328 5.445 3.137-1.356 6.148-3.067 8.484-5.586 2.11-1.969 3.512-4.746 3.469-7.656.043-2.102-1.266-4.32-3.426-4.782-2.414-.664-4.86-.546-7.34-.441v-3.453h4.254c0-.703.04-1.207.04-1.91-3.34.023-7.337.023-10.942 0ZM68.73 100.18c0 .703-.039 1.207-.039 1.91h4.496v3.453c-2.847-.094-5.93-.3-8.597.867-2.063 1.125-2.633 3.746-2.215 5.899.355 2.433 1.715 4.59 3.488 6.254 2.309 2.453 5.254 4.109 8.328 5.445 3.137-1.356 6.149-3.067 8.485-5.586 2.105-1.969 3.511-4.746 3.469-7.656.043-2.102-1.266-4.32-3.426-4.782-2.414-.664-4.86-.546-7.34-.441v-3.453h4.254c0-.703.039-1.207.039-1.91-3.34.023-7.336.023-10.942 0ZM11.262 14.777c0 .118-.02.23-.059.34a.51.51 0 0 1-.277.082H6.242c-.36 0-.539-.207-.539-.62 0-.067.004-.18.016-.349.008-.164.015-.289.015-.378 0-.192.036-.317.11-.372.05-.039.172-.058.355-.058h1.824v-1.27H3.93c-.422 0-.633-.226-.633-.672 0-.078.008-.214.02-.421.015-.207.023-.375.023-.496 0-.184.094-.418.285-.7L7.84 3.582c.133-.195.297-.297.496-.297H9.3c.226 0 .344.145.344.43v6.742c.171 0 .37-.004.597-.016.227-.011.375-.02.438-.02.261 0 .425.079.488.227.062.141.094.5.094 1.075 0 .101-.008.183-.02.238-.031.125-.144.191-.336.191H9.645v1.27c.18 0 .382-.004.609-.016.23-.011.375-.015.434-.015.277 0 .445.078.5.238.05.133.074.516.074 1.148ZM8.05 5.937c-.266.461-1.254 1.97-2.961 4.52h2.933c0-.293-.003-.793-.015-1.504-.012-.644-.02-1.148-.012-1.512a24.4 24.4 0 0 1 .055-1.503ZM87.738 125.223c0-.118.02-.23.059-.34a.51.51 0 0 1 .277-.082h4.684c.36 0 .539.207.539.62 0 .067-.004.18-.016.349-.008.164-.015.289-.015.378 0 .192-.036.317-.11.372-.05.039-.172.058-.355.058h-1.824v1.27h4.093c.422 0 .633.226.633.672 0 .078-.008.214-.02.421a6.998 6.998 0 0 0-.023.496c0 .184-.094.418-.285.7l-4.215 6.281c-.133.195-.297.297-.496.297H89.7c-.226 0-.344-.145-.344-.43v-6.742c-.171 0-.37.004-.597.016-.227.011-.375.02-.438.02-.261 0-.425-.079-.488-.227-.062-.141-.094-.5-.094-1.075 0-.101.008-.183.02-.238.031-.125.144-.191.336-.191h1.261v-1.27c-.18 0-.382.004-.609.016-.23.011-.375.015-.433.015-.278 0-.446-.078-.5-.238-.051-.133-.075-.516-.075-1.148Zm3.211 8.84c.266-.461 1.254-1.97 2.961-4.52h-2.933c0 .293.003.793.015 1.504.012.644.02 1.148.012 1.512a24.4 24.4 0 0 1-.055 1.504Zm0 0" style="stroke:none;fill-rule:nonzero;fill:#000;fill-opacity:1"/></svg>