<svg xmlns="http://www.w3.org/2000/svg" width="99" height="140"><path d="M9.298 719.743h215.404c4.93 0 8.92 4.005 8.92 8.938v314.362c0 4.934-3.99 8.938-8.92 8.938H9.298c-4.93 0-8.92-4.004-8.92-8.938V728.681c0-4.933 3.99-8.938 8.92-8.938Zm0 0" style="fill-rule:nonzero;fill:#fff;fill-opacity:1;stroke-width:.755906;stroke-linecap:butt;stroke-linejoin:miter;stroke:gray;stroke-opacity:1;stroke-miterlimit:4" transform="matrix(.42308 0 0 .42042 0 -302.435)"/><path d="M5.457 25.79c0-.235-.012-.403-.012-.638h1.5V24c-.949.031-1.976.102-2.867-.29-.687-.374-.879-1.245-.738-1.964.117-.812.57-1.531 1.164-2.086.77-.816 1.75-1.37 2.773-1.812 1.047.449 2.051 1.02 2.828 1.859.704.656 1.172 1.582 1.157 2.555.015.699-.422 1.437-1.14 1.59-.806.222-1.622.183-2.45.148v1.152h1.422c0 .235.011.403.011.637a283.894 283.894 0 0 0-3.648 0ZM89.898 114.21c0 .235-.011.403-.011.638h1.5V116c-.95-.031-1.977-.102-2.867.29-.688.374-.88 1.245-.739 1.964.117.812.57 1.531 1.164 2.086.77.816 1.75 1.37 2.774 1.812 1.047-.449 2.05-1.02 2.828-1.859.703-.656 1.172-1.582 1.156-2.555.016-.699-.422-1.437-1.14-1.59-.805-.222-1.622-.183-2.45-.148v-1.152h1.422c0-.235.012-.403.012-.637-1.113.008-2.445.008-3.649 0ZM44.035 39.82c0-.703-.039-1.207-.039-1.91h4.496v-3.453c-2.847.094-5.93.3-8.597-.867-2.063-1.125-2.633-3.746-2.215-5.899.355-2.433 1.715-4.59 3.488-6.253 2.309-2.454 5.254-4.11 8.328-5.446 3.137 1.356 6.149 3.067 8.484 5.586 2.11 1.969 3.512 4.746 3.47 7.656.042 2.102-1.266 4.32-3.427 4.782-2.414.664-4.859.547-7.34.441v3.453h4.255c0 .703.039 1.207.039 1.91-3.34-.023-7.336-.023-10.942 0ZM44.035 81.914c0-.703-.039-1.207-.039-1.91h4.496V76.55c-2.847.094-5.93.3-8.597-.867-2.063-1.125-2.633-3.746-2.215-5.899.355-2.433 1.715-4.594 3.488-6.254 2.309-2.453 5.254-4.113 8.328-5.445 3.137 1.355 6.149 3.066 8.484 5.586 2.11 1.969 3.512 4.746 3.47 7.656.042 2.102-1.266 4.32-3.427 4.777-2.414.668-4.859.551-7.34.446v3.453h4.255c0 .703.039 1.207.039 1.91-3.34-.023-7.336-.023-10.942 0ZM44.035 100.18c0 .703-.039 1.207-.039 1.91h4.496v3.453c-2.847-.094-5.93-.3-8.597.867-2.063 1.125-2.633 3.746-2.215 5.899.355 2.433 1.715 4.59 3.488 6.254 2.309 2.453 5.254 4.109 8.328 5.445 3.137-1.356 6.149-3.067 8.484-5.586 2.11-1.969 3.512-4.746 3.47-7.656.042-2.102-1.266-4.32-3.427-4.782-2.414-.664-4.859-.546-7.34-.441v-3.453h4.255c0-.703.039-1.207.039-1.91-3.34.023-7.336.023-10.942 0ZM11.262 11.836c0 1.105-.395 1.957-1.192 2.55-.715.544-1.652.813-2.812.813-2.64 0-3.961-1.219-3.961-3.656 0-.113.02-.219.058-.324a.557.557 0 0 1 .282-.07h1.082c.105 0 .203.023.293.07.027.078.05.168.066.27.094.671.29 1.156.582 1.46.328.336.828.504 1.508.504.555 0 1.008-.144 1.355-.437.368-.317.551-.739.551-1.27 0-1.125-.633-1.785-1.89-1.98a1.008 1.008 0 0 1-.352-.098c-.043-.086-.066-.523-.066-1.316 0-.102.027-.2.078-.29.414-.12.832-.242 1.246-.367.437-.195.66-.605.66-1.226 0-.942-.566-1.414-1.7-1.414-.523 0-.929.125-1.222.375-.156.136-.316.367-.484.691-.121.246-.242.371-.367.371H3.902c-.27 0-.406-.117-.406-.355 0-.907.363-1.621 1.09-2.145.656-.472 1.46-.707 2.414-.707 1.098 0 1.996.227 2.688.676.816.523 1.226 1.297 1.226 2.32 0 1.235-.625 2.074-1.875 2.52 1.484.61 2.223 1.625 2.223 3.035ZM87.738 128.164c0-1.105.395-1.957 1.192-2.55.715-.544 1.652-.813 2.812-.813 2.64 0 3.961 1.219 3.961 3.656 0 .113-.02.219-.058.324a.557.557 0 0 1-.282.07h-1.082a.624.624 0 0 1-.293-.07 1.511 1.511 0 0 1-.066-.27c-.094-.671-.29-1.156-.582-1.46-.328-.336-.828-.504-1.508-.504-.555 0-1.008.144-1.355.437-.368.317-.551.739-.551 1.27 0 1.125.633 1.785 1.89 1.98.157.02.274.055.352.098.043.086.066.523.066 1.316 0 .102-.027.2-.078.29-.414.12-.832.242-1.246.367-.437.195-.66.605-.66 1.226 0 .942.566 1.414 1.7 1.414.523 0 .929-.125 1.222-.375.156-.136.316-.367.484-.691.121-.246.242-.371.367-.371h1.075c.27 0 .406.117.406.355 0 .907-.363 1.621-1.09 2.145-.656.472-1.46.707-2.414.707-1.098 0-1.996-.227-2.688-.676-.816-.523-1.226-1.297-1.226-2.32 0-1.235.625-2.074 1.875-2.52-1.484-.61-2.223-1.625-2.223-3.035Zm0 0" style="stroke:none;fill-rule:nonzero;fill:#000;fill-opacity:1"/></svg>