<svg xmlns="http://www.w3.org/2000/svg" width="99" height="140"><path d="M9.298 719.743h215.404c4.93 0 8.92 4.005 8.92 8.938v314.362c0 4.934-3.99 8.938-8.92 8.938H9.298c-4.93 0-8.92-4.004-8.92-8.938V728.681c0-4.933 3.99-8.938 8.92-8.938Zm0 0" style="fill-rule:nonzero;fill:#fff;fill-opacity:1;stroke-width:.755906;stroke-linecap:butt;stroke-linejoin:miter;stroke:gray;stroke-opacity:1;stroke-miterlimit:4" transform="matrix(.42308 0 0 .42042 0 -302.435)"/><path d="M11.262 10.996c0 .957-.063 1.652-.196 2.086-.222.754-.703 1.313-1.433 1.676-.582.293-1.278.441-2.094.441-1.66 0-3.074-.562-4.242-1.683l2.07-1.493c.774.676 1.473 1.012 2.102 1.012.43 0 .707-.207.832-.617.054-.18.082-.512.082-1.004V3.285h2.879ZM87.738 129.004c0-.957.063-1.652.196-2.086.222-.754.703-1.313 1.433-1.676.582-.293 1.278-.441 2.094-.441 1.66 0 3.074.562 4.242 1.683l-2.07 1.493c-.774-.676-1.473-1.012-2.102-1.012-.43 0-.707.207-.832.617-.054.18-.082.512-.082 1.004v8.129h-2.879ZM5.457 25.79c0-.235-.012-.403-.012-.638h1.5V24c-.949.031-1.976.102-2.867-.29-.687-.374-.879-1.245-.738-1.964.117-.812.57-1.531 1.164-2.086.77-.816 1.75-1.37 2.773-1.812 1.047.449 2.051 1.02 2.828 1.859.704.656 1.172 1.582 1.157 2.555.015.699-.422 1.437-1.14 1.59-.806.222-1.622.183-2.45.148v1.152h1.422c0 .235.011.403.011.637a283.894 283.894 0 0 0-3.648 0ZM89.898 114.21c0 .235-.011.403-.011.638h1.5V116c-.95-.031-1.977-.102-2.867.29-.688.374-.88 1.245-.739 1.964.117.812.57 1.531 1.164 2.086.77.816 1.75 1.37 2.774 1.812 1.047-.449 2.05-1.02 2.828-1.859.703-.656 1.172-1.582 1.156-2.555.016-.699-.422-1.437-1.14-1.59-.805-.222-1.622-.183-2.45-.148v-1.152h1.422c0-.235.012-.403.012-.637-1.113.008-2.445.008-3.649 0ZM21.16 35.848c0-.465-.027-.805-.027-1.274h3v-2.3c-1.899.062-3.953.203-5.73-.579-1.376-.75-1.758-2.496-1.481-3.933.238-1.621 1.144-3.059 2.328-4.168 1.54-1.637 3.504-2.742 5.55-3.63 2.095.903 4.102 2.044 5.66 3.724 1.403 1.312 2.34 3.164 2.31 5.105.03 1.398-.84 2.879-2.282 3.184-1.61.445-3.242.367-4.894.296v2.301h2.836c0 .469.027.809.027 1.274-2.227-.016-4.89-.016-7.297 0ZM70.55 104.152c0 .465-.027.805-.027 1.274h3v2.3c-1.898-.062-3.953-.203-5.73.579-1.375.75-1.758 2.496-1.48 3.933.238 1.621 1.144 3.059 2.328 4.168 1.539 1.637 3.504 2.742 5.55 3.63 2.094-.903 4.102-2.044 5.66-3.724 1.403-1.312 2.337-3.164 2.31-5.105.03-1.398-.845-2.879-2.282-3.184-1.613-.445-3.242-.367-4.895-.296v-2.301h2.836c0-.469.028-.809.028-1.274-2.23.016-4.891.016-7.297 0Zm0 0" style="stroke:none;fill-rule:nonzero;fill:#000;fill-opacity:1"/><path d="m12.871 15.992-.016 107.871 73.247.145.043-107.938Zm23.266.633 33.187.11s-3.804 4.484-4.59 6.527c-.609.715-.886.586-1.894.398-2.7-.64-7.242-.629-9.5-.668-4.262-.172-8.094 1.031-12.36 1.227-1.476-2.246-3.613-5.07-4.843-7.594Zm-22.344.195 21.34.059 5.004 8.324c.183.235.008.711-.098.98-.621 1.587-1.164 2.505-2.414 4.395-1.184 1.79-1.61 3.43-1.188 4.531.063.133.118.34.094.512-.066.55-.574 1.188-1.261 1.621-.47.07-1.442.125-2.004.633-.485.434-.88 1.07-.817 2.234.028.418.086.68.086.68-6.363 2.414-10.922 5.246-10.773 5.348-.059-.024-5.594-2.348-7.899-2.922Zm56.715.149 14.629.011.086 38.07-5.614-3.32c.461-.292.746-.464 1.23-.765.087-.024.247-.024.352-.047.98-.2 1.66-.867 1.32-1.559-.23-.468.087-.437.372-.82.316-.434.25-.816.047-1.18-.098-.18-.043-.25.125-.582.449-.507.125-1.363-.453-1.64-.063-.082.062-.207.09-.325.163-.687-.137-1.289-.79-1.44-.332-.083-.445-.134-.328-.407.211-.485-.066-.664-.5-.82-.734-.266-.527-.31.38-.68 1.855-.762 2.292-3.024 1.015-5.074-.16-.262-.594-.875-.89-1.286-.34-.48-.677-.89-.677-.89l2.457-3.125s-1.71-1.848-2.32-2.867c.145-.504 1.856-2.09 2.078-3.625.348-2.41-1.656-3.953-3.555-3.774-1.316.13-2.937.895-2.816 3.125.04.696.336 1.41.871 2.278.38.648.863 1.335 1.332 1.992L76.477 31.3l2.496 2.887s-.032.042-.086.124c-.25.36-.973 1.422-1.285 2.043-.918 1.66-1.247 3.485.644 4.77.332.184.586.34.727.469.187.168.07.297-.227.36-.351.066-.71.062-1.078.194a12.193 12.193 0 0 0-3.223 1.657c-.472.347-1.238 1.457-1.703 2.355-.508.977-.648 1.195-.648 1.195l-8.688-5.07s-.222-.16-.281-.222c-.164-.165-.105-.258.008-.442.094-.156.097-.613.058-.96-.011-.665-.007-.665.41-1.278.149-.215.212-.43.126-.762-.137-.371-.149-.254.113-.508.101-.113.222-.172.242-.293.027-.168.008-.457.012-.992.008-1.082-.008-.992.656-1.465.824-.59 1.133-.867 1.266-1.133.187-.382 0-.671-.465-1.433-.211-.348-.54-.817-.7-1.082-.296-.473-.722-1.094-.93-1.688-.308-.457-.26-1.246.024-1.71.36-.587.461-.938.45-2.118-.012-1.09-.102-.988.207-1.355 2.28-2.754 5.906-7.875 5.906-7.875Zm9.297 4.027c.05 0 .097.004.148.004.719.031 1.434.242 2.094.828.902.824.84 2.012.543 3.246-.133.36-.238.727-.516 1.102-.152.207-.277.402-.277.426 0 .027-.223.355-.496.726-.266.367-.57.875-.57.875s.425.695 1.18 1.567c.566.77.933 1.437.976 1.398 0 0-.145.332-.34.57-.598.715-1.7 2.207-1.742 2.364-.008.035-.125.074-.121.113.007.137.226.3.554.715 1.985 2.48 2.266 4.578.774 5.812-.739.613-1.473.805-2.258.727-1.438-.14-2.766-1.262-2.61-2.89.07-.75.028-.977.512-1.849.219-.488.711-1.332 1.043-1.753.285-.305.594-.739.594-.739s-.707-.992-2.004-2.386a2.358 2.358 0 0 1-.379-.598l2.223-3.004s-.258-.582-.692-1.172c-.89-1.21-1.464-2.496-1.457-3.219.012-1.804 1.305-2.859 2.82-2.863Zm5.535 42.91c-1.313.637-2.59 2.813-.09 1.297l.063 1.25c-1.301 1.68-3.84.45-3.196-1.293-1.754.207-2.027-1.418-1.937-2.187-2.309-.461-1.512-2.688-1.512-2.688-1.332-1.015-1.566-2.082-.488-3.203-1.09-.621-1.399-1.016-2.598-1.465.918 7.461 5.336 11.336 9.984 14.79 0 0 .102 2.402-.43 1.96C78.5 67.844 74.235 62.676 73.5 54.31c-.055.132-3.145-2.18-3.656-2.059-1.07 13.547 10.754 22.45 15.668 24.203 0 0 .07 1.887-.012 1.895-7.453-2.965-15.742-11.664-17.336-22.016l-4.398 6.207-1.645-.64 7.11-10.215-4.81-2.75-7.827 11.312s-.207.941.36.926c10.987 1.074 27.327 13.113 21.85 32.703-.472-.168-1.23-.504-1.265-.492.86-1.688 3.254-12.625-3.953-21.461-3.305-4.047-8.426-8.356-16.64-9.629.675 1.277.382 4.176.382 4.176l1.914.355c-.648-.625-1.187-1.136-1.445-1.812-.356-1.051.168-1.676 1.445-1.051.508.262.637.25 1.13-.082 1.03-.7 2.202.02 1.933 1.18-.04.171.008.277.496.32 1.11.098 2.222.598 2.945 1.383.356.414.434.351.75.105.77-.613 2.05.235 1.82 1.18-.129.543-.058.672.215.777 1.512.578 1.883.942 2.352 2.149.172.441.312.586.402.562.063-.02.309-.094.528-.172 1.128-.386 1.789.856.988 1.828-.164.2-.043.391.25.536.937.468 1.574 1.582 1.683 2.75.043.445.094.445.582.425 1.246-.047 1.84 1.489.829 2.055-.356.195-.29.453-.016.75.73.785.898 1.356.836 2.25-.086 1.195-.004 1.172.414 1.316 1.21.422.984 2.188-.203 2.18.855 1.82-.27 4.04-.235 4.078 2.286 1.172.223 2.418-.441 2.2 0 0-.34.816.047 1.238-2.004 2.418-4.629 2.816-7.531 4.02l-.094-8.512a146.01 146.01 0 0 0 3.601 2.539s.305-.082.028-.317c-.531-.449-1.871-1.238-2.246-1.55-.809-.563-3.77-3.145-4.297-3.758-.238-.407-.594-.172-.582-.149.351.559.617 1.211 1.074 1.793.992 1.25 1.953 2.645 1.855 4.02-.003.773-.34 1.566-.527 1.953-.14.531-1.062-.09-.832-.535.41-1.22.754-2.22-.719-4.18-.715-.957-1.644-2.691-1.644-2.691l-.594.128.023 11.106c-.5.016-1.761.316-1.5.324 3.938-.719 5.141 4.418 1.34 4.586-.722.024-1.468 1.156-1.547 1.774.036 1.492.274 3.062-.921 4.496-.317.379-.461.976-.754 1.445-1.461 2.36-2.114 3.71-1.961 4.32.035.156.07.364.07.364-4.652 1.062-8.144 1.332-12.832 1.433-.047-.066 1.574-4.223 2.758-6.355.87-1.575 1.324-2.649 1.078-2.973-3.719.168-3.004-4.805.55-4.629 0 0 .895-2.863 1.891-4.156.946-.48 2.852.176 3.918-.469 2.512-.703 4.16 2.008 4.16 2.008l.676-2.578-22.23-.098s-2.29.781-3.461.34c-.75-.281-1.606-1.082-1.61-1.082 0 0 8.497-12.441 9.743-14.234.101-.149-.22-.461-.22-.465-.046-.407-9.89 13.582-9.85 14.199 0 0-.262.34-.735.039-5.566-3.5-18.867-11.031-18.867-11.031l-.02-5.578c4.63-2.66 4.207-3.746-.074-.848-.059.047-.09-2.094-.09-2.094 3.262-2.66.551-1.828-.094-.906.016-.664-.156-1.563.313-1.961 1.426-1.2 3.105-.098 3.191 1.676 1.86.332 1.63 1.824 2.11 2.422 1.894.976.894 2.457 1.367 2.96 1.996 1.15.605 2.997.18 2.958.254.152 2.738 1.672 2.949 1.617-.215-7.961-9.824-15.559-10.094-15.16l.207-1.715s12.008 7.004 11.902 18.246l3.832 2.074c-.343-11.531-5.988-19.316-15.644-24.27l-.207-2.171C21.69 64.785 29.21 71.75 30.96 83.16l4.488-6.351 1.582.699-7.207 10.543 4.5 2.699c3.492-4.191 6.403-9.328 8.176-11.773a7.34 7.34 0 0 0-.145-.543C25.2 75.852 15.531 61.188 20.141 45.867l1.191.477c-3.578 11.347 2.258 27.68 20.918 31.02-.04-1.208-.27-4.173-.27-4.173s-2.453-.671-2.09-.402c.598.465 1.95 2.484 1.38 3.203-.41.051-1.098-.156-1.848-.66-.285-.187-.293-.148-.61.16-.882.86-2.164.367-2.175-.812-.004-.496-.024-.606-.801-.61-1.176-.007-1.703-.191-2.406-1.05-.5-.61-.457-.614-1.043-.43-1.13.492-2.028-.535-1.676-1.383.176-.398-.008-.523-.523-.602-.997-.152-2.125-1.293-2.333-2.226-.043-.192-.148-.238-.738-.219-1.152.035-1.793-.601-1.336-1.496.246-.484.317-.68-.144-1.008-.567-.398-.887-.68-1.137-1.164-.2-.387-.23-.633-.367-1.457-.047-.285-.153-.332-.559-.379-1.195-.144-1.664-1.258-.789-1.98.266-.219.266-.215-.14-.692-.782-.922-1.07-2.125-.73-2.925.089-.22 0-.485-.278-.547-1.09-.246-1.11-1.348-.067-1.965.305-.18.32-.3.09-.664-.402-.633-.379-2.293.008-3.09.25-.512.246-.527-.14-.75-.829-.484-.59-1.809.386-2.027.477-.106.508-.164.379-.688-.227-.937-.266-1.18.34-1.55 1.668-.989 5.941-2.88 5.941-2.88l1.41-.613s.145 7.867.051 8.797c-.055.398.34.64.8 1.059.95.851 1.47 1.879 2.735 2.593 0 0 .79-.402 1.278-.687l.047-11.207c.101-.254.167-.281.492-.317.27-.046.949-.117 1.175-.175.543-.149.63-.348-.085-.282-.215.02-.54.102-.903.172-2.238.61-3.89-2.566-2.187-4.168.328-.265 1.547-.73 2.105-.761.16 0 .637-.536.961-1.032.328-.496.465-.867.277-1.367-.394-1.047-.02-2.656 1.16-4.414 1.282-1.66 2.266-3.512 2.786-5.48 4.527-.5 8.367-1.528 12.46-1.301.16 1.262-4.476 8.7-3.507 9.137 3.648.796 2.402 4.738-.371 4.609-.414-.004-.453.031-.719.867-.504 1.223-.828 2.156-1.367 3.293-.004.293-.227.266-1.742.254-1.387-.188-2.344.504-3.352.543-1.285.055-2.383-.508-2.828-1.441-.2-.414-.383-.141-.39.843-.005.785-.04 1.242-.04 1.242s5.313.016 11.367.024c12.239.02 11.02.191 11.993-.254.566-.258.937-.535 1.918.047 1.574.937 1.52.809 1.062 1.41-3.074 4.16-9.875 14.172-9.875 14.172l.477.422s6.867-9.895 9.996-14.528c.14-.152.797.04.797.04l18.73 11.109c-.156 1.68.028 5.441.028 5.441-5.266 2.551-3.657 3.848-.032.762ZM53.555 23.93s5.433.043 8.156.441c2.387.348 2.266.281 2.254 1.863-.004 1.121-.008 1.098-.324 1.633-.582.992-.48 1.973.437 3.34.895 1.332 1.547 2.313 1.547 2.5 0 .293-.055.652-.828 1.145-.914.582-1.086.988-1.074 1.582.011.476-.09.632-.403.632-.125-.004-.57.188-1.047.391-.84.36-.84.36-1.62.355-.395-.003-.583-.136-.692-.097-.211.09-.402.73-.398.918.023.066.136.027.367-.043 1.297-.406 3.226-.223 3.28-.047.263.215.263.55-.132.895-.254.367-.371.558-.266 1.124.145.774.04 1.079-.394 1.348-1.32.813-3.082.914-5.902.422-2.97-.52-5-1.555-6.688-3.402-.754-.828-.941-1.117-.57-1.172.46-.067.972-.153 1.445-.34 2.086-.816 2.05-4.305-.762-4.668-1.148-.035 2.368-4.969 3.614-8.82Zm2.68 2.402c-1.008.516-1.536 1.145-1.54 1.484 0 .141.035.118.516-.171 1.398-.84 5.086-2.051 6.402-1.352.95.52 1.317.348.766-.348-1.29-1.64-4.766-.297-6.145.387Zm3.605.55a2.7 2.7 0 0 0-.461.044c-.973.199-2.043.93-2.93 1.574-.437.316-1.054.945-1.152 1.11-.219.374.266.785.922.456.383-.191.418-.148.785-.101.851.234 1.82.594 3.316.48.14.028.13.059.082.176-.09.219-.62.637-1.312 1.106-.36.238-.672.437-.695.472-.11.16.367.176.89-.097.742-.383 1.598-1.23 2.117-1.914.051-.063.121-.118.145-.188.05-.156-.262-.094-.43-.137-.074-.015-.058-.183-.078-.258-.047-.199.04-.53.078-.816.031-.23.301-.41.48-.582.782-.742.723-1.078-.331-.508-.176.098-.317.156-.489.168-1.55.043-2.449-.012-3.746.985-.574.421-.918.464-.406.011.781-.574 1.758-1.394 2.844-1.613.652-.148 1.273.309 1.562.191 0-.328-.547-.566-1.191-.558Zm-.227 2.052c.18.105.356.66.336.847-.02.215-.426.125-.484.024l-.223-.617c-.094-.208.2-.325.371-.254Zm-.789.125c.188.168.235.539.34.847-.066.219-1.598-.078-1.789-.324.23-.273 1.02-.598 1.45-.523Zm2.68 3.968a.6.6 0 0 0-.406.176 1.262 1.262 0 0 0 .363 2.09c.402.172 1.012.047 1.91-.207.43-.121.738-.176.82-.176.352.004.543-.492.297-.719-.285-.265-.96-.226-1.687.286-.367.261-.63.386-.926.382-.727-.007-1.082-.691-.34-1.406.25-.238.16-.414-.031-.426Zm-5.094 4.711c.86.63 2.485.301 3.578-.36.98-.589 1.383-.765 2.168-.64.961.149.926-.195.508-.629-.469-.492-1.637-.34-2.613.25-2.16 1.309-2.942 1.528-3.57.82-.676-.761.128-1.734.921-1.202.653.402.641.101.371-.176-1.566-1.207-2.699.953-1.363 1.937Zm-7.597.621c1.09 1.262 2.136 2.305 3.703 3.07l.02.239-5.075-.008c.355-.566 1.36-3.265 1.352-3.3Zm-17.18 3.286c-.106 1.902.265 3.02 1.488 4.351 1.297 1.41 1.203 3.613.367 4.977-.37.601-1.12-.141-.765-.524.504-.578.53-1.988.293-2.87-.536-1.458-1.746-2.173-2.239-3.712-.164-.66-.113-1.84-.113-1.84Zm1.59.16c.086-.012.23.074.437.238.719.566.598 2.187-.226 3.227-.25.316-.461.226-.7-.067-.324-.293-.21-.32.059-.836.285-.535.379-1.137.32-1.844-.039-.472-.023-.699.11-.718Zm46.535.558c.633-.011 1.426.114 1.5.32.066.258-.082.462-.438.598-.925.356-2.152-.144-1.843-.754.078-.109.402-.16.78-.164Zm-1.606.137c.184-.004.325.04.438.082.3.145-.176 1.121 1.336 1.102.363.046.629-.028.578.12-.074.223-.723.563-1.426.657-2.105.285-2.016.187-1.918 1.547.063.883 0 1.183-.133 1.719-.23.933-.32 1.832-.168 1.539.207-.399.73-1.649.727-2.36-.004-1.047.406-1.254.57-.496.07.504-.176.79.196 1.3.21.29.304.282.164.731-.121.395-.036.508.113.711.152.2.305.246.176.528-.278.61.16 1.183.793 1.234.289.02.37.137.285.238-.156.176-.465.258-.719.309l-6.691-3.898s.496-.907.644-1.149c.961-1.922 1.723-2.797 4.535-3.805.192-.074.36-.105.5-.109Zm3.555 1.262c.188-.004.324.082.477.265.41.48.054 1.082-.957 1.602-.864.445-1.114.5-1.301-.203a.932.932 0 0 0-.23-.348c-.204-.164-.157-.305.097-.426.121-.058.512-.203.82-.39.54-.328.86-.492 1.094-.5Zm-2.848 1.398c.211.004.43.047.59.145.27.156.27.554 0 .715-.535.199-1.383-.067-1.312-.516.035-.23.37-.352.722-.344Zm3.442.492c.191-.007.336.075.453.243.316.445-.055.89-1.113 1.363-.7.312-1.594.449-1.536.265.051-.148-.199-.878-.312-.992-.043-.125.016-.011.894-.265.32-.094.708-.246.883-.348.305-.172.543-.262.73-.266Zm-50.188 1.149c-.492 1.078-.566 1.55-.336 2.683.196.942.422 1.414 1.48 2.805.81 1.059 1.067 1.473.872 1.805-.137.18-.445.347-.637.176-.394-.47-.629-1.04-1.015-1.563-1.48-1.98-1.582-2.484-1.774-4.05-.086-.716.363-2.235.75-2.466.43-.152.793.364.66.61Zm34.219-.496a.19.19 0 0 0-.11.058c-.202.184-.777 1.04-.757 1.168.043.282.3.098.965-.797.164-.214.054-.445-.098-.43Zm12.746.488c.594.016.805.5.54.754-.391.367-1.087.09-1.087-.426 0-.223.114-.332.547-.328Zm3.29.687c.339.016.382.325.202.77-.226.414-.496.484-1.312.715-.977.277-1.133.238-1.281-.578-.055-.317-.028-.246.87-.465a9.151 9.151 0 0 0 1.075-.352c.183-.066.332-.093.445-.09Zm-57.618.368.238 1.652.39-1.234Zm54.445.558c.48 0 .739.39.493.63-.133.128-.481.132-.645.054-.383-.254-.313-.688.152-.684Zm-14.664.864.938.523-7.602 10.941-.914-.015-.086-.176Zm17.246.101c.559-.004.61.477-.07.922-.281.16-.59.2-.836.21-.336.013-.562-.066-.59-.28-.148-.52-.23-.653.293-.621.102.007.387-.008.614-.094.234-.094.43-.133.59-.137Zm-2.324.48c.387 0 .633.387.375.575-.324.23-.723.086-.723-.262.004-.227.07-.312.348-.312Zm-54.683.774-2.067 1.668c.758.82 1.395 1.637 2.05 2.492Zm41.808.105c.895-.03 1.192.364.766.63-.578.355-1.074.335-1.73.253-.868-.144-.177-.781.773-.87l.191-.013Zm-.953 1.192c.18-.004.45.043.793.148.586.184 1.32.742 1.285 1.055-.058.504-1.098.242-1.933-.48-.524-.45-.543-.711-.145-.723Zm-.793.008c.508.043 1.016 1.613.621 2.097-.387.473-1.07-.547-.945-1.343.05-.317.137-.735.273-.75.016-.004.031-.004.051-.004Zm-33.23.347c.285.063.652.422.574.696-.059.113-.18.078-.309.05-.238-.09-.418-.39-.375-.64.024-.067.055-.102.11-.106Zm38.558.27 1.496.922-1.496.054Zm-6.195 1.871c1.148.004 1.39.344.535.754-.355.172-1.223.203-1.672.062-.71-.226.145-.824 1.137-.816Zm9.277.703.078.95-2.879.23-.144-.989Zm-9.949.473c.2-.012.516.07.934.265.78.368 1.226.985.824 1.18-.367.176-1.02-.031-1.48-.473-.61-.586-.66-.953-.278-.972Zm-.98 0c.523.031.976 1.336.632 1.984-.191.352-.43.274-.77-.308-.331-.563-.35-1.555.032-1.665a.485.485 0 0 1 .105-.011Zm-37.438.37-1.258 2.306 2.281 1.816Zm48.723 1.778.203.91-2.762.621-.273-.992Zm-12.067.176c.336.008.657.082.836.227.254.203.2.292-.398.511-1.059.395-2.364.157-1.606-.43.266-.206.735-.312 1.168-.308Zm17.95-.05c-1.055.644-.04 1 .714.51-.054-.167-.492-.51-.715-.51ZM60.757 59.16c.754.024 2.234.965 1.918 1.418-.172.246-1.16.035-1.555-.308-.516-.45-.789-1.055-.504-1.102.043-.008.09-.008.14-.008Zm-.953.043c.39-.066 1.011 1.59.543 2.016-.176.156-.227.148-.52-.09-.59-.477-.488-1.356-.137-1.848a.188.188 0 0 1 .114-.078Zm23.191.871c-.101-.172-.23-.254-.371-.351-3.668 1.285-2.727 2.511.371.351Zm-8.691.114.367.925-2.785 1.008-.407-1.012Zm-47.594 1.75-.941 2.261c1.023.008 1.945.45 2.878.84Zm48.52.667.59.907-2.618 1.293-.523-.957Zm-60.805 1.77 1.074.688-1.578 1.785-.14-.25.015-1.48Zm62.234.559.633.836-2.52 1.597-.617-.91ZM17.13 66.008l1.156.812-1.828 2.012-1.11-.77Zm12.734.496-.054 2.422 2.726.097Zm31.485 1.094 3.093 1.625-.464-2.48c-.809.14-1.848.62-2.63.855Zm17.004-.512.722.82-2.328 1.785-.746-.855Zm-58.86.719 1.078.914-1.902 1.875-.996-.86Zm60.848 1.332.836.773-2.121 2.012-.836-.774Zm-58.399.984.836.89-2.172 1.571-.804-.89Zm12.512.207.61 2.375c-.043-.172 2.703-.707 3.062-.527Zm31.984.203 2.594 2.496.293-2.406Zm16.036.39.937.669-1.738 2.262-1.063-.758Zm-58.66 1.509.773 1.02-2.277 1.234-.645-.899Zm61.117.242.144.129-.004 1.617-.722.965-.985-.528Zm-14.668 1.812 2.293 3.801.648-2.836c-.848-.008-2.191-.504-2.941-.965Zm-44.637.508.547 1.098-2.402 1-.551-1.094Zm1.3 2.617.438 1.102-2.554.773-.407-1.062Zm-11.429 1.996.797.508c4.148-1.988 2.855-2.574-.797-.508Zm23.441-1.265c.157-.016.336.183.481.62.223.657.105 1.478-.387 1.466-.328-.035-.453-.809-.453-1.035-.004-.66.156-1.032.36-1.051Zm2.274.394.988.098-.008.254-7.863 11.39-.953-.55ZM36.973 79c.316 0 .773.2 1.18.594.238.234.492.566.554.91-.008.113-.219.07-.422.043-.523-.067-1.289-.399-1.535-.805-.3-.5-.133-.746.223-.742Zm36.168.406 1.05 4.664c.325-1.168 1.008-1.843 1.516-2.757-1.336-.563-1.883-1.227-2.566-1.907Zm-45.2.942.247 1.207-2.653.558-.273-1.168Zm9.883.418c.04 0 .074 0 .114.004.968.101 1.105.296.453.695-.395.242-1.465.277-1.641.02-.188-.278.512-.712 1.074-.72Zm-19.226.71.82.438c1.41-.93-.129-1.113-.82-.437Zm17.832.407c.297.004.476.484.578.926.101.43.137.816-.043 1.035-.223.261-.442.308-.617.047-.516-.766-.5-2.016.082-2.008Zm-2.184.699c.137-.004.313.027.516.098.687.234 1.597 1.195 1.215 1.328-.57.195-1.813-.371-2.047-.95-.117-.288.011-.464.316-.476Zm-5.668.773.063 1.192-2.79.105-.081-1.187Zm6.824 1.004c.278-.007.551.028.77.114.402.156.11.441-.574.66-.453.14-1.098.18-1.325.015-.527-.382.305-.765 1.13-.789Zm-21.55.141c1.91 1.055 5.843 3.41 5.843 3.41-.187.035-.386.168-.57.297-.14.11-.297.207-.43.258-.21.078-.406.09-.582.125-1.23.242-1.836.879-1.449 1.668.148.308.188.262-.074.523-.735.637-.645.828-.383 1.645.004.117-.871 1.097-.098 1.836.43.343.45.129.293.906-.05.465.086.848.832.98.41.172.407.114.258.434-.097.457.047.648.399.813.32.183.449.234.222.394-2.476 1.156-3.238 3.168-.902 6.133.277.351.969 1.336.969 1.336-.79 1.066-1.54 1.945-2.344 2.898l2.34 2.98c-.38.544-1.266 1.641-1.809 2.727-.816 1.633-.277 3.918 2.074 4.602 1.008.293 2.34.055 3.176-.832.684-.723 1.055-2.153.43-3.645-.785-1.672-1.727-2.492-2.031-2.965l2.504-2.867s-1.727-2.261-2.415-3.086c4.696-5.238.86-6.703.125-7.152-.113-.07-.085-.406-.085-.406 4.214-.438 5.656-2.551 6.894-5.227 2.516 1.477 6.117 3.465 8.64 5.02.243.203.403.332.368.445a3.873 3.873 0 0 0-.133.953c.117.695.059 1.012-.246 1.277-.29.25-.234.364-.188.633.083.473.16.52-.07.754-.285.293-.379.43-.328 1.137.031.422.09.738-.027.984-.16.325-.59.489-1.153.89-.988.708-.855.927.508 3.493 1.164 2.184 1.297 2.688.848 3.461-.367.648-.508 1.148-.465 2.082.012.238.035.492.035.621-.004.3 0 .266-.191.453a6.889 6.889 0 0 0-.547.649c-1.621 2.218-5.887 7.86-5.887 7.86l-14.34-.024Zm20.109 1.031c.168-.011.371.262.602.817.132.32.117.875-.098 1.09-.426.425-1.016-.57-.828-1.364.082-.355.195-.535.324-.543Zm40.328-.601c0 2.023-.047 4.644-.809 6.578l.864.355c-.278-1.984.07-3.613 2.066-4.472-.91-.563-1.605-1.512-2.12-2.461Zm-42.477 1.273a.81.81 0 0 1 .235.043c.324.078.719.25.957.473.41.383.836.84.73.883-.68.273-2.402-.555-2.175-1.204.05-.136.136-.191.253-.195Zm-3.015.086.015.992-1.664-.972Zm38.058.477c.27.023.684.343.622.566-.118.242-.258.223-.446-.031-.23-.32-.324-.516-.176-.535Zm-33.77 1.226c.407-.012.755.07.794.262 0 .183-.309.418-.688.523-.949.266-1.66.094-1.398-.328.16-.281.773-.445 1.293-.457Zm33 1.121c-.401.657-.448 2.75.259 3.602 1.097 1.105 2.11 2.547 1.992 4.465l-1.055.43c.059-1.579-.011-2.602-1.36-3.962-1.605-1.593-1.226-4.351-.675-5.16.477-.8 1.164.332.84.625Zm-46.226-.87c.336-.02.75.163 1.496.612 1.91 1.235 2.946 1.707 4.84 2.93.278.235.262.2.215.387-.726 2.527-2.828 4.531-5.941 4.898-.36.043-.176-.164-.39-.558-.227-.407-.638-.586-1.099-.59-1.285-.012-.183-.668 1.387-.856.52-.074 1.145-.136 1.473-.425.074.03-.274-1.973.082-2.68.18-.637.008-.941-.188-.55-.12.241-.293.886-.382 1.546-.079.559-.207.637-.352.363-.066-.12-.063-.414.04-.644.116-.528-.61-.922-.462-1.403.192-.402-.008-.847-.254-.992-.133-.261-.117-.449-.101-.633.043-.425-.27-.835-.762-1.011-.215-.102-.148-.211.074-.313a.945.945 0 0 1 .324-.082Zm-1.562.718c.125 0 .246.012.363.039.254.14.457.938.176.969-.106.011-.43.05-.684.117-.851.227-1.257.2-1.242-.25.02-.457.719-.863 1.387-.875Zm1.137.082c.336.004.605.363.394.55-.219.2-.64.055-.637-.23 0-.152.079-.32.243-.32Zm.226 1.246a.747.747 0 0 1 .317.063c.312.132.496.62.296.8-.152.137-.585.09-.816-.09-.414-.32-.215-.761.203-.773Zm-1.058.07c.191.004.332.059.37.184.032.105-.023.2.028.352.082.234.246.414.105.507-.656-.035-2.015.715-2.41.68-.328-.039-.363-.316-.082-.762.332-.515 1.407-.972 1.989-.96Zm.394 1.45c.145-.008.168.066.11.254-.04.136-.008.457.093.664.11.222.305.355.203.445-.168.043-.73.144-1.203.305-.61.308-2.324 1.238-1.894-.247.14-.496.77-.84 1.87-1.19.419-.134.68-.224.821-.231Zm.899.02c.265-.02.57.097.703.398.398.722-.743.824-1.106.222-.219-.355.063-.597.403-.62Zm.218 1.679c.594.004 1.051.672.621.926-.316.175-.71.14-1.078.058-.547-.219-.297-.988.457-.984Zm56.73.015c2.255 1.075 5.321 2.067 8.294 2.805l-.102 26.668-20.222.012-5.567-8.813s-.184-.285-.246-.41c-.11-.242-.07-.437.008-.687.183-.598.742-1.778 1.254-2.614 1.347-2.25 3.254-4.718 2.222-6.879-.12-.25 1.067-1.59 1.067-1.59 1.828.137 3.336-.949 2.797-3.515 3.812-1.422 6.957-2.578 10.496-4.977Zm-57.78.13c.05 0-.106.581.218.94.203.286.172.274-.515.52-.254.13-.512.32-.657.438-.98.797-1.949-.246-1.004-1.082a3.686 3.686 0 0 1 1.946-.809c.004-.004.008-.008.012-.008Zm46.601.55c.328.055.754.453.617.672-.46.707-.484 1.09-.523 1.82-.047.82.105.938-.235.797-.222-.094-.64-.258-.734-.465-.215-.48.336-2.91.875-2.824Zm-46.922 2.055c.363-.008.746.101.961.355.18.211.2.39.02.477-.422.203-1.828.097-1.899-.164-.11-.406.387-.66.918-.668Zm21.274.52c1.714.007 3.718.34 5.265.956 2.2.754 4.14 2.684 4.578 3.508.133.25-.14.25-.375.274-2.62.394-3.492 3.336-1.28 4.742.69.394 1.253.351 1.253.351.559-.043-2.492 5.297-3.707 8.625-3.762-.14-6.602.391-10.277-.765-.399-.598-.305-1.918-.016-2.602.266-.62.613-1.097.445-1.812-.293-1.243-1.535-2.86-1.949-3.887-.367-.781-.344-1.074.293-1.523.746-.528.934-.637 1.137-.907.191-.25.11-.304.113-.867.004-.68-.012-.574.602-.672a5.015 5.015 0 0 0 1.113-.37c.8-.388 1.363-.372 1.836-.134.203.051.183-.144.27-.402.038-.11.124-.293.117-.348-.012-.117-.286-.082-.586-.047-1.2.157-2.141.188-2.63.024-.421-.145-.421-.402-.175-.832.219-.383.375-.375.285-1.176-.113-1 .04-1.21.55-1.539.642-.41 1.802-.602 3.138-.598Zm6.199.882h5.578c-.547.805-1.156 2.047-1.504 3.223-.047.094-.11.183-.238.066-.75-.984-1.61-2.035-3.836-3.289Zm-4.621 3.582c-.668.016-1.5.309-2.547.856-.715.37-1.297.605-2.05.476-.434-.074-.49-.015-.544.11-.254.578.688 1.195 1.64.789.278-.106 2.403-1.11 2.52-1.196.13-.093 1.008-.332 1.242-.328.704.008 1.137.512 1.051 1.094-.117.777-1.324.816-1.402.125-.063-.531-.305-.297-.328-.035 0 .222.183.734.386.847 1.02.582 2.364-.55 1.723-1.714-.394-.711-.937-1.043-1.691-1.024Zm-4.578 2.707c-.692.117-1.141.364-1.887.422-.613.121-.57.57-.184.8.293.18.668.071 1.742-.55 1.06-.613 1.965.664 1.122 1.317-.536.41-.168.519.195.273.937-.637.402-2.504-.988-2.262Zm3.277 3.285c-.082-.004-.211.024-.383.094-.793.332-1.402.68-1.781 1.145-.066.101-.027.27-.059.406-.027.101-.117.238-.101.308.015.063.238.13.273.188.137.234.047.836-.031 1.273-.04.207-.379.27-.516.399-.445.414-.332.539.14.379.337-.114.192-.324 1.017-.176 1.066.188 1.91-.078 2.746-.5.933-.473 1.27-.734 1.308-.68.063.094.012.145-.652.645-1.664 1.262-2.899 1.555-3.832 1.082-.281-.172-.504-.242-.293.129.027.039.254.199.41.265.961.395 2.16.059 3.691-1.043.336-.242.633-.511 1.02-.808 1.27-.969.938-1.414-.496-.942-.453.149-.582-.011-1.191-.226-.82-.293-1.09-.32-2.036-.336-.82-.012-.945.059-.941-.066 0-.16.55-.73 1.172-.977.605-.238.777-.543.535-.559Zm1.512 2.391c.152.14-.067.23-.66.488-.336.145-.645.266-.688.266-.05.086-.613-1.067-.457-1.121.063-.024 1.434.082 1.805.367Zm-2.153-.121c.137.262.243.535.297.785.012.078.07.191-.062.188-.106.015-.278.023-.34-.067-.137-.191-.285-.844-.234-.972.101-.126.285-.036.34.066Zm4.88 2.066c-.052 0-.145.035-.29.114-2.36 1.27-5.191 1.933-7.008 1.304-.613-.21-.726-.136-.504.246.157.266.461.579.93.696 1.485.375 3.88-.168 5.723-1.27.746-.45 1.363-1.09 1.148-1.09Zm13.882 3.407s4.168 7.835 4.98 8.203l-33.921-.055 5.715-7.45c.05.415 13.785 2.138 23.226-.698Zm0 0" style="stroke:none;fill-rule:nonzero;fill:#131f67;fill-opacity:1"/><path d="m29.688 123.047 5.476-7.375c8.102 1.402 15.39.66 23.375-.64l5.32 8.179Zm42.957-27.492-.036-4.383 1.672.57c-.578-2.039.887-4.168 2.223-4.25-4.27-2.937-.723-6.074-.797-6.144-4.668-2.196-2.324-5.567-2.648-5.871-5.688-1.344-3.465-5.457-3.895-5.036-3.312.91-5.133-1.62-5.191-3.675-2.864 1.48-7.29-.618-5.903-2.977 0 0 1.52.656 1.785.523 2.34-1.546 2.157.676 2.641 1.16 1.746-.23 2.774.989 3.211 1.579 2.57.004 2.465-.559 2.488 1.715 1.938.449 1.86 1.406 2.985 2.71 2.441.024 2.03.75 1.48 1.985 1.762 1.277 1.903 2.277 2.192 3.441 1.921.637 2.27.895 1.015 2.371 1.695 2.317.88 3.66 1.137 3.79 2.113 1.39 1.055 1.894.133 2.425.32 1.852.578 2.121-.168 4.004 2.43 1.574-.387 2.281-.528 2.25l-.007 1.559ZM13.793 84.133l-.05-5.426 20.605 12.14-2.606 3.727Zm27.371 7.988 4.871-9.297-1.75-10.144 13.957.277c1.57 3.254 2.516 6.02 6.535 11.406l-4.246 1.207.149 6.516Zm11.938-2.445c-.145-.27-.223-.453-.196-.574.051-.153.18-.145.348-.063.594.262 1.187.488 1.625-.008.219-.261.16-.633-.024-.847-.335-.621-1.39-.168-1.742-.149-.328.008-.457-.246-.187-.601a.902.902 0 0 0 .289-.536c.183-1.418-2.473-.914-1.55.465.42.512.175.817-.442.492-.676-.355-1.618-.023-1.586.727.023.563.804.914 1.457.574.152-.082.27-.168.379-.207.304-.12.523-.023.422.29-.274.39-.594.952-.325 1.323.27.54 1.192.489 1.508.153.219-.23.281-.606.024-1.04ZM85.3 61.172l-20.645-12.2.715-1.035c.922-.468 1.305-1.054 1.274-1.87l.558-1.126L85.32 55.543Zm-32.278-4.125 2.114 9.851-14.41.188c-.793-3.309-5.743-10.793-5.73-10.664l3.843-8.613 19.125-.02Zm-5.41-3.668c.367-.305.344-.77-.062-1.293-.387-.508-.215-.875.41-.531.348.21.894.258 1.266.148.472-.144.668-.488.597-.922-.082-.523-.719-.668-1.402-.437-.195.035-.317.183-.484.254-.368.144-.512-.258-.176-.778.37-.578-.016-1.199-.7-1.254-.73-.058-1.167.704-.867 1.118.426.597.117 1.011-.496.613-.883-.574-2.035.152-1.558 1.008.23.414.988.523 1.668.261.57-.218.738.032.394.563-.707 1.094.453 2.05 1.41 1.25Zm-20.91-9.672-.152 5.25c-2.156-1.203-1.836-1.219-1.914-1.2.633 1.579-.106 3.528-1.938 4.485 3.297 2.82 1.516 4.805.977 6.14 4.21 2.231 2.074 6.083 2.09 5.884 4.152.023 4.066 3.332 4.187 4.714 5.133-.296 4.445 3.446 5.121 3.766 2.489-1.016 5.395-.668 6.168 2.383.5 1.73-1.332.062-2.129.137-2.836 1.609-2.293-.848-2.453-1.192-2.347.203-2.664-.816-3.695-1.543-2.535.446-2.328-.316-2.18-1.722-1.988-.368-2.422-1.5-3.215-2.61-2.75.082-1.629-1.687-1.617-2.035-.336-.273-1.914-1.691-1.992-3.312-2.82-.727-1.05-2.028-.95-2.473-1.066-1.211-1.347-2.106-.988-3.633-2.507-1.07-.414-2.07-.234-2.676-.82-1.992-.223-2.586.098-3.664-1.61-1.722-.649-1.629.531-2.672.152-.191-.262-1.054-.238-1.566ZM41.18 24.254l-4.52-7.375h32.274s-3.512 4.437-4.875 6.668c-8.047-1.156-15.579-.606-22.88.707Zm0 0" style="stroke:none;fill-rule:nonzero;fill:#d40000;fill-opacity:1"/><path d="M18.652 118.258c-2.828-.586-3.308-3.832-.652-6.531.215-.215.36-.555.36-.555s-.473-.707-1.712-2.274c-.23-.293-.566-.757-.566-.757.676-.895 1.39-1.633 2.152-2.602.102-.133.29-.277.262-.398-.035-.172-.312-.344-.64-.786-1.919-2.578-2.13-3.597-1.157-5.128.914-1.438 3.098-1.606 4.43-.336 1.437 1.37 1.367 2.617-.496 5.152-.41.559-.707 1.059-.707 1.059s-.016.18.66.972a39.164 39.164 0 0 1 1.625 2.051s-.426.496-.832.93c-1.082 1.16-1.567 1.957-1.567 1.957s.07.234.235.398c2.965 3.067 2.73 6.586-.621 6.883a4.682 4.682 0 0 1-.774-.035Zm23.856-39.11c-.078-.113-10.672 15.52-10.672 15.52l1.21.71L43.18 80.923c.152.105.304.234.273.41 0 0-8.348 12.406-9.738 14.387-.04.054 2.066 1.191 2.14 1.195 3.102-1.394 16.051-.187 24.649-.668.035.024-.133 2.754-.133 2.754s-1.96-2.066-2.355-2.078c-1.953-.063-4.012.695-5.485.61-.937.261-2.011 3.39-2.222 4.171-1.711-.18-3.368 1.453-2.97 2.973.56 1.691 1.52 1.562 2.56 1.59-.098 1.914-3.801 6.953-3.817 9.437 3.918-.281 8.156-.348 12.195-1.457 0 0 1.516-3.98 3.43-6.601.633-1.004.934-2.512.68-3.461-.164-1.04.328-1.301.765-2.028.27-.457 1.258-.437 1.383-.469 2.57-.68 1.653-3.71.559-4.25-1.364-.671-3.293.372-4.035-.992-.782-1.441-.528-4.425-.528-4.425l-19.398.082s5.48-9.497 5.34-9.567c-1.5-.75-3.946-3.36-3.965-3.387Zm-12.973 8.649c.09-.961.258-16.57-15.918-24.332l.086-2.05c.102-.106 14.715 6.015 17.223 21.913l4.508-6.445 1.66.594c-2.453 3.359-7.328 11.511-7.559 10.32Zm-9.824-5.625c.668-1.8-.426-.848-1.422-.918-.68-.34-1.352-.777-1.984-1.156 4.726-2.285 1.914-2.172-.84-.57-.715-.352-1.617-1.126-1.672-1.06 5.332-3.128 3.332-3.19-.082-.929.117-2.121.035-1.324.082-2.039 2.906-2.844.2-1.297 0-1.266-.719-2.836 2.707-2.242 3.023-.097.602.41 1.786.914 2.137 2.675 1.645.954 1.473 1.747 1.395 2.891.644.578 2.304 1.8.367 2.934ZM13.578 69.23l.11-1.57c.222-.64 12.695 7.477 11.796 17.903.149-.075-1.382-.727-1.82-1.086.008-7.672-9.894-15.63-10.086-15.247Zm71.54 8.801c-8.321-3.476-16.223-11.812-16.641-22.656l-4.7 7.18-1.668-.645c.157.117 3.715-5.91 7.383-10.078 1.035 13.68 6.918 20.043 15.828 24.664Zm-43.587-5c-8.062-.914-19.722-10.926-16.238-24.5.492-1.379 8.27 6.258 8.273 6.258.047-.348 6.996 9.86 6.801 11.856 5.863 1.523 17.309.078 17.309.078 9.515 1.937 19.469 11.3 15.875 24.609 0 0-2.528-1.516-4.645-3.277-6.422-5.664-8.46-10.317-10.734-15.45-8.227-.675-15.934.668-16.64.426Zm43.664-11.304c.14.675.051 2.074.078 2.074-2.144 2.129-2.367 2.168.32 1.48-.331 2.043-1.988 2.38-2.968 1.684-.363-.258-.367-1.664-.367-1.664-1.63-.371-2.188-.817-1.957-2.418-1.88-.203-1.805-1.035-1.649-2.774-1.71-.879-1.285-2.273-.273-2.87l.844.53c-.27.223-.137 1.61 1.359.579 0 0 1.2.906 1.773 1.257-4.332 2.543-1.707 1.98.965.313.5.312 1.184.82 1.54 1.043-3.516 2.297-4.669 4.223.335.766Zm.211 8.64-.144 1.832c-8.555-4.773-10.871-11.07-11.508-17.777 0 0 1.148.773 1.676 1.094.761 8.648 9.449 14.488 9.976 14.851ZM38.531 47.668l20.52.117-5.442 9.492 2.871 3.094s7.13-10.129 10.711-15.434l-1.238-.68-10.23 14.665-.407-.41 10.086-14.653c-.605-.359-1.75-.941-1.75-.941s-17.472.258-25.07.23c.246-.957.3-2.652.3-2.652 1.122 1.469 2.321 2.777 4.93 1.336 0 0 3.09.094 3.204-.039.379-.559 1.047-2.309 1.828-4.29 2.98-.183 2.683-1.495 3.023-1.925-.23-3.863-2.605-1.785-2.398-3.187.668-2.5 4.101-8.164 3.668-8.66-.887-.536-9.66 1.039-12.215 1.328-.238-.086-1.484 3.632-2.8 5.222-1.43 1.727-1.938 3.582-1.208 5.328-.758 1.922-2.21 1.727-3.375 2.27-1.32 1.309-.957 3.305.305 4.078.875.54 2.222.512 3.593-.504Zm40.774-13.426-2.403-2.941 2.328-3.094c-.918-1.328-2.433-3.36-2.16-4.969.59-3.195 5.317-2.726 5.73.328.223 1.418-.91 3.16-2.062 4.641.758 1.262 1.086 1.469 2.192 2.918-.657 1.055-2.254 3.125-2.254 3.125.996 1.527 2.383 3.215 2.281 4.77-.105 1.335-1.703 2.69-3.191 2.406-4.633-.883-2.047-5.403-.461-7.184Zm0 0" style="stroke:none;fill-rule:nonzero;fill:#e2cf00;fill-opacity:1"/><path d="M35.895 16.54c1.273 2.179 4.886 8.062 4.886 8.062 8.594-1.625 15.82-2.04 23.414-.524l5.426-7.5Zm1.12.444h1.555l3.047 5.72 5.258-.958-.895-4.75 1.489.008.75 4.566 7.726-.18 1-4.406 1.426.016-1.023 4.48 6.117.75 2.996-5.246h2.055l-4.551 6.477c-8.098-1.438-16.14-.953-22.871.559Zm2.93 0h4.535l1.09 3.86c-.558.265-2.636.718-3.332.656-.832-1.328-1.691-3.25-2.293-4.516Zm8.75 0h6.903l-.59 3.286-5.79.168Zm10.942 0h5.32l-2.102 3.993-4.011-.5ZM79.89 20.98a4.294 4.294 0 0 0-.864.07c-1.379.266-2.101 1.231-2.113 2.813-.008.723.578 2 1.469 3.211.433.59.722 1.133.722 1.133l-2.316 3.102 2.465 2.933s-.387.41-.613.707c-1.13 1.457-1.653 2.817-1.579 3.934.079 1.207.848 2.129 2.293 2.57.793.242 1.926-.055 2.688-.683a2.469 2.469 0 0 0 .934-1.938c.02-1.105-.567-2.445-1.735-3.906-.316-.399-.472-.711-.472-.711s1.632-2.121 2.25-3.09l-2.23-2.926c1.772-2.43 2.132-2.969 2.179-4.465-.078-1.48-1.258-2.746-3.078-2.754Zm-.223.176c.078 0 .152 0 .23.008 2.028.14 3.098 1.516 2.829 3.277-.274 1.684-1.938 3.25-2.204 3.79.797 1.187 2.305 2.87 2.305 2.87-.64 1.06-2.289 3.114-2.289 3.114s.094.172.2.305c1.722 2.23 2.198 3.28 2.077 4.617-.093 1.054-1.004 1.996-2.14 2.183-1.801.305-3.281-.863-3.461-2.437-.113-1.38.863-2.719 1.62-3.762.321-.437.595-.86.595-.86l-2.453-2.937s.175-.25.289-.402c.433-.57.988-1.277 1.273-1.617.52-.614.824-1.035.824-1.035l-.703-1.028c-1.347-1.937-1.722-2.93-1.515-4 .253-1.32 1.375-2.066 2.523-2.086Zm.184.996c-.75.016-1.465.52-1.75 1.25-.41 1.364 1.164 3.43 1.882 3.989 1.344-1.41 2.2-2.993 1.704-4.098-.329-.672-1.09-1.16-1.836-1.14Zm.183.442c1.36.027 1.867 1.496.817 3.168-.36.57-.891 1.164-.891 1.164s-.5-.563-.797-.992c-1.215-1.73-.902-3.082.59-3.325.098-.011.191-.015.281-.015Zm-27.008.765c-3.554.016-8.3.555-12.472 1.418-.364 2.043-1.489 4.09-2.711 5.715-1.184 1.758-1.61 3.29-1.215 4.336.371.98-.637 2.45-1.746 2.54-1.375.116-2.254.987-2.235 2.234-.039 1.996 1.47 3.218 3.52 2.539a.472.472 0 0 1 .344.101L36.39 53.66c-1.153.164-1.922.39-2.903.867l-.414-.406a140.41 140.41 0 0 1-.64-.633 2.876 2.876 0 0 0-.504-.394 1.663 1.663 0 0 1-.453-.422c-.243-.352-1.27-1.25-1.829-1.602a6.76 6.76 0 0 1-.535-.414l-.367-.304.004-3.793c0-2.082-.023-3.813-.055-3.84-.03-.028-.496.156-1.043.406-1.867.742-3.648 1.773-5.02 2.605-.605.372-.667.579-.44 1.516.128.524.097.582-.376.688-.98.218-1.285 1.636-.457 2.12.387.227.387.239.137.75-.387.798-.371 2.317.027 2.95.23.363.215.48-.085.66-1.043.617-.973 1.941.117 2.188.277.062.351.171.258.39-.34.801-.032 2.016.75 2.938.406.48.406.476.136.695-.875.723-.402 2.016.793 2.16.41.047.41.047.457.336.14.82.2 1.05.399 1.434.254.488.554.816 1.12 1.218.462.325.462.332.216.813-.457.894.27 1.781 1.421 1.746.59-.02.59-.02.633.172.207.93 1.422 2.027 2.418 2.176.516.078.594.191.422.586-.281.636-.098 1.05.61 1.382.472.22.613.227 1.132.067.59-.184.594-.184 1.094.426.707.863 1.172 1.078 2.348 1.086.777.003.804.023.808.52.012 1.179 1.383 1.671 2.266.816.316-.313.316-.31.598-.122 1.242.829 2.343 1.043 2.238.27-.238-1.816-1.68-2.922-1.68-2.922l1.801.426c.078 1.918.152 4.226.59 5.824l-8.016 11.648s-.488-.269-1-.593a67.532 67.532 0 0 0-2.242-1.352c-.29-.168-.66-.37-.953-.594-.277-.21.172-.492.27-.714 1.847-3.008 4.734-6.621 6.84-10.133l-2.036-.719c-1.559 2.234-2.707 4.035-4.156 6.098-1.445-9.664-8.84-18.149-17.79-21.72l.032 2.528c9.395 4.383 16.098 13.426 15.918 24.09-.035.043-.785-.367-1.797-.984-.535-.324-1.61-.965-1.746-1.028.438-11.812-12.41-18.796-12.43-18.464l-.12 2.234c5.476 3.344 9.777 9.43 10.21 14.844.004.043-2.57-1.465-2.57-1.465 1.535-.695 1.113-2.496.008-2.985-.344-.14-.364-.21-.192-.636.352-.871-.297-2.184-1.187-2.406-.39-.098-.457-.192-.473-.692-.035-.914-.59-1.512-1.594-1.71-.273-.06-.277-.06-.293-.376-.082-1.773-1.984-2.496-3.41-1.297-.16.137-.328.39-.328.39l-.008 1.923c.485-.242 1.227-1.078 1.528-1.047.336.039.172.242-.582.836-.489.387-.961.793-.961.793l.03 2.531c.81-.48 1.626-1.023 2.388-1.508.652-.418.988-.554 1.07-.433.09.136-.055.312-.43.515-1 .61-2.16 1.32-3.004 1.922v1.742l.16.22.047 1.526-.148.032v1.925l19.758 11.508 10.054-14.46.165.152L33.34 95.582s.414.324.805.512c.398.203.898.472 1.324.734.199.3.554.563.93.527.347-.343 1.859-.71 2.003-.867 5.625-.078 21.77.024 21.77.024l.094 2.355c-.727-2.285-3.067-2.754-4.907-1.734l-3.023.004c-.023 0-1.79 2.933-2.047 4.465-1.27-.157-2.96.972-3.047 2.117-.203 1.629.969 2.82 2.504 2.586.027.011-.238 1.617-1.11 2.87-1.152 2.212-1.745 3.45-2.449 5.337-.476 1.187-.312 1.398-.234 1.43 4.512-.063 8.656-.458 12.938-1.72 0 0-.082-.277-.121-.433-.153-.633.43-1.926 2.074-4.594 1.273-2.062 1.636-2.851 1.761-3.824.067-.492.055-.621-.132-1.539-.012-.086-.086-.21-.067-.3.133-.622 1.168-1.708 1.192-1.68 0 0 .375-.067.523-.079 2.332-.148 3.05-3.035 1.086-4.34-.957-.535-1.523-.574-2.539-.331l-.02-11.204 1.418.047 1.559-.699c2.5 1.945 4.133 3.938 6.828 5.438l-.047.101-2-1.254.004 7.34c2.317-1.098 4.477-2.113 6.559-3.652l-.418-.328.015-1.051c1.957.14 2.149-2.133.54-2.403 0 0 .035-.183.19-.472.493-.922.556-1.793.196-2.754-.219-.586-.21-.734.051-.73 1.187.003 1.078-1.918-.133-2.34-.418-.145-.387-.028-.305-1.22.067-.898-.175-1.503-.902-2.292-.273-.297-.25-.438.102-.637 1.015-.562.28-2.195-.965-2.148-.488.02-.488.02-.531-.426-.11-1.168-.825-2.281-1.762-2.75-.293-.145-.336-.262-.172-.461.8-.977.05-2.305-1.074-1.918-.219.074-.45.152-.512.168-.09.027-.16-.086-.332-.527-.469-1.203-.883-1.578-2.375-2.153-.293-.113-.312-.191-.18-.738.23-.95-1.199-1.828-1.972-1.219-.317.25-.325.25-.68-.164-.703-.742-1.852-1.258-2.875-1.355-.488-.04-.559-.074-.52-.246.27-1.16-.968-1.914-1.996-1.22-.492.337-.62.349-1.129.087-1.066-.543-1.535-.567-1.644-.07-.035.41.066.894.172 1.195.262.816.597 1.117 1.332 1.691 0 0-1.219-.308-1.528-.363.032-.031-.09-3.867-.89-6.04l7.808-11.331 4.473 2.687-7.152 10.32 2.082.77s2.781-4.21 4.234-6.277c.953 10.258 9.649 19.25 17.524 21.918-.024.016.027-1.473.058-2.192-8.308-3.335-16.21-12.66-15.715-23.851l3.336 1.95c.97 8.968 5.254 14.222 12.395 18.667v-2.75c-4.918-3.316-9.004-7.652-10.086-14.59 0 0 1.668.961 2.414 1.418 0 0-.211.11-.32.192-.891.675-.625 2.066.55 2.851.192.13.196.13.016.567-.36.867.191 1.918 1.121 2.136.535.125.531.121.54.676.019 1.082.495 1.578 1.76 1.836.177.035.18.055.18.54-.007 1.19 1.25 1.995 2.348 1.495.34-.156 1.422-.98 1.422-.98v-1.922s-.488.363-.844.664c-.617.527-.812.59-.812.27.004-.231.289-.536.883-.942.304-.207.773-.652.773-.652v-2.242s-.277-.399-.262-.876c.012-.261.09-.656.09-.656l.297.008-.004-2.594-.36-.254.016-1.718-19.535-11.528-10.175 14.758-.254-.273L65.66 43.766l-2.707-1.578-1.633.734s-11.308-.16-22.336-.031c0 0-.027-.278-.023-1.063.008-.984.059-1.125.258-.707.445.93 1.55 1.492 2.836 1.438.726-.028.828-.055 1.636-.454.297-.148.352-.152 1.766-.14 1.52.008 1.79-.043 1.793-.336.527-1.094 1.047-2.363 1.348-3.32.144-.465.21-.668.328-.762.094-.074.164-.059.386-.07.97-.055 1.239-.114 1.938-.735 1.402-1.285.598-3.894-1.43-3.906-.539 0-.172-1.305.965-3.422 1.176-2.187 1.34-2.523 1.945-3.992.399-.957.59-1.645.637-2.063a4.93 4.93 0 0 0-.34 0Zm-.109.633c.281.215-.422 1.793-1.684 4.188-1.047 1.972-1.511 2.96-1.734 3.675-.066.207-.156.504-.207.66-.066.223-.156.333-.398.489-.168.11-.407.273-.528.363-.34.25-.422.172-.34-.332.157-.937.563-1.945 1.504-3.703.742-1.395 1.469-2.895 2.035-4.422.13-.355.188-.719.399-.851.305-.157.629-.125.953-.067Zm-1.523.09c.195.121-.723 2.285-2.313 5.293-1.984 3.75-2.09 6.379-.305 7.02 1.407.507 2.825-.907 1.957-1.938-.418-.496-1.32-.535-1.632-.023-.168.28.066.605.367.21.441-.574 1.32.09 1.105.766-.144.465-.855.84-1.3.758-1.95-.355-1.583-2.863.44-3 1.934-.133 2.813 2.238 1.411 3.594-.445.437-.969.656-1.875.656-1.262 0-2.438-.95-2.316-1.828.164-.805.191-1.457-.11-2.09-.094-.203-.21-.406-.207-.664.02-.711.664-1.82 2.098-4.55.515-.981 1.148-2.68 1.457-3.75.113-.317.058-.403.187-.446.32-.067.778-.152 1.036-.008Zm-1.66.04c.296.01-.383 1.98-1.235 3.663-.652 1.285-1.535 2.938-2.195 4.465-.211.324-.352.352-.782.14-.476-.23-.336-.6.786-2.636.847-1.547 1.66-3.297 2.23-5.059.05-.21.129-.394.324-.496.293-.113.578-.09.871-.078Zm-1.579.218c.157.191-.87 2.851-2.46 5.848-.34.636-.571 1.218-.915 1.87-.164.149-.797.227-1.113.286-.328-.04-.016-.598.914-2.317.758-1.398.973-1.797 1.371-2.644.293-.625.715-1.695 1.11-2.695.035-.083.062-.262.148-.301.297-.114.656-.16.945-.047Zm-1.554.168c.027.062-.032.195-.051.297-.254 1.07-.824 2.066-1.242 3.09-.051.14-.508 1.011-1.02 1.933-.508.926-.977 1.809-1.039 1.965-.063.152-.23.566-.375.914-.918 1.793.066 3.203 1.281 3.3 1.89.145 2.07-2.273.735-2.507-.504-.074-1.055.176-1.059.703-.035.277.336.598.332.2-.02-.72 1.082-.684 1.219-.075.265 1.192-1.219 1.777-2.106.84-.367-.387-.363-.824-.293-1.219.184-1.07 1.532-1.84 2.782-1.035 1.71 1.102 1.12 3.54-1.09 3.938-.754.18-1.707-.051-2.305-.61-.379-.355-.629-.883-.723-1.531a4.178 4.178 0 0 1-.015-1.191c.18-1.25 1.18-3.079 2.058-4.625.68-1.286 1.211-2.98 1.829-4.344.175-.117 1.109-.227 1.082-.043Zm-1.668.172c.101.027-.414 1.511-1.153 3.113-.812 1.625-1.863 3.484-2.46 5.082-.188.39-.325.379-.86-.074-.281-.239-.121-.598.867-2.438 1.52-2.832 2.086-4.043 2.313-4.715.109-.32.195-.707.422-.832.292-.125.582-.218.87-.136Zm-1.52.355c-.16.477-.687 1.89-1.59 3.563-.566 1.058-1.12 2.23-1.68 3.32-.308.672-.32.672-.851.773-.895.172-.895.164-.105-1.304.238-.434.687-1.235 1.007-1.774.59-.996 1.5-2.937 1.828-3.906.09-.258.211-.5.356-.633.09-.047.797-.238 1.035-.039Zm-1.96.176c.16-.004.304.023.37.102.043.332-.945 2.46-1.55 3.449-.184.3-.368.691-.575 1.043-.773 1.117-1.699 3.27-1.941 4.164-.38 1.418 1.398 2.488 2.32 1.457.586-.621-.023-1.746-.867-1.434-.293.11-.172.23.23.262.664.05.715.984.012 1.187-.785.22-1.36-.398-1.355-1.03.004-1.302 1.562-1.778 2.539-1.067.972.738 1.125 2.496-.348 3.176-1.437.664-3.207-.239-3.562-1.81-.27-1.202.023-2.3 1.293-4.151.726-1.067 1.859-2.907 2.437-4.52.113-.273.215-.5.316-.617.098-.102.414-.2.68-.211Zm38.519 3.781-1.93 2.238c.555.735 1.879 2.176 1.879 2.176l1.828-2.156Zm.015 1.25.801.945-.914.985-.86-.918Zm.075 4.867s-2.333 2.332-1.797 4.059c.476 1.543 3.02 1.918 3.636-.336.047-.18.012-.426-.015-.727-.055-.917-1.825-2.996-1.825-2.996Zm0 .461s.667.883 1.14 1.668c.527.746.668 2.832-1.21 2.77-1.016.094-1.99-1.13-1.177-2.625.22-.453 1.246-1.813 1.246-1.813Zm-38.508.375c.129-.02.258.235.34.422.113.25-.208.977-.54 1.34-.066.063-.496.094-1.132.39 0-.273.183-.867.3-1.132.434-.39.805-.856.977-.996a.077.077 0 0 1 .055-.024Zm-4.649.13c.285.296.567.554.555.737-.016.266-.363.598-.625.833-.328.296-.98.12-.98-.262 0-.145.937-1.309 1.05-1.309Zm9.875.386c.274.133.555.594.594.805-.406 1.992-1.91 4.43-1.86 4.34 0 0-.921.148-1.312-.036 1.012-1.277 1.692-2.91 2.149-4.242.199-.578.289-.867.43-.867Zm-.855.277c.156-.008.215.106.086.414-.594 2.207-1.934 4.524-2.985 4.946-1.379.554-2.75.093-3.34-.852-.636-1.027-.523-2.644 1.602-3 1.25-.117 2.531.781 1.863 2.23-.742 1.07-2.738.473-2.152-.91.441-.507 1.367-.066 1.066.508-.156.29-.007.469.22.266.73-.645-.47-1.754-1.274-1.2-1.32.907.308 2.895 1.84 2.04.468-.258 1.312-1.72 1.628-2.782.137-.457.262-.894.586-1.171.305-.266.66-.477.86-.489Zm-3.492.09c.078 0 .164.035.285.09.156.07.336.195.312.355-.023.188-.14.598-.375.797-.144-.047-.539-.191-.808-.254-.168-.043.058-.375.16-.558.168-.293.258-.418.394-.43h.032Zm-4.344.074c.2-.004.512.196.719.223.043.273-.34.86-.961 1.55-.512.571-.508.571-.848-.054-.219-.406-.227-.394.402-1.11.34-.382.5-.558.649-.605.011-.004.027-.004.039-.004Zm1.972.2c.012.148-.07.468-.14.656-.703 1.922-2.352 3.824-3.711 4.293-1.773.527-3.398-.324-3.441-2.29.046-2.312 3.066-2.952 3.98-.843.41.953-.71 2.387-1.684 2.145-.976-.239-1.386-1.633-.578-1.977.528-.227 1.075.152.961.664-.039.176-.027.2.086.18.504-.086.238-1.008-.36-1.235-1.12-.437-1.972.942-1.21 1.973.906 1.23 2.332.996 3.156-.523.14-.258.406-.63.59-.825.496-.523.656-.73 1.094-1.425.242-.383.375-.625.496-.75.199-.012.332.035.761-.043Zm3.981.101c.21 0 .375.129.371.399-.004.222-.355 1.171-.523 1.398-.063.09-.211.395-.23.328-.208-.633-.579-.828-.634-.992-.058-.195.125-.383.211-.559.176-.37.532-.574.805-.574Zm3.75.3c.258-.003.621.106.695.278.235.38-1.351 3.875-1.41 3.887l-1.187-.047c.714-1.394 1.343-2.777 1.8-4.11a.825.825 0 0 1 .102-.007Zm15.906 5.536 1.508.82-9.937 14.399-1.446-1.008Zm-24.793.297c9.282.035 22.067.02 22.067.02l-.54.933s-13.964-.125-21.527-.113Zm-12.531.59-.02 4.734s-.07-.027-.957-.566c-1.062-.645-2.226-1.309-2.601-1.48-.555-.259-.48-.384.582-1 1.043-.575 2.996-1.688 2.996-1.688Zm39.746.472.934.536-10.446 15.16-.578-1.043Zm-27.215.211h1.457v1.496h-1.457Zm3.332 0H44v1.496h-1.762Zm3.856.016h1.812v1.496h-1.812Zm3.781.004h1.836v1.5h-1.836Zm3.813.012h1.808v1.496h-1.809Zm3.812.03h1.852v1.056l-.282.441H57.5Zm9.98.49 17.711 10.448-.011 1.442-18.438-10.867Zm-1.164 1.222.153.097-.75 1.047-.153-.078Zm-27.359.152H58.84l-.598.918-19.285-.023Zm-16.32.469c.133-.008.394.101.8.309.977.5 1.594 1.554 1.172 1.933-.379.34-1.257-.387-1.8-1.422-.293-.55-.368-.808-.172-.82Zm35.175.906-6.414 9.348c-1.449-1.813-3.074-3.38-6.62-2.317-1.852-1.304-3.81-1.507-5.891-.398l.023-6.602Zm-33.015.004.5.395c-.149.257-.215.629-.309.96-.008-.456-.05-.91-.191-1.355Zm40.66.098 19.762 11.855v1.098L64.766 48.949Zm-43.281.27a.903.903 0 0 1 .695.3c.297.328.176.926-.246 1.184-.836.511-1.836-.477-1.172-1.16.207-.211.469-.32.723-.325Zm3.273.14 1.078.785c-1.875 9.742 3.477 19.578 15.004 22.523l.13 1.247c.023.062-4.895-1.332-7.044-2.797a21.02 21.02 0 0 1-7.129-7.328c-1.168-1.914-1.808-4.024-2.222-5.727-.489-2.922-.477-5.813.183-8.703Zm-1.226 1.32c.414.016.457.285.125.809-.426.672-1.067 1.14-2.106 1.539-.57.219-.719.117-.652-.438.098-.836.734-1.449 1.84-1.77.265-.07.535-.14.793-.14Zm3.175.106.43.332c-.355.11-.61.414-.61.773 0 .453.403.824.903.824.445 0 .813-.297.883-.683.164.125.312.242.433.336-.21.476-.718.816-1.316.816-.785 0-1.418-.578-1.418-1.293 0-.473.281-.883.695-1.105Zm.723.644c.047 0 .094.008.14.024.114.086.204.156.313.242.031.058.051.125.051.195 0 .254-.227.461-.504.461-.281 0-.508-.207-.508-.46 0-.255.227-.462.508-.462Zm-3.402.301c-.117 1.254-.082 2.566-.035 3.883-.266-1.043-.86-1.82-1.848-2.356.68-.43 1.394-.953 1.883-1.527Zm5.195.984.957.758c-.824 10.309 9.086 14.223 9.352 14.05l.418 1.169c-6.844-2.125-11.575-8.574-10.727-15.977ZM85.11 76.5l-.05 1.297c-7.766-2.746-16.614-12.883-16.5-22.598-1.996 2.79-3.118 4.649-4.829 7.16l-1.359-.593c2.238-3.043 4.367-6.297 6.617-9.29.254-.335.465-.492.477.247-.004 3.343 1.133 17.09 15.644 23.777ZM21.973 52.582c.25-.012.609.098 1.058.371.711.434 1.508 1.777 1.23 2.074-.245.27-1.3-.05-1.823-.554-1.036-1-1.102-1.852-.465-1.891Zm6.054.137c.782 0 1.418.574 1.418 1.289 0 .71-.636 1.293-1.418 1.293-.78 0-1.414-.582-1.414-1.293 0-.715.633-1.29 1.414-1.29Zm3.172.12.922.99c.184 8.655 7.672 11.323 7.602 11.343l.226.933c-.418.051-9.265-3.62-8.75-13.265Zm-3.172.349c-.496 0-.898.367-.898.82 0 .453.402.82.898.82.5 0 .903-.367.903-.82 0-.453-.403-.82-.903-.82Zm0 .359c.282 0 .504.207.504.46 0 .255-.222.462-.504.462-.277 0-.504-.207-.504-.461s.227-.461.504-.461Zm4.785.785c.118 0 .649.707.649.707s-.586.188-.84-.047c-.25-.23-.113-.664.191-.66Zm41.02.316 1.387.868c.648 5.84 4.316 11.164 9.847 14.859l-.035 1.445c-6.738-4.148-10.476-9.789-11.199-17.172Zm-52.008.102h.07c.848.012 1.208 1.203.297 1.543-.57.215-1.191-.094-1.25-.625-.043-.371.262-.773.672-.883a1.08 1.08 0 0 1 .211-.035Zm11.586.777c.223.004.461.118.692.356.609.625.605.808-.04 1.047-.902.332-1.652-.133-1.351-.84.156-.371.41-.563.7-.563Zm-9.25.032c.074 0 .14.007.203.03.668.235-.777 2.65-1.73 2.891-.606.157-.735-.058-.535-.906.218-.941 1.351-2 2.062-2.015Zm4.246.054c.782 0 1.418.578 1.418 1.29 0 .714-.637 1.292-1.418 1.292-.781 0-1.414-.578-1.414-1.293 0-.71.633-1.289 1.414-1.289Zm0 .469c-.496 0-.898.367-.898.82 0 .457.402.825.898.825s.903-.368.903-.825c0-.453-.407-.82-.903-.82Zm-3.539.07c.125 1.196.34 2.301.922 3.77-.547-.797-1.324-1.192-2.07-1.64.523-.712 1.129-1.419 1.148-2.13Zm3.54.293c.277 0 .503.203.503.457s-.226.461-.504.461c-.277 0-.504-.207-.504-.46 0-.255.227-.458.504-.458Zm8.015.14c1.476-.03 2.52 1.08 2.457 2.142.043 1.234.09 2.023-.02 3.558l-1.199-2.004c-.02-.566.09-.996.04-1.558-.134-1.52-1.766-1.309-1.845-1.157l-.515-.765c.379-.14.742-.211 1.082-.215Zm5.203.153c1.383-.004 2.184.707 2.227 1.973.082 2.422-.063 7.95-.063 7.95l-2.992.003-1.633-3.695s-.066-.356-.055-.614c.106-1.183.04-2.503.082-3.574.176-1.133 1.196-2.043 2.434-2.043Zm-6.93.383a.709.709 0 0 1 .508.176c.695.64.692 1.058-.012 1.348-.933.382-1.414.312-1.734-.258-.309-.555.55-1.258 1.238-1.266Zm43.645.172.758.45s-.16.226-.246.362c-.43.676.3 1.07 1.316.715.184-.066.34-.16.34-.16l.625.39s-.45.223-.942.442c-1.27.567-2.18.324-2.484-.652-.121-.387 0-.875.238-1.156.121-.149.395-.391.395-.391Zm-32.113.082c1.16-.035 2.285.79 2.554 1.898.11.52-.031 7.391-.031 7.391l-4.598-.004.078-7.203c-.027-.457 0-.91.27-1.23.504-.575 1.121-.832 1.727-.852Zm-4.774.316c-.93.04-1.457 1.41-.5 2.059.399.27.406.32.195 1.234-.246 1.04.008 2.47.579 3.27.437.664.347.324.12-.266-.285-1.113-.144-1.93.56-3.222.628-1.086 1.238-2.762-.762-3.063-.067-.008-.13-.016-.192-.012Zm38.152.313.415.258s-.063.047-.153.125c-.164.148-.496.172-.597.058-.168-.187.335-.441.335-.441Zm-33.117.531c-1-.027-1.656 1.66-.379 2.067.29.171.34.394.16.71-.242.426-.484 1.434-.449 1.852.055.606.227 1.395.36 1.668.336.754.265.453.18-.418-.036-.977.183-1.676.804-2.61.734-1.113 1.754-2.929-.578-3.261-.031-.004-.066-.004-.098-.008Zm-17.172.008c.786 0 1.418.578 1.418 1.289 0 .715-.632 1.293-1.418 1.293-.78 0-1.414-.578-1.414-1.293 0-.71.633-1.289 1.414-1.289Zm6.567.129c.242 0 .426.148.648.45.614.831.543 1.003-.636 1.593-1.25.625-2.083-.95-.891-1.68.363-.219.617-.34.828-.36l.05-.003Zm-12.965.062c1.32.012 3.379 1.727 2.375 1.977a1.82 1.82 0 0 1-.402.055c-1.657-.09-3.551-2.047-1.973-2.032Zm6.398.278c-.496 0-.898.367-.898.82 0 .453.402.82.898.82.5 0 .903-.367.903-.82 0-.453-.403-.82-.903-.82Zm52.172.242.657.406s-.403.168-.875.399c-1.286.625-1.657 1.086-1.211 1.492.156.148.343.21.683.094.887-.313 1.719-.872 2.551-1.31l.492.31c-.012-.02-1.965 1.265-3.031 1.808-1.672.785-2.629-.82-1.7-1.89.72-.649 1.489-.864 2.434-1.31Zm-52.172.117c.282 0 .508.207.508.461s-.226.461-.508.461c-.277 0-.503-.207-.503-.461s.226-.46.503-.46Zm53.2.43.359.222s-.04.016-1.137.59c-1.191.625-1.246.637-1.312.54-.059-.032.023-.286.39-.512.641-.395 1.778-.871 1.7-.84Zm-31.051.035c.812-.016 1.64.336 2.113 1.09.242.57.262 1.101.258 1.703l-.02 4.035h-4.629s-.214-2.75 0-5.039c.211-1.148 1.231-1.773 2.278-1.79Zm-14.38.594c.294-.02.509.246.79.816.277.563.07.883-.8 1.227a.906.906 0 0 1-.278.07c-.879-.078-1.238-1-.61-1.563.395-.347.668-.535.899-.55Zm47.052.414.402.23s-.203.168-1.7 1.164c-1.206.801-1.382 1.02-1.128 1.469.203.367.644.316 1.254-.11.847-.593 2.18-1.597 2.18-1.597l.043.688c-.876.64-1.934 1.738-2.778 2.152-1.625.73-2.789-1.274-1.305-2.262 1.282-.848 3.032-1.734 3.032-1.734Zm-32.496.004c-1.211-.012-1.66 1.629-.36 1.972.375.184.344.278.094 1.094-.152.496-.2 1.106-.117 1.492.097.492.215.48.168-.047 0-.293.328-1.062.652-1.55 1.207-1.532.89-2.95-.437-2.961Zm-28.196.02c.797.003 1.242 1.019.551 1.452-.488.313-1.516-.066-1.512-.554 0-.418.36-.817.797-.887.055-.008.11-.012.164-.012Zm2.297.085c.25-.004.395.332.395.996-.004.957-.375 1.785-1.016 2.274-.926.699-1.133-1.215-.266-2.48.36-.528.665-.79.887-.79Zm59.246.25c.227-.004.192.156-.074.324-.203.13-.55.391-1.629 1.22a8.74 8.74 0 0 1-.625.437c-.36.218-.664.16-.488-.09.172-.25 2.61-1.887 2.816-1.89Zm-54.258.043c.786 0 1.418.578 1.418 1.29 0 .714-.632 1.292-1.418 1.292-.78 0-1.414-.578-1.414-1.293 0-.71.633-1.289 1.414-1.289Zm0 .469c-.496 0-.898.367-.898.82 0 .453.402.824.898.824.5 0 .903-.37.903-.824 0-.453-.403-.82-.903-.82Zm-16.933.023c9.578 4.418 15.547 12.68 17.023 22.09l4.653-6.73 1.257.433-6.78 10.078-.294-.082c-.027-9.847-5.41-19.16-15.883-24.273Zm16.933.336c.282 0 .508.207.508.461s-.226.461-.508.461c-.277 0-.503-.207-.503-.46 0-.255.226-.462.503-.462Zm-3.949.055c.418.844.926 1.73 1.715 2.746-.8-.688-1.672-.656-2.535-.758Zm11.387.184a.49.49 0 0 1 .414.195c.39.492.465.945.191 1.191-.375.34-.968.207-1.234-.273-.281-.5.184-1.094.629-1.114Zm46.977.683.015.762s-.18.195-.367.36c-.535.452-1.266 1.179-1.316 1.366-.172.602.48.82 1.125.38.222-.153.543-.384.543-.384v.938c-.543.422-1.086.836-1.829.7-.43-.122-.808-.43-.886-.825-.309-1.188.949-1.848 1.925-2.64.313-.255.79-.657.79-.657Zm-52.418.664h.074c.781 0 1.414.578 1.414 1.29 0 .714-.633 1.292-1.414 1.292-.785 0-1.418-.578-1.418-1.293 0-.687.597-1.254 1.344-1.289Zm28.441.29c.77 0 1.18.945.559 1.484-.247.21-.797.359-1.11.16-.86-.543-.226-1.606.551-1.645Zm-1.543.753c.45.434.785 1.688.523 1.926-.582.547-2.273-1.277-2.171-2.469.18-.715 1.484.383 1.648.543ZM38.93 64.02c.32 0 .383.265.308.421-.07.149-.32.16-.523.086-.344-.129-.184-.511.215-.507Zm-6.13.109c-.5 0-.902.367-.902.82 0 .457.403.824.903.824.496 0 .898-.367.898-.824 0-.453-.402-.82-.898-.82Zm-6.741.363c1.707 0 3.507 1.227 1.941 1.469-1.164.184-1.918-.027-2.824-.781-.461-.383-.297-.586.543-.672a3.2 3.2 0 0 1 .34-.016Zm6.742 0c.277 0 .504.203.504.457s-.227.461-.504.461c-.281 0-.508-.207-.508-.46 0-.255.227-.458.508-.458Zm2.363 1.168c.023-.004.05 0 .074 0 .782 0 1.414.574 1.414 1.29 0 .71-.632 1.292-1.414 1.292-.781 0-1.418-.582-1.418-1.293 0-.691.598-1.254 1.344-1.289Zm27.832.063c.402-.004.758.066.965.234.25.211-.125.613-.895.953-.898.399-2.464.344-2.46-.086.003-.574 1.359-1.082 2.39-1.101Zm-34.094.34c.785.003.996 2.226.313 3.289-.352.55-.828.183-1.168-.907-.281-.894.254-2.382.855-2.382Zm6.336.066c-.496 0-.902.367-.902.82 0 .453.406.82.902.82s.899-.367.899-.82c0-.453-.403-.82-.899-.82Zm29.348.144c.066 0 .148.032.262.079.855.386 1.48 2.175 1.035 2.976-.473.84-1.531-.777-1.52-2.324.004-.508.04-.711.192-.73h.03Zm-37.91.114h.054c.774.02 1.336.996.61 1.496-.32.219-.813.254-1.113.078a.823.823 0 0 1 .058-1.473.908.908 0 0 1 .39-.101Zm8.562.101c.278 0 .504.207.504.461s-.226.461-.504.461c-.277 0-.504-.207-.504-.46 0-.255.227-.462.504-.462Zm-5.293.157c.426.574 2.145 2.093 2.383 2.226-.762-.226-1.543-.133-2.324-.035.09-.527.183-1.39-.059-2.191Zm27.614.128c11.644 2.489 18.754 13.754 15.945 24.329 0 0-.98-.5-1.137-.739.41-1.828.664-4.726.149-7.64-.875-4.942-5.266-12.196-14.891-14.68-.105-.32-.066-1.27-.066-1.27Zm6.273.079c.133.722.258 1.453.453 2.101-.82-.539-1.75-1-2.7-1.371.68-.133 1.302-.242 2.247-.73Zm3.36.23c.46-.008.933.293.925.813-.008.23-.273.64-.484.738-.774.36-1.567-.324-1.227-1.059a.87.87 0 0 1 .785-.492Zm-29.262.281c.785 0 1.418.578 1.418 1.29 0 .714-.633 1.292-1.418 1.292-.782 0-1.414-.578-1.414-1.293 0-.71.632-1.289 1.414-1.289Zm0 .469c-.496 0-.899.367-.899.82 0 .453.403.82.899.82.5 0 .902-.367.902-.82 0-.453-.402-.82-.902-.82Zm-24.098.121c5.785 3.117 10.977 9.738 11.363 17.23l-1.402-.835c-.602-5.047-3.434-10.535-10.008-15.035 0 0 .02-.485.047-1.36Zm32.043 0h7.48v1.473l2.243-1.055v3.25l-2.243-1.234v1.418h-7.48v-1.493l-2.29 1.008.028-3.234 2.262 1.16Zm-7.945.238c.28 0 .508.207.508.461s-.227.461-.508.461c-.278 0-.504-.207-.504-.46 0-.255.226-.462.504-.462Zm2.941.258h.031l.086.469h-.043c-.496 0-.898.367-.898.82 0 .453.402.82.898.82a.97.97 0 0 0 .34-.058l.09.469c-.137.039-.281.062-.43.062-.78 0-1.414-.582-1.414-1.293 0-.691.594-1.254 1.34-1.289Zm16.899.164h.074c.781 0 1.414.578 1.414 1.29 0 .613-.469 1.124-1.098 1.257l-.082-.465c.383-.093.664-.414.664-.793 0-.453-.402-.82-.898-.82h-.063l-.086-.46c.024-.005.047-.009.075-.009Zm9.93.438c1.745.008 2.472.922 1.038 1.308-.66.184-1.531.086-2.386-.261-.715-.29.27-1.055 1.347-1.047Zm-36.509.086c.422 0 .832.058 1.133.187.73.317.715.531-.066.942-1.09.574-3.653-.008-2.88-.653.364-.3 1.11-.472 1.813-.476Zm9.754.14a.53.53 0 0 1 .114.012l.156.84a.553.553 0 0 1-.27.07c-.277 0-.504-.207-.504-.46 0-.255.227-.462.504-.462Zm16.903.164c.277.004.5.207.5.461 0 .2-.141.371-.336.434Zm3.078.332c.781 0 1.418.575 1.418 1.29 0 .71-.637 1.289-1.418 1.289-.781 0-1.414-.579-1.414-1.29 0-.714.633-1.289 1.414-1.289Zm-27.57.325a.453.453 0 0 1 .28.105c.848.633 1.274 1.973.938 2.969-.32.95-1.64-.738-1.633-2.082.004-.621.164-.98.414-.992Zm36.671.113c.114 0 .239.082.364.266.527.8.5 2.453-.047 2.968-.309.293-.422.239-.746-.36-.551-1.019-.137-2.878.43-2.874Zm-9.101.027c-.496 0-.899.371-.899.825 0 .453.403.82.899.82.5 0 .902-.367.902-.82 0-.454-.402-.825-.902-.825Zm-26.446.223a28.29 28.29 0 0 0 3.305 1.644c-1.066-.23-1.855.098-2.668.536.156-.813-.148-1.473-.637-2.18Zm32.133.172c.797.105 1.586.222 2.512.062a6.526 6.526 0 0 0-.156 2.188 14.68 14.68 0 0 0-2.356-2.25Zm-5.687-.031c.281 0 .508.207.508.46 0 .254-.227.461-.508.461-.278 0-.504-.207-.504-.46 0-.254.226-.461.504-.461Zm-29.2.316c.157.004.325.043.5.121.653.293.672 1.02.036 1.398-.801.477-1.848-.359-1.348-1.078.191-.277.45-.425.746-.437.02-.004.043-.004.067-.004Zm32.044.539c.78 0 1.414.578 1.414 1.29 0 .714-.633 1.292-1.414 1.292-.782 0-1.418-.578-1.418-1.293 0-.71.636-1.289 1.418-1.289Zm8.285.219a.867.867 0 0 1 .418.094c.504.238.609.847.21 1.203-.445.394-1.05.328-1.347-.149-.34-.547.125-1.14.719-1.148Zm-13.66.187c6.968 2.164 11.636 9.239 10.511 16.047l-.87-.75c.663-3.86-1.661-11.23-9.423-14.258Zm5.375.063c-.5 0-.903.367-.903.82 0 .457.403.824.903.824.496 0 .898-.367.898-.824 0-.453-.402-.82-.898-.82Zm0 .363c.277 0 .503.203.503.457s-.226.461-.503.461c-.282 0-.504-.207-.504-.46 0-.255.222-.458.504-.458Zm-26.508.078c.355.031.957-.027 1.097.278.16.386-.71 1.054-1.812 1.187-.45.023-1.414.129-1.617-.168-.188-.367 1.11-1.285 2.332-1.297Zm-22.13.227c.942-.035 2.005 1.113 1.052 2.05-.762.72-2.325 1.704-2.325 1.704v-.633s1.532-1.02 1.555-1.48c.004-.532-.476-.833-1.016-.512-.105.062-.527.375-.527.375l.035-1.059c.285-.285.79-.426 1.227-.445Zm24.075.27c.7.027 2.316 2.304 1.906 2.769-.328.367-1.644-.45-2.136-1.328-.266-.473-.188-1.317.132-1.426a.27.27 0 0 1 .098-.016Zm10.773.277s.07 5.296-.253 5.8c-1.313 2.16-4.137 1.036-4.38-.586-.171-.976-.07-5.203-.07-5.203Zm.415 0h4.515s-.02 7.457-.203 7.886c-.148.348-.805.95-1.215 1.114-1.328.527-2.746-.223-3.097-1.637-.254-1.024 0-7.363 0-7.363Zm4.894 0h2.996s.106.394.223.718c.207.567.914 2.196.996 2.293.367.446.383 5.32.023 5.875-1.324 1.809-3.523 1.285-4.328-.718-.203-.641.09-8.168.09-8.168Zm3.496.183c5.375 2.328 9.492 7.27 8.977 13.606l-.989-.899c.36-4.375-3.289-9.84-7.55-11.465Zm7.403.149c.78 0 1.417.578 1.417 1.289 0 .715-.636 1.293-1.418 1.293-.78 0-1.414-.578-1.414-1.293 0-.711.633-1.29 1.415-1.29Zm5.304.132c.528.008 1.168.172 1.649.532.574.433.656.773.21.902-.863.238-1.894.008-2.546-.578-.602-.54-.082-.867.687-.856Zm-5.305.336c-.496 0-.902.368-.902.82 0 .458.406.825.903.825.496 0 .902-.367.902-.824 0-.453-.406-.82-.903-.82Zm-28.332.106c.758.004 1.102.969.524 1.46-.238.2-.883.243-1.164.079-.778-.461-.32-1.547.64-1.54Zm9.973.246c-.25.652-.652 1.39-.984 1.898-.89 1.352-.774 2.262.168 2.72 1.379.671 2.383-1.134 1.02-1.845-.477-.25-.477-.25-.305-.921.214-.836.253-1.836.101-1.852Zm18.36.012c.277 0 .503.203.503.457s-.226.46-.504.46c-.277 0-.503-.206-.503-.46s.226-.457.504-.457Zm-13.52.265c-.063-.004-.016.332-.02.93-.007.965-.093 1.258-.773 2.55-.863 1.653-.746 2.782.324 3.15.832.28 1.64-.298 1.645-1.184.004-.422-.203-.75-.52-.836-.285-.016-.605-.137-.582-.266.176-.984 1.113-2.844-.074-4.344Zm17.863.133c.7.399 1.418.781 2.457.828-.441.969-.398 1.676-.472 2.45-.446-1.04-1.133-2.192-1.985-3.278Zm-53.328.149c.055 0 .113.003.168.011.668.094 1.23.875 1.05 1.457-.155.504-.202.59-2.355 1.903-1.191.726-1.316.757-1.316.757l-.64-.394s.538-.328 1.398-.856c1.648-1.011 1.894-1.25 1.722-1.703-.183-.492-.8-.386-1.777.297-1.445 1.016-1.594 1.082-1.594 1.082v-.605s.633-.461.907-.676c.668-.434 1.593-1.266 2.437-1.273Zm42.73.265c.16-.004.286.137.231.266-.027.066-.121.105-.25.105-.258 0-.27-.336-.016-.37h.036Zm14.5.703c.305.953-.351 2.547-.753 2.75-.43.387-.696.02-.79-.98.005-.813 1.02-3.348 1.544-1.77Zm-17.195-.535c.133 1.375.18 2.52-.527 3.633-.918 1.45-.68 2.691.3 2.965.981.273 1.844-.363 1.673-1.23-.055-.266-.454-.7-.7-.758-.3-.07-.336-.239-.164-.786.332-1.054.22-2.394-.28-3.359-.048-.145-.231-.469-.302-.465Zm3.29.457c.827.004 1.214.985.597 1.5-.344.285-.563.156-.922-.547-.336-.656-.23-.953.324-.953Zm7.679.203c.785 0 1.418.575 1.418 1.29 0 .71-.633 1.288-1.418 1.288-.781 0-1.414-.578-1.414-1.289 0-.714.633-1.289 1.414-1.289Zm0 .465c-.496 0-.898.371-.898.824 0 .454.402.82.898.82.5 0 .902-.367.902-.82 0-.453-.402-.824-.902-.824Zm0 .363c.281 0 .508.207.508.461s-.227.461-.508.461c-.277 0-.504-.207-.504-.46 0-.255.227-.462.504-.462Zm-6.074.34a.738.738 0 0 1 .332.059c.746.328.664 1.27-.16 1.832-.52.355-.739.234-1.227-.684-.262-.5.43-1.183 1.055-1.207Zm-43.242.106a.95.95 0 0 1 .214.031c.77.191 1.258 1.012 1.063 1.633-.422.957-1.86 1.281-2.95 1.683l-.566-.379s.801-.414 1.578-.738c.727-.308.844-.43.79-.812-.106-.754-.504-.727-2.313.16-.734.363-1.273.683-1.273.683l-.399-.3c.598-.36.953-.559 1.61-.965 1.09-.68 1.71-.973 2.168-.992.027-.004.054-.004.078-.004Zm57.445.558c.266.727-.273 1.368-1.078 1.082-.442-.156-.75-.668-.48-1.14.363-.52 1.382-.43 1.558.058Zm-16.211-.254 1.273 2.086s.02.579.028.903c.05 1.351.367 1.8 1.238 1.668a6.73 6.73 0 0 0 .371-.09l.555.847s-.598.239-.754.27c-1.023.195-2.441-.504-2.66-1.441-.215-.907-.051-4.243-.051-4.243Zm-41.691.856c.382.027.222.293.043.383-.747.347-1.454.722-2.235 1.133l-.52-.293s.403-.207.68-.364c.856-.48 1.727-.847 2.032-.86Zm51.148.27c.781 0 1.414.578 1.414 1.288 0 .711-.633 1.293-1.414 1.293-.781 0-1.418-.582-1.418-1.293 0-.71.637-1.289 1.418-1.289Zm-5.992.175c.324-.008.597.121.773.387.38.574-.02 1.273-.937 1.644-.512.207-.598.165-1.145-.574-.37-.496-.367-.586.04-.906.46-.355.902-.54 1.269-.55Zm-49.707.114 20.285 11.976-.578.898-19.668-11.738Zm60.27.156c1.234.02 2.84 1.32 2.273 1.836a.425.425 0 0 1-.262.09c-1.762-.094-3.703-1.957-2.012-1.926Zm-4.571.023c-.496 0-.902.367-.902.82 0 .454.406.82.902.82s.898-.366.898-.82c0-.453-.402-.82-.898-.82Zm-27.09.227.54 1.273-10.094 14.656-.993-.582Zm27.09.133c.277 0 .504.207.504.46 0 .254-.227.461-.504.461s-.504-.207-.504-.46c0-.254.227-.461.504-.461Zm3.707.152c.492.84 1.316 1.351 2.254 1.715-.883.664-1.328 1.527-1.293 2.43-.227-1.356-.418-2.704-.96-4.145Zm-53.363.445c.215 0 .41.04.562.137 1.895 1.184.157 2.352-.004 2.262l-.644-.371c.223-.336.723-.79-.086-1.215-.457-.18-.969.039-1.414.32l-.68-.422s1.328-.719 2.266-.71Zm44.61.668c.073-.004.14 0 .21.012 1.067.187.992 1.223-.121 1.703-.637.27-.75.215-1.3-.652-.263-.407.523-1.043 1.21-1.063Zm-44.954.38c.113 0 .258.093.277.175.055.273-.496.547-.496.547l-.633-.383c.27-.137.551-.32.852-.34Zm56.89.245c.153-.012.266.055.313.227.215.8-.762 2.289-1.664 2.531-.527.14-.68-.086-.508-.75.242-.934 1.305-1.969 1.86-2.008Zm-32.718.063 1.644 1.086-9.855 14.207-1.707-.926Zm26.82.113c.781 0 1.414.578 1.414 1.293 0 .71-.633 1.289-1.414 1.289-.781 0-1.418-.578-1.418-1.29 0-.714.637-1.292 1.418-1.292Zm0 .469c-.496 0-.902.367-.902.824 0 .453.406.82.902.82s.899-.367.899-.82c0-.457-.403-.824-.899-.824Zm0 .363c.278 0 .504.203.504.46 0 .255-.226.458-.504.458-.277 0-.504-.203-.504-.457 0-.258.227-.461.504-.461Zm-22.644.047c1.066 1.098 2.27 3.558 6.465 2.398 1.43 1.063 3.402 1.664 5.835.489l.016 6.625-18.625.02Zm-34.02.168 18.344 11.008-.574.925-17.785-10.367Zm51.496.012c.016 0 .031 0 .043.003.938.207 1.043 1.063.172 1.391-.465.172-.562.129-1.008-.469-.175-.238-.277-.433-.25-.496.063-.144.778-.433 1.043-.43Zm11.77.902c.328.004.652.16.804.473.23.468.098.859-.375 1.12-.785.43-1.66-.359-1.253-1.128.164-.313.496-.465.824-.465Zm-11.485.898c.43.004.793.38.582.61-.136.152-.316.105-.546-.133-.27-.285-.286-.477-.036-.477Zm5.258.164c.781 0 1.414.579 1.414 1.293 0 .711-.633 1.29-1.414 1.29-.781 0-1.418-.579-1.418-1.29 0-.714.637-1.293 1.418-1.293Zm3.989.075c1.066.004 2.546 1.629 2.296 2.523-.082.29-.683.133-1.394-.367-.961-.672-1.582-2.16-.903-2.156Zm-3.989.394c-.5 0-.902.367-.902.824 0 .454.402.82.902.82.496 0 .899-.367.899-.82 0-.457-.403-.824-.899-.824Zm3.43.168c.293.785.598 1.606 1.926 2.176-2.063.879-2.457 2.355-2.149 4.25l-.48-.27c.441-1.699.777-3.632.703-6.156Zm-3.43.195c.278 0 .504.204.504.461 0 .254-.226.457-.504.457-.281 0-.508-.203-.508-.457 0-.257.227-.46.508-.46Zm-.265 2.07c.78 0 1.418.579 1.418 1.294 0 .449-.254.847-.637 1.078l-.457-.313c.336-.117.578-.418.578-.765 0-.457-.402-.825-.902-.825-.473 0-.86.336-.895.758l-.46-.312c.179-.528.718-.914 1.355-.914Zm6.445.169c.672 0-.375 1.707-1.336 2.172-.734.351-1.402.379-1.402.054.007-.843 1.71-2.234 2.738-2.226Zm-6.445.664c.28 0 .507.207.507.46 0 .255-.226.458-.507.458-.278-.028-.5-.223-.504-.457 0-.254.226-.461.504-.461Zm6.226 1.55c.332.008.66.137.8.391.185.332.114.63-.218.926-.816.734-1.922-.02-1.39-.945.144-.254.476-.375.808-.371Zm-2.601.696c1.132.031 1.992 1.316 1.785 2.047-.18.191-1.43-.672-1.563-.762-.16-.258-.168-.676-.222-1.285Zm-1.547.797 3.554 1.949-3.546 2.074Zm-31.657.965 19.094.062.004.73-19.621.012Zm-.777 1.144h1.281v1.426h-1.761v-.79Zm18.348.031h1.543v1.43h-1.543Zm-15.156.012h1.757v1.426H43.52Zm3.656.012h1.898v1.426h-1.898Zm3.886 0h1.825v1.426h-1.825Zm3.903.023h1.738v1.426h-1.738ZM39.066 95.29l21.176.047v.855l-21.781-.046Zm18.07 1.8c2.157-.019 3.41 2.173 1.727 3.716-1.55 1.418-4.133-.395-2.843-1.985.718-.89 2.492-.175 2.05.774-.293.625-1.246.332-1.218-.344.003-.27-.22-.086-.243.203-.03.367.38.77.86.774 1.25 0 1.437-1.512.23-2.067-1.074-.496-2.21.137-2.472 1.395-.028.136-.207.476-.34.718-.399.73-.528 1.153-.727 1.985-.094.105-.37.27-.566.36-.614.28-.59.163-.36-.75.664-2.626 1.746-4.317 3.07-4.661.29-.074.567-.113.833-.117Zm6.376.138c1.332-.024 2.336.976 2.508 1.746.765 2.351-2.657 3.793-3.848 1.664-.668-1.219.71-2.672 1.976-2.106 1.036.465.97 1.903-.09 1.899-.574.023-.921-.446-.605-.825.164-.148.36-.03.445-.28.032-.106-.128-.188-.523-.114-.648.117-.582 1.312.172 1.55 1.121.352 2.082-.726 1.547-1.792-.64-1.281-2.38-1.29-3.176.054a5.882 5.882 0 0 1-.395.598c-1.187 1.465-1.277 1.688-1.632 2.504-.036.082-.098.14-.203.129a2.71 2.71 0 0 0-.868.144c-.148-.035.051-.55.063-.59.808-2.273 2.883-4.527 4.629-4.581Zm-10.317.64c-.28.445-1.125 1.899-1.71 4.04-.157-.087-.57-.243-.872-.34-.113-.036-.023-.157-.027-.337.21-.968.898-2.656 1.652-3.52.16-.105 1.192-.14.957.157Zm1.207.43c-.722.84-1.476 3.078-1.636 4.23a3.731 3.731 0 0 1-.078.43c-.114.344-.82-.394-.817-.855.004-.778.953-3.153 1.629-4.063.234-.312.266-.367.77-.383.808-.02.453.266.132.64Zm-35.363-.559c-.18.004-.355.028-.531.067-1.047.234-2.297 1.246-2.418 2.32-.055.035-.2.785-.11 1.164.348 1.441 1.27 2.422 2.399 3.852 0 0-1.418 2.004-2.39 2.93l2.3 3.034c-.637 1.149-1.742 2.016-2.02 3.43-.433 1.863.637 3.68 2.91 3.844 1.7.047 2.813-1 3.024-2.582.086-1.055-.39-2.375-2.101-4.465l-.25-.316s.191-.207.293-.344c.601-.742 2.171-2.555 2.171-2.555l-2.343-3.023s.101-.203.28-.43c1.915-2.379 2.27-3.586 1.93-4.77-.132-.464-.449-.824-.878-1.218-.696-.645-1.492-.953-2.266-.938Zm-.055.293a3.024 3.024 0 0 1 2.145.86c1.433 1.37 1.308 2.53-.559 5.066-.41.555-.812 1.168-.812 1.168l2.355 2.969s-.379.52-.777.945c-1.078 1.156-1.68 1.984-1.68 1.984.41.57 1.07 1.184 1.489 1.872.503.777.804 1.55.89 2.261.188 1.492-.875 3.086-2.695 3.121-1.77.012-3.113-1.328-3.074-3.015.015-.75.355-1.446.77-2.121.425-.692 1.417-2.032 1.417-2.032l-2.281-3.03 2.418-2.938s-1.758-1.961-2.297-3.375c-.438-1.606.383-2.52.492-2.66a2.822 2.822 0 0 1 2.2-1.075Zm-1.496 4.258c.352.832.922 1.453 1.567 2.047.601-.64 1.27-1.477 1.633-2.277 1.765-3.856-5.051-4.172-3.2.23Zm1.543 1.668c-.867-.918-1.476-1.684-1.535-2.89-.094-2.399 3.34-2.13 3.172.015-.191 1.164-.867 1.902-1.637 2.875Zm42.582-3.77c.067.336.43.91.399 1.043-.168.356-.41.532-.75 1.114-.075.125-.04.148-.23.12-.18-.023-.493-.112-.66-.16-.099-.023-.208-.07-.161-.183.324-.683.687-1.496 1.402-1.933Zm-5.695 1.032-.402.957c-.04.101-.043.117-.16.097a3.438 3.438 0 0 0-.665-.027c-.5-.058.446-1.766.586-2.023.203.03.508.761.641.996Zm.383.222a.025.025 0 0 1 .023 0c.207.024.516.125.742.215.125.047.13.051.075.192-.118.21-.258.816-.414 1.03-.004.032-.711-.386-.914-.464-.008-.117.222-.941.488-.973Zm6.02.11c.234.008.523.203.683.316.074.133.004.27-.254.68-.234.363-.473.754-.531.715-.176-.125-.504-.29-.664-.492-.117-.149.11-.536.265-.747.242-.332.36-.449.5-.472Zm-3.829-.047c.215.043-.129 1.062-.191 1.191-.207.282-.528.649-.781.797-.13.078-.528-.14-.52-.394.008-.184.387-1.098.512-1.34.02-.035.734-.25.98-.254Zm-8.86.39c.052-.003.098 0 .15 0a2.613 2.613 0 0 1 2.28 1.22c.262.406.266.421.204.8-.141.89-.09 1.488.164 2.035.297.621.25.836-.465 2.215-.719 1.39-1.594 3.086-2.258 4.656a16.644 16.644 0 0 0-.734 2.059c-.11.394-.633.277-1.157.258-.265.054.383-1.578 1.344-3.532.774-1.562 1.82-3.32 2.238-5.07.34-1.426.235-2.012.047-2.61-.722-1.741-3.234-1.316-3.226.29.05 1.039 1.37 1.597 1.855.578.078-.469-.176-.195-.386.031-.454.489-1.235-.054-1.11-.773.16-.946 1.496-1.254 2.145-.508.707.816.55 1.66-.473 2.293-1.05.707-2.012.305-2.54-.426-1.12-1.648.415-3.472 1.923-3.515Zm5.212.692c1.047.02 2.183.816 2.367 1.45.098.429-.055.937.113 1.35.14.333.274.524.176.817-.863 2.527-2.895 5.223-3.898 8.211-.118.207-.223.234-.48.3-.403.106-.56.095-.602-.097-.04-.18.093-.527.328-1.172.28-.777.902-2.105 1.27-2.73.847-1.453 1.32-2.45 1.937-3.692.113-.23.148-.367.328-.703.777-1.437-.102-2.851-1.711-2.86-1.274-.007-1.844 1.813-.727 2.345 1.09.523 1.907-.844.934-1.328-.234-.118-.293-.008-.106.199.43.472.043 1.11-.558.855-.93-.39-.45-1.84.637-1.754 1.675.13 1.894 2.356.183 2.918-2.351.774-3.586-2.68-1.37-3.84a2.4 2.4 0 0 1 1.179-.27Zm4.957.066a2.65 2.65 0 0 1 1.804.657c1.313 1.152.965 2.93-1.257 6.367-.73 1.152-1.438 2.539-1.828 3.547-.094.254-.176.382-.395.492-.387.191-.824.219-.879.082-.144-.352.957-2.524 2.918-5.934.516-.91 1.168-1.968 1.133-3.05-.129-.86-.914-1.477-1.961-1.196-.707.192-.996 1.098-.477 1.555.22.191.485.293.657.277.328.008.695-.285.066-.316-.664-.004-.89-.766-.328-1.11.805-.496 1.734.086 1.668 1.051-.133 1.938-3.234 1.649-3.317-.347-.05-1.235 1.012-2.047 2.196-2.075Zm-8.762 3.102c.469-.031-.336 2.27-1.746 4.851-.77 1.434-1.352 2.97-1.95 4.465-.163.2-1.132.239-1.132.032 1.723-5.036 2.941-5.903 3.531-7.82.102-.333.176-.81.192-.852.433-.114.8-.59 1.105-.676Zm-31.894.34-1.825 2.172 1.782 2.304 1.851-2.203Zm39.527.672c-.004.257-.55 1.511-.957 2.261-1.79 3.293-2.235 4.18-2.543 5.055-.055.16-.145.266-.258.3-.223.079-.844.188-.894.11.378-1.922 3.273-6.3 3.832-8.215.226-.011.8.301.82.489Zm1.43-.204c.12-.007.171.04.136.188-.058.238-.367.797-.914 1.773-1.504 2.7-2.293 4.297-2.547 5.122-.058.19-.093.343-.195.39-.207.102-.93.367-.965.078.227-1.218 1.106-2.011 3.387-7.101.105-.168.2-.25.3-.262.282-.043.524-.164.798-.188Zm-6.176.836c-.059.317-.453.973-1.106 2.188-1.086 2.023-1.789 3.531-2.215 4.867-.07.219-.164.445-.257.504-.176.113-.97.078-.97.078-.12-.55.837-2.613 1.9-4.781.577-1.18 1.25-2.356 1.699-3.414.308.043.906.312.949.558Zm1.61-.52c.323-.003.073.493-.7 1.884-.625 1.125-1.625 2.71-2.27 4.527-.168.402-.367.898-.437 1.11-.098.269-.184.402-.305.456-.234.106-.797.098-.894-.011-.16-.172.675-2.219 1.488-3.793.715-1.32 1.219-2.38 1.84-3.602.168-.242.176-.258.347-.293.36-.023.73-.242.93-.277Zm-36.36.263.941 1.148-1.105 1.25-.918-1.219Zm-.14 4.945s-.4.422-.81 1.086c-1.203 1.82-1.234 3.168.18 3.965.598.277 1.38.218 1.871-.172 1.602-1.278.41-3.031-.625-4.219-.273-.348-.617-.66-.617-.66Zm.058.469c.601.644 1.039 1.132 1.441 1.945.461 1.094.164 1.95-.726 2.355-1.41.637-2.692-.796-2.024-2.324.496-1.133 1.309-1.976 1.309-1.976Zm39.48 2.156c.133.23-13.418 3.09-23.418.637l-6.082 8.027 35.117-.059Zm-.515.57s3.265 5.153 4.867 7.676h-2.25l-3.211-6.266a37.957 37.957 0 0 1-5.125.95l1.14 5.316h-1.683l-.953-5.078c-2.461.172-4.965.238-7.524.172l-1.101 4.906h-1.766l1.133-4.871c-1.945-.238-3.875-.465-5.852-.762l-3.308 5.633h-2.489l5.192-7.07c7.754 1.422 14.902 1.086 22.93-.606Zm-1.227 2.766 2.547 4.91h-4.82l-.891-4.379Zm-20.64.355 4.214.5-1.086 4.055H33.63Zm13.761.606.578 3.949H43.27l.804-3.871Zm0 0" style="stroke:none;fill-rule:nonzero;fill:#000;fill-opacity:1"/></svg>