<svg xmlns="http://www.w3.org/2000/svg" width="99" height="140"><path d="M9.298 719.743h215.404c4.93 0 8.92 4.005 8.92 8.938v314.362c0 4.934-3.99 8.938-8.92 8.938H9.298c-4.93 0-8.92-4.004-8.92-8.938V728.681c0-4.933 3.99-8.938 8.92-8.938Zm0 0" style="fill-rule:nonzero;fill:#fff;fill-opacity:1;stroke-width:.755906;stroke-linecap:butt;stroke-linejoin:miter;stroke:gray;stroke-opacity:1;stroke-miterlimit:4" transform="matrix(.42308 0 0 .42042 0 -302.435)"/><path d="M19.34 67.883c0-.703-.04-1.207-.04-1.91h4.497V62.52c-2.848.093-5.93.3-8.598-.868-2.062-1.125-2.633-3.746-2.215-5.898.356-2.434 1.715-4.59 3.489-6.254 2.308-2.453 5.254-4.113 8.328-5.445 3.137 1.355 6.148 3.066 8.484 5.586 2.11 1.968 3.512 4.746 3.469 7.656.043 2.101-1.266 4.32-3.426 4.781-2.414.664-4.86.547-7.34.442v3.453h4.254c0 .703.04 1.207.04 1.91-3.34-.024-7.337-.024-10.942 0ZM19.34 72.117c0 .703-.04 1.207-.04 1.91h4.497v3.453c-2.848-.093-5.93-.3-8.598.868-2.062 1.125-2.633 3.746-2.215 5.898.356 2.434 1.715 4.59 3.489 6.254 2.308 2.453 5.254 4.113 8.328 5.445 3.137-1.355 6.148-3.066 8.484-5.586 2.11-1.968 3.512-4.746 3.469-7.656.043-2.101-1.266-4.32-3.426-4.781-2.414-.664-4.86-.547-7.34-.442v-3.453h4.254c0-.703.04-1.207.04-1.91-3.34.024-7.337.024-10.942 0ZM68.73 67.883c0-.703-.039-1.207-.039-1.91h4.496V62.52c-2.847.093-5.93.3-8.597-.868-2.063-1.125-2.633-3.746-2.215-5.898.355-2.434 1.715-4.59 3.488-6.254 2.309-2.453 5.254-4.113 8.328-5.445 3.137 1.355 6.149 3.066 8.485 5.586 2.105 1.968 3.511 4.746 3.469 7.656.043 2.101-1.266 4.32-3.426 4.781-2.414.664-4.86.547-7.34.442v3.453h4.254c0 .703.039 1.207.039 1.91-3.34-.024-7.336-.024-10.942 0ZM68.73 39.82c0-.703-.039-1.207-.039-1.91h4.496v-3.453c-2.847.094-5.93.3-8.597-.867-2.063-1.125-2.633-3.746-2.215-5.899.355-2.433 1.715-4.59 3.488-6.253 2.309-2.454 5.254-4.11 8.328-5.446 3.137 1.356 6.149 3.067 8.485 5.586 2.105 1.969 3.511 4.746 3.469 7.656.043 2.102-1.266 4.32-3.426 4.782-2.414.664-4.86.547-7.34.441v3.453h4.254c0 .703.039 1.207.039 1.91-3.34-.023-7.336-.023-10.942 0ZM19.34 39.82c0-.703-.04-1.207-.04-1.91h4.497v-3.453c-2.848.094-5.93.3-8.598-.867-2.062-1.125-2.633-3.746-2.215-5.899.356-2.433 1.715-4.59 3.489-6.253 2.308-2.454 5.254-4.11 8.328-5.446 3.137 1.356 6.148 3.067 8.484 5.586 2.11 1.969 3.512 4.746 3.469 7.656.043 2.102-1.266 4.32-3.426 4.782-2.414.664-4.86.547-7.34.441v3.453h4.254c0 .703.04 1.207.04 1.91-3.34-.023-7.337-.023-10.942 0ZM44.035 81.914c0-.703-.039-1.207-.039-1.91h4.496V76.55c-2.847.094-5.93.3-8.597-.867-2.063-1.125-2.633-3.746-2.215-5.899.355-2.433 1.715-4.594 3.488-6.254 2.309-2.453 5.254-4.113 8.328-5.445 3.137 1.355 6.149 3.066 8.484 5.586 2.11 1.969 3.512 4.746 3.47 7.656.042 2.102-1.266 4.32-3.427 4.777-2.414.668-4.859.551-7.34.446v3.453h4.255c0 .703.039 1.207.039 1.91-3.34-.023-7.336-.023-10.942 0ZM5.457 25.79c0-.235-.012-.403-.012-.638h1.5V24c-.949.031-1.976.102-2.867-.29-.687-.374-.879-1.245-.738-1.964.117-.812.57-1.531 1.164-2.086.77-.816 1.75-1.37 2.773-1.812 1.047.449 2.051 1.02 2.828 1.859.704.656 1.172 1.582 1.157 2.555.015.699-.422 1.437-1.14 1.59-.806.222-1.622.183-2.45.148v1.152h1.422c0 .235.011.403.011.637a283.894 283.894 0 0 0-3.648 0ZM19.34 100.18c0 .703-.04 1.207-.04 1.91h4.497v3.453c-2.848-.094-5.93-.3-8.598.867-2.062 1.125-2.633 3.746-2.215 5.899.356 2.433 1.715 4.59 3.489 6.254 2.308 2.453 5.254 4.109 8.328 5.445 3.137-1.356 6.148-3.067 8.484-5.586 2.11-1.969 3.512-4.746 3.469-7.656.043-2.102-1.266-4.32-3.426-4.782-2.414-.664-4.86-.546-7.34-.441v-3.453h4.254c0-.703.04-1.207.04-1.91-3.34.023-7.337.023-10.942 0ZM68.73 100.18c0 .703-.039 1.207-.039 1.91h4.496v3.453c-2.847-.094-5.93-.3-8.597.867-2.063 1.125-2.633 3.746-2.215 5.899.355 2.433 1.715 4.59 3.488 6.254 2.309 2.453 5.254 4.109 8.328 5.445 3.137-1.356 6.149-3.067 8.485-5.586 2.105-1.969 3.511-4.746 3.469-7.656.043-2.102-1.266-4.32-3.426-4.782-2.414-.664-4.86-.546-7.34-.441v-3.453h4.254c0-.703.039-1.207.039-1.91-3.34.023-7.336.023-10.942 0ZM68.73 72.117c0 .703-.039 1.207-.039 1.91h4.496v3.453c-2.847-.093-5.93-.3-8.597.868-2.063 1.125-2.633 3.746-2.215 5.898.355 2.434 1.715 4.59 3.488 6.254 2.309 2.453 5.254 4.113 8.328 5.445 3.137-1.355 6.149-3.066 8.485-5.586 2.105-1.968 3.511-4.746 3.469-7.656.043-2.101-1.266-4.32-3.426-4.781-2.414-.664-4.86-.547-7.34-.442v-3.453h4.254c0-.703.039-1.207.039-1.91-3.34.024-7.336.024-10.942 0ZM89.898 114.21c0 .235-.011.403-.011.638h1.5V116c-.95-.031-1.977-.102-2.867.29-.688.374-.88 1.245-.739 1.964.117.812.57 1.531 1.164 2.086.77.816 1.75 1.37 2.774 1.812 1.047-.449 2.05-1.02 2.828-1.859.703-.656 1.172-1.582 1.156-2.555.016-.699-.422-1.437-1.14-1.59-.805-.222-1.622-.183-2.45-.148v-1.152h1.422c0-.235.012-.403.012-.637-1.113.008-2.445.008-3.649 0ZM11.262 9.066c0 1.696-.297 3.075-.89 4.137-.743 1.328-1.888 1.996-3.434 1.996-.903 0-1.649-.18-2.239-.543-.71-.445-1.066-1.101-1.066-1.965 0-.191.133-.285.394-.285h1.188c.152 0 .285.09.39.266.16.265.286.437.372.512.218.18.539.27.96.27.711 0 1.266-.337 1.66-1.009.313-.539.485-1.207.524-1.996-.625.504-1.375.754-2.246.754-1.11 0-1.992-.394-2.648-1.183-.622-.743-.93-1.684-.93-2.829 0-1.203.34-2.152 1.02-2.851.68-.703 1.609-1.055 2.788-1.055 2.774 0 4.157 1.93 4.157 5.781ZM9.074 7.242c0-.59-.16-1.094-.476-1.504-.348-.453-.801-.683-1.364-.683-.578 0-1.035.222-1.379.668-.308.406-.464.91-.464 1.52 0 .616.152 1.124.457 1.523.332.441.793.66 1.386.66.59 0 1.051-.223 1.38-.668.304-.399.46-.906.46-1.516ZM87.738 130.934c0-1.696.297-3.075.89-4.137.743-1.328 1.888-1.996 3.434-1.996.903 0 1.649.18 2.239.543.71.445 1.066 1.101 1.066 1.965 0 .191-.133.285-.394.285h-1.188c-.152 0-.285-.09-.39-.266-.16-.266-.286-.437-.372-.512-.218-.18-.539-.27-.96-.27-.711 0-1.266.337-1.66 1.009-.313.539-.485 1.207-.524 1.996.625-.504 1.375-.754 2.246-.754 1.11 0 1.992.394 2.648 1.183.622.743.93 1.684.93 2.829 0 1.203-.34 2.152-1.02 2.851-.68.703-1.609 1.055-2.788 1.055-2.774 0-4.157-1.93-4.157-5.781Zm2.188 1.824c0 .59.16 1.094.476 1.504.348.453.801.683 1.364.683.578 0 1.035-.222 1.379-.668.308-.406.464-.91.464-1.52 0-.616-.152-1.124-.457-1.523-.332-.441-.793-.66-1.386-.66-.59 0-1.051.223-1.38.668-.304.399-.46.906-.46 1.516Zm0 0" style="stroke:none;fill-rule:nonzero;fill:#000;fill-opacity:1"/></svg>